# https://github.com/mikedh/trimesh
v 0.00536735 0.04618990 0.01713099
v 0.00536735 0.04578114 0.01115077
v 0.00387886 0.04588748 0.01713099
v 0.00682768 0.04612011 0.01713099
v 0.00685151 0.04591574 0.01115077
v 0.00685151 0.04581438 0.00966268
v 0.00536735 0.04563160 0.00966268
v 0.00376186 0.04537073 0.01111364
v 0.00387886 0.04553855 0.01263886
v 0.00255287 0.04531756 0.01412695
v 0.00168188 0.04515638 0.01504580
v 0.00239037 0.04546876 0.01713099
v 0.00685151 0.04611845 0.01713099
v 0.00834000 0.04568311 0.00966268
v 0.00834000 0.04546876 0.00817613
v 0.00685151 0.04553025 0.00817613
v 0.00544752 0.04532420 0.00822408
v 0.00447253 0.04522285 0.00875156
v 0.00417786 0.04531423 0.00966268
v 0.00318770 0.04514808 0.01059389
v 0.00180971 0.04511817 0.01412695
v 0.00090188 0.04459144 0.01263886
v 0.00090188 0.04473600 0.01412695
v 0.00161471 0.04518297 0.01603889
v 0.00156488 0.04521122 0.01710314
v 0.00156488 0.04521122 0.01713099
v 0.00834000 0.04574625 0.01713099
v 0.00834000 0.04573130 0.01115077
v 0.00961833 0.04535245 0.00966268
v 0.00938216 0.04526106 0.00817613
v 0.00834000 0.04523614 0.00725419
v 0.00913733 0.04518131 0.00738258
v 0.00685151 0.04524943 0.00723717
v 0.00599352 0.04519792 0.00736092
v 0.00500336 0.04505170 0.00776002
v 0.00393736 0.04482407 0.00822408
v 0.00239037 0.04465957 0.00966268
v 0.00343470 0.04505337 0.00966268
v 0.00247920 0.04497195 0.01111364
v 0.00208054 0.04503675 0.01263886
v 0.00090188 0.04436214 0.01115077
v -0.00035261 0.04397665 0.01263886
v -0.00045011 0.04403979 0.01412695
v 0.00083472 0.04478751 0.01713099
v 0.00939950 0.04536242 0.01713099
v 0.00960316 0.04536242 0.01115077
v 0.01036366 0.04508826 0.00966268
v 0.01012532 0.04502678 0.00817613
v 0.00834000 0.04494370 0.00651014
v 0.01131698 0.04425746 0.00668803
v 0.00971149 0.04484234 0.00680714
v 0.00685151 0.04489385 0.00649313
v 0.00544752 0.04472271 0.00679477
v 0.00394386 0.04406305 0.00669731
v 0.00282587 0.04385037 0.00720005
v 0.00235354 0.04409463 0.00814364
v 0.00135688 0.04383708 0.00862008
v 0.00087805 0.04399327 0.00970908
v 0.00005472 0.04373738 0.01023656
v -0.00013595 0.04384705 0.01115077
v -0.00109577 0.04353134 0.01263886
v -0.00119327 0.04358119 0.01412695
v -0.00043494 0.04404478 0.01561505
v 0.00081955 0.04477754 0.01713099
v 0.00942333 0.04535245 0.01713099
v 0.01034849 0.04507330 0.01115077
v 0.01131698 0.04464461 0.00966268
v 0.01131698 0.04454824 0.00817613
v 0.00990433 0.04407302 0.00507464
v 0.00945799 0.04375400 0.00436463
v 0.00824034 0.04414115 0.00506227
v 0.01131698 0.04387529 0.00555418
v 0.01226381 0.04380717 0.00668803
v 0.01210348 0.04370415 0.00587902
v 0.00866933 0.04375400 0.00436463
v 0.00685151 0.04414946 0.00533606
v 0.00536735 0.04395339 0.00562997
v 0.00448553 0.04376563 0.00585736
v 0.00004822 0.04226853 0.00733927
v 0.00183354 0.04355793 0.00762699
v 0.00087805 0.04328210 0.00814364
v -0.00140994 0.04225192 0.00882581
v 0.00036455 0.04355461 0.00924347
v -0.00049994 0.04319736 0.00970908
v -0.00164177 0.04242638 0.00966268
v -0.00087911 0.04340008 0.01115077
v -0.00194510 0.04265568 0.01115077
v -0.00280743 0.04218047 0.01199536
v -0.00221810 0.04268891 0.01255069
v -0.00118027 0.04351307 0.01561505
v -0.00285076 0.04222367 0.01298691
v -0.00285076 0.04222367 0.01360411
v -0.00030494 0.04403481 0.01710314
v -0.00030061 0.04403314 0.01713099
v 0.01016649 0.04490880 0.01713099
v 0.01248264 0.04397832 0.00966268
v 0.01131698 0.04457483 0.01115077
v 0.01245448 0.04394342 0.00817613
v 0.01045032 0.04365264 0.00449611
v 0.01080565 0.04225358 0.00291520
v 0.00982849 0.04231007 0.00287498
v 0.01131698 0.04351473 0.00481012
v 0.01300697 0.04330371 0.00668803
v 0.01372630 0.04234829 0.00519994
v 0.01356597 0.04220373 0.00443424
v 0.01280548 0.04242804 0.00413878
v 0.00889900 0.04228515 0.00289664
v 0.00767701 0.04365929 0.00447445
v 0.00685151 0.04347817 0.00459202
v 0.00534785 0.04293483 0.00486891
v 0.00017605 0.04068669 0.00595017
v -0.00050428 0.04140617 0.00697111
v -0.00155294 0.04088276 0.00724336
v -0.00094411 0.04187473 0.00783427
v -0.00050428 0.04249783 0.00826739
v -0.00197760 0.04135299 0.00828286
v -0.00294610 0.04083125 0.00873300
v -0.00238493 0.04180495 0.00966268
v -0.00269043 0.04207246 0.01115077
v -0.00337076 0.04132807 0.01115077
v -0.00411392 0.04038927 0.01115077
v -0.00331659 0.04158894 0.01255069
v -0.00277276 0.04212398 0.01459566
v -0.00415942 0.04036434 0.01263886
v -0.00322993 0.04155405 0.01411149
v -0.00110661 0.04302290 0.01713099
v 0.01107648 0.04417770 0.01713099
v 0.01238514 0.04392182 0.01115077
v 0.01322581 0.04339842 0.00966268
v 0.01319981 0.04340506 0.00817613
v 0.01130615 0.04269390 0.00361903
v 0.01179581 0.04208243 0.00306216
v 0.01130615 0.04153078 0.00265224
v 0.00982849 0.04144604 0.00247434
v 0.01394297 0.04255931 0.00668803
v 0.01446946 0.04160888 0.00519994
v 0.01505446 0.04072159 0.00442650
v 0.01409680 0.04124831 0.00393459
v 0.01363530 0.04078140 0.00290592
v 0.01280548 0.04179664 0.00339473
v 0.00837684 0.04144438 0.00268472
v 0.00726751 0.04094922 0.00284560
v 0.00790667 0.04194120 0.00309928
v 0.00582885 0.04243801 0.00431203
v 0.00685151 0.04273378 0.00407536
v 0.00982849 0.03995725 0.00196387
v -0.00142294 0.03930092 0.00589449
v -0.00058661 0.04038428 0.00618066
v -0.00198410 0.03986587 0.00674217
v -0.00301326 0.03943884 0.00723253
v -0.00254526 0.04043081 0.00774146
v -0.00330793 0.03994396 0.00821325
v -0.00430675 0.03921120 0.00892172
v -0.00398392 0.03994894 0.00951572
v -0.00316059 0.04106055 0.00966268
v -0.00443025 0.03944881 0.00991327
v -0.00452125 0.03964487 0.01115077
v -0.00308043 0.04113200 0.01535363
v -0.00121277 0.04286006 0.01713099
v -0.00405542 0.03993067 0.01412850
v -0.00448009 0.03962161 0.01263886
v -0.00437609 0.03941723 0.01363350
v 0.01109165 0.04416441 0.01713099
v 0.01312831 0.04329872 0.01115077
v 0.01398197 0.04265402 0.00966268
v 0.01401447 0.04266067 0.00817613
v 0.01280548 0.04105224 0.00275897
v 0.01280548 0.03995725 0.00228099
v 0.01131698 0.03995725 0.00202730
v 0.01468613 0.04179664 0.00668803
v 0.01516496 0.04086615 0.00519994
v 0.01505879 0.03924775 0.00294923
v 0.01462763 0.04023972 0.00343496
v 0.01568279 0.03995725 0.00519994
v 0.01523213 0.03982931 0.00384333
v 0.01419647 0.03982931 0.00275897
v 0.00834000 0.03995725 0.00221602
v 0.00680384 0.04144438 0.00329883
v 0.00627518 0.04041752 0.00303586
v 0.01207748 0.03773736 0.00147506
v 0.01190631 0.03773736 0.00147506
v 0.00982849 0.03846846 0.00166069
v -0.00176960 0.03846846 0.00572433
v -0.00281393 0.03771742 0.00594708
v -0.00251276 0.03846846 0.00616828
v -0.00333609 0.03846846 0.00691233
v -0.00430675 0.03772407 0.00743208
v -0.00412475 0.03861801 0.00802763
v -0.00453859 0.03821922 0.00842362
v -0.00470975 0.03861801 0.00951572
v -0.00496542 0.03846846 0.01115077
v -0.00281176 0.04064681 0.01634517
v -0.00199060 0.04146930 0.01713099
v -0.00192777 0.04158396 0.01713099
v -0.00421792 0.03846846 0.01462350
v -0.00326026 0.04007356 0.01575581
v -0.00480725 0.03846846 0.01263886
v -0.00448009 0.03846846 0.01387946
v 0.01183481 0.04332032 0.01713099
v 0.01371114 0.04238484 0.01263886
v 0.01387147 0.04255433 0.01115077
v 0.01472513 0.04173682 0.00966268
v 0.01475763 0.04184316 0.00817613
v 0.01429397 0.03846846 0.00235369
v 0.01266681 0.03832889 0.00175350
v 0.01529713 0.04105391 0.00668803
v 0.01574779 0.03846846 0.00371185
v 0.01619195 0.03697635 0.00380620
v 0.01518663 0.03846846 0.00284714
v 0.01589946 0.03995725 0.00668803
v 0.01632412 0.03839868 0.00520303
v 0.00906583 0.03631504 0.00147197
v 0.00834000 0.03846846 0.00199791
v -0.00207510 0.03549421 0.00506072
v 0.00602385 0.03942554 0.00292449
v 0.00680384 0.03993565 0.00274196
v -0.00222027 0.03712756 0.00548611
v 0.01137332 0.03708768 0.00140700
v 0.01318464 0.03698300 0.00155705
v 0.01244148 0.03698300 0.00142092
v 0.01091399 0.03765428 0.00148589
v 0.00982849 0.03735852 0.00151837
v -0.00309776 0.03672711 0.00577228
v -0.00410092 0.03549421 0.00613425
v -0.00370226 0.03722725 0.00654417
v -0.00449309 0.03673376 0.00714127
v -0.00478125 0.03713088 0.00802763
v -0.00529908 0.03698300 0.00966268
v -0.00529691 0.03698300 0.01115077
v -0.00250193 0.04007356 0.01701188
v -0.00243043 0.04006193 0.01713099
v -0.00240876 0.04018323 0.01713099
v -0.00499142 0.03698300 0.01263886
v -0.00453859 0.03698300 0.01388564
v -0.00413775 0.03698300 0.01462969
v -0.00337509 0.03836544 0.01575581
v 0.01227898 0.04258922 0.01713099
v 0.01359630 0.04225192 0.01354378
v 0.01466663 0.04137626 0.01117397
v 0.01521696 0.04099409 0.00966268
v 0.01530579 0.04109877 0.00817613
v 0.01429397 0.03698300 0.00204122
v 0.01649095 0.03746984 0.00470803
v 0.01655379 0.03647787 0.00436463
v 0.01626345 0.03544768 0.00380620
v 0.01546396 0.03549421 0.00266616
v 0.01539029 0.03698300 0.00270792
v 0.01585179 0.03995725 0.00817613
v 0.01638479 0.03861468 0.00668803
v 0.01655379 0.03785533 0.00570112
v 0.00982849 0.03661412 0.00144103
v 0.01131698 0.03549421 0.00132966
v 0.00906583 0.03595945 0.00147197
v -0.00207510 0.03400708 0.00494470
v -0.00351809 0.03400708 0.00553561
v -0.00335776 0.03549421 0.00562223
v 0.01346414 0.03549421 0.00149363
v 0.01271881 0.03549421 0.00138070
v -0.00426125 0.03400708 0.00598266
v -0.00466208 0.03549421 0.00687830
v -0.00526658 0.03549421 0.00817613
v -0.00549841 0.03549421 0.00966268
v -0.00533591 0.03549421 0.01115077
v -0.00217693 0.03833221 0.01713099
v -0.00287243 0.03879414 0.01645655
v -0.00474875 0.03536294 0.01277808
v -0.00445409 0.03577003 0.01364124
v -0.00395576 0.02921670 0.01145395
v -0.00339243 0.03698300 0.01543716
v -0.00280526 0.03780050 0.01634672
v 0.01228548 0.04257593 0.01713099
v 0.01342947 0.04190464 0.01453688
v 0.01425063 0.04144604 0.01263886
v 0.01511079 0.04083292 0.01069289
v 0.01561779 0.03995725 0.00966268
v 0.01429397 0.03549421 0.00193603
v 0.01661228 0.03697635 0.00520303
v 0.01655379 0.03591127 0.00436463
v 0.01601429 0.03400708 0.00371185
v 0.01538163 0.03400708 0.00270638
v 0.01429397 0.03400708 0.00200255
v 0.01631329 0.03835880 0.00807094
v 0.01653862 0.03779053 0.00750323
v 0.01655812 0.03787029 0.00668803
v 0.01663178 0.03698300 0.00668803
v 0.01131698 0.03400708 0.00137916
v 0.01012966 0.03400708 0.00145186
v 0.00938650 0.03400708 0.00149981
v 0.00973533 0.03547593 0.00143330
v 0.01256064 0.03400708 0.00140700
v 0.01228981 0.03251829 0.00144413
v 0.00917850 0.03496748 0.00148589
v -0.00207510 0.03251829 0.00496481
v -0.00355059 0.03251829 0.00553251
v -0.00429592 0.03251829 0.00595327
v 0.01330381 0.03400708 0.00151992
v -0.00476825 0.03400708 0.00672671
v -0.00540741 0.03400708 0.00817613
v -0.00548325 0.03400708 0.00966268
v -0.00532291 0.03251829 0.00966268
v -0.00490692 0.02921670 0.00966268
v -0.00511708 0.03400708 0.01115077
v -0.00153994 0.03732529 0.01713099
v -0.00321043 0.02921670 0.01221811
v -0.00447575 0.02921670 0.01070991
v 0.01262348 0.04144438 0.01713099
v 0.01362230 0.04091267 0.01501796
v 0.01498296 0.04049229 0.01168599
v 0.01524513 0.03998052 0.01117397
v 0.01592112 0.03846846 0.00966268
v 0.01660795 0.03544768 0.00516436
v 0.01651045 0.03491930 0.00464461
v 0.01563729 0.03251829 0.00371185
v 0.01508913 0.03162601 0.00291675
v 0.01521263 0.03251829 0.00281621
v 0.01429397 0.03251829 0.00218817
v 0.01654729 0.03698300 0.00751870
v 0.01654079 0.03617380 0.00747539
v 0.01659928 0.03560387 0.00659522
v 0.01209048 0.03174731 0.00147351
v 0.01194098 0.03174731 0.00147351
v 0.01139498 0.03255485 0.00144413
v 0.01038532 0.03307493 0.00146733
v 0.00834000 0.02954237 0.00212475
v 0.00834000 0.03102950 0.00200255
v 0.00986533 0.03255485 0.00153539
v 0.00982849 0.03102950 0.00165295
v 0.01303514 0.03251829 0.00159727
v -0.00207510 0.03102950 0.00506536
v -0.00349642 0.03102950 0.00558047
v -0.00471842 0.03102950 0.00674527
v -0.00477258 0.03251829 0.00669731
v -0.00423959 0.03102950 0.00600122
v -0.00536625 0.03251829 0.00817613
v -0.00507158 0.02921670 0.00817613
v -0.00197110 0.02921670 0.01304414
v -0.00154644 0.02921670 0.01324524
v -0.00072528 0.02921670 0.01361030
v -0.00084011 0.03680355 0.01713099
v 0.01251081 0.03987750 0.01713099
v 0.01366780 0.03995725 0.01507828
v 0.01414447 0.03995725 0.01412695
v 0.01510429 0.03950031 0.01206188
v 0.01479013 0.03998052 0.01259091
v 0.01544446 0.03846846 0.01115077
v 0.01632629 0.03698300 0.00826275
v 0.01654945 0.03466673 0.00603834
v 0.01654945 0.03466673 0.00563616
v 0.01636095 0.03410511 0.00516436
v 0.01587779 0.03251829 0.00519994
v 0.01503713 0.03028345 0.00445125
v 0.01519096 0.03108932 0.00385725
v 0.01488113 0.03063404 0.00345970
v 0.01436980 0.02921670 0.00381703
v 0.01381730 0.02921670 0.00274350
v 0.01389097 0.02954237 0.00268781
v 0.01434813 0.03108932 0.00255633
v 0.01613995 0.03560387 0.00805392
v 0.01641512 0.03518183 0.00702989
v 0.01511513 0.03846846 0.01207425
v 0.01507396 0.03764265 0.01196752
v 0.01131698 0.02921670 0.00199481
v 0.01131698 0.02954237 0.00191283
v 0.00982849 0.02921670 0.00190355
v 0.00982849 0.02954237 0.00184167
v 0.01267331 0.03116243 0.00175660
v 0.01280548 0.02954237 0.00219591
v 0.01094865 0.03208295 0.00149827
v 0.00834000 0.02921670 0.00216961
v -0.00207510 0.02921670 0.00526182
v -0.00207510 0.02954237 0.00522005
v -0.00333393 0.02921670 0.00568102
v -0.00336859 0.02954237 0.00565936
v -0.00464042 0.02921670 0.00687056
v -0.00411392 0.02954237 0.00610331
v 0.00090188 0.02921670 0.01391813
v -0.00062344 0.03670883 0.01713099
v 0.01244148 0.03971300 0.01713099
v 0.01363314 0.03899685 0.01500094
v 0.01473596 0.03846846 0.01281830
v 0.01620929 0.03410511 0.00659522
v 0.01522129 0.03133191 0.00643280
v 0.01501546 0.03033994 0.00546600
v 0.01527113 0.03091319 0.00506227
v 0.01503713 0.03028345 0.00447291
v 0.01457780 0.02921670 0.00510094
v 0.01444996 0.02921670 0.00424552
v 0.01308497 0.02921670 0.00241092
v 0.01547479 0.03397717 0.00823027
v 0.01503496 0.03178054 0.00742589
v 0.01549212 0.03237373 0.00683344
v 0.01338830 0.03800488 0.01469930
v 0.01378264 0.03739507 0.01370775
v 0.01368514 0.02921670 0.00790852
v 0.01377180 0.02921670 0.00777085
v 0.01280981 0.02921670 0.00229955
v -0.00391459 0.02921670 0.00602752
v -0.00407709 0.02921670 0.00612652
v 0.00239037 0.02921670 0.01389028
v 0.00183354 0.03632002 0.01713099
v 0.00090188 0.03632667 0.01713099
v 0.00038838 0.03641639 0.01713099
v 0.01228764 0.03893039 0.01677366
v 0.01152932 0.03847843 0.01713099
v 0.01427663 0.02921670 0.00669886
v 0.01450630 0.02921670 0.00553406
v 0.01416613 0.02921670 0.00696028
v 0.01309797 0.02921670 0.00874074
v 0.01327347 0.02921670 0.00849478
v 0.00387886 0.02921670 0.01369692
v 0.00834217 0.03696306 0.01713099
v 0.00687968 0.03676200 0.01713099
v 0.00685151 0.03675868 0.01713099
v 0.00555152 0.03663406 0.01713099
v 0.00349970 0.03644630 0.01713099
v 0.00239037 0.03635990 0.01713099
v 0.01236348 0.02921670 0.00955130
v 0.01251514 0.02921670 0.00939042
v 0.01160298 0.02921670 0.01028297
v 0.01176548 0.02921670 0.01013447
v 0.01143615 0.03838538 0.01713099
v 0.01102232 0.02921670 0.01075167
v 0.00458736 0.02921670 0.01355770
v 0.00976783 0.03737846 0.01713099
v 0.01136248 0.03833221 0.01713099
v 0.00912866 0.02921670 0.01191802
v 0.00975483 0.02921670 0.01157616
v 0.01073849 0.02921670 0.01094658
v 0.00490152 0.02921670 0.01347881
v 0.00981116 0.03740338 0.01713099
v 0.00548435 0.02921670 0.01332567
v 0.00684501 0.02921670 0.01291111
v 0.00824034 0.02921670 0.01235888
v 0.00848083 0.02921670 0.01224131
f 1 2 3
f 1 3 12
f 1 12 26
f 1 26 44
f 1 44 64
f 1 64 94
f 1 94 126
f 1 126 159
f 1 159 194
f 1 194 193
f 1 193 232
f 1 232 231
f 1 231 264
f 1 264 303
f 1 303 339
f 1 339 377
f 1 377 402
f 1 402 401
f 1 401 400
f 1 400 416
f 1 416 415
f 1 415 414
f 1 414 413
f 1 413 412
f 1 412 411
f 1 411 424
f 1 424 430
f 1 430 425
f 1 425 421
f 1 421 404
f 1 404 378
f 1 378 340
f 1 340 306
f 1 306 271
f 1 271 237
f 1 237 199
f 1 199 163
f 1 163 127
f 1 127 95
f 1 95 65
f 1 65 45
f 1 45 27
f 1 27 13
f 1 13 4
f 1 4 5
f 1 5 6
f 1 6 2
f 2 7 8
f 2 8 9
f 2 9 3
f 2 6 7
f 3 9 10
f 3 10 11
f 3 11 12
f 4 13 5
f 5 13 14
f 5 14 6
f 6 14 15
f 6 15 16
f 6 16 7
f 7 17 18
f 7 18 19
f 7 19 8
f 7 16 17
f 8 19 20
f 8 20 21
f 8 21 10
f 8 10 9
f 10 21 11
f 11 21 22
f 11 22 23
f 11 23 24
f 11 24 12
f 12 24 25
f 12 25 26
f 13 27 28
f 13 28 14
f 14 28 29
f 14 29 30
f 14 30 15
f 15 31 16
f 15 30 32
f 15 32 31
f 16 31 33
f 16 33 34
f 16 34 17
f 17 34 35
f 17 35 18
f 18 35 36
f 18 36 37
f 18 37 38
f 18 38 19
f 19 38 20
f 20 38 37
f 20 37 39
f 20 39 40
f 20 40 21
f 21 40 22
f 22 40 39
f 22 39 41
f 22 41 42
f 22 42 23
f 23 25 24
f 23 42 43
f 23 43 25
f 25 44 26
f 25 43 44
f 27 45 46
f 27 46 28
f 28 46 29
f 29 46 47
f 29 47 48
f 29 48 30
f 30 48 32
f 31 49 33
f 31 32 49
f 32 48 50
f 32 50 51
f 32 51 49
f 33 49 52
f 33 52 34
f 34 53 35
f 34 52 53
f 35 54 55
f 35 55 36
f 35 53 54
f 36 55 56
f 36 56 57
f 36 57 37
f 37 57 58
f 37 58 41
f 37 41 39
f 41 58 59
f 41 59 60
f 41 60 42
f 42 61 43
f 42 60 61
f 43 61 62
f 43 62 63
f 43 63 44
f 44 63 64
f 45 65 66
f 45 66 47
f 45 47 46
f 47 66 67
f 47 67 68
f 47 68 48
f 48 68 50
f 49 51 69
f 49 69 70
f 49 70 71
f 49 71 52
f 50 72 51
f 50 68 73
f 50 73 74
f 50 74 72
f 51 72 69
f 52 71 75
f 52 75 76
f 52 76 77
f 52 77 53
f 53 77 78
f 53 78 54
f 54 78 55
f 55 79 80
f 55 80 57
f 55 57 56
f 55 78 79
f 57 81 82
f 57 82 83
f 57 83 58
f 57 80 81
f 58 83 59
f 59 83 84
f 59 84 85
f 59 85 86
f 59 86 60
f 60 86 61
f 61 86 87
f 61 87 88
f 61 88 89
f 61 89 62
f 62 90 63
f 62 89 91
f 62 91 92
f 62 92 90
f 63 93 64
f 63 90 93
f 64 93 94
f 65 95 96
f 65 96 97
f 65 97 67
f 65 67 66
f 67 97 96
f 67 96 98
f 67 98 68
f 68 98 73
f 69 72 99
f 69 99 70
f 70 75 71
f 70 99 100
f 70 100 101
f 70 101 75
f 72 102 99
f 72 74 102
f 73 98 103
f 73 103 74
f 74 103 104
f 74 104 105
f 74 105 106
f 74 106 102
f 75 101 107
f 75 107 108
f 75 108 76
f 76 108 77
f 77 108 109
f 77 109 78
f 78 109 110
f 78 110 111
f 78 111 79
f 79 111 112
f 79 112 113
f 79 113 114
f 79 114 82
f 79 82 115
f 79 115 80
f 80 115 81
f 81 115 82
f 82 85 84
f 82 84 83
f 82 114 116
f 82 116 117
f 82 117 118
f 82 118 85
f 85 118 119
f 85 119 87
f 85 87 86
f 87 119 88
f 88 91 89
f 88 119 120
f 88 120 121
f 88 121 122
f 88 122 91
f 90 92 123
f 90 123 94
f 90 94 93
f 91 122 92
f 92 122 124
f 92 124 125
f 92 125 123
f 94 123 126
f 95 127 128
f 95 128 96
f 96 128 129
f 96 129 130
f 96 130 98
f 98 130 103
f 99 102 131
f 99 131 100
f 100 131 132
f 100 132 133
f 100 133 134
f 100 134 101
f 101 134 107
f 102 106 131
f 103 130 135
f 103 135 104
f 104 135 136
f 104 136 137
f 104 137 105
f 105 137 138
f 105 138 139
f 105 139 140
f 105 140 106
f 106 140 132
f 106 132 131
f 107 141 142
f 107 142 143
f 107 143 144
f 107 144 145
f 107 145 109
f 107 109 108
f 107 134 146
f 107 146 141
f 109 145 144
f 109 144 110
f 110 144 111
f 111 144 147
f 111 147 148
f 111 148 112
f 112 148 113
f 113 148 147
f 113 147 149
f 113 149 150
f 113 150 151
f 113 151 116
f 113 116 114
f 116 151 117
f 117 150 152
f 117 152 153
f 117 153 154
f 117 154 155
f 117 155 118
f 117 151 150
f 118 155 119
f 119 155 120
f 120 155 121
f 121 124 122
f 121 155 154
f 121 154 156
f 121 156 157
f 121 157 124
f 123 125 158
f 123 158 159
f 123 159 126
f 124 160 125
f 124 157 161
f 124 161 162
f 124 162 160
f 125 160 158
f 127 163 164
f 127 164 128
f 128 164 129
f 129 164 165
f 129 165 166
f 129 166 130
f 130 166 135
f 132 140 139
f 132 139 167
f 132 167 133
f 133 167 168
f 133 168 169
f 133 169 134
f 134 169 146
f 135 166 170
f 135 170 136
f 136 170 171
f 136 171 137
f 137 172 173
f 137 173 139
f 137 139 138
f 137 171 174
f 137 174 175
f 137 175 172
f 139 173 172
f 139 172 176
f 139 176 168
f 139 168 167
f 141 146 177
f 141 177 142
f 142 178 143
f 142 177 179
f 142 179 147
f 142 147 178
f 143 178 144
f 144 178 147
f 146 169 180
f 146 180 181
f 146 181 182
f 146 182 177
f 147 183 184
f 147 184 185
f 147 185 150
f 147 150 149
f 147 179 183
f 150 186 187
f 150 187 188
f 150 188 153
f 150 153 152
f 150 185 184
f 150 184 186
f 153 187 189
f 153 189 190
f 153 190 156
f 153 156 154
f 153 188 187
f 156 190 157
f 157 190 191
f 157 191 161
f 158 160 192
f 158 192 193
f 158 193 194
f 158 194 159
f 160 162 195
f 160 195 196
f 160 196 192
f 161 191 197
f 161 197 162
f 162 197 198
f 162 198 195
f 163 199 200
f 163 200 201
f 163 201 164
f 164 201 165
f 165 201 202
f 165 202 203
f 165 203 166
f 166 203 170
f 168 176 204
f 168 204 205
f 168 205 169
f 169 205 180
f 170 203 206
f 170 206 171
f 171 206 174
f 172 175 207
f 172 207 208
f 172 208 209
f 172 209 204
f 172 204 176
f 174 210 211
f 174 211 207
f 174 207 175
f 174 206 210
f 177 212 213
f 177 213 214
f 177 214 215
f 177 215 216
f 177 216 179
f 177 182 212
f 179 214 217
f 179 217 183
f 179 216 214
f 180 218 181
f 180 205 219
f 180 219 220
f 180 220 218
f 181 218 221
f 181 221 182
f 182 221 222
f 182 222 212
f 183 217 184
f 184 217 223
f 184 223 224
f 184 224 225
f 184 225 187
f 184 187 186
f 187 226 227
f 187 227 189
f 187 225 226
f 189 227 228
f 189 228 190
f 190 228 191
f 191 228 229
f 191 229 197
f 192 230 231
f 192 231 232
f 192 232 193
f 192 196 195
f 192 195 230
f 195 198 233
f 195 233 234
f 195 234 235
f 195 235 236
f 195 236 231
f 195 231 230
f 197 229 233
f 197 233 198
f 199 237 238
f 199 238 200
f 200 238 239
f 200 239 240
f 200 240 202
f 200 202 201
f 202 240 241
f 202 241 203
f 203 241 206
f 204 209 242
f 204 242 219
f 204 219 205
f 206 241 210
f 207 211 243
f 207 243 208
f 208 243 244
f 208 244 245
f 208 245 246
f 208 246 247
f 208 247 209
f 209 247 242
f 210 241 248
f 210 248 249
f 210 249 211
f 211 249 250
f 211 250 243
f 212 222 251
f 212 251 252
f 212 252 253
f 212 253 254
f 212 254 214
f 212 214 213
f 214 254 255
f 214 255 256
f 214 256 223
f 214 223 217
f 214 216 215
f 218 220 252
f 218 252 251
f 218 251 221
f 219 257 220
f 219 242 257
f 220 257 258
f 220 258 252
f 221 251 222
f 223 256 224
f 224 256 259
f 224 259 260
f 224 260 226
f 224 226 225
f 226 260 261
f 226 261 227
f 227 261 228
f 228 261 262
f 228 262 229
f 229 262 263
f 229 263 233
f 231 236 265
f 231 265 264
f 233 266 234
f 233 263 266
f 234 266 267
f 234 267 235
f 235 268 269
f 235 269 270
f 235 270 265
f 235 265 236
f 235 267 268
f 237 271 238
f 238 272 273
f 238 273 274
f 238 274 239
f 238 271 272
f 239 274 240
f 240 274 275
f 240 275 248
f 240 248 241
f 242 247 276
f 242 276 257
f 243 250 277
f 243 277 244
f 244 277 278
f 244 278 245
f 245 278 279
f 245 279 280
f 245 280 246
f 246 280 281
f 246 281 276
f 246 276 247
f 248 275 282
f 248 282 283
f 248 283 249
f 249 283 284
f 249 284 250
f 250 284 285
f 250 285 277
f 252 286 287
f 252 287 288
f 252 288 289
f 252 289 253
f 252 258 290
f 252 290 291
f 252 291 286
f 253 289 292
f 253 292 293
f 253 293 254
f 254 293 294
f 254 294 255
f 255 294 295
f 255 295 259
f 255 259 256
f 257 296 290
f 257 290 258
f 257 276 281
f 257 281 296
f 259 295 297
f 259 297 260
f 260 297 261
f 261 298 262
f 261 297 298
f 262 298 299
f 262 299 263
f 263 299 300
f 263 300 301
f 263 301 302
f 263 302 266
f 264 265 270
f 264 270 304
f 264 304 303
f 266 302 301
f 266 301 305
f 266 305 267
f 267 305 268
f 268 304 269
f 268 305 301
f 268 301 335
f 268 335 374
f 268 374 398
f 268 398 397
f 268 397 372
f 268 372 370
f 268 370 369
f 268 369 364
f 268 364 362
f 268 362 396
f 268 396 388
f 268 388 355
f 268 355 354
f 268 354 387
f 268 387 386
f 268 386 406
f 268 406 405
f 268 405 407
f 268 407 395
f 268 395 394
f 268 394 409
f 268 409 408
f 268 408 418
f 268 418 417
f 268 417 420
f 268 420 419
f 268 419 422
f 268 422 428
f 268 428 427
f 268 427 426
f 268 426 434
f 268 434 433
f 268 433 432
f 268 432 431
f 268 431 429
f 268 429 423
f 268 423 410
f 268 410 399
f 268 399 376
f 268 376 338
f 268 338 337
f 268 337 336
f 268 336 304
f 269 304 270
f 271 306 307
f 271 307 308
f 271 308 272
f 272 308 273
f 273 308 274
f 274 308 275
f 275 309 310
f 275 310 282
f 275 308 309
f 277 311 278
f 277 285 311
f 278 311 312
f 278 312 279
f 279 313 314
f 279 314 315
f 279 315 280
f 279 312 313
f 280 315 316
f 280 316 281
f 281 316 296
f 282 310 283
f 283 317 285
f 283 285 284
f 283 310 317
f 285 317 318
f 285 318 319
f 285 319 311
f 286 291 320
f 286 320 321
f 286 321 322
f 286 322 323
f 286 323 287
f 287 323 288
f 288 324 325
f 288 325 292
f 288 292 289
f 288 323 326
f 288 326 327
f 288 327 324
f 290 296 291
f 291 296 328
f 291 328 320
f 292 325 329
f 292 329 293
f 293 329 330
f 293 330 294
f 294 330 295
f 295 331 332
f 295 332 297
f 295 330 333
f 295 333 331
f 296 316 328
f 297 332 298
f 298 334 299
f 298 332 334
f 299 334 335
f 299 335 300
f 300 335 301
f 303 336 337
f 303 337 338
f 303 338 339
f 303 304 336
f 306 340 341
f 306 341 342
f 306 342 307
f 307 342 343
f 307 343 344
f 307 344 308
f 308 344 343
f 308 343 309
f 309 343 310
f 310 343 345
f 310 345 346
f 310 346 317
f 311 319 347
f 311 347 348
f 311 348 312
f 312 348 349
f 312 349 313
f 313 349 350
f 313 350 351
f 313 351 352
f 313 352 314
f 314 352 353
f 314 353 354
f 314 354 355
f 314 355 356
f 314 356 357
f 314 357 316
f 314 316 315
f 316 357 356
f 316 356 328
f 317 346 318
f 318 358 359
f 318 359 347
f 318 347 319
f 318 346 345
f 318 345 360
f 318 360 361
f 318 361 358
f 320 362 363
f 320 363 364
f 320 364 365
f 320 365 321
f 320 328 366
f 320 366 367
f 320 367 362
f 321 365 327
f 321 327 368
f 321 368 322
f 322 368 323
f 323 368 326
f 324 327 365
f 324 365 369
f 324 369 370
f 324 370 371
f 324 371 329
f 324 329 325
f 326 368 327
f 328 367 366
f 328 356 367
f 329 371 372
f 329 372 373
f 329 373 330
f 330 373 333
f 331 334 332
f 331 333 374
f 331 374 334
f 333 373 375
f 333 375 374
f 334 374 335
f 338 376 377
f 338 377 339
f 340 378 379
f 340 379 341
f 341 379 380
f 341 380 360
f 341 360 342
f 342 360 343
f 343 360 345
f 347 359 381
f 347 381 382
f 347 382 383
f 347 383 350
f 347 350 348
f 348 350 349
f 350 384 385
f 350 385 351
f 350 383 384
f 351 385 386
f 351 386 387
f 351 387 354
f 351 354 353
f 351 353 352
f 355 388 356
f 356 388 367
f 358 389 390
f 358 390 359
f 358 361 389
f 359 390 391
f 359 391 381
f 360 380 361
f 361 390 389
f 361 380 379
f 361 379 392
f 361 392 393
f 361 393 394
f 361 394 395
f 361 395 390
f 362 364 363
f 362 367 396
f 364 369 365
f 367 388 396
f 370 372 371
f 372 397 375
f 372 375 373
f 374 375 398
f 375 397 398
f 376 399 400
f 376 400 401
f 376 401 402
f 376 402 377
f 378 403 392
f 378 392 379
f 378 404 403
f 381 391 382
f 382 391 405
f 382 405 383
f 383 405 406
f 383 406 386
f 383 386 384
f 384 386 385
f 390 395 407
f 390 407 405
f 390 405 391
f 392 408 393
f 392 403 408
f 393 408 409
f 393 409 394
f 399 410 411
f 399 411 412
f 399 412 413
f 399 413 414
f 399 414 415
f 399 415 416
f 399 416 400
f 403 417 418
f 403 418 408
f 403 404 419
f 403 419 420
f 403 420 417
f 404 421 422
f 404 422 419
f 410 423 424
f 410 424 411
f 421 425 426
f 421 426 427
f 421 427 428
f 421 428 422
f 423 429 424
f 424 429 431
f 424 431 432
f 424 432 430
f 425 430 432
f 425 432 433
f 425 433 434
f 425 434 426

