# https://github.com/mikedh/trimesh
v 0.00820337 0.00282936 0.01938246
v 0.00788635 0.00282936 0.01850932
v -0.00678737 0.00282936 0.01938246
v 0.00712666 -0.00319877 0.01938246
v 0.00701068 -0.01460478 0.00371240
v 0.00711120 -0.01361318 0.00371240
v 0.00711700 -0.01212663 0.00371240
v 0.00697395 -0.01063837 0.00371240
v 0.00667240 -0.00915011 0.00371240
v 0.00616401 -0.00826090 0.00288988
v 0.00741662 0.00282936 0.01731772
v -0.00671198 0.00203403 0.01938246
v -0.00655733 0.00282936 0.01864852
v -0.00900650 -0.00952900 0.00257563
v -0.00987830 -0.01063837 0.00371240
v -0.01025331 -0.01139444 0.00371240
v -0.01057806 -0.01213857 0.00371240
v -0.01119083 -0.01361318 0.00371240
v -0.01154458 -0.01460478 0.00371240
v -0.01150399 -0.01460478 0.00396337
v -0.01127782 -0.01460478 0.00515497
v -0.01110965 -0.01460478 0.00554725
v 0.00680384 -0.00468703 0.01938246
v 0.00681544 -0.01460478 0.00519926
v 0.00677872 -0.01460478 0.00222342
v 0.00680964 -0.01361318 0.00222342
v 0.00673812 -0.01212663 0.00222342
v 0.00645976 -0.01061277 0.00212852
v 0.00631285 -0.00915011 0.00260516
v 0.00603063 -0.01009904 0.00156963
v 0.00494233 -0.00643983 0.00267054
v 0.00460598 -0.00544994 0.00299111
v 0.00593398 -0.00726759 0.00343401
v 0.00734896 0.00282936 0.01714689
v -0.00609147 -0.00389511 0.01938246
v -0.00609340 0.00282936 0.01721227
v -0.00732282 -0.00686481 0.00290886
v -0.00868175 -0.01001883 0.00158228
v -0.00932932 -0.01056498 0.00213695
v -0.01046014 -0.01238263 0.00262625
v -0.01124109 -0.01460478 0.00280130
v -0.01056259 -0.01460478 0.00660598
v -0.00581891 -0.00548578 0.01938246
v -0.00589237 -0.00510859 0.01938246
v -0.00597742 -0.00464949 0.01938246
v 0.00633798 -0.00588344 0.01938246
v 0.00636891 -0.01460478 0.00657856
v 0.00632638 -0.01460478 0.00115204
v 0.00632445 -0.01361318 0.00117524
v 0.00626259 -0.01212663 0.00128702
v 0.00617754 -0.01109235 0.00140090
v 0.00546618 -0.01061277 0.00096434
v 0.00440687 -0.01063837 0.00015025
v 0.00338816 -0.00947438 -0.00018508
v 0.00388109 -0.00904600 0.00036537
v 0.00500418 -0.00915011 0.00117946
v 0.00471423 -0.00825920 0.00139669
v 0.00400287 -0.00598755 0.00211164
v 0.00439334 -0.00726589 0.00167929
v 0.00340169 -0.00652858 0.00123429
v 0.00301122 -0.00553869 0.00155064
v 0.00353701 -0.00468703 0.00260516
v 0.00319099 -0.00386951 0.00290886
v 0.00568268 0.00282936 0.01400234
v 0.00618334 0.00282936 0.01474682
v 0.00663954 0.00282936 0.01561363
v -0.00579765 0.00282936 0.01642561
v -0.00587690 -0.00535436 0.00286668
v -0.00640269 -0.00631524 0.00239004
v -0.00593876 -0.00675899 0.00135029
v -0.00693041 -0.00737341 0.00191551
v -0.00578218 0.00282936 0.01639186
v -0.00544777 0.00282936 0.01568323
v -0.00541684 0.00282936 0.01561996
v -0.00472674 0.00282936 0.01438196
v -0.00731509 -0.00836502 0.00144941
v -0.00761277 -0.00915011 0.00118578
v -0.00712951 -0.01011099 0.00012705
v -0.00807670 -0.01056156 0.00068805
v -0.00846525 -0.01181942 0.00025992
v -0.00880739 -0.01281102 -0.00004378
v -0.00897363 -0.01101214 0.00125116
v -0.01002714 -0.01198326 0.00216859
v -0.01017019 -0.01314725 0.00163501
v -0.01066118 -0.01363195 0.00216859
v -0.01105359 -0.01460478 0.00226349
v -0.01041568 -0.01460478 0.00688015
v -0.00541491 -0.00624697 0.01938246
v -0.01010640 -0.01460478 0.00741585
v -0.00944916 -0.01460478 0.00842607
v -0.00893497 -0.01460478 0.00912416
v -0.00874940 -0.01460478 0.00937302
v 0.00616787 -0.00622991 0.01938246
v 0.00606349 -0.01460478 0.00733781
v 0.00567688 -0.01460478 0.00040755
v 0.00562662 -0.01361318 0.00043075
v 0.00488240 -0.01361318 -0.00020618
v 0.00474129 -0.01250552 -0.00010072
v 0.00457505 -0.01151391 0.00002582
v 0.00366265 -0.01063837 -0.00036224
v 0.00306728 -0.00848107 0.00002371
v 0.00238878 -0.01063837 -0.00095066
v 0.00249896 -0.00904600 -0.00043606
v 0.00388882 -0.00772158 0.00100441
v 0.00246417 -0.00608825 0.00093059
v 0.00249896 -0.00752360 0.00016502
v 0.00201764 -0.00518028 0.00129967
v 0.00246417 -0.00468533 0.00189020
v 0.00238878 -0.00356060 0.00268109
v 0.00252216 -0.00275844 0.00360273
v 0.00310787 -0.00247854 0.00448641
v 0.00493846 0.00282936 0.01300266
v -0.00422029 -0.00399922 0.00305649
v -0.00468228 0.00282936 0.01430814
v -0.00419902 0.00282936 0.01360162
v -0.00417196 0.00282936 0.01356366
v -0.00340068 0.00282936 0.01257663
v -0.00337941 0.00282936 0.01255132
v -0.00217126 0.00282936 0.01115515
v -0.00505150 -0.00649957 0.00112884
v -0.00514041 -0.00767038 0.00033163
v -0.00569520 -0.00846742 0.00003425
v -0.00659599 -0.00903917 0.00037803
v -0.00647615 -0.00778644 0.00111197
v -0.00322864 -0.00367495 0.00274857
v -0.00613786 -0.00946073 -0.00024836
v -0.00747360 -0.01110430 -0.00015978
v -0.00799165 -0.01223927 -0.00031584
v -0.00802645 -0.01361318 -0.00078615
v -0.00899683 -0.01361318 -0.00021883
v -0.00979131 -0.01363195 0.00081670
v -0.00915921 -0.01223927 0.00074711
v -0.01033063 -0.01413885 0.00136505
v -0.01040215 -0.01460478 0.00126171
v -0.00508436 -0.00683409 0.01938246
v -0.00808250 -0.01460478 0.01018710
v -0.00468808 -0.00752360 0.01938246
v 0.00590498 -0.00662587 0.01938246
v 0.00588372 -0.01460478 0.00768158
v 0.00464657 -0.00837014 0.01938246
v 0.00493459 -0.01460478 -0.00024625
v 0.00387529 -0.01361318 -0.00079038
v 0.00399900 -0.01205665 -0.00045926
v 0.00207563 -0.00792809 -0.00019352
v 0.00159237 -0.00693649 -0.00000160
v 0.00090034 -0.00915011 -0.00092113
v 0.00226506 -0.01222732 -0.00126069
v 0.00168709 -0.01279054 -0.00150956
v 0.00122316 -0.01179894 -0.00143573
v 0.00079595 -0.01074589 -0.00132607
v 0.00090034 -0.00501302 0.00116680
v 0.00090034 -0.00426889 0.00171726
v 0.00090034 -0.00326363 0.00246174
v 0.00090034 -0.00251950 0.00303962
v 0.00211622 -0.00216621 0.00402453
v 0.00354280 0.00282936 0.01141456
v 0.00428703 0.00282936 0.01226028
v -0.00233364 -0.00268334 0.00331168
v -0.00215000 0.00282936 0.01114039
v -0.00193350 -0.00318683 0.00258829
v -0.00207461 -0.00428766 0.00175100
v -0.00207461 -0.00503179 0.00116680
v -0.00381048 -0.00718055 0.00014814
v -0.00470355 -0.00817216 -0.00014923
v -0.00514041 -0.00903917 -0.00045293
v -0.00134392 -0.00245123 0.00296369
v -0.00505150 -0.01063837 -0.00111095
v -0.00659599 -0.01061959 -0.00047191
v -0.00802645 -0.01460478 -0.00099073
v -0.00916307 -0.01460478 -0.00035591
v -0.00639689 -0.01226487 -0.00111938
v -0.00676610 -0.01361318 -0.00131974
v -0.00992469 -0.01460478 0.00054675
v -0.01016825 -0.01460478 0.00090317
v -0.00758764 -0.01460478 0.01074178
v -0.00419323 -0.00828139 0.01938246
v 0.00561889 -0.01460478 0.00818143
v 0.00458278 -0.00842646 0.01938246
v 0.00462724 -0.00841110 0.01935083
v 0.00446680 -0.01460478 0.01018500
v 0.00492106 -0.01460478 0.00944895
v 0.00459631 -0.01460478 -0.00044238
v 0.00387529 -0.01460478 -0.00085576
v 0.00269227 -0.01460478 -0.00136192
v 0.00259175 -0.01361318 -0.00133661
v 0.00101825 -0.00752360 -0.00031373
v -0.00058810 -0.00766185 -0.00059213
v 0.00060072 -0.00681019 -0.00007120
v 0.00101825 -0.00625722 0.00034217
v -0.00058810 -0.01023558 -0.00143785
v -0.00058810 -0.00915011 -0.00113415
v 0.00184753 -0.01361318 -0.00155595
v 0.00090034 -0.01361318 -0.00173733
v -0.00058810 -0.01361318 -0.00198830
v -0.00058810 -0.01212663 -0.00177529
v -0.00058810 -0.01097971 -0.00157282
v -0.00058810 -0.00593465 0.00033585
v -0.00058810 -0.00491403 0.00108033
v -0.00058810 -0.00416990 0.00165188
v -0.00068862 -0.00306565 0.00250814
v -0.00025755 -0.00248195 0.00299744
v 0.00090034 0.00282936 0.01020609
v 0.00149378 0.00282936 0.01032841
v 0.00248350 0.00282936 0.01063844
v 0.00249316 0.00282936 0.01064477
v -0.00058810 0.00282936 0.01033052
v -0.00207461 -0.00601486 0.00042232
v -0.00281883 -0.00691772 -0.00000793
v -0.00341421 -0.00767038 -0.00025046
v -0.00356305 -0.00915011 -0.00090426
v -0.00124920 -0.00245123 0.00296369
v -0.00367904 -0.01063325 -0.00137246
v -0.00425122 -0.01141492 -0.00148846
v -0.00505150 -0.01176651 -0.00140410
v -0.00580538 -0.01285369 -0.00150111
v -0.00695554 -0.01460478 -0.00138723
v -0.00602188 -0.01361318 -0.00157071
v -0.00735955 -0.01460478 0.01099065
v -0.00342774 -0.00895725 0.01938246
v -0.00657086 -0.01460478 0.01173513
v -0.00578025 -0.01460478 0.01239315
v 0.00382310 -0.00893506 0.01938246
v 0.00311174 -0.01460478 0.01187855
v 0.00328378 -0.01460478 0.01168241
v 0.00372838 -0.01460478 0.01114460
v 0.00194805 -0.01460478 -0.00158547
v -0.00207461 -0.00766185 -0.00054573
v -0.00058810 -0.00667878 -0.00015134
v -0.00207461 -0.00915011 -0.00114258
v -0.00207461 -0.01009392 -0.00144628
v -0.00207461 -0.01212663 -0.00185754
v -0.00207461 -0.01083805 -0.00161289
v 0.00090034 -0.01460478 -0.00180060
v -0.00058810 -0.01460478 -0.00205790
v -0.00207461 -0.01460478 -0.00216124
v -0.00207461 -0.01361318 -0.00207899
v -0.00207461 -0.00675899 -0.00010494
v -0.00325957 -0.01112649 -0.00156017
v -0.00367904 -0.01199692 -0.00169093
v -0.00505150 -0.01251064 -0.00158126
v -0.00505150 -0.01361318 -0.00178584
v -0.00621132 -0.01460478 -0.00163187
v -0.00537625 -0.01460478 -0.00182380
v -0.00240130 -0.00965530 0.01938246
v -0.00480793 -0.01460478 0.01303429
v 0.00324125 -0.00930883 0.01938246
v 0.00241777 -0.01460478 0.01253445
v -0.00356305 -0.01361318 -0.00198408
v -0.00356305 -0.01460478 -0.00207899
v -0.00505150 -0.01460478 -0.00189551
v -0.00205915 -0.00982597 0.01938246
v -0.00455084 -0.01460478 0.01316505
v 0.00264781 -0.00964335 0.01938246
v 0.00141259 -0.01460478 0.01329159
v -0.00162421 -0.01003589 0.01938246
v -0.00343354 -0.01460478 0.01369864
v 0.00189779 -0.01000347 0.01938246
v 0.00067804 -0.01460478 0.01371129
v -0.00058810 -0.01023729 0.01938246
v -0.00298314 -0.01460478 0.01384416
v -0.00207461 -0.01460478 0.01411622
v 0.00170448 -0.01006832 0.01938246
v 0.00009813 -0.01460478 0.01393907
v 0.00053499 -0.01022875 0.01938246
v -0.00143091 -0.01460478 0.01414364
v 0.00090034 -0.01020998 0.01938246
v -0.00056684 -0.01460478 0.01413309
f 1 2 11
f 1 11 34
f 1 34 66
f 1 66 65
f 1 65 64
f 1 64 112
f 1 112 157
f 1 157 156
f 1 156 205
f 1 205 204
f 1 204 203
f 1 203 202
f 1 202 206
f 1 206 159
f 1 159 119
f 1 119 118
f 1 118 117
f 1 117 116
f 1 116 115
f 1 115 114
f 1 114 75
f 1 75 74
f 1 74 73
f 1 73 72
f 1 72 67
f 1 67 36
f 1 36 13
f 1 13 3
f 1 3 12
f 1 12 35
f 1 35 45
f 1 45 44
f 1 44 43
f 1 43 88
f 1 88 135
f 1 135 137
f 1 137 176
f 1 176 219
f 1 219 244
f 1 244 251
f 1 251 255
f 1 255 259
f 1 259 264
f 1 264 266
f 1 266 262
f 1 262 257
f 1 257 253
f 1 253 246
f 1 246 222
f 1 222 178
f 1 178 140
f 1 140 138
f 1 138 93
f 1 93 46
f 1 46 23
f 1 23 4
f 1 4 5
f 1 5 6
f 1 6 7
f 1 7 8
f 1 8 9
f 1 9 10
f 1 10 2
f 2 10 11
f 3 13 14
f 3 14 15
f 3 15 16
f 3 16 17
f 3 17 18
f 3 18 19
f 3 19 20
f 3 20 21
f 3 21 22
f 3 22 12
f 4 23 24
f 4 24 5
f 5 24 47
f 5 47 94
f 5 94 139
f 5 139 177
f 5 177 181
f 5 181 180
f 5 180 225
f 5 225 224
f 5 224 223
f 5 223 247
f 5 247 254
f 5 254 258
f 5 258 263
f 5 263 267
f 5 267 265
f 5 265 261
f 5 261 260
f 5 260 256
f 5 256 252
f 5 252 245
f 5 245 221
f 5 221 220
f 5 220 218
f 5 218 175
f 5 175 136
f 5 136 92
f 5 92 91
f 5 91 90
f 5 90 89
f 5 89 87
f 5 87 42
f 5 42 22
f 5 22 21
f 5 21 20
f 5 20 19
f 5 19 41
f 5 41 86
f 5 86 134
f 5 134 174
f 5 174 173
f 5 173 170
f 5 170 169
f 5 169 216
f 5 216 242
f 5 242 243
f 5 243 250
f 5 250 249
f 5 249 235
f 5 235 234
f 5 234 233
f 5 233 226
f 5 226 184
f 5 184 183
f 5 183 182
f 5 182 141
f 5 141 95
f 5 95 48
f 5 48 25
f 5 25 6
f 6 25 26
f 6 26 7
f 7 26 27
f 7 27 8
f 8 27 28
f 8 28 9
f 9 28 29
f 9 29 10
f 10 29 30
f 10 30 31
f 10 31 32
f 10 32 33
f 10 33 34
f 10 34 11
f 12 22 35
f 13 36 14
f 14 37 38
f 14 38 39
f 14 39 40
f 14 40 15
f 14 36 37
f 15 40 16
f 16 40 17
f 17 40 18
f 18 40 19
f 19 40 41
f 22 42 43
f 22 43 44
f 22 44 45
f 22 45 35
f 23 46 24
f 24 46 47
f 25 48 26
f 26 48 49
f 26 49 27
f 27 49 50
f 27 50 51
f 27 51 28
f 28 51 30
f 28 30 29
f 30 51 52
f 30 52 53
f 30 53 54
f 30 54 55
f 30 55 56
f 30 56 57
f 30 57 31
f 31 58 32
f 31 57 59
f 31 59 60
f 31 60 58
f 32 58 61
f 32 61 62
f 32 62 63
f 32 63 64
f 32 64 65
f 32 65 33
f 33 65 66
f 33 66 34
f 36 67 37
f 37 68 69
f 37 69 70
f 37 70 71
f 37 71 38
f 37 67 72
f 37 72 73
f 37 73 74
f 37 74 75
f 37 75 68
f 38 76 77
f 38 77 78
f 38 78 79
f 38 79 80
f 38 80 81
f 38 81 82
f 38 82 39
f 38 71 76
f 39 83 40
f 39 82 83
f 40 83 84
f 40 84 85
f 40 85 86
f 40 86 41
f 42 87 43
f 43 87 89
f 43 89 90
f 43 90 91
f 43 91 92
f 43 92 88
f 46 93 47
f 47 93 94
f 48 95 49
f 49 95 96
f 49 96 50
f 50 96 51
f 51 96 97
f 51 97 98
f 51 98 99
f 51 99 52
f 52 99 53
f 53 99 100
f 53 100 54
f 54 101 55
f 54 100 102
f 54 102 103
f 54 103 101
f 55 104 56
f 55 101 104
f 56 104 57
f 57 104 60
f 57 60 59
f 58 60 61
f 60 105 61
f 60 104 101
f 60 101 106
f 60 106 105
f 61 105 107
f 61 107 108
f 61 108 109
f 61 109 63
f 61 63 62
f 63 109 110
f 63 110 111
f 63 111 112
f 63 112 64
f 68 113 70
f 68 70 69
f 68 75 114
f 68 114 115
f 68 115 116
f 68 116 117
f 68 117 118
f 68 118 119
f 68 119 113
f 70 120 121
f 70 121 122
f 70 122 123
f 70 123 124
f 70 124 76
f 70 76 71
f 70 113 125
f 70 125 120
f 76 124 123
f 76 123 78
f 76 78 77
f 78 126 127
f 78 127 81
f 78 81 80
f 78 80 79
f 78 123 126
f 81 127 128
f 81 128 129
f 81 129 130
f 81 130 131
f 81 131 132
f 81 132 82
f 82 132 84
f 82 84 83
f 84 132 131
f 84 131 133
f 84 133 86
f 84 86 85
f 86 133 134
f 88 92 135
f 92 136 137
f 92 137 135
f 93 138 94
f 94 138 140
f 94 140 139
f 95 141 96
f 96 141 97
f 97 141 142
f 97 142 143
f 97 143 98
f 98 143 100
f 98 100 99
f 100 143 102
f 101 103 144
f 101 144 145
f 101 145 106
f 102 146 103
f 102 143 142
f 102 142 147
f 102 147 148
f 102 148 149
f 102 149 150
f 102 150 146
f 103 146 144
f 105 106 145
f 105 145 107
f 107 151 152
f 107 152 153
f 107 153 154
f 107 154 109
f 107 109 108
f 107 145 151
f 109 154 155
f 109 155 110
f 110 155 156
f 110 156 111
f 111 156 157
f 111 157 112
f 113 158 125
f 113 119 158
f 119 159 158
f 120 125 160
f 120 160 161
f 120 161 162
f 120 162 163
f 120 163 121
f 121 163 164
f 121 164 122
f 122 164 165
f 122 165 126
f 122 126 123
f 125 158 166
f 125 166 160
f 126 165 167
f 126 167 168
f 126 168 127
f 127 168 128
f 128 168 129
f 129 169 170
f 129 170 130
f 129 168 171
f 129 171 172
f 129 172 169
f 130 170 173
f 130 173 131
f 131 173 174
f 131 174 133
f 133 174 134
f 136 175 176
f 136 176 137
f 139 140 177
f 140 178 179
f 140 179 180
f 140 180 181
f 140 181 177
f 141 182 142
f 142 182 183
f 142 183 184
f 142 184 185
f 142 185 147
f 144 146 145
f 145 146 186
f 145 186 187
f 145 187 188
f 145 188 189
f 145 189 151
f 146 150 190
f 146 190 191
f 146 191 186
f 147 185 148
f 148 185 192
f 148 192 193
f 148 193 194
f 148 194 195
f 148 195 149
f 149 195 150
f 150 195 196
f 150 196 190
f 151 189 197
f 151 197 198
f 151 198 152
f 152 198 153
f 153 198 199
f 153 199 154
f 154 199 200
f 154 200 201
f 154 201 202
f 154 202 203
f 154 203 204
f 154 204 155
f 155 204 205
f 155 205 156
f 158 159 166
f 159 206 166
f 160 166 161
f 161 166 162
f 162 166 207
f 162 207 208
f 162 208 163
f 163 208 164
f 164 208 209
f 164 209 165
f 165 209 210
f 165 210 167
f 166 211 198
f 166 198 207
f 166 206 202
f 166 202 211
f 167 210 212
f 167 212 213
f 167 213 214
f 167 214 215
f 167 215 171
f 167 171 168
f 169 172 216
f 171 215 172
f 172 215 217
f 172 217 216
f 175 218 176
f 176 218 220
f 176 220 221
f 176 221 219
f 178 222 223
f 178 223 224
f 178 224 225
f 178 225 179
f 179 225 180
f 184 226 185
f 185 226 192
f 186 191 187
f 187 227 228
f 187 228 188
f 187 191 229
f 187 229 227
f 188 228 189
f 189 228 197
f 190 230 191
f 190 196 231
f 190 231 232
f 190 232 230
f 191 230 229
f 192 226 233
f 192 233 193
f 193 233 234
f 193 234 194
f 194 234 235
f 194 235 236
f 194 236 195
f 195 236 231
f 195 231 196
f 197 228 237
f 197 237 207
f 197 207 198
f 198 211 199
f 199 211 200
f 200 211 201
f 201 211 202
f 207 237 208
f 208 237 209
f 209 227 210
f 209 237 227
f 210 227 229
f 210 229 212
f 212 229 230
f 212 230 238
f 212 238 213
f 213 238 239
f 213 239 240
f 213 240 214
f 214 240 215
f 215 240 241
f 215 241 217
f 216 217 242
f 217 241 243
f 217 243 242
f 219 221 245
f 219 245 244
f 222 246 247
f 222 247 223
f 227 237 228
f 230 232 238
f 231 236 248
f 231 248 239
f 231 239 232
f 232 239 238
f 235 249 236
f 236 249 248
f 239 241 240
f 239 248 241
f 241 248 250
f 241 250 243
f 244 245 251
f 245 252 251
f 246 253 247
f 247 253 254
f 248 249 250
f 251 252 255
f 252 256 255
f 253 257 254
f 254 257 258
f 255 256 260
f 255 260 261
f 255 261 259
f 257 262 258
f 258 262 263
f 259 261 265
f 259 265 264
f 262 266 267
f 262 267 263
f 264 265 267
f 264 267 266

