# https://github.com/mikedh/trimesh
v -0.00242944 0.04006393 0.01713099
v -0.00240881 0.04018483 0.01713099
v -0.00218036 0.03834928 0.01713099
v 0.00007603 0.04337562 0.02839031
v 0.00007603 0.04382736 0.02839031
v -0.00199024 0.04147082 0.01713099
v -0.00217594 0.03833390 0.01713099
v 0.00028237 0.04263150 0.02839031
v 0.00019541 0.04294036 0.02839031
v 0.00054618 0.04457147 0.02839031
v -0.00121355 0.04286012 0.01713099
v -0.00192834 0.04158513 0.01713099
v 0.00067588 0.04144664 0.02839031
v -0.00153926 0.03732489 0.01713099
v 0.00167364 0.03923079 0.02839031
v 0.00133025 0.03988367 0.02839031
v 0.00098095 0.04515621 0.02839031
v -0.00110596 0.04302279 0.01713099
v -0.00084067 0.03680280 0.01713099
v 0.00232507 0.03903074 0.02839031
v -0.00062402 0.03670828 0.01713099
v 0.00129045 0.04556509 0.02839031
v -0.00030126 0.04403400 0.01713099
v 0.00387846 0.03861197 0.02839031
v 0.00038848 0.03641591 0.01713099
v 0.00169575 0.04587394 0.02839031
v 0.00225285 0.04632679 0.02752065
v 0.00127719 0.04558268 0.02752065
v 0.00083357 0.04478800 0.01713099
v 0.00127866 0.04557608 0.02603264
v 0.00130224 0.04553541 0.02454351
v 0.00226611 0.04632019 0.02603264
v 0.00536406 0.03833609 0.02839031
v 0.00090137 0.03632688 0.01713099
v 0.00237812 0.04634767 0.02839031
v 0.00283058 0.04659607 0.02839031
v 0.00299712 0.04671258 0.02752065
v 0.00301039 0.04670709 0.02603264
v 0.00249308 0.04634107 0.02451816
v 0.00156458 0.04521227 0.01713099
v 0.00305755 0.04668730 0.02499654
v 0.00183281 0.03631919 0.01713099
v 0.00238991 0.03635985 0.01713099
v 0.00349969 0.03644559 0.01713099
v 0.00685261 0.03846469 0.02839031
v 0.00302807 0.04669829 0.02839031
v 0.00326388 0.04679831 0.02839031
v 0.00387846 0.04708409 0.02752065
v 0.00387846 0.04707969 0.02603264
v 0.00376203 0.04693681 0.02451816
v 0.00406711 0.04689064 0.02305550
v 0.00431913 0.04678073 0.02156859
v 0.00451662 0.04669829 0.02063610
v 0.00238991 0.04546946 0.01713099
v 0.00554976 0.03663354 0.01713099
v 0.00685261 0.03675884 0.01713099
v 0.00688061 0.03676214 0.01713099
v 0.00834115 0.03696218 0.01713099
v 0.00834115 0.03887577 0.02839031
v 0.00380035 0.04701045 0.02839031
v 0.00536406 0.04750506 0.02839031
v 0.00536406 0.04754573 0.02752065
v 0.00536406 0.04754682 0.02603264
v 0.00536406 0.04746329 0.02454351
v 0.00536406 0.04727973 0.02305550
v 0.00536406 0.04705661 0.02156859
v 0.00387846 0.04588823 0.01713099
v 0.00976780 0.03737875 0.01713099
v 0.00882603 0.03902635 0.02839031
v 0.00598158 0.04749846 0.02839031
v 0.00685261 0.04753144 0.02752065
v 0.00685261 0.04754353 0.02603264
v 0.00685261 0.04746109 0.02454351
v 0.00685261 0.04727754 0.02305550
v 0.00685261 0.04705002 0.02156859
v 0.00622771 0.04667961 0.01922964
v 0.00597422 0.04667961 0.01922964
v 0.00536553 0.04619049 0.01713099
v 0.00981201 0.03740293 0.01713099
v 0.00920038 0.03914615 0.02839031
v 0.00685261 0.04748417 0.02839031
v 0.00747013 0.04734678 0.02839031
v 0.00834115 0.04719950 0.02752065
v 0.00834115 0.04722807 0.02603264
v 0.00834115 0.04715334 0.02454351
v 0.00834115 0.04696758 0.02305550
v 0.00829694 0.04676094 0.02165346
v 0.00876266 0.04658398 0.02121367
v 0.00777079 0.04669170 0.02066806
v 0.00677449 0.04677633 0.02013568
v 0.00685113 0.04611905 0.01713099
v 0.01136246 0.03833390 0.01713099
v 0.01143762 0.03838775 0.01713099
v 0.01152900 0.03847898 0.01713099
v 0.00952462 0.03952535 0.02839031
v 0.00834115 0.04714234 0.02839031
v 0.00933302 0.04681040 0.02839031
v 0.00937724 0.04684118 0.02752065
v 0.00940377 0.04686097 0.02603264
v 0.00936103 0.04682689 0.02454351
v 0.00921954 0.04673237 0.02305550
v 0.00911932 0.04667301 0.02220678
v 0.00939935 0.04536285 0.01713099
v 0.00834115 0.04574644 0.01713099
v 0.01244129 0.03971440 0.01713099
v 0.01200799 0.03932092 0.01776698
v 0.00993876 0.04001337 0.02839031
v 0.01007582 0.04608937 0.02839031
v 0.01012151 0.04612894 0.02752065
v 0.01014804 0.04617730 0.02603264
v 0.01010530 0.04617071 0.02454351
v 0.00996381 0.04609817 0.02305550
v 0.01059903 0.04519688 0.02070002
v 0.00942293 0.04535296 0.01713099
v 0.01107801 0.04417798 0.01713099
v 0.01016720 0.04490891 0.01713099
v 0.01251203 0.03987818 0.01713099
v 0.01085547 0.04149060 0.02839031
v 0.01052386 0.04080584 0.02839031
v 0.01068745 0.04534526 0.02839031
v 0.01071398 0.04538483 0.02752065
v 0.01075820 0.04543319 0.02603264
v 0.01075967 0.04542660 0.02454351
v 0.01071546 0.04535406 0.02305550
v 0.01065356 0.04526612 0.02156859
v 0.01109128 0.04416479 0.01713099
v 0.01262551 0.04144664 0.01713099
v 0.01143025 0.04293377 0.02839031
v 0.01112812 0.04214349 0.02839031
v 0.01123571 0.04442199 0.02839031
v 0.01130645 0.04442199 0.02752065
v 0.01141699 0.04442199 0.02603264
v 0.01144794 0.04442199 0.02454351
v 0.01138899 0.04442199 0.02305550
v 0.01130498 0.04442199 0.02156859
v 0.01183555 0.04332066 0.01713099
v 0.01228654 0.04257654 0.01713099
v 0.01178397 0.04293377 0.02454351
v 0.01164985 0.04293377 0.02603264
v 0.01228064 0.04258973 0.01713099
f 1 2 6
f 1 6 12
f 1 12 11
f 1 11 18
f 1 18 23
f 1 23 29
f 1 29 40
f 1 40 54
f 1 54 67
f 1 67 78
f 1 78 91
f 1 91 104
f 1 104 103
f 1 103 114
f 1 114 116
f 1 116 115
f 1 115 126
f 1 126 136
f 1 136 140
f 1 140 137
f 1 137 127
f 1 127 117
f 1 117 105
f 1 105 94
f 1 94 93
f 1 93 92
f 1 92 79
f 1 79 68
f 1 68 58
f 1 58 57
f 1 57 56
f 1 56 55
f 1 55 44
f 1 44 43
f 1 43 42
f 1 42 34
f 1 34 25
f 1 25 21
f 1 21 19
f 1 19 14
f 1 14 7
f 1 7 3
f 1 3 4
f 1 4 5
f 1 5 2
f 2 5 6
f 3 7 8
f 3 8 9
f 3 9 4
f 4 9 8
f 4 8 13
f 4 13 16
f 4 16 15
f 4 15 20
f 4 20 24
f 4 24 33
f 4 33 45
f 4 45 59
f 4 59 69
f 4 69 80
f 4 80 95
f 4 95 107
f 4 107 119
f 4 119 118
f 4 118 129
f 4 129 128
f 4 128 130
f 4 130 120
f 4 120 108
f 4 108 97
f 4 97 96
f 4 96 82
f 4 82 81
f 4 81 70
f 4 70 61
f 4 61 60
f 4 60 47
f 4 47 46
f 4 46 36
f 4 36 35
f 4 35 26
f 4 26 22
f 4 22 17
f 4 17 10
f 4 10 5
f 5 10 11
f 5 11 12
f 5 12 6
f 7 13 8
f 7 14 15
f 7 15 16
f 7 16 13
f 10 17 18
f 10 18 11
f 14 19 15
f 15 19 21
f 15 21 20
f 17 22 18
f 18 22 23
f 20 21 25
f 20 25 24
f 22 26 27
f 22 27 28
f 22 28 23
f 23 28 30
f 23 30 31
f 23 31 32
f 23 32 29
f 24 25 33
f 25 34 33
f 26 35 27
f 27 35 36
f 27 36 37
f 27 37 38
f 27 38 32
f 27 32 30
f 27 30 28
f 29 32 39
f 29 39 40
f 30 32 31
f 32 38 41
f 32 41 39
f 33 34 42
f 33 42 43
f 33 43 44
f 33 44 45
f 36 46 37
f 37 46 47
f 37 47 48
f 37 48 49
f 37 49 38
f 38 49 41
f 39 41 40
f 40 41 50
f 40 50 51
f 40 51 52
f 40 52 53
f 40 53 54
f 41 49 50
f 44 55 45
f 45 55 56
f 45 56 57
f 45 57 58
f 45 58 59
f 47 60 48
f 48 60 61
f 48 61 62
f 48 62 63
f 48 63 49
f 49 63 64
f 49 64 50
f 50 64 51
f 51 64 65
f 51 65 52
f 52 65 53
f 53 65 66
f 53 66 67
f 53 67 54
f 58 68 59
f 59 68 69
f 61 70 71
f 61 71 62
f 62 71 72
f 62 72 63
f 63 72 73
f 63 73 64
f 64 73 74
f 64 74 65
f 65 74 66
f 66 74 75
f 66 75 76
f 66 76 77
f 66 77 78
f 66 78 67
f 68 79 80
f 68 80 69
f 70 81 71
f 71 81 82
f 71 82 83
f 71 83 84
f 71 84 72
f 72 84 85
f 72 85 73
f 73 85 74
f 74 85 86
f 74 86 75
f 75 86 87
f 75 87 88
f 75 88 89
f 75 89 90
f 75 90 76
f 76 90 91
f 76 91 78
f 76 78 77
f 79 92 80
f 80 92 93
f 80 93 94
f 80 94 95
f 82 96 83
f 83 96 97
f 83 97 98
f 83 98 99
f 83 99 84
f 84 99 100
f 84 100 85
f 85 100 101
f 85 101 102
f 85 102 86
f 86 102 87
f 87 102 88
f 88 102 103
f 88 103 104
f 88 104 91
f 88 91 89
f 89 91 90
f 94 105 106
f 94 106 107
f 94 107 95
f 97 108 109
f 97 109 98
f 98 109 110
f 98 110 99
f 99 110 111
f 99 111 100
f 100 111 112
f 100 112 101
f 101 112 113
f 101 113 102
f 102 114 103
f 102 113 115
f 102 115 116
f 102 116 114
f 105 117 118
f 105 118 119
f 105 119 106
f 106 119 107
f 108 120 109
f 109 120 121
f 109 121 122
f 109 122 110
f 110 122 123
f 110 123 111
f 111 123 124
f 111 124 125
f 111 125 112
f 112 125 113
f 113 125 126
f 113 126 115
f 117 127 128
f 117 128 129
f 117 129 118
f 120 130 131
f 120 131 132
f 120 132 121
f 121 132 122
f 122 132 133
f 122 133 123
f 123 133 134
f 123 134 135
f 123 135 136
f 123 136 124
f 124 136 125
f 125 136 126
f 127 137 132
f 127 132 131
f 127 131 130
f 127 130 138
f 127 138 139
f 127 139 128
f 128 139 130
f 130 139 138
f 132 137 133
f 133 137 140
f 133 140 136
f 133 136 134
f 134 136 135

