# https://github.com/mikedh/trimesh
v -0.01221692 -0.01808136 0.00371215
v -0.01197599 -0.01808136 0.00503401
v -0.01189505 -0.01659171 0.00482682
v -0.01205692 -0.01659171 0.00371215
v -0.01190822 -0.01659171 0.00271634
v -0.01198728 -0.01808136 0.00260070
v -0.01195340 -0.01956878 0.00266013
v -0.01215857 -0.01956878 0.00371215
v -0.01090496 -0.02849554 0.01415694
v -0.01179717 -0.01564820 0.00458911
v -0.01068662 -0.02700812 0.01415694
v -0.01183105 -0.01555052 0.00371215
v -0.01180658 -0.01565264 0.00287374
v -0.01141318 -0.01659171 0.00197270
v -0.01148659 -0.01808136 0.00185705
v -0.01074309 -0.01808136 0.00079057
v -0.01143200 -0.01956878 0.00191648
v -0.01184611 -0.02105621 0.00282395
v -0.01176893 -0.02189538 0.00293638
v -0.01195905 -0.02105621 0.00371215
v -0.01079202 -0.02998296 0.01415694
v -0.01144706 -0.01513315 0.00513199
v -0.01127766 -0.01460479 0.00515448
v -0.01150353 -0.01460479 0.00396271
v -0.01154306 -0.01460479 0.00371215
v -0.01161459 -0.01480681 0.00371215
v -0.01036286 -0.02607570 0.01415694
v -0.01041557 -0.01460479 0.00687787
v -0.01056238 -0.01460479 0.00660483
v -0.01110825 -0.01460479 0.00554637
v -0.00999205 -0.01510429 0.00040831
v -0.01015957 -0.01659171 0.00013044
v -0.01066779 -0.01659171 0.00087569
v -0.01124189 -0.01460479 0.00280147
v -0.01105366 -0.01460479 0.00226341
v -0.01040239 -0.01460479 0.00126278
v -0.01016710 -0.01460479 0.00090300
v -0.01021416 -0.01808136 0.00004692
v -0.01068850 -0.01956878 0.00089979
v -0.01130777 -0.02105621 0.00207870
v -0.01163153 -0.02276119 0.00371215
v -0.01179152 -0.02201748 0.00371215
v -0.01056238 -0.02105621 0.00106682
v -0.01040992 -0.02254585 0.00127241
v -0.01030639 -0.02349158 0.00141375
v -0.01019157 -0.02448394 0.00158240
v -0.01067909 -0.02400441 0.00213652
v -0.01050780 -0.02552070 0.00258303
v -0.01033651 -0.02643313 0.00284805
v -0.01088614 -0.02552070 0.00371215
v -0.01131342 -0.02403327 0.00371215
v -0.01064332 -0.03060679 0.01415694
v -0.00980571 -0.02536307 0.01415694
v -0.00207702 -0.01460479 0.01411679
v -0.00298428 -0.01460479 0.01384374
v -0.00343415 -0.01460479 0.01369919
v -0.00455035 -0.01460479 0.01316434
v -0.00480822 -0.01460479 0.01303424
v -0.00578137 -0.01460479 0.01239339
v -0.00657193 -0.01460479 0.01173487
v -0.00735873 -0.01460479 0.01099122
v -0.00758648 -0.01460479 0.01074066
v -0.00808153 -0.01460479 0.01018654
v -0.00874974 -0.01460479 0.00937383
v -0.00893420 -0.01460479 0.00912487
v -0.00944807 -0.01460479 0.00842460
v -0.01010687 -0.01460479 0.00741433
v -0.00924855 -0.01510429 -0.00042689
v -0.00992429 -0.01460479 0.00054644
v -0.00916384 -0.01460479 -0.00035622
v -0.00941607 -0.01659171 -0.00051362
v -0.00946877 -0.01808136 -0.00053611
v -0.00938783 -0.01956878 -0.00049435
v -0.00926737 -0.02105621 -0.00042368
v -0.01013134 -0.01956878 0.00015453
v -0.01001276 -0.02105621 0.00032318
v -0.01044380 -0.03143709 0.01415694
v -0.00983959 -0.02254585 0.00052877
v -0.00955348 -0.02409321 0.00071669
v -0.00871021 -0.02469262 0.00001962
v -0.00923913 -0.02552070 0.00099455
v -0.00998264 -0.02552070 0.00183938
v -0.00952901 -0.02697038 0.00224895
v -0.00909796 -0.02822026 0.00264407
v -0.00874221 -0.02921261 0.00299902
v -0.01008993 -0.02742548 0.00340859
v -0.01027628 -0.02778513 0.00439959
v -0.01042874 -0.02696150 0.00382619
v -0.00903396 -0.02446618 0.01415694
v -0.00143139 -0.01460479 0.01414409
v -0.00802694 -0.01460479 -0.00099065
v -0.00802694 -0.01510429 -0.00109505
v -0.00790835 -0.01664944 -0.00128618
v -0.00790835 -0.01808580 -0.00131509
v -0.00802694 -0.01956878 -0.00119142
v -0.00802694 -0.02105621 -0.00105169
v -0.00909420 -0.02254585 -0.00027913
v -0.01042121 -0.03149703 0.01415694
v -0.00891726 -0.02370249 -0.00012333
v -0.00771824 -0.02513441 -0.00017152
v -0.00709709 -0.02612455 0.00006137
v -0.00813799 -0.02558730 0.00024127
v -0.00896620 -0.02651527 0.00129972
v -0.00802694 -0.02254585 -0.00078828
v -0.00813799 -0.02413095 -0.00034819
v -0.00900761 -0.02956782 0.00399162
v -0.00954783 -0.02849998 0.00369930
v -0.00847869 -0.02750763 0.00165146
v -0.00721944 -0.03068672 0.00300705
v -0.00762978 -0.03107078 0.00399805
v -0.00862174 -0.03056017 0.00475294
v -0.00917325 -0.03003180 0.00522836
v -0.00885138 -0.03084212 0.00574554
v -0.00909608 -0.03418993 0.01415694
v -0.00983770 -0.03286679 0.01415694
v -0.00987911 -0.03278021 0.01415694
v -0.00810411 -0.02373357 0.01415694
v -0.00056554 -0.01460479 0.01413285
v -0.00648722 -0.02283223 0.01415694
v -0.00508492 -0.02233717 0.01415694
v -0.00462376 -0.02221728 0.01415694
v -0.00356214 -0.02212404 0.01415694
v -0.00315557 -0.02216844 0.01415694
v -0.00219184 -0.02238379 0.01415694
v -0.00202619 -0.02247259 0.01415694
v -0.00132598 -0.02298319 0.01415694
v -0.00049024 -0.02383791 0.01415694
v -0.00045260 -0.02387787 0.01415694
v 0.00018173 -0.02465488 0.01415694
v 0.00072572 -0.02549183 0.01415694
v 0.00143158 -0.02665735 0.01415694
v 0.00177227 -0.02741217 0.01415694
v -0.00695592 -0.01460479 -0.00138737
v -0.00705191 -0.01510429 -0.00142110
v -0.00630841 -0.01510429 -0.00166363
v -0.00733237 -0.01718224 -0.00151265
v -0.00723638 -0.01858531 -0.00148374
v -0.00733237 -0.01759295 -0.00151265
v -0.00637240 -0.01956878 -0.00166363
v -0.00686180 -0.02105621 -0.00138094
v -0.00590371 -0.02194422 -0.00152710
v -0.00657757 -0.02558730 -0.00035622
v -0.00610512 -0.02649529 -0.00011691
v -0.00653805 -0.02403327 -0.00089428
v -0.00657757 -0.02699702 0.00033764
v -0.00591501 -0.02932805 0.00141054
v -0.00646275 -0.02845114 0.00114713
v -0.00800059 -0.02701034 0.00104434
v -0.00645523 -0.02248147 -0.00126370
v -0.00622747 -0.03093536 0.00278862
v -0.00605806 -0.03236062 0.00426788
v -0.00705003 -0.03206314 0.00467745
v -0.00746225 -0.03237616 0.00567005
v -0.00842598 -0.03178563 0.00668674
v -0.00855398 -0.03493364 0.01415694
v -0.00907726 -0.03421879 0.01415694
v 0.00009891 -0.01460479 0.01393850
v 0.00205273 -0.02852440 0.01415694
v -0.00621241 -0.01460479 -0.00163311
v -0.00505104 -0.01510429 -0.00195274
v -0.00505104 -0.01659171 -0.00204268
v -0.00662651 -0.01664944 -0.00167809
v -0.00666040 -0.01808580 -0.00168130
v -0.00505104 -0.01808136 -0.00203626
v -0.00505104 -0.01956878 -0.00192543
v -0.00611641 -0.02105621 -0.00158813
v -0.00505104 -0.02105621 -0.00176642
v -0.00505104 -0.02217732 -0.00158332
v -0.00505104 -0.02292103 -0.00141789
v -0.00505104 -0.02403327 -0.00116572
v -0.00505104 -0.02552070 -0.00070315
v -0.00505104 -0.02670175 -0.00021167
v -0.00505104 -0.02744547 0.00013847
v -0.00505104 -0.02849554 0.00072953
v -0.00505104 -0.02943684 0.00132542
v -0.00505104 -0.03018055 0.00190524
v -0.00505104 -0.03110186 0.00265049
v -0.00505104 -0.03184557 0.00335880
v -0.00654746 -0.03268031 0.00518339
v -0.00505104 -0.03248716 0.00410245
v -0.00560067 -0.03367488 0.00600413
v -0.00605053 -0.03390799 0.00699673
v -0.00691827 -0.03643882 0.01412642
v -0.00692768 -0.03644548 0.01415694
v -0.00778224 -0.03572619 0.01415694
v -0.00780859 -0.03570177 0.01415694
v -0.00783683 -0.03567513 0.01415694
v 0.00067866 -0.01460479 0.01371043
v 0.00228237 -0.03001182 0.01415694
v 0.00141275 -0.01460479 0.01329123
v -0.00537667 -0.01460479 -0.00182425
v -0.00505104 -0.01460479 -0.00189652
v -0.00356214 -0.01460479 -0.00207962
v -0.00356214 -0.01510429 -0.00212620
v -0.00356214 -0.01659171 -0.00219526
v -0.00356214 -0.01808136 -0.00216796
v -0.00356214 -0.01956878 -0.00204589
v -0.00356214 -0.02105621 -0.00187564
v -0.00356214 -0.02237491 -0.00163472
v -0.00356214 -0.02403327 -0.00124121
v -0.00356214 -0.02552070 -0.00078667
v -0.00356214 -0.02679278 -0.00025825
v -0.00356214 -0.02753871 0.00009189
v -0.00356214 -0.02849554 0.00063638
v -0.00356214 -0.02949012 0.00127884
v -0.00356214 -0.03023383 0.00186990
v -0.00356214 -0.03114404 0.00261355
v -0.00356214 -0.03188775 0.00330901
v -0.00508304 -0.03330858 0.00531027
v -0.00356214 -0.03252268 0.00405266
v -0.00460870 -0.03374370 0.00588045
v -0.00508304 -0.03403675 0.00657431
v -0.00499645 -0.03486038 0.00828486
v -0.00545761 -0.03511568 0.00909436
v -0.00593948 -0.03532215 0.01008696
v -0.00587548 -0.03672299 0.01326874
v -0.00620865 -0.03688061 0.01415694
v 0.00238778 -0.03147039 0.01415694
v 0.00328375 -0.01460479 0.01168186
v 0.00311058 -0.01460479 0.01187942
v 0.00241790 -0.01460479 0.01253473
v -0.00207702 -0.01460479 -0.00215993
v -0.00207702 -0.01510429 -0.00220169
v -0.00207702 -0.01659171 -0.00225148
v -0.00207702 -0.01808136 -0.00221453
v -0.00207702 -0.01956878 -0.00208604
v -0.00207702 -0.02105621 -0.00190776
v -0.00207702 -0.02242597 -0.00164917
v -0.00207702 -0.02403327 -0.00126049
v -0.00207702 -0.02552070 -0.00079470
v -0.00207702 -0.02677724 -0.00025825
v -0.00207702 -0.02752095 0.00010474
v -0.00207702 -0.02849554 0.00066689
v -0.00207702 -0.02946570 0.00129811
v -0.00207702 -0.03020941 0.00190042
v -0.00207702 -0.03109742 0.00264567
v -0.00207702 -0.03184113 0.00336201
v -0.00207702 -0.03248050 0.00410566
v -0.00356214 -0.03326640 0.00513681
v -0.00356214 -0.03374370 0.00588206
v -0.00356214 -0.03418771 0.00668674
v -0.00446564 -0.03522003 0.00885343
v -0.00499645 -0.03542871 0.00961957
v -0.00505104 -0.03680291 0.01306315
v -0.00505104 -0.03720696 0.01412642
v -0.00505104 -0.03721806 0.01415694
v -0.00615029 -0.03690725 0.01415694
v -0.00618229 -0.03689615 0.01415694
v 0.00238590 -0.03150147 0.01415694
v 0.00636883 -0.01460479 0.00657592
v 0.00606201 -0.01460479 0.00733563
v 0.00588319 -0.01460479 0.00767934
v 0.00561967 -0.01460479 0.00817885
v 0.00492134 -0.01460479 0.00945092
v 0.00446771 -0.01460479 0.01018654
v 0.00372985 -0.01460479 0.01114541
v -0.00058812 -0.01460479 -0.00205714
v -0.00058812 -0.01510429 -0.00209246
v -0.00058812 -0.01659171 -0.00212941
v -0.00058812 -0.01808136 -0.00209246
v -0.00058812 -0.01956878 -0.00196076
v -0.00058812 -0.02105621 -0.00177605
v -0.00058812 -0.02214846 -0.00158171
v -0.00058812 -0.02403327 -0.00113842
v -0.00058812 -0.02552070 -0.00063730
v -0.00058812 -0.02656855 -0.00016188
v -0.00058812 -0.02731226 0.00025412
v -0.00112834 -0.02937911 0.00136718
v -0.00098152 -0.03095534 0.00276453
v -0.00111893 -0.03237616 0.00424379
v -0.00164032 -0.03367932 0.00598164
v -0.00211278 -0.03330636 0.00533597
v -0.00263041 -0.03371706 0.00592382
v -0.00356214 -0.03489146 0.00811943
v -0.00211278 -0.03402121 0.00656146
v -0.00356214 -0.03521559 0.00886468
v -0.00356214 -0.03555303 0.00966294
v -0.00356214 -0.03615022 0.01115023
v -0.00356214 -0.03684065 0.01296357
v -0.00502092 -0.03722028 0.01415694
v 0.00203579 -0.03306881 0.01415694
v 0.00609589 -0.02024811 0.00421327
v 0.00618813 -0.01925576 0.00463408
v 0.00681493 -0.01460479 0.00519945
v 0.00090077 -0.01460479 -0.00180176
v 0.00090077 -0.01510429 -0.00183227
v 0.00090077 -0.01659171 -0.00185797
v 0.00090077 -0.01808136 -0.00181300
v 0.00099865 -0.01962650 -0.00164917
v 0.00156145 -0.02016153 -0.00148053
v 0.00049608 -0.02105621 -0.00156565
v 0.00019679 -0.02183766 -0.00150461
v 0.00077654 -0.02241709 -0.00125888
v 0.00090077 -0.02403327 -0.00083325
v 0.00082548 -0.02553402 -0.00028234
v 0.00027961 -0.02633989 -0.00004945
v 0.00127158 -0.02603574 0.00014168
v 0.00053749 -0.02803155 0.00125153
v -0.00013637 -0.02902391 0.00165628
v -0.00055989 -0.02999850 0.00221040
v 0.00090077 -0.02954340 0.00271473
v 0.00166686 -0.02925701 0.00295084
v 0.00001045 -0.03061789 0.00314358
v -0.00060883 -0.03266033 0.00525888
v -0.00102105 -0.03393907 0.00697424
v -0.00177961 -0.03515564 0.00898996
v -0.00219560 -0.03488480 0.00831859
v -0.00277158 -0.03519560 0.00891126
v -0.00219560 -0.03542871 0.00955693
v -0.00207702 -0.03605032 0.01115023
v -0.00207702 -0.03679625 0.01307440
v -0.00356214 -0.03727356 0.01412642
v -0.00356214 -0.03728244 0.01415694
v 0.00199815 -0.03316427 0.01415694
v 0.00475382 -0.02512553 0.00371215
v 0.00515475 -0.02403327 0.00371215
v 0.00561779 -0.02254585 0.00371215
v 0.00598484 -0.02094964 0.00371537
v 0.00624836 -0.01967756 0.00371537
v 0.00654953 -0.01808136 0.00371215
v 0.00676223 -0.01659171 0.00371215
v 0.00696175 -0.01510429 0.00371215
v 0.00701257 -0.01460479 0.00371215
v 0.00194921 -0.01460479 -0.00158653
v 0.00200003 -0.01510429 -0.00160099
v 0.00202262 -0.01659171 -0.00161062
v 0.00193415 -0.01808136 -0.00158492
v 0.00177039 -0.01917140 -0.00153514
v 0.00231437 -0.01962650 -0.00131670
v 0.00238778 -0.02105621 -0.00108862
v 0.00124146 -0.02105621 -0.00141628
v 0.00218449 -0.02403327 -0.00033373
v 0.00189274 -0.02504561 -0.00014581
v 0.00207344 -0.02667511 0.00113429
v 0.00152945 -0.02766747 0.00155028
v 0.00097983 -0.02851552 0.00191487
v 0.00249695 -0.02710580 0.00184742
v 0.00314634 -0.02776959 0.00295084
v 0.00026455 -0.03232288 0.00579372
v -0.00055048 -0.03336408 0.00656146
v -0.00110952 -0.03536877 0.00998256
v 0.00051678 -0.03255376 0.00668674
v -0.00122057 -0.03674075 0.01321895
v -0.00207702 -0.03717588 0.01412642
v -0.00207702 -0.03718475 0.01415694
v 0.00169698 -0.03380364 0.01415694
v 0.00444889 -0.02587146 0.00371215
v 0.00469923 -0.02495903 0.00285447
v 0.00612225 -0.02038354 0.00294281
v 0.00612225 -0.02038354 0.00322228
v 0.00667940 -0.01659171 0.00222325
v 0.00677917 -0.01460479 0.00222325
v 0.00676411 -0.01510429 0.00222325
v 0.00269271 -0.01460479 -0.00136328
v 0.00274353 -0.01510429 -0.00137613
v 0.00276612 -0.01659171 -0.00138094
v 0.00267765 -0.01808136 -0.00135203
v 0.00387667 -0.01808136 -0.00080916
v 0.00400843 -0.01965758 -0.00049114
v 0.00366962 -0.02105621 -0.00042529
v 0.00252142 -0.02267017 -0.00056502
v 0.00338163 -0.02225947 -0.00023416
v 0.00248001 -0.02560950 0.00066850
v 0.00292800 -0.02403327 0.00016899
v 0.00306540 -0.02617117 0.00154385
v 0.00340045 -0.02700590 0.00263121
v 0.00384656 -0.02700590 0.00371215
v 0.00327622 -0.02796495 0.00371215
v 0.00154828 -0.03208090 0.00817404
v -0.00020978 -0.03640330 0.01412642
v 0.00033608 -0.03540207 0.01300372
v -0.00095517 -0.03689837 0.01412642
v -0.00094576 -0.03690281 0.01415694
v 0.00136946 -0.03440305 0.01415694
v 0.00390679 -0.02556732 0.00219916
v 0.00334587 -0.02518103 0.00119532
v 0.00459194 -0.02021481 0.00003247
v 0.00608836 -0.01877179 0.00153100
v 0.00622389 -0.01956878 0.00261515
v 0.00640271 -0.01819680 0.00210600
v 0.00624836 -0.01777943 0.00126759
v 0.00631989 -0.01659171 0.00115356
v 0.00632742 -0.01460479 0.00115195
v 0.00632742 -0.01510429 0.00114071
v 0.00387667 -0.01460479 -0.00085734
v 0.00387667 -0.01510429 -0.00088946
v 0.00387667 -0.01659171 -0.00089589
v 0.00494958 -0.01659171 -0.00026788
v 0.00486864 -0.01808136 -0.00021167
v 0.00473688 -0.01922246 -0.00010727
v 0.00134687 -0.03444301 0.01415694
v 0.00053937 -0.03566403 0.01415694
v 0.00053372 -0.03565737 0.01412642
v -0.00020225 -0.03640774 0.01415694
v -0.00021543 -0.03641663 0.01415694
v 0.00569497 -0.01659171 0.00040991
v 0.00570438 -0.01510429 0.00039545
v 0.00567803 -0.01460479 0.00040670
v 0.00459759 -0.01460479 -0.00044296
v 0.00496087 -0.01510429 -0.00026788
v 0.00493452 -0.01460479 -0.00024700
f 1 2 3
f 1 3 4
f 1 4 5
f 1 5 6
f 1 6 7
f 1 7 8
f 1 8 9
f 1 9 2
f 2 9 3
f 3 10 4
f 3 9 11
f 3 11 10
f 4 10 12
f 4 12 13
f 4 13 5
f 5 13 14
f 5 14 6
f 6 14 15
f 6 15 7
f 7 15 16
f 7 16 17
f 7 17 18
f 7 18 8
f 8 18 19
f 8 19 20
f 8 20 21
f 8 21 9
f 9 21 52
f 9 52 77
f 9 77 98
f 9 98 116
f 9 116 115
f 9 115 114
f 9 114 156
f 9 156 155
f 9 155 187
f 9 187 186
f 9 186 185
f 9 185 184
f 9 184 217
f 9 217 248
f 9 248 247
f 9 247 246
f 9 246 280
f 9 280 313
f 9 313 345
f 9 345 373
f 9 373 395
f 9 395 394
f 9 394 392
f 9 392 391
f 9 391 374
f 9 374 346
f 9 346 314
f 9 314 281
f 9 281 249
f 9 249 218
f 9 218 189
f 9 189 158
f 9 158 132
f 9 132 131
f 9 131 130
f 9 130 129
f 9 129 128
f 9 128 127
f 9 127 126
f 9 126 125
f 9 125 124
f 9 124 123
f 9 123 122
f 9 122 121
f 9 121 120
f 9 120 119
f 9 119 117
f 9 117 89
f 9 89 53
f 9 53 27
f 9 27 11
f 10 22 23
f 10 23 24
f 10 24 25
f 10 25 26
f 10 26 12
f 10 11 22
f 11 27 28
f 11 28 29
f 11 29 30
f 11 30 22
f 12 26 13
f 13 31 32
f 13 32 33
f 13 33 14
f 13 26 25
f 13 25 34
f 13 34 35
f 13 35 36
f 13 36 37
f 13 37 31
f 14 33 15
f 15 33 32
f 15 32 16
f 16 32 38
f 16 38 17
f 17 38 39
f 17 39 40
f 17 40 18
f 18 40 19
f 19 41 21
f 19 21 42
f 19 42 20
f 19 40 43
f 19 43 44
f 19 44 45
f 19 45 46
f 19 46 47
f 19 47 48
f 19 48 49
f 19 49 50
f 19 50 51
f 19 51 41
f 20 42 21
f 21 41 52
f 22 30 23
f 23 30 29
f 23 29 28
f 23 28 67
f 23 67 66
f 23 66 65
f 23 65 64
f 23 64 63
f 23 63 62
f 23 62 61
f 23 61 60
f 23 60 59
f 23 59 58
f 23 58 57
f 23 57 56
f 23 56 55
f 23 55 54
f 23 54 90
f 23 90 118
f 23 118 157
f 23 157 188
f 23 188 190
f 23 190 221
f 23 221 220
f 23 220 219
f 23 219 256
f 23 256 255
f 23 255 254
f 23 254 253
f 23 253 252
f 23 252 251
f 23 251 250
f 23 250 284
f 23 284 323
f 23 323 352
f 23 352 383
f 23 383 398
f 23 398 401
f 23 401 399
f 23 399 385
f 23 385 354
f 23 354 324
f 23 324 285
f 23 285 257
f 23 257 222
f 23 222 193
f 23 193 192
f 23 192 191
f 23 191 159
f 23 159 133
f 23 133 91
f 23 91 70
f 23 70 69
f 23 69 37
f 23 37 36
f 23 36 35
f 23 35 34
f 23 34 25
f 23 25 24
f 27 53 54
f 27 54 55
f 27 55 56
f 27 56 57
f 27 57 58
f 27 58 59
f 27 59 60
f 27 60 61
f 27 61 62
f 27 62 63
f 27 63 64
f 27 64 65
f 27 65 66
f 27 66 67
f 27 67 28
f 31 68 32
f 31 37 69
f 31 69 70
f 31 70 68
f 32 68 71
f 32 71 38
f 38 71 72
f 38 72 73
f 38 73 74
f 38 74 75
f 38 75 39
f 39 75 76
f 39 76 43
f 39 43 40
f 41 51 77
f 41 77 52
f 43 76 44
f 44 76 78
f 44 78 45
f 45 78 46
f 46 78 79
f 46 79 80
f 46 80 81
f 46 81 82
f 46 82 48
f 46 48 47
f 48 82 49
f 49 82 83
f 49 83 84
f 49 84 85
f 49 85 86
f 49 86 87
f 49 87 88
f 49 88 50
f 50 88 87
f 50 87 77
f 50 77 51
f 53 89 90
f 53 90 54
f 68 70 91
f 68 91 92
f 68 92 71
f 71 92 93
f 71 93 72
f 72 94 95
f 72 95 73
f 72 93 94
f 73 95 74
f 74 76 75
f 74 95 96
f 74 96 97
f 74 97 76
f 76 97 78
f 77 87 98
f 78 97 99
f 78 99 79
f 79 99 80
f 80 100 101
f 80 101 102
f 80 102 103
f 80 103 81
f 80 99 104
f 80 104 105
f 80 105 100
f 81 103 82
f 82 103 83
f 83 103 84
f 84 103 85
f 85 106 107
f 85 107 86
f 85 103 108
f 85 108 109
f 85 109 110
f 85 110 111
f 85 111 106
f 86 107 87
f 87 107 106
f 87 106 112
f 87 112 113
f 87 113 114
f 87 114 115
f 87 115 116
f 87 116 98
f 89 117 90
f 90 117 119
f 90 119 120
f 90 120 121
f 90 121 122
f 90 122 123
f 90 123 124
f 90 124 125
f 90 125 126
f 90 126 127
f 90 127 128
f 90 128 129
f 90 129 130
f 90 130 131
f 90 131 132
f 90 132 118
f 91 133 92
f 92 133 134
f 92 134 93
f 93 134 135
f 93 135 136
f 93 136 94
f 94 137 95
f 94 136 138
f 94 138 137
f 95 137 139
f 95 139 96
f 96 139 140
f 96 140 141
f 96 141 104
f 96 104 97
f 97 104 99
f 100 142 143
f 100 143 101
f 100 105 144
f 100 144 142
f 101 143 145
f 101 145 146
f 101 146 147
f 101 147 102
f 102 147 148
f 102 148 103
f 103 148 108
f 104 141 149
f 104 149 144
f 104 144 105
f 106 111 113
f 106 113 112
f 108 148 109
f 109 150 151
f 109 151 152
f 109 152 110
f 109 148 146
f 109 146 150
f 110 152 153
f 110 153 111
f 111 153 113
f 113 153 154
f 113 154 155
f 113 155 156
f 113 156 114
f 118 132 158
f 118 158 157
f 133 159 134
f 134 159 135
f 135 159 160
f 135 160 161
f 135 161 162
f 135 162 136
f 136 162 163
f 136 163 138
f 137 138 163
f 137 163 139
f 139 163 164
f 139 164 165
f 139 165 166
f 139 166 140
f 140 166 141
f 141 166 167
f 141 167 168
f 141 168 169
f 141 169 170
f 141 170 144
f 141 144 149
f 142 144 171
f 142 171 143
f 143 171 172
f 143 172 173
f 143 173 146
f 143 146 145
f 144 170 171
f 146 148 147
f 146 173 174
f 146 174 175
f 146 175 176
f 146 176 177
f 146 177 150
f 150 177 178
f 150 178 151
f 151 179 152
f 151 178 180
f 151 180 181
f 151 181 179
f 152 179 153
f 153 179 181
f 153 181 182
f 153 182 183
f 153 183 184
f 153 184 185
f 153 185 186
f 153 186 187
f 153 187 155
f 153 155 154
f 157 158 188
f 158 189 190
f 158 190 188
f 159 191 160
f 160 191 192
f 160 192 193
f 160 193 194
f 160 194 161
f 161 194 195
f 161 195 164
f 161 164 163
f 161 163 162
f 164 196 165
f 164 195 196
f 165 196 197
f 165 197 167
f 165 167 166
f 167 197 198
f 167 198 168
f 168 198 199
f 168 199 169
f 169 199 170
f 170 200 201
f 170 201 171
f 170 199 200
f 171 201 202
f 171 202 172
f 172 202 203
f 172 203 173
f 173 203 174
f 174 204 175
f 174 203 204
f 175 204 205
f 175 205 176
f 176 206 177
f 176 205 206
f 177 206 207
f 177 207 208
f 177 208 178
f 178 208 180
f 180 209 181
f 180 208 210
f 180 210 211
f 180 211 209
f 181 211 212
f 181 212 213
f 181 213 214
f 181 214 182
f 181 209 211
f 182 214 215
f 182 215 183
f 183 215 216
f 183 216 184
f 184 216 217
f 189 218 219
f 189 219 220
f 189 220 221
f 189 221 190
f 193 222 194
f 194 222 223
f 194 223 195
f 195 223 224
f 195 224 196
f 196 224 225
f 196 225 197
f 197 225 226
f 197 226 198
f 198 226 227
f 198 227 199
f 199 227 228
f 199 228 200
f 200 229 201
f 200 228 229
f 201 229 230
f 201 230 202
f 202 230 231
f 202 231 203
f 203 231 232
f 203 232 204
f 204 233 205
f 204 232 233
f 205 233 234
f 205 234 206
f 206 234 235
f 206 235 207
f 207 235 236
f 207 236 208
f 208 237 238
f 208 238 210
f 208 236 237
f 210 238 239
f 210 239 211
f 211 240 241
f 211 241 242
f 211 242 212
f 211 239 240
f 212 242 213
f 213 242 214
f 214 242 243
f 214 243 216
f 214 216 215
f 216 244 245
f 216 245 246
f 216 246 247
f 216 247 248
f 216 248 217
f 216 243 244
f 218 249 250
f 218 250 251
f 218 251 252
f 218 252 253
f 218 253 254
f 218 254 255
f 218 255 256
f 218 256 219
f 222 257 223
f 223 257 258
f 223 258 224
f 224 258 259
f 224 259 260
f 224 260 225
f 225 260 226
f 226 260 261
f 226 261 227
f 227 261 262
f 227 262 263
f 227 263 228
f 228 263 264
f 228 264 229
f 229 264 230
f 230 264 265
f 230 265 231
f 231 266 232
f 231 265 266
f 232 266 267
f 232 267 233
f 233 268 234
f 233 267 268
f 234 268 235
f 235 268 236
f 236 268 269
f 236 269 237
f 237 270 238
f 237 269 270
f 238 270 271
f 238 271 272
f 238 272 239
f 239 272 273
f 239 273 240
f 240 273 241
f 241 274 242
f 241 273 275
f 241 275 274
f 242 276 277
f 242 277 278
f 242 278 244
f 242 244 243
f 242 274 276
f 244 279 280
f 244 280 245
f 244 278 279
f 245 280 246
f 249 281 282
f 249 282 283
f 249 283 284
f 249 284 250
f 257 285 258
f 258 285 286
f 258 286 259
f 259 286 287
f 259 287 260
f 260 287 288
f 260 288 261
f 261 289 290
f 261 290 262
f 261 288 289
f 262 291 292
f 262 292 263
f 262 290 291
f 263 292 293
f 263 293 264
f 264 294 265
f 264 293 294
f 265 294 295
f 265 295 266
f 266 295 296
f 266 296 267
f 267 296 268
f 268 296 297
f 268 297 298
f 268 298 299
f 268 299 300
f 268 300 269
f 269 300 301
f 269 301 302
f 269 302 303
f 269 303 270
f 270 304 305
f 270 305 271
f 270 303 302
f 270 302 304
f 271 305 306
f 271 306 307
f 271 307 275
f 271 275 273
f 271 273 272
f 274 275 307
f 274 307 308
f 274 308 276
f 276 308 277
f 277 308 309
f 277 309 278
f 278 309 310
f 278 310 311
f 278 311 279
f 279 311 312
f 279 312 280
f 280 312 313
f 281 314 315
f 281 315 316
f 281 316 317
f 281 317 282
f 282 317 318
f 282 318 319
f 282 319 320
f 282 320 283
f 283 320 284
f 284 320 321
f 284 321 322
f 284 322 323
f 285 324 286
f 286 324 325
f 286 325 287
f 287 325 326
f 287 326 288
f 288 326 327
f 288 327 328
f 288 328 289
f 289 328 290
f 290 328 329
f 290 329 330
f 290 330 331
f 290 331 291
f 291 331 292
f 292 331 293
f 293 331 330
f 293 330 294
f 294 332 333
f 294 333 295
f 294 330 332
f 295 297 296
f 295 333 297
f 297 333 334
f 297 334 335
f 297 335 298
f 298 335 299
f 299 336 301
f 299 301 300
f 299 335 336
f 301 336 335
f 301 335 302
f 302 335 334
f 302 334 337
f 302 337 338
f 302 338 339
f 302 339 304
f 304 340 305
f 304 339 340
f 305 341 306
f 305 340 342
f 305 342 341
f 306 308 307
f 306 341 343
f 306 343 310
f 306 310 309
f 306 309 308
f 310 343 311
f 311 343 344
f 311 344 312
f 312 344 345
f 312 345 313
f 314 346 347
f 314 347 315
f 315 347 348
f 315 348 316
f 316 348 317
f 317 348 349
f 317 349 350
f 317 350 318
f 318 350 319
f 319 350 320
f 320 349 351
f 320 351 321
f 320 350 349
f 321 351 322
f 322 351 323
f 323 351 353
f 323 353 352
f 324 354 325
f 325 354 355
f 325 355 326
f 326 355 356
f 326 356 327
f 327 356 357
f 327 357 328
f 328 357 329
f 329 357 358
f 329 358 330
f 330 358 359
f 330 359 360
f 330 360 361
f 330 361 332
f 332 361 362
f 332 362 333
f 333 363 334
f 333 362 364
f 333 364 363
f 334 363 365
f 334 365 337
f 337 365 338
f 338 365 366
f 338 366 348
f 338 348 367
f 338 367 368
f 338 368 369
f 338 369 342
f 338 342 339
f 339 342 340
f 341 370 343
f 341 342 370
f 342 369 371
f 342 371 370
f 343 370 372
f 343 372 345
f 343 345 344
f 345 372 373
f 346 374 367
f 346 367 347
f 347 367 348
f 348 366 375
f 348 375 376
f 348 376 377
f 348 377 378
f 348 378 349
f 349 378 379
f 349 379 380
f 349 380 351
f 351 380 381
f 351 381 382
f 351 382 353
f 352 353 382
f 352 382 384
f 352 384 383
f 354 385 355
f 355 385 386
f 355 386 356
f 356 386 387
f 356 387 357
f 357 387 358
f 358 387 388
f 358 388 389
f 358 389 359
f 359 389 390
f 359 390 360
f 360 362 361
f 360 390 377
f 360 377 362
f 362 377 364
f 363 364 376
f 363 376 365
f 364 377 376
f 365 376 375
f 365 375 366
f 367 374 391
f 367 391 368
f 368 391 392
f 368 392 369
f 369 392 371
f 370 371 393
f 370 393 392
f 370 392 394
f 370 394 395
f 370 395 373
f 370 373 372
f 371 392 393
f 377 390 381
f 377 381 378
f 378 381 380
f 378 380 379
f 381 389 396
f 381 396 382
f 381 390 389
f 382 396 397
f 382 397 384
f 383 384 397
f 383 397 398
f 385 399 400
f 385 400 386
f 386 400 387
f 387 400 388
f 388 400 397
f 388 397 396
f 388 396 389
f 397 400 398
f 398 400 401
f 399 401 400

