# https://github.com/mikedh/trimesh
v -0.00546204 -0.01460224 0.08074732
v -0.00574567 -0.01450307 0.08074732
v 0.00036136 -0.01460224 0.08074732
v -0.00522793 -0.01460224 0.08103430
v -0.00207425 -0.01459207 0.10044140
v -0.00356217 -0.01448526 0.10044140
v -0.00440181 -0.01437592 0.10166107
v -0.00496006 -0.01422842 0.10206364
v -0.00519192 -0.01419791 0.10044140
v -0.00588523 -0.01444966 0.08074732
v -0.00083618 -0.01460224 0.08249711
v 0.00042439 -0.01457173 0.08074732
v 0.00210591 -0.01312731 0.10044140
v 0.00089936 -0.01369948 0.10044140
v -0.00024191 -0.01418773 0.10044140
v -0.00098700 -0.01449544 0.10044140
v -0.00511538 -0.01460224 0.08116982
v -0.00105228 -0.01447001 0.10192414
v -0.00207425 -0.01453867 0.10192414
v -0.00370399 -0.01442423 0.10206364
v -0.00507261 -0.01460224 0.08121366
v -0.00499383 -0.01460224 0.08128142
v -0.00349689 -0.01460224 0.08235362
v -0.00207425 -0.01460224 0.08307506
v -0.00167581 -0.01460224 0.08309499
v -0.00089246 -0.01460224 0.08254494
v -0.00429601 -0.01435811 0.10265355
v -0.00505010 -0.01415722 0.10341484
v -0.00653803 -0.01347061 0.10341484
v -0.00653803 -0.01351893 0.10192414
v -0.00605181 -0.01429200 0.08074732
v -0.00812050 -0.01241782 0.10192414
v -0.00910195 -0.01167272 0.10192414
v -0.00910645 -0.01167526 0.10044140
v 0.00049642 -0.01453612 0.08074732
v 0.00284875 -0.01267720 0.10044140
v 0.00202712 -0.01308408 0.10192414
v 0.00089936 -0.01363082 0.10192414
v 0.00115597 -0.01416739 0.08074732
v -0.00030944 -0.01415976 0.10192414
v -0.00118284 -0.01441660 0.10341484
v -0.00404389 -0.01434286 0.10341484
v -0.00127738 -0.01438100 0.10425984
v -0.00207425 -0.01444458 0.10341484
v -0.00297466 -0.01436574 0.10419208
v -0.00505010 -0.01395378 0.10490156
v -0.00659656 -0.01324429 0.10480192
v -0.00731238 -0.01288827 0.10423992
v -0.00808673 -0.01239493 0.10341484
v -0.00640072 -0.01394361 0.08074732
v -0.00907493 -0.01164983 0.10341484
v -0.00984478 -0.01079793 0.10192414
v -0.00985154 -0.01082591 0.10044140
v -0.00982227 -0.01080811 0.09895468
v -0.00793141 -0.01228049 0.08074732
v -0.00665283 -0.01368168 0.08074732
v -0.00648626 -0.01385715 0.08074732
v 0.00377617 -0.01193465 0.10044140
v 0.00372890 -0.01188633 0.10192414
v 0.00277221 -0.01263143 0.10192414
v 0.00193033 -0.01363336 0.08074732
v 0.00189656 -0.01300779 0.10341484
v 0.00089936 -0.01348841 0.10341484
v -0.00044000 -0.01409364 0.10341484
v -0.00350815 -0.01420045 0.10477402
v -0.00207425 -0.01386223 0.10638829
v -0.00207425 -0.01420299 0.10500520
v -0.00207425 -0.01438100 0.10425984
v 0.00176600 -0.01293659 0.10443123
v 0.00097814 -0.01319343 0.10491751
v -0.00070337 -0.01398938 0.10481388
v -0.00058857 -0.01354690 0.10638829
v -0.00122786 -0.00997655 0.12092866
v -0.00356217 -0.01380629 0.10638829
v -0.00505010 -0.01358250 0.10638829
v -0.00568939 -0.01283995 0.10852470
v -0.00596177 -0.01298236 0.10753222
v -0.00617786 -0.01313494 0.10638829
v -0.00692295 -0.01261617 0.10638829
v -0.00789540 -0.01233898 0.10480192
v -0.00895563 -0.01154303 0.10490156
v -0.00982002 -0.01075470 0.10341484
v -0.01035352 -0.01005538 0.10192414
v -0.01037603 -0.01008081 0.10044140
v -0.01035352 -0.01002995 0.09597725
v -0.00874178 -0.01134722 0.08074732
v 0.00451901 -0.01128873 0.10044140
v 0.00447173 -0.01124296 0.10192414
v 0.00378742 -0.01194228 0.09895468
v 0.00453026 -0.01129890 0.09895468
v 0.00439520 -0.01117430 0.10341484
v 0.00365236 -0.01181004 0.10341484
v 0.00263940 -0.01255514 0.10341484
v 0.00221846 -0.01337907 0.08074732
v -0.00207425 -0.00984940 0.12146277
v 0.00231300 -0.01247376 0.10491751
v 0.00152739 -0.01281198 0.10542371
v 0.00051668 -0.01304085 0.10638829
v 0.00026007 -0.01292133 0.10728909
v -0.00082043 -0.00926451 0.12146277
v 0.00126177 -0.01268229 0.10638829
v 0.00252685 -0.01190413 0.10651583
v 0.00311662 -0.01137011 0.10709378
v 0.00362535 -0.01045972 0.10787899
v 0.00456628 -0.00981888 0.10698617
v -0.00356217 -0.01340195 0.10787899
v -0.00469894 -0.01295947 0.10887944
v -0.00513789 -0.01313240 0.10797067
v -0.00349239 -0.00968411 0.12146277
v -0.00486102 -0.00924926 0.12146277
v -0.00505010 -0.00918822 0.12146277
v -0.00768605 -0.01166764 0.10787899
v -0.00810249 -0.01179987 0.10634046
v -0.00593926 -0.00862114 0.12146277
v -0.00649076 -0.01248648 0.10797067
v -0.00882282 -0.01142605 0.10581432
v -0.00977050 -0.01052838 0.10485772
v -0.01029724 -0.00995875 0.10433159
v -0.01032650 -0.01001215 0.10341484
v -0.01205979 -0.00743865 0.09746397
v -0.01159833 -0.00818120 0.09746397
v -0.01160509 -0.00819392 0.09597725
v -0.01095454 -0.00915008 0.09597725
v -0.01158483 -0.00816594 0.09449053
v -0.01090952 -0.00915008 0.09449053
v -0.01032650 -0.00998926 0.09449053
v -0.00907268 -0.01085134 0.08074732
v 0.00522358 -0.01054363 0.10044140
v 0.00517405 -0.01050040 0.10192414
v 0.00523483 -0.01055635 0.09895468
v 0.00296130 -0.01269500 0.08074732
v 0.00452351 -0.01129382 0.09746397
v 0.00509977 -0.01042920 0.10341484
v 0.00494220 -0.01026136 0.10490156
v 0.00423313 -0.01100646 0.10490156
v 0.00348804 -0.01167272 0.10490156
v 0.00328770 -0.01150743 0.10610131
v -0.00006633 -0.00782773 0.12146277
v 0.00611498 -0.00841516 0.10566685
v 0.00591689 -0.00813034 0.10665932
v 0.00623654 -0.00713858 0.10744055
v 0.00475311 -0.01005284 0.10599369
v -0.00864949 -0.01127856 0.10680680
v -0.00744744 -0.01149726 0.10897112
v -0.00634894 -0.00765989 0.12146277
v -0.01179867 -0.00703177 0.10435152
v -0.01091402 -0.00765989 0.10638829
v -0.01029049 -0.00847110 0.10723727
v -0.00984253 -0.00904073 0.10779131
v -0.01005413 -0.00946541 0.10638829
v -0.00908619 -0.01031985 0.10787899
v -0.00923476 -0.01072419 0.10634046
v -0.01018919 -0.00975277 0.10532406
v -0.01056736 -0.00921365 0.10485772
v -0.01185720 -0.00714366 0.10341484
v -0.01147002 -0.00788876 0.10341484
v -0.01192023 -0.00726064 0.10192414
v -0.01198101 -0.00734201 0.10044140
v -0.01202603 -0.00739033 0.09895468
v -0.01262255 -0.00617224 0.09746397
v -0.01264056 -0.00617224 0.09597725
v -0.01206655 -0.00744882 0.09597725
v -0.01205079 -0.00742339 0.09449053
v -0.00914697 -0.01071910 0.08074732
v -0.01199451 -0.00733439 0.09299982
v 0.00596867 -0.00970954 0.10044140
v 0.00597992 -0.00972479 0.09895468
v 0.00591689 -0.00964596 0.10192414
v 0.00522808 -0.01054872 0.09746397
v 0.00339800 -0.01220421 0.08074732
v 0.00597092 -0.00971462 0.09746397
v 0.00584486 -0.00955696 0.10341484
v 0.00568729 -0.00933826 0.10490156
v -0.00001906 -0.00772855 0.12146277
v 0.00635134 -0.00764463 0.10625277
v 0.00623654 -0.00859317 0.10490156
v 0.00674527 -0.00765989 0.10490156
v 0.00734629 -0.00612138 0.10483779
v 0.00688933 -0.00617224 0.10638829
v 0.00635809 -0.00612138 0.10791088
v 0.00601369 -0.00658166 0.10843303
v -0.00657855 -0.00617224 0.12146277
v -0.01087125 -0.00617224 0.10787899
v -0.01134172 -0.00617224 0.10638829
v -0.01165686 -0.00617224 0.10534001
v -0.01187296 -0.00617224 0.10459864
v -0.01226464 -0.00468460 0.10341484
v -0.01206204 -0.00617224 0.10341484
v -0.01287016 -0.00468460 0.09895468
v -0.01306600 -0.00454727 0.09734041
v -0.01251450 -0.00617224 0.09895468
v -0.01041654 -0.00872031 0.10638829
v -0.01309751 -0.00454727 0.09599718
v -0.01302998 -0.00468460 0.09449053
v -0.01260229 -0.00617224 0.09449053
v -0.00988530 -0.00929503 0.08074732
v -0.01248298 -0.00617224 0.09299982
v -0.01047507 -0.00792945 0.08074732
v -0.01000236 -0.00904327 0.08074732
v 0.00648865 -0.00896444 0.10044140
v 0.00644813 -0.00890341 0.10192414
v 0.00649991 -0.00897970 0.09895468
v 0.00649766 -0.00896953 0.09746397
v 0.00638736 -0.00881186 0.10341484
v 0.00358933 -0.01197788 0.08074732
v 0.00435468 -0.01104969 0.08074732
v 0.00479588 -0.01048006 0.08074732
v 0.00492644 -0.01030459 0.08074732
v 0.00648190 -0.00893138 0.09597725
v 0.00027807 -0.00728607 0.12092468
v 0.00009574 -0.00617224 0.12146277
v 0.00614875 -0.00558990 0.10869609
v 0.00623654 -0.00468460 0.10887147
v 0.00631757 -0.00319695 0.10904685
v 0.00704691 -0.00765989 0.10341484
v 0.00751062 -0.00660964 0.10341484
v 0.00763667 -0.00558990 0.10429970
v 0.00749711 -0.00497958 0.10529218
v 0.00760741 -0.00398782 0.10567482
v 0.00728551 -0.00456507 0.10626074
v 0.00666873 -0.00468460 0.10787899
v -0.00643448 -0.00468460 0.12146277
v -0.01108285 -0.00319695 0.10787899
v -0.01154431 -0.00319695 0.10648793
v -0.01177616 -0.00417345 0.10573461
v -0.01154431 -0.00467442 0.10629661
v -0.01193599 -0.00467442 0.10498925
v -0.01237944 -0.00319695 0.10341484
v -0.01261805 -0.00319695 0.10192414
v -0.01284090 -0.00319695 0.10044140
v -0.01304799 -0.00319695 0.09895468
v -0.01323933 -0.00395730 0.09676246
v -0.01323933 -0.00395730 0.09650338
v -0.01323033 -0.00383778 0.09551489
v -0.01322132 -0.00360637 0.09449053
v -0.01290393 -0.00468460 0.09299982
v -0.01089601 -0.00652317 0.08074732
v -0.01053360 -0.00777941 0.08074732
v 0.00723149 -0.00777178 0.10044140
v 0.00724500 -0.00781247 0.09895468
v 0.00725850 -0.00754291 0.10192812
v 0.00724275 -0.00781755 0.09746397
v 0.00722474 -0.00780230 0.09597725
v 0.00510202 -0.01006047 0.08074732
v 0.00574356 -0.00916788 0.08074732
v 0.00615550 -0.00856011 0.08074732
v 0.00618251 -0.00851942 0.08074732
v -0.00009785 -0.00497958 0.12146277
v 0.00594616 -0.00319695 0.10979220
v 0.00541491 -0.00319695 0.11085643
v 0.00483415 -0.00319695 0.11199638
v 0.00536989 -0.00170930 0.11085643
v 0.00480939 -0.00170930 0.11192862
v 0.00471935 -0.00022165 0.11176918
v 0.00465632 0.00059210 0.11165758
v 0.00682180 -0.00319695 0.10787899
v 0.00678129 -0.00170930 0.10787899
v 0.00629281 -0.00170930 0.10899902
v 0.00592364 -0.00170930 0.10974437
v 0.00762317 -0.00696565 0.10143388
v 0.00757139 -0.00684105 0.10242635
v 0.00772672 -0.00586454 0.10341484
v 0.00783026 -0.00627650 0.10192812
v 0.00832774 -0.00468460 0.10192414
v 0.00804186 -0.00468460 0.10341484
v 0.00772446 -0.00456507 0.10483779
v 0.00762767 -0.00319695 0.10573461
v 0.00735755 -0.00319695 0.10647996
v 0.00831423 -0.00319695 0.10341484
v 0.00790455 -0.00319695 0.10490156
v -0.00639847 -0.00452439 0.12146277
v -0.01015317 -0.00170930 0.10982409
v -0.01043005 -0.00170930 0.10907874
v -0.01087350 -0.00170930 0.10787899
v -0.01024997 -0.00281550 0.11008715
v -0.01176041 -0.00238828 0.10568678
v -0.01177841 -0.00319695 0.10574258
v -0.01203278 -0.00319695 0.10490156
v -0.01225788 -0.00170930 0.10341484
v -0.01255952 -0.00170930 0.10192414
v -0.01279813 -0.00170930 0.10044140
v -0.01301198 -0.00170930 0.09895468
v -0.01318981 -0.00319695 0.09771109
v -0.01326184 -0.00209329 0.09700560
v -0.01325734 -0.00319695 0.09696574
v -0.01326409 -0.00328341 0.09599718
v -0.01325284 -0.00286127 0.09449053
v -0.01324158 -0.00260698 0.09368937
v -0.01314254 -0.00314100 0.09311541
v -0.01097930 -0.00617224 0.08074732
v 0.00765693 -0.00702669 0.10044140
v 0.00768170 -0.00706737 0.09895468
v 0.00768620 -0.00707500 0.09746397
v 0.00767944 -0.00705974 0.09597725
v 0.00621403 -0.00846601 0.08074732
v -0.00014737 -0.00471511 0.12146277
v 0.00621628 -0.00022165 0.10883958
v 0.00583811 -0.00022165 0.10958494
v 0.00519206 -0.00022165 0.11085643
v 0.00615550 0.00064550 0.10871204
v 0.00595516 0.00163727 0.10832541
v 0.00469684 0.00214332 0.11023463
v 0.00435468 0.00158387 0.11122711
v 0.00383244 0.00119733 0.11227937
v 0.00331020 0.00081080 0.11332366
v -0.00062234 -0.00318932 0.12146277
v -0.00054130 -0.00338513 0.12146277
v 0.00762767 -0.00197631 0.10573461
v 0.00663497 -0.00022165 0.10787899
v 0.00739131 -0.00157452 0.10629263
v 0.00759616 -0.00098709 0.10564293
v 0.00723374 -0.00022165 0.10638829
v 0.00803286 -0.00617224 0.10044140
v 0.00853934 -0.00468460 0.10044140
v 0.00884773 -0.00319695 0.10044140
v 0.00862487 -0.00319695 0.10192414
v 0.00871942 -0.00170930 0.10192414
v 0.00835700 -0.00170930 0.10341484
v 0.00784152 -0.00157452 0.10504904
v -0.00607882 -0.00311049 0.12146277
v -0.00976150 -0.00170930 0.11085643
v -0.01018469 0.00023354 0.10843701
v -0.01050208 -0.00024708 0.10791487
v -0.01104233 -0.00022165 0.10638829
v -0.01145202 -0.00181865 0.10626473
v -0.01165686 -0.00139906 0.10535595
v -0.01189322 -0.00181865 0.10487765
v -0.01180993 -0.00066159 0.10436347
v -0.01195399 -0.00018860 0.10347064
v -0.01233667 -0.00022165 0.10192414
v -0.01262705 -0.00022165 0.10044140
v -0.01286566 -0.00022165 0.09895468
v -0.01306375 -0.00022165 0.09746397
v -0.01318305 -0.00164064 0.09748789
v -0.01313578 -0.00022165 0.09597725
v -0.01321682 -0.00123376 0.09597725
v -0.01326859 -0.00197377 0.09597725
v -0.01325284 -0.00215432 0.09449053
v -0.01324158 -0.00233233 0.09368937
v -0.01122916 -0.00319695 0.08074732
v -0.01121341 -0.00354788 0.08074732
v -0.01114363 -0.00468460 0.08074732
v -0.01110986 -0.00503553 0.08074732
v 0.00809814 -0.00617224 0.09895468
v 0.00811389 -0.00617224 0.09746397
v 0.00662146 -0.00776161 0.08074732
v 0.00764568 -0.00700126 0.09449053
v 0.00803736 -0.00617224 0.09449053
v 0.00809814 -0.00617224 0.09597725
v 0.00773347 0.00092778 0.10453088
v 0.00691635 0.00126599 0.10638829
v 0.00634459 0.00118970 0.10784711
v 0.00620052 0.00221707 0.10733293
v 0.00493544 0.00268498 0.10931789
v 0.00570079 0.00273075 0.10784711
v 0.00472610 0.00366403 0.10878777
v 0.00336198 0.00234676 0.11191267
v 0.00295229 0.00180256 0.11290515
v -0.00107929 -0.00234759 0.12146277
v 0.00756014 -0.00022165 0.10555126
v 0.00782801 -0.00022165 0.10480591
v 0.00863613 -0.00468460 0.09895468
v 0.00898054 -0.00311303 0.09898657
v 0.00907283 -0.00224841 0.09950473
v 0.00899854 -0.00173473 0.10035770
v 0.00910209 -0.00125665 0.09980765
v 0.00910209 -0.00076077 0.09980765
v 0.00896703 -0.00024708 0.10035770
v 0.00863613 -0.00022165 0.10192414
v 0.00825120 -0.00022165 0.10341484
v -0.00602254 -0.00299605 0.12146277
v -0.00874403 0.00046495 0.11155395
v -0.00995734 0.00127362 0.10791487
v -0.01037378 0.00078283 0.10744454
v -0.01170638 0.00033017 0.10400475
v -0.01154206 -0.00018860 0.10487765
v -0.01183694 0.00074977 0.10301227
v -0.01223312 0.00126599 0.10044140
v -0.01248524 0.00126599 0.09895468
v -0.01269458 0.00126599 0.09746397
v -0.01276436 0.00126599 0.09597725
v -0.01310652 -0.00022165 0.09449053
v -0.01321007 -0.00141431 0.09449053
v -0.01298271 -0.00022165 0.09299982
v -0.01313578 -0.00178559 0.09311541
v -0.01113912 -0.00170930 0.08074732
v 0.00866539 -0.00468460 0.09746397
v 0.00865189 -0.00468460 0.09597725
v 0.00734854 -0.00638840 0.08074732
v 0.00761416 -0.00581877 0.08074732
v 0.00769070 -0.00564330 0.08074732
v 0.00860011 -0.00468460 0.09449053
v 0.00742058 0.00136008 0.10497730
v 0.00837276 0.00126599 0.10192414
v 0.00790680 0.00136008 0.10350253
v 0.00756464 0.00191954 0.10405258
v 0.00695687 0.00275364 0.10490156
v 0.00639411 0.00273075 0.10637234
v 0.00597092 0.00320883 0.10685463
v 0.00620727 0.00368183 0.10586215
v 0.00433442 0.00465579 0.10815402
v 0.00385270 0.00422603 0.10933383
v 0.00337323 0.00379626 0.11044588
v 0.00299281 0.00333853 0.11143836
v 0.00615100 0.00503724 0.10425187
v 0.00490843 0.00419297 0.10774746
v 0.00463606 0.00499910 0.10716154
v -0.00114007 -0.00227130 0.12146277
v 0.00898279 -0.00337241 0.09746397
v 0.00910209 -0.00256120 0.09851225
v 0.00913586 -0.00173473 0.09898657
v 0.00921239 -0.00022165 0.09746397
v 0.00913811 -0.00024708 0.09895069
v 0.00906157 0.00023100 0.09944494
v 0.00870816 0.00126599 0.10044140
v -0.00523243 -0.00221027 0.12146277
v -0.00590324 -0.00231199 0.12093663
v -0.00895113 0.00227302 0.10891133
v -0.00916497 0.00276381 0.10783914
v -0.01014867 0.00177713 0.10680282
v -0.01053360 0.00127362 0.10634046
v -0.01102657 0.00126599 0.10490156
v -0.01149253 0.00125328 0.10347064
v -0.01163435 0.00174153 0.10223902
v -0.01176491 0.00204923 0.10124654
v -0.01194049 0.00125328 0.10181652
v -0.01184144 0.00223233 0.10044140
v -0.01196750 0.00252223 0.09895468
v -0.01202378 0.00286045 0.09746796
v -0.01177616 0.00355722 0.09697371
v -0.01213183 0.00275364 0.09597725
v -0.01271484 0.00126599 0.09449053
v -0.01257528 0.00126599 0.09299982
v -0.01006313 0.00572130 0.08074732
v -0.01024772 0.00491009 0.08074732
v -0.01031075 0.00450576 0.08074732
v -0.01036027 0.00418534 0.08074732
v -0.01056511 0.00275364 0.08074732
v -0.01076770 0.00126599 0.08074732
v -0.01095904 -0.00022165 0.08074732
v 0.00897603 -0.00334698 0.09597725
v 0.00850557 -0.00319695 0.08074732
v 0.00888599 -0.00169150 0.08074732
v 0.00804411 -0.00468460 0.08074732
v 0.00827146 0.00275364 0.10044140
v 0.00787979 0.00280704 0.10195204
v 0.00771771 0.00234422 0.10306409
v 0.00741382 0.00280704 0.10350253
v 0.00636485 0.00420314 0.10480989
v 0.00334172 0.00517456 0.10888741
v 0.00290277 0.00478803 0.10987989
v 0.00245256 0.00428960 0.11089230
v 0.00200236 0.00378863 0.11189673
v 0.00487242 0.00672833 0.10341484
v 0.00467433 0.00652743 0.10425187
v 0.00682631 0.00424129 0.10341484
v 0.00728101 0.00419806 0.10195204
v 0.00628606 0.00522034 0.10341484
v 0.00611948 0.00648674 0.10121067
v 0.00464956 0.00798965 0.10124654
v 0.00385270 0.00539580 0.10774746
v 0.00318865 0.00800999 0.10425586
v -0.00207425 -0.00206023 0.12146277
v 0.00191232 0.00514659 0.11034624
v 0.00089936 0.00480837 0.11137060
v -0.00007759 0.00495332 0.11155395
v 0.00911110 -0.00260189 0.09597725
v 0.00911560 -0.00262986 0.09746397
v 0.00919663 -0.00170930 0.09746397
v 0.00972788 0.00459222 0.08074732
v 0.00968511 0.00572893 0.08074732
v 0.00910659 0.00063279 0.09845246
v 0.00894227 0.00118207 0.09895069
v 0.00851232 0.00275364 0.09895468
v -0.00509737 -0.00216958 0.12146277
v -0.00356217 0.00535003 0.11064517
v -0.00367698 0.00615870 0.10934977
v -0.00424874 0.00645623 0.10859246
v -0.00467418 0.00514659 0.11036218
v -0.00512213 0.00552550 0.10945340
v -0.00566688 0.00491264 0.11001142
v -0.00612384 0.00524577 0.10901895
v -0.00711654 0.00483126 0.10836527
v -0.00800345 0.00422857 0.10783914
v -0.00858421 0.00326478 0.10830947
v -0.00886334 0.00362334 0.10731699
v -0.00982903 0.00266718 0.10634046
v -0.01008790 0.00316815 0.10490156
v -0.01023421 0.00344788 0.10408447
v -0.01047057 0.00242559 0.10490156
v -0.01071143 0.00287316 0.10351848
v -0.01135072 0.00262903 0.10181652
v -0.01152405 0.00297488 0.10044140
v -0.01164786 0.00326478 0.09895468
v -0.01171764 0.00343007 0.09796220
v -0.01177391 0.00355214 0.09597725
v -0.01115038 0.00424129 0.09895468
v -0.01140249 0.00412940 0.09746796
v -0.00767480 0.01137182 0.08074732
v -0.00839738 0.01013847 0.08074732
v -0.00857971 0.00978500 0.08074732
v -0.00890611 0.00912636 0.08074732
v -0.00906593 0.00875509 0.08074732
v -0.00964444 0.00721658 0.08074732
v 0.00906608 -0.00087774 0.08074732
v 0.00921689 -0.00016317 0.08074732
v 0.00929343 0.00021828 0.08074732
v 0.00780325 0.00392087 0.10044140
v 0.00768170 0.00367420 0.10147772
v 0.00903681 0.00920265 0.08074732
v 0.00867665 0.01014864 0.08074732
v 0.00753763 0.00333598 0.10246621
v 0.00310986 0.00645623 0.10710175
v 0.00252235 0.00627568 0.10801850
v 0.00240079 0.00548989 0.10937767
v 0.00742958 0.00466342 0.10044140
v 0.00643013 0.00573911 0.10179260
v 0.00679704 0.00572893 0.10044140
v 0.00810264 0.01137182 0.08074732
v 0.00387521 0.00872457 0.10044140
v 0.00389322 0.00833041 0.10181652
v 0.00338449 0.00816257 0.10341484
v 0.00237153 0.00916705 0.10194805
v 0.00238728 0.00869151 0.10341484
v 0.00231075 0.00819054 0.10481388
v 0.00176375 0.00802016 0.10575055
v 0.00275420 0.00772263 0.10524833
v -0.00232186 -0.00203735 0.12146277
v -0.00107029 0.00502198 0.11164562
v 0.00161518 0.00646640 0.10860840
v 0.00089936 0.00533731 0.11062525
v -0.00058857 0.00675630 0.10903489
v -0.00058857 0.00625533 0.10978024
v -0.00057957 0.00542632 0.11097600
v 0.00947576 0.00126599 0.08074732
v 0.00952528 0.00161692 0.08074732
v 0.00964684 0.00275364 0.08074732
v 0.00967610 0.00310457 0.08074732
v 0.00972338 0.00424129 0.08074732
v 0.00965810 0.00607987 0.08074732
v 0.00948026 0.00729287 0.08074732
v 0.00941048 0.00772518 0.08074732
v 0.00918538 0.00866863 0.08074732
v -0.00376477 -0.00200683 0.12146277
v -0.00207425 0.00626550 0.10979619
v -0.00207425 0.00676647 0.10905083
v -0.00325829 0.00661389 0.10884357
v -0.00367698 0.00697500 0.10800654
v -0.00356217 0.00773789 0.10670317
v -0.00437704 0.00798965 0.10569874
v -0.00505010 0.00670035 0.10753621
v -0.00505010 0.00628330 0.10828157
v -0.00584021 0.00651217 0.10720937
v -0.00742268 0.00510082 0.10737279
v -0.00842439 0.00462782 0.10638829
v -0.00905918 0.00388527 0.10638829
v -0.00995283 0.00424637 0.10351848
v -0.00892862 0.00515168 0.10447109
v -0.01011041 0.00474480 0.10223902
v -0.01040304 0.00375303 0.10309199
v -0.01054035 0.00424637 0.10181652
v -0.01089151 0.00424129 0.10044140
v -0.01050434 0.00531697 0.09895468
v -0.01037152 0.00514150 0.10044140
v -0.01059438 0.00542378 0.09746397
v -0.00757350 0.01137182 0.08114989
v -0.01002487 0.00616887 0.09746397
v -0.00994608 0.00606206 0.09895468
v -0.00920324 0.00693940 0.09895468
v -0.00845590 0.00768195 0.09895468
v -0.00755999 0.00818037 0.10044140
v -0.00639396 0.00897378 0.10030588
v 0.00861587 0.01029614 0.08074732
v 0.00211716 0.00675376 0.10761593
v 0.00786403 0.01137182 0.08122562
v 0.00288926 0.00933743 0.10044140
v 0.00186280 0.00953833 0.10146576
v 0.00089936 0.00863557 0.10490156
v 0.00134731 0.00938321 0.10245824
v 0.00089936 0.00813968 0.10598572
v 0.00089936 0.00773789 0.10673107
v -0.00356217 -0.00199920 0.12146277
v -0.00162404 0.00502198 0.11164562
v -0.00113557 0.00801254 0.10722532
v 0.00102992 0.00696737 0.10801850
v 0.00062248 0.00660118 0.10882364
v 0.00102992 0.00615616 0.10933781
v -0.00062008 0.00754463 0.10778333
v -0.00155201 0.00801254 0.10722532
v -0.00205849 0.00756243 0.10778333
v -0.00254246 0.00789556 0.10700609
v -0.00356217 0.00811680 0.10596180
v -0.00494430 0.00743019 0.10627270
v -0.00356217 0.00859997 0.10490156
v -0.00494430 0.00816257 0.10482583
v -0.00536975 0.00776587 0.10526826
v -0.00586497 0.00801508 0.10427977
v -0.00767705 0.00683005 0.10341484
v -0.00842214 0.00615870 0.10341484
v -0.00867425 0.00638248 0.10248614
v -0.00891286 0.00662406 0.10149366
v -0.00915147 0.00541360 0.10341484
v -0.01028148 0.00501690 0.10124654
v -0.00981327 0.00588660 0.10044140
v -0.00733039 0.01137182 0.08203475
v -0.00580194 0.00945441 0.09971996
v -0.00907043 0.00679190 0.10044140
v -0.00830283 0.00753445 0.10044140
v -0.00740242 0.00805577 0.10140199
v -0.00658980 0.00840415 0.10190819
v -0.00555433 0.00935778 0.10071244
v 0.00505925 0.01137182 0.08637933
v 0.00214417 0.00966039 0.10044140
v 0.00089936 0.01003675 0.10044140
v 0.00087009 0.00965022 0.10194805
v 0.00087009 0.00921028 0.10335107
v -0.00033871 0.00933997 0.10380546
v -0.00132916 0.00944932 0.10416020
v -0.00073489 0.00906787 0.10475409
v -0.00062008 0.00827192 0.10644808
v -0.00073489 0.00957139 0.10335107
v -0.00014287 0.00788030 0.10698617
v -0.00133591 0.00944932 0.10416020
v -0.00205849 0.00827446 0.10646003
v -0.00192793 0.00907296 0.10475409
v -0.00232411 0.00934506 0.10384532
v -0.00354417 0.00919502 0.10337498
v -0.00505010 0.00868388 0.10341484
v -0.00505460 0.00919502 0.10193211
v -0.00609683 0.00818037 0.10341484
v -0.00712104 0.00782435 0.10239447
v -0.00684192 0.00757260 0.10341484
v -0.00803721 0.00722421 0.10194406
v -0.00951163 0.00570096 0.10186833
v -0.00703776 0.01137182 0.08295947
v -0.00505460 0.00960953 0.10030588
v -0.00505010 0.00981297 0.09895468
v -0.00436804 0.01137182 0.08967164
v -0.00578394 0.01137182 0.08641121
v -0.00613960 0.01137182 0.08551838
v -0.00617336 0.01137182 0.08542671
v -0.00665958 0.01137182 0.08405159
v -0.00456163 0.00953578 0.10144185
v 0.00466082 0.01137182 0.08705692
v 0.00387971 0.01137182 0.08836029
v 0.00239629 0.01137182 0.09079166
v 0.00089936 0.01030885 0.09895468
v -0.00058857 0.01036988 0.10044140
v -0.00058857 0.00998335 0.10192414
v -0.00207425 0.01038514 0.10044140
v -0.00207425 0.01000624 0.10192414
v -0.00192793 0.00957902 0.10337498
v -0.00303543 0.00951035 0.10285284
v -0.00402588 0.00937303 0.10243433
v -0.00356217 0.01027579 0.09895468
v -0.00356217 0.01003675 0.10044140
v -0.00395835 0.01137182 0.09053258
v -0.00354417 0.00966548 0.10193211
v 0.00097364 0.01137182 0.09240593
v -0.00104553 0.01099546 0.09713713
v -0.00058857 0.01063435 0.09895468
v -0.00159028 0.01099546 0.09713713
v -0.00207425 0.01063690 0.09895468
v -0.00364096 0.01137182 0.09111850
v -0.00058857 0.01137182 0.09360966
v -0.00209225 0.01137182 0.09324296
v -0.00345412 0.01137182 0.09137758
v -0.00208100 0.01082762 0.09756760
f 1 2 10
f 1 10 31
f 1 31 50
f 1 50 57
f 1 57 56
f 1 56 55
f 1 55 86
f 1 86 127
f 1 127 164
f 1 164 196
f 1 196 199
f 1 199 198
f 1 198 238
f 1 238 237
f 1 237 290
f 1 290 343
f 1 343 342
f 1 342 341
f 1 341 340
f 1 340 386
f 1 386 440
f 1 440 439
f 1 439 438
f 1 438 437
f 1 437 436
f 1 436 435
f 1 435 434
f 1 434 504
f 1 504 503
f 1 503 502
f 1 502 501
f 1 501 500
f 1 500 499
f 1 499 519
f 1 519 573
f 1 573 511
f 1 511 510
f 1 510 543
f 1 543 542
f 1 542 541
f 1 541 540
f 1 540 471
f 1 471 470
f 1 470 539
f 1 539 538
f 1 538 537
f 1 537 536
f 1 536 535
f 1 535 507
f 1 507 506
f 1 506 505
f 1 505 443
f 1 443 442
f 1 442 444
f 1 444 391
f 1 391 390
f 1 390 389
f 1 389 346
f 1 346 295
f 1 295 247
f 1 247 246
f 1 246 245
f 1 245 244
f 1 244 208
f 1 208 207
f 1 207 206
f 1 206 205
f 1 205 170
f 1 170 131
f 1 131 94
f 1 94 61
f 1 61 39
f 1 39 35
f 1 35 12
f 1 12 3
f 1 3 11
f 1 11 26
f 1 26 25
f 1 25 24
f 1 24 23
f 1 23 22
f 1 22 21
f 1 21 17
f 1 17 4
f 1 4 5
f 1 5 6
f 1 6 7
f 1 7 8
f 1 8 9
f 1 9 2
f 2 9 10
f 3 12 13
f 3 13 14
f 3 14 15
f 3 15 16
f 3 16 5
f 3 5 11
f 4 17 5
f 5 16 18
f 5 18 19
f 5 19 20
f 5 20 6
f 5 17 21
f 5 21 22
f 5 22 23
f 5 23 24
f 5 24 25
f 5 25 26
f 5 26 11
f 6 20 27
f 6 27 7
f 7 27 28
f 7 28 8
f 8 28 9
f 9 28 29
f 9 29 30
f 9 30 10
f 10 30 32
f 10 32 33
f 10 33 34
f 10 34 31
f 12 35 13
f 13 36 37
f 13 37 38
f 13 38 14
f 13 35 39
f 13 39 36
f 14 38 40
f 14 40 15
f 15 40 18
f 15 18 16
f 18 40 41
f 18 41 19
f 19 42 20
f 19 41 43
f 19 43 44
f 19 44 45
f 19 45 42
f 20 42 27
f 27 42 28
f 28 42 46
f 28 46 29
f 29 46 47
f 29 47 48
f 29 48 49
f 29 49 30
f 30 49 32
f 31 34 50
f 32 49 51
f 32 51 33
f 33 52 53
f 33 53 34
f 33 51 52
f 34 53 54
f 34 54 55
f 34 55 56
f 34 56 57
f 34 57 50
f 36 58 59
f 36 59 60
f 36 60 37
f 36 39 61
f 36 61 58
f 37 60 62
f 37 62 38
f 38 62 63
f 38 63 64
f 38 64 40
f 40 64 41
f 41 64 43
f 42 45 65
f 42 65 46
f 43 66 67
f 43 67 68
f 43 68 44
f 43 64 63
f 43 63 69
f 43 69 70
f 43 70 71
f 43 71 72
f 43 72 73
f 43 73 66
f 44 68 45
f 45 68 67
f 45 67 74
f 45 74 65
f 46 65 74
f 46 74 75
f 46 75 76
f 46 76 77
f 46 77 78
f 46 78 47
f 47 78 48
f 48 78 79
f 48 79 80
f 48 80 81
f 48 81 51
f 48 51 49
f 51 81 82
f 51 82 52
f 52 83 84
f 52 84 53
f 52 82 83
f 53 84 85
f 53 85 54
f 54 85 86
f 54 86 55
f 58 87 88
f 58 88 59
f 58 61 89
f 58 89 90
f 58 90 87
f 59 88 91
f 59 91 92
f 59 92 60
f 60 92 93
f 60 93 62
f 61 94 90
f 61 90 89
f 62 93 69
f 62 69 63
f 66 74 67
f 66 73 95
f 66 95 74
f 69 96 97
f 69 97 70
f 69 93 96
f 70 97 98
f 70 98 71
f 71 98 72
f 72 98 99
f 72 99 73
f 73 100 95
f 73 99 98
f 73 98 101
f 73 101 97
f 73 97 102
f 73 102 103
f 73 103 104
f 73 104 105
f 73 105 100
f 74 106 75
f 74 95 106
f 75 106 107
f 75 107 108
f 75 108 76
f 76 108 109
f 76 109 110
f 76 110 111
f 76 111 77
f 77 112 113
f 77 113 79
f 77 79 78
f 77 111 114
f 77 114 115
f 77 115 112
f 79 113 80
f 80 113 116
f 80 116 81
f 81 117 82
f 81 116 117
f 82 117 118
f 82 118 119
f 82 119 83
f 83 119 120
f 83 120 84
f 84 120 121
f 84 121 122
f 84 122 123
f 84 123 85
f 85 123 124
f 85 124 125
f 85 125 126
f 85 126 86
f 86 126 125
f 86 125 124
f 86 124 127
f 87 128 129
f 87 129 88
f 87 90 130
f 87 130 128
f 88 129 91
f 90 94 131
f 90 131 132
f 90 132 130
f 91 133 134
f 91 134 135
f 91 135 136
f 91 136 92
f 91 129 133
f 92 136 93
f 93 136 96
f 95 100 138
f 95 138 174
f 95 174 211
f 95 211 248
f 95 248 296
f 95 296 307
f 95 307 306
f 95 306 359
f 95 359 408
f 95 408 463
f 95 463 528
f 95 528 582
f 95 582 544
f 95 544 475
f 95 475 416
f 95 416 371
f 95 371 320
f 95 320 271
f 95 271 222
f 95 222 182
f 95 182 145
f 95 145 114
f 95 114 111
f 95 111 110
f 95 110 109
f 95 109 106
f 96 136 137
f 96 137 103
f 96 103 102
f 96 102 97
f 97 101 98
f 100 105 139
f 100 139 140
f 100 140 141
f 100 141 138
f 103 137 135
f 103 135 134
f 103 134 142
f 103 142 105
f 103 105 104
f 105 142 139
f 106 109 107
f 107 109 108
f 112 143 113
f 112 115 144
f 112 144 114
f 112 114 143
f 113 143 116
f 114 145 146
f 114 146 147
f 114 147 148
f 114 148 149
f 114 149 150
f 114 150 151
f 114 151 143
f 114 144 115
f 116 143 152
f 116 152 117
f 117 152 153
f 117 153 118
f 118 153 154
f 118 154 146
f 118 146 155
f 118 155 156
f 118 156 157
f 118 157 158
f 118 158 119
f 119 158 159
f 119 159 120
f 120 160 161
f 120 161 162
f 120 162 122
f 120 122 121
f 120 159 160
f 122 162 163
f 122 163 124
f 122 124 123
f 124 163 127
f 127 163 165
f 127 165 164
f 128 166 129
f 128 130 167
f 128 167 166
f 129 166 168
f 129 168 133
f 130 132 169
f 130 169 167
f 131 170 171
f 131 171 169
f 131 169 132
f 133 168 172
f 133 172 134
f 134 172 173
f 134 173 142
f 135 137 136
f 138 141 174
f 139 175 141
f 139 141 140
f 139 142 173
f 139 173 176
f 139 176 177
f 139 177 175
f 141 175 177
f 141 177 178
f 141 178 179
f 141 179 180
f 141 180 181
f 141 181 174
f 143 151 152
f 145 182 183
f 145 183 184
f 145 184 146
f 146 184 185
f 146 185 186
f 146 186 187
f 146 187 188
f 146 188 189
f 146 189 190
f 146 190 191
f 146 191 155
f 146 154 153
f 146 153 150
f 146 150 192
f 146 192 148
f 146 148 147
f 148 192 150
f 148 150 149
f 150 153 151
f 151 153 152
f 155 191 160
f 155 160 157
f 155 157 156
f 157 160 158
f 158 160 159
f 160 190 193
f 160 193 161
f 160 191 190
f 161 193 194
f 161 194 195
f 161 195 163
f 161 163 162
f 163 195 165
f 164 165 196
f 165 195 197
f 165 197 198
f 165 198 199
f 165 199 196
f 166 200 201
f 166 201 168
f 166 167 202
f 166 202 200
f 167 169 171
f 167 171 203
f 167 203 202
f 168 201 204
f 168 204 172
f 170 205 171
f 171 205 206
f 171 206 207
f 171 207 208
f 171 208 209
f 171 209 203
f 172 204 176
f 172 176 173
f 174 210 211
f 174 181 212
f 174 212 213
f 174 213 214
f 174 214 210
f 176 204 215
f 176 215 177
f 177 215 216
f 177 216 178
f 178 216 217
f 178 217 179
f 179 217 218
f 179 218 219
f 179 219 220
f 179 220 180
f 180 212 181
f 180 220 221
f 180 221 212
f 182 222 223
f 182 223 224
f 182 224 225
f 182 225 226
f 182 226 183
f 183 226 184
f 184 226 225
f 184 225 185
f 185 227 186
f 185 225 227
f 186 227 187
f 187 227 228
f 187 228 229
f 187 229 230
f 187 230 231
f 187 231 189
f 187 189 188
f 189 231 232
f 189 232 190
f 190 232 193
f 193 232 233
f 193 233 194
f 194 233 234
f 194 234 235
f 194 235 236
f 194 236 197
f 194 197 195
f 197 236 237
f 197 237 238
f 197 238 198
f 200 239 201
f 200 202 240
f 200 240 239
f 201 239 241
f 201 241 204
f 202 203 242
f 202 242 240
f 203 209 243
f 203 243 242
f 204 241 215
f 208 244 209
f 209 244 245
f 209 245 246
f 209 246 247
f 209 247 243
f 210 214 211
f 211 214 249
f 211 249 250
f 211 250 251
f 211 251 252
f 211 252 253
f 211 253 254
f 211 254 255
f 211 255 248
f 212 221 213
f 213 221 214
f 214 221 256
f 214 256 257
f 214 257 258
f 214 258 259
f 214 259 252
f 214 252 249
f 215 241 260
f 215 260 261
f 215 261 216
f 216 262 217
f 216 261 263
f 216 263 264
f 216 264 262
f 217 262 264
f 217 264 265
f 217 265 266
f 217 266 218
f 218 266 219
f 219 267 268
f 219 268 256
f 219 256 221
f 219 221 220
f 219 266 269
f 219 269 270
f 219 270 267
f 222 271 272
f 222 272 273
f 222 273 274
f 222 274 275
f 222 275 223
f 223 276 224
f 223 275 276
f 224 276 277
f 224 277 225
f 225 277 278
f 225 278 227
f 227 278 228
f 228 279 280
f 228 280 281
f 228 281 229
f 228 278 279
f 229 281 230
f 230 281 282
f 230 282 231
f 231 283 232
f 231 282 284
f 231 284 283
f 232 285 286
f 232 286 233
f 232 283 285
f 233 286 234
f 234 286 235
f 235 286 287
f 235 287 288
f 235 288 289
f 235 289 236
f 236 289 290
f 236 290 237
f 239 291 260
f 239 260 241
f 239 240 292
f 239 292 291
f 240 242 293
f 240 293 292
f 242 243 294
f 242 294 293
f 243 247 294
f 247 295 294
f 248 255 296
f 249 252 250
f 250 252 251
f 252 259 297
f 252 297 298
f 252 298 299
f 252 299 254
f 252 254 253
f 254 299 255
f 255 299 300
f 255 300 301
f 255 301 302
f 255 302 303
f 255 303 304
f 255 304 305
f 255 305 306
f 255 306 307
f 255 307 296
f 256 268 308
f 256 308 257
f 257 309 297
f 257 297 258
f 257 308 310
f 257 310 311
f 257 311 312
f 257 312 309
f 258 297 259
f 260 291 313
f 260 313 261
f 261 313 263
f 263 313 314
f 263 314 264
f 264 314 315
f 264 315 316
f 264 316 265
f 265 269 266
f 265 316 269
f 267 270 308
f 267 308 268
f 269 316 317
f 269 317 318
f 269 318 270
f 270 318 319
f 270 319 308
f 271 320 272
f 272 321 322
f 272 322 323
f 272 323 273
f 272 320 321
f 273 323 274
f 274 323 324
f 274 324 325
f 274 325 276
f 274 276 275
f 276 325 326
f 276 326 327
f 276 327 279
f 276 279 278
f 276 278 277
f 279 327 328
f 279 328 329
f 279 329 330
f 279 330 280
f 280 330 331
f 280 331 281
f 281 331 332
f 281 332 282
f 282 332 333
f 282 333 334
f 282 334 284
f 283 284 285
f 284 333 335
f 284 335 336
f 284 336 337
f 284 337 286
f 284 286 285
f 284 334 333
f 286 337 287
f 287 338 339
f 287 339 288
f 287 337 338
f 288 339 340
f 288 340 289
f 289 340 341
f 289 341 342
f 289 342 343
f 289 343 290
f 291 292 344
f 291 344 313
f 292 293 345
f 292 345 344
f 293 294 345
f 294 295 346
f 294 346 347
f 294 347 348
f 294 348 349
f 294 349 345
f 297 309 300
f 297 300 298
f 298 300 299
f 300 309 312
f 300 312 350
f 300 350 351
f 300 351 352
f 300 352 353
f 300 353 301
f 301 354 302
f 301 353 355
f 301 355 354
f 302 354 356
f 302 356 357
f 302 357 303
f 303 357 304
f 304 357 305
f 305 357 358
f 305 358 359
f 305 359 306
f 308 311 310
f 308 319 311
f 311 360 312
f 311 319 361
f 311 361 360
f 312 360 350
f 313 344 362
f 313 362 314
f 314 362 363
f 314 363 315
f 315 363 364
f 315 364 365
f 315 365 316
f 316 365 317
f 317 365 366
f 317 366 367
f 317 367 368
f 317 368 369
f 317 369 318
f 318 369 370
f 318 370 361
f 318 361 319
f 320 371 372
f 320 372 373
f 320 373 374
f 320 374 322
f 320 322 321
f 322 374 324
f 322 324 323
f 324 374 375
f 324 375 376
f 324 376 325
f 325 376 326
f 326 376 375
f 326 375 328
f 326 328 327
f 328 375 329
f 329 375 330
f 330 375 377
f 330 377 378
f 330 378 331
f 331 378 379
f 331 379 332
f 332 379 380
f 332 380 333
f 333 380 335
f 335 380 381
f 335 381 382
f 335 382 383
f 335 383 336
f 336 383 337
f 337 383 338
f 338 383 339
f 339 383 382
f 339 382 384
f 339 384 385
f 339 385 340
f 340 385 386
f 344 345 387
f 344 387 362
f 345 349 388
f 345 388 387
f 346 389 347
f 347 389 348
f 348 389 390
f 348 390 391
f 348 391 349
f 349 391 392
f 349 392 388
f 350 393 351
f 350 360 361
f 350 361 370
f 350 370 394
f 350 394 395
f 350 395 396
f 350 396 393
f 351 393 397
f 351 397 398
f 351 398 353
f 351 353 352
f 353 399 355
f 353 398 400
f 353 400 399
f 354 355 356
f 355 399 356
f 356 401 402
f 356 402 403
f 356 403 404
f 356 404 357
f 356 399 400
f 356 400 405
f 356 405 406
f 356 406 407
f 356 407 401
f 357 404 358
f 358 404 359
f 359 404 408
f 362 387 409
f 362 409 363
f 363 409 410
f 363 410 364
f 364 366 365
f 364 410 411
f 364 411 366
f 366 411 412
f 366 412 367
f 367 412 413
f 367 413 414
f 367 414 368
f 368 414 415
f 368 415 369
f 369 415 394
f 369 394 370
f 371 416 417
f 371 417 372
f 372 418 373
f 372 417 418
f 373 418 419
f 373 419 420
f 373 420 374
f 374 420 421
f 374 421 422
f 374 422 375
f 375 423 377
f 375 422 423
f 377 424 425
f 377 425 426
f 377 426 378
f 377 423 424
f 378 426 425
f 378 425 427
f 378 427 379
f 379 427 428
f 379 428 380
f 380 428 429
f 380 429 430
f 380 430 381
f 381 430 431
f 381 431 432
f 381 432 382
f 382 432 384
f 384 432 433
f 384 433 434
f 384 434 435
f 384 435 436
f 384 436 437
f 384 437 438
f 384 438 439
f 384 439 440
f 384 440 386
f 384 386 385
f 387 388 441
f 387 441 409
f 388 392 442
f 388 442 443
f 388 443 441
f 391 444 392
f 392 444 442
f 393 396 397
f 394 415 445
f 394 445 446
f 394 446 395
f 395 446 447
f 395 447 396
f 396 447 448
f 396 448 397
f 397 448 449
f 397 449 400
f 397 400 398
f 400 449 405
f 401 450 402
f 401 407 450
f 402 450 403
f 403 450 451
f 403 451 404
f 404 451 452
f 404 452 453
f 404 453 408
f 405 454 455
f 405 455 407
f 405 407 406
f 405 449 456
f 405 456 457
f 405 457 458
f 405 458 459
f 405 459 460
f 405 460 454
f 407 461 450
f 407 455 462
f 407 462 461
f 408 453 464
f 408 464 465
f 408 465 466
f 408 466 463
f 409 441 467
f 409 467 468
f 409 468 410
f 410 468 469
f 410 469 411
f 411 469 412
f 412 469 470
f 412 470 471
f 412 471 413
f 413 472 414
f 413 471 472
f 414 472 473
f 414 473 415
f 415 473 474
f 415 474 445
f 416 475 476
f 416 476 477
f 416 477 478
f 416 478 479
f 416 479 480
f 416 480 481
f 416 481 417
f 417 481 482
f 417 482 483
f 417 483 484
f 417 484 485
f 417 485 486
f 417 486 418
f 418 486 419
f 419 486 487
f 419 487 420
f 420 487 488
f 420 488 489
f 420 489 490
f 420 490 422
f 420 422 421
f 422 490 491
f 422 491 423
f 423 491 492
f 423 492 424
f 424 492 425
f 425 493 427
f 425 492 493
f 427 493 428
f 428 494 495
f 428 495 429
f 428 493 494
f 429 495 430
f 430 496 431
f 430 495 497
f 430 497 498
f 430 498 499
f 430 499 500
f 430 500 501
f 430 501 496
f 431 496 502
f 431 502 503
f 431 503 432
f 432 503 504
f 432 504 433
f 433 504 434
f 441 443 505
f 441 505 506
f 441 506 507
f 441 507 467
f 445 508 509
f 445 509 446
f 445 474 510
f 445 510 511
f 445 511 508
f 446 512 447
f 446 509 512
f 447 512 448
f 448 456 449
f 448 512 456
f 450 461 513
f 450 513 514
f 450 514 515
f 450 515 451
f 451 515 464
f 451 464 452
f 452 464 453
f 454 460 455
f 455 460 462
f 456 512 509
f 456 509 457
f 457 509 516
f 457 516 458
f 458 516 517
f 458 517 459
f 459 517 518
f 459 518 519
f 459 519 460
f 460 520 521
f 460 521 522
f 460 522 462
f 460 519 520
f 461 462 513
f 462 522 523
f 462 523 524
f 462 524 525
f 462 525 526
f 462 526 527
f 462 527 513
f 463 466 529
f 463 529 528
f 464 515 530
f 464 530 531
f 464 531 465
f 465 531 466
f 466 531 532
f 466 532 533
f 466 533 534
f 466 534 529
f 467 507 535
f 467 535 536
f 467 536 468
f 468 536 537
f 468 537 469
f 469 537 538
f 469 538 539
f 469 539 470
f 471 540 472
f 472 540 541
f 472 541 542
f 472 542 473
f 473 542 543
f 473 543 474
f 474 543 510
f 475 544 545
f 475 545 546
f 475 546 476
f 476 546 547
f 476 547 477
f 477 547 478
f 478 547 548
f 478 548 549
f 478 549 550
f 478 550 551
f 478 551 552
f 478 552 480
f 478 480 479
f 480 552 481
f 481 552 553
f 481 553 482
f 482 553 483
f 483 553 554
f 483 554 484
f 484 554 555
f 484 555 486
f 484 486 485
f 486 556 557
f 486 557 489
f 486 489 488
f 486 488 487
f 486 555 558
f 486 558 556
f 489 557 559
f 489 559 560
f 489 560 491
f 489 491 490
f 491 560 492
f 492 561 562
f 492 562 493
f 492 560 561
f 493 562 494
f 494 497 495
f 494 562 497
f 496 501 502
f 497 563 498
f 497 562 564
f 497 564 563
f 498 565 499
f 498 563 565
f 499 566 605
f 499 605 635
f 499 635 642
f 499 642 641
f 499 641 640
f 499 640 639
f 499 639 638
f 499 638 657
f 499 657 664
f 499 664 667
f 499 667 666
f 499 666 665
f 499 665 659
f 499 659 646
f 499 646 645
f 499 645 644
f 499 644 612
f 499 612 575
f 499 575 519
f 499 565 567
f 499 567 568
f 499 568 569
f 499 569 570
f 499 570 571
f 499 571 572
f 499 572 566
f 508 516 509
f 508 511 573
f 508 573 519
f 508 519 516
f 513 574 514
f 513 527 574
f 514 530 515
f 514 574 530
f 516 518 517
f 516 519 518
f 519 575 576
f 519 576 520
f 520 576 521
f 521 576 522
f 522 576 523
f 523 576 577
f 523 577 524
f 524 578 525
f 524 577 579
f 524 579 578
f 525 578 526
f 526 580 581
f 526 581 530
f 526 530 574
f 526 574 527
f 526 578 580
f 528 529 582
f 529 583 582
f 529 534 533
f 529 533 584
f 529 584 589
f 529 589 583
f 530 581 585
f 530 585 584
f 530 584 586
f 530 586 587
f 530 587 531
f 531 587 586
f 531 586 532
f 532 586 588
f 532 588 584
f 532 584 533
f 544 582 583
f 544 583 545
f 545 583 589
f 545 589 546
f 546 589 590
f 546 590 547
f 547 590 591
f 547 591 548
f 548 591 549
f 549 591 592
f 549 592 550
f 550 593 551
f 550 592 594
f 550 594 595
f 550 595 596
f 550 596 593
f 551 593 553
f 551 553 552
f 553 593 596
f 553 596 597
f 553 597 554
f 554 597 598
f 554 598 599
f 554 599 558
f 554 558 555
f 556 558 557
f 557 558 559
f 558 599 600
f 558 600 601
f 558 601 602
f 558 602 559
f 559 603 561
f 559 561 560
f 559 602 603
f 561 603 562
f 562 603 564
f 563 564 604
f 563 604 568
f 563 568 565
f 564 603 604
f 565 568 567
f 566 572 606
f 566 606 605
f 568 604 607
f 568 607 569
f 569 607 570
f 570 607 608
f 570 608 571
f 571 608 609
f 571 609 572
f 572 609 610
f 572 610 611
f 572 611 606
f 575 612 613
f 575 613 576
f 576 613 577
f 577 613 614
f 577 614 615
f 577 615 579
f 578 579 616
f 578 616 617
f 578 617 618
f 578 618 619
f 578 619 620
f 578 620 580
f 579 615 621
f 579 621 617
f 579 617 616
f 580 620 584
f 580 584 622
f 580 622 581
f 581 622 585
f 584 588 586
f 584 585 622
f 584 620 619
f 584 619 618
f 584 618 623
f 584 623 589
f 589 623 624
f 589 624 591
f 589 591 590
f 591 624 592
f 592 624 594
f 594 625 626
f 594 626 627
f 594 627 628
f 594 628 595
f 594 624 625
f 595 628 597
f 595 597 596
f 597 628 629
f 597 629 611
f 597 611 630
f 597 630 609
f 597 609 631
f 597 631 632
f 597 632 598
f 598 632 631
f 598 631 633
f 598 633 599
f 599 633 600
f 600 633 601
f 601 609 608
f 601 608 607
f 601 607 604
f 601 604 603
f 601 603 634
f 601 634 602
f 601 633 609
f 602 634 603
f 605 606 635
f 606 611 636
f 606 636 637
f 606 637 638
f 606 638 639
f 606 639 640
f 606 640 641
f 606 641 642
f 606 642 635
f 609 633 631
f 609 630 610
f 610 630 611
f 611 629 643
f 611 643 636
f 612 644 613
f 613 644 645
f 613 645 646
f 613 646 614
f 614 646 647
f 614 647 648
f 614 648 649
f 614 649 615
f 615 649 621
f 617 621 618
f 618 621 649
f 618 649 648
f 618 648 650
f 618 650 623
f 623 650 651
f 623 651 652
f 623 652 626
f 623 626 625
f 623 625 624
f 626 652 653
f 626 653 627
f 627 653 654
f 627 654 628
f 628 654 643
f 628 643 629
f 636 655 637
f 636 643 656
f 636 656 655
f 637 655 638
f 638 655 657
f 643 654 658
f 643 658 656
f 646 659 660
f 646 660 661
f 646 661 647
f 647 661 648
f 648 661 660
f 648 660 650
f 650 662 663
f 650 663 656
f 650 656 658
f 650 658 651
f 650 660 662
f 651 658 653
f 651 653 652
f 653 658 654
f 655 656 663
f 655 663 664
f 655 664 657
f 659 665 660
f 660 665 662
f 662 665 666
f 662 666 667
f 662 667 664
f 662 664 668
f 662 668 663
f 663 668 664

