# https://github.com/mikedh/trimesh
v -0.00058892 -0.01460224 0.03949731
v 0.00094372 -0.01460224 0.03982218
v -0.00207460 -0.01460224 0.03952763
v -0.00058892 -0.01033003 0.03649114
v 0.00089922 -0.01025882 0.03649114
v 0.00238737 -0.00991552 0.03649114
v 0.00173229 -0.01460224 0.04010374
v 0.00271120 -0.00977820 0.03649114
v -0.00342925 -0.01460224 0.03994347
v -0.00207460 -0.00992315 0.03649114
v 0.00176442 -0.01460224 0.04011674
v 0.00381619 -0.00909413 0.03649114
v 0.00230332 -0.01460224 0.04033765
v -0.00344409 -0.00902802 0.03649114
v -0.00438592 -0.01460224 0.04037664
v 0.00383596 -0.00908142 0.03649114
v 0.00313886 -0.01460224 0.04092676
v -0.00357757 -0.00891612 0.03649114
v -0.00502864 -0.01460224 0.04069718
v 0.00461464 -0.00843296 0.03649114
v 0.00356157 -0.01460224 0.04124296
v -0.00505583 -0.00764972 0.03649114
v -0.00610643 -0.01460224 0.04139458
v -0.00507314 -0.00763446 0.03649114
v 0.00516590 -0.00780484 0.03649114
v 0.00407822 -0.01460224 0.04179309
v -0.00685051 -0.01460224 0.04204865
v -0.00618801 -0.00630956 0.03649114
v 0.00599155 -0.00679782 0.03649114
v 0.00462947 -0.01460224 0.04246016
v -0.00763908 -0.01460224 0.04279370
v -0.00745862 -0.00428026 0.03649114
v 0.00600391 -0.00678002 0.03649114
v 0.00484948 -0.01460224 0.04272873
v -0.00838315 -0.01460224 0.04363837
v -0.00749323 -0.00421669 0.03649114
v 0.00647112 -0.00603746 0.03649114
v 0.00522275 -0.01460224 0.04342612
v 0.00719294 -0.00482192 0.03649114
v -0.00896160 -0.01460224 0.04438342
v -0.00800988 -0.00319695 0.03649114
v 0.00548479 -0.01460224 0.04392426
v 0.00765026 -0.00403359 0.03649114
v -0.00967106 -0.01460224 0.04544034
v -0.00856360 -0.00192037 0.03649114
v -0.00802224 -0.00316898 0.03649114
v 0.00585806 -0.01460224 0.04470829
v 0.00806309 -0.00322238 0.03649114
v 0.00614481 -0.01460224 0.04533638
v -0.00884788 -0.00117782 0.03649114
v -0.00884047 -0.00119816 0.03649114
v -0.01017535 -0.01460224 0.04628501
v 0.00807545 -0.00319695 0.03649114
v 0.00627830 -0.01460224 0.04564826
v -0.00915194 -0.00022165 0.03649114
v -0.01053626 -0.01460224 0.04696508
v 0.00876513 -0.00176016 0.03649114
v 0.00649831 -0.01460224 0.04636731
v 0.00910627 -0.00101761 0.03649114
v 0.00943999 -0.00024708 0.03649114
v -0.00949060 0.00126599 0.03649114
v -0.01124325 -0.01460224 0.04842052
v 0.00664416 -0.01460224 0.04686979
v 0.00944988 -0.00022165 0.03649114
v -0.00969825 0.00275364 0.03649114
v -0.01165608 -0.01460224 0.04933883
v -0.01168327 -0.01460224 0.04941247
v -0.01190328 -0.01460224 0.05001890
v 0.00686416 -0.01460224 0.04785740
v 0.01001597 0.00126599 0.03649114
v -0.00970073 0.00279433 0.03649114
v -0.01228644 -0.01460224 0.05133139
v -0.01241004 -0.01460224 0.05182953
v -0.01265477 -0.01460224 0.05282148
v 0.00696799 -0.01460224 0.04835555
v 0.01041643 0.00255020 0.03649114
v 0.00723496 -0.01460224 0.04984564
v 0.00714597 -0.01460224 0.04934749
v -0.00978725 0.00424129 0.03649114
v -0.01274623 -0.01460224 0.05331962
v 0.01063150 0.00329530 0.03649114
v 0.00742036 -0.01460224 0.05130974
v -0.00978725 0.00428197 0.03649114
v -0.01293658 -0.01460224 0.05438088
v 0.01087870 0.00424129 0.03649114
v 0.00760082 -0.01460224 0.05325465
v -0.00973781 0.00572893 0.03649114
v -0.01308737 -0.01460224 0.05579733
v -0.00973533 0.00577216 0.03649114
v 0.01123467 0.00572893 0.03649114
v 0.00762801 -0.01460224 0.05368348
v -0.01319119 -0.01460224 0.05721378
v -0.00963398 0.00721658 0.03649114
v 0.01154367 0.00717589 0.03649114
v 0.00766262 -0.01460224 0.05431157
v -0.01319614 -0.01460224 0.05728742
v -0.00937937 0.00870677 0.03649114
v -0.01319861 -0.01460224 0.05733940
v -0.01325052 -0.01460224 0.05856093
v -0.01327030 -0.01460224 0.05919768
v -0.01323816 -0.01434031 0.05942293
v -0.01324805 -0.01427420 0.06025894
v -0.01055110 0.00572893 0.07067657
v -0.01035086 0.00705129 0.07067657
v -0.01023221 0.00779638 0.07067657
v 0.01155108 0.00721658 0.03649114
v 0.01072296 -0.00011739 0.07067657
v 0.00778622 -0.01460224 0.05827504
v 0.00776892 -0.01460224 0.05728742
v 0.00775656 -0.01460224 0.05678928
v 0.00772689 -0.01460224 0.05587097
v 0.00770465 -0.01460224 0.05532951
v -0.00936948 0.00874237 0.03649114
v -0.01003939 0.00870677 0.07067657
v -0.00971556 0.01019442 0.07067657
v -0.00941645 0.01137182 0.07067657
v -0.01328019 -0.01460224 0.05962651
v -0.01328513 -0.01460224 0.06025894
v -0.01328760 -0.01460224 0.06081339
v -0.01324805 -0.01426148 0.06119024
v -0.01057334 0.00572893 0.07216233
v -0.01036322 0.00710723 0.07216233
v -0.01023962 0.00785233 0.07216233
v -0.01005917 0.00870677 0.07216233
v 0.01180075 0.00866354 0.03649114
v 0.01097511 0.00126599 0.07067657
v 0.01069082 0.00001993 0.07216233
v 0.01054745 -0.00085994 0.07067657
v 0.00773431 -0.01460224 0.06030225
v 0.00775656 -0.01460224 0.05973914
v 0.00778622 -0.01460224 0.05876885
v -0.00894182 0.01027834 0.03649114
v -0.00973039 0.01019442 0.07216233
v -0.00854630 0.01137182 0.03649114
v -0.00874900 0.01086322 0.03685067
v -0.00889980 0.01042074 0.03649114
v -0.00941892 0.01137182 0.07216233
v -0.01326288 -0.01460224 0.06128554
v -0.01113943 -0.00170930 0.08074334
v -0.01069694 0.00424129 0.07513818
v -0.01073897 0.00424129 0.07365242
v -0.01055851 0.00572893 0.07365242
v -0.01035828 0.00701314 0.07365242
v -0.01021985 0.00775824 0.07365242
v 0.01180817 0.00870677 0.03649114
v 0.01117534 0.00275364 0.07067657
v 0.01112095 0.00275364 0.07216233
v 0.01091331 0.00126599 0.07216233
v 0.01051284 -0.00072262 0.07216233
v 0.01063150 0.00027423 0.07330155
v 0.00766757 -0.01460224 0.06117725
v -0.01000478 0.00870677 0.07365242
v -0.00965376 0.01019442 0.07365242
v 0.01194907 0.01137182 0.03649114
v -0.00860068 0.01122687 0.03649114
v -0.00931509 0.01137182 0.07365242
v -0.01314917 -0.01460224 0.06252439
v -0.01122842 -0.00319695 0.08074334
v -0.01095898 -0.00022165 0.08074334
v -0.01062278 0.00424129 0.07662826
v -0.01051649 0.00572893 0.07513818
v -0.01033603 0.00685802 0.07513818
v -0.01018277 0.00760057 0.07513818
v 0.01195896 0.01010541 0.03649114
v 0.01133849 0.00424129 0.07067657
v 0.01128658 0.00424129 0.07216233
v 0.01113331 0.00424129 0.07365242
v 0.01096027 0.00275364 0.07365242
v 0.01072049 0.00117445 0.07373905
v 0.01023598 -0.00170930 0.07216233
v 0.00764532 -0.01460224 0.06141116
v 0.01006046 -0.00170930 0.07365242
v 0.01055734 0.00061753 0.07429350
v 0.01044362 -0.00022165 0.07373905
v -0.00991826 0.00870677 0.07513818
v -0.00950791 0.01019442 0.07513818
v 0.01196638 0.01020713 0.03649114
v 0.01149670 0.01137182 0.06918648
v 0.01152636 0.01019442 0.07067657
v -0.00911486 0.01137182 0.07510352
v -0.01303299 -0.01460224 0.06323478
v -0.01110977 -0.00503553 0.08074334
v -0.01114190 -0.00468460 0.08074334
v -0.01121359 -0.00354788 0.08074334
v -0.01076863 0.00126599 0.08074334
v -0.01039783 0.00586625 0.07675388
v -0.01029895 0.00666475 0.07634238
v -0.01014569 0.00718352 0.07675388
v 0.01144479 0.00572893 0.07067657
v 0.01140029 0.00572893 0.07216233
v 0.01125938 0.00572893 0.07365242
v 0.01092319 0.00424129 0.07513818
v 0.01072049 0.00269007 0.07521181
v 0.01063397 0.00160930 0.07476565
v 0.00755138 -0.01460224 0.06207823
v 0.00958831 -0.00319695 0.07365242
v 0.00850557 -0.00319695 0.08074334
v 0.00804331 -0.00468460 0.08074334
v 0.01054992 0.00215095 0.07575760
v 0.00947460 0.00126599 0.08074334
v 0.00929414 0.00021828 0.08074334
v 0.00921751 -0.00016317 0.08074334
v 0.00906672 -0.00087774 0.08074334
v 0.00888626 -0.00169150 0.08074334
v -0.00975758 0.00870677 0.07662826
v -0.00964387 0.00721658 0.08074334
v 0.01154614 0.00870677 0.07067657
v 0.01151894 0.00721658 0.07067657
v 0.01149175 0.01137182 0.06949403
v 0.01145962 0.01137182 0.07067657
v 0.01142501 0.01019442 0.07216233
v 0.01149175 0.00870677 0.07216233
v -0.00891710 0.01137182 0.07609980
v -0.00906789 0.00875509 0.08074334
v -0.01295141 -0.01460224 0.06373292
v -0.01097875 -0.00617224 0.08074334
v -0.01056345 0.00275364 0.08074334
v -0.01025693 0.00645623 0.07733432
v -0.01036075 0.00418534 0.08074334
v -0.01024704 0.00491009 0.08074334
v -0.01006411 0.00572130 0.08074334
v 0.01147692 0.00721658 0.07216233
v 0.01133354 0.00721658 0.07365242
v 0.01103938 0.00572893 0.07513818
v 0.01069082 0.00424129 0.07632505
v 0.01062655 0.00314272 0.07609114
v 0.00741295 -0.01460224 0.06281028
v 0.00768981 -0.00564330 0.08074334
v 0.00952404 0.00161692 0.08074334
v 0.01143737 0.01137182 0.07098412
v 0.01131130 0.01137182 0.07216233
v 0.01126680 0.01137182 0.07246987
v 0.01120747 0.01019442 0.07365242
v 0.01131871 0.00870677 0.07365242
v -0.00884294 0.01137182 0.07644200
v -0.00890474 0.00912636 0.08074334
v -0.01271163 -0.01460224 0.06472054
v -0.01089470 -0.00652317 0.08074334
v 0.01107893 0.00721658 0.07513818
v 0.01074274 0.00572893 0.07649831
v 0.00967483 0.00310457 0.08074334
v 0.00964764 0.00275364 0.08074334
v 0.00733632 -0.01460224 0.06320013
v 0.00761318 -0.00581877 0.08074334
v 0.01105174 0.01137182 0.07365242
v 0.01080948 0.01029868 0.07526379
v 0.01102207 0.00870677 0.07513818
v -0.00867979 0.01137182 0.07708309
v -0.00857844 0.00978500 0.08074334
v -0.00839798 0.01013847 0.08074334
v -0.01257566 -0.01460224 0.06521868
v -0.01053379 -0.00777941 0.08074334
v 0.01074768 0.00721658 0.07648965
v 0.00972674 0.00459222 0.08074334
v 0.00972180 0.00424129 0.08074334
v 0.00696552 -0.01460224 0.06472054
v 0.00734868 -0.00638840 0.08074334
v 0.01096522 0.01137182 0.07401194
v 0.01055981 0.01086322 0.07584423
v 0.01064138 0.00987146 0.07608248
v 0.01073038 0.01137182 0.07493459
v 0.01070813 0.00870677 0.07631205
v -0.00767616 0.01137182 0.08074334
v -0.01203430 -0.01460224 0.06676508
v -0.00988613 -0.00929503 0.08074334
v -0.01000231 -0.00904327 0.08074334
v -0.01047693 -0.00792945 0.08074334
v 0.00968472 0.00572893 0.08074334
v 0.00650078 -0.01460224 0.06624528
v 0.00662191 -0.00776161 0.08074334
v 0.00621403 -0.00846601 0.08074334
v 0.00618189 -0.00851942 0.08074334
v 0.00615470 -0.00856011 0.08074334
v 0.01065127 0.01137182 0.07522048
v 0.01050295 0.01137182 0.07568396
v 0.00941033 0.00772518 0.08074334
v 0.00948202 0.00729287 0.08074334
v 0.00965753 0.00607987 0.08074334
v 0.00810264 0.01137182 0.08074334
v -0.01186126 -0.01460224 0.06722857
v -0.00907284 -0.01085134 0.08074334
v -0.00914700 -0.01071910 0.08074334
v 0.00619178 -0.01460224 0.06719392
v 0.00574435 -0.00916788 0.08074334
v 0.00492611 -0.01030459 0.08074334
v 0.00999619 0.01137182 0.07693581
v 0.00918537 0.00866863 0.08074334
v 0.00861434 0.01029614 0.08074334
v 0.00863659 0.01137182 0.07977305
v -0.01181429 -0.01460224 0.06734553
v -0.00874159 -0.01134722 0.08074334
v 0.00479510 -0.01048006 0.08074334
v 0.00435508 -0.01104969 0.08074334
v 0.00378652 -0.01173884 0.08074334
v 0.00358876 -0.01197788 0.08074334
v 0.00339842 -0.01220421 0.08074334
v 0.00296087 -0.01269500 0.08074334
v 0.00221680 -0.01337907 0.08074334
v 0.00172734 -0.01442932 0.07906265
v 0.00190285 -0.01460224 0.07812269
v 0.00935594 0.01137182 0.07836093
v 0.00903458 0.00920265 0.08074334
v 0.00867861 0.01014864 0.08074334
v 0.00926201 0.01137182 0.07856018
v -0.00746851 -0.01460224 0.07704843
v -0.00736468 -0.01446492 0.07756390
v -0.00793077 -0.01228049 0.08074334
v 0.00193005 -0.01363336 0.08074334
v 0.00146778 -0.01425385 0.08005460
v 0.00156172 -0.01460224 0.07887639
v -0.00606194 -0.01460224 0.07999396
v -0.00591856 -0.01446746 0.08064371
v -0.00605205 -0.01429200 0.08074334
v -0.00640060 -0.01394361 0.08074334
v -0.00648465 -0.01385715 0.08074334
v -0.00665275 -0.01368168 0.08074334
v 0.00115631 -0.01416739 0.08074334
v 0.00106979 -0.01460224 0.07969075
v 0.00049629 -0.01453612 0.08074334
v -0.00546124 -0.01460224 0.08074334
v -0.00574552 -0.01450307 0.08074334
v -0.00588395 -0.01444966 0.08074334
v 0.00066438 -0.01460224 0.08030151
v 0.00042460 -0.01457173 0.08074334
v 0.00038999 -0.01460224 0.08070435
v 0.00036280 -0.01460224 0.08074334
f 1 2 7
f 1 7 11
f 1 11 13
f 1 13 17
f 1 17 21
f 1 21 26
f 1 26 30
f 1 30 34
f 1 34 38
f 1 38 42
f 1 42 47
f 1 47 49
f 1 49 54
f 1 54 58
f 1 58 63
f 1 63 69
f 1 69 75
f 1 75 78
f 1 78 77
f 1 77 82
f 1 82 86
f 1 86 91
f 1 91 95
f 1 95 112
f 1 112 111
f 1 111 110
f 1 110 109
f 1 109 108
f 1 108 131
f 1 131 130
f 1 130 129
f 1 129 151
f 1 151 171
f 1 171 195
f 1 195 227
f 1 227 243
f 1 243 256
f 1 256 269
f 1 269 283
f 1 283 300
f 1 300 310
f 1 310 318
f 1 318 323
f 1 323 325
f 1 325 326
f 1 326 320
f 1 320 311
f 1 311 305
f 1 305 290
f 1 290 280
f 1 280 264
f 1 264 251
f 1 251 237
f 1 237 215
f 1 215 181
f 1 181 157
f 1 157 138
f 1 138 119
f 1 119 118
f 1 118 117
f 1 117 100
f 1 100 99
f 1 99 98
f 1 98 96
f 1 96 92
f 1 92 88
f 1 88 84
f 1 84 80
f 1 80 74
f 1 74 73
f 1 73 72
f 1 72 68
f 1 68 67
f 1 67 66
f 1 66 62
f 1 62 56
f 1 56 52
f 1 52 44
f 1 44 40
f 1 40 35
f 1 35 31
f 1 31 27
f 1 27 23
f 1 23 19
f 1 19 15
f 1 15 9
f 1 9 3
f 1 3 4
f 1 4 5
f 1 5 6
f 1 6 2
f 2 6 8
f 2 8 7
f 3 9 10
f 3 10 4
f 4 10 14
f 4 14 18
f 4 18 22
f 4 22 24
f 4 24 28
f 4 28 32
f 4 32 36
f 4 36 41
f 4 41 46
f 4 46 45
f 4 45 51
f 4 51 50
f 4 50 55
f 4 55 61
f 4 61 65
f 4 65 71
f 4 71 79
f 4 79 83
f 4 83 87
f 4 87 89
f 4 89 93
f 4 93 97
f 4 97 113
f 4 113 132
f 4 132 136
f 4 136 155
f 4 155 134
f 4 134 154
f 4 154 177
f 4 177 164
f 4 164 145
f 4 145 125
f 4 125 106
f 4 106 94
f 4 94 90
f 4 90 85
f 4 85 81
f 4 81 76
f 4 76 70
f 4 70 64
f 4 64 60
f 4 60 59
f 4 59 57
f 4 57 53
f 4 53 48
f 4 48 43
f 4 43 39
f 4 39 37
f 4 37 33
f 4 33 29
f 4 29 25
f 4 25 20
f 4 20 16
f 4 16 12
f 4 12 8
f 4 8 6
f 4 6 5
f 7 8 11
f 8 12 13
f 8 13 11
f 9 14 10
f 9 15 14
f 12 16 13
f 13 16 17
f 14 15 19
f 14 19 18
f 16 20 17
f 17 20 21
f 18 19 22
f 19 23 24
f 19 24 22
f 20 25 26
f 20 26 21
f 23 27 28
f 23 28 24
f 25 29 26
f 26 29 30
f 27 31 28
f 28 31 32
f 29 33 34
f 29 34 30
f 31 35 36
f 31 36 32
f 33 37 34
f 34 37 39
f 34 39 38
f 35 40 41
f 35 41 36
f 38 39 43
f 38 43 42
f 40 44 45
f 40 45 46
f 40 46 41
f 42 43 47
f 43 48 49
f 43 49 47
f 44 50 51
f 44 51 45
f 44 52 50
f 48 53 54
f 48 54 49
f 50 52 55
f 52 56 55
f 53 57 54
f 54 57 59
f 54 59 60
f 54 60 58
f 55 56 62
f 55 62 61
f 58 60 63
f 60 64 63
f 61 62 66
f 61 66 67
f 61 67 68
f 61 68 65
f 63 64 70
f 63 70 69
f 65 68 72
f 65 72 73
f 65 73 74
f 65 74 71
f 69 70 75
f 70 76 77
f 70 77 78
f 70 78 75
f 71 74 79
f 74 80 79
f 76 81 77
f 77 81 82
f 79 80 84
f 79 84 83
f 81 85 82
f 82 85 86
f 83 84 87
f 84 88 89
f 84 89 87
f 85 90 86
f 86 90 91
f 88 92 93
f 88 93 89
f 90 94 95
f 90 95 91
f 92 96 93
f 93 96 98
f 93 98 99
f 93 99 100
f 93 100 101
f 93 101 102
f 93 102 103
f 93 103 104
f 93 104 105
f 93 105 97
f 94 106 126
f 94 126 107
f 94 107 108
f 94 108 109
f 94 109 110
f 94 110 111
f 94 111 112
f 94 112 95
f 97 105 114
f 97 114 115
f 97 115 116
f 97 116 113
f 100 117 102
f 100 102 101
f 102 117 118
f 102 118 119
f 102 119 120
f 102 120 121
f 102 121 103
f 103 121 104
f 104 121 122
f 104 122 105
f 105 122 123
f 105 123 124
f 105 124 114
f 106 125 126
f 107 126 127
f 107 127 128
f 107 128 129
f 107 129 130
f 107 130 131
f 107 131 108
f 113 116 132
f 114 124 115
f 115 124 133
f 115 133 116
f 116 134 135
f 116 135 136
f 116 136 132
f 116 133 137
f 116 137 156
f 116 156 180
f 116 180 213
f 116 213 235
f 116 235 248
f 116 248 263
f 116 263 279
f 116 279 289
f 116 289 304
f 116 304 301
f 116 301 286
f 116 286 275
f 116 275 274
f 116 274 261
f 116 261 258
f 116 258 245
f 116 245 232
f 116 232 231
f 116 231 230
f 116 230 210
f 116 210 209
f 116 209 178
f 116 178 154
f 116 154 134
f 119 138 120
f 120 138 139
f 120 139 140
f 120 140 141
f 120 141 142
f 120 142 121
f 121 142 122
f 122 142 143
f 122 143 123
f 123 143 144
f 123 144 124
f 124 144 133
f 125 145 126
f 126 146 147
f 126 147 148
f 126 148 127
f 126 145 146
f 127 149 129
f 127 129 128
f 127 148 150
f 127 150 149
f 129 149 151
f 133 144 152
f 133 152 153
f 133 153 137
f 134 155 135
f 135 155 136
f 137 153 156
f 138 157 158
f 138 158 139
f 139 158 184
f 139 184 183
f 139 183 182
f 139 182 216
f 139 216 238
f 139 238 252
f 139 252 267
f 139 267 266
f 139 266 265
f 139 265 282
f 139 282 281
f 139 281 291
f 139 291 307
f 139 307 316
f 139 316 315
f 139 315 314
f 139 314 313
f 139 313 322
f 139 322 321
f 139 321 320
f 139 320 326
f 139 326 324
f 139 324 319
f 139 319 317
f 139 317 308
f 139 308 298
f 139 298 297
f 139 297 296
f 139 296 295
f 139 295 294
f 139 294 293
f 139 293 292
f 139 292 285
f 139 285 284
f 139 284 273
f 139 273 272
f 139 272 271
f 139 271 270
f 139 270 257
f 139 257 244
f 139 244 228
f 139 228 198
f 139 198 197
f 139 197 204
f 139 204 203
f 139 203 202
f 139 202 201
f 139 201 200
f 139 200 229
f 139 229 242
f 139 242 241
f 139 241 255
f 139 255 254
f 139 254 268
f 139 268 278
f 139 278 277
f 139 277 276
f 139 276 287
f 139 287 302
f 139 302 303
f 139 303 288
f 139 288 279
f 139 279 263
f 139 263 250
f 139 250 249
f 139 249 236
f 139 236 214
f 139 214 206
f 139 206 221
f 139 221 220
f 139 220 219
f 139 219 217
f 139 217 185
f 139 185 159
f 139 159 160
f 139 160 140
f 140 160 161
f 140 161 142
f 140 142 141
f 142 161 143
f 143 161 162
f 143 162 144
f 144 162 163
f 144 163 152
f 145 164 165
f 145 165 146
f 146 165 166
f 146 166 147
f 147 166 167
f 147 167 168
f 147 168 148
f 148 168 169
f 148 169 150
f 149 170 171
f 149 171 151
f 149 150 172
f 149 172 170
f 150 169 173
f 150 173 174
f 150 174 172
f 152 163 153
f 153 163 175
f 153 175 176
f 153 176 156
f 154 178 179
f 154 179 177
f 156 176 180
f 157 181 182
f 157 182 183
f 157 183 184
f 157 184 158
f 159 185 160
f 160 185 161
f 161 185 186
f 161 186 187
f 161 187 162
f 162 187 163
f 163 187 188
f 163 188 175
f 164 177 165
f 165 189 190
f 165 190 166
f 165 177 189
f 166 190 191
f 166 191 167
f 167 191 192
f 167 192 168
f 168 192 193
f 168 193 194
f 168 194 169
f 169 194 173
f 170 172 171
f 171 172 196
f 171 196 195
f 172 174 197
f 172 197 198
f 172 198 196
f 173 194 199
f 173 199 200
f 173 200 201
f 173 201 202
f 173 202 203
f 173 203 204
f 173 204 174
f 174 204 197
f 175 188 205
f 175 205 176
f 176 205 206
f 176 206 180
f 177 179 207
f 177 207 208
f 177 208 189
f 178 209 179
f 179 209 210
f 179 210 211
f 179 211 212
f 179 212 207
f 180 206 214
f 180 214 213
f 181 215 182
f 182 215 216
f 185 217 186
f 186 218 187
f 186 217 219
f 186 219 220
f 186 220 218
f 187 218 188
f 188 218 221
f 188 221 205
f 189 208 222
f 189 222 190
f 190 222 191
f 191 222 223
f 191 223 224
f 191 224 192
f 192 224 225
f 192 225 226
f 192 226 193
f 193 226 199
f 193 199 194
f 195 196 198
f 195 198 228
f 195 228 227
f 199 226 200
f 200 226 229
f 205 221 206
f 207 212 222
f 207 222 208
f 210 230 211
f 211 230 231
f 211 231 232
f 211 232 233
f 211 233 234
f 211 234 212
f 212 234 223
f 212 223 222
f 213 214 236
f 213 236 235
f 215 237 238
f 215 238 216
f 218 220 221
f 223 234 239
f 223 239 224
f 224 239 240
f 224 240 241
f 224 241 225
f 225 241 242
f 225 242 226
f 226 242 229
f 227 228 243
f 228 244 243
f 232 245 233
f 233 245 246
f 233 246 247
f 233 247 234
f 234 247 239
f 235 236 249
f 235 249 250
f 235 250 248
f 237 251 252
f 237 252 238
f 239 247 253
f 239 253 254
f 239 254 240
f 240 254 255
f 240 255 241
f 243 244 257
f 243 257 256
f 245 258 246
f 246 259 260
f 246 260 247
f 246 258 261
f 246 261 259
f 247 260 262
f 247 262 253
f 248 250 263
f 251 264 265
f 251 265 266
f 251 266 267
f 251 267 252
f 253 262 268
f 253 268 254
f 256 257 270
f 256 270 271
f 256 271 272
f 256 272 273
f 256 273 269
f 259 261 274
f 259 274 275
f 259 275 276
f 259 276 277
f 259 277 260
f 260 277 278
f 260 278 262
f 262 278 268
f 264 280 281
f 264 281 282
f 264 282 265
f 269 273 284
f 269 284 285
f 269 285 283
f 275 286 287
f 275 287 276
f 279 288 289
f 280 290 291
f 280 291 281
f 283 285 292
f 283 292 293
f 283 293 294
f 283 294 295
f 283 295 296
f 283 296 297
f 283 297 298
f 283 298 299
f 283 299 300
f 286 301 302
f 286 302 287
f 288 303 304
f 288 304 289
f 290 305 306
f 290 306 307
f 290 307 291
f 298 308 299
f 299 308 309
f 299 309 310
f 299 310 300
f 301 304 302
f 302 304 303
f 305 311 312
f 305 312 313
f 305 313 314
f 305 314 306
f 306 314 315
f 306 315 316
f 306 316 307
f 308 317 309
f 309 318 310
f 309 317 319
f 309 319 318
f 311 320 321
f 311 321 312
f 312 321 322
f 312 322 313
f 318 319 323
f 319 324 325
f 319 325 323
f 324 326 325

