# https://github.com/mikedh/trimesh
v 0.01149676 0.01137555 0.06919029
v 0.01148448 0.01168436 0.06919029
v 0.01149267 0.01137555 0.06949958
v 0.01142919 0.01137555 0.06770236
v 0.01141281 0.01168436 0.06770236
v 0.01132067 0.01317167 0.06919029
v 0.01144148 0.01168436 0.07067822
v 0.01145786 0.01137555 0.07067822
v 0.01054259 0.01137555 0.05090879
v 0.01124491 0.01317167 0.06770236
v 0.01100944 0.01466015 0.06770236
v 0.01107701 0.01466015 0.06919029
v 0.01125720 0.01317167 0.07067822
v 0.01128177 0.01168436 0.07216615
v 0.01131248 0.01137555 0.07216615
v 0.01143738 0.01137555 0.07098751
v -0.00715880 0.01137555 0.05090879
v 0.01050368 0.01155066 0.05090879
v 0.00919528 0.02346091 0.06186766
v 0.00927513 0.02346091 0.06323856
v 0.01072687 0.01628707 0.06926552
v 0.01098896 0.01466015 0.07067822
v 0.00927718 0.02346091 0.06336395
v 0.01105653 0.01317167 0.07216615
v 0.01101149 0.01168436 0.07364990
v 0.01126539 0.01137555 0.07247126
v -0.00371271 0.02346091 0.06324274
v -0.00346086 0.02346091 0.06175063
v -0.00305134 0.02346091 0.06040899
v -0.00275239 0.02346091 0.05967756
v -0.00685780 0.01181215 0.05090879
v -0.00928829 0.01137555 0.06888100
v -0.00923096 0.01168436 0.06919029
v -0.00888491 0.01274571 0.06919029
v -0.00861054 0.01348995 0.06919029
v -0.00814164 0.01466015 0.06919029
v 0.01045045 0.01177311 0.05090879
v 0.00918299 0.02346091 0.06176735
v 0.01056921 0.01687631 0.06981305
v 0.01070230 0.01590371 0.07067822
v 0.01062859 0.01559016 0.07164370
v 0.01074530 0.01466133 0.07214943
v 0.00917480 0.02346091 0.06465962
v 0.01064292 0.01416557 0.07313999
v 0.01074325 0.01313499 0.07364154
v 0.01062040 0.01261319 0.07453597
v 0.01070844 0.01168436 0.07484108
v 0.01073097 0.01137555 0.07493721
v 0.01096644 0.01137555 0.07400935
v 0.01105039 0.01137555 0.07364990
v -0.00380485 0.02346091 0.06472649
v -0.00755808 0.01598299 0.06919029
v -0.00827473 0.01466015 0.07067822
v -0.00762565 0.01608948 0.07067822
v -0.00272577 0.02346091 0.05961904
v -0.00611248 0.01284628 0.05090879
v -0.00232035 0.02346091 0.05878313
v -0.00931491 0.01137555 0.06919029
v -0.00940091 0.01137555 0.07036893
v -0.00933948 0.01168436 0.07067822
v -0.00894634 0.01291609 0.07067822
v -0.00867606 0.01365915 0.07067822
v 0.01007164 0.01317167 0.05090879
v 0.00914409 0.02346091 0.06157927
v 0.01049754 0.01664795 0.07067822
v 0.00917071 0.02346091 0.06469306
v 0.00916661 0.02346091 0.06471813
v 0.01032350 0.01611077 0.07214943
v 0.01049959 0.01515828 0.07263008
v 0.01033373 0.01466133 0.07364154
v 0.01048935 0.01360591 0.07413473
v 0.01027640 0.01313499 0.07507514
v 0.01046887 0.01168436 0.07558505
v 0.01050368 0.01137555 0.07568118
v 0.01065316 0.01137555 0.07521725
v -0.00375161 0.02346091 0.06621443
v -0.00725094 0.01683372 0.07067822
v -0.00866582 0.01363549 0.07216615
v -0.00822969 0.01466015 0.07216615
v -0.00759289 0.01597944 0.07216615
v -0.00595072 0.01305808 0.05090879
v -0.00163646 0.02346091 0.05763792
v -0.00553097 0.01359052 0.05090879
v -0.00941729 0.01137555 0.07067822
v -0.00942138 0.01137555 0.07216615
v -0.00933948 0.01168436 0.07216615
v -0.00894020 0.01289124 0.07216615
v 0.00990579 0.01359407 0.05090879
v 0.00882671 0.02346091 0.06060960
v 0.00944099 0.01474534 0.05090879
v 0.01014126 0.01763594 0.07067822
v 0.00877962 0.02346091 0.06617263
v 0.00959046 0.01776846 0.07229154
v 0.00978498 0.01614864 0.07364990
v 0.00961094 0.01479267 0.07527576
v 0.00951470 0.01322846 0.07670936
v 0.01004707 0.01168436 0.07662577
v 0.00999588 0.01137555 0.07693505
v -0.00354276 0.02346091 0.06770236
v -0.00717928 0.01672368 0.07216615
v -0.00887263 0.01269246 0.07364990
v -0.00856344 0.01343671 0.07364990
v -0.00800036 0.01466015 0.07364990
v -0.00746389 0.01571676 0.07364990
v -0.00157913 0.02346091 0.05757523
v -0.00210126 0.01724074 0.05090879
v -0.00263568 0.01670475 0.05090879
v -0.00358371 0.01575344 0.05090879
v -0.00411813 0.01520206 0.05090879
v -0.00478769 0.01445782 0.05090879
v -0.00499860 0.01421644 0.05090879
v -0.00931491 0.01137555 0.07364990
v -0.00922686 0.01168436 0.07364990
v 0.00871819 0.02346091 0.06035047
v 0.00909699 0.01541741 0.05090879
v 0.00944713 0.01918713 0.07068658
v 0.00818582 0.02346091 0.06778177
v 0.00899461 0.01972431 0.07118395
v 0.00927718 0.01873278 0.07188612
v 0.00906833 0.01835415 0.07287668
v 0.00927923 0.01725612 0.07364990
v 0.00909290 0.01690708 0.07441059
v 0.00927923 0.01614864 0.07476167
v 0.00907037 0.01537600 0.07586090
v 0.00929561 0.01438446 0.07626632
v 0.00922189 0.01277056 0.07764140
v 0.00926285 0.01137555 0.07856091
v 0.00935704 0.01137555 0.07836447
v -0.00316396 0.02346091 0.06906490
v -0.00657524 0.01763594 0.07216615
v -0.00593434 0.01857778 0.07216615
v -0.00582787 0.01842041 0.07298953
v -0.00699090 0.01646100 0.07364990
v -0.00880915 0.01251617 0.07456523
v -0.00842011 0.01307583 0.07509186
v -0.00734718 0.01550852 0.07457359
v -0.00091161 0.02346091 0.05689396
v -0.00105494 0.01816957 0.05090879
v -0.00911629 0.01137555 0.07510440
v 0.00798106 0.02346091 0.05902136
v 0.00872024 0.01588005 0.05090879
v 0.00787663 0.02346091 0.05883746
v 0.00809982 0.02346091 0.06799493
v 0.00769644 0.01997515 0.07303550
v 0.00803839 0.01908183 0.07357885
v 0.00239524 0.01137555 0.09078619
v 0.00881852 0.01799918 0.07364990
v 0.00795853 0.02346091 0.06828332
v 0.00781725 0.02323136 0.06882666
v 0.00387974 0.01137555 0.08835367
v 0.00465987 0.01137555 0.08705382
v 0.00505915 0.01137555 0.08637673
v 0.00786434 0.01137555 0.08122331
v 0.00895776 0.01210441 0.07863197
v 0.00863629 0.01137555 0.07977299
v -0.00308615 0.02346091 0.06923626
v -0.00617596 0.01765132 0.07354959
v -0.00613910 0.01137555 0.08551574
v -0.00578487 0.01137555 0.08640599
v -0.00436794 0.01137555 0.08967024
v -0.00899958 0.01172341 0.07509186
v -0.00891768 0.01137555 0.07609914
v -0.00884396 0.01137555 0.07644186
v -0.00869449 0.01224521 0.07555579
v -0.00761132 0.01469328 0.07509604
v -0.00733080 0.01137555 0.08202997
v -0.00703799 0.01137555 0.08295783
v -0.00665919 0.01137555 0.08404870
v -0.00617391 0.01137555 0.08542379
v -0.00084814 0.02346091 0.05683544
v -0.00052257 0.01855411 0.05090879
v 0.00730535 0.01758033 0.05090879
v 0.00712107 0.01779212 0.05090879
v 0.00677708 0.02346091 0.05730774
v 0.00716612 0.02346091 0.06950794
v 0.00747735 0.02346091 0.06905654
v 0.00097626 0.01137555 0.09239951
v 0.00702483 0.02346091 0.06969184
v -0.00395842 0.01137555 0.09052706
v -0.00364105 0.01137555 0.09111220
v -0.00274830 0.02346091 0.06985484
v -0.00868016 0.01137555 0.07708134
v -0.00759084 0.01137555 0.08107702
v -0.00016834 0.02346091 0.05632971
v -0.00031167 0.01870556 0.05090879
v 0.00637780 0.01864049 0.05090879
v 0.00647608 0.02346091 0.05706532
v -0.00058605 0.01137555 0.09360741
v 0.00667470 0.02346091 0.07008054
v 0.00618532 0.02346091 0.07054865
v 0.00572257 0.02346091 0.07097915
v -0.00345267 0.01137555 0.09137133
v -0.00206645 0.02346091 0.07065314
v -0.00209307 0.01137555 0.09323543
v -0.00007005 0.02346091 0.05626702
v 0.00098445 0.01943916 0.05090879
v 0.00565909 0.01897534 0.05090879
v 0.00540519 0.02346091 0.05628374
v 0.00553214 0.02346091 0.05637569
v 0.00556286 0.02346091 0.07108782
v 0.00536219 0.02346091 0.07120067
v 0.00387565 0.02346091 0.07188612
v 0.00238910 0.02346091 0.07219123
v 0.00226215 0.02346091 0.07221631
v 0.00101926 0.02346091 0.07221631
v -0.00197226 0.02346091 0.07074509
v -0.00033624 0.02346091 0.07183178
v -0.00058605 0.02346091 0.07174819
v -0.00115937 0.02346091 0.07140965
v 0.00089845 0.02346091 0.05572367
v 0.00146154 0.01953500 0.05090879
v 0.00536424 0.01911259 0.05090879
v 0.00387360 0.02346091 0.05577801
v 0.00238705 0.02346091 0.05544782
v 0.00235838 0.01969710 0.05090879
v 0.00429745 0.01938236 0.05090879
v 0.00250581 0.02346091 0.05546872
v 0.00387565 0.01947584 0.05090879
v 0.00283752 0.01964740 0.05090879
f 1 2 3
f 1 3 8
f 1 8 16
f 1 16 15
f 1 15 26
f 1 26 50
f 1 50 49
f 1 49 48
f 1 48 75
f 1 75 74
f 1 74 98
f 1 98 128
f 1 128 127
f 1 127 155
f 1 155 153
f 1 153 152
f 1 152 151
f 1 151 150
f 1 150 146
f 1 146 177
f 1 177 188
f 1 188 194
f 1 194 192
f 1 192 180
f 1 180 179
f 1 179 160
f 1 160 159
f 1 159 158
f 1 158 169
f 1 169 168
f 1 168 167
f 1 167 166
f 1 166 183
f 1 183 182
f 1 182 163
f 1 163 162
f 1 162 139
f 1 139 112
f 1 112 85
f 1 85 84
f 1 84 59
f 1 59 58
f 1 58 32
f 1 32 17
f 1 17 9
f 1 9 4
f 1 4 2
f 2 4 5
f 2 5 6
f 2 6 7
f 2 7 3
f 3 7 8
f 4 9 5
f 5 9 10
f 5 10 6
f 6 10 11
f 6 11 12
f 6 12 13
f 6 13 7
f 7 13 14
f 7 14 15
f 7 15 16
f 7 16 8
f 9 17 31
f 9 31 56
f 9 56 81
f 9 81 83
f 9 83 111
f 9 111 110
f 9 110 109
f 9 109 108
f 9 108 107
f 9 107 106
f 9 106 138
f 9 138 171
f 9 171 185
f 9 185 196
f 9 196 211
f 9 211 215
f 9 215 219
f 9 219 218
f 9 218 216
f 9 216 212
f 9 212 197
f 9 197 186
f 9 186 173
f 9 173 172
f 9 172 141
f 9 141 115
f 9 115 90
f 9 90 88
f 9 88 63
f 9 63 37
f 9 37 18
f 9 18 19
f 9 19 11
f 9 11 10
f 11 19 20
f 11 20 12
f 12 21 22
f 12 22 13
f 12 20 23
f 12 23 21
f 13 22 24
f 13 24 14
f 14 24 25
f 14 25 26
f 14 26 15
f 17 27 28
f 17 28 29
f 17 29 30
f 17 30 31
f 17 32 33
f 17 33 34
f 17 34 35
f 17 35 36
f 17 36 27
f 18 37 38
f 18 38 19
f 19 38 64
f 19 64 89
f 19 89 114
f 19 114 140
f 19 140 142
f 19 142 174
f 19 174 187
f 19 187 199
f 19 199 198
f 19 198 213
f 19 213 217
f 19 217 214
f 19 214 210
f 19 210 195
f 19 195 184
f 19 184 170
f 19 170 137
f 19 137 105
f 19 105 82
f 19 82 57
f 19 57 55
f 19 55 30
f 19 30 29
f 19 29 28
f 19 28 27
f 19 27 51
f 19 51 76
f 19 76 99
f 19 99 129
f 19 129 156
f 19 156 181
f 19 181 193
f 19 193 206
f 19 206 209
f 19 209 208
f 19 208 207
f 19 207 205
f 19 205 204
f 19 204 203
f 19 203 202
f 19 202 201
f 19 201 200
f 19 200 191
f 19 191 190
f 19 190 189
f 19 189 178
f 19 178 175
f 19 175 176
f 19 176 148
f 19 148 143
f 19 143 117
f 19 117 92
f 19 92 67
f 19 67 66
f 19 66 43
f 19 43 23
f 19 23 20
f 21 39 22
f 21 23 39
f 22 39 40
f 22 40 41
f 22 41 42
f 22 42 24
f 23 43 39
f 24 42 44
f 24 44 45
f 24 45 25
f 25 45 46
f 25 46 47
f 25 47 48
f 25 48 49
f 25 49 50
f 25 50 26
f 27 36 52
f 27 52 53
f 27 53 54
f 27 54 51
f 30 55 31
f 31 55 57
f 31 57 56
f 32 58 33
f 33 58 59
f 33 59 60
f 33 60 61
f 33 61 34
f 34 61 62
f 34 62 35
f 35 62 36
f 36 62 53
f 36 53 52
f 37 63 38
f 38 63 64
f 39 65 40
f 39 43 66
f 39 66 67
f 39 67 65
f 40 65 41
f 41 68 69
f 41 69 44
f 41 44 42
f 41 65 68
f 44 70 71
f 44 71 46
f 44 46 45
f 44 69 70
f 46 71 72
f 46 72 73
f 46 73 74
f 46 74 75
f 46 75 47
f 47 75 48
f 51 54 77
f 51 77 76
f 53 62 78
f 53 78 79
f 53 79 54
f 54 79 80
f 54 80 77
f 56 57 81
f 57 82 83
f 57 83 81
f 59 84 60
f 60 84 85
f 60 85 86
f 60 86 61
f 61 86 87
f 61 87 62
f 62 87 78
f 63 88 64
f 64 88 90
f 64 90 89
f 65 67 91
f 65 91 68
f 67 92 91
f 68 93 94
f 68 94 70
f 68 70 69
f 68 91 93
f 70 94 95
f 70 95 72
f 70 72 71
f 72 95 96
f 72 96 97
f 72 97 73
f 73 97 98
f 73 98 74
f 76 77 100
f 76 100 99
f 77 80 100
f 78 87 101
f 78 101 102
f 78 102 79
f 79 102 103
f 79 103 80
f 80 103 104
f 80 104 100
f 82 105 106
f 82 106 107
f 82 107 108
f 82 108 109
f 82 109 110
f 82 110 111
f 82 111 83
f 85 112 86
f 86 112 113
f 86 113 87
f 87 113 101
f 89 90 115
f 89 115 114
f 91 116 93
f 91 92 116
f 92 117 118
f 92 118 119
f 92 119 116
f 93 116 119
f 93 119 120
f 93 120 121
f 93 121 94
f 94 121 122
f 94 122 123
f 94 123 95
f 95 124 125
f 95 125 96
f 95 123 124
f 96 125 126
f 96 126 127
f 96 127 128
f 96 128 97
f 97 128 98
f 99 100 130
f 99 130 131
f 99 131 132
f 99 132 129
f 100 104 133
f 100 133 130
f 101 113 134
f 101 134 102
f 102 134 103
f 103 134 135
f 103 135 136
f 103 136 104
f 104 136 133
f 105 137 138
f 105 138 106
f 112 139 113
f 113 139 134
f 114 115 140
f 115 141 142
f 115 142 140
f 117 143 118
f 118 120 119
f 118 143 120
f 120 144 145
f 120 145 146
f 120 146 147
f 120 147 122
f 120 122 121
f 120 143 148
f 120 148 149
f 120 149 144
f 122 124 123
f 122 147 146
f 122 146 150
f 122 150 151
f 122 151 152
f 122 152 124
f 124 152 125
f 125 152 153
f 125 153 126
f 126 153 154
f 126 154 127
f 127 154 155
f 129 132 156
f 130 133 131
f 131 133 132
f 132 133 136
f 132 136 157
f 132 157 158
f 132 158 159
f 132 159 160
f 132 160 156
f 134 139 161
f 134 161 162
f 134 162 163
f 134 163 164
f 134 164 135
f 135 165 136
f 135 164 166
f 135 166 165
f 136 165 166
f 136 166 167
f 136 167 168
f 136 168 169
f 136 169 158
f 136 158 157
f 137 170 138
f 138 170 171
f 139 162 161
f 141 172 142
f 142 172 173
f 142 173 174
f 144 175 146
f 144 146 145
f 144 149 176
f 144 176 175
f 146 175 178
f 146 178 177
f 148 176 149
f 153 155 154
f 156 160 179
f 156 179 180
f 156 180 181
f 163 182 164
f 164 182 183
f 164 183 166
f 170 184 185
f 170 185 171
f 173 186 174
f 174 186 187
f 177 178 189
f 177 189 190
f 177 190 191
f 177 191 188
f 180 192 181
f 181 192 194
f 181 194 193
f 184 195 196
f 184 196 185
f 186 197 198
f 186 198 199
f 186 199 187
f 188 191 200
f 188 200 201
f 188 201 202
f 188 202 203
f 188 203 204
f 188 204 205
f 188 205 194
f 193 194 206
f 194 205 207
f 194 207 208
f 194 208 209
f 194 209 206
f 195 210 196
f 196 210 211
f 197 212 198
f 198 212 213
f 210 214 215
f 210 215 211
f 212 216 213
f 213 216 218
f 213 218 217
f 214 217 219
f 214 219 215
f 217 218 219

