# https://github.com/mikedh/trimesh
v 0.00239028 0.02346401 0.05544788
v 0.00250799 0.02346401 0.05546583
v 0.00089874 0.02346401 0.05572382
v 0.00239028 0.03172932 0.04929627
v 0.00387627 0.03171775 0.04929627
v 0.00536504 0.03186827 0.04929627
v 0.00387351 0.02346401 0.05577767
v -0.00007069 0.02346401 0.05626450
v 0.00091674 0.03230826 0.04929627
v 0.00539966 0.03187985 0.04929627
v 0.00540520 0.02346401 0.05628245
v -0.00016763 0.02346401 0.05632956
v 0.00054975 0.03264791 0.04929627
v 0.00638848 0.03227546 0.04929627
v 0.00647712 0.02346401 0.05706318
v 0.00687043 0.03247037 0.04929627
v 0.00771522 0.03313615 0.04929627
v -0.00084900 0.02346401 0.05683435
v 0.00009550 0.03307632 0.04929627
v 0.00804067 0.03342561 0.04929627
v 0.00677764 0.02346401 0.05730548
v -0.00091132 0.02346401 0.05689268
v -0.00125201 0.03544997 0.04929627
v -0.00158023 0.02346401 0.05757245
v -0.00163562 0.02346401 0.05763527
v 0.00922199 0.03459314 0.04929627
v 0.00787725 0.02346401 0.05883777
v 0.00942557 0.03482471 0.04929627
v -0.00145559 0.03592084 0.04929627
v -0.00232115 0.02346401 0.05878168
v 0.00798112 0.02346401 0.05901949
v 0.00982719 0.03547313 0.04929627
v -0.00155807 0.03698030 0.04929627
v -0.00272693 0.02346401 0.05961850
v -0.00275324 0.02346401 0.05967683
v -0.00305099 0.02346401 0.06040820
v -0.00346092 0.02346401 0.06174756
v 0.00871788 0.02346401 0.06035212
v 0.01007647 0.03603856 0.04929627
v 0.00882590 0.02346401 0.06060787
v -0.00142512 0.03815361 0.04929627
v -0.00371297 0.02346401 0.06324171
v -0.00380576 0.02346401 0.06472241
v 0.01027313 0.03698030 0.04929627
v 0.01025512 0.03549242 0.05133110
v 0.00918321 0.02346401 0.06176551
v 0.00914443 0.02346401 0.06157705
v -0.00141820 0.03798379 0.04984368
v -0.00133926 0.03844501 0.04929627
v -0.00375314 0.02346401 0.06621207
v 0.01031329 0.03752836 0.04929627
v 0.01031329 0.03698030 0.04984368
v 0.01031052 0.03549242 0.05282077
v 0.01020665 0.03400455 0.05430819
v 0.00927461 0.02346401 0.06323498
v 0.00919706 0.02346401 0.06186646
v -0.00135864 0.03780239 0.05071639
v -0.00118830 0.03884641 0.04929627
v -0.00354402 0.02346401 0.06769950
v 0.01021219 0.03901623 0.04929627
v 0.01034237 0.03698030 0.05133110
v 0.01025374 0.03549242 0.05430819
v 0.01019142 0.03400455 0.05579562
v 0.01009586 0.03251861 0.05728528
v 0.00927877 0.02346401 0.06336062
v -0.00095287 0.03836782 0.05125931
v -0.00113706 0.03872869 0.04984368
v -0.00060664 0.03998885 0.04929627
v -0.00316317 0.02346401 0.06906129
v 0.01000861 0.03995797 0.04929627
v 0.01019696 0.03698030 0.05282077
v 0.01002800 0.03549242 0.05579562
v 0.01001553 0.03400455 0.05728528
v 0.00987843 0.03251861 0.05877271
v 0.00993521 0.03103074 0.05877271
v 0.00917213 0.02346401 0.06469100
v -0.00018287 0.03969745 0.05133110
v -0.00038368 0.04009305 0.04996482
v -0.00004714 0.04094023 0.04929627
v -0.00308700 0.02346401 0.06923179
v -0.00129494 0.03171389 0.06091298
v 0.00002487 0.03938482 0.05232496
v 0.00975379 0.04049445 0.04929627
v 0.00986181 0.03995797 0.04984368
v 0.00987981 0.03698030 0.05430819
v 0.01005847 0.03846817 0.05133110
v 0.00952251 0.03558120 0.05736156
v 0.00949620 0.03409718 0.05887815
v 0.00935078 0.03242791 0.06026238
v 0.00960976 0.03103074 0.06026013
v 0.00878020 0.02346401 0.06616945
v 0.00916659 0.02346401 0.06471567
v 0.00017859 0.04067778 0.05054140
v -0.00000975 0.04089006 0.04954978
v 0.00009827 0.04109655 0.04929627
v -0.00282941 0.02434979 0.06846452
v 0.00002625 0.03640329 0.05678275
v 0.00013843 0.03774835 0.05508444
v -0.00274908 0.02346401 0.06985099
v -0.00003607 0.03798958 0.05430819
v 0.00041126 0.04044042 0.05133110
v 0.00941172 0.04115637 0.04929627
v 0.00943665 0.03995218 0.05124585
v 0.00958345 0.03858202 0.05291275
v 0.00925384 0.03648241 0.05691735
v 0.00902118 0.03613698 0.05790897
v 0.00929123 0.03514506 0.05845189
v 0.00904056 0.03465489 0.05944351
v 0.00923999 0.03366298 0.05976881
v 0.00912089 0.03187020 0.06105657
v 0.00810022 0.02346401 0.06799115
v 0.00818747 0.02346401 0.06778026
v 0.00083088 0.04149794 0.04997828
v 0.00069239 0.04165426 0.04929627
v 0.00146655 0.04084375 0.05231599
v 0.00115495 0.04111778 0.05133110
v -0.00008177 0.03506594 0.05845862
v 0.00032539 0.03605785 0.05777436
v 0.00047219 0.03739520 0.05607605
v 0.00104831 0.03831571 0.05557800
v 0.00162443 0.03922851 0.05507771
v -0.00206633 0.02346401 0.07065191
v -0.00138773 0.02587240 0.06850939
v 0.00010242 0.03331755 0.06106554
v 0.00020768 0.03470121 0.05945024
v 0.00862648 0.04190320 0.04929627
v 0.00933416 0.04097690 0.04984368
v 0.00914305 0.04075690 0.05069395
v 0.00927184 0.03945236 0.05247752
v 0.00933278 0.03810343 0.05430819
v 0.00903225 0.03915324 0.05346913
v 0.00845337 0.03707100 0.05742662
v 0.00794372 0.03657890 0.05877271
v 0.00762797 0.03626241 0.05954446
v 0.00874143 0.03558120 0.05887815
v 0.00795896 0.03549242 0.05988772
v 0.00754903 0.03471279 0.06097580
v 0.00791464 0.03372087 0.06131457
v 0.00667377 0.02346401 0.07007534
v 0.00702554 0.02346401 0.06968946
v 0.00716541 0.02346401 0.06950325
v 0.00747701 0.02346401 0.06905456
v 0.00795896 0.02346401 0.06827831
v 0.00148317 0.04231039 0.04941517
v 0.00137376 0.04226021 0.04929627
v 0.00234319 0.04184145 0.05133110
v 0.00181554 0.04210583 0.05040679
v 0.00199974 0.04052919 0.05330985
v 0.00131698 0.03654802 0.05841375
v 0.00146378 0.03789309 0.05678275
v 0.00197896 0.03753994 0.05777436
v 0.00244152 0.03812659 0.05728080
v 0.00239028 0.03891202 0.05610297
v 0.00239028 0.03940798 0.05535814
v -0.00197215 0.02346401 0.07074165
v -0.00148052 0.02446558 0.07007085
v 0.00180585 0.03614470 0.05940761
v 0.00794926 0.04239337 0.04929627
v 0.00786894 0.04236249 0.04949818
v 0.00835504 0.04178548 0.04993342
v 0.00833288 0.04110234 0.05124585
v 0.00882452 0.04044428 0.05168557
v 0.00788556 0.03798186 0.05694428
v 0.00745762 0.03765958 0.05793589
v 0.00685242 0.03645346 0.05974413
v 0.00697291 0.03550207 0.06057646
v 0.00691751 0.03726398 0.05874803
v 0.00655605 0.03501383 0.06123156
v 0.00536227 0.02346401 0.07119932
v 0.00556308 0.02346401 0.07108490
v 0.00572235 0.02346401 0.07097722
v 0.00618490 0.02346401 0.07054647
v 0.00236119 0.04273687 0.04929627
v 0.00158427 0.04239530 0.04929627
v 0.00145686 0.04232968 0.04929627
v 0.00234319 0.04252653 0.04988406
v 0.00245260 0.04103286 0.05281628
v 0.00280713 0.04231617 0.05083305
v 0.00299132 0.04075883 0.05365983
v 0.00238889 0.03697644 0.05876822
v 0.00297194 0.03780432 0.05813107
v -0.00115922 0.02346401 0.07140796
v 0.00170891 0.03471665 0.06096683
v 0.00279744 0.03641101 0.05970824
v 0.00686073 0.04285652 0.04929627
v 0.00693136 0.04258249 0.04993342
v 0.00748117 0.04214057 0.05048980
v 0.00783155 0.04086690 0.05234740
v 0.00768059 0.03927289 0.05515398
v 0.00691751 0.03825396 0.05737727
v 0.00646465 0.03787765 0.05823427
v 0.00685242 0.03901623 0.05621515
v 0.00536504 0.03665995 0.05996399
v 0.00536504 0.03592470 0.06070658
v 0.00536504 0.03517980 0.06137963
v 0.00387627 0.02346401 0.07188134
v 0.00289438 0.04287968 0.04929627
v 0.00387627 0.04202285 0.05177531
v 0.00387627 0.04241653 0.05103272
v 0.00387627 0.04293757 0.04984368
v 0.00386243 0.04313055 0.04929627
v 0.00354805 0.03913973 0.05642603
v 0.00387627 0.04037673 0.05453254
v 0.00387627 0.04083795 0.05378771
v 0.00387627 0.04141689 0.05282077
v 0.00387627 0.03733731 0.05903744
v 0.00387627 0.03792397 0.05829260
v -0.00058726 0.02346401 0.07174448
v 0.00270050 0.03495401 0.06120239
v 0.00387627 0.03659241 0.05989893
v 0.00583314 0.04308617 0.04929627
v 0.00648819 0.04232583 0.05085324
v 0.00693136 0.04188390 0.05134232
v 0.00726928 0.04055813 0.05333901
v 0.00536504 0.03797800 0.05836888
v 0.00536504 0.03740292 0.05911372
v 0.00579852 0.03918991 0.05650231
v 0.00680395 0.04106181 0.05283423
v 0.00627631 0.04077041 0.05368226
v 0.00387627 0.03588031 0.06064377
v 0.00387627 0.03513541 0.06135719
v 0.00101923 0.02346401 0.07221113
v 0.00113694 0.02346401 0.07221561
v 0.00226425 0.02346401 0.07221337
v 0.00239028 0.02346401 0.07218869
v 0.00536504 0.04203250 0.05179101
v 0.00536504 0.04242425 0.05104618
v 0.00536504 0.04296845 0.04984368
v 0.00536504 0.04317687 0.04929627
v 0.00448286 0.04315757 0.04929627
v 0.00397599 0.03873255 0.05714843
v 0.00453964 0.03922658 0.05656064
v 0.00397599 0.03955657 0.05587638
v 0.00536504 0.04143426 0.05282077
v -0.00033659 0.02346401 0.07182974
v 0.00054282 0.02573345 0.06983977
v 0.00532765 0.03880781 0.05714843
v 0.00480554 0.03922658 0.05656064
v 0.00536504 0.04084760 0.05380565
f 1 2 7
f 1 7 11
f 1 11 15
f 1 15 21
f 1 21 27
f 1 27 31
f 1 31 38
f 1 38 40
f 1 40 47
f 1 47 46
f 1 46 56
f 1 56 55
f 1 55 65
f 1 65 76
f 1 76 92
f 1 92 91
f 1 91 112
f 1 112 111
f 1 111 143
f 1 143 142
f 1 142 141
f 1 141 140
f 1 140 139
f 1 139 172
f 1 172 171
f 1 171 170
f 1 170 169
f 1 169 196
f 1 196 225
f 1 225 224
f 1 224 223
f 1 223 222
f 1 222 235
f 1 235 208
f 1 208 182
f 1 182 155
f 1 155 122
f 1 122 99
f 1 99 80
f 1 80 69
f 1 69 59
f 1 59 50
f 1 50 43
f 1 43 42
f 1 42 37
f 1 37 36
f 1 36 35
f 1 35 34
f 1 34 30
f 1 30 25
f 1 25 24
f 1 24 22
f 1 22 18
f 1 18 12
f 1 12 8
f 1 8 3
f 1 3 4
f 1 4 5
f 1 5 6
f 1 6 2
f 2 6 7
f 3 8 9
f 3 9 4
f 4 9 13
f 4 13 19
f 4 19 23
f 4 23 29
f 4 29 33
f 4 33 41
f 4 41 49
f 4 49 58
f 4 58 68
f 4 68 79
f 4 79 95
f 4 95 114
f 4 114 145
f 4 145 175
f 4 175 174
f 4 174 173
f 4 173 197
f 4 197 201
f 4 201 230
f 4 230 229
f 4 229 211
f 4 211 185
f 4 185 158
f 4 158 126
f 4 126 102
f 4 102 83
f 4 83 70
f 4 70 60
f 4 60 51
f 4 51 44
f 4 44 39
f 4 39 32
f 4 32 28
f 4 28 26
f 4 26 20
f 4 20 17
f 4 17 16
f 4 16 14
f 4 14 10
f 4 10 6
f 4 6 5
f 6 10 7
f 7 10 11
f 8 12 13
f 8 13 9
f 10 14 11
f 11 14 16
f 11 16 17
f 11 17 15
f 12 18 19
f 12 19 13
f 15 17 20
f 15 20 21
f 18 22 19
f 19 22 24
f 19 24 25
f 19 25 23
f 20 26 21
f 21 26 28
f 21 28 27
f 23 25 29
f 25 30 29
f 27 28 32
f 27 32 31
f 29 30 34
f 29 34 35
f 29 35 36
f 29 36 37
f 29 37 33
f 31 32 38
f 32 39 40
f 32 40 38
f 33 37 42
f 33 42 43
f 33 43 41
f 39 44 45
f 39 45 46
f 39 46 47
f 39 47 40
f 41 48 49
f 41 43 50
f 41 50 48
f 44 51 52
f 44 52 45
f 45 52 53
f 45 53 54
f 45 54 55
f 45 55 56
f 45 56 46
f 48 57 49
f 48 50 57
f 49 57 58
f 50 59 57
f 51 60 61
f 51 61 52
f 52 61 53
f 53 61 62
f 53 62 63
f 53 63 64
f 53 64 54
f 54 64 65
f 54 65 55
f 57 66 67
f 57 67 58
f 57 59 66
f 58 67 68
f 59 69 66
f 60 70 71
f 60 71 61
f 61 71 62
f 62 72 73
f 62 73 63
f 62 71 72
f 63 73 64
f 64 73 74
f 64 74 75
f 64 75 65
f 65 75 76
f 66 77 78
f 66 78 67
f 66 69 77
f 67 78 68
f 68 78 79
f 69 80 81
f 69 81 82
f 69 82 77
f 70 83 84
f 70 84 85
f 70 85 86
f 70 86 71
f 71 86 72
f 72 86 85
f 72 85 87
f 72 87 73
f 73 87 88
f 73 88 74
f 74 88 89
f 74 89 90
f 74 90 91
f 74 91 92
f 74 92 76
f 74 76 75
f 77 82 93
f 77 93 78
f 78 93 94
f 78 94 79
f 79 94 95
f 80 96 97
f 80 97 98
f 80 98 81
f 80 99 96
f 81 98 100
f 81 100 82
f 82 101 93
f 82 100 98
f 82 98 101
f 83 102 103
f 83 103 84
f 84 103 104
f 84 104 85
f 85 104 105
f 85 105 87
f 87 106 107
f 87 107 88
f 87 105 106
f 88 108 109
f 88 109 89
f 88 107 108
f 89 109 110
f 89 110 111
f 89 111 112
f 89 112 90
f 90 112 91
f 93 113 114
f 93 114 95
f 93 95 94
f 93 101 115
f 93 115 116
f 93 116 113
f 96 99 97
f 97 99 117
f 97 117 118
f 97 118 98
f 98 118 119
f 98 119 120
f 98 120 121
f 98 121 101
f 99 122 123
f 99 123 124
f 99 124 125
f 99 125 117
f 101 121 115
f 102 126 127
f 102 127 103
f 103 127 128
f 103 128 129
f 103 129 104
f 104 130 105
f 104 129 130
f 105 130 129
f 105 129 131
f 105 131 106
f 106 131 132
f 106 132 133
f 106 133 134
f 106 134 135
f 106 135 108
f 106 108 107
f 108 135 134
f 108 134 136
f 108 136 137
f 108 137 138
f 108 138 139
f 108 139 140
f 108 140 141
f 108 141 142
f 108 142 109
f 109 142 143
f 109 143 110
f 110 143 111
f 113 116 144
f 113 144 114
f 114 144 145
f 115 146 147
f 115 147 116
f 115 121 148
f 115 148 146
f 116 147 144
f 117 125 118
f 118 125 149
f 118 149 150
f 118 150 119
f 119 150 120
f 120 150 121
f 121 150 151
f 121 151 152
f 121 152 153
f 121 153 154
f 121 154 148
f 122 155 156
f 122 156 123
f 123 156 157
f 123 157 124
f 124 157 149
f 124 149 125
f 126 158 159
f 126 159 160
f 126 160 128
f 126 128 127
f 128 160 161
f 128 161 162
f 128 162 131
f 128 131 129
f 131 162 163
f 131 163 132
f 132 163 133
f 133 163 164
f 133 164 134
f 134 165 166
f 134 166 137
f 134 137 136
f 134 164 167
f 134 167 165
f 137 166 168
f 137 168 169
f 137 169 170
f 137 170 171
f 137 171 172
f 137 172 139
f 137 139 138
f 144 173 174
f 144 174 175
f 144 175 145
f 144 147 176
f 144 176 173
f 146 148 177
f 146 177 178
f 146 178 147
f 147 178 176
f 148 154 179
f 148 179 177
f 149 157 151
f 149 151 150
f 151 157 180
f 151 180 181
f 151 181 152
f 152 181 153
f 153 181 154
f 154 181 179
f 155 182 156
f 156 182 183
f 156 183 157
f 157 184 180
f 157 183 184
f 158 185 159
f 159 185 186
f 159 186 187
f 159 187 160
f 160 187 161
f 161 187 188
f 161 188 162
f 162 188 189
f 162 189 163
f 163 189 164
f 164 190 191
f 164 191 167
f 164 189 192
f 164 192 190
f 165 167 191
f 165 191 193
f 165 193 194
f 165 194 168
f 165 168 166
f 168 194 195
f 168 195 196
f 168 196 169
f 173 176 197
f 176 178 197
f 177 179 178
f 178 198 199
f 178 199 200
f 178 200 201
f 178 201 197
f 178 179 198
f 179 181 202
f 179 202 203
f 179 203 204
f 179 204 205
f 179 205 198
f 180 184 181
f 181 184 206
f 181 206 207
f 181 207 202
f 182 208 183
f 183 209 184
f 183 208 209
f 184 210 206
f 184 209 210
f 185 211 212
f 185 212 186
f 186 212 187
f 187 212 213
f 187 213 214
f 187 214 188
f 188 214 189
f 189 214 192
f 190 192 191
f 191 215 216
f 191 216 193
f 191 192 217
f 191 217 215
f 192 214 218
f 192 218 219
f 192 219 217
f 193 216 210
f 193 210 220
f 193 220 194
f 194 220 221
f 194 221 222
f 194 222 223
f 194 223 224
f 194 224 195
f 195 224 225
f 195 225 196
f 198 205 226
f 198 226 199
f 199 226 227
f 199 227 228
f 199 228 200
f 200 228 229
f 200 229 230
f 200 230 201
f 202 231 232
f 202 232 233
f 202 233 203
f 202 207 231
f 203 233 232
f 203 232 204
f 204 232 205
f 205 234 226
f 205 232 234
f 206 210 216
f 206 216 207
f 207 216 215
f 207 215 232
f 207 232 231
f 208 235 236
f 208 236 209
f 209 220 210
f 209 236 220
f 211 229 228
f 211 228 212
f 212 228 227
f 212 227 226
f 212 226 219
f 212 219 213
f 213 218 214
f 213 219 218
f 215 217 237
f 215 237 238
f 215 238 232
f 217 219 234
f 217 234 239
f 217 239 238
f 217 238 237
f 219 226 234
f 220 236 222
f 220 222 221
f 222 236 235
f 232 238 234
f 234 238 239

