# https://github.com/mikedh/trimesh
v -0.00505096 -0.04047977 0.03033079
v -0.00653931 -0.04030499 0.03033079
v -0.00356261 -0.04031766 0.03033079
v -0.00356261 -0.04001369 0.03793820
v -0.00505096 -0.04008968 0.03943076
v -0.00653931 -0.03996050 0.03943076
v -0.00653931 -0.04001875 0.03793820
v -0.00789842 -0.03988704 0.03033079
v -0.00746067 -0.03974012 0.03943076
v -0.00753572 -0.03977305 0.03793820
v -0.00224311 -0.04003902 0.03033079
v -0.00253077 -0.03977558 0.03793820
v -0.00356261 -0.03994023 0.03943076
v -0.00207635 -0.04000356 0.03033079
v -0.00505096 -0.03994783 0.04091815
v -0.00656433 -0.03979838 0.04090266
v -0.00736270 -0.03969453 0.04039653
v -0.00864260 -0.03959321 0.03033079
v -0.00820485 -0.03935763 0.03943076
v -0.00827989 -0.03940069 0.03793820
v -0.00266210 -0.03972745 0.03943076
v -0.00129465 -0.03978318 0.03033079
v -0.00118625 -0.03975026 0.03033079
v -0.00119459 -0.03974265 0.03050123
v -0.00127172 -0.03969453 0.03167875
v -0.00276841 -0.03967933 0.04031906
v -0.00355427 -0.03978572 0.04085618
v -0.00404414 -0.03971733 0.04187360
v -0.00505096 -0.03975026 0.04197689
v -0.00608489 -0.03971986 0.04186843
v -0.00707712 -0.03960587 0.04139329
v -0.00792552 -0.03930697 0.04090266
v -0.00936801 -0.03884849 0.03033079
v -0.00936593 -0.03861292 0.03943076
v -0.01011011 -0.03802019 0.03943076
v -0.01012678 -0.03802272 0.03793820
v -0.00925128 -0.03851413 0.04091815
v -0.00178660 -0.03944376 0.03793820
v -0.00191792 -0.03937283 0.03943076
v -0.00044208 -0.03918032 0.03033079
v 0.00015410 -0.03816711 0.03865607
v -0.00064428 -0.03862812 0.03943076
v -0.00219516 -0.03931204 0.04085618
v -0.00207635 -0.03894728 0.04240555
v -0.00305190 -0.03959574 0.04131066
v -0.00355427 -0.03945896 0.04238489
v -0.00356261 -0.03899288 0.04389294
v -0.00505096 -0.03952228 0.04272058
v -0.00505096 -0.03911446 0.04389294
v -0.00653931 -0.03893208 0.04389294
v -0.00656433 -0.03945135 0.04237972
v -0.00748777 -0.03826843 0.04486904
v -0.00800265 -0.03843054 0.04380514
v -0.00802767 -0.03889155 0.04240555
v -0.00901156 -0.03833682 0.04240555
v -0.01002881 -0.03805312 0.03033079
v -0.01074589 -0.03727801 0.03793820
v -0.01075006 -0.03727548 0.03943076
v -0.00999546 -0.03791887 0.04091815
v -0.01068127 -0.03717669 0.04091815
v -0.00078186 -0.03852679 0.04091815
v 0.00037297 -0.03851920 0.03033079
v 0.00041675 -0.03837988 0.03198862
v 0.00170498 -0.03673847 0.03908473
v 0.00009990 -0.03812658 0.03943076
v 0.00116092 -0.03777195 0.03198862
v 0.00199056 -0.03697404 0.03347601
v 0.00192177 -0.03691072 0.03496341
v -0.00099031 -0.03838494 0.04240555
v -0.00118625 -0.03825829 0.04346945
v -0.00200130 -0.03850147 0.04393942
v -0.00244948 -0.03831655 0.04503948
v -0.00306441 -0.03813164 0.04603107
v -0.00356261 -0.03841534 0.04547330
v -0.00405664 -0.03820257 0.04620150
v -0.00505096 -0.03853440 0.04538034
v -0.00582224 -0.03817470 0.04613953
v -0.00640799 -0.03836468 0.04537001
v -0.00681447 -0.03804552 0.04586064
v -0.00750445 -0.03680940 0.04786966
v -0.00800265 -0.03775169 0.04537001
v -0.00848001 -0.03800753 0.04424413
v -0.00882812 -0.03820763 0.04325253
v -0.00975574 -0.03770863 0.04240555
v -0.01011219 -0.03795180 0.03033079
v -0.01149423 -0.03625466 0.03943076
v -0.01149006 -0.03625213 0.03793820
v -0.01142544 -0.03616600 0.04091815
v -0.01051034 -0.03696645 0.04240555
v -0.00003768 -0.03802272 0.04091815
v 0.00121512 -0.03780235 0.03033079
v 0.00121095 -0.03779981 0.03050123
v 0.00203851 -0.03702724 0.03198862
v 0.00247000 -0.03593550 0.03793820
v 0.00220527 -0.03607482 0.03951855
v 0.00162994 -0.03666501 0.04007633
v 0.00104002 -0.03727801 0.03951855
v 0.00080864 -0.03727801 0.04091815
v 0.00304325 -0.03504387 0.03943076
v -0.00024613 -0.03786821 0.04240555
v -0.00065053 -0.03773142 0.04393942
v -0.00145724 -0.03811391 0.04446104
v -0.00200130 -0.03797206 0.04547330
v -0.00207635 -0.03744772 0.04686773
v -0.00276215 -0.03670047 0.04914530
v -0.00356261 -0.03788594 0.04676960
v -0.00505096 -0.03820003 0.04619634
v -0.00356261 -0.03717162 0.04835513
v -0.00356261 -0.03675367 0.04924343
v -0.00505096 -0.03720202 0.04835513
v -0.00505096 -0.03786314 0.04694003
v -0.00589937 -0.03671061 0.04916080
v -0.00640799 -0.03774155 0.04672829
v -0.00645176 -0.03694111 0.04836545
v -0.00689160 -0.03655103 0.04886125
v -0.00741898 -0.03527691 0.05073082
v -0.00801099 -0.03622680 0.04836545
v -0.00849460 -0.03650290 0.04728090
v -0.00801099 -0.03703231 0.04682125
v -0.00888024 -0.03676633 0.04628930
v -0.00914706 -0.03699684 0.04538034
v -0.00949100 -0.03739199 0.04381547
v -0.01015388 -0.03656876 0.04437841
v -0.01035191 -0.03677900 0.04338681
v -0.01061873 -0.03720708 0.03033079
v -0.01190905 -0.03550995 0.03943076
v -0.01186736 -0.03542129 0.04091815
v -0.01190488 -0.03550741 0.03793820
v -0.01132538 -0.03584938 0.04241588
v -0.01180274 -0.03529464 0.04193041
v -0.01076256 -0.03601656 0.04388778
v 0.00064604 -0.03712603 0.04240555
v 0.00196763 -0.03714122 0.03033079
v 0.00284939 -0.03578858 0.03208675
v 0.00280353 -0.03578858 0.03335206
v 0.00309328 -0.03509453 0.03793820
v 0.00205935 -0.03705510 0.03050123
v 0.00219068 -0.03583924 0.04091815
v 0.00155281 -0.03658396 0.04091815
v 0.00342472 -0.03430169 0.03943076
v 0.00338720 -0.03414971 0.04091815
v 0.00293485 -0.03489442 0.04091815
v 0.00042717 -0.03691832 0.04389294
v 0.00025207 -0.03676127 0.04486388
v -0.00051295 -0.03714882 0.04537001
v -0.00097780 -0.03691832 0.04686773
v -0.00123211 -0.03673847 0.04775087
v -0.00219099 -0.03687525 0.04829315
v -0.00176992 -0.03651557 0.04874247
v -0.00219099 -0.03619134 0.04972374
v -0.00207635 -0.03544916 0.05101488
v -0.00328329 -0.03514519 0.05200647
v -0.00356261 -0.03636105 0.04999229
v -0.00505096 -0.03676127 0.04925892
v -0.00505096 -0.03635851 0.05000262
v -0.00532612 -0.03513759 0.05199098
v -0.00653931 -0.03544662 0.05100455
v -0.00645176 -0.03621160 0.04973406
v -0.00653931 -0.03497548 0.05174824
v -0.00710422 -0.03363550 0.05346804
v -0.00767121 -0.03396733 0.05247645
v -0.00804226 -0.03445620 0.05134541
v -0.00841122 -0.03494508 0.05017305
v -0.00796096 -0.03549222 0.04974439
v -0.00882812 -0.03523891 0.04918146
v -0.00989123 -0.03630786 0.04538034
v -0.00907410 -0.03546689 0.04835513
v -0.01035191 -0.03530477 0.04632029
v -0.01055411 -0.03556567 0.04538034
v -0.01120865 -0.03607988 0.03033079
v -0.01229886 -0.03444861 0.03943076
v -0.01227176 -0.03444861 0.04091815
v -0.01184860 -0.03540609 0.03645080
v -0.01128369 -0.03593550 0.03033079
v -0.01169852 -0.03509959 0.04292200
v -0.01205080 -0.03453980 0.04241588
v -0.01156302 -0.03485896 0.04389294
v 0.00139022 -0.03641424 0.04240555
v 0.00205935 -0.03705763 0.03033079
v 0.00313288 -0.03519585 0.03276847
v 0.00278477 -0.03593550 0.03050123
v 0.00205101 -0.03567206 0.04240555
v 0.00393751 -0.03295918 0.03943076
v 0.00391041 -0.03295918 0.04091815
v 0.00450450 -0.03042867 0.04686773
v 0.00398962 -0.03147229 0.04686773
v 0.00328297 -0.03395973 0.04240555
v 0.00319334 -0.03380521 0.04351593
v 0.00310995 -0.03366843 0.04451269
v 0.00279519 -0.03470444 0.04240555
v 0.00117135 -0.03620400 0.04389294
v 0.00159033 -0.03513506 0.04594844
v 0.00068148 -0.03566446 0.04686773
v 0.00003111 -0.03658649 0.04585548
v -0.00023363 -0.03640918 0.04686773
v -0.00054005 -0.03596590 0.04842226
v -0.00086107 -0.03550235 0.04984769
v -0.00119459 -0.03527438 0.05073082
v -0.00207635 -0.03499068 0.05175857
v -0.00427552 -0.03519585 0.05208394
v -0.00369185 -0.03553528 0.05143837
v -0.00248908 -0.03382294 0.05373144
v -0.00167612 -0.01460479 0.08308682
v -0.00433389 -0.03519585 0.05208394
v -0.00491755 -0.03553274 0.05143321
v -0.00491755 -0.03472977 0.05267786
v -0.00207635 -0.01460479 0.08306616
v -0.00611199 -0.03381281 0.05372111
v -0.00658100 -0.03419277 0.05291027
v -0.00740648 -0.03229552 0.05516719
v -0.00349799 -0.01460479 0.08234829
v -0.00795262 -0.03257162 0.05423240
v -0.00811105 -0.03336700 0.05291027
v -0.00866345 -0.03362537 0.05196516
v -0.00903658 -0.03395466 0.05097356
v -0.00981827 -0.03473737 0.04835513
v -0.00942847 -0.03435488 0.04968242
v -0.01010802 -0.03502107 0.04731188
v -0.01030814 -0.03376469 0.04919695
v -0.01134415 -0.03438781 0.04539067
v -0.01048324 -0.03399266 0.04835513
v -0.01259903 -0.03295918 0.03943076
v -0.01219463 -0.03444861 0.03793820
v -0.01175271 -0.03520598 0.03412158
v -0.01267199 -0.03295918 0.04091815
v -0.01259695 -0.03295918 0.04240555
v -0.01144420 -0.03444861 0.03033079
v -0.01182150 -0.03385081 0.04490003
v -0.01194657 -0.03411678 0.04389294
v -0.01238641 -0.03295918 0.04389294
v -0.01167559 -0.03355444 0.04589163
v 0.00187383 -0.03545929 0.04389294
v 0.00278268 -0.03593550 0.03033079
v 0.00313288 -0.03519585 0.03265485
v 0.00270764 -0.03435995 0.04396524
v 0.00301823 -0.03353924 0.04538034
v 0.00384162 -0.03295918 0.03793820
v 0.00537583 -0.02700907 0.04686773
v 0.00510276 -0.02849597 0.04686773
v 0.00477757 -0.02968396 0.04686773
v 0.00472546 -0.02949145 0.04835513
v 0.00438360 -0.03023616 0.04835513
v 0.00360190 -0.03158880 0.04843259
v 0.00336010 -0.03256656 0.04686773
v 0.00347891 -0.03279453 0.04538034
v 0.00173208 -0.03529211 0.04495684
v 0.00209479 -0.03422570 0.04686773
v 0.00185299 -0.03393440 0.04835513
v 0.00142566 -0.03496788 0.04686773
v 0.00041258 -0.03541876 0.04810206
v 0.00015201 -0.03518825 0.04909366
v -0.00011689 -0.03500587 0.04984769
v 0.00044801 -0.03395466 0.05099422
v -0.00056090 -0.03446127 0.05136090
v -0.00091735 -0.03397493 0.05248678
v -0.00083605 -0.01460479 0.08249290
v -0.00089234 -0.01460479 0.08253938
v -0.00149685 -0.03364057 0.05347837
v -0.00858632 -0.03059079 0.05636537
v -0.00839871 -0.03194596 0.05467655
v -0.00499468 -0.01460479 0.08127923
v -0.00886564 -0.03229806 0.05368496
v -0.01002881 -0.03343032 0.05018855
v -0.00914289 -0.03259189 0.05282247
v -0.01124617 -0.03284013 0.04825183
v -0.01150882 -0.03325554 0.04686773
v -0.01016639 -0.03208528 0.05190835
v -0.01028312 -0.03076303 0.05361782
v -0.01042279 -0.03243737 0.05091675
v -0.01059997 -0.03294398 0.04975472
v -0.01253858 -0.03147229 0.03943076
v -0.01272827 -0.03147229 0.04091815
v -0.01279498 -0.03147229 0.04240555
v -0.01322022 -0.02022560 0.05782694
v -0.01330151 -0.01918452 0.05876689
v -0.01334946 -0.01966580 0.05731048
v -0.01118781 -0.03312636 0.03033079
v -0.01325149 -0.01721381 0.05346288
v -0.01306388 -0.01666921 0.05291027
v -0.01275328 -0.01510379 0.05282247
v -0.01177147 -0.03226259 0.04768890
v -0.01187987 -0.03251336 0.04686773
v -0.01204038 -0.03301997 0.04539067
v -0.01224258 -0.03147229 0.04686773
v -0.01315143 -0.01992670 0.05876689
v 0.00283688 -0.03331127 0.04686773
v 0.00304533 -0.03444861 0.03033079
v 0.00730193 -0.01659322 0.05282247
v 0.00559679 -0.02552218 0.04686773
v 0.00719562 -0.01808011 0.05430987
v 0.00724982 -0.01808011 0.05579726
v 0.00505482 -0.02849597 0.04835513
v 0.00727275 -0.01808011 0.05727949
v 0.00725191 -0.01808011 0.05876689
v 0.00686210 -0.01956954 0.05876689
v 0.00669742 -0.01956954 0.06025945
v 0.00466293 -0.02932934 0.04930024
v 0.00423768 -0.02988914 0.04981670
v 0.00309536 -0.03216380 0.04898520
v 0.00323711 -0.03236898 0.04798844
v 0.00344973 -0.03120885 0.04984769
v 0.00268263 -0.03290345 0.04843259
v 0.00169248 -0.03375455 0.04920211
v 0.00092537 -0.03418010 0.04975989
v 0.00144025 -0.03349618 0.05019371
v 0.00163619 -0.03220687 0.05206328
v 0.00061895 -0.03262228 0.05282247
v 0.00007488 -0.03364563 0.05198581
v 0.00287023 -0.02455203 0.06210320
v 0.00305367 -0.02321711 0.06387981
v 0.00338511 -0.02355908 0.06288305
v 0.00038965 -0.01460479 0.08070596
v -0.00900739 -0.03095301 0.05537377
v -0.00507181 -0.01460479 0.08120692
v -0.00511558 -0.01460479 0.08116560
v -0.00522815 -0.01460479 0.08103133
v -0.00606196 -0.01460479 0.07999325
v -0.00943264 -0.03135323 0.05414460
v -0.00988706 -0.03177118 0.05282247
v -0.01075006 -0.03154068 0.05138156
v -0.01141710 -0.03141909 0.04983219
v -0.01160680 -0.03188010 0.04868049
v -0.00999754 -0.03040334 0.05460941
v -0.01037484 -0.02941292 0.05528081
v -0.01052701 -0.02993726 0.05419108
v -0.01341825 -0.01956954 0.05430987
v -0.01349329 -0.01808011 0.05579726
v -0.01339949 -0.01808011 0.05430987
v -0.01328484 -0.01808011 0.05322531
v -0.01343284 -0.01956954 0.05579726
v -0.01324940 -0.01889322 0.05960871
v -0.01330568 -0.01800412 0.06016648
v -0.01343909 -0.01808011 0.05876689
v -0.01115237 -0.03295918 0.03033079
v -0.01265323 -0.01460479 0.05282247
v -0.01329109 -0.01666921 0.05442865
v -0.01318270 -0.01622340 0.05401032
v -0.01274703 -0.01460479 0.05331827
v -0.01162556 -0.02747262 0.05466106
v -0.01183818 -0.02648220 0.05533762
v -0.01204246 -0.02557031 0.05581792
v -0.01257193 -0.02403275 0.05579726
v -0.01284292 -0.02105643 0.05876689
v -0.01299926 -0.01946062 0.06016648
v 0.00296404 -0.03295918 0.03033079
v 0.00664531 -0.01460479 0.04686773
v 0.00686627 -0.01460479 0.04785933
v 0.00696841 -0.01460479 0.04835513
v 0.00714768 -0.01460479 0.04934672
v 0.00723523 -0.01460479 0.04984769
v 0.00736030 -0.01460479 0.05083412
v 0.00741867 -0.01460479 0.05130926
v 0.00736030 -0.01510379 0.05133508
v 0.00760002 -0.01460479 0.05325630
v 0.00740825 -0.01659322 0.05430987
v 0.00709348 -0.01808011 0.05282247
v 0.00749788 -0.01645390 0.05591088
v 0.00750622 -0.01669707 0.05727949
v 0.00750622 -0.01678066 0.05876689
v 0.00761878 -0.01597769 0.05988243
v 0.00748954 -0.01652229 0.06033175
v 0.00714559 -0.01808011 0.06025945
v 0.00691213 -0.01808011 0.06174684
v 0.00638266 -0.01961260 0.06173651
v 0.00617629 -0.02045864 0.06123038
v 0.00627635 -0.02069421 0.06025945
v 0.00455245 -0.02908110 0.05029184
v 0.00592615 -0.02143892 0.06025945
v 0.00516321 -0.02269278 0.06040405
v 0.00326838 -0.03092515 0.05093741
v 0.00293068 -0.03195356 0.04984769
v 0.00461915 -0.02328804 0.06099798
v 0.00210521 -0.03298451 0.04975989
v 0.00190718 -0.03250576 0.05107169
v 0.00443780 -0.02306007 0.06174684
v 0.00361858 -0.02404542 0.06166421
v 0.00451909 -0.02166436 0.06378684
v 0.00106920 -0.01460479 0.07969370
v 0.00066481 -0.01460479 0.08029796
v -0.00910537 -0.02960037 0.05696445
v -0.00955145 -0.03000312 0.05582309
v -0.00746901 -0.01460479 0.07704945
v -0.01179440 -0.01745192 0.06556862
v -0.01182776 -0.01900467 0.06414320
v -0.01159012 -0.01999509 0.06367322
v -0.01183609 -0.02049916 0.06268163
v -0.01158804 -0.02149211 0.06215484
v -0.01125660 -0.02248253 0.06169520
v -0.01050825 -0.02366040 0.06174684
v -0.01044572 -0.02803495 0.05686633
v -0.01009760 -0.02902537 0.05627240
v -0.01103147 -0.02998286 0.05282247
v -0.01133372 -0.02839211 0.05422207
v -0.01066459 -0.02851623 0.05578177
v -0.01350788 -0.01808011 0.05727949
v -0.01346619 -0.01659322 0.05727949
v -0.01339949 -0.01659322 0.05579726
v -0.01316811 -0.01844994 0.06060031
v -0.01325566 -0.01745699 0.06110644
v -0.01340783 -0.01659322 0.06025945
v -0.01069169 -0.03169266 0.03033079
v -0.01241142 -0.01460479 0.05183088
v -0.01228635 -0.01460479 0.05133508
v -0.01190488 -0.01460479 0.05002328
v -0.01168184 -0.01460479 0.04940870
v -0.01165682 -0.01460479 0.04934156
v -0.01324106 -0.01581304 0.05500192
v -0.01306596 -0.01523298 0.05442865
v -0.01293672 -0.01460479 0.05438217
v -0.01144629 -0.02699134 0.05581792
v -0.01167559 -0.02610224 0.05632921
v -0.01188821 -0.02510929 0.05696445
v -0.01234055 -0.02254586 0.05876689
v -0.01247187 -0.02105643 0.06025945
v -0.01253233 -0.01956954 0.06174684
v -0.01300760 -0.01800412 0.06165904
v 0.00239079 -0.03145709 0.03033079
v 0.00484845 -0.01460479 0.04273091
v 0.00522366 -0.01460479 0.04342813
v 0.00548631 -0.01460479 0.04392393
v 0.00585944 -0.01460479 0.04470894
v 0.00596575 -0.01460479 0.04494135
v 0.00614502 -0.01460479 0.04533385
v 0.00628052 -0.01460479 0.04564889
v 0.00649731 -0.01460479 0.04636677
v 0.00762712 -0.01460479 0.05368496
v 0.00754999 -0.01549388 0.05430987
v 0.00757918 -0.01570919 0.05548739
v 0.00759794 -0.01586624 0.05647899
v 0.00761253 -0.01595236 0.05727949
v 0.00762712 -0.01603848 0.05876689
v 0.00768132 -0.01521018 0.06033175
v 0.00758960 -0.01577505 0.06087403
v 0.00773968 -0.01510379 0.05876689
v 0.00729568 -0.01659322 0.06174684
v 0.00697258 -0.01659322 0.06323424
v 0.00646396 -0.01818397 0.06333236
v 0.00624716 -0.01914399 0.06290370
v 0.00602412 -0.02013694 0.06222198
v 0.00573229 -0.02099564 0.06173651
v 0.00495684 -0.02231535 0.06174684
v 0.00306618 -0.03063638 0.05192900
v 0.00475256 -0.02199366 0.06279525
v 0.00507566 -0.02112483 0.06327039
v 0.00483594 -0.02067141 0.06442209
v 0.00156115 -0.01460479 0.07887770
v -0.01181316 -0.01460479 0.06734523
v -0.01184443 -0.01479223 0.06718513
v -0.01173187 -0.01578265 0.06692174
v -0.01192990 -0.01659322 0.06588882
v -0.01239058 -0.01659322 0.06472163
v -0.01197576 -0.01800159 0.06467515
v -0.01250523 -0.01808011 0.06323424
v -0.01200703 -0.01952648 0.06319808
v -0.01200077 -0.02102097 0.06169520
v -0.01181733 -0.02194553 0.06116325
v -0.01156094 -0.02293848 0.06057449
v -0.01177564 -0.02334883 0.05958289
v -0.01347662 -0.01659322 0.05876689
v -0.01332028 -0.01533683 0.05727949
v -0.01334112 -0.01510379 0.06025945
v -0.01332028 -0.01500247 0.05886501
v -0.01327442 -0.01562307 0.05579726
v -0.01287836 -0.01659322 0.06323424
v -0.01316185 -0.01659322 0.06210320
v -0.01329109 -0.01659322 0.06135950
v -0.01328484 -0.01510379 0.06142664
v -0.01063332 -0.03153814 0.03033079
v -0.01124409 -0.01460479 0.04842226
v -0.01314309 -0.01487835 0.05579726
v -0.01308681 -0.01460479 0.05579726
v -0.01190488 -0.02366293 0.05876689
v -0.01194449 -0.02248253 0.06015099
v 0.00175293 -0.03064145 0.03033079
v 0.00356230 -0.01460479 0.04124352
v 0.00407926 -0.01460479 0.04179096
v 0.00462957 -0.01460479 0.04246235
v 0.00766256 -0.01460479 0.05430987
v 0.00764588 -0.01474917 0.05430987
v 0.00766256 -0.01516965 0.05591088
v 0.00771676 -0.01510379 0.05727949
v 0.00766881 -0.01460479 0.06117874
v 0.00764171 -0.01478463 0.06134401
v 0.00778763 -0.01460479 0.05876689
v 0.00775636 -0.01460479 0.05973783
v 0.00773343 -0.01460479 0.06030076
v 0.00752706 -0.01521018 0.06179849
v 0.00777095 -0.01460479 0.05727949
v 0.00778554 -0.01460479 0.05827109
v 0.00727067 -0.01510379 0.06323424
v 0.00688503 -0.01510379 0.06472163
v 0.00645562 -0.01668441 0.06481976
v 0.00626593 -0.01775588 0.06439110
v 0.00607623 -0.01874883 0.06389530
v 0.00586987 -0.01961260 0.06333236
v 0.00517780 -0.01968859 0.06484042
v 0.00190301 -0.01460479 0.07812368
v -0.01186111 -0.01460479 0.06722644
v -0.01203412 -0.01460479 0.06676680
v -0.01208832 -0.01521525 0.06633814
v -0.01267199 -0.01510379 0.06472163
v -0.01319729 -0.01460479 0.05727949
v -0.01319312 -0.01460479 0.05721235
v -0.01325149 -0.01460479 0.05855514
v -0.01328484 -0.01460479 0.06025945
v -0.01328067 -0.01460479 0.05962421
v -0.01328692 -0.01460479 0.06081206
v -0.01327025 -0.01460479 0.05920071
v -0.01303261 -0.01510379 0.06323424
v -0.01320563 -0.01510379 0.06217034
v -0.01326399 -0.01460479 0.06128720
v -0.01314934 -0.01460479 0.06252669
v -0.01021016 -0.03079343 0.03033079
v -0.01072087 -0.01460479 0.04734287
v -0.01053535 -0.01460479 0.04696586
v -0.01017473 -0.01460479 0.04628413
v 0.00080864 -0.02988914 0.03033079
v 0.00230533 -0.01460479 0.04033972
v 0.00250336 -0.01460479 0.04047916
v 0.00313914 -0.01460479 0.04092848
v 0.00770633 -0.01460479 0.05533245
v 0.00772509 -0.01460479 0.05586957
v 0.00775636 -0.01460479 0.05678369
v 0.00764588 -0.01460479 0.06141114
v 0.00755208 -0.01460479 0.06207737
v 0.00741450 -0.01460479 0.06281074
v 0.00733529 -0.01460479 0.06319808
v 0.00696633 -0.01460479 0.06472163
v 0.00649939 -0.01460479 0.06624518
v 0.00619297 -0.01460479 0.06719029
v 0.00637849 -0.01512406 0.06626584
v 0.00624091 -0.01625126 0.06580619
v 0.00607415 -0.01724168 0.06538270
v 0.00190927 -0.01460479 0.07810818
v -0.01220089 -0.01460479 0.06629166
v -0.01257610 -0.01460479 0.06521743
v -0.01271159 -0.01460479 0.06472163
v -0.01295132 -0.01460479 0.06373003
v -0.01303470 -0.01460479 0.06323424
v -0.00946599 -0.03008418 0.03033079
v -0.00967236 -0.01460479 0.04543714
v -0.00896153 -0.01460479 0.04438357
v -0.00857590 -0.01460479 0.04388778
v -0.00838203 -0.01460479 0.04363988
v -0.00763786 -0.01460479 0.04279289
v -0.00684991 -0.01460479 0.04204919
v -0.00610573 -0.01460479 0.04139846
v 0.00028751 -0.02948892 0.03033079
v 0.00176544 -0.01460479 0.04011764
v -0.00013982 -0.02916975 0.03033079
v -0.00055881 -0.02886326 0.03033079
v 0.00590739 -0.01460479 0.06791850
v 0.00618880 -0.01464278 0.06717480
v 0.00604080 -0.01563320 0.06679779
v -0.00856964 -0.02934200 0.03033079
v -0.00502803 -0.01460479 0.04069608
v 0.00094413 -0.01460479 0.03982326
v -0.00193460 -0.02825786 0.03033079
v -0.00790885 -0.02903044 0.03033079
v -0.00438808 -0.01460479 0.04037587
v -0.00342920 -0.01460479 0.03994205
v -0.00207635 -0.02820213 0.03033079
v -0.00058799 -0.01460479 0.03949789
v -0.00653931 -0.02839971 0.03033079
v -0.00207635 -0.01460479 0.03952888
v -0.00356261 -0.02797416 0.03033079
v -0.00505096 -0.02796656 0.03033079
f 1 2 8
f 1 8 18
f 1 18 33
f 1 33 56
f 1 56 85
f 1 85 125
f 1 125 170
f 1 170 174
f 1 174 227
f 1 227 277
f 1 277 334
f 1 334 401
f 1 401 468
f 1 468 513
f 1 513 540
f 1 540 555
f 1 555 559
f 1 559 564
f 1 564 567
f 1 567 566
f 1 566 562
f 1 562 558
f 1 558 551
f 1 551 550
f 1 550 548
f 1 548 517
f 1 517 474
f 1 474 417
f 1 417 345
f 1 345 287
f 1 287 233
f 1 233 179
f 1 179 133
f 1 133 91
f 1 91 62
f 1 62 40
f 1 40 23
f 1 23 22
f 1 22 14
f 1 14 11
f 1 11 3
f 1 3 4
f 1 4 5
f 1 5 6
f 1 6 7
f 1 7 2
f 2 7 9
f 2 9 10
f 2 10 8
f 3 11 4
f 4 12 13
f 4 13 5
f 4 11 14
f 4 14 12
f 5 13 15
f 5 15 6
f 6 9 7
f 6 15 16
f 6 16 17
f 6 17 9
f 8 10 18
f 9 19 20
f 9 20 18
f 9 18 10
f 9 17 19
f 12 21 13
f 12 14 22
f 12 22 23
f 12 23 24
f 12 24 25
f 12 25 21
f 13 21 26
f 13 26 27
f 13 27 15
f 15 27 28
f 15 28 29
f 15 29 30
f 15 30 16
f 16 30 31
f 16 31 17
f 17 31 32
f 17 32 19
f 18 20 34
f 18 34 35
f 18 35 36
f 18 36 33
f 19 34 20
f 19 32 37
f 19 37 34
f 21 25 38
f 21 38 39
f 21 39 26
f 23 40 41
f 23 41 24
f 24 41 25
f 25 41 42
f 25 42 38
f 26 43 44
f 26 44 45
f 26 45 27
f 26 39 43
f 27 45 28
f 28 45 46
f 28 46 47
f 28 47 48
f 28 48 29
f 29 48 30
f 30 48 49
f 30 49 50
f 30 50 51
f 30 51 31
f 31 51 52
f 31 52 53
f 31 53 54
f 31 54 32
f 32 54 55
f 32 55 37
f 33 36 57
f 33 57 56
f 34 37 35
f 35 58 36
f 35 37 59
f 35 59 60
f 35 60 58
f 36 58 57
f 37 55 59
f 38 42 39
f 39 42 61
f 39 61 43
f 40 62 63
f 40 63 41
f 41 64 65
f 41 65 42
f 41 63 66
f 41 66 67
f 41 67 68
f 41 68 64
f 42 65 61
f 43 61 69
f 43 69 44
f 44 69 70
f 44 70 71
f 44 71 45
f 45 71 46
f 46 71 72
f 46 72 47
f 47 49 48
f 47 72 73
f 47 73 74
f 47 74 75
f 47 75 49
f 49 75 76
f 49 76 77
f 49 77 50
f 50 77 78
f 50 78 52
f 50 52 51
f 52 78 79
f 52 79 80
f 52 80 81
f 52 81 82
f 52 82 53
f 53 83 54
f 53 82 83
f 54 83 55
f 55 83 84
f 55 84 59
f 56 57 85
f 57 58 86
f 57 86 87
f 57 87 85
f 58 60 88
f 58 88 86
f 59 84 89
f 59 89 60
f 60 89 88
f 61 90 69
f 61 65 90
f 62 91 92
f 62 92 93
f 62 93 66
f 62 66 63
f 64 94 95
f 64 95 96
f 64 96 97
f 64 97 65
f 64 68 94
f 65 97 98
f 65 98 90
f 66 93 67
f 67 93 99
f 67 99 94
f 67 94 68
f 69 100 70
f 69 90 100
f 70 100 101
f 70 101 102
f 70 102 71
f 71 102 72
f 72 102 103
f 72 103 104
f 72 104 73
f 73 104 105
f 73 105 106
f 73 106 75
f 73 75 74
f 75 107 76
f 75 106 108
f 75 108 109
f 75 109 110
f 75 110 111
f 75 111 107
f 76 107 77
f 77 107 111
f 77 111 110
f 77 110 112
f 77 112 113
f 77 113 79
f 77 79 78
f 79 113 114
f 79 114 115
f 79 115 80
f 80 115 116
f 80 116 117
f 80 117 118
f 80 118 119
f 80 119 81
f 81 119 120
f 81 120 82
f 82 120 121
f 82 121 83
f 83 121 122
f 83 122 84
f 84 122 123
f 84 123 124
f 84 124 89
f 85 87 125
f 86 126 128
f 86 128 87
f 86 88 127
f 86 127 126
f 87 128 125
f 88 89 129
f 88 129 130
f 88 130 127
f 89 124 131
f 89 131 129
f 90 98 132
f 90 132 100
f 91 133 93
f 91 93 92
f 93 134 135
f 93 135 136
f 93 136 99
f 93 133 137
f 93 137 134
f 94 99 95
f 95 99 138
f 95 138 96
f 96 138 139
f 96 139 98
f 96 98 97
f 98 139 132
f 99 140 141
f 99 141 142
f 99 142 138
f 99 136 140
f 100 132 143
f 100 143 101
f 101 144 145
f 101 145 102
f 101 143 144
f 102 145 146
f 102 146 147
f 102 147 103
f 103 147 104
f 104 147 148
f 104 148 105
f 105 109 108
f 105 108 106
f 105 148 149
f 105 149 150
f 105 150 151
f 105 151 152
f 105 152 153
f 105 153 109
f 109 154 110
f 109 153 154
f 110 154 112
f 112 115 114
f 112 114 113
f 112 154 155
f 112 155 156
f 112 156 157
f 112 157 158
f 112 158 115
f 115 158 157
f 115 157 116
f 116 157 159
f 116 159 160
f 116 160 161
f 116 161 162
f 116 162 163
f 116 163 164
f 116 164 117
f 117 165 118
f 117 164 165
f 118 165 120
f 118 120 119
f 120 166 121
f 120 165 167
f 120 167 166
f 121 166 123
f 121 123 122
f 123 166 168
f 123 168 169
f 123 169 131
f 123 131 124
f 125 128 170
f 126 171 128
f 126 127 172
f 126 172 171
f 127 130 172
f 128 171 173
f 128 173 174
f 128 174 170
f 129 131 175
f 129 175 130
f 130 175 176
f 130 176 172
f 131 177 175
f 131 169 177
f 132 178 143
f 132 139 178
f 133 179 137
f 134 180 136
f 134 136 135
f 134 137 181
f 134 181 180
f 136 180 140
f 137 179 181
f 138 142 182
f 138 182 139
f 139 182 178
f 140 180 183
f 140 183 184
f 140 184 141
f 141 184 185
f 141 185 186
f 141 186 187
f 141 187 142
f 142 187 188
f 142 188 189
f 142 189 190
f 142 190 182
f 143 178 191
f 143 191 192
f 143 192 144
f 144 192 193
f 144 193 194
f 144 194 145
f 145 194 195
f 145 195 146
f 146 195 147
f 147 195 196
f 147 196 197
f 147 197 198
f 147 198 149
f 147 149 148
f 149 198 150
f 150 198 151
f 151 198 199
f 151 199 152
f 152 200 201
f 152 201 153
f 152 199 202
f 152 202 203
f 152 203 200
f 153 201 200
f 153 200 155
f 153 155 154
f 155 200 204
f 155 204 205
f 155 205 156
f 156 205 204
f 156 204 206
f 156 206 207
f 156 207 208
f 156 208 159
f 156 159 157
f 159 208 209
f 159 209 160
f 160 210 161
f 160 209 208
f 160 208 211
f 160 211 210
f 161 210 212
f 161 212 213
f 161 213 214
f 161 214 162
f 162 214 163
f 163 214 215
f 163 215 165
f 163 165 164
f 165 216 167
f 165 215 217
f 165 217 216
f 166 167 216
f 166 216 218
f 166 218 168
f 168 218 219
f 168 219 169
f 169 220 177
f 169 219 221
f 169 221 220
f 171 222 223
f 171 223 224
f 171 224 173
f 171 172 225
f 171 225 222
f 172 176 226
f 172 226 225
f 173 224 174
f 174 224 222
f 174 222 227
f 175 177 228
f 175 228 229
f 175 229 176
f 176 229 230
f 176 230 226
f 177 220 231
f 177 231 228
f 178 182 232
f 178 232 191
f 179 233 181
f 180 181 234
f 180 234 183
f 181 233 234
f 182 190 235
f 182 235 236
f 182 236 232
f 183 234 237
f 183 237 238
f 183 238 239
f 183 239 240
f 183 240 184
f 184 240 185
f 185 240 241
f 185 241 242
f 185 242 186
f 186 242 243
f 186 243 244
f 186 244 245
f 186 245 187
f 187 245 188
f 188 245 189
f 189 245 244
f 189 244 236
f 189 236 190
f 190 236 235
f 191 232 246
f 191 246 192
f 192 246 247
f 192 247 248
f 192 248 249
f 192 249 193
f 193 249 250
f 193 250 194
f 194 250 195
f 195 250 251
f 195 251 196
f 196 251 197
f 197 252 198
f 197 251 252
f 198 252 253
f 198 253 254
f 198 254 255
f 198 255 256
f 198 256 257
f 198 257 258
f 198 258 199
f 199 258 203
f 199 203 202
f 200 203 204
f 203 257 256
f 203 256 312
f 203 312 379
f 203 379 378
f 203 378 446
f 203 446 497
f 203 497 534
f 203 534 552
f 203 552 530
f 203 530 529
f 203 529 528
f 203 528 527
f 203 527 526
f 203 526 525
f 203 525 524
f 203 524 482
f 203 482 486
f 203 486 485
f 203 485 484
f 203 484 489
f 203 489 488
f 203 488 523
f 203 523 522
f 203 522 521
f 203 521 478
f 203 478 426
f 203 426 354
f 203 354 352
f 203 352 351
f 203 351 350
f 203 350 349
f 203 349 348
f 203 348 347
f 203 347 346
f 203 346 425
f 203 425 424
f 203 424 423
f 203 423 422
f 203 422 421
f 203 421 420
f 203 420 419
f 203 419 418
f 203 418 477
f 203 477 476
f 203 476 475
f 203 475 520
f 203 520 519
f 203 519 518
f 203 518 549
f 203 549 557
f 203 557 563
f 203 563 565
f 203 565 561
f 203 561 560
f 203 560 556
f 203 556 547
f 203 547 546
f 203 546 545
f 203 545 544
f 203 544 543
f 203 543 542
f 203 542 541
f 203 541 516
f 203 516 515
f 203 515 514
f 203 514 469
f 203 469 406
f 203 406 405
f 203 405 404
f 203 404 403
f 203 403 402
f 203 402 335
f 203 335 338
f 203 338 409
f 203 409 471
f 203 471 503
f 203 503 502
f 203 502 504
f 203 504 508
f 203 508 506
f 203 506 505
f 203 505 507
f 203 507 511
f 203 511 512
f 203 512 539
f 203 539 538
f 203 538 537
f 203 537 536
f 203 536 535
f 203 535 499
f 203 499 498
f 203 498 447
f 203 447 382
f 203 382 317
f 203 317 316
f 203 316 315
f 203 315 314
f 203 314 261
f 203 261 211
f 203 211 207
f 203 207 204
f 203 258 257
f 204 207 206
f 207 211 208
f 210 259 260
f 210 260 212
f 210 211 261
f 210 261 259
f 212 260 262
f 212 262 214
f 212 214 213
f 214 262 215
f 215 263 219
f 215 219 217
f 215 262 264
f 215 264 263
f 216 217 219
f 216 219 218
f 219 265 266
f 219 266 221
f 219 263 267
f 219 267 268
f 219 268 269
f 219 269 270
f 219 270 265
f 220 221 266
f 220 266 231
f 222 271 227
f 222 224 223
f 222 225 272
f 222 272 271
f 225 226 273
f 225 273 272
f 226 230 274
f 226 274 275
f 226 275 276
f 226 276 273
f 227 271 278
f 227 278 279
f 227 279 280
f 227 280 277
f 228 231 281
f 228 281 282
f 228 282 283
f 228 283 229
f 229 283 230
f 230 283 284
f 230 284 285
f 230 285 274
f 231 266 281
f 232 236 286
f 232 286 246
f 233 287 234
f 234 287 288
f 234 288 289
f 234 289 238
f 234 238 237
f 236 244 286
f 238 289 290
f 238 290 291
f 238 291 239
f 239 292 240
f 239 291 293
f 239 293 294
f 239 294 292
f 240 292 241
f 241 292 295
f 241 295 296
f 241 296 297
f 241 297 242
f 242 297 298
f 242 298 243
f 243 299 300
f 243 300 244
f 243 298 301
f 243 301 299
f 244 300 286
f 246 286 247
f 247 286 302
f 247 302 248
f 248 302 303
f 248 303 249
f 249 303 250
f 250 303 251
f 251 303 304
f 251 304 253
f 251 253 252
f 253 304 305
f 253 305 306
f 253 306 307
f 253 307 308
f 253 308 254
f 254 308 255
f 255 308 256
f 256 309 310
f 256 310 311
f 256 311 312
f 256 308 307
f 256 307 306
f 256 306 309
f 259 313 262
f 259 262 260
f 259 261 314
f 259 314 315
f 259 315 316
f 259 316 317
f 259 317 313
f 262 313 318
f 262 318 264
f 263 264 319
f 263 319 267
f 264 318 319
f 265 281 266
f 265 270 320
f 265 320 321
f 265 321 322
f 265 322 281
f 267 319 323
f 267 323 268
f 268 323 324
f 268 324 325
f 268 325 269
f 269 325 320
f 269 320 270
f 271 272 278
f 272 273 326
f 272 326 327
f 272 327 328
f 272 328 329
f 272 329 278
f 273 276 330
f 273 330 326
f 274 285 331
f 274 331 275
f 275 331 332
f 275 332 333
f 275 333 276
f 276 333 330
f 277 280 335
f 277 335 334
f 278 329 328
f 278 328 336
f 278 336 337
f 278 337 279
f 279 337 280
f 280 337 338
f 280 338 335
f 281 284 282
f 281 322 339
f 281 339 340
f 281 340 341
f 281 341 342
f 281 342 284
f 282 284 283
f 284 342 343
f 284 343 285
f 285 343 344
f 285 344 331
f 286 300 302
f 287 345 346
f 287 346 347
f 287 347 348
f 287 348 349
f 287 349 350
f 287 350 351
f 287 351 352
f 287 352 353
f 287 353 354
f 287 354 288
f 288 354 355
f 288 355 356
f 288 356 289
f 289 356 290
f 290 356 355
f 290 355 357
f 290 357 291
f 291 357 358
f 291 358 293
f 292 294 295
f 293 358 359
f 293 359 294
f 294 359 360
f 294 360 361
f 294 361 362
f 294 362 295
f 295 362 296
f 296 362 363
f 296 363 364
f 296 364 365
f 296 365 366
f 296 366 297
f 297 366 365
f 297 365 367
f 297 367 298
f 298 367 368
f 298 368 369
f 298 369 301
f 299 303 302
f 299 302 300
f 299 301 370
f 299 370 371
f 299 371 303
f 301 369 372
f 301 372 370
f 303 371 373
f 303 373 374
f 303 374 305
f 303 305 304
f 305 374 306
f 306 374 375
f 306 375 376
f 306 376 311
f 306 311 309
f 309 311 310
f 311 376 375
f 311 375 377
f 311 377 378
f 311 378 379
f 311 379 312
f 313 317 380
f 313 380 381
f 313 381 323
f 313 323 318
f 317 382 383
f 317 383 384
f 317 384 385
f 317 385 386
f 317 386 387
f 317 387 388
f 317 388 389
f 317 389 390
f 317 390 391
f 317 391 380
f 318 323 319
f 320 325 321
f 321 325 392
f 321 392 393
f 321 393 322
f 322 393 339
f 323 381 391
f 323 391 324
f 324 391 390
f 324 390 394
f 324 394 325
f 325 393 392
f 325 394 393
f 326 330 395
f 326 395 327
f 327 395 396
f 327 396 397
f 327 397 328
f 328 397 336
f 330 333 395
f 331 344 398
f 331 398 399
f 331 399 332
f 332 399 333
f 333 399 400
f 333 400 395
f 334 335 402
f 334 402 403
f 334 403 404
f 334 404 405
f 334 405 406
f 334 406 401
f 336 397 407
f 336 407 337
f 337 407 408
f 337 408 409
f 337 409 338
f 339 393 410
f 339 410 411
f 339 411 340
f 340 411 412
f 340 412 413
f 340 413 341
f 341 413 342
f 342 413 343
f 343 413 414
f 343 414 344
f 344 414 415
f 344 415 416
f 344 416 398
f 345 417 418
f 345 418 419
f 345 419 420
f 345 420 421
f 345 421 422
f 345 422 423
f 345 423 424
f 345 424 425
f 345 425 346
f 352 354 353
f 354 426 355
f 355 426 427
f 355 427 428
f 355 428 357
f 357 428 429
f 357 429 430
f 357 430 358
f 358 430 431
f 358 431 359
f 359 431 360
f 360 432 433
f 360 433 361
f 360 431 434
f 360 434 432
f 361 433 435
f 361 435 362
f 362 435 363
f 363 435 436
f 363 436 437
f 363 437 438
f 363 438 364
f 364 438 365
f 365 368 367
f 365 438 439
f 365 439 440
f 365 440 368
f 368 440 369
f 369 440 441
f 369 441 372
f 370 442 371
f 370 372 442
f 371 442 374
f 371 374 373
f 372 441 443
f 372 443 375
f 372 375 442
f 374 442 375
f 375 443 377
f 377 443 444
f 377 444 445
f 377 445 446
f 377 446 378
f 380 391 381
f 382 447 448
f 382 448 449
f 382 449 383
f 383 449 450
f 383 450 451
f 383 451 452
f 383 452 384
f 384 452 453
f 384 453 454
f 384 454 386
f 384 386 385
f 386 415 455
f 386 455 456
f 386 456 387
f 386 454 415
f 387 456 457
f 387 457 388
f 388 457 390
f 388 390 389
f 390 457 394
f 393 394 410
f 394 457 458
f 394 458 410
f 395 400 459
f 395 459 396
f 396 460 397
f 396 459 461
f 396 461 462
f 396 462 460
f 397 460 463
f 397 463 407
f 398 416 399
f 399 416 464
f 399 464 465
f 399 465 466
f 399 466 400
f 400 461 459
f 400 466 467
f 400 467 461
f 401 406 468
f 406 469 468
f 407 463 470
f 407 470 408
f 408 470 409
f 409 470 471
f 410 458 411
f 411 458 412
f 412 458 472
f 412 472 414
f 412 414 413
f 414 472 473
f 414 473 456
f 414 456 455
f 414 455 415
f 415 454 453
f 415 453 416
f 416 453 464
f 417 474 475
f 417 475 476
f 417 476 477
f 417 477 418
f 426 478 479
f 426 479 427
f 427 479 428
f 428 480 429
f 428 479 480
f 429 481 430
f 429 480 481
f 430 481 431
f 431 481 434
f 432 482 483
f 432 483 433
f 432 434 484
f 432 484 485
f 432 485 486
f 432 486 482
f 433 483 487
f 433 487 435
f 434 481 488
f 434 488 489
f 434 489 484
f 435 487 490
f 435 490 436
f 436 490 491
f 436 491 492
f 436 492 493
f 436 493 437
f 437 493 494
f 437 494 438
f 438 494 439
f 439 494 495
f 439 495 444
f 439 444 440
f 440 444 443
f 440 443 441
f 444 495 445
f 445 495 496
f 445 496 446
f 446 496 497
f 447 498 448
f 448 498 499
f 448 499 500
f 448 500 449
f 449 500 451
f 449 451 450
f 451 501 464
f 451 464 453
f 451 453 452
f 451 500 501
f 456 473 458
f 456 458 457
f 458 473 472
f 460 502 503
f 460 503 463
f 460 462 504
f 460 504 502
f 461 505 506
f 461 506 462
f 461 467 507
f 461 507 505
f 462 506 508
f 462 508 504
f 463 503 470
f 464 501 465
f 465 501 509
f 465 509 466
f 466 509 510
f 466 510 467
f 467 511 507
f 467 510 512
f 467 512 511
f 468 469 514
f 468 514 515
f 468 515 516
f 468 516 513
f 470 503 471
f 474 517 518
f 474 518 519
f 474 519 520
f 474 520 475
f 478 521 479
f 479 521 480
f 480 521 522
f 480 522 523
f 480 523 481
f 481 523 488
f 482 524 483
f 483 524 525
f 483 525 487
f 487 525 526
f 487 526 490
f 490 526 527
f 490 527 528
f 490 528 491
f 491 528 529
f 491 529 530
f 491 530 531
f 491 531 492
f 492 531 532
f 492 532 493
f 493 532 533
f 493 533 494
f 494 496 495
f 494 533 497
f 494 497 496
f 497 533 534
f 499 535 500
f 500 535 501
f 501 535 536
f 501 536 537
f 501 537 509
f 509 537 538
f 509 538 539
f 509 539 510
f 510 539 512
f 513 516 541
f 513 541 542
f 513 542 543
f 513 543 544
f 513 544 545
f 513 545 546
f 513 546 547
f 513 547 540
f 517 548 518
f 518 548 550
f 518 550 551
f 518 551 549
f 530 552 553
f 530 553 531
f 531 553 532
f 532 553 554
f 532 554 534
f 532 534 533
f 534 554 553
f 534 553 552
f 540 547 555
f 547 556 555
f 549 551 557
f 551 558 557
f 555 556 560
f 555 560 561
f 555 561 559
f 557 558 562
f 557 562 563
f 559 561 564
f 561 565 564
f 562 566 563
f 563 567 565
f 563 566 567
f 564 565 567

