# https://github.com/mikedh/trimesh
v -0.00505117 -0.02796883 0.03032921
v -0.00356395 -0.02797606 0.03032921
v -0.00356395 -0.02212218 0.01415694
v -0.00462402 -0.02221794 0.01415694
v -0.00508522 -0.02233718 0.01415694
v -0.00653980 -0.02840245 0.03032921
v -0.00315667 -0.02216916 0.01415694
v -0.00207674 -0.02820371 0.03032921
v -0.00648729 -0.02283223 0.01415694
v -0.00790923 -0.02903300 0.03032921
v -0.00219026 -0.02238235 0.01415694
v -0.00193483 -0.02825971 0.03032921
v -0.00810506 -0.02373380 0.01415694
v -0.00856911 -0.02934377 0.03032921
v -0.00202565 -0.02247088 0.01415694
v -0.00055830 -0.02886678 0.03032921
v -0.00903457 -0.02446554 0.01415694
v -0.00946598 -0.03008815 0.03032921
v -0.00132603 -0.02298400 0.01415694
v -0.00013967 -0.02917212 0.03032921
v -0.00980514 -0.02536349 0.01415694
v -0.01021101 -0.03079639 0.03032921
v -0.00954971 -0.03016764 0.03032921
v -0.00048876 -0.02383679 0.01415694
v 0.00028748 -0.02949011 0.03032921
v 0.00080829 -0.02988941 0.03032921
v 0.00175341 -0.03064282 0.03032921
v -0.01036285 -0.02607897 0.01415694
v -0.01063390 -0.03153897 0.03032921
v -0.00045329 -0.02387834 0.01415694
v 0.00239059 -0.03145766 0.03032921
v 0.00018247 -0.02465344 0.01415694
v -0.01068782 -0.02700944 0.01415694
v -0.01115329 -0.03295908 0.03032921
v 0.00176760 -0.02740332 0.01415694
v 0.00143269 -0.02665893 0.01415694
v 0.00072598 -0.02549177 0.01415694
v 0.00296532 -0.03295908 0.03032921
v -0.01090495 -0.02849640 0.01415694
v -0.01144420 -0.03444784 0.03032921
v -0.01118877 -0.03312530 0.03032921
v 0.00177186 -0.02741596 0.01415694
v 0.00304479 -0.03444784 0.03032921
v 0.00287450 -0.03295908 0.01859304
v 0.00267157 -0.03147212 0.01859304
v 0.00205284 -0.02852711 0.01415694
v -0.01079142 -0.02998516 0.01415694
v -0.01096881 -0.02998516 0.01561664
v -0.01113910 -0.03147212 0.01859304
v -0.01104686 -0.02998516 0.01710484
v -0.01133068 -0.03295908 0.02305605
v -0.01145130 -0.03444784 0.02752064
v -0.01142717 -0.03461406 0.03032921
v 0.00300222 -0.03444784 0.02752064
v 0.00278368 -0.03593660 0.03032921
v 0.00277800 -0.03593660 0.02900883
v 0.00297100 -0.03444784 0.02603244
v 0.00292559 -0.03444784 0.02454424
v 0.00282057 -0.03444784 0.02156943
v 0.00275104 -0.03444784 0.02008123
v 0.00263041 -0.03444784 0.01859304
v 0.00272549 -0.03295908 0.01710484
v 0.00238775 -0.03147212 0.01415694
v 0.00228132 -0.03001407 0.01415694
v 0.00263183 -0.03147212 0.01710484
v -0.01064383 -0.03060849 0.01415694
v -0.01076587 -0.03147212 0.01561664
v -0.01101138 -0.03147212 0.01710484
v -0.01129662 -0.03444784 0.02305605
v -0.01141582 -0.03444784 0.02454424
v -0.01144988 -0.03444784 0.02603244
v -0.01128526 -0.03593660 0.02900883
v -0.01128385 -0.03593660 0.03032921
v 0.00205994 -0.03705859 0.03032921
v 0.00206561 -0.03707485 0.02900883
v 0.00204716 -0.03707305 0.02752064
v 0.00274394 -0.03593660 0.02752064
v 0.00267866 -0.03593660 0.02603244
v 0.00257791 -0.03593660 0.02454424
v 0.00230828 -0.03444784 0.01710484
v 0.00243742 -0.03593660 0.02305605
v 0.00229125 -0.03593660 0.02156943
v 0.00202446 -0.03571979 0.01859304
v 0.00240052 -0.03295908 0.01561664
v 0.00238633 -0.03150103 0.01415694
v -0.01044516 -0.03143779 0.01415694
v -0.01084109 -0.03444784 0.02008123
v -0.01109510 -0.03444784 0.02156943
v -0.01112349 -0.03593660 0.02454424
v -0.01123418 -0.03593660 0.02603244
v -0.01126965 -0.03593660 0.02752064
v -0.01061687 -0.03722662 0.02752064
v -0.01062396 -0.03723565 0.02900883
v -0.01121005 -0.03608114 0.03032921
v 0.00196911 -0.03714170 0.03032921
v 0.00052447 -0.03850761 0.02752064
v 0.00126950 -0.03781743 0.02752064
v 0.00200175 -0.03703149 0.02603244
v 0.00049467 -0.03849135 0.02603244
v 0.00123970 -0.03777587 0.02603244
v 0.00192796 -0.03695561 0.02454424
v 0.00169665 -0.03380283 0.01415694
v 0.00199892 -0.03316505 0.01415694
v 0.00203581 -0.03306929 0.01415694
v 0.00181301 -0.03544155 0.01710484
v 0.00182578 -0.03685082 0.02305605
v 0.00171510 -0.03674422 0.02156943
v 0.00205284 -0.03602874 0.02020789
v 0.00165124 -0.03668640 0.02078892
v 0.00141708 -0.03646417 0.01859304
v -0.01042245 -0.03149741 0.01415694
v -0.01029757 -0.03230142 0.01473956
v -0.01041394 -0.03257424 0.01561664
v -0.01045367 -0.03556260 0.02008123
v -0.01058707 -0.03602874 0.02156943
v -0.01089643 -0.03593660 0.02305605
v -0.01040968 -0.03690141 0.02305605
v -0.01053172 -0.03708750 0.02454424
v -0.01059842 -0.03719229 0.02603244
v -0.01013012 -0.03797100 0.02752064
v -0.01061971 -0.03720675 0.03032921
v -0.01013579 -0.03798004 0.02900883
v 0.00121557 -0.03780117 0.03032921
v 0.00050460 -0.03847870 0.02900883
v -0.00033408 -0.03925199 0.02752064
v -0.00034260 -0.03923392 0.02603244
v 0.00041236 -0.03841546 0.02454424
v -0.00041355 -0.03915985 0.02454424
v 0.00115739 -0.03769819 0.02454424
v 0.00166259 -0.03522474 0.01631008
v 0.00137025 -0.03440447 0.01415694
v 0.00119996 -0.03618593 0.01710484
v 0.00054008 -0.03566378 0.01415694
v 0.00028464 -0.03829080 0.02305605
v 0.00019666 -0.03820588 0.02209663
v 0.00010158 -0.03811916 0.02110556
v 0.00067348 -0.03709292 0.01859304
v 0.00045636 -0.03691044 0.01710484
v -0.00988036 -0.03278021 0.01415694
v -0.01030751 -0.03528437 0.01920098
v -0.01003220 -0.03630698 0.02008123
v -0.01020107 -0.03658523 0.02107389
v -0.01031602 -0.03676228 0.02206655
v -0.00988745 -0.03764579 0.02305605
v -0.01003504 -0.03783188 0.02454424
v -0.01010599 -0.03793667 0.02603244
v -0.00938651 -0.03888522 0.02752064
v -0.00939219 -0.03889606 0.02900883
v -0.01011309 -0.03795113 0.03032921
v -0.01003078 -0.03805411 0.03032921
v 0.00047197 -0.03843534 0.03032921
v -0.00036672 -0.03922308 0.02900883
v -0.00111175 -0.03979582 0.02900883
v -0.00107769 -0.03981389 0.02752064
v -0.00108620 -0.03981027 0.02603244
v -0.00115858 -0.03976872 0.02454424
v -0.00125933 -0.03970368 0.02352784
v 0.00134613 -0.03444423 0.01415694
v 0.00026052 -0.03676048 0.01609635
v 0.00005333 -0.03659607 0.01510527
v -0.00020211 -0.03640816 0.01415694
v -0.00077968 -0.03858169 0.02008123
v -0.00003607 -0.03800172 0.02008123
v -0.00026455 -0.03783730 0.01859304
v -0.00100815 -0.03839197 0.01859304
v -0.00119406 -0.03825466 0.01759088
v -0.00983778 -0.03286512 0.01415694
v -0.00985339 -0.03286151 0.01419811
v -0.00910979 -0.03416418 0.01415694
v -0.00909560 -0.03418947 0.01415694
v -0.00897213 -0.03544155 0.01590162
v -0.00902464 -0.03692670 0.01884635
v -0.00918500 -0.03742356 0.02022847
v -0.00877204 -0.03816794 0.02082375
v -0.00974270 -0.03732419 0.02156943
v -0.00914243 -0.03852929 0.02305605
v -0.00929143 -0.03872623 0.02454424
v -0.00936239 -0.03883644 0.02603244
v -0.00871812 -0.03962960 0.02752064
v -0.00873656 -0.03963864 0.02900883
v -0.00936948 -0.03884909 0.03032921
v 0.00037405 -0.03851845 0.03032921
v -0.00044193 -0.03917972 0.03032921
v -0.00118554 -0.03975065 0.03032921
v -0.00207674 -0.04009394 0.02900883
v -0.00207674 -0.04012103 0.02752064
v -0.00207674 -0.04010478 0.02603244
v -0.00207674 -0.04002528 0.02454424
v -0.00201430 -0.03982834 0.02304021
v -0.00147788 -0.03960973 0.02253518
v -0.00094571 -0.03690321 0.01415694
v -0.00201430 -0.03953384 0.02142694
v -0.00286150 -0.03965489 0.02083641
v -0.00207674 -0.03834138 0.01737557
v -0.00207674 -0.03718506 0.01415694
v -0.00907715 -0.03421838 0.01415694
v -0.00875359 -0.03516873 0.01490896
v -0.00876637 -0.03667737 0.01785527
v -0.00599770 -0.03828718 0.01752755
v -0.00653980 -0.03894123 0.02008123
v -0.00802702 -0.03875874 0.02156943
v -0.00741680 -0.03971271 0.02361649
v -0.00795890 -0.03928812 0.02309404
v -0.00840308 -0.03947061 0.02454424
v -0.00891395 -0.03829441 0.02156943
v -0.00783827 -0.03567462 0.01415694
v -0.00778151 -0.03572702 0.01415694
v -0.00721103 -0.03663581 0.01499920
v -0.00620915 -0.03688153 0.01415694
v -0.00618361 -0.03689599 0.01415694
v -0.00862304 -0.03958082 0.02603244
v -0.00787943 -0.03988797 0.02603244
v -0.00797309 -0.03990964 0.02752064
v -0.00799154 -0.03990964 0.02900883
v -0.00789930 -0.03988616 0.03032921
v -0.00864290 -0.03959346 0.03032921
v -0.00129339 -0.03978318 0.03032921
v -0.00207674 -0.04000541 0.03032921
v -0.00356395 -0.04040831 0.02900883
v -0.00356395 -0.04042638 0.02752064
v -0.00356395 -0.04039024 0.02603244
v -0.00356395 -0.04030713 0.02454424
v -0.00356395 -0.04012284 0.02305605
v -0.00246983 -0.03974704 0.02182907
v -0.00344049 -0.03981208 0.02142694
v -0.00385345 -0.03968200 0.02074617
v -0.00344049 -0.03947241 0.02018256
v -0.00356395 -0.03893400 0.01859304
v -0.00356395 -0.03841908 0.01719825
v -0.00356395 -0.03728444 0.01415694
v -0.00855350 -0.03493566 0.01415694
v -0.00505117 -0.03721940 0.01415694
v -0.00505117 -0.03811916 0.01649214
v -0.00505117 -0.03840101 0.01723624
v -0.00505117 -0.03889425 0.01859304
v -0.00547973 -0.03960973 0.02098048
v -0.00604028 -0.03975065 0.02197314
v -0.00615097 -0.03690863 0.01415694
v -0.00653696 -0.03940556 0.02151402
v -0.00653696 -0.03986448 0.02309404
v -0.00653980 -0.04016620 0.02454424
v -0.00765805 -0.03980847 0.02454424
v -0.00692721 -0.03644430 0.01415694
v -0.00653980 -0.04032159 0.02603244
v -0.00653980 -0.04036856 0.02752064
v -0.00653980 -0.04037037 0.02900883
v -0.00653980 -0.04030533 0.03032921
v -0.00356395 -0.04031797 0.03032921
v -0.00505117 -0.04057092 0.02900883
v -0.00505117 -0.04057815 0.02752064
v -0.00505117 -0.04053117 0.02603244
v -0.00505117 -0.04040650 0.02454424
v -0.00505117 -0.04015898 0.02305605
v -0.00448778 -0.03968200 0.02074617
v -0.00501143 -0.03942725 0.02018256
v -0.00501143 -0.03981389 0.02151402
v -0.00505117 -0.04048058 0.03032921
f 1 2 3
f 1 3 4
f 1 4 5
f 1 5 6
f 1 6 10
f 1 10 14
f 1 14 18
f 1 18 23
f 1 23 22
f 1 22 29
f 1 29 34
f 1 34 41
f 1 41 40
f 1 40 53
f 1 53 73
f 1 73 94
f 1 94 121
f 1 121 149
f 1 149 150
f 1 150 181
f 1 181 216
f 1 216 215
f 1 215 247
f 1 247 257
f 1 257 248
f 1 248 218
f 1 218 217
f 1 217 184
f 1 184 183
f 1 183 182
f 1 182 151
f 1 151 123
f 1 123 95
f 1 95 74
f 1 74 55
f 1 55 43
f 1 43 38
f 1 38 31
f 1 31 27
f 1 27 26
f 1 26 25
f 1 25 20
f 1 20 16
f 1 16 12
f 1 12 8
f 1 8 2
f 2 7 3
f 2 8 7
f 3 7 11
f 3 11 15
f 3 15 19
f 3 19 24
f 3 24 30
f 3 30 32
f 3 32 37
f 3 37 36
f 3 36 35
f 3 35 42
f 3 42 46
f 3 46 64
f 3 64 63
f 3 63 85
f 3 85 104
f 3 104 103
f 3 103 102
f 3 102 131
f 3 131 158
f 3 158 133
f 3 133 161
f 3 161 191
f 3 191 195
f 3 195 230
f 3 230 232
f 3 232 238
f 3 238 210
f 3 210 209
f 3 209 243
f 3 243 207
f 3 207 206
f 3 206 231
f 3 231 196
f 3 196 170
f 3 170 169
f 3 169 167
f 3 167 139
f 3 139 111
f 3 111 86
f 3 86 66
f 3 66 47
f 3 47 39
f 3 39 33
f 3 33 28
f 3 28 21
f 3 21 17
f 3 17 13
f 3 13 9
f 3 9 5
f 3 5 4
f 5 9 6
f 6 9 10
f 7 8 11
f 8 12 11
f 9 13 14
f 9 14 10
f 11 12 16
f 11 16 15
f 13 17 14
f 14 17 18
f 15 16 20
f 15 20 19
f 17 21 22
f 17 22 23
f 17 23 18
f 19 20 25
f 19 25 26
f 19 26 27
f 19 27 24
f 21 28 22
f 22 28 29
f 24 27 30
f 27 31 32
f 27 32 30
f 28 33 34
f 28 34 29
f 31 35 36
f 31 36 37
f 31 37 32
f 31 38 35
f 33 39 40
f 33 40 41
f 33 41 34
f 35 38 42
f 38 43 44
f 38 44 45
f 38 45 46
f 38 46 42
f 39 47 48
f 39 48 49
f 39 49 50
f 39 50 51
f 39 51 40
f 40 51 52
f 40 52 53
f 43 54 44
f 43 55 56
f 43 56 54
f 44 54 57
f 44 57 58
f 44 58 59
f 44 59 60
f 44 60 61
f 44 61 62
f 44 62 63
f 44 63 64
f 44 64 65
f 44 65 45
f 45 65 46
f 46 65 64
f 47 66 67
f 47 67 68
f 47 68 48
f 48 68 49
f 49 68 69
f 49 69 70
f 49 70 51
f 49 51 50
f 51 70 71
f 51 71 52
f 52 71 72
f 52 72 73
f 52 73 53
f 54 56 57
f 55 74 75
f 55 75 56
f 56 75 76
f 56 76 77
f 56 77 57
f 57 77 58
f 58 77 59
f 59 77 78
f 59 78 60
f 60 78 79
f 60 79 61
f 61 80 62
f 61 79 81
f 61 81 82
f 61 82 83
f 61 83 80
f 62 80 84
f 62 84 85
f 62 85 63
f 66 86 67
f 67 86 87
f 67 87 88
f 67 88 68
f 68 88 69
f 69 88 89
f 69 89 70
f 70 89 90
f 70 90 91
f 70 91 71
f 71 91 72
f 72 91 92
f 72 92 93
f 72 93 73
f 73 93 94
f 74 95 75
f 75 95 96
f 75 96 97
f 75 97 76
f 76 98 78
f 76 78 77
f 76 97 99
f 76 99 100
f 76 100 98
f 78 98 79
f 79 98 101
f 79 101 81
f 80 102 103
f 80 103 104
f 80 104 84
f 80 83 105
f 80 105 102
f 81 101 82
f 82 101 106
f 82 106 107
f 82 107 108
f 82 108 83
f 83 108 109
f 83 109 110
f 83 110 105
f 84 104 85
f 86 111 112
f 86 112 113
f 86 113 87
f 87 114 115
f 87 115 116
f 87 116 88
f 87 113 112
f 87 112 114
f 88 116 89
f 89 116 117
f 89 117 118
f 89 118 119
f 89 119 90
f 90 119 92
f 90 92 91
f 92 119 120
f 92 120 93
f 93 121 94
f 93 120 122
f 93 122 121
f 95 123 124
f 95 124 96
f 96 124 125
f 96 125 126
f 96 126 99
f 96 99 97
f 98 100 101
f 99 127 100
f 99 126 128
f 99 128 127
f 100 127 129
f 100 129 101
f 101 129 106
f 102 105 130
f 102 130 131
f 105 110 132
f 105 132 133
f 105 133 130
f 106 129 127
f 106 127 107
f 107 109 108
f 107 127 109
f 109 127 134
f 109 134 135
f 109 135 136
f 109 136 110
f 110 137 138
f 110 138 132
f 110 136 137
f 111 139 112
f 112 139 140
f 112 140 114
f 114 140 141
f 114 141 142
f 114 142 115
f 115 142 143
f 115 143 116
f 116 143 117
f 117 143 144
f 117 144 145
f 117 145 118
f 118 145 146
f 118 146 119
f 119 146 120
f 120 146 147
f 120 147 148
f 120 148 122
f 121 122 149
f 122 148 150
f 122 150 149
f 123 151 152
f 123 152 124
f 124 152 125
f 125 152 153
f 125 153 154
f 125 154 155
f 125 155 126
f 126 155 156
f 126 156 128
f 127 128 134
f 128 156 157
f 128 157 136
f 128 136 135
f 128 135 134
f 130 158 131
f 130 133 158
f 132 138 159
f 132 159 160
f 132 160 133
f 133 160 161
f 136 157 162
f 136 162 163
f 136 163 137
f 137 163 164
f 137 164 138
f 138 164 165
f 138 165 166
f 138 166 159
f 139 167 168
f 139 168 140
f 140 168 167
f 140 167 169
f 140 169 170
f 140 170 141
f 141 170 171
f 141 171 172
f 141 172 173
f 141 173 142
f 142 173 174
f 142 174 175
f 142 175 144
f 142 144 143
f 144 175 176
f 144 176 177
f 144 177 145
f 145 177 178
f 145 178 146
f 146 178 147
f 147 178 179
f 147 179 180
f 147 180 148
f 148 181 150
f 148 180 181
f 151 182 152
f 152 183 153
f 152 182 183
f 153 183 184
f 153 184 185
f 153 185 154
f 154 185 186
f 154 186 155
f 155 186 187
f 155 187 156
f 156 187 188
f 156 188 157
f 157 188 189
f 157 189 190
f 157 190 165
f 157 165 162
f 159 166 160
f 160 191 161
f 160 166 191
f 162 165 164
f 162 164 163
f 165 190 166
f 166 190 192
f 166 192 193
f 166 193 194
f 166 194 195
f 166 195 191
f 170 196 171
f 171 196 197
f 171 197 172
f 172 197 198
f 172 198 174
f 172 174 173
f 174 199 200
f 174 200 201
f 174 201 202
f 174 202 203
f 174 203 204
f 174 204 205
f 174 205 175
f 174 198 206
f 174 206 207
f 174 207 208
f 174 208 209
f 174 209 210
f 174 210 199
f 175 205 176
f 176 205 204
f 176 204 177
f 177 204 211
f 177 211 178
f 178 211 179
f 179 211 212
f 179 212 213
f 179 213 180
f 180 213 214
f 180 214 215
f 180 215 216
f 180 216 181
f 184 217 185
f 185 217 218
f 185 218 219
f 185 219 186
f 186 219 220
f 186 220 187
f 187 220 221
f 187 221 188
f 188 221 222
f 188 222 189
f 189 222 223
f 189 223 224
f 189 224 190
f 190 224 193
f 190 193 192
f 193 224 223
f 193 223 225
f 193 225 226
f 193 226 227
f 193 227 228
f 193 228 194
f 194 228 195
f 195 228 229
f 195 229 230
f 196 231 197
f 197 231 206
f 197 206 198
f 199 232 233
f 199 233 234
f 199 234 235
f 199 235 236
f 199 236 237
f 199 237 200
f 199 210 238
f 199 238 232
f 200 237 239
f 200 239 202
f 200 202 201
f 202 237 240
f 202 240 241
f 202 241 242
f 202 242 204
f 202 204 203
f 202 239 237
f 204 242 211
f 207 243 208
f 208 243 209
f 211 242 212
f 212 244 213
f 212 242 244
f 213 244 245
f 213 245 214
f 214 245 246
f 214 246 215
f 215 246 247
f 218 248 219
f 219 249 220
f 219 248 257
f 219 257 249
f 220 249 250
f 220 250 221
f 221 250 251
f 221 251 222
f 222 251 252
f 222 252 223
f 223 253 225
f 223 252 253
f 225 253 226
f 226 254 228
f 226 228 227
f 226 253 254
f 228 254 235
f 228 235 234
f 228 234 229
f 229 234 230
f 230 234 233
f 230 233 232
f 235 254 255
f 235 255 236
f 236 255 254
f 236 254 256
f 236 256 237
f 237 256 253
f 237 253 241
f 237 241 240
f 241 253 252
f 241 252 244
f 241 244 242
f 244 252 251
f 244 251 250
f 244 250 245
f 245 250 246
f 246 250 249
f 246 249 247
f 247 249 257
f 253 256 254

