# https://github.com/mikedh/trimesh
v 0.00982943 0.02921670 0.00190322
v 0.01131761 0.02921670 0.00199585
v 0.00982943 0.02805293 0.00212738
v 0.00834125 0.02656471 0.00259606
v 0.00834125 0.02805293 0.00232745
v 0.00834125 0.02921670 0.00216999
v 0.01097983 0.02553783 0.00285912
v 0.00982943 0.02656471 0.00243675
v 0.01280965 0.02921670 0.00229966
v 0.00834125 0.02548600 0.00284985
v 0.00757690 0.02579244 0.00295730
v -0.00301987 0.02687058 0.00585278
v -0.00207408 0.02805293 0.00540817
v -0.00207408 0.02921670 0.00526182
v 0.00989313 0.02349082 0.00385021
v 0.00982943 0.02455150 0.00308142
v 0.00982943 0.02529561 0.00277575
v 0.01197195 0.02591016 0.00301473
v 0.01308567 0.02921670 0.00241081
v 0.01282317 0.02805181 0.00267202
v 0.00834125 0.02474189 0.00311477
v -0.00276123 0.02587918 0.00595651
v -0.00353524 0.02645036 0.00626403
v -0.00395023 0.02805293 0.00621216
v -0.00320517 0.02805293 0.00575830
v -0.00333450 0.02921670 0.00568234
v 0.00987769 0.02346209 0.00386503
v 0.01100492 0.02392117 0.00407992
v 0.00848795 0.02346209 0.00376685
v 0.00834125 0.02346209 0.00376499
v 0.00834125 0.02358883 0.00368719
v 0.01366473 0.02854694 0.00285542
v 0.01333081 0.02755498 0.00322406
v 0.01238308 0.02539362 0.00400582
v 0.01199704 0.02440166 0.00460418
v 0.01381722 0.02921670 0.00274241
v 0.00679517 0.02346209 0.00415958
v -0.00206443 0.02346209 0.00668455
v -0.00207408 0.02358883 0.00663268
v -0.00218796 0.02506410 0.00609916
v -0.00330168 0.02346209 0.00713286
v -0.00334029 0.02358883 0.00710507
v -0.00369930 0.02495820 0.00683275
v -0.00443471 0.02537503 0.00724586
v -0.00453122 0.02656471 0.00708099
v -0.00407762 0.02921670 0.00612695
v -0.00391548 0.02921670 0.00602876
v 0.00992015 0.02346209 0.00388726
v 0.01128480 0.02346209 0.00500432
v 0.01363385 0.02711336 0.00421516
v 0.01437118 0.02921670 0.00381687
v 0.01383845 0.02805181 0.00371683
v 0.01255487 0.02496946 0.00513956
v 0.01216304 0.02416508 0.00559527
v 0.01137166 0.02346209 0.00511547
v -0.00403902 0.02346209 0.00761636
v -0.00408341 0.02358883 0.00759413
v -0.00428608 0.02438307 0.00745519
v -0.00466054 0.02346209 0.00836292
v -0.00467598 0.02358883 0.00833699
v -0.00475319 0.02495820 0.00804059
v -0.00500991 0.02656471 0.00817582
v -0.00459298 0.02805293 0.00695687
v -0.00464124 0.02921670 0.00687165
v 0.01334432 0.02622223 0.00519884
v 0.01445032 0.02921670 0.00424480
v 0.01457964 0.02921670 0.00510066
v 0.01369368 0.02696578 0.00519884
v 0.01219971 0.02408453 0.00668826
v 0.01183298 0.02346209 0.00668826
v 0.01156082 0.02346209 0.00573607
v 0.01139289 0.02346209 0.00517476
v -0.00506588 0.02346209 0.00966339
v -0.00508132 0.02358883 0.00966339
v -0.00513923 0.02507705 0.00966339
v -0.00507167 0.02921670 0.00817582
v 0.01365701 0.02704633 0.00628626
v 0.01270349 0.02507705 0.00668826
v 0.01450629 0.02921670 0.00553414
v 0.01214181 0.02416902 0.00767009
v 0.01167470 0.02346209 0.00834255
v 0.01169207 0.02346209 0.00817027
v -0.00492112 0.02346209 0.01115280
v -0.00506202 0.02656471 0.00966339
v -0.00490760 0.02921670 0.00966339
v 0.01427660 0.02921670 0.00669937
v 0.01349680 0.02747781 0.00727735
v 0.01124234 0.02346209 0.00976898
v -0.00451964 0.02346209 0.01240140
v -0.00447524 0.02921670 0.01071191
v 0.01416658 0.02921670 0.00696058
v 0.01076172 0.02346209 0.01091198
v -0.00417413 0.02346209 0.01314981
v -0.00326115 0.02346209 0.01463923
v -0.00294846 0.02346209 0.01511347
v -0.00395602 0.02921670 0.01145291
v 0.01377089 0.02921670 0.00777198
v 0.00836635 0.02346209 0.01643616
v 0.00933916 0.02346209 0.01424279
v -0.00233272 0.02346209 0.01583780
v -0.00200266 0.02346209 0.01619719
v -0.00321096 0.02921670 0.01221800
v 0.00690133 0.02346209 0.01925754
v 0.00726999 0.02346209 0.01859063
v 0.01368403 0.02921670 0.00790906
v -0.00054729 0.02346209 0.01763844
v -0.00197178 0.02921670 0.01304422
v 0.00090807 0.02346209 0.01896114
v 0.00238660 0.02346209 0.02016712
v 0.00536489 0.02346209 0.02062654
v 0.01327483 0.02921670 0.00849445
v 0.01309725 0.02921670 0.00874084
v 0.01251626 0.02921670 0.00939107
v 0.01236378 0.02921670 0.00955409
v 0.01176542 0.02921670 0.01013578
v 0.01160328 0.02921670 0.01028398
v -0.00154714 0.02921670 0.01324429
v 0.00387864 0.02346209 0.02082661
v -0.00072487 0.02921670 0.01361108
v 0.01102229 0.02921670 0.01075451
v 0.01073855 0.02921670 0.01094903
v 0.00975416 0.02921670 0.01157518
v 0.00912877 0.02921670 0.01191789
v 0.00848216 0.02921670 0.01224023
v 0.00823895 0.02921670 0.01235879
v 0.00684535 0.02921670 0.01291084
v 0.00548263 0.02921670 0.01332580
v 0.00489972 0.02921670 0.01347771
v 0.00458702 0.02921670 0.01355736
v 0.00387864 0.02921670 0.01369630
v 0.00239046 0.02921670 0.01388896
v 0.00090228 0.02921670 0.01391860
f 1 2 3
f 1 3 4
f 1 4 5
f 1 5 6
f 1 6 14
f 1 14 26
f 1 26 47
f 1 47 46
f 1 46 64
f 1 64 76
f 1 76 85
f 1 85 90
f 1 90 96
f 1 96 102
f 1 102 107
f 1 107 117
f 1 117 119
f 1 119 132
f 1 132 131
f 1 131 130
f 1 130 129
f 1 129 128
f 1 128 127
f 1 127 126
f 1 126 125
f 1 125 124
f 1 124 123
f 1 123 122
f 1 122 121
f 1 121 120
f 1 120 116
f 1 116 115
f 1 115 114
f 1 114 113
f 1 113 112
f 1 112 111
f 1 111 105
f 1 105 97
f 1 97 91
f 1 91 86
f 1 86 79
f 1 79 67
f 1 67 66
f 1 66 51
f 1 51 36
f 1 36 19
f 1 19 9
f 1 9 2
f 2 7 8
f 2 8 3
f 2 9 7
f 3 8 4
f 4 10 11
f 4 11 5
f 4 8 10
f 5 11 12
f 5 12 13
f 5 13 6
f 6 13 14
f 7 15 16
f 7 16 17
f 7 17 8
f 7 9 18
f 7 18 15
f 8 17 10
f 9 19 20
f 9 20 18
f 10 21 11
f 10 17 21
f 11 21 22
f 11 22 12
f 12 22 23
f 12 23 24
f 12 24 25
f 12 25 13
f 13 25 14
f 14 25 26
f 15 27 16
f 15 18 28
f 15 28 27
f 16 27 29
f 16 29 30
f 16 30 31
f 16 31 21
f 16 21 17
f 18 20 32
f 18 32 33
f 18 33 34
f 18 34 35
f 18 35 28
f 19 36 32
f 19 32 20
f 21 31 37
f 21 37 38
f 21 38 39
f 21 39 40
f 21 40 22
f 22 40 39
f 22 39 41
f 22 41 42
f 22 42 43
f 22 43 23
f 23 43 44
f 23 44 24
f 24 44 45
f 24 45 46
f 24 46 25
f 25 47 26
f 25 46 47
f 27 28 48
f 27 48 49
f 27 49 55
f 27 55 72
f 27 72 71
f 27 71 70
f 27 70 82
f 27 82 81
f 27 81 88
f 27 88 92
f 27 92 99
f 27 99 98
f 27 98 104
f 27 104 103
f 27 103 110
f 27 110 118
f 27 118 109
f 27 109 108
f 27 108 106
f 27 106 101
f 27 101 100
f 27 100 95
f 27 95 94
f 27 94 93
f 27 93 89
f 27 89 83
f 27 83 73
f 27 73 59
f 27 59 56
f 27 56 41
f 27 41 38
f 27 38 37
f 27 37 30
f 27 30 29
f 28 49 48
f 28 35 49
f 30 37 31
f 32 50 33
f 32 36 51
f 32 51 52
f 32 52 50
f 33 50 34
f 34 50 35
f 35 50 53
f 35 53 54
f 35 54 55
f 35 55 49
f 38 41 39
f 41 56 42
f 42 56 57
f 42 57 43
f 43 57 58
f 43 58 44
f 44 58 59
f 44 59 60
f 44 60 61
f 44 61 45
f 45 61 62
f 45 62 63
f 45 63 46
f 46 63 64
f 50 65 53
f 50 52 51
f 50 51 66
f 50 66 67
f 50 67 68
f 50 68 65
f 53 65 54
f 54 69 70
f 54 70 71
f 54 71 72
f 54 72 55
f 54 65 69
f 56 59 57
f 57 59 58
f 59 73 60
f 60 73 62
f 60 62 61
f 62 73 74
f 62 74 75
f 62 75 76
f 62 76 64
f 62 64 63
f 65 68 77
f 65 77 78
f 65 78 69
f 67 79 77
f 67 77 68
f 69 78 80
f 69 80 81
f 69 81 82
f 69 82 70
f 73 83 74
f 74 83 75
f 75 83 84
f 75 84 76
f 76 84 85
f 77 79 86
f 77 86 87
f 77 87 88
f 77 88 81
f 77 81 80
f 77 80 78
f 83 85 84
f 83 89 85
f 85 89 90
f 86 91 92
f 86 92 88
f 86 88 87
f 89 93 90
f 90 93 94
f 90 94 95
f 90 95 96
f 91 97 98
f 91 98 99
f 91 99 92
f 95 100 96
f 96 100 101
f 96 101 102
f 97 103 104
f 97 104 98
f 97 105 103
f 101 106 102
f 102 106 108
f 102 108 109
f 102 109 107
f 103 105 111
f 103 111 112
f 103 112 113
f 103 113 114
f 103 114 115
f 103 115 116
f 103 116 110
f 107 109 117
f 109 118 119
f 109 119 117
f 110 116 120
f 110 120 121
f 110 121 122
f 110 122 123
f 110 123 124
f 110 124 125
f 110 125 126
f 110 126 127
f 110 127 128
f 110 128 129
f 110 129 130
f 110 130 118
f 118 130 131
f 118 131 132
f 118 132 119

