# https://github.com/mikedh/trimesh
v 0.01266643 0.01137436 0.02783069
v 0.01266204 0.01137436 0.02752091
v 0.01265324 0.01137436 0.02900785
v 0.01254333 0.01019523 0.02900785
v 0.01253234 0.01019523 0.02752091
v 0.01263346 0.01137436 0.02634207
v 0.01264445 0.01137436 0.02931763
v 0.01249937 0.01019523 0.03049647
v 0.01202457 0.00814291 0.03198509
v 0.01203996 0.00806218 0.03049647
v 0.01204875 0.00801969 0.02900785
v 0.01245980 0.01019523 0.02603396
v 0.01256971 0.01137436 0.02485512
v 0.01221141 0.00885676 0.02752091
v 0.01259609 0.01137436 0.03049647
v 0.01258290 0.01137436 0.03080458
v 0.01243562 0.01019523 0.03198509
v 0.01198500 0.00836387 0.03347204
v 0.01123323 0.00572942 0.03648947
v 0.01122444 0.00568905 0.03648947
v 0.01173441 0.00721873 0.03347204
v 0.01087933 0.00424223 0.03648947
v 0.01179376 0.00721873 0.03198509
v 0.01182014 0.00721873 0.03049647
v 0.01181355 0.00721873 0.02900785
v 0.01201798 0.00811317 0.02752091
v 0.01228615 0.01005289 0.02441976
v 0.01223120 0.01036945 0.02305672
v 0.01242903 0.01137436 0.02305672
v 0.01245101 0.01137436 0.02331627
v 0.01216525 0.00908622 0.02603396
v 0.01251036 0.01137436 0.03198509
v 0.01248618 0.01137436 0.03229320
v 0.01231692 0.01019523 0.03347204
v 0.01212788 0.00910746 0.03347204
v 0.01154317 0.00717624 0.03648947
v 0.01063094 0.00329468 0.03648947
v 0.01137172 0.00572942 0.03049647
v 0.01042211 0.00257233 0.03648947
v 0.00996710 0.00126572 0.03198509
v 0.00992093 0.00126572 0.03049647
v 0.01132775 0.00572942 0.02900785
v 0.01173222 0.00721873 0.02752091
v 0.01194983 0.00834262 0.02603396
v 0.01210810 0.00928805 0.02483168
v 0.01205754 0.00946439 0.02383871
v 0.01200259 0.00962585 0.02305672
v 0.01213008 0.01072425 0.02156978
v 0.01225318 0.01137436 0.02156978
v 0.01235649 0.01137436 0.03347204
v 0.01207952 0.01071363 0.03584814
v 0.01203776 0.00972146 0.03545631
v 0.01180256 0.00866555 0.03648947
v 0.01195862 0.01010600 0.03648947
v 0.01041552 0.00255108 0.03648947
v 0.01001546 0.00126572 0.03648947
v 0.00999128 0.00126572 0.03347204
v 0.00940657 -0.00019172 0.03198509
v 0.00938458 -0.00014498 0.03049647
v 0.00934941 -0.00007912 0.02900785
v 0.00984620 0.00126572 0.02900785
v 0.01158714 0.00721873 0.02603396
v 0.01189927 0.00875691 0.02441976
v 0.00680395 -0.00468516 0.01938457
v 0.01206414 0.01092821 0.02081123
v 0.01209271 0.01137436 0.02051987
v 0.01231912 0.01137436 0.03378517
v 0.01207952 0.01112367 0.03584814
v 0.01196522 0.01020798 0.03648947
v 0.01180695 0.00870592 0.03648947
v 0.01000007 0.00122323 0.03648947
v 0.00944174 -0.00024484 0.03648947
v 0.00935381 -0.00036806 0.03338497
v 0.00908344 -0.00096081 0.03283071
v 0.00904827 -0.00088858 0.03049647
v 0.00901969 -0.00082271 0.02900785
v 0.00633794 -0.00588341 0.01938457
v 0.00969452 0.00126572 0.02752091
v 0.01176079 0.01137436 0.01938457
v 0.01190807 0.01137436 0.01983836
v 0.01193444 0.01137436 0.01992375
v 0.01211469 0.01137436 0.03543119
v 0.01202017 0.01137436 0.03610601
v 0.01194763 0.01137436 0.03648947
v 0.01194983 0.01129363 0.03648947
v 0.00910762 -0.00101605 0.03648947
v 0.00909003 -0.00097568 0.03382200
v 0.00876690 -0.00175964 0.03648947
v 0.00874932 -0.00179789 0.03648947
v 0.00806349 -0.00322346 0.03648947
v 0.00616648 -0.00622971 0.01938457
v -0.00753682 0.01137436 0.01938457
v -0.00854797 0.01137436 0.03648947
v 0.00765024 -0.00403504 0.03648947
v 0.00599283 -0.00679909 0.03648947
v 0.00590490 -0.00662700 0.01938457
v 0.00719302 -0.00482113 0.03648947
v 0.00647203 -0.00603850 0.03648947
v -0.00768629 0.01022710 0.01938457
v -0.00786654 0.01019523 0.02008115
v -0.00769948 0.01137436 0.02008115
v -0.00856775 0.01137436 0.03623159
v -0.00878097 0.01096220 0.03585483
v -0.00889967 0.01042256 0.03648947
v 0.00516632 -0.00780613 0.03648947
v 0.00464756 -0.00837126 0.01938457
v -0.00765991 0.00870592 0.01938457
v -0.00788412 0.00870592 0.02008115
v -0.00824242 0.00870592 0.02156978
v -0.00815889 0.01019523 0.02156978
v -0.00797205 0.01137436 0.02156978
v -0.00860951 0.01137436 0.03537593
v -0.00878976 0.01098770 0.03496066
v -0.00902497 0.01019523 0.03496066
v -0.00937008 0.00874204 0.03648947
v -0.00894363 0.01029721 0.03639067
v -0.00863589 0.01137436 0.03421718
v -0.00894144 0.01027809 0.03648947
v 0.00461459 -0.00843288 0.03648947
v 0.00458162 -0.00842650 0.01938457
v -0.00776762 0.00721873 0.02008115
v -0.00751923 0.00721873 0.01938457
v -0.00821605 0.00721873 0.02156978
v -0.00855896 0.00721873 0.02305672
v -0.00874360 0.00721873 0.02393415
v -0.00888868 0.00721873 0.02467930
v -0.00851719 0.00870592 0.02305672
v -0.00837651 0.01019523 0.02305672
v -0.00871283 0.00870592 0.02412839
v -0.00884692 0.00870592 0.02487187
v -0.00878537 0.00954300 0.02521179
v -0.00861831 0.01010176 0.02464748
v -0.00816109 0.01137436 0.02305672
v -0.00880295 0.01101531 0.03347204
v -0.00904255 0.01019523 0.03347204
v -0.00942063 0.00870592 0.03496066
v -0.00938107 0.00870592 0.03644928
v -0.00937887 0.00870592 0.03648947
v -0.00865787 0.01137436 0.03276875
v 0.00381666 -0.00909574 0.03648947
v 0.00382325 -0.00893427 0.01938457
v -0.00802041 0.00572942 0.02156978
v -0.00609043 -0.00389270 0.01938457
v -0.00840289 0.00572942 0.02305672
v -0.00867326 0.00572942 0.02426905
v -0.00882713 0.00572942 0.02501420
v -0.00900958 0.00572942 0.02603396
v -0.00910190 0.00721873 0.02603396
v -0.00927995 0.00721873 0.02752091
v -0.00898100 0.00870592 0.02603396
v -0.00912169 0.00870592 0.02752091
v -0.00926017 0.00870592 0.02900785
v -0.00869744 0.01045018 0.02603396
v -0.00833475 0.01137436 0.02456544
v -0.00866227 0.01137436 0.03198509
v -0.00880515 0.01102806 0.03198509
v -0.00904915 0.01019523 0.03198509
v -0.00943163 0.00870592 0.03347204
v -0.00965144 0.00721873 0.03496066
v -0.00963605 0.00721873 0.03644928
v -0.00962726 0.00725910 0.03648947
v 0.00271098 -0.00977772 0.03648947
v 0.00324074 -0.00930819 0.01938457
v -0.00597613 -0.00464692 0.01938457
v -0.00877877 0.00494333 0.02525700
v -0.00907113 0.00424223 0.02752091
v -0.00929754 0.00424223 0.02900785
v -0.00923159 0.00572942 0.02752091
v -0.00941184 0.00572942 0.02900785
v -0.00942943 0.00721873 0.02900785
v -0.00953714 0.00721873 0.03049647
v -0.00936128 0.00870592 0.03049647
v -0.00875459 0.01086447 0.02852393
v -0.00845125 0.01137436 0.02603396
v -0.00866007 0.01137436 0.03127678
v -0.00879856 0.01101107 0.03049647
v -0.00865348 0.01137436 0.03049647
v -0.00878537 0.01097707 0.02951690
v -0.00901398 0.01019523 0.03049647
v -0.00942063 0.00870592 0.03198509
v -0.00964485 0.00721873 0.03347204
v -0.00973497 0.00572942 0.03496066
v -0.00973937 0.00572942 0.03644928
v -0.00963386 0.00721873 0.03648947
v -0.00973497 0.00577191 0.03648947
v 0.00264724 -0.00964175 0.01938457
v 0.00238786 -0.00991582 0.03648947
v 0.00189767 -0.01000292 0.01938457
v -0.00589260 -0.00510794 0.01938457
v -0.00878757 0.00343915 0.02668366
v -0.00869524 0.00395116 0.02569237
v -0.00884472 0.00436545 0.02612606
v -0.00886670 0.00317570 0.02752091
v -0.00924039 0.00275291 0.03049647
v -0.00945581 0.00275291 0.03198509
v -0.00948658 0.00424223 0.03049647
v -0.00963166 0.00424223 0.03198509
v -0.00954593 0.00572942 0.03049647
v -0.00964485 0.00572942 0.03198509
v -0.00961187 0.00721873 0.03198509
v -0.00861391 0.01137436 0.02917363
v -0.00970420 0.00572942 0.03347204
v -0.00976794 0.00424223 0.03496066
v -0.00978993 0.00424223 0.03644928
v -0.00973717 0.00572942 0.03648947
v 0.00170423 -0.01006666 0.01938457
v 0.00090190 -0.01025787 0.03648947
v -0.00581786 -0.00548399 0.01938457
v -0.00910630 0.00126572 0.03198509
v -0.00929094 0.00126572 0.03347204
v -0.00958769 0.00275291 0.03347204
v -0.00971299 0.00424223 0.03347204
v -0.00966243 0.00275291 0.03496066
v -0.00969760 0.00275291 0.03644928
v -0.00969760 0.00275291 0.03648947
v -0.00978773 0.00424223 0.03648947
v 0.00090190 -0.01021113 0.01938457
v -0.00058625 -0.01033010 0.03648947
v -0.00541340 -0.00624671 0.01938457
v -0.00747307 -0.00425812 0.03648947
v -0.00800942 -0.00319584 0.03648947
v -0.00856335 -0.00192111 0.03648947
v -0.00884032 -0.00119664 0.03648947
v -0.00915246 -0.00022147 0.03648947
v -0.00893924 0.00006110 0.03347204
v -0.00940964 0.00126572 0.03496066
v -0.00949098 0.00126572 0.03644928
v -0.00949098 0.00126572 0.03648947
v 0.00053701 -0.01022813 0.01938457
v -0.00162158 -0.01003479 0.01938457
v -0.00058625 -0.01023662 0.01938457
v -0.00207440 -0.00992431 0.03648947
v -0.00508367 -0.00683308 0.01938457
v -0.00745988 -0.00427937 0.03648947
v -0.00468801 -0.00752357 0.01938457
v -0.00205901 -0.00982658 0.01938457
v -0.00344385 -0.00902775 0.03648947
v -0.00240192 -0.00965449 0.01938457
v -0.00623111 -0.00624246 0.03648947
v -0.00419342 -0.00828203 0.01938457
v -0.00618715 -0.00631044 0.03648947
v -0.00357574 -0.00891515 0.03648947
v -0.00342626 -0.00895552 0.01938457
v -0.00505510 -0.00765104 0.03648947
v -0.00507268 -0.00763404 0.03648947
v -0.00497377 -0.00772115 0.03648947
f 1 2 6
f 1 6 13
f 1 13 30
f 1 30 29
f 1 29 49
f 1 49 66
f 1 66 81
f 1 81 80
f 1 80 79
f 1 79 92
f 1 92 101
f 1 101 111
f 1 111 133
f 1 133 154
f 1 154 174
f 1 174 201
f 1 201 177
f 1 177 175
f 1 175 155
f 1 155 139
f 1 139 117
f 1 117 112
f 1 112 102
f 1 102 93
f 1 93 84
f 1 84 83
f 1 83 82
f 1 82 67
f 1 67 50
f 1 50 33
f 1 33 32
f 1 32 16
f 1 16 15
f 1 15 7
f 1 7 3
f 1 3 4
f 1 4 5
f 1 5 2
f 2 5 6
f 3 7 4
f 4 7 8
f 4 8 9
f 4 9 10
f 4 10 11
f 4 11 5
f 5 12 13
f 5 13 6
f 5 11 14
f 5 14 12
f 7 15 8
f 8 15 16
f 8 16 17
f 8 17 9
f 9 17 18
f 9 18 19
f 9 19 20
f 9 20 21
f 9 21 22
f 9 22 23
f 9 23 10
f 10 23 24
f 10 24 11
f 11 24 25
f 11 25 26
f 11 26 14
f 12 27 28
f 12 28 29
f 12 29 30
f 12 30 13
f 12 14 26
f 12 26 31
f 12 31 27
f 16 32 17
f 17 32 33
f 17 33 34
f 17 34 35
f 17 35 18
f 18 36 19
f 18 35 36
f 19 36 53
f 19 53 70
f 19 70 54
f 19 54 69
f 19 69 85
f 19 85 84
f 19 84 93
f 19 93 104
f 19 104 118
f 19 118 115
f 19 115 138
f 19 138 161
f 19 161 184
f 19 184 185
f 19 185 205
f 19 205 216
f 19 216 215
f 19 215 228
f 19 228 224
f 19 224 223
f 19 223 222
f 19 222 221
f 19 221 220
f 19 220 234
f 19 234 239
f 19 239 241
f 19 241 245
f 19 245 244
f 19 244 246
f 19 246 242
f 19 242 237
f 19 237 232
f 19 232 218
f 19 218 207
f 19 207 187
f 19 187 162
f 19 162 140
f 19 140 119
f 19 119 105
f 19 105 95
f 19 95 98
f 19 98 97
f 19 97 94
f 19 94 90
f 19 90 89
f 19 89 88
f 19 88 86
f 19 86 72
f 19 72 71
f 19 71 56
f 19 56 55
f 19 55 39
f 19 39 37
f 19 37 22
f 19 22 20
f 20 22 21
f 22 37 23
f 23 37 24
f 24 38 25
f 24 37 39
f 24 39 38
f 25 38 40
f 25 40 41
f 25 41 42
f 25 42 43
f 25 43 26
f 26 43 44
f 26 44 31
f 27 31 45
f 27 45 46
f 27 46 28
f 28 46 47
f 28 47 48
f 28 48 29
f 29 48 49
f 31 44 45
f 33 50 51
f 33 51 34
f 34 52 53
f 34 53 35
f 34 51 54
f 34 54 52
f 35 53 36
f 38 39 55
f 38 55 56
f 38 56 57
f 38 57 40
f 40 57 58
f 40 58 59
f 40 59 41
f 41 59 60
f 41 60 61
f 41 61 42
f 42 61 43
f 43 62 44
f 43 61 62
f 44 62 63
f 44 63 46
f 44 46 45
f 46 63 64
f 46 64 47
f 47 64 48
f 48 65 49
f 48 64 65
f 49 65 66
f 50 67 68
f 50 68 51
f 51 68 69
f 51 69 54
f 52 54 70
f 52 70 53
f 56 71 57
f 57 71 72
f 57 72 58
f 58 72 73
f 58 73 74
f 58 74 59
f 59 74 75
f 59 75 76
f 59 76 60
f 60 76 77
f 60 77 64
f 60 64 61
f 61 78 62
f 61 64 78
f 62 78 64
f 62 64 63
f 64 77 91
f 64 91 96
f 64 96 106
f 64 106 120
f 64 120 141
f 64 141 163
f 64 163 186
f 64 186 188
f 64 188 206
f 64 206 217
f 64 217 229
f 64 229 231
f 64 231 230
f 64 230 236
f 64 236 238
f 64 238 243
f 64 243 240
f 64 240 235
f 64 235 233
f 64 233 219
f 64 219 208
f 64 208 189
f 64 189 164
f 64 164 143
f 64 143 122
f 64 122 107
f 64 107 99
f 64 99 92
f 64 92 79
f 64 79 80
f 64 80 81
f 64 81 65
f 65 81 66
f 67 82 68
f 68 82 83
f 68 83 84
f 68 84 85
f 68 85 69
f 72 86 73
f 73 86 87
f 73 87 74
f 74 87 88
f 74 88 89
f 74 89 90
f 74 90 77
f 74 77 75
f 75 77 76
f 77 90 91
f 86 88 87
f 90 94 91
f 91 95 96
f 91 94 97
f 91 97 98
f 91 98 95
f 92 99 100
f 92 100 101
f 93 102 103
f 93 103 104
f 95 105 106
f 95 106 96
f 99 107 108
f 99 108 100
f 100 108 109
f 100 109 110
f 100 110 101
f 101 110 111
f 102 112 103
f 103 113 114
f 103 114 115
f 103 115 116
f 103 116 104
f 103 112 117
f 103 117 113
f 104 116 118
f 105 119 106
f 106 119 120
f 107 121 108
f 107 122 121
f 108 121 123
f 108 123 109
f 109 123 124
f 109 124 125
f 109 125 126
f 109 126 127
f 109 127 110
f 110 128 111
f 110 127 129
f 110 129 130
f 110 130 131
f 110 131 128
f 111 128 132
f 111 132 133
f 113 134 114
f 113 117 134
f 114 134 135
f 114 135 136
f 114 136 137
f 114 137 115
f 115 137 138
f 115 118 116
f 117 139 134
f 119 140 120
f 120 140 141
f 121 142 123
f 121 122 143
f 121 143 142
f 123 144 124
f 123 142 144
f 124 144 145
f 124 145 125
f 125 146 126
f 125 145 146
f 126 147 148
f 126 148 130
f 126 130 129
f 126 129 127
f 126 146 147
f 128 131 132
f 130 148 149
f 130 149 150
f 130 150 131
f 131 150 151
f 131 151 152
f 131 152 153
f 131 153 132
f 132 154 133
f 132 153 154
f 134 139 155
f 134 155 156
f 134 156 157
f 134 157 135
f 135 157 158
f 135 158 136
f 136 158 159
f 136 159 160
f 136 160 137
f 137 160 161
f 137 161 138
f 140 162 163
f 140 163 141
f 142 143 144
f 143 164 144
f 144 165 145
f 144 164 165
f 145 165 146
f 146 165 147
f 147 166 167
f 147 167 168
f 147 168 148
f 147 165 166
f 148 168 169
f 148 169 149
f 149 169 170
f 149 170 150
f 150 170 151
f 151 170 152
f 152 170 171
f 152 171 172
f 152 172 153
f 153 172 173
f 153 173 174
f 153 174 154
f 155 175 156
f 156 176 157
f 156 175 177
f 156 177 176
f 157 176 178
f 157 178 179
f 157 179 180
f 157 180 158
f 158 180 181
f 158 181 159
f 159 181 182
f 159 182 183
f 159 183 160
f 160 184 161
f 160 183 185
f 160 185 184
f 162 186 163
f 162 187 188
f 162 188 186
f 164 189 190
f 164 190 191
f 164 191 165
f 165 191 192
f 165 192 166
f 166 192 190
f 166 190 193
f 166 193 194
f 166 194 167
f 167 194 195
f 167 195 196
f 167 196 168
f 168 196 169
f 169 196 197
f 169 197 198
f 169 198 170
f 170 198 171
f 171 198 199
f 171 199 200
f 171 200 172
f 172 200 180
f 172 180 179
f 172 179 178
f 172 178 173
f 173 178 174
f 174 178 201
f 176 177 178
f 177 201 178
f 180 200 181
f 181 200 202
f 181 202 182
f 182 202 203
f 182 203 204
f 182 204 183
f 183 205 185
f 183 204 216
f 183 216 205
f 187 206 188
f 187 207 206
f 189 208 190
f 190 192 191
f 190 208 193
f 193 208 194
f 194 208 195
f 195 208 209
f 195 209 210
f 195 210 211
f 195 211 197
f 195 197 196
f 197 199 198
f 197 211 212
f 197 212 199
f 199 212 202
f 199 202 200
f 202 212 203
f 203 212 213
f 203 213 214
f 203 214 204
f 204 214 215
f 204 215 216
f 206 207 217
f 207 218 217
f 208 219 220
f 208 220 221
f 208 221 222
f 208 222 223
f 208 223 224
f 208 224 225
f 208 225 210
f 208 210 209
f 210 225 224
f 210 224 226
f 210 226 211
f 211 213 212
f 211 226 227
f 211 227 213
f 213 227 214
f 214 227 228
f 214 228 215
f 217 218 229
f 218 230 231
f 218 231 229
f 218 232 230
f 219 233 220
f 220 233 235
f 220 235 234
f 224 228 227
f 224 227 226
f 230 232 236
f 232 237 238
f 232 238 236
f 234 235 239
f 235 240 241
f 235 241 239
f 237 242 243
f 237 243 238
f 240 243 244
f 240 244 245
f 240 245 241
f 242 246 243
f 243 246 244

