# https://github.com/mikedh/trimesh
v 0.00387813 0.03171680 0.04929422
v 0.00536454 0.03186826 0.04929422
v 0.00238917 0.03172916 0.04929422
v 0.00536454 0.03833598 0.02839346
v 0.00685223 0.03846426 0.02839346
v 0.00540015 0.03188062 0.04929422
v 0.00834119 0.03887535 0.02839346
v 0.00882564 0.03902680 0.02839346
v 0.00920074 0.03914735 0.02839346
v 0.00091674 0.03230717 0.04929422
v 0.00167330 0.03923080 0.02839346
v 0.00232559 0.03903144 0.02839346
v 0.00387813 0.03861262 0.02839346
v 0.00638812 0.03227626 0.04929422
v 0.00952498 0.03952599 0.02839346
v 0.00942580 0.03482626 0.04929422
v 0.00922235 0.03459598 0.04929422
v 0.00803983 0.03342607 0.04929422
v 0.00771559 0.03313553 0.04929422
v 0.00687003 0.03247098 0.04929422
v 0.00054927 0.03264716 0.04929422
v 0.00132999 0.03988299 0.02839346
v 0.00009534 0.03307680 0.04929422
v -0.00134530 0.03621562 0.04755079
v 0.00993949 0.04001126 0.02839346
v 0.00982760 0.03547535 0.04929422
v 0.01052440 0.04080407 0.02839346
v 0.00067515 0.04144544 0.02839346
v -0.00125248 0.03545217 0.04929422
v -0.00140888 0.03604871 0.04835293
v -0.00153603 0.03698216 0.04835293
v -0.00140252 0.03698216 0.04719473
v 0.00007626 0.04337571 0.02839346
v 0.00019579 0.04293990 0.02839346
v 0.00028225 0.04263080 0.02839346
v 0.01007555 0.03604098 0.04929422
v 0.01085626 0.04148871 0.02839346
v -0.00145592 0.03592198 0.04929422
v -0.00155892 0.03698216 0.04929422
v -0.00133767 0.03924007 0.04459800
v -0.00133767 0.03919371 0.04459800
v 0.00007626 0.04382698 0.02839346
v 0.01027263 0.03698216 0.04929422
v 0.01112837 0.04214399 0.02839346
v 0.01143099 0.04293371 0.02839346
v -0.00142541 0.03815516 0.04929422
v -0.00143812 0.03848280 0.04823629
v -0.00134403 0.03925862 0.04537763
v 0.00008644 0.04380998 0.02900939
v 0.00055436 0.04455335 0.02900939
v 0.00054546 0.04457190 0.02839346
v -0.00134530 0.03925708 0.04686528
v -0.00134022 0.03924007 0.04766333
v -0.00104904 0.04000044 0.04686528
v 0.01064265 0.03900362 0.04537763
v 0.01061722 0.03905617 0.04660745
v 0.01031332 0.03752926 0.04929422
v 0.01123518 0.04442198 0.02839346
v 0.01058797 0.04073299 0.04621456
v 0.01068461 0.03995717 0.04537763
v 0.01074818 0.03995717 0.04388998
v -0.00134022 0.03844726 0.04929422
v -0.00030519 0.04132953 0.04686528
v 0.00135796 0.04546981 0.03049909
v 0.00129947 0.04555326 0.02900939
v 0.00098159 0.04515608 0.02839346
v -0.00118763 0.03884753 0.04929422
v -0.00095876 0.03982271 0.04823629
v 0.01061722 0.03995717 0.04655629
v 0.01021160 0.03901753 0.04929422
v 0.01052440 0.03995717 0.04729909
v 0.01068715 0.04534617 0.02839346
v 0.01066808 0.04531835 0.02900939
v 0.01118432 0.04442198 0.02900939
v 0.01027391 0.04154899 0.04537763
v 0.01013277 0.04131562 0.04677320
v 0.00975385 0.04049498 0.04929422
v 0.01000816 0.03995717 0.04929422
v 0.01025865 0.03995717 0.04835293
v 0.01089950 0.04429371 0.03198674
v 0.01079523 0.04410053 0.03347439
v 0.01068588 0.04389189 0.03496204
v 0.01061086 0.04374971 0.03595244
v -0.00018440 0.04112398 0.04835293
v 0.00027462 0.04207289 0.04686528
v 0.00143171 0.04537708 0.03198674
v 0.00248199 0.04636617 0.02912808
v 0.00169492 0.04587471 0.02839346
v 0.00129057 0.04556562 0.02839346
v -0.00060654 0.03998807 0.04929422
v 0.01007682 0.04608953 0.02839346
v 0.01004503 0.04606171 0.02900939
v 0.01061595 0.04523490 0.03011848
v 0.01093891 0.04455490 0.03056866
v 0.00958728 0.04302181 0.04385929
v 0.00953006 0.04266171 0.04537763
v 0.00932662 0.04241444 0.04686528
v 0.00955422 0.04148408 0.04829154
v 0.00941181 0.04115489 0.04929422
v 0.01055746 0.04514062 0.03111093
v 0.01049642 0.04503708 0.03198674
v 0.01035655 0.04484389 0.03347439
v 0.00050350 0.04186890 0.04835293
v -0.00004707 0.04094007 0.04929422
v 0.00009788 0.04109771 0.04929422
v 0.00101847 0.04269726 0.04686528
v 0.00163516 0.04368480 0.04467371
v 0.00156268 0.04375435 0.04388998
v 0.00153216 0.04527199 0.03347439
v 0.00238917 0.04615444 0.03049909
v 0.00314446 0.04664899 0.02970104
v 0.00304019 0.04669380 0.02870859
v 0.00283039 0.04659644 0.02839346
v 0.00237773 0.04634762 0.02839346
v 0.00933298 0.04681126 0.02839346
v 0.00930119 0.04678808 0.02900939
v 0.00918675 0.04671544 0.03008983
v 0.00975258 0.04579281 0.03198674
v 0.00929992 0.04385017 0.04240028
v 0.00916895 0.04374353 0.04334362
v 0.00916132 0.04225371 0.04775337
v 0.00862601 0.04190289 0.04929422
v 0.00885997 0.04200490 0.04874582
v 0.00961271 0.04562126 0.03347439
v 0.00124734 0.04248553 0.04835293
v 0.00069295 0.04165408 0.04929422
v 0.00137322 0.04226144 0.04929422
v 0.00186785 0.04358435 0.04566616
v 0.00237391 0.04385326 0.04525281
v 0.00238917 0.04409590 0.04388998
v 0.00447702 0.04671699 0.03304671
v 0.00427103 0.04680353 0.03198674
v 0.00352719 0.04648517 0.03198674
v 0.00327161 0.04659489 0.03049909
v 0.00238917 0.04595199 0.03198674
v 0.00161100 0.04519626 0.03438294
v 0.00373572 0.04694726 0.02912808
v 0.00401672 0.04691017 0.03049909
v 0.00380057 0.04701062 0.02839346
v 0.00326398 0.04679735 0.02839346
v 0.00302875 0.04669844 0.02839346
v 0.00834119 0.04714199 0.02839346
v 0.00834119 0.04710181 0.02900939
v 0.00842638 0.04686844 0.03055024
v 0.00898076 0.04662271 0.03108023
v 0.00834119 0.04435862 0.04240028
v 0.00838315 0.04397999 0.04385929
v 0.00764312 0.04370180 0.04620024
v 0.00890701 0.04357817 0.04433402
v 0.00835517 0.04254735 0.04829154
v 0.00794956 0.04239280 0.04929422
v 0.00861456 0.04340662 0.04537763
v 0.00822039 0.04318099 0.04676297
v 0.00145587 0.04232944 0.04929422
v 0.00158302 0.04239589 0.04929422
v 0.00237391 0.04347308 0.04695327
v 0.00285964 0.04377753 0.04651332
v 0.00480380 0.04661808 0.03403711
v 0.00536454 0.04709717 0.03198674
v 0.00536454 0.04730890 0.03049909
v 0.00431553 0.04527508 0.04060978
v 0.00536454 0.04747580 0.02900939
v 0.00536454 0.04750517 0.02839346
v 0.00747019 0.04734599 0.02839346
v 0.00685223 0.04745108 0.02900939
v 0.00685223 0.04727489 0.03049909
v 0.00685223 0.04704308 0.03198674
v 0.00793811 0.04674944 0.03198674
v 0.00766092 0.04667217 0.03282162
v 0.00868195 0.04653617 0.03198674
v 0.00679628 0.04492890 0.04235936
v 0.00685223 0.04453326 0.04388998
v 0.00685223 0.04414380 0.04537763
v 0.00674033 0.04379608 0.04676297
v 0.00617069 0.04369562 0.04766333
v 0.00716248 0.04354262 0.04719269
v 0.00685986 0.04285644 0.04929422
v 0.00236120 0.04273744 0.04929422
v 0.00238917 0.04307435 0.04835293
v 0.00331611 0.04365080 0.04750577
v 0.00383871 0.04386717 0.04695327
v 0.00387813 0.04421180 0.04537763
v 0.00532513 0.04682208 0.03351531
v 0.00579432 0.04671389 0.03451799
v 0.00631946 0.04671389 0.03451799
v 0.00473895 0.04515299 0.04160223
v 0.00536454 0.04570626 0.03942499
v 0.00598250 0.04749899 0.02839346
v 0.00685223 0.04748353 0.02839346
v 0.00683061 0.04679426 0.03338026
v 0.00731125 0.04657171 0.03381407
v 0.00653307 0.04532453 0.04091264
v 0.00626224 0.04521017 0.04183551
v 0.00536454 0.04372344 0.04775542
v 0.00536454 0.04347771 0.04849822
v 0.00536454 0.04317635 0.04929422
v 0.00583374 0.04308517 0.04929422
v 0.00674033 0.04331080 0.04823834
v 0.00536454 0.04397071 0.04686528
v 0.00289397 0.04287962 0.04929422
v 0.00386414 0.04312998 0.04929422
v 0.00383871 0.04348390 0.04828950
v 0.00430918 0.04372190 0.04774928
v 0.00572947 0.04521017 0.04183551
v 0.00528571 0.04535853 0.04102927
v 0.00448337 0.04315780 0.04929422
f 1 2 6
f 1 6 14
f 1 14 20
f 1 20 19
f 1 19 18
f 1 18 17
f 1 17 16
f 1 16 26
f 1 26 36
f 1 36 43
f 1 43 57
f 1 57 70
f 1 70 78
f 1 78 77
f 1 77 99
f 1 99 122
f 1 122 151
f 1 151 177
f 1 177 197
f 1 197 196
f 1 196 206
f 1 206 201
f 1 201 200
f 1 200 178
f 1 178 155
f 1 155 154
f 1 154 127
f 1 127 126
f 1 126 105
f 1 105 104
f 1 104 90
f 1 90 67
f 1 67 62
f 1 62 46
f 1 46 39
f 1 39 38
f 1 38 29
f 1 29 23
f 1 23 21
f 1 21 10
f 1 10 3
f 1 3 4
f 1 4 5
f 1 5 2
f 2 5 7
f 2 7 8
f 2 8 9
f 2 9 6
f 3 10 11
f 3 11 12
f 3 12 13
f 3 13 4
f 4 13 12
f 4 12 11
f 4 11 22
f 4 22 28
f 4 28 35
f 4 35 34
f 4 34 33
f 4 33 42
f 4 42 51
f 4 51 66
f 4 66 89
f 4 89 88
f 4 88 114
f 4 114 113
f 4 113 141
f 4 141 140
f 4 140 139
f 4 139 163
f 4 163 188
f 4 188 189
f 4 189 164
f 4 164 142
f 4 142 115
f 4 115 91
f 4 91 72
f 4 72 58
f 4 58 45
f 4 45 44
f 4 44 37
f 4 37 27
f 4 27 25
f 4 25 15
f 4 15 9
f 4 9 8
f 4 8 7
f 4 7 5
f 6 9 14
f 9 15 16
f 9 16 17
f 9 17 18
f 9 18 19
f 9 19 20
f 9 20 14
f 10 21 11
f 11 21 23
f 11 23 24
f 11 24 22
f 15 25 16
f 16 25 27
f 16 27 26
f 22 24 28
f 23 29 30
f 23 30 24
f 24 30 31
f 24 31 32
f 24 32 33
f 24 33 34
f 24 34 35
f 24 35 28
f 26 27 37
f 26 37 36
f 29 38 30
f 30 38 31
f 31 38 39
f 31 39 40
f 31 40 41
f 31 41 33
f 31 33 32
f 33 41 40
f 33 40 42
f 36 37 44
f 36 44 45
f 36 45 43
f 39 46 47
f 39 47 40
f 40 47 48
f 40 48 42
f 42 49 50
f 42 50 51
f 42 48 52
f 42 52 53
f 42 53 54
f 42 54 49
f 43 55 56
f 43 56 57
f 43 45 55
f 45 58 59
f 45 59 60
f 45 60 61
f 45 61 56
f 45 56 55
f 46 62 53
f 46 53 47
f 47 53 52
f 47 52 48
f 49 54 63
f 49 63 50
f 50 64 65
f 50 65 51
f 50 63 64
f 51 65 66
f 53 62 67
f 53 67 68
f 53 68 54
f 54 68 63
f 56 69 57
f 56 61 60
f 56 60 69
f 57 69 71
f 57 71 70
f 58 72 73
f 58 73 74
f 58 74 59
f 59 75 76
f 59 76 77
f 59 77 78
f 59 78 79
f 59 79 71
f 59 71 69
f 59 69 60
f 59 74 80
f 59 80 81
f 59 81 82
f 59 82 83
f 59 83 75
f 63 68 84
f 63 84 85
f 63 85 64
f 64 86 87
f 64 87 65
f 64 85 86
f 65 87 88
f 65 88 89
f 65 89 66
f 67 90 68
f 68 90 84
f 70 71 79
f 70 79 78
f 72 91 73
f 73 92 93
f 73 93 74
f 73 91 92
f 74 93 94
f 74 94 80
f 75 95 96
f 75 96 76
f 75 83 95
f 76 96 97
f 76 97 98
f 76 98 99
f 76 99 77
f 80 94 100
f 80 100 101
f 80 101 81
f 81 101 82
f 82 101 83
f 83 101 102
f 83 102 95
f 84 103 85
f 84 90 104
f 84 104 105
f 84 105 103
f 85 103 106
f 85 106 107
f 85 107 108
f 85 108 109
f 85 109 86
f 86 109 110
f 86 110 87
f 87 110 111
f 87 111 112
f 87 112 113
f 87 113 114
f 87 114 88
f 91 115 116
f 91 116 92
f 92 116 117
f 92 117 118
f 92 118 101
f 92 101 100
f 92 100 93
f 93 100 94
f 95 119 96
f 95 102 119
f 96 119 120
f 96 120 97
f 97 121 98
f 97 120 121
f 98 121 99
f 99 121 123
f 99 123 122
f 101 118 124
f 101 124 102
f 102 124 119
f 103 125 106
f 103 105 126
f 103 126 127
f 103 127 125
f 106 125 107
f 107 125 128
f 107 128 129
f 107 129 130
f 107 130 131
f 107 131 132
f 107 132 133
f 107 133 134
f 107 134 135
f 107 135 136
f 107 136 108
f 108 136 109
f 109 136 110
f 110 136 135
f 110 135 111
f 111 137 112
f 111 135 134
f 111 134 138
f 111 138 137
f 112 139 140
f 112 140 141
f 112 141 113
f 112 137 139
f 115 142 116
f 116 143 117
f 116 142 143
f 117 124 118
f 117 143 144
f 117 144 145
f 117 145 120
f 117 120 124
f 119 124 120
f 120 145 146
f 120 146 147
f 120 147 148
f 120 148 149
f 120 149 121
f 121 150 151
f 121 151 123
f 121 149 152
f 121 152 153
f 121 153 150
f 122 123 151
f 125 127 154
f 125 154 128
f 128 154 155
f 128 155 156
f 128 156 157
f 128 157 129
f 129 157 131
f 129 131 130
f 131 158 159
f 131 159 160
f 131 160 132
f 131 157 161
f 131 161 158
f 132 160 138
f 132 138 134
f 132 134 133
f 137 138 162
f 137 162 139
f 138 160 162
f 139 162 163
f 142 164 165
f 142 165 143
f 143 165 166
f 143 166 144
f 144 166 167
f 144 167 168
f 144 168 145
f 145 168 169
f 145 169 170
f 145 170 146
f 146 171 148
f 146 148 147
f 146 170 171
f 148 152 149
f 148 171 172
f 148 172 173
f 148 173 174
f 148 174 175
f 148 175 176
f 148 176 151
f 148 151 150
f 148 150 153
f 148 153 152
f 151 176 177
f 155 178 179
f 155 179 156
f 156 179 157
f 157 179 180
f 157 180 181
f 157 181 182
f 157 182 161
f 158 183 159
f 158 161 183
f 159 166 160
f 159 183 184
f 159 184 185
f 159 185 166
f 160 166 165
f 160 165 162
f 161 182 186
f 161 186 187
f 161 187 183
f 162 165 188
f 162 188 163
f 164 189 165
f 165 189 188
f 166 185 167
f 167 169 168
f 167 185 190
f 167 190 169
f 169 190 185
f 169 185 191
f 169 191 170
f 170 191 192
f 170 192 171
f 171 192 193
f 171 193 172
f 172 193 173
f 173 193 175
f 173 175 174
f 175 194 195
f 175 195 196
f 175 196 197
f 175 197 177
f 175 177 198
f 175 198 176
f 175 193 199
f 175 199 194
f 176 198 177
f 178 200 180
f 178 180 179
f 180 200 201
f 180 201 202
f 180 202 203
f 180 203 181
f 181 203 204
f 181 204 205
f 181 205 182
f 182 205 186
f 183 187 184
f 184 187 185
f 185 187 193
f 185 193 192
f 185 192 191
f 186 205 187
f 187 205 204
f 187 204 193
f 193 204 199
f 194 199 203
f 194 203 195
f 195 203 206
f 195 206 196
f 199 204 203
f 201 206 203
f 201 203 202

