# https://github.com/mikedh/trimesh
v -0.00494713 -0.01148034 0.14061738
v -0.00374748 -0.01148034 0.14061738
v -0.00477635 -0.01145250 0.14210707
v -0.00569114 -0.01134671 0.14061738
v -0.00564704 -0.01134207 0.13913027
v -0.00490304 -0.01146828 0.13913027
v -0.00300417 -0.01134950 0.14061738
v -0.00312106 -0.01133558 0.14210707
v -0.00386436 -0.01145250 0.14210707
v -0.00380627 -0.01146828 0.13913027
v -0.00306226 -0.01134207 0.13913027
v -0.00439140 -0.01139497 0.14452974
v -0.00455098 -0.01141631 0.14359417
v -0.00552036 -0.01129196 0.14210707
v -0.00589201 -0.01015797 0.14657097
v -0.00595221 -0.01031573 0.14508129
v -0.00602500 -0.01045492 0.14359417
v -0.00608449 -0.01054772 0.14210707
v -0.00613208 -0.01060247 0.14061738
v -0.00615308 -0.01059783 0.13913027
v -0.00542027 -0.01128547 0.13764058
v -0.00467626 -0.01143023 0.13764058
v -0.00612788 -0.01054123 0.13764058
v -0.00607329 -0.01044472 0.13615346
v -0.00580732 -0.00990741 0.12936740
v -0.00207608 -0.01103027 0.13764058
v -0.00234415 -0.01051153 0.14508129
v -0.00331633 -0.01130495 0.14359417
v -0.00207608 -0.01094211 0.13913027
v -0.00405964 -0.01141631 0.14359417
v -0.00421642 -0.01139497 0.14452974
v -0.00395465 -0.01143023 0.13764058
v -0.00321134 -0.01133187 0.13764058
v -0.00207608 -0.01100243 0.13615346
v -0.00356340 -0.01104883 0.14657097
v -0.00505142 -0.01080848 0.14657097
v -0.00495273 -0.01111193 0.14504778
v -0.00529569 -0.01119916 0.14359417
v -0.00584092 -0.01001692 0.14738541
v -0.00692369 -0.00766170 0.14061738
v -0.00649044 -0.00915018 0.14210707
v -0.00661572 -0.00915018 0.14061738
v -0.00668991 -0.00915018 0.13913027
v -0.00666682 -0.00915018 0.13764058
v -0.00500312 -0.01121123 0.13616893
v -0.00447469 -0.01140332 0.13667408
v -0.00505142 -0.00919008 0.12146277
v -0.00486244 -0.00925040 0.12146277
v -0.00349271 -0.00968563 0.12146277
v -0.00635046 -0.00766170 0.12146277
v -0.00593961 -0.00862216 0.12146277
v -0.00108221 -0.01033614 0.13764058
v -0.00103531 -0.01034357 0.13615346
v -0.00126348 -0.01005311 0.14061738
v -0.00252333 -0.01039832 0.14657097
v -0.00116480 -0.01023777 0.13913027
v -0.00365789 -0.01126876 0.14504778
v -0.00411003 -0.01140332 0.13667408
v -0.00359350 -0.01129939 0.13616893
v -0.00103741 -0.01026005 0.13466636
v -0.00207608 -0.00984988 0.12146277
v -0.00081904 -0.00926525 0.12146277
v -0.00269131 -0.01017282 0.14745757
v -0.00356340 -0.01039646 0.14761479
v -0.00505142 -0.01027953 0.14756066
v -0.00505142 -0.00915018 0.14779005
v -0.00586192 -0.00915018 0.14741634
v -0.00655623 -0.00766170 0.14359417
v -0.00675291 -0.00766170 0.14210707
v -0.00678790 -0.00617508 0.14061738
v -0.00691109 -0.00617508 0.13913027
v -0.00703007 -0.00766170 0.13913027
v -0.00705177 -0.00766170 0.13764058
v -0.00701047 -0.00766170 0.13615346
v -0.00657863 -0.00617508 0.12146277
v -0.00064476 -0.00915018 0.13615346
v -0.00074065 -0.00915018 0.13764058
v -0.00006593 -0.00782874 0.12146277
v -0.00001904 -0.00772852 0.12146277
v -0.00132438 -0.00991577 0.14142408
v -0.00090583 -0.00915018 0.13913027
v -0.00188221 -0.00915018 0.14508129
v -0.00269131 -0.00964294 0.14745757
v -0.00350741 -0.00914833 0.14770241
v -0.00505142 -0.00766170 0.14763026
v -0.00583742 -0.00685064 0.14737510
v -0.00585982 -0.00766170 0.14740860
v -0.00657373 -0.00617508 0.14210707
v -0.00608659 -0.00462813 0.14052975
v -0.00627137 -0.00468659 0.13913027
v -0.00635536 -0.00468659 0.13764058
v -0.00696148 -0.00617508 0.13764058
v -0.00697828 -0.00617508 0.13615346
v -0.00643655 -0.00468659 0.12146277
v -0.00040049 -0.00766170 0.13466636
v -0.00045018 -0.00766170 0.13615346
v -0.00056007 -0.00766170 0.13764058
v -0.00072175 -0.00766170 0.13913027
v 0.00009785 -0.00617508 0.12146277
v -0.00094852 -0.00766170 0.14061738
v -0.00158055 -0.00915018 0.14359417
v -0.00132788 -0.00696293 0.14286737
v -0.00132788 -0.00691004 0.14286737
v -0.00223706 -0.00755962 0.14519727
v -0.00258702 -0.00798742 0.14614057
v -0.00297477 -0.00865093 0.14713283
v -0.00425911 -0.00686364 0.14736478
v -0.00401484 -0.00766170 0.14753747
v -0.00505142 -0.00682652 0.14739830
v -0.00505142 -0.00638387 0.14657097
v -0.00505142 -0.00573057 0.14523077
v -0.00505142 -0.00537423 0.14448851
v -0.00580802 -0.00541691 0.14438026
v -0.00632386 -0.00617508 0.14359417
v -0.00581642 -0.00391823 0.13997562
v -0.00585352 -0.00386904 0.13913027
v -0.00590671 -0.00378645 0.13764058
v -0.00593751 -0.00372057 0.13615346
v -0.00640155 -0.00468659 0.13615346
v -0.00607959 -0.00311274 0.12146277
v -0.00640015 -0.00452605 0.12146277
v -0.00041239 -0.00617508 0.13466636
v -0.00048588 -0.00617508 0.13615346
v -0.00066716 -0.00617508 0.13764058
v -0.00009603 -0.00498076 0.12146277
v -0.00212018 -0.00625210 0.14339830
v -0.00246454 -0.00658524 0.14477716
v -0.00109761 -0.00514409 0.13764058
v -0.00124109 -0.00533711 0.13858903
v -0.00287958 -0.00699541 0.14576943
v -0.00321694 -0.00755962 0.14660963
v -0.00317075 -0.00559323 0.14393180
v -0.00416253 -0.00536866 0.14449624
v -0.00505142 -0.00411496 0.14086222
v -0.00505142 -0.00387739 0.14011738
v -0.00505142 -0.00370386 0.13913027
v -0.00505142 -0.00348950 0.13764058
v -0.00505142 -0.00331504 0.13615346
v -0.00523269 -0.00221260 0.12146277
v -0.00569674 -0.00252347 0.12193184
v -0.00602360 -0.00299767 0.12146277
v -0.00014782 -0.00471629 0.12146277
v -0.00097722 -0.00492601 0.13615346
v -0.00069096 -0.00468659 0.13169213
v -0.00081274 -0.00468659 0.13317924
v -0.00276830 -0.00539836 0.14293954
v -0.00131038 -0.00392565 0.13401172
v -0.00178422 -0.00418270 0.13615346
v -0.00362499 -0.00522853 0.14349881
v -0.00420382 -0.00387925 0.14009676
v -0.00356340 -0.00341712 0.13615346
v -0.00356340 -0.00322595 0.13466636
v -0.00356340 -0.00200102 0.12146277
v -0.00376568 -0.00200937 0.12146277
v -0.00509901 -0.00217177 0.12146277
v -0.00232315 -0.00203906 0.12146277
v -0.00054117 -0.00338742 0.12146277
v -0.00113120 -0.00376418 0.13169213
v -0.00123339 -0.00386069 0.13317924
v -0.00062166 -0.00319069 0.12146277
v -0.00293628 -0.00399989 0.13809419
v -0.00204109 -0.00374098 0.13457099
v -0.00348431 -0.00368437 0.13761481
v -0.00114030 -0.00227384 0.12146277
v -0.00394555 -0.00377717 0.13913027
v -0.00207608 -0.00206134 0.12146277
v -0.00107871 -0.00234994 0.12146277
f 1 2 9
f 1 9 3
f 1 3 4
f 1 4 5
f 1 5 6
f 1 6 10
f 1 10 2
f 2 7 8
f 2 8 9
f 2 10 11
f 2 11 7
f 3 9 31
f 3 31 12
f 3 12 13
f 3 13 4
f 4 13 12
f 4 12 14
f 4 14 15
f 4 15 16
f 4 16 17
f 4 17 18
f 4 18 19
f 4 19 20
f 4 20 5
f 5 21 22
f 5 22 6
f 5 20 23
f 5 23 24
f 5 24 25
f 5 25 21
f 6 22 32
f 6 32 10
f 7 11 26
f 7 26 8
f 8 27 28
f 8 28 9
f 8 26 29
f 8 29 27
f 9 28 30
f 9 30 31
f 10 32 33
f 10 33 11
f 11 33 34
f 11 34 26
f 12 31 35
f 12 35 36
f 12 36 37
f 12 37 38
f 12 38 14
f 14 38 15
f 15 36 39
f 15 39 40
f 15 40 41
f 15 41 42
f 15 42 17
f 15 17 16
f 15 38 36
f 17 42 18
f 18 42 43
f 18 43 19
f 19 43 20
f 20 43 44
f 20 44 23
f 21 45 46
f 21 46 22
f 21 25 47
f 21 47 48
f 21 48 49
f 21 49 45
f 22 46 58
f 22 58 32
f 23 44 50
f 23 50 51
f 23 51 24
f 24 51 25
f 25 51 47
f 26 52 29
f 26 34 53
f 26 53 52
f 27 54 55
f 27 55 35
f 27 35 28
f 27 29 52
f 27 52 56
f 27 56 54
f 28 35 57
f 28 57 31
f 28 31 30
f 31 57 35
f 32 58 33
f 33 58 59
f 33 59 34
f 34 60 53
f 34 59 61
f 34 61 62
f 34 62 60
f 35 55 63
f 35 63 64
f 35 64 65
f 35 65 36
f 36 65 39
f 36 38 37
f 39 65 66
f 39 66 67
f 39 67 68
f 39 68 69
f 39 69 40
f 40 69 70
f 40 70 71
f 40 71 72
f 40 72 42
f 40 42 41
f 42 72 43
f 43 72 73
f 43 73 44
f 44 73 74
f 44 74 50
f 45 49 46
f 46 49 61
f 46 61 58
f 47 51 50
f 47 50 75
f 47 75 94
f 47 94 121
f 47 121 120
f 47 120 141
f 47 141 139
f 47 139 155
f 47 155 154
f 47 154 153
f 47 153 156
f 47 156 166
f 47 166 164
f 47 164 167
f 47 167 160
f 47 160 157
f 47 157 142
f 47 142 125
f 47 125 99
f 47 99 79
f 47 79 78
f 47 78 62
f 47 62 61
f 47 61 49
f 47 49 48
f 50 74 75
f 52 53 76
f 52 76 77
f 52 77 56
f 53 60 62
f 53 62 78
f 53 78 79
f 53 79 76
f 54 80 55
f 54 56 77
f 54 77 81
f 54 81 80
f 55 80 82
f 55 82 63
f 58 61 59
f 63 83 84
f 63 84 64
f 63 82 83
f 64 84 66
f 64 66 65
f 66 84 85
f 66 85 86
f 66 86 87
f 66 87 67
f 67 87 68
f 68 88 70
f 68 70 69
f 68 87 86
f 68 86 88
f 70 88 89
f 70 89 90
f 70 90 71
f 71 90 91
f 71 91 92
f 71 92 72
f 72 92 73
f 73 92 93
f 73 93 75
f 73 75 74
f 75 93 94
f 76 95 96
f 76 96 77
f 76 79 95
f 77 96 97
f 77 97 98
f 77 98 81
f 79 99 95
f 80 100 101
f 80 101 82
f 80 81 98
f 80 98 100
f 82 101 102
f 82 102 103
f 82 103 83
f 83 104 105
f 83 105 106
f 83 106 107
f 83 107 108
f 83 108 84
f 83 103 104
f 84 108 85
f 85 108 107
f 85 107 109
f 85 109 86
f 86 109 110
f 86 110 111
f 86 111 112
f 86 112 113
f 86 113 114
f 86 114 88
f 88 114 89
f 89 115 90
f 89 114 113
f 89 113 115
f 90 115 116
f 90 116 117
f 90 117 91
f 91 117 118
f 91 118 119
f 91 119 92
f 92 119 120
f 92 120 93
f 93 120 121
f 93 121 94
f 95 99 96
f 96 99 122
f 96 122 123
f 96 123 97
f 97 123 98
f 98 123 124
f 98 124 103
f 98 103 100
f 99 125 122
f 100 103 102
f 100 102 101
f 103 126 127
f 103 127 104
f 103 124 128
f 103 128 129
f 103 129 126
f 104 127 105
f 105 127 130
f 105 130 106
f 106 131 107
f 106 130 131
f 107 110 109
f 107 131 130
f 107 130 127
f 107 127 132
f 107 132 133
f 107 133 110
f 110 133 111
f 111 133 112
f 112 133 134
f 112 134 113
f 113 134 115
f 115 134 135
f 115 135 136
f 115 136 137
f 115 137 138
f 115 138 139
f 115 139 116
f 116 139 117
f 117 139 140
f 117 140 118
f 118 140 141
f 118 141 120
f 118 120 119
f 122 125 142
f 122 142 123
f 123 143 124
f 123 142 144
f 123 144 145
f 123 145 143
f 124 143 128
f 126 129 146
f 126 146 127
f 127 146 132
f 128 143 147
f 128 147 148
f 128 148 146
f 128 146 129
f 132 146 149
f 132 149 133
f 133 149 150
f 133 150 134
f 134 150 135
f 135 150 136
f 136 150 137
f 137 150 151
f 137 151 152
f 137 152 138
f 138 153 154
f 138 154 155
f 138 155 139
f 138 152 156
f 138 156 153
f 139 141 140
f 142 157 144
f 143 145 158
f 143 158 159
f 143 159 147
f 144 157 160
f 144 160 158
f 144 158 145
f 146 148 161
f 146 161 150
f 146 150 149
f 147 162 151
f 147 151 163
f 147 163 161
f 147 161 148
f 147 159 164
f 147 164 162
f 150 161 165
f 150 165 151
f 151 162 164
f 151 164 152
f 151 165 163
f 152 164 166
f 152 166 156
f 158 160 167
f 158 167 164
f 158 164 159
f 161 163 165

