# https://github.com/mikedh/trimesh
v 0.00238824 0.01137436 0.00901175
v 0.00277851 0.01137436 0.00909096
v 0.00090140 0.00283107 0.01020795
v 0.00090140 0.01137436 0.00906659
v 0.00393981 0.01137436 0.00935803
v 0.00149538 0.00283107 0.01033083
v -0.00058544 0.00283107 0.01033083
v -0.00053023 0.01137436 0.00934787
v 0.00248343 0.00283107 0.01064053
v 0.00539428 0.01137436 0.00992972
v -0.00215033 0.00283107 0.01114115
v -0.00213891 0.01137436 0.00993175
v 0.00567223 0.01137436 0.01006275
v 0.00604727 0.01099721 0.01044658
v 0.00354383 0.00283107 0.01141634
v -0.00217127 0.00283107 0.01115740
v -0.00287186 0.01137436 0.01036027
v -0.00239973 0.01137436 0.01008204
v 0.00673263 0.01137436 0.01086698
v 0.00428820 0.00283107 0.01226119
v 0.00693253 0.01137436 0.01106296
v 0.00701058 0.01137436 0.01114318
v 0.00836606 0.01137436 0.01261355
v 0.00865734 0.01137436 0.01294357
v -0.00340111 0.00283107 0.01257801
v -0.00357625 0.01137436 0.01112288
v 0.00493738 0.00283107 0.01300552
v 0.00930271 0.01137436 0.01378741
v 0.00898859 0.01110090 0.01350715
v -0.00417213 0.00283107 0.01356503
v -0.00484987 0.01137436 0.01262168
v -0.00427493 0.01137436 0.01193117
v 0.00568175 0.00283107 0.01400370
v 0.00953497 0.01137436 0.01415602
v 0.00618435 0.00283107 0.01474701
v -0.00419878 0.00283107 0.01360362
v -0.00561899 0.01137436 0.01368688
v 0.01043355 0.01137436 0.01578988
v 0.00663935 0.00283107 0.01561522
v 0.01056871 0.01095372 0.01636868
v -0.00468234 0.00283107 0.01430834
v -0.00472613 0.00283107 0.01438145
v -0.00541719 0.00283107 0.01562131
v -0.00592550 0.01019523 0.01461399
v -0.00595786 0.01137436 0.01442917
v 0.01087332 0.01137436 0.01679009
v 0.00734945 0.00283107 0.01714753
v 0.01078574 0.01045113 0.01736077
v -0.00544765 0.00283107 0.01568427
v -0.00579794 0.00283107 0.01642555
v -0.00720673 0.00870667 0.01805737
v -0.00634242 0.01019523 0.01561522
v -0.00729240 0.01081323 0.01782077
v -0.00729240 0.01101310 0.01782077
v -0.00710393 0.01137436 0.01744810
v 0.01096279 0.01137436 0.01702263
v 0.01056871 0.00945931 0.01785936
v 0.00788631 0.00283107 0.01850925
v 0.01153583 0.01137436 0.01866258
v 0.01100277 0.01005139 0.01845035
v -0.00609303 0.00283107 0.01721252
v -0.00712106 0.00721896 0.01828686
v -0.00739330 0.00721896 0.01903018
v -0.00747326 0.00870667 0.01880170
v -0.00725242 0.00982142 0.01793146
v -0.00765983 0.00870667 0.01938456
v -0.00768648 0.01022701 0.01938456
v -0.00753798 0.01137436 0.01938456
v -0.00734380 0.01137436 0.01837927
v 0.01094376 0.00923018 0.01938456
v 0.00820234 0.00283107 0.01938456
v 0.00818520 0.00283107 0.01933481
v 0.01176238 0.01137436 0.01938456
v 0.01134355 0.01020275 0.01938456
v -0.00655755 0.00283107 0.01864938
v -0.00696305 0.00380699 0.01938456
v -0.00726575 0.00558824 0.01938456
v -0.00736094 0.00614854 0.01938456
v -0.00740282 0.00642618 0.01938456
v -0.00732096 0.00624889 0.01922920
v -0.00751895 0.00721896 0.01938456
v -0.00678790 0.00283107 0.01938456
f 1 2 3
f 1 3 4
f 1 4 8
f 1 8 12
f 1 12 18
f 1 18 17
f 1 17 26
f 1 26 32
f 1 32 31
f 1 31 37
f 1 37 45
f 1 45 55
f 1 55 69
f 1 69 68
f 1 68 73
f 1 73 59
f 1 59 56
f 1 56 46
f 1 46 38
f 1 38 34
f 1 34 28
f 1 28 24
f 1 24 23
f 1 23 22
f 1 22 21
f 1 21 19
f 1 19 13
f 1 13 10
f 1 10 5
f 1 5 2
f 2 5 6
f 2 6 3
f 3 6 9
f 3 9 15
f 3 15 20
f 3 20 27
f 3 27 33
f 3 33 35
f 3 35 39
f 3 39 47
f 3 47 58
f 3 58 72
f 3 72 71
f 3 71 82
f 3 82 75
f 3 75 61
f 3 61 50
f 3 50 49
f 3 49 43
f 3 43 42
f 3 42 41
f 3 41 36
f 3 36 30
f 3 30 25
f 3 25 16
f 3 16 11
f 3 11 7
f 3 7 4
f 4 7 8
f 5 9 6
f 5 10 9
f 7 11 12
f 7 12 8
f 9 10 13
f 9 13 14
f 9 14 15
f 11 16 17
f 11 17 18
f 11 18 12
f 13 19 14
f 14 19 15
f 15 19 21
f 15 21 22
f 15 22 23
f 15 23 24
f 15 24 20
f 16 25 26
f 16 26 17
f 20 24 27
f 24 28 29
f 24 29 27
f 25 30 31
f 25 31 32
f 25 32 26
f 27 29 33
f 28 34 35
f 28 35 33
f 28 33 29
f 30 36 37
f 30 37 31
f 34 38 35
f 35 38 40
f 35 40 39
f 36 41 37
f 37 41 42
f 37 42 43
f 37 43 44
f 37 44 45
f 38 46 40
f 39 40 47
f 40 46 48
f 40 48 47
f 43 49 44
f 44 50 51
f 44 51 52
f 44 52 45
f 44 49 50
f 45 52 53
f 45 53 54
f 45 54 55
f 46 56 48
f 47 48 57
f 47 57 58
f 48 56 59
f 48 59 60
f 48 60 57
f 50 61 62
f 50 62 51
f 51 62 63
f 51 63 64
f 51 64 65
f 51 65 52
f 52 65 53
f 53 65 64
f 53 64 66
f 53 66 67
f 53 67 54
f 54 67 68
f 54 68 69
f 54 69 55
f 57 60 70
f 57 70 71
f 57 71 72
f 57 72 58
f 59 73 60
f 60 73 74
f 60 74 70
f 61 75 76
f 61 76 77
f 61 77 78
f 61 78 79
f 61 79 80
f 61 80 63
f 61 63 62
f 63 80 79
f 63 79 81
f 63 81 64
f 64 81 66
f 66 81 79
f 66 79 78
f 66 78 77
f 66 77 76
f 66 76 82
f 66 82 71
f 66 71 70
f 66 70 74
f 66 74 73
f 66 73 68
f 66 68 67
f 75 82 76

