# https://github.com/mikedh/trimesh
v 0.01269613 0.01168436 0.02752067
v 0.01266477 0.01137555 0.02782986
v 0.01266268 0.01137555 0.02752067
v 0.01263341 0.01137555 0.02634388
v 0.01265850 0.01168436 0.02603468
v 0.01261250 0.01317167 0.02305810
v 0.01263550 0.01317167 0.02454870
v 0.01263759 0.01317167 0.02603468
v 0.01262713 0.01317167 0.02752067
v 0.01268359 0.01168436 0.02900665
v 0.01265432 0.01137555 0.02900665
v 0.01257068 0.01137555 0.02485789
v 0.01259995 0.01168436 0.02454870
v 0.01257068 0.01466015 0.02305810
v 0.01249122 0.01168436 0.02305810
v 0.01250377 0.01317167 0.02157211
v 0.01183466 0.02346091 0.00668918
v 0.01253095 0.01466015 0.02157211
v 0.01252886 0.01466015 0.02454870
v 0.01247868 0.01466015 0.02603468
v 0.01257068 0.01317167 0.02900665
v 0.01264386 0.01137555 0.02931585
v 0.01262295 0.01168436 0.03049264
v 0.01259786 0.01137555 0.03049264
v 0.01245149 0.01137555 0.02331653
v 0.01242849 0.01137555 0.02305810
v 0.01225285 0.01137555 0.02157211
v 0.01231140 0.01168436 0.02157211
v 0.01231349 0.01317167 0.02008151
v 0.01212112 0.01182753 0.02022457
v 0.01209185 0.01137555 0.02051992
v 0.01193503 0.01137555 0.01992460
v 0.01156075 0.02346091 0.00573852
v 0.01167366 0.02346091 0.00834592
v 0.01202912 0.01529080 0.03087106
v 0.01233022 0.01466015 0.02900665
v 0.01242222 0.01466015 0.02752067
v 0.01248704 0.01317167 0.03049264
v 0.01258322 0.01137555 0.03080184
v 0.01253095 0.01168436 0.03198324
v 0.01251213 0.01137555 0.03198324
v 0.01153566 0.01137555 0.01866475
v 0.01171966 0.01182753 0.01873859
v 0.01139347 0.02346091 0.00517551
v 0.01124292 0.02346091 0.00977191
v 0.00637728 0.01864049 0.05090879
v 0.00909761 0.01839556 0.04022538
v 0.00941543 0.01733067 0.04239898
v 0.00909552 0.01541741 0.05090879
v 0.01028945 0.01629299 0.04091300
v 0.01058427 0.01543042 0.04175290
v 0.01198103 0.01508966 0.03198324
v 0.01216085 0.01434542 0.03198324
v 0.01220058 0.01474061 0.03042341
v 0.01236576 0.01317167 0.03198324
v 0.01248704 0.01137555 0.03229243
v 0.01120111 0.01137555 0.04537557
v 0.01131820 0.01137555 0.04419878
v 0.01096274 0.01137555 0.01702647
v 0.01137256 0.02346091 0.00511551
v 0.01076201 0.02346091 0.01091178
v 0.00536526 0.01911259 0.05090879
v 0.00712166 0.01779212 0.05090879
v 0.00730566 0.01758033 0.05090879
v 0.00871915 0.01588005 0.05090879
v 0.00944262 0.01474534 0.05090879
v 0.01021209 0.01601493 0.04230669
v 0.01052364 0.01524229 0.04274510
v 0.01007199 0.01317167 0.05090879
v 0.01055500 0.01235406 0.04894286
v 0.01210230 0.01410641 0.03301235
v 0.01115301 0.01168436 0.04537557
v 0.01116765 0.01137555 0.04568477
v 0.01087283 0.01137555 0.01679112
v 0.00930252 0.01137555 0.01379145
v 0.00865642 0.01137555 0.01294693
v 0.01128474 0.02346091 0.00500476
v 0.01043373 0.01137555 0.01579431
v 0.00953671 0.01137555 0.01415603
v 0.00933807 0.02346091 0.01424833
v 0.00429888 0.01938236 0.05090879
v 0.00836578 0.02346091 0.01644038
v 0.00727012 0.02346091 0.01859552
v 0.00690211 0.02346091 0.01926006
v 0.00990681 0.01359407 0.05090879
v 0.01045045 0.01177311 0.05090879
v 0.01050482 0.01155066 0.05090879
v 0.01075782 0.01178849 0.04841215
v 0.01097319 0.01168436 0.04686617
v 0.01067419 0.01137555 0.04984276
v 0.01099201 0.01137555 0.04717536
v 0.00836578 0.01137555 0.01261466
v 0.01043164 0.02292846 0.00455712
v 0.00992144 0.02346091 0.00388796
v 0.00701084 0.01137555 0.01114714
v 0.00387650 0.01947584 0.05090879
v 0.00536526 0.02346091 0.02063068
v 0.00283730 0.01964740 0.05090879
v 0.01054246 0.01137555 0.05090879
v 0.00693347 0.01137555 0.01106407
v 0.00673274 0.01137555 0.01087025
v 0.00567054 0.01137555 0.01006265
v 0.00987753 0.02346091 0.00386488
v 0.00387650 0.02346091 0.02082912
v 0.00235847 0.01969710 0.05090879
v -0.00715744 0.01137555 0.05090879
v 0.00539454 0.01137555 0.00993343
v 0.00238775 0.01137555 0.00901507
v 0.00848705 0.02346091 0.00376797
v 0.00394132 0.01137555 0.00936119
v 0.00277876 0.01137555 0.00909353
v 0.00336422 0.02346091 0.02060299
v 0.00146355 0.01953500 0.05090879
v 0.00238566 0.02346091 0.02016919
v 0.00090735 0.02346091 0.01896471
v -0.00054586 0.02346091 0.01764025
v -0.00200325 0.02346091 0.01620041
v -0.00233362 0.02346091 0.01584045
v -0.00294836 0.02346091 0.01511592
v -0.00717835 0.01137555 0.05074265
v -0.00708008 0.01148913 0.05090879
v -0.00492222 0.02346091 0.01115175
v 0.00834068 0.02346091 0.00376336
v 0.00089272 0.01137555 0.00907045
v 0.00098472 0.01943916 0.05090879
v -0.00326200 0.02346091 0.01464520
v -0.00759654 0.01147020 0.04686617
v -0.00754427 0.01137555 0.04774761
v -0.00685634 0.01181215 0.05090879
v -0.00452075 0.02346091 0.01240238
v -0.00506649 0.02346091 0.00966577
v -0.00611197 0.01284628 0.05090879
v -0.00595096 0.01305808 0.05090879
v -0.00553068 0.01359052 0.05090879
v -0.00499749 0.01421644 0.05090879
v -0.00478630 0.01445782 0.05090879
v -0.00411720 0.01520206 0.05090879
v -0.00358401 0.01575344 0.05090879
v -0.00210152 0.01724074 0.05090879
v -0.00105605 0.01816957 0.05090879
v -0.00052286 0.01855411 0.05090879
v -0.00031167 0.01870556 0.05090879
v 0.00090108 0.01317167 0.00845667
v -0.00051240 0.01314800 0.00873356
v -0.00153906 0.01362839 0.00882586
v -0.00058558 0.01466015 0.00831361
v 0.00679547 0.02346091 0.00416024
v -0.00053122 0.01137555 0.00935195
v -0.00051240 0.01179085 0.00919505
v -0.00417366 0.02346091 0.01314999
v -0.00791646 0.01168436 0.04239898
v -0.00764463 0.01137555 0.04686617
v -0.00466085 0.02346091 0.00836438
v -0.00710308 0.01137555 0.01745104
v -0.00734354 0.01137555 0.01838324
v -0.00769900 0.01137555 0.02008151
v -0.00797291 0.01137555 0.02157211
v -0.00816110 0.01137555 0.02305810
v -0.00833465 0.01137555 0.02456716
v -0.00845174 0.01137555 0.02603468
v -0.00861274 0.01137555 0.02917279
v -0.00862320 0.01137555 0.02950968
v -0.00865247 0.01137555 0.03049264
v -0.00866084 0.01137555 0.03127717
v -0.00866084 0.01137555 0.03198324
v -0.00865665 0.01137555 0.03276777
v -0.00863574 0.01137555 0.03421683
v -0.00861902 0.01137555 0.03495983
v -0.00860856 0.01137555 0.03537516
v -0.00856883 0.01137555 0.03622891
v -0.00830746 0.01168436 0.03793641
v -0.00819037 0.01168436 0.03942240
v -0.00805864 0.01168436 0.04091300
v -0.00095777 0.01263685 0.00899200
v -0.00213916 0.01137555 0.00993343
v -0.00219980 0.01157196 0.00989190
v -0.00205134 0.01314800 0.00925043
v -0.00253226 0.01439629 0.00907506
v -0.00282499 0.01538901 0.00891816
v -0.00205134 0.01479977 0.00873356
v -0.00330173 0.02346091 0.00713221
v -0.00206389 0.02346091 0.00668457
v -0.00819665 0.01137555 0.04091300
v -0.00403774 0.02346091 0.00761677
v -0.00452912 0.01614864 0.01011341
v -0.00467339 0.01763594 0.00991036
v -0.00582969 0.01362720 0.01331151
v -0.00595933 0.01137555 0.01443292
v -0.00576696 0.01263449 0.01347764
v -0.00847474 0.01137555 0.03752569
v -0.00832419 0.01137555 0.03942240
v -0.00240053 0.01137555 0.01008572
v -0.00287099 0.01137555 0.01036261
v -0.00302363 0.01199437 0.01023339
v -0.00300272 0.01614864 0.00880740
v -0.00330591 0.01317167 0.01002111
v -0.00354010 0.01471576 0.00967961
v -0.00374710 0.01614864 0.00936580
v -0.00402729 0.01763594 0.00916736
v -0.00440784 0.01503405 0.01028416
v -0.00566032 0.01168436 0.01363916
v -0.00561850 0.01137555 0.01368993
v -0.00405029 0.01317167 0.01069488
v -0.00425520 0.01404133 0.01046414
v -0.00357564 0.01137555 0.01112407
v -0.00484903 0.01137555 0.01262389
v -0.00427402 0.01137555 0.01193167
v -0.00444966 0.01212334 0.01172861
f 1 2 3
f 1 3 4
f 1 4 5
f 1 5 6
f 1 6 7
f 1 7 8
f 1 8 9
f 1 9 10
f 1 10 2
f 2 10 11
f 2 11 22
f 2 22 24
f 2 24 39
f 2 39 41
f 2 41 56
f 2 56 58
f 2 58 57
f 2 57 73
f 2 73 91
f 2 91 90
f 2 90 99
f 2 99 106
f 2 106 120
f 2 120 128
f 2 128 152
f 2 152 183
f 2 183 191
f 2 191 190
f 2 190 170
f 2 170 169
f 2 169 168
f 2 168 167
f 2 167 166
f 2 166 165
f 2 165 164
f 2 164 163
f 2 163 162
f 2 162 161
f 2 161 160
f 2 160 159
f 2 159 158
f 2 158 157
f 2 157 156
f 2 156 155
f 2 155 154
f 2 154 188
f 2 188 202
f 2 202 206
f 2 206 207
f 2 207 205
f 2 205 193
f 2 193 192
f 2 192 175
f 2 175 148
f 2 148 124
f 2 124 108
f 2 108 111
f 2 111 110
f 2 110 107
f 2 107 102
f 2 102 101
f 2 101 100
f 2 100 95
f 2 95 92
f 2 92 76
f 2 76 75
f 2 75 79
f 2 79 78
f 2 78 74
f 2 74 59
f 2 59 42
f 2 42 32
f 2 32 31
f 2 31 27
f 2 27 26
f 2 26 25
f 2 25 12
f 2 12 4
f 2 4 3
f 4 12 13
f 4 13 5
f 5 13 6
f 6 14 7
f 6 13 15
f 6 15 16
f 6 16 17
f 6 17 18
f 6 18 14
f 7 14 8
f 8 14 9
f 9 14 19
f 9 19 20
f 9 20 37
f 9 37 21
f 9 21 10
f 10 22 11
f 10 21 23
f 10 23 24
f 10 24 22
f 12 25 15
f 12 15 13
f 14 18 17
f 14 17 19
f 15 25 26
f 15 26 27
f 15 27 28
f 15 28 16
f 16 28 29
f 16 29 17
f 17 29 30
f 17 30 31
f 17 31 32
f 17 32 33
f 17 33 44
f 17 44 60
f 17 60 77
f 17 77 94
f 17 94 103
f 17 103 109
f 17 109 123
f 17 123 147
f 17 147 182
f 17 182 181
f 17 181 184
f 17 184 153
f 17 153 131
f 17 131 122
f 17 122 130
f 17 130 150
f 17 150 126
f 17 126 119
f 17 119 118
f 17 118 117
f 17 117 116
f 17 116 115
f 17 115 114
f 17 114 112
f 17 112 104
f 17 104 97
f 17 97 84
f 17 84 83
f 17 83 82
f 17 82 80
f 17 80 61
f 17 61 45
f 17 45 34
f 17 34 35
f 17 35 36
f 17 36 37
f 17 37 20
f 17 20 19
f 21 38 23
f 21 37 38
f 23 39 24
f 23 38 40
f 23 40 41
f 23 41 39
f 27 31 28
f 28 31 30
f 28 30 29
f 32 42 43
f 32 43 44
f 32 44 33
f 34 45 46
f 34 46 47
f 34 47 48
f 34 48 49
f 34 49 50
f 34 50 51
f 34 51 52
f 34 52 35
f 35 52 53
f 35 53 54
f 35 54 36
f 36 54 53
f 36 53 38
f 36 38 37
f 38 53 55
f 38 55 40
f 40 56 41
f 40 55 57
f 40 57 58
f 40 58 56
f 42 59 60
f 42 60 44
f 42 44 43
f 45 61 62
f 45 62 46
f 46 62 81
f 46 81 96
f 46 96 98
f 46 98 105
f 46 105 113
f 46 113 125
f 46 125 142
f 46 142 141
f 46 141 140
f 46 140 139
f 46 139 138
f 46 138 137
f 46 137 136
f 46 136 135
f 46 135 134
f 46 134 133
f 46 133 132
f 46 132 129
f 46 129 121
f 46 121 106
f 46 106 99
f 46 99 87
f 46 87 86
f 46 86 69
f 46 69 85
f 46 85 66
f 46 66 49
f 46 49 65
f 46 65 64
f 46 64 63
f 46 63 47
f 47 63 64
f 47 64 65
f 47 65 49
f 47 49 48
f 49 66 67
f 49 67 50
f 50 67 51
f 51 67 68
f 51 68 52
f 52 68 69
f 52 69 70
f 52 70 71
f 52 71 53
f 53 71 55
f 55 71 72
f 55 72 57
f 57 72 73
f 59 74 60
f 60 75 76
f 60 76 77
f 60 74 78
f 60 78 79
f 60 79 75
f 61 80 62
f 62 80 82
f 62 82 83
f 62 83 84
f 62 84 81
f 66 85 68
f 66 68 67
f 68 85 69
f 69 86 70
f 70 86 87
f 70 87 88
f 70 88 71
f 71 88 89
f 71 89 72
f 72 89 90
f 72 90 91
f 72 91 73
f 76 92 77
f 77 93 94
f 77 92 95
f 77 95 93
f 81 84 96
f 84 97 98
f 84 98 96
f 87 99 90
f 87 90 89
f 87 89 88
f 93 95 100
f 93 100 101
f 93 101 102
f 93 102 94
f 94 102 103
f 97 104 105
f 97 105 98
f 102 107 103
f 103 108 109
f 103 107 110
f 103 110 111
f 103 111 108
f 104 112 105
f 105 112 114
f 105 114 115
f 105 115 116
f 105 116 117
f 105 117 118
f 105 118 119
f 105 119 113
f 106 121 122
f 106 122 120
f 108 123 109
f 108 124 123
f 113 119 125
f 119 126 125
f 120 127 128
f 120 122 127
f 121 129 122
f 122 131 127
f 122 129 132
f 122 132 133
f 122 133 134
f 122 134 135
f 122 135 136
f 122 136 137
f 122 137 138
f 122 138 139
f 122 139 140
f 122 140 141
f 122 141 142
f 122 142 130
f 123 143 144
f 123 144 145
f 123 145 146
f 123 146 147
f 123 124 143
f 124 148 149
f 124 149 143
f 125 126 150
f 125 150 130
f 125 130 142
f 127 151 152
f 127 152 128
f 127 131 151
f 131 153 154
f 131 154 155
f 131 155 156
f 131 156 157
f 131 157 158
f 131 158 159
f 131 159 160
f 131 160 161
f 131 161 162
f 131 162 163
f 131 163 164
f 131 164 165
f 131 165 166
f 131 166 167
f 131 167 168
f 131 168 169
f 131 169 170
f 131 170 171
f 131 171 172
f 131 172 173
f 131 173 151
f 143 174 144
f 143 149 174
f 144 174 145
f 145 174 175
f 145 175 176
f 145 176 177
f 145 177 178
f 145 178 179
f 145 179 180
f 145 180 181
f 145 181 182
f 145 182 146
f 146 182 147
f 148 175 174
f 148 174 149
f 151 173 152
f 152 173 183
f 153 184 185
f 153 185 186
f 153 186 187
f 153 187 154
f 154 187 189
f 154 189 188
f 170 190 171
f 171 190 172
f 172 190 191
f 172 191 183
f 172 183 173
f 175 192 176
f 176 178 177
f 176 192 193
f 176 193 178
f 178 193 194
f 178 194 179
f 179 195 181
f 179 181 180
f 179 194 196
f 179 196 197
f 179 197 198
f 179 198 195
f 181 195 184
f 184 195 199
f 184 199 185
f 185 199 200
f 185 200 189
f 185 189 186
f 186 189 187
f 188 189 201
f 188 201 202
f 189 200 201
f 193 203 204
f 193 204 194
f 193 205 203
f 194 204 196
f 195 198 199
f 196 204 197
f 197 204 198
f 198 204 200
f 198 200 199
f 200 204 202
f 200 202 201
f 202 204 206
f 203 205 207
f 203 207 208
f 203 208 204
f 204 208 206
f 206 208 207

