# https://github.com/mikedh/trimesh
v 0.09925860 0.00748654 -0.00182508
v 0.09925860 0.00712130 0.00178664
v 0.10287100 0.00730642 -0.00182508
v 0.10287100 0.00685111 -0.00430225
v 0.09925860 0.00690615 -0.00441455
v 0.09564600 0.00684945 -0.00432207
v 0.09564600 0.00739148 -0.00182508
v 0.10171300 0.00655758 0.00370067
v 0.10289100 0.00688947 0.00198812
v 0.09202360 0.00694117 0.00162315
v 0.09202360 0.00642249 0.00342984
v 0.09925860 0.00654257 0.00367920
v 0.10504900 0.00669934 0.00091798
v 0.10517700 0.00678940 -0.00182508
v 0.10496900 0.00667433 -0.00396205
v 0.10287100 0.00552688 -0.00610894
v 0.09925860 0.00567198 -0.00622124
v 0.09564600 0.00563362 -0.00612875
v 0.02699750 0.00390911 -0.00488521
v 0.00857845 0.00350050 -0.00445088
v 0.09202360 0.00678107 -0.00419326
v 0.03061010 0.00544349 -0.00182508
v 0.10289100 0.00496817 0.00482861
v 0.10411800 0.00637079 0.00332745
v 0.09925860 0.00467297 0.00542148
v 0.09925860 0.00260990 0.00714229
v 0.02699750 0.00464795 0.00178664
v 0.00857845 0.00329703 0.00273788
v 0.02699750 0.00327201 0.00397316
v 0.09202360 0.00461459 0.00532900
v 0.10648400 0.00484642 0.00196830
v 0.10865100 0.00332038 0.00060751
v 0.10697900 0.00530506 -0.00182508
v 0.10861200 0.00325367 -0.00410243
v 0.10627600 0.00449118 -0.00523697
v 0.10516700 0.00331871 -0.00756221
v 0.10287100 0.00372065 -0.00784131
v 0.09925860 0.00386408 -0.00796847
v 0.09564600 0.00382739 -0.00795856
v 0.09202360 0.00374067 -0.00789911
v 0.02699750 0.00169594 -0.00669190
v 0.00857845 0.00129067 -0.00573736
v 0.00857845 0.00427603 -0.00182508
v 0.02699750 0.00528505 -0.00182508
v 0.04144780 0.00228468 -0.00698090
v 0.10306900 0.00130568 0.00688136
v 0.10551400 0.00396248 0.00438768
v 0.09564600 0.00262157 0.00714394
v 0.09202360 0.00257821 0.00713569
v 0.09925860 0.00080367 0.00752378
v 0.10200000 0.00026497 0.00741478
v 0.00857845 0.00423434 -0.00147827
v 0.00857845 0.00359056 0.00206409
v 0.00857845 0.00349550 0.00235639
v 0.00857845 0.00199948 0.00395004
v 0.01032040 0.00276000 0.00351571
v 0.10790900 0.00105884 0.00301532
v 0.10896800 0.00105884 0.00120864
v 0.10969000 0.00105884 -0.00182508
v 0.10880000 0.00349884 -0.00182508
v 0.10899800 0.00105884 -0.00469364
v 0.10754300 0.00105884 -0.00650033
v 0.10574100 0.00105884 -0.00790737
v 0.10287100 0.00105884 -0.00887181
v 0.09925860 0.00105884 -0.00921531
v 0.09564600 0.00105884 -0.00923348
v 0.02699750 -0.00011028 -0.00748790
v 0.02338500 -0.00033210 -0.00743010
v 0.00857845 0.00104217 -0.00585131
v 0.10306900 -0.00290051 0.00693256
v 0.10610800 0.00105884 0.00502844
v 0.09564600 0.00081368 0.00752543
v 0.09202360 0.00077032 0.00750066
v 0.00857845 0.00132069 0.00423409
v 0.02699750 0.00105884 0.00503670
v 0.09564600 -0.00255194 0.00761626
v 0.09957530 -0.00290051 0.00750231
v 0.10200000 -0.00192819 0.00741478
v 0.10883900 -0.00184146 0.00098899
v 0.10595900 -0.00255194 0.00506147
v 0.10900800 -0.00284881 -0.00201830
v 0.10877000 -0.00255194 -0.00436831
v 0.10749300 -0.00255194 -0.00617500
v 0.10569200 -0.00255194 -0.00788259
v 0.10287100 -0.00255194 -0.00885034
v 0.09925860 -0.00255194 -0.00924174
v 0.09564600 -0.00255194 -0.00925495
v 0.02338500 -0.00143618 -0.00743010
v 0.02124710 -0.00055892 -0.00734587
v 0.00857845 -0.00224507 -0.00615848
v 0.10100100 -0.00433816 0.00720175
v 0.10531600 -0.00528380 0.00443061
v 0.09202360 -0.00255194 0.00754360
v 0.04144780 -0.00255194 0.00615803
v 0.04506030 -0.00255194 0.00627859
v 0.00857845 -0.00255194 0.00464200
v 0.09202360 -0.00442989 0.00725129
v 0.09564600 -0.00450494 0.00729753
v 0.09859540 -0.00447158 0.00727771
v 0.10783000 -0.00284881 0.00203106
v 0.10594900 -0.00635953 0.00189234
v 0.10822600 -0.00424976 -0.00094320
v 0.10830500 -0.00438485 -0.00335267
v 0.10830500 -0.00438485 -0.00366809
v 0.10510800 -0.00472675 -0.00752918
v 0.10287100 -0.00514704 -0.00781984
v 0.09925860 -0.00534217 -0.00799654
v 0.09202360 -0.00536886 -0.00790406
v 0.04144780 -0.00444156 -0.00730789
v 0.03061010 -0.00396957 -0.00715100
v 0.02699750 -0.00191151 -0.00748790
v 0.02124710 -0.00100756 -0.00734587
v 0.02699750 -0.00371773 -0.00708329
v 0.00857845 -0.00255194 -0.00613371
v 0.10169300 -0.00813240 0.00377994
v 0.10289100 -0.00635953 0.00492770
v 0.09957530 -0.00587253 0.00602757
v 0.10410800 -0.00769210 0.00316725
v 0.09015290 -0.00437151 0.00721496
v 0.00857845 -0.00484850 0.00401280
v 0.04144780 -0.00580582 0.00473448
v 0.04506030 -0.00584585 0.00480384
v 0.09202360 -0.00623611 0.00578315
v 0.09564600 -0.00631283 0.00581453
v 0.10500900 -0.00824248 0.00075779
v 0.10710700 -0.00581916 -0.00201830
v 0.10504900 -0.00825915 -0.00182508
v 0.10483100 -0.00808403 -0.00381342
v 0.10617700 -0.00575912 -0.00494632
v 0.10287100 -0.00695327 -0.00602471
v 0.09925860 -0.00714840 -0.00633684
v 0.09202360 -0.00717675 -0.00643923
v 0.03422270 -0.00616606 -0.00547313
v 0.02699750 -0.00611770 -0.00527661
v 0.00857845 -0.00589755 -0.00468869
v 0.00857845 -0.00551396 -0.00485714
v 0.10289100 -0.00856603 0.00189234
v 0.09925860 -0.00823914 0.00393022
v 0.09925860 -0.00910306 0.00178664
v 0.00857845 -0.00504197 0.00375682
v 0.03061010 -0.00742192 0.00261732
v 0.03422270 -0.00751365 0.00276595
v 0.03061010 -0.00561569 0.00441245
v 0.03422270 -0.00570742 0.00449337
v 0.03783520 -0.00757369 0.00285018
v 0.09202360 -0.00828417 0.00397646
v 0.09564600 -0.00829084 0.00400784
v 0.10287100 -0.00893795 -0.00182508
v 0.10287100 -0.00831586 -0.00421803
v 0.09925860 -0.00855269 -0.00453015
v 0.09202360 -0.00858604 -0.00463254
v 0.03422270 -0.00803567 -0.00372094
v 0.00857845 -0.00752032 -0.00182508
v 0.03197590 -0.00799064 -0.00365984
v 0.02699750 -0.00792393 -0.00336423
v 0.09564600 -0.00921147 0.00178664
v 0.09925860 -0.00941827 -0.00182508
v 0.09564600 -0.00955170 -0.00182508
v 0.00857845 -0.00650630 0.00178664
v 0.02699750 -0.00730851 0.00241254
v 0.02699750 -0.00818911 0.00060586
v 0.03061010 -0.00826416 0.00081064
v 0.03422270 -0.00832086 0.00095927
v 0.09202360 -0.00920480 0.00178664
v 0.09564600 -0.00862941 -0.00449712
v 0.09202360 -0.00950667 -0.00182508
v 0.03422270 -0.00838424 -0.00182508
v 0.02408770 -0.00808904 0.00032676
v 0.02699750 -0.00818911 -0.00155754
v 0.02408770 -0.00808904 -0.00105715
v -0.01098560 0.00283693 -0.01809810
v -0.01098560 0.00289072 -0.01809810
v -0.01091210 0.00283693 -0.01809810
v -0.01113980 -0.01163810 -0.01451920
v -0.02720790 -0.00481350 -0.01464490
v -0.02720790 -0.00255127 -0.01496410
v -0.02720790 0.00105563 -0.01505440
v -0.01091210 0.00289072 -0.01809810
v -0.02720790 0.00437461 -0.01473520
v -0.02720790 0.00618439 -0.01435480
v -0.00914306 0.00988304 -0.01430640
v -0.01033760 -0.01163810 -0.01451920
v -0.00349628 0.00186560 -0.01469010
v -0.00521273 0.00082149 -0.01545100
v -0.00593784 -0.00616450 -0.01496090
v -0.00653685 -0.00902155 -0.01475780
v -0.00793454 -0.01142930 -0.01440310
v -0.00913956 -0.01004670 -0.01485450
v -0.02720790 -0.01213800 -0.01143040
v -0.02720790 -0.00978089 -0.01258790
v -0.00786448 -0.01526400 -0.01093060
v -0.00914306 0.00807643 -0.01523820
v -0.00650883 0.00748793 -0.01494800
v -0.00539488 0.00464987 -0.01537680
v -0.00349628 0.00342859 -0.01469010
v -0.02720790 0.01056650 -0.00787405
v -0.01275460 0.01107580 -0.01202690
v -0.00914306 0.01136060 -0.01250080
v -0.00553150 0.01077840 -0.01179150
v -0.00539488 0.00852887 -0.01360350
v -0.00721993 -0.01526400 -0.01093060
v -0.00413031 -0.00616450 -0.01418060
v 0.00857845 -0.00224437 -0.00615875
v 0.00857845 -0.00255127 -0.00613296
v 0.00857845 -0.00551273 -0.00485616
v 0.00857845 -0.00589556 -0.00468850
v -0.00515668 -0.01026500 -0.01308440
v -0.00638272 -0.01339100 -0.01176570
v -0.02720790 -0.01377060 -0.00905089
v -0.01027100 -0.01509630 -0.01072100
v -0.00910102 -0.01611510 -0.00933140
v -0.01275460 -0.01614360 -0.00858660
v -0.00409879 0.00583951 -0.01419030
v -0.00010190 0.00649129 -0.01086610
v 0.00857845 0.00103981 -0.00584923
v -0.02720790 0.01152200 -0.00543975
v -0.01464970 0.01374310 -0.00731948
v -0.01275460 0.01288250 -0.00918953
v -0.00914306 0.01316720 -0.00915084
v -0.00732502 0.01371140 -0.00726789
v -0.00352780 0.01026590 -0.01105640
v -0.00216165 0.00793088 -0.01153680
v -0.00657538 -0.01580820 -0.00905089
v -0.00914306 -0.01768130 -0.00543653
v 0.00857845 -0.00751867 -0.00182539
v -0.02720790 -0.01502670 -0.00660692
v -0.01275460 -0.01733640 -0.00543653
v 0.00857845 0.00349819 -0.00444991
v 0.00857845 0.00128976 -0.00573638
v -0.02720790 0.01234140 -0.00182539
v -0.01275460 0.01448030 0.00178575
v -0.00914306 0.01464160 0.00178575
v -0.01275460 0.01374620 -0.00738396
v -0.01872020 0.01383480 -0.00021005
v -0.00914306 0.01372410 -0.00734205
v -0.00634769 0.01415440 0.00178575
v 0.00019235 0.01036710 -0.00409525
v -0.00535285 -0.01627650 -0.00533013
v -0.00553150 -0.01647580 -0.00182539
v -0.00914306 -0.01748190 -0.00182539
v -0.02720790 -0.01582400 -0.00182539
v 0.00857845 -0.00650621 0.00178575
v -0.00404624 -0.01506470 0.00262083
v -0.00364690 -0.01521970 0.00021233
v -0.00356283 -0.01530200 -0.00182539
v -0.00358735 -0.01531460 -0.00405333
v -0.02720790 -0.01547600 -0.00479813
v 0.00857845 0.00427336 -0.00182539
v -0.02720790 0.01212630 0.00178575
v -0.01858710 0.01380320 0.00178575
v -0.01636620 0.01409110 0.00178575
v -0.01261450 0.01415440 0.00532919
v -0.00914306 0.01448970 0.00540012
v -0.00651934 0.01408160 0.00540012
v -0.00454016 0.01319890 0.00178575
v 0.00018184 0.01036080 -0.00182539
v -0.00706930 -0.01530200 0.00750554
v -0.00914306 -0.01533050 0.00757003
v -0.01174580 -0.01527030 0.00739269
v -0.02720790 -0.01554880 0.00117960
v 0.00857845 -0.00504130 0.00375576
v 0.00857845 0.00423223 -0.00148039
v -0.02720790 0.01060130 0.00897257
v -0.01817720 0.01370830 0.00359455
v -0.01131840 0.01383160 0.00745395
v -0.00914306 0.01389810 0.00764096
v -0.00709032 0.01383800 0.00753456
v -0.00471181 0.01283820 0.00540012
v -0.00689065 -0.01211900 0.01121020
v -0.00914306 -0.01244180 0.01158100
v -0.00914306 -0.01425150 0.00937560
v 0.00857845 -0.00484830 0.00401370
v -0.01287370 -0.01427050 0.00876299
v -0.02720790 -0.01135020 0.01047180
v -0.02720790 -0.01499510 0.00298517
v 0.00857845 0.00358995 0.00206304
v -0.02720790 0.01052850 0.00924663
v -0.02720790 0.01034810 0.00973026
v -0.02652830 0.01000640 0.01067170
v -0.00914306 0.01262300 0.00944653
v -0.00685913 0.01061710 0.01119080
v -0.00576970 0.01171810 0.00875654
v 0.00857845 0.00329570 0.00273690
v 0.00857845 0.00349503 0.00235644
v -0.00722694 -0.00806920 0.01447960
v -0.00914306 -0.00997706 0.01338650
v -0.01275460 -0.01226460 0.01147780
v 0.00857845 -0.00281704 0.00456827
v -0.02720790 -0.00954360 0.01170350
v -0.01261100 -0.00951828 0.01339940
v -0.01131140 -0.00813880 0.01449890
v -0.02720790 0.00904459 0.01135210
v -0.00914306 0.01081640 0.01134560
v -0.00914306 0.00828525 0.01281260
v -0.00610599 0.00828525 0.01179380
v 0.00857845 0.00199848 0.00394921
v -0.00694320 -0.00616450 0.01459240
v -0.00914306 -0.00616450 0.01484070
v -0.00914306 -0.00817044 0.01451820
v 0.00857845 -0.00255127 0.00463920
v -0.02720790 -0.00616450 0.01287710
v -0.01261100 -0.00599681 0.01466330
v -0.02720790 0.00870289 0.01158740
v -0.02720790 0.00855735 0.01167450
v -0.02720790 0.00467202 0.01309640
v -0.01275460 0.00467202 0.01390560
v -0.00914306 0.00467202 0.01385410
v -0.00519522 0.00496310 0.01213880
v 0.00857845 0.00132140 0.00423295
v -0.00692218 -0.00372193 0.01459560
v -0.00914306 -0.00303852 0.01475360
v -0.01296130 -0.00223804 0.01462790
v -0.02720790 -0.00255127 0.01327370
v -0.01477930 -0.00468061 0.01448600
v -0.02720790 0.00105879 0.01331240
v -0.01605440 0.00073607 0.01424100
v -0.01296130 0.00073607 0.01434090
v -0.01463920 -0.00068138 0.01443760
v -0.01478630 -0.00255127 0.01447630
v -0.07417980 0.00152100 -0.01825720
v -0.07417980 0.00049463 -0.01812210
v -0.07779180 0.00049463 -0.01808340
v -0.07779180 0.00169130 -0.01823470
v -0.07417980 0.00337608 -0.01825720
v -0.05973190 0.00246831 -0.01818960
v -0.05611990 0.00259908 -0.01814460
v -0.05260470 0.00049463 -0.01770370
v -0.08194400 0.00049463 -0.01799980
v -0.08863580 0.00241661 -0.01815420
v -0.07779180 0.00342322 -0.01823470
v -0.07779180 0.00523116 -0.01764900
v -0.05973190 0.00318753 -0.01818960
v -0.05611990 0.00305524 -0.01814460
v -0.05391880 0.00283020 -0.01808990
v -0.04166390 0.00049463 -0.01729830
v -0.08849880 0.00049463 -0.01784530
v -0.08863580 0.00061019 -0.01786780
v -0.09148190 0.00262188 -0.01811880
v -0.08863580 0.00298834 -0.01815420
v -0.09148190 0.00292752 -0.01811880
v -0.09947180 0.00467464 -0.01713410
v -0.09947180 0.00796056 -0.01542220
v -0.07772730 0.00863721 -0.01557980
v -0.07124510 0.01016230 -0.01452430
v -0.05973190 0.00499395 -0.01739800
v -0.05391880 0.00288190 -0.01808990
v -0.04528390 0.00467464 -0.01696040
v -0.04166390 0.00106179 -0.01736580
v -0.04109950 0.00049463 -0.01723390
v -0.09245750 0.00049463 -0.01769730
v -0.09251390 0.00127467 -0.01787430
v -0.09947180 0.00106179 -0.01749130
v -0.10308400 0.00106179 -0.01685740
v -0.10308400 0.00467464 -0.01647770
v -0.10308400 0.00739339 -0.01512610
v -0.09947180 0.00976546 -0.01424440
v -0.08002510 0.01011520 -0.01449220
v -0.07334940 0.01016230 -0.01452430
v -0.05611990 0.01383900 -0.01102640
v -0.05250790 0.01380710 -0.01098770
v -0.04889590 0.01375390 -0.01092020
v -0.04889590 0.01190030 -0.01241330
v -0.04528390 0.00955562 -0.01410280
v -0.04166390 0.00768838 -0.01516470
v -0.04166390 0.00467464 -0.01675760
v -0.02720790 0.00437813 -0.01473350
v -0.02720790 0.00105875 -0.01505210
v -0.02721590 0.00049463 -0.01503920
v -0.09890740 0.00049463 -0.01737550
v -0.09947180 0.00049463 -0.01733690
v -0.10308400 0.00049463 -0.01673830
v -0.10609900 0.00049463 -0.01532240
v -0.10613100 0.00106179 -0.01536100
v -0.10561500 0.00467464 -0.01502630
v -0.10500300 0.00656469 -0.01455330
v -0.10308400 0.00919829 -0.01380990
v -0.10650200 0.00810957 -0.01252270
v -0.09947180 0.01181820 -0.01243580
v -0.09108680 0.01382690 -0.01100060
v -0.08863580 0.01190030 -0.01272870
v -0.08863580 0.01382840 -0.01100380
v -0.05611990 0.01602860 0.00178775
v -0.04672710 0.01372190 -0.01087510
v -0.04542100 0.01223030 -0.01201750
v -0.04166390 0.00949480 -0.01401910
v -0.02720790 0.00618607 -0.01435700
v -0.02720790 0.00049463 -0.01358790
v -0.10790500 0.00049463 -0.01378420
v -0.10793700 0.00106179 -0.01379060
v -0.10742100 0.00467464 -0.01362970
v -0.10888100 0.00724742 -0.01139320
v -0.10308400 0.01122060 -0.01200460
v -0.10558300 0.01043450 -0.01124200
v -0.10799400 0.00965446 -0.01017360
v -0.09947180 0.01337370 -0.00905050
v -0.09947180 0.01477420 0.00178775
v -0.08502390 0.01545390 0.00178775
v -0.08140380 0.01561350 0.00178775
v -0.07056780 0.01599210 0.00178775
v -0.05973190 0.01541280 0.00539835
v -0.05611990 0.01531090 0.00539835
v -0.03633460 0.01370220 0.00715860
v -0.03774550 0.01398800 0.00573302
v -0.03805190 0.01418120 0.00178775
v -0.03535900 0.01381470 -0.00040693
v -0.02720790 0.01234130 -0.00182608
v -0.02720790 0.01152320 -0.00543990
v -0.02720790 0.01056830 -0.00787593
v -0.04166390 0.01161900 -0.01221060
v -0.02720790 0.00049463 0.01088830
v -0.10910600 0.00049463 -0.01197890
v -0.10909800 0.00106179 -0.01198210
v -0.10907400 0.00467464 -0.01182440
v -0.10940500 0.00467464 -0.00905050
v -0.10900200 0.00838479 -0.00900223
v -0.10868700 0.01026880 -0.00776330
v -0.10308400 0.01255870 -0.00905050
v -0.10675200 0.01082070 -0.00900223
v -0.10518000 0.01388160 -0.00066438
v -0.10308400 0.01405190 -0.00137234
v -0.10308400 0.01440920 0.00178775
v -0.09947180 0.01436210 0.00476118
v -0.07417980 0.01514370 0.00539835
v -0.05973190 0.01078580 0.01184400
v -0.05611990 0.01075840 0.01185690
v -0.04166390 0.01379800 0.00734203
v -0.03873720 0.01376150 0.00729054
v -0.07779180 0.01388160 0.00746753
v -0.07417980 0.01391810 0.00749327
v -0.04166390 0.01058050 0.01152540
v -0.02894130 0.01009690 0.01082390
v -0.02720790 0.01034780 0.00972979
v -0.02720790 0.01052880 0.00924709
v -0.02720790 0.01060180 0.00897356
v -0.02720790 0.01212690 0.00178453
v -0.03589920 0.01380710 0.00474831
v -0.03531870 0.01386340 0.00178775
v -0.03351270 0.01348170 0.00178775
v -0.02720790 0.00106179 0.01331140
v -0.02721590 0.00049463 0.01330500
v -0.10951800 0.00049463 -0.00905050
v -0.10957400 0.00467464 0.00539835
v -0.10925200 0.00828596 0.00178775
v -0.10881600 0.01041170 -0.00543668
v -0.10884000 0.01049990 -0.00182286
v -0.10519600 0.01390590 0.00178775
v -0.10308400 0.01406410 0.00426883
v -0.10501900 0.01379800 0.00374751
v -0.09947180 0.01329320 0.00656970
v -0.05250790 0.00872844 0.01356570
v -0.08863580 0.01062910 0.01164130
v -0.04166390 0.00828596 0.01317950
v -0.04889590 0.00865393 0.01342410
v -0.02720790 0.00870411 0.01158660
v -0.02720790 0.00904624 0.01135170
v -0.03821310 0.00049463 0.01428330
v -0.02720790 0.00467464 0.01309580
v -0.03082790 0.00467464 0.01340480
v -0.10954200 0.00049463 0.00539835
v -0.10955000 0.00106179 0.00539835
v -0.10898600 0.00467464 0.00828490
v -0.10876800 0.00701173 0.00764130
v -0.10896100 0.00824490 0.00519561
v -0.10896100 0.00049463 0.00921169
v -0.10893700 0.00111197 0.00925352
v -0.10878400 0.00049463 0.01014170
v -0.10874400 0.01040710 0.00178775
v -0.10700200 0.01221360 0.00178775
v -0.10308400 0.01292670 0.00607413
v -0.10860700 0.01021860 0.00385692
v -0.10793700 0.00941877 0.00626399
v -0.10552700 0.01054850 0.00797275
v -0.10308400 0.01112030 0.00867106
v -0.10118100 0.01006350 0.01080140
v -0.09977820 0.01129820 0.00936293
v -0.09224780 0.01054250 0.01142250
v -0.06962450 0.00670914 0.01452460
v -0.05250790 0.00692354 0.01459540
v -0.04889590 0.00684903 0.01457610
v -0.09224780 0.00828596 0.01283190
v -0.08863580 0.00828596 0.01309900
v -0.04652550 0.00664224 0.01449240
v -0.02720790 0.00855814 0.01167350
v -0.04166390 0.00049463 0.01449240
v -0.10856600 0.00049463 0.01086570
v -0.10831600 0.00235123 0.01061800
v -0.10784900 0.00467464 0.01009020
v -0.10540600 0.00722461 0.01113280
v -0.10667200 0.00832093 0.00901217
v -0.10308400 0.00972593 0.01047640
v -0.10308400 0.00792102 0.01140310
v -0.09977820 0.00863112 0.01171850
v -0.09585980 0.00828596 0.01246830
v -0.09877840 0.01024440 0.01096870
v -0.06962450 0.00592758 0.01452460
v -0.09585980 0.00467464 0.01350450
v -0.09224780 0.00467464 0.01367180
v -0.08934530 0.00049463 0.01398080
v -0.08863580 0.00049463 0.01400330
v -0.05250790 0.00491945 0.01459540
v -0.04528390 0.00049463 0.01461790
v -0.10784100 0.00049463 0.01126480
v -0.10694600 0.00111197 0.01163160
v -0.10603500 0.00467464 0.01136450
v -0.10305200 0.00049463 0.01302820
v -0.10308400 0.00467464 0.01219800
v -0.09947180 0.00467464 0.01296070
v -0.08578980 0.00049463 0.01408050
v -0.07865450 0.00049463 0.01424140
v -0.07365580 0.00049463 0.01434440
v -0.07055980 0.00049463 0.01439910
v -0.04912970 0.00049463 0.01459540
v -0.09291700 0.00049463 0.01381670
v -0.09995560 0.00049463 0.01336290
v -0.09647260 0.00049463 0.01363000
v -0.10690500 0.00049463 0.01174750
v -0.07417660 0.00049277 -0.01812130
v -0.07417660 -0.00028772 -0.01802200
v -0.07560700 0.00049277 -0.01810710
v -0.05259940 0.00049277 -0.01770310
v -0.04889820 -0.00616741 -0.01694120
v -0.05251050 -0.00616741 -0.01700150
v -0.07417660 -0.00255300 -0.01763580
v -0.07779710 -0.00255300 -0.01759680
v -0.07779710 -0.00011676 -0.01800790
v -0.07056430 -0.00255300 -0.01763580
v -0.07779710 0.00049277 -0.01808230
v -0.04166540 0.00049277 -0.01729910
v -0.04166540 -0.00255300 -0.01694120
v -0.04527770 -0.00616741 -0.01668610
v -0.04889820 -0.00977810 -0.01617230
v -0.05251050 -0.00977810 -0.01616520
v -0.07417660 -0.00616741 -0.01690230
v -0.07779710 -0.00616741 -0.01688450
v -0.09585890 -0.00977810 -0.01564780
v -0.09947120 -0.00977810 -0.01554150
v -0.08863420 0.00049277 -0.01784130
v -0.08850490 0.00049277 -0.01784490
v -0.08140940 0.00019172 -0.01796890
v -0.08194280 0.00049277 -0.01800080
v -0.04109970 0.00049277 -0.01723180
v -0.03805300 -0.00255300 -0.01652660
v -0.03805300 -0.00616741 -0.01599510
v -0.04166540 -0.00616741 -0.01636720
v -0.04527770 -0.00977810 -0.01590300
v -0.04166540 -0.01199690 -0.01483280
v -0.04527770 -0.01213810 -0.01498160
v -0.04889820 -0.01232400 -0.01507370
v -0.06696000 -0.01232960 -0.01505600
v -0.05612290 -0.00977810 -0.01614040
v -0.09585890 -0.01231650 -0.01487880
v -0.07779710 -0.00977810 -0.01596320
v -0.09224650 -0.00977810 -0.01573990
v -0.05973530 -0.00977810 -0.01611200
v -0.09947120 -0.01230170 -0.01485760
v -0.09890550 0.00049277 -0.01737360
v -0.09245660 0.00049277 -0.01769600
v -0.10217000 -0.01204520 -0.01473360
v -0.10326100 -0.00995278 -0.01503830
v -0.09947120 0.00049277 -0.01733460
v -0.02721590 0.00049277 -0.01503830
v -0.02720790 -0.00255486 -0.01496390
v -0.02720790 -0.00481642 -0.01464500
v -0.04166540 -0.00977810 -0.01555920
v -0.03444070 -0.00616741 -0.01547060
v -0.03216170 -0.00873187 -0.01462370
v -0.03444070 -0.00933396 -0.01480440
v -0.03888540 -0.01180550 -0.01464850
v -0.04188360 -0.01406890 -0.01230620
v -0.04082490 -0.01517650 -0.01082140
v -0.04188360 -0.01628220 -0.00938977
v -0.08140940 -0.01594770 -0.01156200
v -0.09585890 -0.01592910 -0.01173210
v -0.09585890 -0.01412280 -0.01353940
v -0.09947120 -0.01410800 -0.01345790
v -0.10213800 -0.01544410 -0.01128920
v -0.10335800 -0.01354670 -0.01280580
v -0.10457900 -0.01127220 -0.01432600
v -0.10533800 -0.00886567 -0.01472650
v -0.10309200 0.00049277 -0.01673570
v -0.02720790 0.00049277 -0.01358900
v -0.02720790 -0.00977995 -0.01258970
v -0.03090910 -0.00987287 -0.01378030
v -0.03782670 -0.01005130 -0.01503120
v -0.03444070 -0.01114020 -0.01431540
v -0.03082830 -0.01260640 -0.01199790
v -0.03444070 -0.01288700 -0.01250820
v -0.02720790 -0.01377160 -0.00904959
v -0.03805300 -0.01610010 -0.00853576
v -0.04166540 -0.01804940 -0.00543863
v -0.04527770 -0.01822220 -0.00543863
v -0.08140940 -0.01752720 -0.00904959
v -0.09585890 -0.01741200 -0.00904959
v -0.09947120 -0.01573580 -0.01165060
v -0.09947120 -0.01713510 -0.00904959
v -0.10323700 -0.01626920 -0.00928701
v -0.10454600 -0.01505010 -0.01065130
v -0.10584700 -0.01264170 -0.01191640
v -0.10679300 -0.00995092 -0.01278100
v -0.10748800 -0.00616741 -0.01348270
v -0.10567800 -0.00616741 -0.01490010
v -0.10609800 0.00049277 -0.01532180
v -0.02720790 0.00049277 0.01088680
v -0.02720790 -0.01213810 -0.01143090
v -0.02720790 -0.01502780 -0.00660449
v -0.02721590 -0.01502780 -0.00660803
v -0.03805300 -0.01513190 0.00683647
v -0.04244930 -0.01526940 0.00737510
v -0.02720790 -0.01547570 -0.00479724
v -0.02720790 -0.01582500 -0.00182414
v -0.02720790 -0.01554810 0.00117731
v -0.02721590 -0.01554810 0.00118085
v -0.04527770 -0.01534930 0.00757709
v -0.06696000 -0.01750120 0.00178681
v -0.06696000 -0.01811630 -0.00182414
v -0.07056430 -0.01819070 -0.00182414
v -0.07056430 -0.01848240 -0.00543863
v -0.07417660 -0.01848980 -0.00543863
v -0.09224650 -0.01830220 -0.00543863
v -0.09585890 -0.01819070 -0.00543863
v -0.09947120 -0.01799550 -0.00543863
v -0.10309200 -0.01758110 -0.00543863
v -0.10550000 -0.01583060 -0.00824164
v -0.10825600 -0.01103620 -0.01009850
v -0.10872400 -0.00862966 -0.01123950
v -0.10775500 -0.00255300 -0.01375910
v -0.10901500 -0.00616741 -0.01167900
v -0.10594400 -0.00255300 -0.01510560
v -0.10790800 0.00049277 -0.01378390
v -0.02720790 -0.00255300 0.01327170
v -0.02721590 0.00049277 0.01330360
v -0.04141490 -0.01422500 0.00875357
v -0.04004100 -0.01518210 0.00710579
v -0.02720790 -0.01499440 0.00298456
v -0.02720790 -0.01135210 0.01047220
v -0.04527770 -0.01423800 0.00938434
v -0.04889820 -0.01432720 0.00953671
v -0.05251050 -0.01441270 0.00965365
v -0.04889820 -0.01541060 0.00773301
v -0.05251050 -0.01547570 0.00784995
v -0.05612290 -0.01553330 0.00789247
v -0.06696000 -0.01644380 0.00540131
v -0.07417660 -0.01563550 0.00824329
v -0.09585890 -0.01565220 0.00804839
v -0.09585890 -0.01618930 0.00540131
v -0.09947120 -0.01551100 0.00780388
v -0.10202500 -0.01532330 0.00748141
v -0.10309200 -0.01690840 -0.00182414
v -0.10443300 -0.01508360 0.00664157
v -0.10613000 -0.01600900 -0.00182414
v -0.10600100 -0.01623760 -0.00543863
v -0.10862700 -0.01181110 -0.00769238
v -0.10888600 -0.00981155 -0.00895745
v -0.10959700 -0.00616741 -0.00904959
v -0.10915300 -0.00255300 -0.01195180
v -0.10910400 0.00049277 -0.01197660
v -0.03082830 -0.00616741 0.01360480
v -0.02720790 -0.00616741 0.01287830
v -0.03536190 -0.00498924 0.01455800
v -0.03536190 -0.00368842 0.01455800
v -0.03821470 0.00049277 0.01428160
v -0.06127880 -0.00432582 0.01807330
v -0.02720790 -0.00954395 0.01170190
v -0.03966930 -0.00801642 0.01445530
v -0.04166540 -0.01218650 0.01142550
v -0.04527770 -0.01242990 0.01151050
v -0.05251050 -0.01260640 0.01167710
v -0.07417660 -0.01468030 0.01005050
v -0.07779710 -0.01465060 0.01000450
v -0.09585890 -0.01442760 0.00985564
v -0.09947120 -0.01433100 0.00960758
v -0.10317200 -0.01421390 0.00881736
v -0.10516100 -0.01185940 0.01105340
v -0.10586400 -0.01260640 0.00901226
v -0.10669600 -0.01347060 0.00545800
v -0.10740700 -0.01421950 0.00178681
v -0.10505500 -0.01528610 0.00423191
v -0.10559700 -0.01550910 0.00178681
v -0.10893400 -0.01241320 0.00178681
v -0.10890200 -0.01241690 -0.00110833
v -0.10961300 -0.00616741 0.00540131
v -0.10975900 -0.00255300 -0.00904959
v -0.10951600 0.00049277 -0.00904959
v -0.03427100 -0.00618227 0.01418240
v -0.03726110 -0.00739760 0.01429230
v -0.06127880 -0.00444104 0.01807330
v -0.03830350 -0.00618227 0.01472460
v -0.04166540 0.00049277 0.01449070
v -0.06157780 -0.00432582 0.01807330
v -0.04412210 0.00049277 0.01457570
v -0.04527770 0.00049277 0.01461470
v -0.04166540 -0.00984685 0.01323270
v -0.05993730 -0.00585335 0.01719450
v -0.05251050 -0.00864453 0.01497620
v -0.05612290 -0.00867426 0.01519590
v -0.06696000 -0.01278300 0.01180820
v -0.07417660 -0.01287400 0.01186490
v -0.07779710 -0.01284430 0.01186840
v -0.09585890 -0.01261940 0.01169480
v -0.09947120 -0.01252280 0.01169120
v -0.10309200 -0.01224780 0.01142550
v -0.10309200 -0.00977810 0.01283230
v -0.10567000 -0.00977810 0.01156370
v -0.10807000 -0.00683640 0.01022420
v -0.10757700 -0.00993977 0.00901580
v -0.10833600 -0.01124990 0.00668410
v -0.10868400 -0.01185750 0.00427798
v -0.10906400 -0.00993977 0.00544737
v -0.10954100 0.00049277 0.00540131
v -0.10884600 -0.00884337 0.00781451
v -0.10895900 -0.00584592 0.00901580
v -0.10908000 -0.00255300 0.00901226
v -0.06157780 -0.00444104 0.01807330
v -0.04913250 0.00049277 0.01459700
v -0.07055620 0.00049277 0.01439860
v -0.07365940 0.00049277 0.01434540
v -0.07865370 0.00049277 0.01423910
v -0.08578950 0.00049277 0.01407960
v -0.08863420 0.00049277 0.01400170
v -0.08934530 0.00049277 0.01398040
v -0.09291730 0.00049277 0.01381390
v -0.09647310 0.00049277 0.01362960
v -0.09995610 0.00049277 0.01336380
v -0.10144300 -0.00428866 0.01445170
v -0.05973530 -0.00865382 0.01526320
v -0.07417660 -0.00872630 0.01502220
v -0.07417660 -0.01053070 0.01367210
v -0.09585890 -0.00997879 0.01350200
v -0.09933390 -0.00946962 0.01363310
v -0.09804080 -0.00805916 0.01446940
v -0.10044900 -0.00702223 0.01434540
v -0.10282500 -0.00595742 0.01400880
v -0.10680100 -0.00584592 0.01190740
v -0.10853000 -0.00442617 0.01084430
v -0.10895900 0.00049277 0.00921424
v -0.10861900 -0.00255300 0.01092580
v -0.10863500 -0.00005915 0.01093640
v -0.10878100 0.00049277 0.01014270
v -0.10144300 -0.00461386 0.01445170
v -0.09585890 -0.00817438 0.01452610
v -0.10305100 0.00049277 0.01302720
v -0.10282500 -0.00287263 0.01389890
v -0.10670400 -0.00255300 0.01231850
v -0.10856300 0.00049277 0.01086560
v -0.10690600 0.00049277 0.01174790
v -0.10783500 0.00049277 0.01126600
vn 0.00830649 0.99660758 -0.08187997
vn -0.00076339 0.98581804 0.16781601
vn 0.10159499 0.99468290 0.01686380
vn 0.06092110 0.92211404 -0.38209202
vn -0.00363691 0.90947805 -0.41573602
vn -0.03048741 0.85663630 -0.51501918
vn -0.02951530 0.99927816 -0.02391650
vn 0.06633459 0.78925594 0.61047095
vn 0.09591078 0.98306180 0.15617497
vn -0.03210531 0.98500744 0.16949808
vn -0.03481070 0.89589597 0.44289799
vn -0.02778439 0.74482269 0.66668372
vn 0.50095614 0.85021524 0.16179305
vn 0.43799302 0.89890205 -0.01171430
vn 0.44724713 0.80110923 -0.39773611
vn 0.13376904 0.72955719 -0.67071018
vn 0.01178670 0.75902305 -0.65095705
vn -0.03045210 0.76952103 -0.63789502
vn -0.03114550 0.76981805 -0.63750304
vn -0.34272197 0.76430594 -0.54623995
vn -0.03271782 0.94725844 -0.31879615
vn -0.03359050 0.99710494 -0.06821590
vn 0.22718706 0.53866214 0.81131322
vn 0.42200690 0.74428083 0.51764488
vn -0.00562549 0.66333416 0.74830218
vn 0.10648602 0.49087809 0.86469615
vn -0.03920279 0.96414485 0.26246496
vn -0.08049684 0.83922440 0.53779426
vn -0.03279059 0.69192774 0.72122173
vn -0.02787201 0.68533518 0.72769419
vn 0.66519792 0.62702292 0.40540595
vn 0.80002141 0.51008626 0.31587616
vn 0.67868471 0.73426169 -0.01571109
vn 0.74944020 0.52630914 -0.40166911
vn 0.56159497 0.62043997 -0.54741697
vn 0.44259416 0.51242019 -0.73589127
vn 0.10137802 0.49273612 -0.86425321
vn 0.02293010 0.54590093 -0.83753590
vn -0.01908210 0.58743808 -0.80904411
vn -0.03091380 0.61325602 -0.78927903
vn -0.04753190 0.48959596 -0.87065293
vn -0.05684192 0.46653516 -0.88267431
vn -0.05978768 0.96911775 -0.23924094
vn -0.05249638 0.99840265 -0.02088719
vn -0.03174060 0.49192297 -0.87005995
vn 0.38282490 0.29485592 0.87550276
vn 0.58970015 0.43479811 0.68059117
vn -0.00223783 0.43580393 0.90003885
vn -0.03318761 0.47037120 0.88184438
vn 0.02367030 0.06755130 0.99743498
vn 0.20371900 0.11972700 0.97168102
vn -0.08792140 0.98099501 0.17297000
vn -0.12427003 0.97432824 0.18772705
vn -0.18889999 0.90027594 0.39219897
vn -0.11363900 0.47549099 0.87234998
vn -0.04802480 0.68186697 0.72989797
vn 0.80082501 0.09716400 0.59096401
vn 0.93678565 0.05960938 0.34478887
vn 0.99949775 0.03148189 -0.00362564
vn 0.84269321 0.53819313 -0.01470720
vn 0.89160228 0.02136331 -0.45231514
vn 0.69567103 0.13205201 -0.70611903
vn 0.41933189 0.06452868 -0.90553676
vn 0.17294104 0.12636603 -0.97679221
vn 0.04880180 0.22468302 -0.97320909
vn -0.02563390 0.22431701 -0.97417903
vn -0.03088470 0.37241096 -0.92755389
vn -0.02994169 0.06762118 -0.99726169
vn -0.17079190 0.14548992 -0.97450644
vn 0.49234596 -0.14391799 0.85841893
vn 0.60344592 0.09324869 0.79193289
vn -0.00375546 0.10713998 0.99423685
vn -0.03249850 0.11993201 0.99225005
vn -0.16753299 0.19767699 0.96584497
vn -0.03728800 0.18029202 0.98290610
vn -0.00010718 -0.04390638 0.99903564
vn 0.03674060 -0.05880870 0.99759294
vn 0.11474100 -0.05093020 0.99208902
vn 0.90247904 -0.24178501 0.35647102
vn 0.72212960 -0.15960091 0.67309463
vn 0.96610265 -0.25695591 0.02488629
vn 0.93432711 -0.17436702 -0.31085204
vn 0.74546899 -0.22488600 -0.62745699
vn 0.52308485 -0.10427397 -0.84587776
vn 0.22315805 -0.13790403 -0.96497822
vn 0.05502292 -0.15132605 -0.98695132
vn -0.02316021 -0.16278609 -0.98638952
vn -0.03864029 -0.09149308 -0.99505575
vn -0.09903744 0.10907704 -0.98908735
vn -0.18753890 0.06844676 -0.97986948
vn 0.23566305 -0.48322710 0.84318118
vn 0.60933723 -0.45378317 0.65022225
vn -0.02637100 -0.04731439 0.99853188
vn -0.03996461 -0.04574612 0.99815336
vn -0.02735720 -0.04553291 0.99858817
vn -0.31265207 -0.03405071 0.94925720
vn -0.02306729 -0.36445890 0.93093373
vn -0.01877310 -0.59731210 0.80178914
vn 0.02663429 -0.43837880 0.89839559
vn 0.80895579 -0.37731590 0.45080288
vn 0.79050902 -0.50567301 0.34552901
vn 0.83559407 -0.51596304 0.18858602
vn 0.84126186 -0.53820491 0.05112689
vn 0.75614699 -0.55004500 -0.35453100
vn 0.49586706 -0.52925907 -0.68847709
vn 0.11421698 -0.53437990 -0.83749185
vn 0.01489770 -0.54097113 -0.84090921
vn -0.01818520 -0.50951408 -0.86027013
vn -0.02376049 -0.55893982 -0.82886773
vn -0.03040721 -0.30054705 -0.95328216
vn -0.02787309 -0.18765894 -0.98183869
vn -0.07567199 -0.08446598 -0.99354882
vn -0.06501048 -0.34963491 -0.93462777
vn -0.18832794 -0.31195191 -0.93124572
vn 0.15655796 -0.77759179 0.60896684
vn 0.32823397 -0.58653095 0.74043494
vn 0.05647321 -0.65918513 0.74985715
vn 0.48516700 -0.70417100 0.51841700
vn -0.03210939 -0.34471085 0.93815959
vn -0.10137903 -0.43297212 0.89568825
vn -0.02801320 -0.60928009 0.79246012
vn -0.02129600 -0.64836000 0.76103600
vn -0.02119020 -0.64841992 0.76098790
vn 0.00858738 -0.65881286 0.75225785
vn 0.62007794 -0.76861593 0.15726698
vn 0.77841014 -0.62676011 0.03534701
vn 0.62924683 -0.77529079 -0.05452169
vn 0.48924503 -0.76583505 -0.41729603
vn 0.64734929 -0.58893326 -0.48383521
vn 0.17134906 -0.74662226 -0.64280222
vn 0.03868149 -0.74205880 -0.66921782
vn -0.01940600 -0.69871393 -0.71513793
vn -0.02417661 -0.68142733 -0.73148635
vn -0.02960761 -0.67564518 -0.73663219
vn -0.16788997 -0.70351287 -0.69056687
vn -0.27549999 -0.38116699 -0.88250297
vn 0.18705107 -0.96268636 0.19556807
vn 0.03961850 -0.79981700 0.59893500
vn 0.08289728 -0.98257573 0.16635195
vn -0.50766087 -0.69100283 0.51458287
vn -0.05243440 -0.82320693 0.56531495
vn -0.03600691 -0.74436714 0.66679912
vn -0.03657099 -0.68451082 0.72808481
vn -0.03358231 -0.69063212 0.72242612
vn -0.02305271 -0.81109044 0.58446632
vn -0.02128700 -0.80925193 0.58707595
vn 0.00678517 -0.83627117 0.54827411
vn 0.17686992 -0.98416757 -0.01145539
vn 0.12890505 -0.91178635 -0.38990915
vn 0.05190759 -0.87889591 -0.47418095
vn -0.01239331 -0.88805136 -0.45957719
vn -0.02043861 -0.86302049 -0.50475529
vn -0.41638902 -0.90369804 -0.09974990
vn -0.04251402 -0.78794029 -0.61428223
vn -0.04653090 -0.93233705 -0.35858402
vn 0.01499730 -0.97113491 0.23805898
vn 0.08457578 -0.98993178 -0.11349897
vn 0.01201720 -0.99570332 -0.09181763
vn -0.45691688 -0.80293380 0.38278490
vn -0.05382171 -0.89698217 0.43877808
vn -0.04517761 -0.96158026 0.27078107
vn -0.02154080 -0.99766206 0.06485680
vn -0.01883561 -0.96788232 0.25069708
vn -0.01654729 -0.97831766 0.20644793
vn 0.00909359 -0.94191932 -0.33571611
vn -0.01703669 -0.99663858 -0.08013297
vn -0.02058050 -0.99745400 -0.06827860
vn -0.06235938 -0.97704662 0.20369392
vn -0.03258232 -0.99560248 -0.08782994
vn -0.03596101 -0.99935016 -0.00246142
vn -0.11094406 -0.19167610 -0.97516752
vn -0.13584395 0.36170487 -0.92234267
vn 0.27140891 -0.14679495 -0.95120368
vn -0.11108204 -0.39427513 -0.91225430
vn -0.96583860 -0.06835827 -0.24996590
vn -0.17670096 -0.06850389 -0.98187779
vn -0.22245003 0.03195920 -0.97442013
vn 0.29583613 0.30588213 -0.90494039
vn -0.26525007 0.13032503 -0.95533124
vn -0.35424187 0.60492278 -0.71314874
vn -0.05653330 0.59333097 -0.80297095
vn 0.04461650 -0.38772198 -0.92069595
vn 0.53165616 -0.07255032 -0.84384725
vn 0.40365814 -0.09203203 -0.91026931
vn 0.37745698 -0.11548399 -0.91879795
vn 0.45487299 -0.29175299 -0.84140998
vn 0.24360493 -0.38369689 -0.89074875
vn 0.06740447 -0.23695089 -0.96918054
vn -0.19002487 -0.70011754 -0.68827755
vn -0.16137995 -0.39660787 -0.90369171
vn -0.09977861 -0.75794005 -0.64464805
vn 0.17911497 0.43357892 -0.88313484
vn 0.32646308 0.38892810 -0.86148522
vn 0.40178010 0.24205406 -0.88316622
vn 0.57293140 0.15369011 -0.80506457
vn -0.55021786 0.70879182 -0.44144589
vn -0.17470005 0.80505124 -0.56689717
vn 0.06647788 0.84853180 -0.52495188
vn 0.30637909 0.77225023 -0.55656216
vn 0.46823404 0.50071404 -0.72804006
vn 0.43432329 -0.70153746 -0.56498537
vn 0.54524093 -0.18732197 -0.81708189
vn 0.96926424 0.01352310 -0.24565006
vn 0.56192305 -0.16163901 -0.81124307
vn 0.57232885 -0.32600391 -0.75243680
vn 0.60501413 -0.56815312 -0.55781712
vn 0.55987728 -0.45461323 -0.69272234
vn 0.55654404 -0.51170303 -0.65453704
vn -0.31952905 -0.80499012 -0.49989208
vn -0.11766705 -0.82110336 -0.55851924
vn -0.02775259 -0.91257481 -0.40796692
vn -0.11445499 -0.89218496 -0.43692798
vn 0.53554920 0.35793314 -0.76489929
vn 0.60450127 0.37944117 -0.70043031
vn 0.60628528 0.18576809 -0.77324536
vn -0.78174764 0.59836373 -0.17558892
vn -0.14427797 0.95694982 -0.25185495
vn -0.09915727 0.85988277 -0.50076887
vn 0.00669657 0.90727896 -0.42047598
vn 0.34964904 0.91358810 -0.20761102
vn 0.55841118 0.71906523 -0.41366913
vn 0.54098406 0.45537405 -0.70708608
vn 0.54183586 -0.76525280 -0.34756591
vn 0.04293599 -0.99478870 -0.09247677
vn 0.64267244 -0.76176952 -0.08172726
vn -0.36096691 -0.86840079 -0.33997492
vn -0.12241196 -0.96628971 -0.22649393
vn 0.67659635 0.61489232 -0.40512321
vn 0.69593700 0.35523000 -0.62408600
vn -0.67040894 0.73883293 -0.06839409
vn -0.07606513 0.99690239 -0.01999291
vn 0.03745361 0.99749532 -0.06000262
vn 0.00286881 0.99103065 -0.13360395
vn -0.13065704 0.98934533 -0.06422262
vn 0.00920832 0.99099270 -0.13359896
vn 0.37001299 0.92670397 -0.06565170
vn 0.53174217 0.82473127 -0.19253206
vn 0.50403116 -0.83734527 -0.21167307
vn 0.34463309 -0.93342025 0.09977313
vn -0.02584200 -0.98667406 0.16064401
vn -0.42676515 -0.90412532 0.02071041
vn 0.69446725 -0.66048924 0.28542810
vn 0.52740093 -0.81720989 0.23241397
vn 0.53310302 -0.83978404 0.10278100
vn 0.53575692 -0.84396387 0.02625870
vn 0.53553510 -0.84361416 -0.03895261
vn -0.59992390 -0.78916086 -0.13159198
vn 0.74687193 0.65878394 -0.09047669
vn -0.90112516 0.42854108 0.06577221
vn -0.18047493 0.98185360 0.05824358
vn -0.11234903 0.99113425 0.07092672
vn -0.11251997 0.98420070 0.13670496
vn -0.00426453 0.99246873 0.12242397
vn 0.32852618 0.94053350 0.08641345
vn 0.52734098 0.84835396 0.04697920
vn 0.57652570 0.81245858 0.08677076
vn 0.46102379 -0.79053464 0.40312782
vn -0.01318680 -0.96075519 0.27708405
vn -0.09632176 -0.94048258 0.32590586
vn -0.32295991 -0.92783074 0.18661995
vn 0.76578325 -0.51592617 0.38392213
vn 0.69675620 0.70820521 0.11391303
vn -0.92467215 0.37232206 0.07973521
vn -0.17857392 0.96060457 0.21295590
vn -0.13308397 0.91675478 0.37662891
vn -0.00934487 0.90799211 0.41888305
vn 0.49444086 0.75260179 0.43487788
vn 0.58514611 0.79530815 0.15839503
vn 0.51742982 -0.58809880 0.62161579
vn 0.10042701 -0.68457106 0.72199507
vn -0.06308330 -0.80497100 0.58995100
vn 0.62871096 -0.48833397 0.60518796
vn -0.09905091 -0.82624909 0.55452806
vn -0.59821801 -0.63003401 0.49516901
vn -0.76904817 -0.58249113 0.26319006
vn 0.78769201 0.60500300 0.11624400
vn -0.34803191 0.90060977 0.26033793
vn -0.93375656 0.32557885 0.14865093
vn -0.08320279 0.76761391 0.63548893
vn -0.03610728 0.77056264 0.63634070
vn 0.50834118 0.54938119 0.66315123
vn 0.58116068 0.62851966 0.51692872
vn 0.68431969 0.55326975 0.47497278
vn 0.67985785 0.67374185 0.28959494
vn 0.50904488 -0.37986591 0.77238281
vn -0.01694610 -0.57232603 0.81985105
vn -0.08436020 -0.66890001 0.73855002
vn 0.80496955 -0.15588891 0.57247068
vn -0.86838692 -0.20865398 0.44985296
vn -0.09283589 -0.56689994 0.81853891
vn -0.10594703 -0.39251010 0.91362522
vn -0.92459904 0.23037301 0.30338901
vn -0.04014970 0.60542501 0.79488902
vn -0.01134699 0.37825582 0.92563156
vn 0.49484101 0.28643501 0.82041902
vn 0.73064522 0.36514211 0.57691317
vn 0.50697507 -0.05850241 0.85997311
vn 0.00532012 -0.03275201 0.99944935
vn 0.01049780 -0.35634516 0.93429542
vn 0.70371497 0.00185544 0.71047997
vn -0.83332699 -0.11435300 0.54082300
vn -0.10467001 -0.09322351 0.99012806
vn -0.85893034 0.28259511 0.42705817
vn -0.71450896 0.28896198 0.63716396
vn -0.72334723 0.16583905 0.67027322
vn -0.03246039 0.20005093 0.97924764
vn 0.21388601 0.18044001 0.96004905
vn 0.49453004 0.16549101 0.85326008
vn 0.63697300 0.13565200 0.75885699
vn 0.47761805 0.10677501 0.87205510
vn 0.02553290 0.09420731 0.99522513
vn -0.05646919 0.03427380 0.99781588
vn -0.88904246 -0.02797541 0.45696924
vn -0.09538452 -0.00801913 0.99540820
vn -0.81500166 0.01377949 0.57929476
vn -0.06353802 0.09724483 0.99323027
vn -0.01591740 0.10528903 0.99431426
vn -0.07062983 0.05610603 0.99592346
vn -0.08986658 0.00904512 0.99591274
vn 0.00271262 -0.04088171 -0.99916031
vn 0.00022067 -0.99990966 -0.01343960
vn -0.01568729 -0.13727595 -0.99040861
vn -0.00994140 -0.04499978 -0.99893753
vn 0.00462820 0.16615399 -0.98608896
vn 0.01139170 -0.08177458 -0.99658575
vn 0.02562200 -0.15681201 -0.98729606
vn 0.02469340 -0.22234601 -0.97465506
vn -0.02125131 -0.18065806 -0.98331635
vn -0.01774639 -0.11802094 -0.99285252
vn -0.01154040 0.15968801 -0.98710007
vn -0.00738804 0.45783122 -0.88900843
vn 0.01176280 0.24184302 -0.97024409
vn 0.03473269 0.36406991 -0.93072377
vn 0.04064509 -0.12027096 -0.99190870
vn 0.03740120 -0.27919797 -0.95950490
vn -0.01672670 -0.81347886 -0.58135390
vn -0.02507049 -0.16764396 -0.98552878
vn -0.03972879 -0.12961896 -0.99076766
vn -0.00794730 0.00569733 -0.99995219
vn -0.04850132 0.26802111 -0.96219141
vn -0.07572041 0.34839305 -0.93428513
vn -0.03749350 0.50292402 -0.86351703
vn -0.01620400 0.53913405 -0.84206408
vn 0.02285531 0.56166317 -0.82705025
vn 0.02553581 0.49634025 -0.86775243
vn 0.07494449 0.19902799 -0.97712393
vn 0.04027310 0.44416396 -0.89503992
vn 0.12762604 0.11226404 -0.98544831
vn 0.02031271 -0.99131743 -0.12991206
vn -0.03968271 -0.49450206 -0.86827011
vn -0.04150382 -0.17587407 -0.98353736
vn -0.10451498 -0.00622291 -0.99450384
vn -0.27225094 0.06454869 -0.96005880
vn -0.34645104 0.23444103 -0.90830011
vn -0.25477094 0.49764989 -0.82911782
vn -0.04176330 0.61064806 -0.79080008
vn -0.01689820 0.63130586 -0.77534983
vn -0.00218084 0.68113116 -0.73215817
vn 0.00069464 0.93823281 -0.34600393
vn 0.01620210 0.93599697 -0.35163499
vn 0.02267150 0.86126094 -0.50765697
vn 0.02682641 0.61826317 -0.78551321
vn 0.02698060 0.57875207 -0.81505710
vn 0.04526141 0.51205706 -0.85775811
vn 0.10817494 0.27484986 -0.95538251
vn 0.97561535 0.03237111 -0.21708708
vn 0.25489588 0.07535916 -0.96402754
vn 0.02586340 -0.99205695 -0.12310199
vn -0.03321369 -0.76227569 -0.64639974
vn -0.02639290 -0.98456901 -0.17299500
vn -0.02959311 -0.99299240 -0.11441305
vn -0.03093310 -0.99802395 -0.05469310
vn -0.54081293 0.10896699 -0.83405490
vn -0.54160092 0.26210496 -0.79872989
vn -0.48806693 0.41658894 -0.76697088
vn -0.30785208 0.60399316 -0.73513220
vn -0.47060595 0.53082295 -0.70480993
vn -0.13701700 0.79815298 -0.58666699
vn -0.03755119 0.97109381 -0.23572595
vn -0.02137210 0.65049003 -0.75921404
vn -0.00057619 0.94119191 -0.33787197
vn 0.03307379 0.99456957 -0.09867876
vn 0.12930794 0.96441257 -0.23062490
vn 0.03298219 0.62160289 -0.78263786
vn 0.08736216 0.60395675 -0.79221468
vn 0.20593003 0.64157808 -0.73889809
vn 0.08257827 -0.99658458 -0.00000372
vn -0.02785911 -0.99923931 -0.02728871
vn -0.74836882 0.08315358 -0.65804984
vn -0.66378442 0.17419611 -0.72735546
vn -0.77682264 0.33311985 -0.53439475
vn -0.26350309 0.81505528 -0.51599517
vn -0.43101405 0.72036208 -0.54342006
vn -0.56092997 0.64066397 -0.52431598
vn -0.12632301 0.96945907 -0.21021801
vn -0.06284239 0.99491892 -0.07865859
vn -0.04632548 0.99721153 -0.05850737
vn -0.03681909 0.99912485 0.01984640
vn -0.01664979 0.99908970 -0.03927549
vn 0.00110826 0.87865668 0.47745283
vn 0.05367290 0.97153706 0.23072701
vn 0.14093896 0.93365074 0.32929091
vn 0.10193605 0.99325546 0.05525063
vn 0.10352703 0.99455230 0.01216070
vn 0.11192402 0.98720915 -0.11353902
vn 0.36493783 0.92113058 -0.13542094
vn 0.37441489 0.88983673 -0.26077592
vn 0.29559590 0.82396872 -0.48342384
vn 0.19492102 0.77977009 -0.59494907
vn 0.09483728 -0.99549279 0.00000360
vn -0.09224217 -0.99554165 -0.01970289
vn -0.84369769 0.02632359 -0.53617280
vn -0.93346290 0.06962699 -0.35185096
vn -0.99735086 0.06644839 -0.02959510
vn -0.99114188 0.12666699 -0.03991540
vn -0.54452093 0.80581390 -0.23272497
vn -0.33843905 0.90109213 -0.27109404
vn -0.42142013 0.84236226 -0.33590310
vn -0.40671696 0.89977192 -0.15808799
vn -0.09955210 0.98683501 -0.12746000
vn -0.13369103 0.99053924 0.03096321
vn -0.04788421 0.95066126 0.30651308
vn -0.03063200 0.95303598 0.30130399
vn -0.00473057 0.76888161 0.63937367
vn 0.01529920 0.78610085 0.61790888
vn 0.01175130 0.81432927 0.58028419
vn 0.02729100 0.81006107 0.58571005
vn -0.03708230 0.85455099 0.51804199
vn -0.00541686 0.80570381 0.59229386
vn 0.04544530 0.72166799 0.69074600
vn 0.08631717 0.70789278 0.70102579
vn 0.90903400 0.36443100 0.20210700
vn 0.86602275 0.47399586 0.15916195
vn 0.83226510 0.54208706 0.11608801
vn 0.75019603 0.65457202 0.09349540
vn 0.19773100 0.97792901 0.06750780
vn 0.15754299 0.98741896 0.01356470
vn 0.20901094 0.97615172 0.05867068
vn 0.90615465 0.02192499 0.42237784
vn 0.00380957 -0.99991649 0.01234921
vn -0.23123799 -0.97287698 -0.00627498
vn -0.99827230 0.04750501 0.03457861
vn -0.99253061 0.12199295 -0.00083975
vn -0.89128023 0.45196012 -0.03676421
vn -0.78790614 0.61579511 -0.00053468
vn -0.57434000 0.81841800 0.01804270
vn -0.15482195 0.91768671 0.36589789
vn -0.51130629 0.77169444 0.37822422
vn -0.06584379 0.83982588 0.53884792
vn -0.00397440 0.57741392 0.81644189
vn -0.02254240 0.70884499 0.70500399
vn 0.06954543 0.54257222 0.83712533
vn 0.05244490 0.56918804 0.82053306
vn 0.50306999 0.47388399 0.72274099
vn 0.99668086 0.06095509 0.05396049
vn 0.02230620 -0.95816496 0.28534599
vn 0.91033353 0.12122194 0.39572479
vn 0.08087322 0.06953042 0.99429626
vn -0.01571491 -0.99987640 0.00047871
vn -0.99950662 -0.00771264 0.03044709
vn -0.95381375 0.11180297 0.27881793
vn -0.82234584 0.34704493 0.45089591
vn -0.97084662 0.20765792 0.11972895
vn -0.10197803 -0.99465424 0.01623010
vn -0.98193766 0.02691239 0.18728094
vn -0.23615206 -0.97031623 0.05214031
vn -0.89390250 0.44338125 0.06596504
vn -0.70092624 0.70938224 0.07402193
vn -0.19157397 0.81448887 0.54763792
vn -0.75866042 0.59724633 0.26025215
vn -0.65651603 0.60850803 0.44576302
vn -0.50041100 0.66760200 0.55126800
vn -0.29341292 0.77416078 0.56087784
vn -0.16252800 0.69683700 0.69857200
vn -0.08366100 0.81280503 0.57649702
vn -0.07217519 0.74055194 0.66811194
vn -0.02899011 0.29822809 0.95405429
vn -0.00268671 0.19430490 0.98093750
vn 0.03420790 0.21778597 0.97539689
vn -0.07902421 0.43236507 0.89822916
vn -0.04575920 0.34846297 0.93620492
vn 0.08422700 0.21642601 0.97265903
vn 0.75377504 0.24702001 0.60893703
vn 0.01054490 -0.97204471 0.23455893
vn -0.13210697 -0.98689379 0.09267358
vn -0.66523979 0.22833893 0.71085678
vn -0.68707997 0.34265599 0.64070897
vn -0.42739113 0.35139111 0.83298326
vn -0.63317312 0.52712110 0.56677610
vn -0.35004720 0.62023535 0.70197940
vn -0.17464602 0.31818504 0.93180312
vn -0.15355695 0.39123887 0.90738769
vn -0.12928306 0.33754115 0.93239040
vn -0.08702353 0.63305320 0.76920124
vn -0.01231710 -0.01272250 0.99984320
vn -0.07579699 0.17031098 0.98247086
vn -0.04285230 0.04692349 0.99797889
vn -0.02778839 -0.74781281 0.66332783
vn -0.00800985 -0.95769636 0.28766911
vn -0.00408001 -0.00096365 0.99999121
vn 0.00161175 -0.85538325 0.51799315
vn -0.00695047 -0.99989014 0.01309210
vn -0.46272693 0.17851097 0.86834188
vn -0.35843203 0.16531001 0.91880307
vn -0.06761543 -0.95150642 0.30010613
vn -0.21077290 0.19598791 0.95768655
vn -0.16863398 0.23088997 0.95825487
vn -0.00392917 -0.98633737 0.16469106
vn -0.00358051 -0.98634657 0.16464393
vn -0.00320624 -0.98635635 0.16459306
vn -0.00168237 -0.98639447 0.16438708
vn -0.00142286 -0.98640074 0.16435196
vn -0.00914977 -0.98180778 0.18965696
vn -0.01128820 -0.99229143 0.12341105
vn -0.00809474 -0.99205199 0.12556800
vn -0.02967340 -0.99572403 0.08748230
vn 0.00066192 0.99934085 -0.03629639
vn 0.00032428 -0.15536599 -0.98785693
vn -0.01021050 -0.12394704 -0.99223630
vn 0.02519630 -0.08090761 -0.99640308
vn 0.03037379 -0.11339298 -0.99308583
vn 0.00048320 -0.19174494 -0.98144467
vn -0.00477672 -0.19207993 -0.98136766
vn -0.02739139 -0.18646494 -0.98207970
vn -0.02027539 -0.15922193 -0.98703459
vn 0.00081954 -0.16808503 -0.98577216
vn -0.01671460 -0.08604252 -0.99615125
vn 0.05055939 -0.04675859 -0.99762587
vn 0.08648997 -0.13647496 -0.98686071
vn 0.07677779 -0.18545398 -0.97964891
vn 0.02534949 -0.32395794 -0.94573181
vn -0.00494584 -0.29352095 -0.95593985
vn -0.00451898 -0.21244396 -0.97716280
vn -0.01505790 -0.22552997 -0.97411986
vn -0.02791189 -0.20561094 -0.97823569
vn -0.04861820 -0.18611198 -0.98132492
vn -0.03204141 -0.18068306 -0.98301932
vn -0.02447371 -0.15047107 -0.98831144
vn -0.02349140 -0.14828201 -0.98866607
vn -0.02176719 -0.03374098 -0.99919354
vn 0.12002397 0.59590785 -0.79403280
vn 0.13522202 -0.12447702 -0.98296515
vn 0.12391205 -0.17983408 -0.97586142
vn 0.09334607 -0.19187694 -0.97696968
vn 0.08281113 -0.25327908 -0.96384232
vn 0.07502752 -0.59847814 -0.79761819
vn 0.05407862 -0.61815821 -0.78419126
vn 0.01662660 -0.73131508 -0.68183708
vn -0.00361860 -0.48623797 -0.87381894
vn -0.00702660 -0.30308700 -0.95293699
vn -0.00581745 -0.46823888 -0.88358277
vn -0.01099110 -0.27850193 -0.96037278
vn -0.01686059 -0.25948990 -0.96559863
vn -0.00782645 -0.28869715 -0.95738848
vn -0.01868189 -0.35985680 -0.93282049
vn -0.05106809 -0.12316197 -0.99107173
vn -0.04506028 -0.13755495 -0.98946865
vn -0.18783704 -0.52045612 -0.83297219
vn -0.16444995 -0.17100195 -0.97144971
vn -0.13808596 -0.01215210 -0.99034569
vn 0.08250872 0.94561728 -0.31464309
vn 0.99160413 -0.00948887 -0.12896202
vn 0.20497201 -0.20933901 -0.95611906
vn 0.10502099 -0.23912797 -0.96529188
vn 0.14435299 -0.18791298 -0.97151991
vn 0.18029104 -0.24820506 -0.95178222
vn 0.12170599 -0.23460497 -0.96444189
vn 0.11928398 -0.62490790 -0.77153188
vn 0.05602363 -0.77678236 -0.62727229
vn 0.09619550 -0.79461296 -0.59944697
vn 0.04332950 -0.84982306 -0.52528404
vn 0.02025960 -0.80812311 -0.58866508
vn -0.00112975 -0.76715489 -0.64146091
vn -0.00111815 -0.66222990 -0.74929988
vn -0.10165896 -0.69096573 -0.71570372
vn -0.20915601 -0.77602402 -0.59501301
vn -0.30888391 -0.67121280 -0.67384280
vn -0.47956818 -0.48904919 -0.72859128
vn -0.43050922 -0.18853610 -0.88267545
vn -0.24752391 0.36837187 -0.89612169
vn 0.06475143 0.99790142 -0.00002019
vn 0.44858880 -0.35924084 -0.81836063
vn 0.28459409 -0.38741312 -0.87687928
vn 0.11454405 -0.26636711 -0.95704139
vn 0.19957501 -0.47901202 -0.85482004
vn 0.16130795 -0.79959876 -0.57846483
vn 0.12649904 -0.77530425 -0.61879020
vn 0.46482398 -0.76061896 -0.45320798
vn 0.15705602 -0.89076809 -0.42645704
vn 0.10292298 -0.99388582 0.03997299
vn 0.02983949 -0.99954973 -0.00315160
vn 0.01368070 -0.90897186 -0.41663293
vn -0.02161240 -0.95162621 -0.30649707
vn -0.09421162 -0.83395614 -0.54372909
vn -0.12995000 -0.93018402 -0.34332301
vn -0.24402695 -0.89642281 -0.36996892
vn -0.43584105 -0.70073608 -0.56481106
vn -0.66787911 -0.53449208 -0.51793408
vn -0.70048386 -0.34537993 -0.62452787
vn -0.69475254 -0.17902088 -0.69661354
vn -0.49442368 -0.09757994 -0.86372645
vn -0.21344205 0.90661422 -0.36399609
vn 0.13178504 0.99127832 0.00001932
vn 0.58510808 -0.48438307 -0.65040109
vn 0.85093617 -0.50978110 -0.12661303
vn 0.16211699 -0.89630195 -0.41274798
vn 0.09921810 -0.94390097 0.31497099
vn 0.05182051 -0.96963113 0.23901903
vn 0.68827368 -0.71556867 -0.11933494
vn 0.72857289 -0.68491789 -0.00830827
vn 0.88148917 -0.47019409 0.04352421
vn 0.07739988 -0.97245678 0.21985695
vn 0.03936279 -0.96947474 0.24201094
vn 0.01672730 -0.97315005 0.22956301
vn 0.02246920 -0.98590188 0.16580898
vn -0.01450950 -0.98658521 0.16260103
vn 0.00920805 -0.99441638 -0.10512504
vn -0.00817055 -0.99294774 -0.11827097
vn -0.02170259 -0.99520064 0.09541847
vn -0.04225172 -0.99554941 0.08423873
vn -0.08134091 -0.99102517 0.10607902
vn -0.22535994 -0.97397874 0.02404809
vn -0.63647504 -0.69505604 -0.33436002
vn -0.75771200 -0.49754100 -0.42228600
vn -0.86969795 -0.25716598 -0.42129697
vn -0.68977765 -0.08007456 -0.71957964
vn -0.87660761 -0.11181895 -0.46803379
vn -0.59301905 -0.08809181 -0.80035507
vn -0.15478297 0.97904881 -0.13230897
vn 0.96164062 -0.01679399 0.27379789
vn 0.05615821 0.93853324 0.34059009
vn 0.09712545 -0.82054241 0.56327328
vn 0.09372178 -0.82615678 0.55559085
vn 0.88327873 -0.42732287 0.19290894
vn 0.65509099 -0.58777999 0.47473200
vn 0.07856710 -0.79582802 0.60040401
vn 0.04154922 -0.80230142 0.59547131
vn 0.02575161 -0.79989427 0.59958820
vn 0.02859621 -0.94720626 0.31934709
vn 0.02196391 -0.91368634 0.40582615
vn 0.01468980 -0.93958803 0.34199201
vn 0.01103440 -0.95727761 0.28895988
vn 0.00250634 -0.94317352 0.33229118
vn -0.01400250 -0.95305222 0.30248207
vn -0.03200090 -0.98210889 0.18557498
vn -0.07643010 -0.96959706 0.23246501
vn -0.12583296 -0.96431368 0.23294892
vn -0.16028697 -0.97000581 0.18274796
vn -0.37201988 -0.88991372 0.26392192
vn -0.50702180 -0.85477266 0.11087196
vn -0.74622582 -0.66115184 -0.07762268
vn -0.90522294 -0.40327397 -0.13394599
vn -0.96649995 -0.20364499 -0.15622599
vn -0.99324969 -0.10787597 -0.04263599
vn -0.92412477 -0.03482059 -0.38050090
vn -0.14699297 0.98821881 -0.04262229
vn 0.17815402 -0.23068103 0.95658110
vn 0.99211873 -0.02745299 0.12225697
vn 0.14744692 -0.07200496 0.98644548
vn 0.13501494 0.02603039 0.99050158
vn 0.01053800 0.99168356 0.12826794
vn 0.10778000 0.18320300 0.97714898
vn 0.90233818 -0.18309204 0.39020908
vn 0.09080779 -0.50175194 0.86023191
vn 0.08333601 -0.67449911 0.73355712
vn 0.04760020 -0.66832494 0.74234493
vn 0.02126980 -0.69634600 0.71739100
vn 0.00794621 -0.79626018 0.60490213
vn -0.01469020 -0.82775315 0.56090010
vn -0.02040779 -0.75146277 0.65945980
vn -0.10476001 -0.79627407 0.59579606
vn -0.22535408 -0.79864128 0.55802119
vn -0.57126889 -0.54645189 0.61240688
vn -0.64905480 -0.66493779 0.36957489
vn -0.66785178 -0.68325077 0.29519890
vn -0.66864340 -0.71226342 0.21353413
vn -0.55468223 -0.80674833 0.20367808
vn -0.56683323 -0.80015032 0.19611108
vn -0.96654904 -0.25582301 0.01837210
vn -0.93431387 -0.35253995 -0.05266089
vn -0.99808404 -0.05091090 0.03516150
vn -0.99975113 0.01170850 -0.01898910
vn -0.08583153 0.99630733 -0.00215541
vn 0.14492194 -0.22071490 0.96451157
vn 0.15661893 -0.32938185 0.93111659
vn 0.11070595 -0.27997888 0.95360160
vn 0.12583995 -0.21196891 0.96914059
vn 0.00645757 0.99153199 0.12970200
vn -0.04724851 0.43762312 0.89791625
vn 0.00447703 0.99145176 0.13039697
vn 0.00055547 0.99033330 0.13870704
vn 0.06132631 -0.60672706 0.79254108
vn 0.02531619 -0.53444689 0.84482283
vn 0.05902510 -0.57305002 0.81739202
vn 0.02293220 -0.64075601 0.76740201
vn 0.01473440 -0.67569918 0.73703020
vn 0.00838628 -0.66261033 0.74891737
vn -0.01276729 -0.66327070 0.74827066
vn -0.01577020 -0.63611010 0.77143712
vn -0.04252159 -0.59972482 0.79907575
vn -0.15486098 -0.64766690 0.74601988
vn -0.26640393 -0.35337290 0.89674776
vn -0.54293888 -0.25889994 0.79886682
vn -0.75828173 -0.32013989 0.56790780
vn -0.76580480 -0.37357590 0.52343486
vn -0.76376984 -0.54061189 0.35269593
vn -0.82967537 -0.51181823 0.22289210
vn -0.97014919 -0.20064104 0.13621203
vn -0.25603902 0.96662407 0.00905195
vn -0.91734494 -0.23088198 0.32430198
vn -0.97256819 -0.07566491 0.21996804
vn -0.98558980 0.00083791 0.16915097
vn -0.05730111 -0.33741006 0.93961217
vn -0.00113178 0.99120200 0.13235300
vn -0.00135848 0.99119142 0.13243006
vn -0.00261638 0.99113135 0.13286005
vn -0.00291320 0.99111686 0.13296198
vn -0.00316505 0.99110455 0.13304794
vn -0.00371785 0.99107723 0.13323703
vn -0.00587463 0.99096758 0.13397294
vn -0.00660627 0.99092926 0.13422204
vn -0.00862571 0.99082017 0.13491102
vn -0.05614121 0.78359509 0.61873007
vn -0.09531560 0.22932801 0.96867105
vn -0.00530438 -0.59777807 0.80164409
vn -0.02049800 -0.55995289 0.82827084
vn -0.01301261 -0.60074139 0.79933751
vn -0.03196950 -0.52107000 0.85291500
vn -0.09108867 -0.50108881 0.86058867
vn -0.09902567 -0.21842794 0.97081572
vn -0.10861801 -0.11064201 0.98790712
vn -0.39528904 -0.13894602 0.90798710
vn -0.51144505 -0.16139702 0.84402308
vn -0.74286797 -0.19325699 0.64093597
vn -0.07735952 0.99692622 0.01239420
vn -0.86292565 -0.03315939 0.50424179
vn -0.75507943 0.05274333 0.65350837
vn -0.09104212 0.99567619 0.01844610
vn -0.09496687 -0.07039038 0.99298867
vn -0.03832710 -0.48410700 0.87416900
vn -0.02394770 0.99277984 0.11753598
vn -0.32915817 0.13663907 0.93433648
vn -0.46211099 0.01228700 0.88673698
vn -0.00936698 0.99992505 0.00788432
vn -0.05736079 0.98754991 0.14647499
vn -0.00619965 0.99991303 0.01164020
f 1//1 2//2 3//3
f 1//1 3//3 4//4
f 1//1 4//4 5//5
f 1//1 5//5 6//6
f 1//1 6//6 7//7
f 1//1 7//7 2//2
f 2//2 8//8 9//9
f 2//2 9//9 3//3
f 2//2 7//7 10//10
f 2//2 10//10 11//11
f 2//2 11//11 12//12
f 2//2 12//12 8//8
f 3//3 9//9 13//13
f 3//3 13//13 14//14
f 3//3 14//14 15//15
f 3//3 15//15 4//4
f 4//4 16//16 17//17
f 4//4 17//17 5//5
f 4//4 15//15 16//16
f 5//5 17//17 18//18
f 5//5 18//18 6//6
f 6//6 18//18 19//19
f 6//6 19//19 20//20
f 6//6 20//20 21//21
f 6//6 21//21 7//7
f 7//7 21//21 22//22
f 7//7 22//22 10//10
f 8//8 23//23 24//24
f 8//8 24//24 9//9
f 8//8 12//12 25//25
f 8//8 25//25 26//26
f 8//8 26//26 23//23
f 9//9 24//24 13//13
f 10//10 22//22 27//27
f 10//10 27//27 11//11
f 11//11 27//27 28//28
f 11//11 28//28 29//29
f 11//11 29//29 12//12
f 12//12 29//29 30//30
f 12//12 30//30 25//25
f 13//13 24//24 31//31
f 13//13 31//31 32//32
f 13//13 32//32 33//33
f 13//13 33//33 14//14
f 14//14 33//33 15//15
f 15//15 33//33 34//34
f 15//15 34//34 35//35
f 15//15 35//35 36//36
f 15//15 36//36 16//16
f 16//16 36//36 37//37
f 16//16 37//37 38//38
f 16//16 38//38 17//17
f 17//17 38//38 39//39
f 17//17 39//39 18//18
f 18//18 39//39 40//40
f 18//18 40//40 19//19
f 19//19 40//40 20//20
f 20//20 41//41 42//42
f 20//20 42//42 69//69
f 20//20 69//69 90//90
f 20//20 90//90 114//114
f 20//20 114//114 136//136
f 20//20 136//136 135//135
f 20//20 135//135 153//153
f 20//20 153//153 159//159
f 20//20 159//159 140//140
f 20//20 140//140 120//120
f 20//20 120//120 96//96
f 20//20 96//96 74//74
f 20//20 74//74 55//55
f 20//20 55//55 28//28
f 20//20 28//28 54//54
f 20//20 54//54 53//53
f 20//20 53//53 52//52
f 20//20 52//52 43//43
f 20//20 43//43 44//44
f 20//20 44//44 22//22
f 20//20 22//22 21//21
f 20//20 40//40 45//45
f 20//20 45//45 41//41
f 22//22 44//44 27//27
f 23//23 46//46 47//47
f 23//23 47//47 24//24
f 23//23 26//26 46//46
f 24//24 47//47 31//31
f 25//25 48//48 26//26
f 25//25 30//30 49//49
f 25//25 49//49 48//48
f 26//26 50//50 51//51
f 26//26 51//51 46//46
f 26//26 48//48 50//50
f 27//27 44//44 52//52
f 27//27 52//52 53//53
f 27//27 53//53 54//54
f 27//27 54//54 28//28
f 28//28 55//55 56//56
f 28//28 56//56 29//29
f 29//29 56//56 55//55
f 29//29 55//55 49//49
f 29//29 49//49 30//30
f 31//31 47//47 32//32
f 32//32 57//57 58//58
f 32//32 58//58 59//59
f 32//32 59//59 60//60
f 32//32 60//60 33//33
f 32//32 47//47 57//57
f 33//33 60//60 34//34
f 34//34 60//60 59//59
f 34//34 59//59 61//61
f 34//34 61//61 62//62
f 34//34 62//62 36//36
f 34//34 36//36 35//35
f 36//36 62//62 63//63
f 36//36 63//63 64//64
f 36//36 64//64 37//37
f 37//37 64//64 65//65
f 37//37 65//65 38//38
f 38//38 65//65 66//66
f 38//38 66//66 39//39
f 39//39 66//66 40//40
f 40//40 66//66 45//45
f 41//41 67//67 68//68
f 41//41 68//68 42//42
f 41//41 45//45 67//67
f 42//42 68//68 69//69
f 43//43 52//52 44//44
f 45//45 66//66 67//67
f 46//46 51//51 70//70
f 46//46 70//70 71//71
f 46//46 71//71 47//47
f 47//47 71//71 57//57
f 48//48 72//72 50//50
f 48//48 49//49 72//72
f 49//49 73//73 72//72
f 49//49 55//55 74//74
f 49//49 74//74 75//75
f 49//49 75//75 73//73
f 50//50 72//72 76//76
f 50//50 76//76 77//77
f 50//50 77//77 78//78
f 50//50 78//78 51//51
f 51//51 78//78 70//70
f 57//57 79//79 58//58
f 57//57 71//71 80//80
f 57//57 80//80 79//79
f 58//58 79//79 59//59
f 59//59 79//79 81//81
f 59//59 81//81 82//82
f 59//59 82//82 61//61
f 61//61 82//82 83//83
f 61//61 83//83 62//62
f 62//62 83//83 84//84
f 62//62 84//84 63//63
f 63//63 84//84 85//85
f 63//63 85//85 64//64
f 64//64 85//85 86//86
f 64//64 86//86 65//65
f 65//65 86//86 66//66
f 66//66 86//86 87//87
f 66//66 87//87 68//68
f 66//66 68//68 67//67
f 68//68 88//88 112//112
f 68//68 112//112 89//89
f 68//68 89//89 69//69
f 68//68 87//87 88//88
f 69//69 89//89 90//90
f 70//70 78//78 91//91
f 70//70 91//91 92//92
f 70//70 92//92 80//80
f 70//70 80//80 71//71
f 72//72 73//73 76//76
f 73//73 93//93 76//76
f 73//73 75//75 94//94
f 73//73 94//94 95//95
f 73//73 95//95 93//93
f 74//74 96//96 94//94
f 74//74 94//94 75//75
f 76//76 93//93 97//97
f 76//76 97//97 98//98
f 76//76 98//98 99//99
f 76//76 99//99 77//77
f 77//77 91//91 78//78
f 77//77 99//99 91//91
f 79//79 80//80 100//100
f 79//79 100//100 101//101
f 79//79 101//101 102//102
f 79//79 102//102 81//81
f 80//80 92//92 100//100
f 81//81 102//102 103//103
f 81//81 103//103 104//104
f 81//81 104//104 82//82
f 82//82 104//104 83//83
f 83//83 105//105 84//84
f 83//83 104//104 105//105
f 84//84 105//105 85//85
f 85//85 105//105 106//106
f 85//85 106//106 86//86
f 86//86 106//106 107//107
f 86//86 107//107 87//87
f 87//87 107//107 108//108
f 87//87 108//108 109//109
f 87//87 109//109 110//110
f 87//87 110//110 111//111
f 87//87 111//111 88//88
f 88//88 111//111 113//113
f 88//88 113//113 114//114
f 88//88 114//114 112//112
f 89//89 112//112 90//90
f 90//90 112//112 114//114
f 91//91 115//115 116//116
f 91//91 116//116 92//92
f 91//91 99//99 117//117
f 91//91 117//117 115//115
f 92//92 101//101 100//100
f 92//92 116//116 118//118
f 92//92 118//118 101//101
f 93//93 119//119 97//97
f 93//93 95//95 119//119
f 94//94 96//96 120//120
f 94//94 120//120 119//119
f 94//94 119//119 95//95
f 97//97 119//119 121//121
f 97//97 121//121 98//98
f 98//98 121//121 122//122
f 98//98 122//122 123//123
f 98//98 123//123 124//124
f 98//98 124//124 99//99
f 99//99 124//124 117//117
f 101//101 118//118 125//125
f 101//101 125//125 102//102
f 102//102 125//125 126//126
f 102//102 126//126 103//103
f 103//103 126//126 104//104
f 104//104 126//126 127//127
f 104//104 127//127 128//128
f 104//104 128//128 129//129
f 104//104 129//129 105//105
f 105//105 129//129 128//128
f 105//105 128//128 130//130
f 105//105 130//130 106//106
f 106//106 130//130 131//131
f 106//106 131//131 107//107
f 107//107 131//131 132//132
f 107//107 132//132 108//108
f 108//108 132//132 109//109
f 109//109 133//133 134//134
f 109//109 134//134 135//135
f 109//109 135//135 110//110
f 109//109 132//132 133//133
f 110//110 135//135 113//113
f 110//110 113//113 111//111
f 113//113 135//135 136//136
f 113//113 136//136 114//114
f 115//115 137//137 118//118
f 115//115 118//118 116//116
f 115//115 117//117 138//138
f 115//115 138//138 139//139
f 115//115 139//139 137//137
f 117//117 124//124 138//138
f 118//118 137//137 125//125
f 119//119 120//120 121//121
f 120//120 140//140 141//141
f 120//120 141//141 142//142
f 120//120 142//142 143//143
f 120//120 143//143 121//121
f 121//121 143//143 144//144
f 121//121 144//144 142//142
f 121//121 142//142 145//145
f 121//121 145//145 146//146
f 121//121 146//146 122//122
f 122//122 146//146 123//123
f 123//123 146//146 124//124
f 124//124 146//146 147//147
f 124//124 147//147 138//138
f 125//125 137//137 148//148
f 125//125 148//148 127//127
f 125//125 127//127 126//126
f 127//127 148//148 128//128
f 128//128 148//148 149//149
f 128//128 149//149 130//130
f 130//130 149//149 150//150
f 130//130 150//150 131//131
f 131//131 150//150 151//151
f 131//131 151//151 132//132
f 132//132 151//151 152//152
f 132//132 152//152 133//133
f 133//133 152//152 134//134
f 134//134 152//152 135//135
f 135//135 152//152 154//154
f 135//135 154//154 155//155
f 135//135 155//155 153//153
f 137//137 139//139 148//148
f 138//138 147//147 156//156
f 138//138 156//156 139//139
f 139//139 157//157 148//148
f 139//139 156//156 158//158
f 139//139 158//158 157//157
f 140//140 159//159 141//141
f 141//141 160//160 161//161
f 141//141 161//161 162//162
f 141//141 162//162 142//142
f 141//141 159//159 160//160
f 142//142 162//162 163//163
f 142//142 163//163 145//145
f 142//142 144//144 143//143
f 145//145 163//163 146//146
f 146//146 164//164 147//147
f 146//146 163//163 164//164
f 147//147 164//164 156//156
f 148//148 157//157 149//149
f 149//149 157//157 150//150
f 150//150 157//157 158//158
f 150//150 158//158 165//165
f 150//150 165//165 151//151
f 151//151 165//165 158//158
f 151//151 158//158 166//166
f 151//151 166//166 152//152
f 152//152 167//167 155//155
f 152//152 155//155 154//154
f 152//152 166//166 167//167
f 153//153 168//168 159//159
f 153//153 155//155 169//169
f 153//153 169//169 170//170
f 153//153 170//170 168//168
f 155//155 167//167 169//169
f 156//156 164//164 158//158
f 158//158 164//164 166//166
f 159//159 168//168 161//161
f 159//159 161//161 160//160
f 161//161 168//168 170//170
f 161//161 170//170 169//169
f 161//161 169//169 167//167
f 161//161 167//167 162//162
f 162//162 167//167 166//166
f 162//162 166//166 163//163
f 163//163 166//166 164//164
f 171//171 172//172 178//178
f 171//171 178//178 173//173
f 171//171 173//173 182//182
f 171//171 182//182 174//174
f 171//171 174//174 175//175
f 171//171 175//175 176//176
f 171//171 176//176 177//177
f 171//171 177//177 172//172
f 172//172 177//177 179//179
f 172//172 179//179 180//180
f 172//172 180//180 181//181
f 172//172 181//181 178//178
f 173//173 178//178 195//195
f 173//173 195//195 183//183
f 173//173 183//183 184//184
f 173//173 184//184 185//185
f 173//173 185//185 186//186
f 173//173 186//186 187//187
f 173//173 187//187 188//188
f 173//173 188//188 182//182
f 174//174 189//189 190//190
f 174//174 190//190 175//175
f 174//174 182//182 201//201
f 174//174 201//201 191//191
f 174//174 191//191 189//189
f 175//175 190//190 189//189
f 175//175 189//189 209//209
f 175//175 209//209 226//226
f 175//175 226//226 247//247
f 175//175 247//247 241//241
f 175//175 241//241 260//260
f 175//175 260//260 275//275
f 175//175 275//275 274//274
f 175//175 274//274 289//289
f 175//175 289//289 301//301
f 175//175 301//301 313//313
f 175//175 313//313 315//315
f 175//175 315//315 305//305
f 175//175 305//305 304//304
f 175//175 304//304 303//303
f 175//175 303//303 292//292
f 175//175 292//292 278//278
f 175//175 278//278 277//277
f 175//175 277//277 263//263
f 175//175 263//263 249//249
f 175//175 249//249 230//230
f 175//175 230//230 216//216
f 175//175 216//216 196//196
f 175//175 196//196 180//180
f 175//175 180//180 179//179
f 175//175 179//179 177//177
f 175//175 177//177 176//176
f 178//178 181//181 192//192
f 178//178 192//192 193//193
f 178//178 193//193 194//194
f 178//178 194//194 195//195
f 180//180 196//196 197//197
f 180//180 197//197 181//181
f 181//181 193//193 192//192
f 181//181 197//197 198//198
f 181//181 198//198 199//199
f 181//181 199//199 200//200
f 181//181 200//200 193//193
f 182//182 188//188 187//187
f 182//182 187//187 201//201
f 183//183 202//202 184//184
f 183//183 195//195 203//203
f 183//183 203//203 204//204
f 183//183 204//204 202//202
f 184//184 202//202 185//185
f 185//185 202//202 186//186
f 186//186 202//202 205//205
f 186//186 205//205 206//206
f 186//186 206//206 207//207
f 186//186 207//207 187//187
f 187//187 207//207 208//208
f 187//187 208//208 201//201
f 189//189 191//191 210//210
f 189//189 210//210 209//209
f 191//191 201//201 211//211
f 191//191 211//211 212//212
f 191//191 212//212 210//210
f 193//193 200//200 213//213
f 193//193 213//213 194//194
f 194//194 213//213 195//195
f 195//195 213//213 214//214
f 195//195 214//214 215//215
f 195//195 215//215 203//203
f 196//196 216//216 217//217
f 196//196 217//217 197//197
f 197//197 217//217 218//218
f 197//197 218//218 198//198
f 198//198 218//218 219//219
f 198//198 219//219 220//220
f 198//198 220//220 199//199
f 199//199 221//221 200//200
f 199//199 220//220 221//221
f 200//200 221//221 222//222
f 200//200 222//222 214//214
f 200//200 214//214 213//213
f 201//201 208//208 206//206
f 201//201 206//206 223//223
f 201//201 223//223 224//224
f 201//201 224//224 211//211
f 202//202 204//204 205//205
f 203//203 215//215 229//229
f 203//203 229//229 228//228
f 203//203 228//228 248//248
f 203//203 248//248 262//262
f 203//203 262//262 276//276
f 203//203 276//276 284//284
f 203//203 284//284 283//283
f 203//203 283//283 296//296
f 203//203 296//296 309//309
f 203//203 309//309 300//300
f 203//203 300//300 288//288
f 203//203 288//288 272//272
f 203//203 272//272 261//261
f 203//203 261//261 242//242
f 203//203 242//242 225//225
f 203//203 225//225 206//206
f 203//203 206//206 205//205
f 203//203 205//205 204//204
f 206//206 225//225 223//223
f 206//206 208//208 207//207
f 209//209 210//210 212//212
f 209//209 212//212 226//226
f 211//211 224//224 212//212
f 212//212 224//224 227//227
f 212//212 227//227 226//226
f 214//214 222//222 221//221
f 214//214 221//221 228//228
f 214//214 228//228 229//229
f 214//214 229//229 215//215
f 216//216 230//230 217//217
f 217//217 231//231 232//232
f 217//217 232//232 233//233
f 217//217 233//233 219//219
f 217//217 219//219 218//218
f 217//217 230//230 234//234
f 217//217 234//234 231//231
f 219//219 233//233 235//235
f 219//219 235//235 220//220
f 220//220 235//235 232//232
f 220//220 232//232 236//236
f 220//220 236//236 237//237
f 220//220 237//237 221//221
f 221//221 237//237 228//228
f 223//223 238//238 224//224
f 223//223 225//225 238//238
f 224//224 238//238 239//239
f 224//224 239//239 240//240
f 224//224 240//240 241//241
f 224//224 241//241 227//227
f 225//225 242//242 243//243
f 225//225 243//243 244//244
f 225//225 244//244 245//245
f 225//225 245//245 246//246
f 225//225 246//246 238//238
f 226//226 227//227 247//247
f 227//227 241//241 247//247
f 228//228 237//237 248//248
f 230//230 249//249 250//250
f 230//230 250//250 234//234
f 231//231 234//234 251//251
f 231//231 251//251 252//252
f 231//231 252//252 253//253
f 231//231 253//253 232//232
f 232//232 235//235 233//233
f 232//232 253//253 254//254
f 232//232 254//254 236//236
f 234//234 250//250 251//251
f 236//236 254//254 255//255
f 236//236 255//255 237//237
f 237//237 256//256 248//248
f 237//237 255//255 256//256
f 238//238 246//246 239//239
f 239//239 246//246 245//245
f 239//239 245//245 244//244
f 239//239 244//244 243//243
f 239//239 243//243 257//257
f 239//239 257//257 240//240
f 240//240 257//257 258//258
f 240//240 258//258 259//259
f 240//240 259//259 260//260
f 240//240 260//260 241//241
f 242//242 261//261 257//257
f 242//242 257//257 243//243
f 248//248 256//256 262//262
f 249//249 263//263 264//264
f 249//249 264//264 250//250
f 250//250 264//264 251//251
f 251//251 264//264 252//252
f 252//252 265//265 253//253
f 252//252 264//264 265//265
f 253//253 265//265 266//266
f 253//253 266//266 267//267
f 253//253 267//267 254//254
f 254//254 267//267 268//268
f 254//254 268//268 255//255
f 255//255 268//268 256//256
f 256//256 268//268 262//262
f 257//257 269//269 270//270
f 257//257 270//270 271//271
f 257//257 271//271 258//258
f 257//257 261//261 272//272
f 257//257 272//272 269//269
f 258//258 271//271 259//259
f 259//259 273//273 274//274
f 259//259 274//274 275//275
f 259//259 275//275 260//260
f 259//259 271//271 273//273
f 262//262 268//268 276//276
f 263//263 277//277 264//264
f 264//264 277//277 265//265
f 265//265 277//277 278//278
f 265//265 278//278 279//279
f 265//265 279//279 280//280
f 265//265 280//280 266//266
f 266//266 280//280 267//267
f 267//267 280//280 281//281
f 267//267 281//281 282//282
f 267//267 282//282 283//283
f 267//267 283//283 284//284
f 267//267 284//284 268//268
f 268//268 284//284 276//276
f 269//269 285//285 270//270
f 269//269 272//272 285//285
f 270//270 286//286 287//287
f 270//270 287//287 271//271
f 270//270 285//285 286//286
f 271//271 287//287 274//274
f 271//271 274//274 273//273
f 272//272 288//288 285//285
f 274//274 287//287 290//290
f 274//274 290//290 291//291
f 274//274 291//291 289//289
f 278//278 292//292 279//279
f 279//279 292//292 293//293
f 279//279 293//293 280//280
f 280//280 293//293 281//281
f 281//281 293//293 294//294
f 281//281 294//294 295//295
f 281//281 295//295 296//296
f 281//281 296//296 283//283
f 281//281 283//283 282//282
f 285//285 297//297 298//298
f 285//285 298//298 299//299
f 285//285 299//299 286//286
f 285//285 288//288 300//300
f 285//285 300//300 297//297
f 286//286 299//299 291//291
f 286//286 291//291 287//287
f 287//287 291//291 290//290
f 289//289 291//291 301//301
f 291//291 302//302 301//301
f 291//291 299//299 298//298
f 291//291 298//298 302//302
f 292//292 303//303 293//293
f 293//293 303//303 304//304
f 293//293 304//304 294//294
f 294//294 304//304 305//305
f 294//294 305//305 306//306
f 294//294 306//306 307//307
f 294//294 307//307 295//295
f 295//295 307//307 308//308
f 295//295 308//308 309//309
f 295//295 309//309 296//296
f 297//297 310//310 298//298
f 297//297 300//300 310//310
f 298//298 311//311 312//312
f 298//298 312//312 302//302
f 298//298 310//310 311//311
f 300//300 309//309 310//310
f 301//301 302//302 313//313
f 302//302 312//312 314//314
f 302//302 314//314 313//313
f 305//305 315//315 316//316
f 305//305 316//316 306//306
f 306//306 316//316 317//317
f 306//306 317//317 311//311
f 306//306 311//311 307//307
f 307//307 311//311 310//310
f 307//307 310//310 308//308
f 308//308 310//310 309//309
f 311//311 317//317 312//312
f 312//312 317//317 318//318
f 312//312 318//318 315//315
f 312//312 315//315 319//319
f 312//312 319//319 314//314
f 313//313 314//314 315//315
f 314//314 319//319 315//315
f 315//315 318//318 316//316
f 316//316 318//318 317//317
f 320//320 321//321 322//322
f 320//320 322//322 323//323
f 320//320 323//323 330//330
f 320//320 330//330 324//324
f 320//320 324//324 332//332
f 320//320 332//332 325//325
f 320//320 325//325 321//321
f 321//321 325//325 326//326
f 321//321 326//326 327//327
f 321//321 327//327 335//335
f 321//321 335//335 349//349
f 321//321 349//349 368//368
f 321//321 368//368 387//387
f 321//321 387//387 410//410
f 321//321 410//410 440//440
f 321//321 440//440 456//456
f 321//321 456//456 484//484
f 321//321 484//484 501//501
f 321//321 501//501 512//512
f 321//321 512//512 511//511
f 321//321 511//511 510//510
f 321//321 510//510 509//509
f 321//321 509//509 508//508
f 321//321 508//508 499//499
f 321//321 499//499 498//498
f 321//321 498//498 513//513
f 321//321 513//513 515//515
f 321//321 515//515 514//514
f 321//321 514//514 505//505
f 321//321 505//505 516//516
f 321//321 516//516 502//502
f 321//321 502//502 485//485
f 321//321 485//485 466//466
f 321//321 466//466 464//464
f 321//321 464//464 459//459
f 321//321 459//459 441//441
f 321//321 441//441 411//411
f 321//321 411//411 388//388
f 321//321 388//388 372//372
f 321//321 372//372 371//371
f 321//321 371//371 370//370
f 321//321 370//370 369//369
f 321//321 369//369 350//350
f 321//321 350//350 336//336
f 321//321 336//336 328//328
f 321//321 328//328 322//322
f 322//322 328//328 329//329
f 322//322 329//329 323//323
f 323//323 329//329 339//339
f 323//323 339//339 330//330
f 324//324 330//330 331//331
f 324//324 331//331 332//332
f 325//325 332//332 333//333
f 325//325 333//333 326//326
f 326//326 333//333 346//346
f 326//326 346//346 334//334
f 326//326 334//334 335//335
f 326//326 335//335 327//327
f 328//328 336//336 337//337
f 328//328 337//337 329//329
f 329//329 337//337 338//338
f 329//329 338//338 340//340
f 329//329 340//340 339//339
f 330//330 339//339 340//340
f 330//330 340//340 331//331
f 331//331 340//340 341//341
f 331//331 341//341 342//342
f 331//331 342//342 343//343
f 331//331 343//343 344//344
f 331//331 344//344 345//345
f 331//331 345//345 332//332
f 332//332 345//345 333//333
f 333//333 345//345 347//347
f 333//333 347//347 346//346
f 334//334 346//346 348//348
f 334//334 348//348 335//335
f 335//335 348//348 349//349
f 336//336 350//350 337//337
f 337//337 350//350 351//351
f 337//337 351//351 338//338
f 338//338 351//351 352//352
f 338//338 352//352 340//340
f 340//340 352//352 341//341
f 341//341 352//352 353//353
f 341//341 353//353 354//354
f 341//341 354//354 355//355
f 341//341 355//355 342//342
f 342//342 355//355 356//356
f 342//342 356//356 343//343
f 343//343 357//357 358//358
f 343//343 358//358 344//344
f 343//343 356//356 357//357
f 344//344 358//358 359//359
f 344//344 359//359 360//360
f 344//344 360//360 361//361
f 344//344 361//361 362//362
f 344//344 362//362 363//363
f 344//344 363//363 364//364
f 344//344 364//364 345//345
f 345//345 364//364 347//347
f 346//346 347//347 365//365
f 346//346 365//365 348//348
f 347//347 364//364 365//365
f 348//348 365//365 366//366
f 348//348 366//366 367//367
f 348//348 367//367 368//368
f 348//348 368//368 349//349
f 350//350 369//369 352//352
f 350//350 352//352 351//351
f 352//352 369//369 370//370
f 352//352 370//370 371//371
f 352//352 371//371 353//353
f 353//353 371//371 372//372
f 353//353 372//372 373//373
f 353//353 373//373 354//354
f 354//354 373//373 374//374
f 354//354 374//374 375//375
f 354//354 375//375 355//355
f 355//355 376//376 356//356
f 355//355 375//375 377//377
f 355//355 377//377 376//376
f 356//356 376//376 378//378
f 356//356 378//378 379//379
f 356//356 379//379 380//380
f 356//356 380//380 357//357
f 357//357 380//380 379//379
f 357//357 379//379 358//358
f 358//358 379//379 381//381
f 358//358 381//381 359//359
f 359//359 382//382 360//360
f 359//359 381//381 382//382
f 360//360 382//382 361//361
f 361//361 382//382 383//383
f 361//361 383//383 362//362
f 362//362 383//383 384//384
f 362//362 384//384 385//385
f 362//362 385//385 363//363
f 363//363 385//385 364//364
f 364//364 385//385 386//386
f 364//364 386//386 365//365
f 365//365 386//386 366//366
f 366//366 386//386 408//408
f 366//366 408//408 407//407
f 366//366 407//407 406//406
f 366//366 406//406 435//435
f 366//366 435//435 434//434
f 366//366 434//434 433//433
f 366//366 433//433 432//432
f 366//366 432//432 455//455
f 366//366 455//455 454//454
f 366//366 454//454 483//483
f 366//366 483//483 457//457
f 366//366 457//457 439//439
f 366//366 439//439 410//410
f 366//366 410//410 387//387
f 366//366 387//387 367//367
f 367//367 387//387 368//368
f 372//372 388//388 373//373
f 373//373 388//388 389//389
f 373//373 389//389 390//390
f 373//373 390//390 374//374
f 374//374 390//390 391//391
f 374//374 391//391 375//375
f 375//375 391//391 377//377
f 376//376 392//392 378//378
f 376//376 377//377 393//393
f 376//376 393//393 392//392
f 377//377 391//391 394//394
f 377//377 394//394 393//393
f 378//378 392//392 395//395
f 378//378 395//395 379//379
f 379//379 395//395 396//396
f 379//379 396//396 397//397
f 379//379 397//397 398//398
f 379//379 398//398 399//399
f 379//379 399//399 382//382
f 379//379 382//382 381//381
f 382//382 399//399 400//400
f 382//382 400//400 401//401
f 382//382 401//401 402//402
f 382//382 402//402 403//403
f 382//382 403//403 404//404
f 382//382 404//404 405//405
f 382//382 405//405 383//383
f 383//383 405//405 406//406
f 383//383 406//406 407//407
f 383//383 407//407 408//408
f 383//383 408//408 409//409
f 383//383 409//409 385//385
f 383//383 385//385 384//384
f 385//385 409//409 386//386
f 386//386 409//409 408//408
f 388//388 411//411 389//389
f 389//389 411//411 412//412
f 389//389 412//412 413//413
f 389//389 413//413 390//390
f 390//390 413//413 391//391
f 391//391 413//413 414//414
f 391//391 414//414 415//415
f 391//391 415//415 416//416
f 391//391 416//416 394//394
f 392//392 417//417 395//395
f 392//392 393//393 417//417
f 393//393 394//394 418//418
f 393//393 418//418 417//417
f 394//394 416//416 418//418
f 395//395 417//417 419//419
f 395//395 419//419 420//420
f 395//395 420//420 396//396
f 396//396 420//420 421//421
f 396//396 421//421 422//422
f 396//396 422//422 397//397
f 397//397 422//422 398//398
f 398//398 422//422 423//423
f 398//398 423//423 399//399
f 399//399 423//423 400//400
f 400//400 424//424 425//425
f 400//400 425//425 426//426
f 400//400 426//426 427//427
f 400//400 427//427 401//401
f 400//400 423//423 428//428
f 400//400 428//428 429//429
f 400//400 429//429 424//424
f 401//401 427//427 402//402
f 402//402 427//427 430//430
f 402//402 430//430 431//431
f 402//402 431//431 432//432
f 402//402 432//432 433//433
f 402//402 433//433 434//434
f 402//402 434//434 435//435
f 402//402 435//435 436//436
f 402//402 436//436 403//403
f 403//403 436//436 437//437
f 403//403 437//437 404//404
f 404//404 437//437 405//405
f 405//405 437//437 406//406
f 406//406 437//437 438//438
f 406//406 438//438 435//435
f 410//410 439//439 440//440
f 411//411 441//441 413//413
f 411//411 413//413 412//412
f 413//413 441//441 414//414
f 414//414 441//441 442//442
f 414//414 442//442 443//443
f 414//414 443//443 415//415
f 415//415 443//443 444//444
f 415//415 444//444 416//416
f 416//416 444//444 419//419
f 416//416 419//419 417//417
f 416//416 417//417 418//418
f 419//419 444//444 445//445
f 419//419 445//445 446//446
f 419//419 446//446 421//421
f 419//419 421//421 420//420
f 421//421 447//447 422//422
f 421//421 446//446 448//448
f 421//421 448//448 447//447
f 422//422 447//447 449//449
f 422//422 449//449 428//428
f 422//422 428//428 423//423
f 424//424 450//450 425//425
f 424//424 429//429 451//451
f 424//424 451//451 450//450
f 425//425 450//450 430//430
f 425//425 430//430 427//427
f 425//425 427//427 426//426
f 428//428 451//451 429//429
f 428//428 449//449 451//451
f 430//430 452//452 431//431
f 430//430 450//450 453//453
f 430//430 453//453 452//452
f 431//431 454//454 455//455
f 431//431 455//455 432//432
f 431//431 452//452 454//454
f 435//435 438//438 436//436
f 436//436 438//438 437//437
f 439//439 456//456 440//440
f 439//439 457//457 458//458
f 439//439 458//458 456//456
f 441//441 459//459 460//460
f 441//441 460//460 442//442
f 442//442 461//461 462//462
f 442//442 462//462 463//463
f 442//442 463//463 443//443
f 442//442 460//460 464//464
f 442//442 464//464 465//465
f 442//442 465//465 466//466
f 442//442 466//466 461//461
f 443//443 463//463 467//467
f 443//443 467//467 445//445
f 443//443 445//445 444//444
f 445//445 467//467 468//468
f 445//445 468//468 446//446
f 446//446 468//468 448//448
f 447//447 469//469 449//449
f 447//447 448//448 469//469
f 448//448 468//468 470//470
f 448//448 470//470 471//471
f 448//448 471//471 472//472
f 448//448 472//472 473//473
f 448//448 473//473 469//469
f 449//449 469//469 474//474
f 449//449 474//474 475//475
f 449//449 475//475 476//476
f 449//449 476//476 451//451
f 450//450 451//451 477//477
f 450//450 477//477 478//478
f 450//450 478//478 479//479
f 450//450 479//479 453//453
f 451//451 476//476 480//480
f 451//451 480//480 481//481
f 451//451 481//481 477//477
f 452//452 479//479 482//482
f 452//452 482//482 483//483
f 452//452 483//483 454//454
f 452//452 453//453 479//479
f 456//456 482//482 484//484
f 456//456 458//458 482//482
f 457//457 483//483 482//482
f 457//457 482//482 458//458
f 459//459 464//464 460//460
f 461//461 466//466 485//485
f 461//461 485//485 486//486
f 461//461 486//486 462//462
f 462//462 486//486 487//487
f 462//462 487//487 488//488
f 462//462 488//488 489//489
f 462//462 489//489 471//471
f 462//462 471//471 470//470
f 462//462 470//470 463//463
f 463//463 470//470 467//467
f 464//464 466//466 465//465
f 467//467 470//470 468//468
f 469//469 473//473 474//474
f 471//471 489//489 472//472
f 472//472 488//488 490//490
f 472//472 490//490 473//473
f 472//472 489//489 488//488
f 473//473 490//490 474//474
f 474//474 490//490 491//491
f 474//474 491//491 492//492
f 474//474 492//492 493//493
f 474//474 493//493 494//494
f 474//474 494//494 475//475
f 475//475 494//494 476//476
f 476//476 494//494 480//480
f 477//477 495//495 500//500
f 477//477 500//500 478//478
f 477//477 481//481 496//496
f 477//477 496//496 497//497
f 477//477 497//497 498//498
f 477//477 498//498 499//499
f 477//477 499//499 495//495
f 478//478 500//500 501//501
f 478//478 501//501 479//479
f 479//479 501//501 484//484
f 479//479 484//484 482//482
f 480//480 494//494 493//493
f 480//480 493//493 496//496
f 480//480 496//496 481//481
f 485//485 502//502 503//503
f 485//485 503//503 486//486
f 486//486 503//503 504//504
f 486//486 504//504 488//488
f 486//486 488//488 487//487
f 488//488 504//504 505//505
f 488//488 505//505 506//506
f 488//488 506//506 507//507
f 488//488 507//507 491//491
f 488//488 491//491 490//490
f 491//491 507//507 493//493
f 491//491 493//493 492//492
f 493//493 507//507 496//496
f 495//495 499//499 508//508
f 495//495 508//508 509//509
f 495//495 509//509 510//510
f 495//495 510//510 511//511
f 495//495 511//511 512//512
f 495//495 512//512 501//501
f 495//495 501//501 500//500
f 496//496 513//513 497//497
f 496//496 507//507 505//505
f 496//496 505//505 514//514
f 496//496 514//514 515//515
f 496//496 515//515 513//513
f 497//497 513//513 498//498
f 502//502 516//516 503//503
f 503//503 516//516 504//504
f 504//504 516//516 505//505
f 505//505 507//507 506//506
f 517//517 518//518 519//519
f 517//517 519//519 527//527
f 517//517 527//527 540//540
f 517//517 540//540 538//538
f 517//517 538//538 537//537
f 517//517 537//537 557//557
f 517//517 557//557 556//556
f 517//517 556//556 560//560
f 517//517 560//560 580//580
f 517//517 580//580 602//602
f 517//517 602//602 629//629
f 517//517 629//629 656//656
f 517//517 656//656 683//683
f 517//517 683//683 709//709
f 517//517 709//709 735//735
f 517//517 735//735 738//738
f 517//517 738//738 744//744
f 517//517 744//744 746//746
f 517//517 746//746 745//745
f 517//517 745//745 741//741
f 517//517 741//741 723//723
f 517//517 723//723 722//722
f 517//517 722//722 721//721
f 517//517 721//721 720//720
f 517//517 720//720 719//719
f 517//517 719//719 718//718
f 517//517 718//718 717//717
f 517//517 717//717 716//716
f 517//517 716//716 715//715
f 517//517 715//715 714//714
f 517//517 714//714 691//691
f 517//517 691//691 690//690
f 517//517 690//690 688//688
f 517//517 688//688 661//661
f 517//517 661//661 631//631
f 517//517 631//631 603//603
f 517//517 603//603 581//581
f 517//517 581//581 561//561
f 517//517 561//561 541//541
f 517//517 541//541 528//528
f 517//517 528//528 520//520
f 517//517 520//520 521//521
f 517//517 521//521 522//522
f 517//517 522//522 518//518
f 518//518 523//523 524//524
f 518//518 524//524 525//525
f 518//518 525//525 519//519
f 518//518 522//522 526//526
f 518//518 526//526 523//523
f 519//519 525//525 527//527
f 520//520 528//528 521//521
f 521//521 528//528 529//529
f 521//521 529//529 530//530
f 521//521 530//530 531//531
f 521//521 531//531 522//522
f 522//522 531//531 532//532
f 522//522 532//532 533//533
f 522//522 533//533 523//523
f 522//522 523//523 526//526
f 523//523 533//533 534//534
f 523//523 534//534 524//524
f 524//524 534//534 535//535
f 524//524 535//535 536//536
f 524//524 536//536 537//537
f 524//524 537//537 538//538
f 524//524 538//538 525//525
f 525//525 538//538 539//539
f 525//525 539//539 540//540
f 525//525 540//540 527//527
f 528//528 541//541 542//542
f 528//528 542//542 529//529
f 529//529 542//542 543//543
f 529//529 543//543 544//544
f 529//529 544//544 530//530
f 530//530 544//544 545//545
f 530//530 545//545 531//531
f 531//531 545//545 546//546
f 531//531 546//546 547//547
f 531//531 547//547 548//548
f 531//531 548//548 549//549
f 531//531 549//549 532//532
f 532//532 550//550 534//534
f 532//532 534//534 533//533
f 532//532 549//549 551//551
f 532//532 551//551 550//550
f 534//534 552//552 553//553
f 534//534 553//553 535//535
f 534//534 550//550 554//554
f 534//534 554//554 552//552
f 535//535 553//553 555//555
f 535//535 555//555 536//536
f 536//536 556//556 557//557
f 536//536 557//557 537//537
f 536//536 555//555 558//558
f 536//536 558//558 559//559
f 536//536 559//559 560//560
f 536//536 560//560 556//556
f 538//538 540//540 539//539
f 541//541 561//561 562//562
f 541//541 562//562 542//542
f 542//542 562//562 563//563
f 542//542 563//563 543//543
f 543//543 564//564 544//544
f 543//543 563//563 565//565
f 543//543 565//565 566//566
f 543//543 566//566 567//567
f 543//543 567//567 564//564
f 544//544 564//564 545//545
f 545//545 564//564 568//568
f 545//545 568//568 546//546
f 546//546 569//569 547//547
f 546//546 568//568 570//570
f 546//546 570//570 569//569
f 547//547 569//569 548//548
f 548//548 569//569 570//570
f 548//548 570//570 571//571
f 548//548 571//571 572//572
f 548//548 572//572 573//573
f 548//548 573//573 574//574
f 548//548 574//574 549//549
f 549//549 574//574 551//551
f 550//550 551//551 555//555
f 550//550 555//555 554//554
f 551//551 574//574 555//555
f 552//552 555//555 553//553
f 552//552 554//554 555//555
f 555//555 575//575 558//558
f 555//555 574//574 575//575
f 558//558 575//575 576//576
f 558//558 576//576 577//577
f 558//558 577//577 578//578
f 558//558 578//578 559//559
f 559//559 578//578 579//579
f 559//559 579//579 580//580
f 559//559 580//580 560//560
f 561//561 581//581 562//562
f 562//562 581//581 603//603
f 562//562 603//603 630//630
f 562//562 630//630 658//658
f 562//562 658//658 663//663
f 562//562 663//663 635//635
f 562//562 635//635 634//634
f 562//562 634//634 611//611
f 562//562 611//611 610//610
f 562//562 610//610 609//609
f 562//562 609//609 605//605
f 562//562 605//605 588//588
f 562//562 588//588 604//604
f 562//562 604//604 582//582
f 562//562 582//582 563//563
f 563//563 582//582 583//583
f 563//563 583//583 566//566
f 563//563 566//566 565//565
f 564//564 567//567 584//584
f 564//564 584//584 568//568
f 566//566 583//583 585//585
f 566//566 585//585 567//567
f 567//567 585//585 584//584
f 568//568 584//584 585//585
f 568//568 585//585 586//586
f 568//568 586//586 587//587
f 568//568 587//587 570//570
f 570//570 587//587 586//586
f 570//570 586//586 571//571
f 571//571 586//586 588//588
f 571//571 588//588 589//589
f 571//571 589//589 590//590
f 571//571 590//590 591//591
f 571//571 591//591 592//592
f 571//571 592//592 572//572
f 572//572 592//592 573//573
f 573//573 592//592 593//593
f 573//573 593//593 594//594
f 573//573 594//594 575//575
f 573//573 575//575 574//574
f 575//575 594//594 576//576
f 576//576 594//594 595//595
f 576//576 595//595 596//596
f 576//576 596//596 597//597
f 576//576 597//597 577//577
f 577//577 597//597 578//578
f 578//578 597//597 598//598
f 578//578 598//598 599//599
f 578//578 599//599 579//579
f 579//579 599//599 600//600
f 579//579 600//600 601//601
f 579//579 601//601 580//580
f 580//580 601//601 602//602
f 582//582 604//604 583//583
f 583//583 604//604 585//585
f 585//585 604//604 586//586
f 586//586 604//604 588//588
f 588//588 605//605 606//606
f 588//588 606//606 589//589
f 589//589 606//606 590//590
f 590//590 607//607 608//608
f 590//590 608//608 591//591
f 590//590 606//606 605//605
f 590//590 605//605 609//609
f 590//590 609//609 610//610
f 590//590 610//610 611//611
f 590//590 611//611 612//612
f 590//590 612//612 607//607
f 591//591 608//608 613//613
f 591//591 613//613 614//614
f 591//591 614//614 615//615
f 591//591 615//615 616//616
f 591//591 616//616 617//617
f 591//591 617//617 592//592
f 592//592 618//618 593//593
f 592//592 617//617 618//618
f 593//593 618//618 619//619
f 593//593 619//619 620//620
f 593//593 620//620 621//621
f 593//593 621//621 595//595
f 593//593 595//595 594//594
f 595//595 621//621 622//622
f 595//595 622//622 596//596
f 596//596 622//622 623//623
f 596//596 623//623 597//597
f 597//597 623//623 598//598
f 598//598 624//624 599//599
f 598//598 623//623 624//624
f 599//599 624//624 625//625
f 599//599 625//625 600//600
f 600//600 626//626 601//601
f 600//600 625//625 627//627
f 600//600 627//627 626//626
f 601//601 626//626 628//628
f 601//601 628//628 602//602
f 602//602 628//628 626//626
f 602//602 626//626 629//629
f 603//603 631//631 630//630
f 607//607 632//632 633//633
f 607//607 633//633 608//608
f 607//607 612//612 634//634
f 607//607 634//634 635//635
f 607//607 635//635 632//632
f 608//608 636//636 613//613
f 608//608 633//633 636//636
f 611//611 634//634 612//612
f 613//613 636//636 637//637
f 613//613 637//637 638//638
f 613//613 638//638 639//639
f 613//613 639//639 614//614
f 614//614 616//616 615//615
f 614//614 639//639 640//640
f 614//614 640//640 641//641
f 614//614 641//641 642//642
f 614//614 642//642 643//643
f 614//614 643//643 644//644
f 614//614 644//644 616//616
f 616//616 644//644 645//645
f 616//616 645//645 619//619
f 616//616 619//619 618//618
f 616//616 618//618 617//617
f 619//619 645//645 620//620
f 620//620 645//645 621//621
f 621//621 646//646 647//647
f 621//621 647//647 622//622
f 621//621 645//645 646//646
f 622//622 647//647 648//648
f 622//622 648//648 649//649
f 622//622 649//649 650//650
f 622//622 650//650 651//651
f 622//622 651//651 623//623
f 623//623 651//651 652//652
f 623//623 652//652 624//624
f 624//624 652//652 625//625
f 625//625 652//652 653//653
f 625//625 653//653 654//654
f 625//625 654//654 627//627
f 626//626 627//627 655//655
f 626//626 655//655 629//629
f 627//627 654//654 655//655
f 629//629 655//655 656//656
f 630//630 657//657 658//658
f 630//630 631//631 659//659
f 630//630 659//659 657//657
f 631//631 660//660 659//659
f 631//631 661//661 662//662
f 631//631 662//662 660//660
f 632//632 636//636 633//633
f 632//632 635//635 636//636
f 635//635 663//663 664//664
f 635//635 664//664 665//665
f 635//635 665//665 636//636
f 636//636 665//665 666//666
f 636//636 666//666 637//637
f 637//637 666//666 638//638
f 638//638 640//640 639//639
f 638//638 666//666 667//667
f 638//638 667//667 668//668
f 638//638 668//668 640//640
f 640//640 668//668 641//641
f 641//641 668//668 643//643
f 641//641 643//643 642//642
f 643//643 668//668 644//644
f 644//644 668//668 669//669
f 644//644 669//669 670//670
f 644//644 670//670 671//671
f 644//644 671//671 646//646
f 644//644 646//646 645//645
f 646//646 671//671 647//647
f 647//647 671//671 672//672
f 647//647 672//672 649//649
f 647//647 649//649 648//648
f 649//649 672//672 673//673
f 649//649 673//673 674//674
f 649//649 674//674 675//675
f 649//649 675//675 676//676
f 649//649 676//676 677//677
f 649//649 677//677 650//650
f 650//650 677//677 678//678
f 650//650 678//678 676//676
f 650//650 676//676 679//679
f 650//650 679//679 651//651
f 651//651 679//679 680//680
f 651//651 680//680 652//652
f 652//652 680//680 654//654
f 652//652 654//654 653//653
f 654//654 681//681 682//682
f 654//654 682//682 655//655
f 654//654 680//680 679//679
f 654//654 679//679 681//681
f 655//655 682//682 656//656
f 656//656 682//682 683//683
f 657//657 684//684 685//685
f 657//657 685//685 663//663
f 657//657 663//663 658//658
f 657//657 659//659 684//684
f 659//659 686//686 687//687
f 659//659 687//687 684//684
f 659//659 660//660 662//662
f 659//659 662//662 686//686
f 661//661 688//688 662//662
f 662//662 689//689 713//713
f 662//662 713//713 686//686
f 662//662 688//688 690//690
f 662//662 690//690 691//691
f 662//662 691//691 689//689
f 663//663 685//685 664//664
f 664//664 692//692 665//665
f 664//664 685//685 687//687
f 664//664 687//687 686//686
f 664//664 686//686 693//693
f 664//664 693//693 694//694
f 664//664 694//694 692//692
f 665//665 692//692 666//666
f 666//666 692//692 694//694
f 666//666 694//694 695//695
f 666//666 695//695 667//667
f 667//667 695//695 696//696
f 667//667 696//696 668//668
f 668//668 697//697 698//698
f 668//668 698//698 670//670
f 668//668 670//670 669//669
f 668//668 696//696 697//697
f 670//670 698//698 699//699
f 670//670 699//699 700//700
f 670//670 700//700 671//671
f 671//671 700//700 701//701
f 671//671 701//701 672//672
f 672//672 701//701 673//673
f 673//673 701//701 702//702
f 673//673 702//702 703//703
f 673//673 703//703 704//704
f 673//673 704//704 705//705
f 673//673 705//705 706//706
f 673//673 706//706 674//674
f 674//674 706//706 675//675
f 675//675 706//706 676//676
f 676//676 678//678 677//677
f 676//676 706//706 707//707
f 676//676 707//707 679//679
f 679//679 707//707 708//708
f 679//679 708//708 681//681
f 681//681 709//709 682//682
f 681//681 708//708 710//710
f 681//681 710//710 711//711
f 681//681 711//711 712//712
f 681//681 712//712 709//709
f 682//682 709//709 683//683
f 684//684 687//687 685//685
f 686//686 713//713 693//693
f 689//689 691//691 714//714
f 689//689 714//714 715//715
f 689//689 715//715 716//716
f 689//689 716//716 717//717
f 689//689 717//717 718//718
f 689//689 718//718 719//719
f 689//689 719//719 720//720
f 689//689 720//720 721//721
f 689//689 721//721 722//722
f 689//689 722//722 723//723
f 689//689 723//723 724//724
f 689//689 724//724 739//739
f 689//689 739//739 713//713
f 693//693 725//725 695//695
f 693//693 695//695 694//694
f 693//693 713//713 726//726
f 693//693 726//726 725//725
f 695//695 725//725 697//697
f 695//695 697//697 696//696
f 697//697 725//725 698//698
f 698//698 725//725 727//727
f 698//698 727//727 699//699
f 699//699 727//727 726//726
f 699//699 726//726 700//700
f 700//700 726//726 728//728
f 700//700 728//728 729//729
f 700//700 729//729 701//701
f 701//701 729//729 702//702
f 702//702 729//729 730//730
f 702//702 730//730 731//731
f 702//702 731//731 732//732
f 702//702 732//732 703//703
f 703//703 733//733 734//734
f 703//703 734//734 704//704
f 703//703 732//732 733//733
f 704//704 734//734 710//710
f 704//704 710//710 705//705
f 705//705 710//710 706//706
f 706//706 710//710 708//708
f 706//706 708//708 707//707
f 709//709 712//712 735//735
f 710//710 734//734 711//711
f 711//711 734//734 736//736
f 711//711 736//736 712//712
f 712//712 736//736 737//737
f 712//712 737//737 738//738
f 712//712 738//738 735//735
f 713//713 739//739 731//731
f 713//713 731//731 730//730
f 713//713 730//730 740//740
f 713//713 740//740 728//728
f 713//713 728//728 726//726
f 723//723 741//741 724//724
f 724//724 741//741 742//742
f 724//724 742//742 732//732
f 724//724 732//732 739//739
f 725//725 726//726 727//727
f 728//728 740//740 729//729
f 729//729 740//740 730//730
f 731//731 739//739 732//732
f 732//732 743//743 733//733
f 732//732 742//742 743//743
f 733//733 743//743 734//734
f 734//734 743//743 736//736
f 736//736 743//743 737//737
f 737//737 744//744 738//738
f 737//737 743//743 745//745
f 737//737 745//745 746//746
f 737//737 746//746 744//744
f 741//741 745//745 742//742
f 742//742 745//745 743//743

