# https://github.com/mikedh/trimesh
v 0.39747400 0.65852200 -0.07132430
v 0.45062900 0.65852200 0.08544180
v 0.47779900 0.65852200 -0.07132430
v 0.46009400 0.17910900 -0.07132430
v 0.50312100 0.17910900 0.08392590
v 0.45728100 0.65852200 0.09152140
v 0.50364300 0.17910900 0.08480610
v 0.51065700 0.17910900 0.09142360
v 0.52727600 0.65852200 0.07256540
v 0.48292400 0.65209300 -0.06697240
v 0.48338600 0.64838600 -0.07132430
v 0.52848200 0.17910900 -0.07132430
v 0.46001400 0.65031000 0.09251560
v 0.46529900 0.65561300 0.09515610
v 0.46529900 0.65852200 0.09515610
v 0.51771100 0.17910900 0.09494420
v 0.52727600 0.65852200 0.08314360
v 0.53226000 0.64857400 0.07753660
v 0.54988500 0.61333100 0.07401600
v 0.57808000 0.55692400 0.07049540
v 0.54634800 0.62037000 0.07049540
v 0.53577700 0.64148800 0.07049540
v 0.49395700 0.62726800 -0.07132430
v 0.52962800 0.18159600 -0.07132430
v 0.57896400 0.18506900 0.06873500
v 0.57599000 0.17910900 0.07401600
v 0.51815300 0.17910900 0.09515610
v 0.50758200 0.65852200 0.09515610
v 0.52583000 0.65852200 0.08747920
v 0.53226000 0.64857400 0.08811480
v 0.54988500 0.61333100 0.08459420
v 0.57808000 0.55692400 0.08105730
v 0.58159700 0.54988500 0.07401600
v 0.53754600 0.53927900 -0.07132430
v 0.53623900 0.54265800 -0.07132430
v 0.52566900 0.56382200 -0.07132430
v 0.53471200 0.19304600 -0.07132430
v 0.57599000 0.17910900 0.08459420
v 0.53666100 0.19567400 -0.06873270
v 0.58953500 0.21679200 0.06873500
v 0.58159700 0.19037200 0.07401600
v 0.58159700 0.19037200 0.08459420
v 0.56045600 0.17910900 0.09515610
v 0.51757000 0.65852200 0.09458560
v 0.51815300 0.65561300 0.09515610
v 0.52392000 0.65852200 0.09036410
v 0.55517000 0.59746900 0.08987510
v 0.56397200 0.58512700 0.08811480
v 0.58159700 0.54988500 0.08459420
v 0.60275800 0.44411000 0.07401600
v 0.54988500 0.47850800 -0.07132430
v 0.53929400 0.53139500 -0.07132430
v 0.54528300 0.22477000 -0.07132430
v 0.57808000 0.18685200 0.09163550
v 0.57536700 0.17910900 0.08703910
v 0.54723200 0.22739700 -0.06873270
v 0.55089000 0.24593400 -0.07132430
v 0.55780300 0.25912100 -0.05815450
v 0.60010600 0.26967900 0.06873500
v 0.60275800 0.27498200 0.07401600
v 0.59216800 0.22209500 0.07401600
v 0.59216800 0.22209500 0.08459420
v 0.57102600 0.17910900 0.09266230
v 0.57102600 0.19037200 0.09515610
v 0.54988500 0.59216600 0.09515610
v 0.57102600 0.54988500 0.09515610
v 0.57454300 0.56396300 0.08811480
v 0.57808000 0.54631800 0.09163550
v 0.60275800 0.44411000 0.08459420
v 0.56045600 0.42566700 -0.07132430
v 0.57158900 0.17910900 0.09245040
v 0.57631200 0.18244100 0.08987510
v 0.58865100 0.21857500 0.09163550
v 0.57191000 0.17910900 0.09207550
v 0.56045600 0.31726400 -0.07132430
v 0.56045600 0.26437600 -0.05285730
v 0.60275800 0.27498200 0.08459420
v 0.58159700 0.22209500 0.09515610
v 0.59216800 0.44411000 0.09515610
v 0.58865100 0.49347800 0.09163550
v 0.59922200 0.44059000 0.09163550
v 0.59922200 0.27146300 0.09163550
v 0.59216800 0.27498200 0.09515610
f 37 56 39
f 37 53 56
f 38 42 54
f 40 56 57
f 40 57 58
f 38 54 55
f 40 58 59
f 42 62 73
f 40 60 61
f 41 61 62
f 41 62 42
f 42 73 54
f 43 63 64
f 33 69 50
f 44 45 65
f 44 65 66
f 40 59 60
f 33 49 69
f 25 61 41
f 33 51 52
f 24 37 25
f 44 66 46
f 25 38 26
f 25 37 39
f 25 39 56
f 25 56 40
f 25 40 61
f 25 41 42
f 25 42 38
f 28 45 44
f 29 46 30
f 30 46 47
f 30 47 48
f 30 48 49
f 30 49 31
f 31 49 32
f 33 50 51
f 33 52 34
f 46 66 47
f 66 81 80
f 48 66 67
f 60 76 75
f 62 77 73
f 63 71 64
f 66 79 81
f 66 80 68
f 66 68 67
f 68 80 69
f 69 80 81
f 69 81 82
f 69 82 77
f 71 74 72
f 73 77 82
f 73 82 83
f 73 83 78
f 79 83 82
f 79 82 81
f 20 23 21
f 60 62 61
f 47 66 48
f 60 77 62
f 58 75 76
f 48 67 49
f 49 67 68
f 49 68 69
f 50 60 75
f 50 75 70
f 50 70 51
f 50 69 77
f 50 77 60
f 53 57 56
f 54 71 72
f 54 72 55
f 54 73 78
f 54 78 64
f 54 64 71
f 55 72 74
f 57 75 58
f 58 76 59
f 59 76 60
f 20 36 23
f 12 25 26
f 20 34 35
f 1 37 24
f 1 24 12
f 1 12 4
f 1 4 5
f 1 5 2
f 2 5 7
f 2 7 8
f 1 53 37
f 2 8 6
f 3 10 11
f 4 12 26
f 4 26 38
f 4 38 55
f 4 55 74
f 4 74 71
f 4 71 63
f 3 9 10
f 1 57 53
f 1 75 57
f 1 70 75
f 1 2 6
f 1 6 15
f 1 15 28
f 1 28 44
f 1 44 46
f 20 35 36
f 1 29 17
f 1 17 9
f 1 9 3
f 1 3 11
f 1 11 23
f 1 23 36
f 1 36 35
f 1 35 34
f 1 34 52
f 1 52 51
f 1 51 70
f 4 63 43
f 4 43 27
f 1 46 29
f 4 16 8
f 14 43 64
f 14 64 78
f 14 78 83
f 14 83 79
f 14 79 66
f 14 66 65
f 14 65 45
f 14 45 28
f 14 28 15
f 17 29 30
f 18 30 31
f 18 31 19
f 19 31 32
f 20 32 49
f 20 49 33
f 20 33 34
f 4 27 16
f 14 27 43
f 13 27 14
f 19 32 20
f 6 8 13
f 4 7 5
f 4 8 7
f 6 13 14
f 6 14 15
f 8 16 13
f 9 30 18
f 9 18 19
f 9 17 30
f 9 20 21
f 9 21 22
f 9 22 10
f 10 22 11
f 11 22 21
f 11 21 23
f 12 24 25
f 9 19 20
f 13 16 27