o convex_0
v -0.0951724 -0.253859 8.285e-06
v -0.0951724 -0.253859 0.105739
v -0.0937232 -0.233074 0.0738408
v -0.0916323 -0.246762 8.285e-06
v -0.0898726 -0.245893 -0.00528321
v -0.0916323 -0.25031 -0.00704704
v -0.0704953 -0.937603 -0.00704704
v -0.0740147 -0.94108 8.285e-06
v -0.0916323 -0.253859 0.112794
v -0.0925225 -0.248572 0.11103
v -0.0740147 -0.94108 0.0845977
v -0.0704953 -0.94108 0.0916406
v -0.0881129 -0.246762 0.112794
v -0.0845935 -0.233074 0.0829829
v -0.0847592 -0.233074 0.0105789
v -0.0845935 -0.246762 -0.00704704
v -0.0824198 -0.233074 0.00218202
v -0.0740147 -0.233074 -0.000178037
v -0.0845935 -0.253859 -0.0105747
v -0.0634358 -0.94108 -0.0105747
v -0.0616762 -0.949915 -0.00881087
v -0.0669552 -0.955202 -0.00351938
v -0.0704953 -0.948177 0.00353595
v -0.0898726 -0.259146 0.113676
v -0.0845935 -0.253859 0.116322
v -0.0704953 -0.948177 0.0881129
v -0.0687149 -0.946367 0.0925225
v 0.070487 -0.246762 0.112794
v -0.0421125 -0.233074 0.0953422
v -0.0427129 -0.233074 0.0951683
v 0.0740064 -0.246762 -0.00704704
v 0.0634276 -0.233074 -0.000178037
v 0.0740064 -0.253859 -0.0105747
v -0.0422988 -0.962227 -0.0105747
v -0.0510973 -0.960489 -0.00881087
v -0.0563971 -0.965776 -0.00351938
v -0.0669552 -0.955202 0.08107
v -0.0740147 -0.28558 0.116322
v 0.0740064 -0.253859 0.116322
v -0.0634358 -0.94108 0.0951683
v -0.0422988 -0.845916 0.105739
v -0.0563971 -0.965776 0.08107
v -0.0493376 -0.969325 0.0881129
v -0.0581568 -0.95694 0.0925225
v 0.0793062 -0.248572 0.11103
v 0.0761181 -0.233074 0.0923486
v 0.0748759 -0.233074 0.0927337
v 0.0636139 -0.233074 0.0953422
v 0.0793062 -0.248572 -0.00792896
v 0.0701351 -0.233074 0.00317573
v 0.105743 -0.94108 -0.0105747
v 0.0845853 -0.962227 -0.0105747
v -0.0387588 -0.969325 -0.00704704
v -0.0422988 -0.972873 8.285e-06
v 0.0740064 -0.296154 0.116322
v 0.0810659 -0.257335 0.112794
v -0.0422988 -0.962227 0.0951683
v 0.0845853 -0.962227 0.0951683
v 0.0740064 -0.7719 0.105739
v -0.0422988 -0.972873 0.0845977
v -0.0422988 -0.969325 0.0916406
v -0.0475779 -0.967514 0.0925225
v 0.0845853 -0.253859 0.105739
v 0.0838814 -0.233074 0.0845977
v 0.0706527 -0.233074 0.00343658
v 0.0810659 -0.246762 -0.00351938
v 0.0810659 -0.253859 -0.00704704
v 0.111022 -0.935793 -0.00792896
v 0.112782 -0.94108 -0.00704704
v 0.107068 -0.951653 -0.00792896
v 0.0964891 -0.962227 -0.00792896
v 0.0881047 -0.969325 -0.00704704
v 0.0845853 -0.972873 8.285e-06
v 0.0810659 -0.29963 0.112794
v 0.105743 -0.94108 0.0951683
v 0.112782 -0.944628 0.0916406
v 0.116322 -0.94108 0.0845977
v 0.0845853 -0.969325 0.0916406
v 0.0951641 -0.963603 0.0925225
v 0.0845853 -0.972873 0.0845977
v 0.0838814 -0.233074 0.0740147
v 0.0740064 -0.233074 0.0101689
v 0.0845853 -0.253859 8.285e-06
v 0.0741927 -0.233074 0.0107652
v 0.116322 -0.94108 8.285e-06
v 0.113672 -0.946367 -0.00528321
v 0.109262 -0.955202 8.285e-06
v 0.0986835 -0.965776 8.285e-06
v 0.0925142 -0.967514 -0.00528321
v 0.0916447 -0.969325 8.285e-06
v 0.105743 -0.95303 0.0925225
v 0.111022 -0.949046 0.0898768
v 0.112782 -0.948177 0.0845977
v 0.0898643 -0.970194 0.0898768
v 0.0986835 -0.965776 0.0845977
v 0.0916447 -0.969325 0.0845977
v 0.112782 -0.948177 8.285e-06
v 0.109262 -0.955202 0.0845977
f 1 2 3
f 1 3 4
f 1 4 5
f 1 5 6
f 1 6 7
f 1 7 8
f 1 8 11
f 1 11 2
f 2 9 10
f 2 10 3
f 2 11 12
f 2 12 9
f 3 10 13
f 3 13 14
f 3 14 30
f 3 30 29
f 3 29 48
f 3 48 47
f 3 47 46
f 3 46 64
f 3 64 81
f 3 81 84
f 3 84 82
f 3 82 65
f 3 65 50
f 3 50 32
f 3 32 18
f 3 18 17
f 3 17 15
f 3 15 4
f 4 15 5
f 5 16 6
f 5 15 17
f 5 17 18
f 5 18 16
f 6 16 19
f 6 19 7
f 7 20 21
f 7 21 22
f 7 22 8
f 7 19 20
f 8 22 23
f 8 23 26
f 8 26 11
f 9 24 25
f 9 25 13
f 9 13 10
f 9 12 24
f 11 26 12
f 12 26 27
f 12 27 24
f 13 28 48
f 13 48 29
f 13 29 30
f 13 30 14
f 13 25 39
f 13 39 28
f 16 18 32
f 16 32 31
f 16 31 33
f 16 33 19
f 19 33 51
f 19 51 52
f 19 52 34
f 19 34 20
f 20 34 21
f 21 34 35
f 21 35 36
f 21 36 22
f 22 36 42
f 22 42 37
f 22 37 26
f 22 26 23
f 24 27 40
f 24 40 25
f 25 38 55
f 25 55 39
f 25 40 41
f 25 41 38
f 26 37 42
f 26 42 43
f 26 43 62
f 26 62 44
f 26 44 27
f 27 44 40
f 28 39 45
f 28 45 46
f 28 46 47
f 28 47 48
f 31 49 33
f 31 32 49
f 32 50 49
f 33 49 51
f 34 52 72
f 34 72 53
f 34 53 35
f 35 53 36
f 36 53 54
f 36 54 60
f 36 60 42
f 38 41 55
f 39 56 45
f 39 55 74
f 39 74 56
f 40 44 57
f 40 57 41
f 41 57 58
f 41 58 59
f 41 59 55
f 42 60 43
f 43 60 61
f 43 61 62
f 44 62 57
f 45 56 63
f 45 63 64
f 45 64 46
f 49 50 65
f 49 65 66
f 49 66 67
f 49 67 69
f 49 69 68
f 49 68 51
f 51 68 69
f 51 69 70
f 51 70 71
f 51 71 52
f 52 71 72
f 53 72 73
f 53 73 54
f 54 73 80
f 54 80 60
f 55 59 75
f 55 75 74
f 56 74 76
f 56 76 77
f 56 77 63
f 57 62 61
f 57 61 78
f 57 78 58
f 58 78 79
f 58 79 91
f 58 91 75
f 58 75 59
f 60 80 78
f 60 78 61
f 63 77 64
f 64 77 85
f 64 85 81
f 65 82 66
f 66 83 67
f 66 82 84
f 66 84 81
f 66 81 83
f 67 83 85
f 67 85 69
f 69 85 86
f 69 86 70
f 70 86 87
f 70 87 88
f 70 88 71
f 71 88 89
f 71 89 72
f 72 89 88
f 72 88 90
f 72 90 73
f 73 90 96
f 73 96 80
f 74 75 76
f 75 91 76
f 76 91 92
f 76 92 77
f 77 92 93
f 77 93 97
f 77 97 85
f 78 80 94
f 78 94 79
f 79 94 95
f 79 95 98
f 79 98 91
f 80 96 94
f 81 85 83
f 85 97 86
f 86 97 87
f 87 97 93
f 87 93 98
f 87 98 95
f 87 95 88
f 88 95 96
f 88 96 90
f 91 98 92
f 92 98 93
f 94 96 95
o convex_1
v 0.329102 -0.0845972 -0.103101
v 0.362135 -0.0581485 -0.100458
v 0.325128 -0.0898795 -0.100458
v 0.331321 -0.0880939 -0.0951709
v 0.309282 -0.100444 -0.100458
v 0.31016 -0.10926 -0.0740243
v 0.298701 -0.111009 -0.0898886
v 0.297411 -0.11365 -0.084602
v 0.256481 -0.132175 -0.0898886
v 0.191705 -0.166547 -0.084602
v 0.190363 -0.169188 -0.0740243
v 0.162698 -0.177112 -0.0713149
v 0.190363 -0.169188 -0.0713149
v 0.311966 -0.108368 -0.0713149
v 0.321928 -0.101746 -0.0713149
v 0.423866 -0.0114633 -0.0713149
v 0.352483 -0.0775293 -0.0713149
v 0.352483 -0.0775293 -0.0740243
v 0.373593 -0.0563629 -0.084602
v 0.420304 -0.00528822 -0.100458
v 0.372716 -0.0369821 -0.111031
v 0.41504 0.00527639 -0.111031
v 0.48379 0.0898677 -0.100458
v 0.478473 0.100432 -0.111031
v 0.477183 0.105715 -0.113674
v 0.413698 0.0105587 -0.113674
v 0.412407 0.0211233 -0.116322
v 0.371426 -0.0316997 -0.113674
v 0.309282 -0.0898795 -0.111031
v 0.30794 -0.0845972 -0.113674
v 0.299579 -0.0916279 -0.112793
v 0.203576 -0.14274 -0.111031
v 0.2459 -0.132175 -0.100458
v 0.320741 -0.0916279 -0.10222
v 0.192995 -0.163906 -0.0898886
v 0.182415 -0.163906 -0.100458
v 0.172763 -0.165655 -0.10222
v 0.181124 -0.166547 -0.0951709
v 0.149381 -0.177112 -0.084602
v 0.13751 -0.179753 -0.084602
v 0.150775 -0.179753 -0.0713149
v 0.0450176 -0.200882 -0.0713149
v 0.0105909 -0.200882 -0.0713149
v 0.0317527 -0.200882 -0.084602
v 0.0352625 -0.197386 -0.0916508
v 0.169201 -0.169188 -0.0951709
v 0.0670052 -0.186784 -0.10222
v 0.028243 -0.193852 -0.0986953
v -0.0634536 -0.190326 -0.0951709
v -0.0599519 -0.186808 -0.10222
v -0.109289 -0.18329 -0.0986953
v -0.105788 -0.190326 -0.084602
v 0.0105909 -0.200882 -0.0740243
v -0.116345 -0.190326 -0.0740243
v -0.121624 -0.18503 -0.0898886
v -0.142791 -0.174475 -0.100458
v -0.119899 -0.172697 -0.109269
v -0.0458406 -0.18329 -0.109269
v 0.0493532 -0.183287 -0.109269
v 0.0529146 -0.169188 -0.116322
v -0.0423389 -0.169179 -0.116322
v -0.116345 -0.158586 -0.116322
v -0.243242 -0.116291 -0.116322
v -0.246744 -0.130402 -0.109269
v -0.259131 -0.121587 -0.111031
v -0.259131 -0.13218 -0.100458
v -0.354251 -0.0581445 -0.111031
v -0.322527 -0.0898845 -0.100458
v -0.257354 -0.140994 -0.0775487
v -0.248521 -0.142735 -0.0898886
v -0.237964 -0.142735 -0.100458
v -0.243242 -0.148031 -0.0740243
v -0.243242 -0.148031 -0.0713149
v -0.116345 -0.190326 -0.0713149
v -0.382003 -0.0542187 -0.0713149
v -0.352474 -0.0775144 -0.0713149
v -0.257354 -0.140994 -0.0713149
v -0.352474 -0.0775144 -0.0775487
v -0.354251 -0.0686998 -0.100458
v -0.373589 -0.0563668 -0.0986953
v -0.396533 -0.0158493 -0.111031
v -0.391254 -3.4847e-05 -0.116322
v -0.449424 0.0475566 -0.111031
v -0.4177 -0.00529398 -0.100458
v -0.415923 -0.0140715 -0.0881264
v -0.447647 0.0281867 -0.0986953
v -0.437038 0.00703905 -0.0775487
v -0.437038 0.00703905 -0.0713149
v -0.446759 0.0184832 -0.0713149
v -0.470016 0.0480751 -0.0713149
v -0.522908 0.153813 -0.0713149
v -0.479372 0.0704819 -0.0881264
v -0.468762 0.0493343 -0.0881264
v -0.470539 0.0581489 -0.100458
v -0.491706 0.100444 -0.100458
v -0.512873 0.174479 -0.111031
v -0.507583 0.19037 -0.116317
v -0.52168 0.186883 -0.109268
v -0.519876 0.177998 -0.107506
v -0.521653 0.165665 -0.0986953
v -0.528701 0.179835 -0.0951697
v -0.52343 0.163887 -0.0898886
v -0.531427 0.171887 -0.0713149
v -0.534021 0.185066 -0.0793145
v -0.539287 0.211513 -0.0845981
v -0.539287 0.200978 -0.0740265
v -0.56046 0.306689 -0.0740265
v -0.558869 0.29768 -0.0713406
v -0.537696 0.191969 -0.0713406
v -0.56046 0.306689 -0.0713406
v -0.56046 0.317297 -0.0845981
v -0.534021 0.216816 -0.100458
v -0.532211 0.229167 -0.109268
v -0.542797 0.282059 -0.109268
v -0.544553 0.269708 -0.100458
v -0.553384 0.313737 -0.0986966
v -0.553384 0.377236 -0.0986966
v -0.56046 0.380723 -0.0845981
v -0.56046 0.404554 -0.0713406
v -0.56046 0.401866 -0.0740265
v -0.549873 0.465293 -0.0951697
v -0.55651 0.436304 -0.0713406
v -0.549873 0.486507 -0.0740265
v -0.549873 0.486507 -0.0713406
v -0.54916 0.489486 -0.0713406
v -0.517456 0.58459 -0.0713406
v -0.518114 0.581539 -0.0740265
v -0.515481 0.582919 -0.0845981
v -0.54724 0.487815 -0.0845981
v -0.54724 0.477208 -0.0951697
v -0.546308 0.468853 -0.102219
v -0.556894 0.384283 -0.0916517
v -0.542797 0.451198 -0.109268
v -0.535776 0.458245 -0.112795
v -0.493486 0.585099 -0.112795
v -0.528701 0.454758 -0.116317
v -0.48641 0.581539 -0.116317
v -0.465237 0.623896 -0.116317
v -0.472313 0.627383 -0.112795
v -0.470558 0.637119 -0.111034
v -0.491676 0.594762 -0.111034
v -0.502262 0.605369 -0.100458
v -0.504017 0.595706 -0.102219
v -0.544553 0.478516 -0.100458
v -0.504895 0.604062 -0.0951697
v -0.505608 0.614306 -0.0713406
v -0.503579 0.617938 -0.0713406
v -0.489921 0.637991 -0.0845981
v -0.494364 0.625204 -0.0951697
v -0.491676 0.626512 -0.100458
v -0.426512 0.733167 -0.0845981
v -0.499849 0.623751 -0.0713406
v -0.436386 0.718927 -0.0713406
v -0.426512 0.733167 -0.0713406
v -0.394753 0.764845 -0.0740265
v -0.415926 0.743702 -0.0845981
v -0.407095 0.74283 -0.100458
v -0.373635 0.775452 -0.0951697
v -0.322514 0.816865 -0.100458
v -0.37007 0.773272 -0.1031
v -0.322514 0.806257 -0.111034
v -0.306662 0.817737 -0.109268
v -0.216815 0.869757 -0.100458
v -0.306662 0.82878 -0.0951697
v -0.317193 0.82878 -0.0845981
v -0.322514 0.822169 -0.0898861
v -0.33129 0.817737 -0.0845981
v -0.320759 0.828344 -0.0740265
v -0.311928 0.832703 -0.0793145
v -0.185111 0.896203 -0.0793145
v -0.311928 0.83372 -0.0713406
v -0.17979 0.898818 -0.0713406
v -0.320759 0.828344 -0.0713406
v -0.394753 0.764845 -0.0713406
v -0.0740366 0.919961 -0.0713406
v -0.0740366 0.919961 -0.0740265
v -0.17979 0.898818 -0.0740265
v -0.169204 0.898818 -0.0845981
v -0.0634502 0.919961 -0.0845981
v -0.0608173 0.920978 -0.0713406
v -0.0488597 0.921268 -0.0713406
v -0.0423324 0.919961 -0.0951697
v -0.0211597 0.921268 -0.0713406
v 0.0979019 0.92 -0.0713406
v 0.0952132 0.92 -0.0740265
v 0.0634981 0.92 -0.0845981
v 0.116338 0.909412 -0.0951697
v 0.126928 0.906728 -0.0964906
v 0.116338 0.905858 -0.102219
v 0.0634981 0.912893 -0.0986966
v 0.105748 0.902304 -0.109268
v 0.121661 0.904117 -0.1031
v 0.132196 0.904117 -0.0978159
v 0.229152 0.874166 -0.0881249
v 0.222074 0.877647 -0.0845981
v 0.126928 0.909412 -0.0845981
v 0.105748 0.917316 -0.0753474
v 0.105748 0.918187 -0.0713406
v 0.513571 0.129597 -0.0713149
v 0.507584 0.116316 -0.0713149
v 0.507584 0.116316 -0.0740243
v 0.5049 0.111034 -0.0793109
v 0.500513 0.102218 -0.0740243
v 0.492409 0.0873009 -0.0713149
v 0.490396 0.0845854 -0.0740243
v 0.490242 0.0836926 -0.0713149
v 0.500513 0.102218 -0.0713149
v 0.427014 -0.00789217 -0.0713149
v 0.447969 0.0202305 -0.0713149
v 0.448073 0.0211233 -0.0740243
v 0.490396 0.09515 -0.0951709
v 0.500926 0.105715 -0.084602
v 0.515481 0.142728 -0.0898886
v 0.518113 0.14801 -0.084602
v 0.54987 0.243219 -0.0845981
v 0.547236 0.237997 -0.0898861
v 0.547236 0.259101 -0.100458
v 0.54323 0.232703 -0.0951697
v 0.522087 0.169177 -0.0951709
v 0.511507 0.137446 -0.0951709
v 0.500513 0.137446 -0.109269
v 0.5049 0.132163 -0.100458
v 0.426911 -5.91385e-06 -0.0951709
v -0.489929 0.0916295 -0.0881264
v 0.489932 0.116316 -0.109269
v 0.487712 0.126881 -0.113674
v 0.486422 0.137446 -0.116322
v 0.475841 0.116316 -0.116322
v -0.444093 0.0634451 -0.116322
v -0.031746 0.898818 -0.116317
v 0.105748 0.888235 -0.116317
v 0.232664 0.845954 -0.116317
v 0.253844 0.835366 -0.116317
v 0.348934 0.771909 -0.116317
v 0.354202 0.777203 -0.113676
v 0.364792 0.766615 -0.113676
v 0.364792 0.777203 -0.108388
v 0.269701 0.84066 -0.108388
v 0.259111 0.84066 -0.113676
v 0.237931 0.851248 -0.113676
v 0.253844 0.849435 -0.109268
v 0.269701 0.851248 -0.0978159
v 0.232664 0.860024 -0.109268
v 0.248521 0.861837 -0.0978159
v 0.116338 0.898823 -0.109708
v 0.111071 0.893529 -0.113676
v -0.031746 0.912913 -0.109268
v -0.0106282 0.916473 -0.102219
v -0.0106282 0.919961 -0.0951697
v -0.0475981 0.917345 -0.100458
v -0.153352 0.896203 -0.100458
v -0.174524 0.896203 -0.0898861
v -0.17979 0.892207 -0.0951697
v -0.17979 0.881163 -0.109268
v -0.1375 0.891771 -0.109268
v -0.1375 0.884724 -0.112795
v -0.1375 0.877676 -0.116317
v -0.17979 0.867069 -0.116317
v -0.306662 0.803642 -0.116317
v -0.25384 0.836699 -0.113676
v -0.190377 0.868376 -0.113676
v -0.317193 0.804949 -0.113676
v -0.40885 0.72256 -0.112795
v -0.401829 0.719073 -0.116317
v -0.422947 0.699238 -0.113676
v -0.465237 0.635739 -0.113676
v -0.428268 0.700546 -0.111034
v -0.428268 0.721688 -0.100458
v -0.528701 0.285547 -0.116317
v -0.518114 0.232655 -0.116317
v -0.338363 -0.0528484 -0.116322
v 0.190363 -0.137457 -0.116322
v 0.158672 -0.148022 -0.116322
v 0.162182 -0.15509 -0.112793
v 0.0564243 -0.176219 -0.112793
v 0.155111 -0.162121 -0.109269
v 0.193873 -0.144488 -0.112793
v 0.296069 -0.0845972 -0.116322
v 0.359503 -0.0316997 -0.116322
v -0.185111 0.885595 -0.100458
v -0.190377 0.892207 -0.0845981
v -0.0687708 0.917345 -0.0898861
v -0.0264803 0.904122 -0.113676
v 0.271457 0.852989 -0.0881249
v 0.236066 0.874601 -0.0713406
v 0.232664 0.875906 -0.0713406
v 0.257191 0.864012 -0.0713406
v 0.263556 0.860241 -0.0713406
v 0.330498 0.818178 -0.0713406
v 0.324242 0.821297 -0.0775489
v 0.354202 0.798379 -0.0872443
v 0.356012 0.80012 -0.0775489
v 0.362816 0.796566 -0.0713406
v 0.373626 0.786051 -0.0713406
v 0.40578 0.753415 -0.0713406
v 0.46921 0.679442 -0.0713406
v 0.475849 0.666171 -0.0713406
v 0.536207 0.542737 -0.0713406
v 0.537524 0.539329 -0.0713406
v 0.53928 0.531424 -0.0713406
v 0.56046 0.425686 -0.0713406
v 0.56046 0.317264 -0.0713406
v 0.550857 0.245902 -0.0713406
v 0.56046 0.317264 -0.0740265
v 0.545261 0.224798 -0.0713406
v 0.54987 0.264395 -0.0951697
v 0.56046 0.349029 -0.0845981
v 0.557771 0.343735 -0.0898861
v 0.553381 0.349029 -0.0986966
v 0.56046 0.412414 -0.0845981
v 0.53928 0.518225 -0.0845981
v 0.536646 0.52874 -0.0859234
v 0.536646 0.539329 -0.0753474
v 0.523422 0.555139 -0.0978159
v 0.526056 0.549844 -0.0964906
v 0.536646 0.507636 -0.0964906
v 0.521666 0.539329 -0.109268
v 0.535768 0.497048 -0.102219
v 0.546358 0.444179 -0.102219
v 0.547236 0.454767 -0.0964906
v 0.54987 0.444179 -0.0951697
v 0.553381 0.412414 -0.0986966
v 0.542791 0.433591 -0.109268
v 0.534012 0.438885 -0.113676
v 0.542791 0.274984 -0.109268
v 0.52869 0.274984 -0.116317
v 0.532256 0.232703 -0.109268
v 0.518155 0.232703 -0.116317
v 0.52869 0.433591 -0.116317
v 0.507565 0.539329 -0.116317
v 0.454669 0.644994 -0.116317
v 0.459992 0.650288 -0.113676
v 0.512832 0.544623 -0.113676
v 0.468771 0.644994 -0.109268
v 0.459992 0.682053 -0.0978159
v 0.438812 0.682053 -0.113676
v 0.433544 0.676759 -0.116317
v 0.359524 0.76132 -0.116317
v 0.438812 0.692641 -0.108388
v 0.417687 0.724334 -0.1031
v 0.385972 0.766615 -0.0978159
v 0.384161 0.775462 -0.0810757
v 0.373626 0.786051 -0.0810757
v 0.364792 0.787791 -0.0978159
v 0.366548 0.789532 -0.0881249
v 0.458236 0.690828 -0.0810757
v 0.461748 0.683794 -0.0881249
v 0.470527 0.671465 -0.0872443
v 0.472283 0.673205 -0.0775489
f 100 101 99
f 102 101 100
f 102 103 101
f 104 103 102
f 104 105 103
f 106 105 104
f 106 107 105
f 106 108 107
f 106 104 108
f 109 108 104
f 109 110 108
f 109 111 110
f 109 112 111
f 109 104 112
f 112 104 113
f 112 113 111
f 113 114 111
f 115 114 113
f 116 114 115
f 116 117 114
f 116 102 117
f 116 113 102
f 116 115 113
f 104 102 113
f 102 100 117
f 100 118 117
f 119 118 100
f 120 118 119
f 120 121 118
f 120 122 121
f 120 123 122
f 124 123 120
f 124 125 123
f 124 126 125
f 124 120 126
f 120 119 126
f 127 126 119
f 127 128 126
f 127 129 128
f 127 130 129
f 127 131 130
f 127 103 131
f 127 132 103
f 127 99 132
f 127 119 99
f 119 100 99
f 132 99 101
f 132 101 103
f 103 107 131
f 105 107 103
f 133 131 107
f 134 131 133
f 134 130 131
f 134 135 130
f 134 136 135
f 134 108 136
f 134 133 108
f 108 133 107
f 108 110 136
f 137 136 110
f 137 138 136
f 137 110 138
f 139 138 110
f 139 140 138
f 139 110 140
f 110 111 140
f 140 111 141
f 142 140 141
f 142 138 140
f 143 138 142
f 143 144 138
f 143 135 144
f 143 145 135
f 143 146 145
f 143 142 146
f 147 146 142
f 147 148 146
f 147 149 148
f 147 150 149
f 147 142 150
f 150 142 151
f 150 151 152
f 150 152 153
f 149 150 153
f 149 153 154
f 149 154 155
f 149 155 156
f 149 156 148
f 156 146 148
f 156 157 146
f 156 158 157
f 156 159 158
f 156 155 159
f 160 159 155
f 160 161 159
f 160 155 161
f 162 161 155
f 162 163 161
f 164 163 162
f 164 165 163
f 164 166 165
f 164 167 166
f 164 168 167
f 164 169 168
f 164 162 169
f 169 162 154
f 169 154 168
f 153 168 154
f 153 152 168
f 170 168 152
f 170 167 168
f 170 171 167
f 170 152 171
f 152 172 171
f 152 141 172
f 151 141 152
f 151 142 141
f 172 141 171
f 171 141 173
f 174 171 173
f 175 171 174
f 175 167 171
f 175 174 167
f 167 174 176
f 166 167 176
f 166 176 177
f 165 166 177
f 165 177 178
f 179 165 178
f 179 180 165
f 179 181 180
f 179 182 181
f 179 178 182
f 183 182 178
f 183 184 182
f 183 185 184
f 183 173 185
f 183 178 173
f 176 173 178
f 176 174 173
f 177 176 178
f 186 185 173
f 187 185 186
f 187 188 185
f 187 186 188
f 186 173 188
f 188 173 189
f 190 188 189
f 191 188 190
f 191 185 188
f 184 185 191
f 184 191 192
f 184 192 181
f 184 181 182
f 181 192 193
f 194 181 193
f 194 195 181
f 194 196 195
f 194 197 196
f 194 193 197
f 197 193 198
f 197 198 196
f 198 199 196
f 198 200 199
f 198 193 200
f 201 200 193
f 201 199 200
f 202 199 201
f 202 203 199
f 204 203 202
f 204 205 203
f 204 206 205
f 204 207 206
f 204 202 207
f 202 201 207
f 206 207 201
f 206 201 208
f 206 208 205
f 205 208 209
f 203 205 209
f 210 203 209
f 210 199 203
f 210 211 199
f 210 212 211
f 210 213 212
f 210 209 213
f 213 209 212
f 214 212 209
f 214 215 212
f 214 209 215
f 209 216 215
f 209 208 216
f 217 216 208
f 218 216 217
f 218 219 216
f 220 219 218
f 220 221 219
f 220 222 221
f 220 201 222
f 220 217 201
f 220 218 217
f 217 208 201
f 222 201 223
f 222 223 221
f 221 223 224
f 221 224 225
f 221 225 226
f 221 226 227
f 221 227 228
f 221 228 219
f 219 228 229
f 219 229 230
f 219 230 216
f 230 215 216
f 230 229 215
f 231 215 229
f 231 212 215
f 231 232 212
f 231 229 232
f 233 232 229
f 233 234 232
f 233 235 234
f 233 236 235
f 233 237 236
f 233 238 237
f 239 238 233
f 239 240 238
f 239 233 240
f 233 241 240
f 233 229 241
f 240 241 229
f 242 240 229
f 242 228 240
f 242 229 228
f 228 243 240
f 228 227 243
f 226 243 227
f 226 244 243
f 226 224 244
f 226 225 224
f 244 224 201
f 244 201 245
f 246 244 245
f 246 247 244
f 246 248 247
f 246 249 248
f 250 249 246
f 250 251 249
f 250 201 251
f 250 245 201
f 250 246 245
f 251 201 252
f 251 252 249
f 249 252 253
f 254 249 253
f 254 255 249
f 256 255 254
f 257 255 256
f 257 258 255
f 257 259 258
f 257 260 259
f 257 261 260
f 257 262 261
f 257 263 262
f 257 264 263
f 257 265 264
f 257 256 265
f 256 254 265
f 254 253 265
f 265 253 266
f 263 265 266
f 264 265 263
f 267 263 266
f 267 268 263
f 269 268 267
f 269 270 268
f 269 201 270
f 269 271 201
f 269 266 271
f 269 267 266
f 271 266 272
f 271 272 201
f 272 252 201
f 272 253 252
f 272 266 253
f 273 270 201
f 274 270 273
f 275 270 274
f 275 268 270
f 275 276 268
f 275 277 276
f 275 274 277
f 274 278 277
f 274 273 278
f 278 273 201
f 279 278 201
f 279 280 278
f 279 281 280
f 279 201 281
f 282 281 201
f 283 281 282
f 283 284 281
f 283 285 284
f 286 285 283
f 287 285 286
f 287 284 285
f 287 288 284
f 287 289 288
f 287 290 289
f 287 286 290
f 286 291 290
f 286 292 291
f 286 293 292
f 286 294 293
f 286 295 294
f 286 283 295
f 283 282 295
f 282 296 295
f 282 297 296
f 282 201 297
f 297 201 298
f 299 297 298
f 299 300 297
f 301 300 299
f 302 300 301
f 302 303 300
f 302 304 303
f 302 305 304
f 302 301 305
f 301 299 305
f 305 299 298
f 305 298 304
f 304 298 306
f 307 304 306
f 303 304 307
f 303 307 308
f 303 308 309
f 303 309 310
f 303 310 300
f 311 300 310
f 311 297 300
f 312 297 311
f 312 313 297
f 312 311 313
f 314 313 311
f 314 315 313
f 314 316 315
f 314 317 316
f 314 311 317
f 318 317 311
f 318 319 317
f 318 320 319
f 318 121 320
f 318 309 121
f 318 310 309
f 318 311 310
f 309 321 121
f 308 321 309
f 308 306 321
f 307 306 308
f 321 306 114
f 321 114 118
f 321 118 121
f 114 117 118
f 114 306 111
f 111 306 141
f 306 173 141
f 189 173 306
f 298 189 306
f 201 189 298
f 201 193 189
f 322 189 193
f 322 190 189
f 322 193 190
f 190 193 192
f 191 190 192
f 319 320 121
f 323 319 121
f 323 123 319
f 323 122 123
f 323 121 122
f 324 319 123
f 324 325 319
f 324 123 325
f 326 325 123
f 326 125 325
f 326 123 125
f 325 125 327
f 325 327 328
f 325 328 329
f 325 329 330
f 331 325 330
f 331 332 325
f 333 332 331
f 333 334 332
f 333 335 334
f 333 336 335
f 333 337 336
f 333 331 337
f 331 330 337
f 338 337 330
f 339 337 338
f 339 336 337
f 339 340 336
f 341 340 339
f 341 342 340
f 341 291 342
f 341 290 291
f 341 343 290
f 341 338 343
f 341 339 338
f 343 338 344
f 289 343 344
f 289 290 343
f 289 344 345
f 289 345 346
f 289 346 288
f 346 284 288
f 347 284 346
f 347 281 284
f 347 280 281
f 347 348 280
f 347 346 348
f 346 345 348
f 349 348 345
f 349 350 348
f 349 351 350
f 349 352 351
f 353 352 349
f 353 354 352
f 353 345 354
f 353 349 345
f 354 345 328
f 355 354 328
f 355 356 354
f 355 327 356
f 355 328 327
f 357 356 327
f 358 356 357
f 359 356 358
f 359 352 356
f 359 358 352
f 358 260 352
f 360 260 358
f 360 259 260
f 360 361 259
f 360 362 361
f 360 357 362
f 360 358 357
f 357 327 362
f 236 362 327
f 236 363 362
f 364 363 236
f 364 238 363
f 364 237 238
f 364 236 237
f 238 365 363
f 238 366 365
f 238 248 366
f 238 240 248
f 240 247 248
f 240 243 247
f 244 247 243
f 249 366 248
f 249 255 366
f 361 366 255
f 361 365 366
f 361 363 365
f 361 362 363
f 259 361 255
f 258 259 255
f 236 327 235
f 235 327 234
f 327 367 234
f 368 367 327
f 368 212 367
f 368 211 212
f 368 195 211
f 368 327 195
f 181 195 327
f 180 181 327
f 180 327 369
f 165 180 369
f 165 369 163
f 163 369 161
f 161 369 159
f 370 159 369
f 158 159 370
f 371 158 370
f 372 158 371
f 373 158 372
f 373 157 158
f 373 372 157
f 374 157 372
f 374 135 157
f 374 372 135
f 372 375 135
f 372 370 375
f 372 371 370
f 375 370 129
f 375 129 130
f 375 130 135
f 376 129 370
f 376 128 129
f 376 126 128
f 377 126 376
f 377 125 126
f 377 376 125
f 376 370 125
f 125 370 327
f 327 370 369
f 157 135 145
f 157 145 146
f 211 195 196
f 211 196 199
f 232 367 212
f 232 234 367
f 261 352 260
f 378 352 261
f 378 351 352
f 378 261 351
f 261 262 351
f 262 379 351
f 263 379 262
f 263 268 379
f 268 350 379
f 268 276 350
f 276 277 350
f 380 350 277
f 380 348 350
f 380 280 348
f 380 277 280
f 278 280 277
f 379 350 351
f 352 354 356
f 381 328 345
f 381 329 328
f 381 344 329
f 381 345 344
f 329 344 330
f 338 330 344
f 291 292 342
f 292 340 342
f 292 382 340
f 292 383 382
f 292 293 383
f 384 383 293
f 297 383 384
f 385 383 297
f 385 382 383
f 385 386 382
f 385 297 386
f 387 386 297
f 388 386 387
f 388 382 386
f 388 340 382
f 388 389 340
f 388 390 389
f 388 387 390
f 387 391 390
f 387 297 391
f 297 392 391
f 297 393 392
f 297 394 393
f 297 395 394
f 297 396 395
f 297 397 396
f 297 398 397
f 297 399 398
f 297 400 399
f 401 400 297
f 401 402 400
f 401 313 402
f 401 403 313
f 401 297 403
f 297 313 403
f 404 402 313
f 404 405 402
f 404 315 405
f 404 313 315
f 405 315 406
f 405 406 407
f 405 407 408
f 405 408 402
f 408 399 402
f 408 409 399
f 410 409 408
f 411 409 410
f 411 398 409
f 411 397 398
f 411 396 397
f 411 412 396
f 411 413 412
f 411 410 413
f 414 413 410
f 414 415 413
f 414 416 415
f 414 417 416
f 418 417 414
f 419 417 418
f 419 408 417
f 419 418 408
f 418 410 408
f 418 414 410
f 417 408 420
f 421 417 420
f 421 415 417
f 421 422 415
f 423 422 421
f 423 424 422
f 423 425 424
f 423 315 425
f 423 407 315
f 423 421 407
f 421 420 407
f 407 420 408
f 407 406 315
f 316 425 315
f 317 425 316
f 317 319 425
f 425 319 325
f 426 425 325
f 426 424 425
f 426 325 424
f 427 424 325
f 427 422 424
f 427 428 422
f 427 325 428
f 429 428 325
f 430 428 429
f 430 431 428
f 430 415 431
f 430 432 415
f 430 433 432
f 430 434 433
f 430 435 434
f 430 429 435
f 429 325 435
f 436 435 325
f 436 334 435
f 436 332 334
f 436 325 332
f 334 434 435
f 334 335 434
f 437 434 335
f 437 433 434
f 437 438 433
f 437 335 438
f 439 438 335
f 439 433 438
f 439 440 433
f 439 441 440
f 439 442 441
f 439 335 442
f 340 442 335
f 389 442 340
f 389 390 442
f 443 442 390
f 443 441 442
f 443 390 441
f 390 391 441
f 392 441 391
f 392 440 441
f 392 393 440
f 444 440 393
f 444 433 440
f 445 433 444
f 445 446 433
f 445 447 446
f 445 394 447
f 445 444 394
f 444 393 394
f 395 447 394
f 396 447 395
f 396 412 447
f 446 447 412
f 446 412 433
f 412 415 433
f 413 415 412
f 432 433 415
f 336 340 335
f 431 415 422
f 431 422 428
f 417 415 416
f 398 399 409
f 400 402 399
f 297 384 296
f 294 296 384
f 294 295 296
f 294 384 293
f 224 223 201
f 162 155 154
f 144 135 136
f 144 136 138
o convex_2
v -0.337458 -0.00981582 -0.0713149
v -0.337458 -0.0861262 -0.0713149
v -0.337458 -0.0507128 0.0656104
v 0.00119714 -0.169187 0.0634406
v 0.00119714 -0.13231 -0.0713149
v -0.337458 -0.137925 0.0735554
v -0.320751 -0.0987099 -0.0713149
v -0.320751 -0.151557 0.0704883
v -0.337458 -0.0594077 0.0886298
v -0.334839 -0.0599321 0.0881077
v 0.00119714 -0.175763 0.0780092
v 0.00119714 -0.199248 -0.0713149
v -0.337458 -0.137925 0.084127
v -0.289027 -0.119857 -0.0713149
v -0.320751 -0.151557 0.08106
v -0.289027 -0.172705 0.0704883
v -0.337458 -0.0625318 0.0907017
v 0.00119714 -0.183278 0.0916316
v 0.00119714 -0.233001 -0.000168573
v -0.0740522 -0.233001 -0.000168573
v -0.116351 -0.190335 -0.0713149
v -0.31369 -0.155074 0.0881077
v -0.337458 -0.137466 0.0851712
v -0.257303 -0.140983 -0.0713149
v -0.289027 -0.172705 0.08106
v -0.281966 -0.176244 0.0881077
v -0.281966 -0.176244 0.0775361
v -0.25107 -0.144107 -0.0713149
v -0.243214 -0.14804 -0.0713149
v -0.267877 -0.183278 0.0704883
v -0.274938 -0.179761 0.0740122
v -0.337458 -0.0742198 0.094976
v 0.00119714 -0.190335 0.0951718
v 0.00119714 -0.233001 0.0854811
v -0.082439 -0.233001 0.00218068
v -0.148075 -0.179761 -0.0713149
v -0.337458 -0.134254 0.091599
v -0.311933 -0.153327 0.0925125
v -0.274938 -0.179761 0.0845838
v -0.260816 -0.186817 0.0881077
v -0.280209 -0.174474 0.0925125
v -0.253789 -0.190335 0.0740122
v -0.337458 -0.0846188 0.0951718
v -0.317237 -0.0846188 0.0951718
v 0.000169513 -0.233001 0.0953512
v 0.00119714 -0.232958 0.0953186
v -0.0847926 -0.233001 0.0105825
v -0.126926 -0.23263 0.0740122
v -0.15865 -0.222056 0.0740122
v -0.337458 -0.126892 0.0951718
v -0.306662 -0.14804 0.0951718
v -0.253789 -0.190335 0.0845838
v -0.259059 -0.185048 0.0925125
v -0.165677 -0.218539 0.0881077
v -0.274938 -0.169187 0.0951718
v -0.0421292 -0.233001 0.0953512
v -0.093743 -0.233001 0.0738328
v -0.126926 -0.23263 0.0845838
v -0.15865 -0.222056 0.0845838
v -0.253789 -0.179761 0.0951718
v -0.16392 -0.216769 0.0925125
v -0.133953 -0.229113 0.0881077
v -0.15865 -0.211482 0.0951718
v -0.126926 -0.222056 0.0951718
v -0.132196 -0.227343 0.0925125
v -0.126926 -0.229113 0.0916316
v -0.0846269 -0.233001 0.082985
f 448 449 453
f 448 453 460
f 448 460 470
f 448 470 484
f 448 484 497
f 448 497 490
f 448 490 479
f 448 479 464
f 448 464 456
f 448 456 450
f 448 450 451
f 448 451 452
f 448 452 459
f 448 459 468
f 448 468 483
f 448 483 476
f 448 476 475
f 448 475 471
f 448 471 461
f 448 461 454
f 448 454 449
f 449 454 455
f 449 455 453
f 450 456 457
f 450 457 451
f 451 458 465
f 451 465 480
f 451 480 493
f 451 493 481
f 451 481 466
f 451 466 459
f 451 459 452
f 451 457 458
f 453 455 462
f 453 462 460
f 454 461 463
f 454 463 455
f 455 463 472
f 455 472 462
f 456 464 465
f 456 465 457
f 457 465 458
f 459 466 467
f 459 467 468
f 460 462 469
f 460 469 470
f 461 471 463
f 462 472 473
f 462 473 469
f 463 474 473
f 463 473 472
f 463 471 475
f 463 475 476
f 463 476 477
f 463 477 489
f 463 489 478
f 463 478 474
f 464 479 480
f 464 480 465
f 466 481 492
f 466 492 503
f 466 503 514
f 466 514 504
f 466 504 494
f 466 494 482
f 466 482 467
f 467 482 468
f 468 482 483
f 469 484 470
f 469 473 485
f 469 485 484
f 473 474 478
f 473 478 486
f 473 486 499
f 473 499 487
f 473 487 500
f 473 500 488
f 473 488 485
f 476 489 477
f 476 483 482
f 476 482 489
f 478 489 499
f 478 499 486
f 479 490 491
f 479 491 480
f 480 492 493
f 480 491 492
f 481 493 492
f 482 494 495
f 482 495 496
f 482 496 489
f 484 485 497
f 485 488 502
f 485 502 498
f 485 498 497
f 487 499 506
f 487 506 501
f 487 501 508
f 487 508 500
f 488 500 507
f 488 507 502
f 489 496 506
f 489 506 499
f 490 497 503
f 490 503 492
f 490 492 491
f 494 504 495
f 495 505 506
f 495 506 496
f 495 504 505
f 497 498 503
f 498 502 503
f 500 508 510
f 500 510 507
f 501 506 505
f 501 505 509
f 501 509 512
f 501 512 508
f 502 507 503
f 503 510 511
f 503 511 512
f 503 512 513
f 503 513 505
f 503 505 514
f 503 507 510
f 504 514 505
f 505 513 509
f 508 512 511
f 508 511 510
f 509 513 512
o convex_3
v 0.116366 0.962299 0.0845942
v 0.116366 0.962299 0.074016
v 6.52362e-06 0.962299 0.0845942
v 0.112804 0.95876 0.0916355
v 0.121632 0.957006 0.0898751
v 0.216826 0.925278 0.0898751
v 0.243257 0.919985 0.0845942
v 0.105783 0.918231 -0.0713243
v 0.097885 0.919985 -0.0713243
v 6.52362e-06 0.930571 -0.0422954
v 6.52362e-06 0.962299 0.074016
v 0.243257 0.919985 0.074016
v 0.169229 0.897089 -0.0713243
v -9.67236e-05 0.962299 0.0844964
v -9.67236e-05 0.96218 0.0847898
v -9.67236e-05 0.95876 0.0916355
v -9.67236e-05 0.951891 0.0950746
v 0.116366 0.951713 0.0951561
v 0.17625 0.937618 0.0916355
v 0.207998 0.927032 0.0916355
v 0.25735 0.912938 0.0881148
v -4.51145e-05 0.919985 -0.0713243
v -9.67236e-05 0.930541 -0.0423932
v -9.67236e-05 0.930571 -0.0422954
v -9.67236e-05 0.962239 0.0739508
v 0.25735 0.912938 0.0775366
v 0.292558 0.895305 0.0704954
v 0.271392 0.905891 0.0704954
v 0.250278 0.916447 0.0704954
v 0.232674 0.875917 -0.0713243
v -9.67236e-05 0.951624 0.0951561
v 6.52362e-06 0.951713 0.0951561
v 0.179812 0.930571 0.0951561
v 0.243257 0.909399 0.0951561
v 0.239695 0.916447 0.0916355
v 0.260861 0.905891 0.0916355
v 0.290803 0.893551 0.0898751
v 0.299579 0.891796 0.0881148
v -9.67236e-05 0.906129 -0.0713243
v -9.67236e-05 0.919985 -0.0635333
v 0.299579 0.891796 0.0775366
v 0.356003 0.853021 0.0704954
v 0.362198 0.797059 -0.0713243
v 0.330449 0.818171 -0.0713243
v 0.260861 0.863577 -0.0669724
v 0.257196 0.864053 -0.0713243
v 0.23603 0.874609 -0.0713243
v -9.67236e-05 0.930452 0.0951561
v 0.285485 0.888258 0.0951561
v 0.294313 0.886503 0.0933958
v 0.394773 0.828341 0.0881148
v -9.67236e-05 0.863577 -0.0713243
v 0.394773 0.828341 0.0775366
v 0.3877 0.83185 0.0704954
v 0.362818 0.796583 -0.0713243
v 0.263545 0.860217 -0.0713243
v -9.67236e-05 0.919926 0.0951398
v 6.52362e-06 0.919985 0.0951561
v 0.317234 0.867116 0.0951561
v 0.357758 0.84419 0.0933958
v 0.389455 0.823048 0.0933958
v 0.415938 0.807229 0.0881148
v -9.67236e-05 0.863518 -0.0705256
v -4.51145e-05 0.861912 -0.0713243
v 0.415938 0.807229 0.0775366
v 0.373607 0.786057 -0.0713243
v -9.67236e-05 0.909429 0.0911954
v 0.00532374 0.904136 0.0925156
v 0.0105894 0.909399 0.0951561
v 0.380679 0.824802 0.0951561
v 0.410621 0.801936 0.0933958
v 0.431787 0.780794 0.0933958
v 0.44237 0.770208 0.0933958
v 0.447635 0.775501 0.0881148
v -9.67236e-05 0.888258 0.0421999
v 0.387803 0.662804 -0.0713243
v 0.450578 0.658552 0.0854418
v 0.447635 0.775501 0.0775366
v 0.38419 0.775501 -0.0713243
v -9.67236e-05 0.90931 0.0911302
v -9.67236e-05 0.90149 0.0858655
v 0.457237 0.658552 0.0915214
v 0.465239 0.658552 0.0951561
v 0.391262 0.814246 0.0951561
v 0.444125 0.761407 0.0951561
v 0.495232 0.706753 0.0933958
v 0.500498 0.712046 0.0881148
v 0.397405 0.658552 -0.0713243
v 0.500498 0.712046 0.0775366
v 0.50406 0.704999 0.0704954
v 0.451146 0.768454 0.0704954
v 0.405355 0.75433 -0.0704931
v 0.405768 0.753497 -0.0713243
v 0.50757 0.658552 0.0951561
v 0.496987 0.697951 0.0951561
v 0.50406 0.694413 0.0916355
v 0.511081 0.690904 0.0881148
v 0.50757 0.697951 0.0845942
v 0.50406 0.704999 0.0810573
v 0.477732 0.658552 -0.0713243
v 0.52729 0.658552 0.0725654
v 0.525174 0.662685 0.0704954
v 0.469214 0.679486 -0.0713243
v 0.468749 0.68008 -0.0713243
v 0.517534 0.658552 0.0945856
v 0.50757 0.67681 0.0951561
v 0.516398 0.664469 0.0933958
v 0.521044 0.658552 0.0922711
v 0.521664 0.669732 0.0881148
v 0.518153 0.67681 0.0845942
v 0.52729 0.658552 0.0831436
v 0.475822 0.666224 -0.0713243
v 0.472311 0.673271 -0.0713243
v 0.523883 0.658552 0.0903641
v 0.523419 0.660931 0.0898751
v 0.525845 0.658552 0.0874792
f 515 516 525
f 515 525 528
f 515 528 517
f 515 517 530
f 515 530 518
f 515 518 519
f 515 519 520
f 515 520 521
f 515 521 526
f 515 526 516
f 516 522 523
f 516 523 524
f 516 524 538
f 516 538 525
f 516 526 527
f 516 527 522
f 517 528 529
f 517 529 530
f 518 530 531
f 518 531 532
f 518 532 547
f 518 547 533
f 518 533 519
f 519 533 520
f 520 533 534
f 520 534 549
f 520 549 535
f 520 535 521
f 521 535 540
f 521 540 526
f 522 527 544
f 522 544 561
f 522 561 560
f 522 560 570
f 522 570 558
f 522 558 557
f 522 557 569
f 522 569 580
f 522 580 593
f 522 593 607
f 522 607 618
f 522 618 617
f 522 617 627
f 522 627 626
f 522 626 614
f 522 614 602
f 522 602 590
f 522 590 578
f 522 578 566
f 522 566 553
f 522 553 536
f 522 536 523
f 523 536 537
f 523 537 524
f 524 537 538
f 525 538 539
f 525 539 528
f 526 540 541
f 526 541 542
f 526 542 543
f 526 543 544
f 526 544 527
f 528 539 538
f 528 538 537
f 528 537 554
f 528 554 553
f 528 553 566
f 528 566 577
f 528 577 589
f 528 589 595
f 528 595 594
f 528 594 581
f 528 581 571
f 528 571 562
f 528 562 545
f 528 545 531
f 528 531 530
f 528 530 529
f 531 545 546
f 531 546 532
f 532 546 545
f 532 545 562
f 532 562 572
f 532 572 583
f 532 583 597
f 532 597 608
f 532 608 620
f 532 620 609
f 532 609 599
f 532 599 598
f 532 598 584
f 532 584 573
f 532 573 563
f 532 563 548
f 532 548 547
f 533 547 534
f 534 547 548
f 534 548 549
f 535 549 548
f 535 548 550
f 535 550 564
f 535 564 551
f 535 551 552
f 535 552 555
f 535 555 540
f 536 553 554
f 536 554 537
f 540 555 541
f 541 555 556
f 541 556 557
f 541 557 558
f 541 558 559
f 541 559 560
f 541 560 542
f 542 560 543
f 543 561 544
f 543 560 561
f 548 563 564
f 548 564 550
f 551 564 552
f 552 564 565
f 552 565 567
f 552 567 555
f 555 567 556
f 556 567 568
f 556 568 557
f 557 568 569
f 558 570 559
f 559 570 560
f 562 571 572
f 563 573 564
f 564 573 584
f 564 584 574
f 564 574 565
f 565 575 585
f 565 585 576
f 565 576 579
f 565 579 567
f 565 574 575
f 566 578 577
f 567 579 593
f 567 593 580
f 567 580 569
f 567 569 568
f 571 581 582
f 571 582 583
f 571 583 572
f 574 584 575
f 575 584 598
f 575 598 585
f 576 585 586
f 576 586 587
f 576 587 588
f 576 588 592
f 576 592 579
f 577 578 589
f 578 590 591
f 578 591 589
f 579 592 593
f 581 594 582
f 582 594 595
f 582 595 596
f 582 596 597
f 582 597 583
f 585 598 586
f 586 598 599
f 586 599 587
f 587 599 609
f 587 609 600
f 587 600 601
f 587 601 588
f 588 601 603
f 588 603 592
f 589 591 595
f 590 602 591
f 591 602 614
f 591 614 615
f 591 615 625
f 591 625 630
f 591 630 628
f 591 628 622
f 591 622 619
f 591 619 608
f 591 608 597
f 591 597 596
f 591 596 595
f 592 603 604
f 592 604 605
f 592 605 606
f 592 606 593
f 593 606 607
f 600 609 620
f 600 620 621
f 600 621 610
f 600 610 601
f 601 610 611
f 601 611 624
f 601 624 612
f 601 612 613
f 601 613 604
f 601 604 603
f 604 613 625
f 604 625 615
f 604 615 616
f 604 616 617
f 604 617 618
f 604 618 605
f 605 618 607
f 605 607 606
f 608 619 620
f 610 621 622
f 610 622 611
f 611 622 623
f 611 623 624
f 612 624 613
f 613 624 625
f 614 626 615
f 615 626 616
f 616 626 627
f 616 627 617
f 619 622 621
f 619 621 620
f 622 628 623
f 623 628 629
f 623 629 630
f 623 630 625
f 623 625 624
f 628 630 629
o convex_4
v 0.397474 0.658522 -0.0713243
v 0.450629 0.658522 0.0854418
v 0.477799 0.658522 -0.0713243
v 0.460094 0.179109 -0.0713243
v 0.503121 0.179109 0.0839259
v 0.457281 0.658522 0.0915214
v 0.503643 0.179109 0.0848061
v 0.510657 0.179109 0.0914236
v 0.527276 0.658522 0.0725654
v 0.482924 0.652093 -0.0669724
v 0.483386 0.648386 -0.0713243
v 0.528482 0.179109 -0.0713243
v 0.460014 0.65031 0.0925156
v 0.465299 0.655613 0.0951561
v 0.465299 0.658522 0.0951561
v 0.517711 0.179109 0.0949442
v 0.527276 0.658522 0.0831436
v 0.53226 0.648574 0.0775366
v 0.549885 0.613331 0.074016
v 0.57808 0.556924 0.0704954
v 0.546348 0.62037 0.0704954
v 0.535777 0.641488 0.0704954
v 0.493957 0.627268 -0.0713243
v 0.529628 0.181596 -0.0713243
v 0.578964 0.185069 0.068735
v 0.57599 0.179109 0.074016
v 0.518153 0.179109 0.0951561
v 0.507582 0.658522 0.0951561
v 0.52583 0.658522 0.0874792
v 0.53226 0.648574 0.0881148
v 0.549885 0.613331 0.0845942
v 0.57808 0.556924 0.0810573
v 0.581597 0.549885 0.074016
v 0.537546 0.539279 -0.0713243
v 0.536239 0.542658 -0.0713243
v 0.525669 0.563822 -0.0713243
v 0.534712 0.193046 -0.0713243
v 0.57599 0.179109 0.0845942
v 0.536661 0.195674 -0.0687327
v 0.589535 0.216792 0.068735
v 0.581597 0.190372 0.074016
v 0.581597 0.190372 0.0845942
v 0.560456 0.179109 0.0951561
v 0.51757 0.658522 0.0945856
v 0.518153 0.655613 0.0951561
v 0.52392 0.658522 0.0903641
v 0.55517 0.597469 0.0898751
v 0.563972 0.585127 0.0881148
v 0.581597 0.549885 0.0845942
v 0.602758 0.44411 0.074016
v 0.549885 0.478508 -0.0713243
v 0.539294 0.531395 -0.0713243
v 0.545283 0.22477 -0.0713243
v 0.57808 0.186852 0.0916355
v 0.575367 0.179109 0.0870391
v 0.547232 0.227397 -0.0687327
v 0.55089 0.245934 -0.0713243
v 0.557803 0.259121 -0.0581545
v 0.600106 0.269679 0.068735
v 0.602758 0.274982 0.074016
v 0.592168 0.222095 0.074016
v 0.592168 0.222095 0.0845942
v 0.571026 0.179109 0.0926623
v 0.571026 0.190372 0.0951561
v 0.549885 0.592166 0.0951561
v 0.571026 0.549885 0.0951561
v 0.574543 0.563963 0.0881148
v 0.57808 0.546318 0.0916355
v 0.602758 0.44411 0.0845942
v 0.560456 0.425667 -0.0713243
v 0.571589 0.179109 0.0924504
v 0.576312 0.182441 0.0898751
v 0.588651 0.218575 0.0916355
v 0.57191 0.179109 0.0920755
v 0.560456 0.317264 -0.0713243
v 0.560456 0.264376 -0.0528573
v 0.602758 0.274982 0.0845942
v 0.581597 0.222095 0.0951561
v 0.592168 0.44411 0.0951561
v 0.588651 0.493478 0.0916355
v 0.599222 0.44059 0.0916355
v 0.599222 0.271463 0.0916355
v 0.592168 0.274982 0.0951561
f 631 632 636
f 631 636 645
f 631 645 658
f 631 658 674
f 631 674 676
f 631 676 659
f 631 659 647
f 631 647 639
f 631 639 633
f 631 633 641
f 631 641 653
f 631 653 666
f 631 666 665
f 631 665 664
f 631 664 682
f 631 682 681
f 631 681 700
f 631 700 705
f 631 705 687
f 631 687 683
f 631 683 667
f 631 667 654
f 631 654 642
f 631 642 634
f 631 634 635
f 631 635 632
f 632 635 637
f 632 637 638
f 632 638 636
f 633 639 640
f 633 640 641
f 634 642 656
f 634 656 668
f 634 668 685
f 634 685 704
f 634 704 701
f 634 701 693
f 634 693 673
f 634 673 657
f 634 657 646
f 634 646 638
f 634 638 637
f 634 637 635
f 636 638 643
f 636 643 644
f 636 644 645
f 638 646 643
f 639 647 660
f 639 660 648
f 639 648 649
f 639 649 650
f 639 650 651
f 639 651 652
f 639 652 640
f 640 652 641
f 641 652 651
f 641 651 653
f 642 654 655
f 642 655 656
f 643 646 657
f 643 657 644
f 644 657 673
f 644 673 694
f 644 694 708
f 644 708 713
f 644 713 709
f 644 709 696
f 644 696 695
f 644 695 675
f 644 675 658
f 644 658 645
f 647 659 660
f 648 660 661
f 648 661 649
f 649 661 662
f 649 662 650
f 650 662 679
f 650 679 663
f 650 663 664
f 650 664 665
f 650 665 666
f 650 666 653
f 650 653 651
f 654 667 655
f 655 668 656
f 655 667 669
f 655 669 686
f 655 686 670
f 655 670 691
f 655 691 671
f 655 671 672
f 655 672 668
f 658 675 674
f 659 676 660
f 660 676 677
f 660 677 678
f 660 678 679
f 660 679 661
f 661 679 662
f 663 680 681
f 663 681 682
f 663 682 664
f 663 679 699
f 663 699 680
f 667 683 686
f 667 686 669
f 668 684 685
f 668 672 684
f 670 686 687
f 670 687 688
f 670 688 689
f 670 689 690
f 670 690 691
f 671 691 692
f 671 692 672
f 672 692 703
f 672 703 684
f 673 693 694
f 674 675 695
f 674 695 696
f 674 696 676
f 676 696 677
f 677 696 678
f 678 696 697
f 678 697 679
f 679 697 698
f 679 698 699
f 680 690 705
f 680 705 700
f 680 700 681
f 680 699 707
f 680 707 690
f 683 687 686
f 684 701 702
f 684 702 685
f 684 703 708
f 684 708 694
f 684 694 701
f 685 702 704
f 687 705 688
f 688 706 689
f 688 705 706
f 689 706 690
f 690 707 692
f 690 692 691
f 690 706 705
f 692 707 703
f 693 701 694
f 696 709 711
f 696 711 710
f 696 710 698
f 696 698 697
f 698 710 699
f 699 710 711
f 699 711 712
f 699 712 707
f 701 704 702
f 703 707 712
f 703 712 713
f 703 713 708
f 709 713 712
f 709 712 711
o convex_5
v -0.507598 0.591292 0.0951561
v -0.497023 0.591292 0.0926134
v -0.549883 0.591292 0.0951561
v -0.507598 0.570998 0.0951561
v -0.496654 0.591292 0.092483
v -0.518835 0.179109 0.0928579
v -0.556933 0.591292 0.0916355
v -0.560458 0.560427 0.0951561
v -0.528733 0.179109 0.0951561
v -0.525423 0.179109 0.0945041
v -0.491728 0.589517 0.0898751
v -0.491728 0.591292 0.0898751
v -0.512878 0.179109 0.0898751
v -0.560458 0.591292 0.0845942
v -0.568386 0.565712 0.0898751
v -0.567508 0.560427 0.0916355
v -0.581608 0.497002 0.0951561
v -0.560458 0.179109 0.0951561
v -0.488911 0.591292 0.0845942
v -0.504612 0.179109 0.0769825
v -0.560458 0.591292 0.074016
v -0.571033 0.560427 0.0845942
v -0.589536 0.502287 0.0898751
v -0.588658 0.497002 0.0916355
v -0.592183 0.454678 0.0951561
v -0.571033 0.179109 0.0949116
v -0.571033 0.179795 0.0951561
v -0.445518 0.591292 -0.0713243
v -0.463697 0.179109 -0.0713243
v -0.515125 0.591292 -0.0682764
v -0.514864 0.58988 -0.0713243
v -0.517496 0.584595 -0.0713243
v -0.571033 0.560427 0.074016
v -0.592183 0.497002 0.0845942
v -0.600111 0.459963 0.0898751
v -0.599233 0.454678 0.0916355
v -0.592183 0.285544 0.0951561
v -0.571695 0.179109 0.0948301
v -0.581608 0.232649 0.0951561
v -0.514048 0.591292 -0.0713243
v -0.53272 0.179109 -0.0713243
v -0.538631 0.521169 -0.0713243
v -0.592183 0.497002 0.074016
v -0.602758 0.454678 0.0845942
v -0.599233 0.285544 0.0916355
v -0.597463 0.280258 0.0925156
v -0.577852 0.179109 0.0917496
v -0.586888 0.227364 0.0925156
v -0.534013 0.179109 -0.0687327
v -0.537722 0.191939 -0.0713243
v -0.549206 0.489416 -0.0713243
v -0.602758 0.454678 0.074016
v -0.602758 0.285544 0.0845942
v -0.588658 0.232649 0.0916355
v -0.578083 0.179109 0.0913095
v -0.578083 0.179795 0.0916355
v -0.536322 0.179109 -0.0641038
v -0.581608 0.179795 0.074016
v -0.592183 0.232649 0.074016
v -0.558873 0.297688 -0.0713243
v -0.549883 0.486431 -0.0713243
v -0.560458 0.433536 -0.0634355
v -0.560458 0.404486 -0.0713243
v -0.602758 0.285544 0.074016
v -0.592183 0.232649 0.0845942
v -0.58127 0.179109 0.0849202
v -0.581608 0.179795 0.0845942
v -0.58127 0.179109 0.074342
v -0.560458 0.306686 -0.0713243
v -0.556502 0.436239 -0.0713243
v -0.556933 0.437087 -0.0704931
f 714 715 718
f 714 718 725
f 714 725 732
f 714 732 741
f 714 741 753
f 714 753 743
f 714 743 734
f 714 734 727
f 714 727 720
f 714 720 716
f 714 716 721
f 714 721 730
f 714 730 738
f 714 738 750
f 714 750 752
f 714 752 740
f 714 740 731
f 714 731 722
f 714 722 717
f 714 717 715
f 715 717 719
f 715 719 718
f 716 720 729
f 716 729 721
f 717 722 723
f 717 723 719
f 718 724 725
f 718 719 726
f 718 726 724
f 719 723 722
f 719 722 731
f 719 731 739
f 719 739 751
f 719 751 760
f 719 760 768
f 719 768 779
f 719 779 781
f 719 781 770
f 719 770 762
f 719 762 754
f 719 754 742
f 719 742 733
f 719 733 726
f 720 727 728
f 720 728 729
f 721 729 737
f 721 737 730
f 724 732 725
f 724 726 733
f 724 733 732
f 727 734 746
f 727 746 735
f 727 735 728
f 728 735 747
f 728 747 736
f 728 736 737
f 728 737 729
f 730 737 749
f 730 749 738
f 731 740 739
f 732 733 741
f 733 742 741
f 734 743 744
f 734 744 745
f 734 745 746
f 735 746 756
f 735 756 747
f 736 747 757
f 736 757 748
f 736 748 749
f 736 749 737
f 738 749 758
f 738 758 750
f 739 740 751
f 740 752 751
f 741 742 754
f 741 754 763
f 741 763 773
f 741 773 782
f 741 782 776
f 741 776 783
f 741 783 774
f 741 774 764
f 741 764 755
f 741 755 745
f 741 745 744
f 741 744 753
f 743 753 744
f 745 755 756
f 745 756 746
f 747 756 765
f 747 765 757
f 748 757 749
f 749 757 766
f 749 766 758
f 750 758 759
f 750 759 751
f 750 751 752
f 751 759 761
f 751 761 760
f 754 762 763
f 755 764 756
f 756 764 765
f 757 765 777
f 757 777 766
f 758 766 778
f 758 778 767
f 758 767 761
f 758 761 759
f 760 761 769
f 760 769 768
f 761 767 769
f 762 770 763
f 763 770 771
f 763 771 772
f 763 772 773
f 764 774 765
f 765 774 775
f 765 775 776
f 765 776 782
f 765 782 777
f 766 777 772
f 766 772 778
f 767 778 780
f 767 780 769
f 768 769 780
f 768 780 779
f 770 781 771
f 771 781 779
f 771 779 780
f 771 780 778
f 771 778 772
f 772 777 773
f 773 777 782
f 774 783 784
f 774 784 775
f 775 784 776
f 776 784 783
o convex_6
v 0.306458 -0.0327645 -0.0713149
v 0.306458 -0.0484055 -0.0182937
v 0.306458 -0.111146 -0.0713149
v 0.00119716 -0.132314 -0.0713149
v 0.00119716 -0.169183 0.0634406
v 0.306458 -0.0758656 0.0648436
v 0.306458 -0.158716 0.0740122
v 0.289037 -0.165655 0.0669645
v 0.303141 -0.112812 -0.0713149
v 0.00119716 -0.19925 -0.0713149
v 0.00119716 -0.175768 0.0780092
v 0.306458 -0.0839213 0.0868189
v 0.306458 -0.0816869 0.0812557
v 0.306458 -0.158716 0.0845838
v 0.257304 -0.183295 0.0740122
v 0.267882 -0.176239 0.0669645
v 0.296089 -0.11634 -0.0713149
v 0.00119716 -0.233001 -0.000168573
v 0.00158562 -0.199328 -0.0713149
v 0.00119716 -0.183295 0.0916316
v 0.306458 -0.0872142 0.09186
v 0.306458 -0.155188 0.0916642
v 0.2908 -0.166537 0.0898696
v 0.269645 -0.177121 0.0898696
v 0.257304 -0.183295 0.0845838
v 0.200919 -0.21148 0.0740122
v 0.229993 -0.195623 0.0687264
v 0.225571 -0.197388 0.0669645
v 0.21329 -0.157716 -0.0713149
v 0.00119716 -0.233001 0.0854811
v 0.0105797 -0.200916 -0.0713149
v 0.0634684 -0.233001 -0.000168573
v 0.00119716 -0.190331 0.0951718
v 0.306458 -0.0947603 0.0949597
v 0.306458 -0.148269 0.0951065
v 0.296089 -0.159931 0.0925125
v 0.274933 -0.170515 0.0925125
v 0.227334 -0.19827 0.0898696
v 0.200919 -0.21148 0.0845838
v 0.190341 -0.169183 -0.0713149
v 0.204415 -0.207952 0.0669645
v 0.169186 -0.222064 0.0740122
v 0.0706696 -0.233001 0.00343687
v 0.0102211 -0.233001 0.0953512
v 0.00119716 -0.232962 0.0953186
v 0.045032 -0.200916 -0.0713149
v 0.0701616 -0.233001 0.00317584
v 0.15078 -0.179767 -0.0713149
v 0.162642 -0.177121 -0.0713149
v 0.306458 -0.0953875 0.0951718
v 0.306458 -0.0951915 0.0951228
v 0.306458 -0.148034 0.0951718
v 0.285511 -0.158618 0.0951718
v 0.200919 -0.200916 0.0951718
v 0.232623 -0.191664 0.0925125
v 0.206178 -0.208834 0.0898696
v 0.174475 -0.219418 0.0898696
v 0.169186 -0.222064 0.0845838
v 0.116327 -0.232629 0.0740122
v 0.0740461 -0.233001 0.0101583
v 0.0636476 -0.233001 0.0953512
v 0.200919 -0.207952 0.0916316
v 0.211467 -0.202229 0.0925125
v 0.169186 -0.21148 0.0951718
v 0.169186 -0.218536 0.0916316
v 0.121616 -0.229983 0.0898696
v 0.116327 -0.232629 0.0845838
v 0.0839067 -0.233001 0.0740122
v 0.0742254 -0.233001 0.010762
v 0.0748828 -0.233001 0.0927409
v 0.116327 -0.229101 0.0916316
v 0.0761377 -0.233001 0.0923494
v 0.0839067 -0.233001 0.0845838
f 785 786 790
f 785 790 797
f 785 797 796
f 785 796 805
f 785 805 818
f 785 818 835
f 785 835 834
f 785 834 836
f 785 836 819
f 785 819 806
f 785 806 798
f 785 798 791
f 785 791 787
f 785 787 793
f 785 793 801
f 785 801 813
f 785 813 824
f 785 824 833
f 785 833 832
f 785 832 830
f 785 830 815
f 785 815 803
f 785 803 794
f 785 794 788
f 785 788 789
f 785 789 786
f 786 789 790
f 787 791 792
f 787 792 793
f 788 794 802
f 788 802 814
f 788 814 829
f 788 829 817
f 788 817 804
f 788 804 795
f 788 795 789
f 789 795 796
f 789 796 797
f 789 797 790
f 791 798 809
f 791 809 799
f 791 799 800
f 791 800 792
f 792 800 801
f 792 801 793
f 794 803 802
f 795 804 796
f 796 804 805
f 798 806 807
f 798 807 808
f 798 808 809
f 799 809 823
f 799 823 810
f 799 810 811
f 799 811 800
f 800 811 812
f 800 812 801
f 801 812 813
f 802 803 815
f 802 815 830
f 802 830 816
f 802 816 831
f 802 831 827
f 802 827 844
f 802 844 853
f 802 853 852
f 802 852 857
f 802 857 856
f 802 856 854
f 802 854 845
f 802 845 828
f 802 828 814
f 804 817 805
f 805 817 818
f 806 819 820
f 806 820 807
f 807 820 821
f 807 821 808
f 808 821 839
f 808 839 822
f 808 822 823
f 808 823 809
f 810 824 825
f 810 825 812
f 810 812 811
f 810 823 842
f 810 842 826
f 810 826 827
f 810 827 824
f 812 825 824
f 812 824 813
f 814 828 829
f 816 830 832
f 816 832 833
f 816 833 831
f 817 829 828
f 817 828 834
f 817 834 835
f 817 835 818
f 819 836 837
f 819 837 820
f 820 837 821
f 821 837 838
f 821 838 839
f 822 839 847
f 822 847 840
f 822 840 823
f 823 840 841
f 823 841 842
f 824 827 833
f 826 842 851
f 826 851 843
f 826 843 827
f 827 843 844
f 827 831 833
f 828 845 834
f 834 845 836
f 836 845 837
f 837 845 838
f 838 846 847
f 838 847 839
f 838 845 848
f 838 848 849
f 838 849 846
f 840 847 846
f 840 846 841
f 841 846 849
f 841 849 855
f 841 855 850
f 841 850 851
f 841 851 842
f 843 851 857
f 843 857 852
f 843 852 853
f 843 853 844
f 845 854 851
f 845 851 850
f 845 850 855
f 845 855 849
f 845 849 848
f 851 854 856
f 851 856 857
o convex_7
v -0.581278 0.179109 0.0743452
v -0.581278 0.179109 0.0849218
v -0.536314 0.179109 -0.0640955
v -0.534023 0.174454 -0.0687237
v -0.574548 0.16564 0.0704829
v -0.57808 0.179109 0.0913101
v -0.574548 0.16564 0.0810594
v -0.567507 0.15155 0.0881159
v -0.57808 0.172716 0.0881159
v -0.576314 0.174454 0.092516
v -0.534023 0.179109 -0.0687237
v -0.531421 0.171878 -0.0713149
v -0.522925 0.153847 -0.0713149
v -0.53271 0.175757 -0.0713149
v -0.567507 0.15155 0.0775393
v -0.512352 0.132682 -0.0713149
v -0.491206 0.0903818 -0.0713149
v -0.521684 0.0599061 0.0704829
v -0.577842 0.179109 0.0917501
v -0.534023 0.0898542 0.092516
v -0.507579 0.0316959 0.0845958
v -0.504046 0.0246511 0.0881159
v -0.560443 0.158595 0.0951724
v -0.571684 0.179109 0.0948302
v -0.53271 0.179109 -0.0713149
v -0.507579 0.0316959 0.0740192
v -0.480633 0.0692474 -0.0713149
v -0.511111 0.0387717 0.0704829
v -0.50228 0.0264201 0.092516
v -0.497006 0.0316959 0.0951724
v -0.504046 0.0246511 0.0775393
v -0.500514 0.0176374 0.0810594
v -0.479368 -0.0140797 0.0810594
v -0.482901 -0.00703491 0.0881159
v -0.560443 0.179109 0.0951724
v -0.571016 0.179109 0.0949116
v -0.463712 0.179109 -0.0713149
v -0.500514 0.0176374 0.0704829
v -0.470037 0.048082 -0.0713149
v -0.481134 -0.00526595 0.092516
v -0.47586 9.87785e-06 0.0951724
v -0.479368 -0.0140797 0.0704829
v -0.458247 -0.0352451 0.0810594
v -0.472328 -0.0176176 0.0881159
v -0.528724 0.179109 0.0951724
v -0.460108 0.17433 -0.0713149
v -0.504595 0.179109 0.0769852
v -0.446814 0.0185063 -0.0713149
v -0.458247 0.028189 -0.0669637
v -0.459989 -0.0264314 0.092516
v -0.465287 -0.0105728 0.0951724
v -0.384236 -0.0563795 -0.0669637
v -0.458247 -0.0352451 0.0704829
v -0.415955 -0.0775449 0.0810594
v -0.43006 -0.0599174 0.0881159
v -0.525407 0.179109 0.0945042
v -0.518151 0.169178 0.0951724
v -0.351682 0.0184443 -0.0713149
v -0.337482 -0.0593898 0.0886374
v -0.337482 -0.0506691 0.0656101
v -0.512853 0.179109 0.089876
v -0.50228 0.174454 0.0792994
v -0.437101 0.00705467 -0.0713149
v -0.417721 -0.0687311 0.092516
v -0.380704 -0.0951723 0.0951724
v -0.382065 -0.0542071 -0.0713149
v -0.364332 -0.0682035 -0.0713149
v -0.352494 -0.0775449 -0.0713149
v -0.384236 -0.109262 0.0704829
v -0.415955 -0.0775449 0.0704829
v -0.384236 -0.109262 0.0810594
v -0.387745 -0.102217 0.0881159
v -0.51882 0.179109 0.0928583
v -0.338413 -0.0740069 0.0951724
v -0.337482 -0.0741932 0.0949768
v -0.34383 0.00516157 -0.0713149
v -0.337482 -0.0624932 0.0907071
v -0.337482 -0.00979696 -0.0713149
v -0.340155 -0.0651932 0.093396
v -0.375406 -0.111031 0.092516
v -0.370131 -0.105724 0.0951724
v -0.337482 -0.0861103 -0.0713149
v -0.352494 -0.130396 0.0704829
v -0.352494 -0.130396 0.0810594
v -0.345453 -0.133934 0.0881159
v -0.377172 -0.112769 0.0881159
v -0.337482 -0.0845896 0.0951724
v -0.343687 -0.132165 0.092516
v -0.338413 -0.126889 0.0951724
v -0.337482 -0.137938 0.0735466
v -0.345453 -0.133934 0.0775393
v -0.337482 -0.137938 0.0841232
v -0.337482 -0.137441 0.0851662
v -0.337482 -0.134245 0.0916034
v -0.337482 -0.126889 0.0951724
f 858 859 863
f 858 863 876
f 858 876 881
f 858 881 893
f 858 893 892
f 858 892 902
f 858 902 913
f 858 913 930
f 858 930 918
f 858 918 904
f 858 904 894
f 858 894 882
f 858 882 868
f 858 868 860
f 858 860 861
f 858 861 862
f 858 862 864
f 858 864 859
f 859 864 865
f 859 865 866
f 859 866 867
f 859 867 863
f 860 868 861
f 861 869 870
f 861 870 862
f 861 868 882
f 861 882 871
f 861 871 869
f 862 872 865
f 862 865 864
f 862 870 873
f 862 873 874
f 862 874 875
f 862 875 872
f 863 867 876
f 865 877 867
f 865 867 866
f 865 872 883
f 865 883 878
f 865 878 879
f 865 879 877
f 867 880 881
f 867 881 876
f 867 877 887
f 867 887 880
f 869 871 882
f 869 882 894
f 869 894 903
f 869 903 915
f 869 915 933
f 869 933 935
f 869 935 939
f 869 939 925
f 869 925 924
f 869 924 923
f 869 923 920
f 869 920 905
f 869 905 896
f 869 896 884
f 869 884 874
f 869 874 873
f 869 873 870
f 872 875 883
f 874 884 885
f 874 885 875
f 875 885 883
f 877 879 886
f 877 886 887
f 878 883 888
f 878 888 879
f 879 888 895
f 879 895 889
f 879 889 890
f 879 890 891
f 879 891 897
f 879 897 886
f 880 892 893
f 880 893 881
f 880 887 898
f 880 898 908
f 880 908 922
f 880 922 938
f 880 938 946
f 880 946 952
f 880 952 944
f 880 944 931
f 880 931 914
f 880 914 902
f 880 902 892
f 883 895 888
f 883 885 895
f 884 896 885
f 885 896 895
f 886 897 898
f 886 898 887
f 889 895 899
f 889 899 890
f 890 899 910
f 890 910 900
f 890 900 891
f 891 900 901
f 891 901 907
f 891 907 897
f 894 904 903
f 895 896 899
f 896 905 906
f 896 906 899
f 897 907 908
f 897 908 898
f 899 906 909
f 899 909 910
f 900 910 927
f 900 927 911
f 900 911 912
f 900 912 901
f 901 912 921
f 901 921 907
f 902 914 913
f 903 904 916
f 903 916 917
f 903 917 915
f 904 918 919
f 904 919 916
f 905 920 906
f 906 920 909
f 907 921 908
f 908 921 922
f 909 923 924
f 909 924 925
f 909 925 926
f 909 926 927
f 909 927 910
f 909 920 923
f 911 927 926
f 911 926 928
f 911 928 912
f 912 928 929
f 912 929 937
f 912 937 921
f 913 914 930
f 914 931 932
f 914 932 930
f 915 917 933
f 916 934 932
f 916 932 944
f 916 944 952
f 916 952 951
f 916 951 950
f 916 950 949
f 916 949 947
f 916 947 939
f 916 939 935
f 916 935 917
f 916 919 918
f 916 918 934
f 917 935 933
f 918 930 936
f 918 936 934
f 921 937 922
f 922 937 938
f 925 939 940
f 925 940 926
f 926 940 941
f 926 941 928
f 928 941 942
f 928 942 943
f 928 943 929
f 929 943 937
f 930 932 936
f 931 944 932
f 932 934 936
f 937 943 942
f 937 942 945
f 937 945 946
f 937 946 938
f 939 947 940
f 940 947 948
f 940 948 942
f 940 942 941
f 942 948 947
f 942 947 949
f 942 949 950
f 942 950 951
f 942 951 945
f 945 951 946
f 946 951 952
o convex_8
v -0.0317291 0.972873 0.0845942
v -0.0317291 0.972873 0.074016
v -0.0423198 0.972873 0.0845942
v -0.03525 0.969337 0.0916355
v -9.67236e-05 0.958765 0.0916355
v -9.67236e-05 0.962185 0.0847898
v -9.67236e-05 0.962282 0.0844964
v -9.67236e-05 0.962263 0.0739508
v -9.67236e-05 0.930549 -0.0423932
v -0.0211663 0.930568 -0.0528573
v -0.0423198 0.972873 0.074016
v -0.0458407 0.969337 0.0916355
v -0.148031 0.951711 0.0845942
v -0.151552 0.948194 0.0916355
v -0.0987104 0.958765 0.0916355
v -0.0317291 0.962282 0.0951561
v -9.67236e-05 0.951906 0.0950746
v -9.67236e-05 0.919997 -0.0713243
v -0.0211663 0.923514 -0.0669724
v -0.0476012 0.92793 -0.0581545
v -0.0423198 0.930568 -0.0528573
v -0.074036 0.919997 -0.0713243
v -0.0476012 0.970216 0.068735
v -0.100471 0.959644 0.068735
v -0.153313 0.949073 0.068735
v -0.148031 0.951711 0.074016
v -0.0423198 0.962282 0.0951561
v -0.190338 0.94114 0.0845942
v -0.148031 0.94114 0.0951561
v -0.193859 0.937622 0.0916355
v -0.0951895 0.951711 0.0951561
v -9.67236e-05 0.951613 0.0951561
v -9.67236e-05 0.861903 -0.0713243
v -0.0211663 0.921326 -0.0713243
v -0.0423198 0.923514 -0.0669724
v -0.0488586 0.921326 -0.0713243
v -0.0607906 0.920993 -0.0713243
v -0.179747 0.898834 -0.0713243
v -0.195619 0.938502 0.068735
v -0.190338 0.94114 0.074016
v -0.19738 0.937622 0.0845942
v -0.190338 0.930568 0.0951561
v -0.211492 0.930568 0.0845942
v -0.267882 0.902371 0.0845942
v -0.28286 0.893558 0.0898751
v -0.278445 0.895317 0.0916355
v -0.211492 0.919997 0.0951561
v -9.67236e-05 0.93047 0.0951561
v -9.67236e-05 0.888283 0.0422977
v -0.285571 0.773267 -0.0713243
v -0.185029 0.896216 -0.0713243
v -0.19738 0.937622 0.074016
v -0.241419 0.868039 -0.0713243
v -0.216773 0.92793 0.068735
v -0.267882 0.902371 0.074016
v -0.285571 0.893519 0.0845942
v -0.285571 0.892777 0.0875607
v -0.285571 0.889963 0.0916681
v -0.285571 0.889338 0.0923852
v -0.285571 0.888263 0.092809
v -0.274924 0.888263 0.0951561
v -0.0105757 0.919997 0.0951561
v -9.67236e-05 0.919919 0.0951398
v -9.67236e-05 0.901492 0.0858655
v -0.285571 0.810257 0.0528107
v -0.285571 0.845958 -0.0713243
v -0.264361 0.856568 -0.0713243
v -0.25908 0.906768 0.068735
v -0.280205 0.896196 0.068735
v -0.285571 0.893519 0.074016
v -0.285571 0.878121 0.0950583
v -0.285515 0.877692 0.0951561
v -0.285571 0.835347 0.0951561
v -9.67236e-05 0.909445 0.0911954
v -9.67236e-05 0.909328 0.0911302
v -0.285571 0.828332 0.0916518
v -0.280205 0.827472 0.0898751
v -0.285571 0.820887 0.0846431
v -0.285515 0.820868 0.0845942
v -0.285571 0.820829 0.084529
v -0.280205 0.816901 0.068735
v -0.285571 0.877633 0.0951561
f 953 954 963
f 953 963 955
f 953 955 964
f 953 964 956
f 953 956 957
f 953 957 958
f 953 958 959
f 953 959 954
f 954 959 960
f 954 960 961
f 954 961 962
f 954 962 973
f 954 973 963
f 955 963 978
f 955 978 965
f 955 965 966
f 955 966 967
f 955 967 964
f 956 968 957
f 956 964 979
f 956 979 968
f 957 969 984
f 957 984 1000
f 957 1000 1015
f 957 1015 1026
f 957 1026 1027
f 957 1027 1016
f 957 1016 1001
f 957 1001 985
f 957 985 970
f 957 970 961
f 957 961 960
f 957 960 959
f 957 959 958
f 957 968 969
f 961 970 962
f 962 970 971
f 962 971 972
f 962 972 973
f 963 973 974
f 963 974 975
f 963 975 976
f 963 976 977
f 963 977 978
f 964 967 983
f 964 983 979
f 965 978 992
f 965 992 980
f 965 980 982
f 965 982 966
f 966 981 983
f 966 983 967
f 966 982 994
f 966 994 981
f 968 984 969
f 968 979 983
f 968 983 981
f 968 981 994
f 968 994 999
f 968 999 1013
f 968 1013 1024
f 968 1024 1034
f 968 1034 1025
f 968 1025 1014
f 968 1014 1000
f 968 1000 984
f 970 985 1002
f 970 1002 1018
f 970 1018 1019
f 970 1019 1005
f 970 1005 1003
f 970 1003 990
f 970 990 974
f 970 974 989
f 970 989 988
f 970 988 986
f 970 986 971
f 971 986 988
f 971 988 987
f 971 987 972
f 972 987 988
f 972 988 989
f 972 989 974
f 972 974 973
f 974 977 976
f 974 976 975
f 974 990 977
f 977 990 991
f 977 991 992
f 977 992 978
f 980 992 991
f 980 991 1004
f 980 1004 993
f 980 993 982
f 982 993 995
f 982 995 996
f 982 996 997
f 982 997 998
f 982 998 999
f 982 999 994
f 985 1001 1002
f 990 1003 991
f 991 1003 1005
f 991 1005 1006
f 991 1006 1004
f 993 1004 1006
f 993 1006 995
f 995 1006 996
f 996 1007 1022
f 996 1022 1008
f 996 1008 997
f 996 1006 1007
f 997 1008 1009
f 997 1009 1010
f 997 1010 1011
f 997 1011 998
f 998 1011 1012
f 998 1012 1013
f 998 1013 999
f 1000 1014 1015
f 1001 1016 1017
f 1001 1017 1002
f 1002 1017 1032
f 1002 1032 1030
f 1002 1030 1028
f 1002 1028 1025
f 1002 1025 1034
f 1002 1034 1023
f 1002 1023 1012
f 1002 1012 1011
f 1002 1011 1010
f 1002 1010 1009
f 1002 1009 1008
f 1002 1008 1022
f 1002 1022 1018
f 1005 1019 1006
f 1006 1019 1020
f 1006 1020 1007
f 1007 1020 1021
f 1007 1021 1022
f 1012 1023 1013
f 1013 1023 1024
f 1014 1025 1015
f 1015 1025 1026
f 1016 1027 1028
f 1016 1028 1029
f 1016 1029 1030
f 1016 1030 1031
f 1016 1031 1032
f 1016 1032 1033
f 1016 1033 1017
f 1017 1033 1032
f 1018 1022 1021
f 1018 1021 1020
f 1018 1020 1019
f 1023 1034 1024
f 1025 1028 1026
f 1026 1028 1027
f 1028 1030 1029
f 1030 1032 1031
o convex_9
v -0.560433 0.591292 0.074016
v -0.560433 0.591292 0.0845942
v -0.560433 0.592209 0.074016
v -0.516008 0.591292 -0.0654077
v -0.557231 0.591292 0.0910487
v -0.560433 0.592209 0.0845942
v -0.515093 0.591292 -0.0682764
v -0.549885 0.623925 0.074016
v -0.556908 0.591292 0.0916355
v -0.556908 0.592209 0.0916355
v -0.557796 0.597476 0.0898751
v -0.549885 0.623925 0.0845942
v -0.514017 0.591292 -0.0713243
v -0.54636 0.627446 0.0669584
v -0.505595 0.614339 -0.0713243
v -0.542835 0.638037 0.074016
v -0.550477 0.591292 0.0948627
v -0.549885 0.592209 0.0951561
v -0.54636 0.623925 0.0916355
v -0.547221 0.629221 0.0898751
v -0.542835 0.638037 0.0845942
v -0.445483 0.591292 -0.0713243
v -0.535785 0.648599 0.0669584
v -0.504707 0.616114 -0.0713243
v -0.53226 0.659161 0.074016
v -0.549885 0.591292 0.0951561
v -0.53931 0.623925 0.0951561
v -0.540629 0.634487 0.0925156
v -0.536646 0.650374 0.0898751
v -0.53226 0.659161 0.0845942
v -0.488885 0.591292 0.0845942
v -0.433617 0.604043 -0.0713243
v -0.534009 0.653007 0.068735
v -0.503577 0.618037 -0.0713243
v -0.511111 0.690906 0.074016
v -0.500536 0.627446 -0.0634355
v -0.499864 0.623836 -0.0713243
v -0.507586 0.591292 0.0951561
v -0.528735 0.645078 0.0951561
v -0.530054 0.65564 0.0925156
v -0.508905 0.687385 0.0925156
v -0.494347 0.713805 0.0898751
v -0.511111 0.690906 0.0845942
v -0.491711 0.591292 0.0898751
v -0.285571 0.810224 0.0528107
v -0.285571 0.820816 0.084529
v -0.285571 0.820875 0.0846431
v -0.285571 0.773242 -0.0713243
v -0.489961 0.722622 0.074016
v -0.458237 0.690906 -0.0634355
v -0.436415 0.719012 -0.0713243
v -0.497011 0.591292 0.0926134
v -0.497011 0.602771 0.0951561
v -0.465287 0.740255 0.0951561
v -0.487755 0.719101 0.0925156
v -0.473198 0.745491 0.0898751
v -0.489961 0.722622 0.0845942
v -0.496635 0.591292 0.092483
v -0.285571 0.828301 0.0916518
v -0.285571 0.835342 0.0951561
v -0.285571 0.845934 -0.0713243
v -0.437088 0.722622 -0.0634355
v -0.468812 0.754308 0.074016
v -0.426513 0.733184 -0.0713243
v -0.41244 0.793094 0.0951561
v -0.413759 0.803656 0.0925156
v -0.456031 0.761378 0.0925156
v -0.466606 0.750787 0.0925156
v -0.468812 0.754308 0.0845942
v -0.285571 0.877619 0.0951561
v -0.306693 0.836407 -0.0713243
v -0.306693 0.839366 -0.0634355
v -0.301392 0.885607 0.068735
v -0.285571 0.893536 0.074016
v -0.458237 0.764899 0.074016
v -0.415965 0.743746 -0.0713243
v -0.401866 0.803656 0.0951561
v -0.350311 0.856525 0.0925156
v -0.409777 0.808952 0.0898751
v -0.415965 0.807177 0.0845942
v -0.437088 0.786053 0.0845942
v -0.458237 0.764899 0.0845942
v -0.285571 0.878122 0.0950583
v -0.296118 0.877679 0.0951561
v -0.31194 0.833774 -0.0713243
v -0.343691 0.864454 0.068735
v -0.322542 0.875046 0.068735
v -0.289069 0.891791 0.074016
v -0.285571 0.893536 0.0845942
v -0.437088 0.786053 0.074016
v -0.394816 0.764899 -0.0713243
v -0.338417 0.856525 0.0951561
v -0.341942 0.863596 0.0916355
v -0.346328 0.861821 0.0898751
v -0.352517 0.860075 0.0845942
v -0.415965 0.807177 0.074016
v -0.285571 0.88827 0.092809
v -0.285571 0.889335 0.0923852
v -0.299643 0.884749 0.0916355
v -0.317268 0.867117 0.0951561
v -0.320793 0.82833 -0.0713243
v -0.352517 0.860075 0.074016
v -0.303168 0.884749 0.074016
v -0.289069 0.891791 0.0845942
v -0.285571 0.892767 0.0875607
v -0.303168 0.884749 0.0845942
v -0.285571 0.889957 0.0916681
f 1035 1036 1040
f 1035 1040 1037
f 1035 1037 1038
f 1035 1038 1041
f 1035 1041 1047
f 1035 1047 1056
f 1035 1056 1065
f 1035 1065 1078
f 1035 1078 1092
f 1035 1092 1086
f 1035 1086 1072
f 1035 1072 1060
f 1035 1060 1051
f 1035 1051 1043
f 1035 1043 1039
f 1035 1039 1036
f 1036 1039 1040
f 1037 1041 1038
f 1037 1040 1046
f 1037 1046 1042
f 1037 1042 1041
f 1039 1043 1044
f 1039 1044 1045
f 1039 1045 1040
f 1040 1045 1046
f 1041 1042 1048
f 1041 1048 1049
f 1041 1049 1047
f 1042 1046 1055
f 1042 1055 1050
f 1042 1050 1048
f 1043 1051 1044
f 1044 1051 1052
f 1044 1052 1053
f 1044 1053 1045
f 1045 1053 1054
f 1045 1054 1046
f 1046 1054 1055
f 1047 1049 1058
f 1047 1058 1068
f 1047 1068 1071
f 1047 1071 1085
f 1047 1085 1098
f 1047 1098 1110
f 1047 1110 1125
f 1047 1125 1135
f 1047 1135 1119
f 1047 1119 1105
f 1047 1105 1095
f 1047 1095 1082
f 1047 1082 1066
f 1047 1066 1056
f 1048 1050 1057
f 1048 1057 1049
f 1049 1057 1058
f 1050 1055 1064
f 1050 1064 1059
f 1050 1059 1057
f 1051 1060 1052
f 1052 1060 1072
f 1052 1072 1087
f 1052 1087 1094
f 1052 1094 1104
f 1052 1104 1118
f 1052 1118 1134
f 1052 1134 1126
f 1052 1126 1111
f 1052 1111 1099
f 1052 1099 1088
f 1052 1088 1073
f 1052 1073 1061
f 1052 1061 1053
f 1053 1061 1062
f 1053 1062 1054
f 1054 1062 1074
f 1054 1074 1063
f 1054 1063 1055
f 1055 1063 1064
f 1056 1066 1065
f 1057 1067 1058
f 1057 1059 1067
f 1058 1067 1068
f 1059 1064 1077
f 1059 1077 1069
f 1059 1069 1070
f 1059 1070 1071
f 1059 1071 1068
f 1059 1068 1067
f 1061 1073 1074
f 1061 1074 1062
f 1063 1074 1075
f 1063 1075 1089
f 1063 1089 1076
f 1063 1076 1091
f 1063 1091 1077
f 1063 1077 1064
f 1065 1066 1079
f 1065 1079 1080
f 1065 1080 1081
f 1065 1081 1078
f 1066 1082 1079
f 1069 1077 1091
f 1069 1091 1083
f 1069 1083 1096
f 1069 1096 1084
f 1069 1084 1070
f 1070 1084 1071
f 1071 1084 1085
f 1072 1086 1087
f 1073 1075 1074
f 1073 1088 1075
f 1075 1088 1089
f 1076 1089 1102
f 1076 1102 1090
f 1076 1090 1103
f 1076 1103 1091
f 1078 1081 1093
f 1078 1093 1094
f 1078 1094 1092
f 1079 1082 1095
f 1079 1095 1108
f 1079 1108 1123
f 1079 1123 1139
f 1079 1139 1141
f 1079 1141 1132
f 1079 1132 1131
f 1079 1131 1117
f 1079 1117 1104
f 1079 1104 1094
f 1079 1094 1093
f 1079 1093 1081
f 1079 1081 1080
f 1083 1091 1103
f 1083 1103 1097
f 1083 1097 1096
f 1084 1096 1085
f 1085 1096 1098
f 1086 1092 1094
f 1086 1094 1087
f 1088 1099 1100
f 1088 1100 1101
f 1088 1101 1102
f 1088 1102 1089
f 1090 1102 1103
f 1095 1105 1106
f 1095 1106 1107
f 1095 1107 1108
f 1096 1097 1098
f 1097 1103 1116
f 1097 1116 1109
f 1097 1109 1098
f 1098 1109 1110
f 1099 1111 1100
f 1100 1111 1126
f 1100 1126 1112
f 1100 1112 1128
f 1100 1128 1113
f 1100 1113 1114
f 1100 1114 1115
f 1100 1115 1101
f 1101 1115 1116
f 1101 1116 1103
f 1101 1103 1102
f 1104 1117 1118
f 1105 1119 1106
f 1106 1119 1120
f 1106 1120 1121
f 1106 1121 1107
f 1107 1121 1137
f 1107 1137 1122
f 1107 1122 1108
f 1108 1122 1138
f 1108 1138 1123
f 1109 1116 1115
f 1109 1115 1124
f 1109 1124 1125
f 1109 1125 1110
f 1112 1126 1127
f 1112 1127 1128
f 1113 1128 1129
f 1113 1129 1114
f 1114 1129 1136
f 1114 1136 1130
f 1114 1130 1124
f 1114 1124 1115
f 1117 1131 1118
f 1118 1131 1132
f 1118 1132 1133
f 1118 1133 1134
f 1119 1135 1120
f 1120 1136 1121
f 1120 1135 1136
f 1121 1136 1137
f 1122 1137 1140
f 1122 1140 1138
f 1123 1138 1133
f 1123 1133 1139
f 1124 1130 1125
f 1125 1130 1135
f 1126 1134 1127
f 1127 1134 1133
f 1127 1133 1129
f 1127 1129 1128
f 1129 1133 1140
f 1129 1140 1137
f 1129 1137 1136
f 1130 1136 1135
f 1132 1141 1133
f 1133 1141 1139
f 1133 1138 1140
o convex_10
v 0.306458 -0.158725 0.0740192
v 0.310204 -0.155088 0.0669628
v 0.313739 -0.155088 0.0740192
v 0.306458 -0.158725 0.0845958
v 0.306458 -0.111139 -0.0713149
v 0.331364 -0.144505 0.0669628
v 0.33577 -0.142753 0.0687228
v 0.313739 -0.155088 0.0845958
v 0.327828 -0.148044 0.0740192
v 0.333105 -0.145398 0.089876
v 0.311972 -0.155947 0.089876
v 0.306458 -0.155187 0.0916523
v 0.311998 -0.108361 -0.0713149
v 0.306458 -0.0327319 -0.0713149
v 0.341917 -0.140967 0.0740192
v 0.327828 -0.148044 0.0845958
v 0.317248 -0.149367 0.092516
v 0.341917 -0.140967 0.0845958
v 0.384236 -0.109254 0.0845958
v 0.375424 -0.113652 0.089876
v 0.338408 -0.138785 0.092516
v 0.306458 -0.148275 0.0951072
v 0.321971 -0.101747 -0.0713149
v 0.331364 -0.0986717 -0.0634436
v 0.306458 -0.0483736 -0.0183017
v 0.460115 0.179109 -0.0713149
v 0.384236 -0.109254 0.0740192
v 0.306669 -0.148044 0.0951724
v 0.461751 -0.0387505 0.0845958
v 0.459983 -0.0396433 0.089876
v 0.380701 -0.107038 0.092516
v 0.327828 -0.137462 0.0951724
v 0.306458 -0.148044 0.0951724
v 0.352497 -0.0775405 -0.0713149
v 0.306458 -0.0758209 0.0648442
v 0.50312 0.179109 0.0839277
v 0.528474 0.179109 -0.0713149
v 0.306458 -0.0816742 0.081255
v 0.462621 -0.0369978 0.0687228
v 0.461751 -0.0387505 0.0740192
v 0.532247 0.0704768 0.0845958
v 0.461751 -0.0352451 0.091636
v 0.534015 0.0766607 0.089876
v 0.370121 -0.105715 0.0951724
v 0.454706 -0.0317067 0.0951724
v 0.306458 -0.0953648 0.0951724
v 0.423917 -0.0114684 -0.0713149
v 0.426529 -0.0140809 -0.0634436
v 0.503648 0.179109 0.0848077
v 0.306458 -0.0838898 0.0868122
v 0.306458 -0.0871967 0.0918642
v 0.575965 0.179109 0.0740192
v 0.526074 0.163897 -0.0687237
v 0.52544 0.166476 -0.0713149
v 0.430935 -0.00528452 -0.0687237
v 0.447979 0.0202448 -0.0713149
v 0.469138 0.0519581 -0.0713149
v 0.490271 0.0836714 -0.0713149
v 0.536653 0.0793063 0.0687228
v 0.532247 0.0704768 0.0740192
v 0.535783 0.0775205 0.0845958
v 0.535783 0.0810589 0.091636
v 0.528712 0.0726925 0.092516
v 0.528712 0.0845973 0.0951724
v 0.306458 -0.0951664 0.0951235
v 0.518159 0.179109 0.0951724
v 0.427056 -0.00786391 -0.0713149
v 0.510666 0.179109 0.0914241
v 0.306458 -0.0947365 0.0949605
v 0.571031 0.158606 0.0740192
v 0.568366 0.153315 0.0687228
v 0.575965 0.179109 0.0845958
v 0.557813 0.121602 0.0687228
v 0.515494 0.132184 -0.0687237
v 0.524148 0.161318 -0.0713149
v 0.492408 0.0872759 -0.0713149
v 0.500534 0.10219 -0.0713149
v 0.547233 0.100437 0.0687228
v 0.535783 0.0775205 0.0740192
v 0.544595 0.0977919 0.089876
v 0.553407 0.112772 0.0845958
v 0.556916 0.123354 0.091636
v 0.549871 0.126893 0.0951724
v 0.539292 0.105728 0.0951724
v 0.560451 0.179109 0.0951724
v 0.511088 0.179109 0.091636
v 0.560451 0.126893 0.0740192
v 0.571031 0.158606 0.0845958
v 0.575358 0.179109 0.0870403
v 0.560451 0.126893 0.0845958
v 0.553407 0.112772 0.0740192
v 0.508476 0.118096 -0.0713149
v 0.513568 0.129604 -0.0713149
v 0.567496 0.155068 0.091636
v 0.560451 0.158606 0.0951724
v 0.571031 0.179109 0.0926627
v 0.571902 0.179109 0.092076
v 0.571585 0.179109 0.0924508
f 1142 1143 1144
f 1142 1144 1149
f 1142 1149 1145
f 1142 1145 1153
f 1142 1153 1163
f 1142 1163 1174
f 1142 1174 1187
f 1142 1187 1206
f 1142 1206 1210
f 1142 1210 1192
f 1142 1192 1191
f 1142 1191 1179
f 1142 1179 1176
f 1142 1176 1166
f 1142 1166 1155
f 1142 1155 1146
f 1142 1146 1143
f 1143 1147 1148
f 1143 1148 1144
f 1143 1146 1147
f 1144 1148 1150
f 1144 1150 1157
f 1144 1157 1149
f 1145 1149 1151
f 1145 1151 1152
f 1145 1152 1153
f 1146 1154 1147
f 1146 1155 1167
f 1146 1167 1178
f 1146 1178 1195
f 1146 1195 1216
f 1146 1216 1234
f 1146 1234 1233
f 1146 1233 1218
f 1146 1218 1217
f 1146 1217 1199
f 1146 1199 1198
f 1146 1198 1197
f 1146 1197 1208
f 1146 1208 1188
f 1146 1188 1175
f 1146 1175 1164
f 1146 1164 1154
f 1147 1154 1148
f 1148 1156 1150
f 1148 1154 1156
f 1149 1157 1151
f 1150 1156 1151
f 1150 1151 1157
f 1151 1158 1152
f 1151 1156 1159
f 1151 1159 1160
f 1151 1160 1161
f 1151 1161 1162
f 1151 1162 1158
f 1152 1158 1153
f 1153 1158 1163
f 1154 1164 1165
f 1154 1165 1156
f 1155 1166 1167
f 1156 1165 1168
f 1156 1168 1160
f 1156 1160 1159
f 1158 1169 1163
f 1158 1162 1173
f 1158 1173 1169
f 1160 1168 1181
f 1160 1181 1170
f 1160 1170 1171
f 1160 1171 1161
f 1161 1171 1172
f 1161 1172 1162
f 1162 1172 1185
f 1162 1185 1173
f 1163 1169 1174
f 1164 1175 1165
f 1165 1175 1168
f 1166 1176 1167
f 1167 1177 1190
f 1167 1190 1209
f 1167 1209 1227
f 1167 1227 1207
f 1167 1207 1226
f 1167 1226 1237
f 1167 1237 1239
f 1167 1239 1238
f 1167 1238 1230
f 1167 1230 1213
f 1167 1213 1193
f 1167 1193 1178
f 1167 1176 1179
f 1167 1179 1177
f 1168 1175 1180
f 1168 1180 1181
f 1169 1173 1185
f 1169 1185 1186
f 1169 1186 1205
f 1169 1205 1225
f 1169 1225 1224
f 1169 1224 1236
f 1169 1236 1226
f 1169 1226 1207
f 1169 1207 1187
f 1169 1187 1174
f 1170 1181 1201
f 1170 1201 1182
f 1170 1182 1171
f 1171 1183 1172
f 1171 1182 1184
f 1171 1184 1203
f 1171 1203 1183
f 1172 1183 1186
f 1172 1186 1185
f 1175 1188 1189
f 1175 1189 1180
f 1177 1179 1191
f 1177 1191 1192
f 1177 1192 1190
f 1178 1193 1194
f 1178 1194 1195
f 1180 1189 1196
f 1180 1196 1197
f 1180 1197 1198
f 1180 1198 1199
f 1180 1199 1200
f 1180 1200 1201
f 1180 1201 1181
f 1182 1201 1220
f 1182 1220 1202
f 1182 1202 1203
f 1182 1203 1184
f 1183 1203 1204
f 1183 1204 1186
f 1186 1204 1205
f 1187 1207 1206
f 1188 1208 1196
f 1188 1196 1189
f 1190 1192 1209
f 1192 1210 1209
f 1193 1211 1212
f 1193 1212 1194
f 1193 1213 1229
f 1193 1229 1211
f 1194 1212 1214
f 1194 1214 1215
f 1194 1215 1234
f 1194 1234 1216
f 1194 1216 1195
f 1196 1208 1197
f 1199 1217 1200
f 1200 1217 1218
f 1200 1218 1219
f 1200 1219 1220
f 1200 1220 1201
f 1202 1221 1203
f 1202 1220 1232
f 1202 1232 1222
f 1202 1222 1221
f 1203 1221 1223
f 1203 1223 1224
f 1203 1224 1225
f 1203 1225 1205
f 1203 1205 1204
f 1206 1207 1210
f 1207 1227 1210
f 1209 1210 1227
f 1211 1228 1214
f 1211 1214 1212
f 1211 1229 1231
f 1211 1231 1228
f 1213 1230 1229
f 1214 1228 1231
f 1214 1231 1222
f 1214 1222 1232
f 1214 1232 1219
f 1214 1219 1218
f 1214 1218 1233
f 1214 1233 1234
f 1214 1234 1215
f 1219 1232 1220
f 1221 1222 1223
f 1222 1231 1223
f 1223 1231 1229
f 1223 1229 1235
f 1223 1235 1236
f 1223 1236 1224
f 1226 1236 1237
f 1229 1230 1235
f 1230 1238 1235
f 1235 1238 1239
f 1235 1239 1236
f 1236 1239 1237
