# https://github.com/mikedh/trimesh
v -0.04617826 0.00501053 0.09463622
v -0.04617826 0.00665540 0.09446459
v -0.05067573 0.00600247 0.09416319
v -0.05160027 0.00501053 0.09409203
v -0.05056523 0.00406881 0.09415064
v -0.04620405 0.00337822 0.09444785
v -0.04617826 0.00340333 0.09445204
v -0.04617826 0.05434398 0.08452685
v -0.05275318 0.00665540 0.09380319
v -0.05275318 0.00501053 0.09397482
v -0.05275318 0.00337822 0.09378226
v -0.05111406 0.00346612 0.09397064
v -0.04947861 0.00297642 0.09403761
v -0.04617826 0.00217282 0.09420087
v -0.04617826 0.00337822 0.09444785
v -0.04617826 0.00135667 0.09403343
v -0.04617826 0.05509735 0.08433847
v -0.04734591 0.05364082 0.08440964
v -0.05368508 0.04034378 0.08597523
v -0.05363352 0.01899818 0.09087294
v -0.05331675 0.01225548 0.09246365
v -0.05385821 0.01116309 0.09258504
v -0.05438862 0.00828771 0.09302877
v -0.05438862 0.00665540 0.09333435
v -0.05438862 0.00501053 0.09350598
v -0.05438862 0.00337822 0.09340133
v -0.05438862 0.00174591 0.09310831
v -0.05399450 -0.00116714 0.09258504
v -0.05343830 -0.00225953 0.09246783
v -0.05275318 0.00010104 0.09308319
v -0.05234800 -0.00266133 0.09255574
v -0.05147134 -0.00375372 0.09243435
v -0.04673078 -0.02184725 0.08918595
v -0.05111406 -0.00153127 0.09294086
v -0.04784317 -0.00971793 0.09158039
v -0.04617826 -0.00480844 0.09276086
v -0.04684865 0.05473322 0.08422126
v -0.05372561 0.04693580 0.08438870
v -0.04617826 0.05601396 0.08379010
v -0.05438862 0.04427388 0.08484080
v -0.05438862 0.04264157 0.08522173
v -0.05402764 0.03936439 0.08608825
v -0.05377717 0.02575343 0.08928223
v -0.05393924 0.01809413 0.09097759
v -0.05515477 0.03847290 0.08592500
v -0.05494850 0.01030926 0.09239249
v -0.05439967 0.00981957 0.09269807
v -0.05501480 0.03170509 0.08751152
v -0.05525791 0.00921687 0.09251807
v -0.05555995 0.00665540 0.09271900
v -0.05538315 0.00828771 0.09259761
v -0.05568519 0.00501053 0.09280272
v -0.05573307 0.00337822 0.09279853
v -0.05561520 0.00174591 0.09268551
v -0.05540525 0.00051540 0.09256830
v -0.05508847 -0.00057699 0.09245947
v -0.05448071 0.00002571 0.09272737
v -0.05542366 -0.00755826 0.09091480
v -0.05488957 -0.00865065 0.09079341
v -0.05309942 -0.02491098 0.08750315
v -0.05275318 -0.03589768 0.08512546
v -0.04947861 -0.02935588 0.08711384
v -0.04782107 -0.02774868 0.08774175
v -0.04617826 -0.03260794 0.08693384
v -0.05668340 -0.02185981 0.08754919
v -0.05602406 -0.02607870 0.08673291
v -0.05602406 -0.03426537 0.08492034
v -0.05438862 -0.02935588 0.08629756
v -0.05438862 -0.03426537 0.08520918
v -0.05347881 -0.03174156 0.08592500
v -0.04617826 -0.02929310 0.08766222
v -0.04617826 -0.02444639 0.08869618
v -0.04617826 -0.02271363 0.08906037
v -0.04617826 -0.01953691 0.08971758
v -0.04629981 -0.01312067 0.09103201
v -0.04617826 -0.00969282 0.09175202
v -0.04637717 0.05592606 0.08369382
v -0.05391714 0.04873134 0.08299893
v -0.05323571 0.04802819 0.08408731
v -0.05481590 0.04623265 0.08397010
v -0.05523581 0.04514026 0.08432591
v -0.05431495 0.04578063 0.08449336
v -0.04617826 0.05641575 0.08347614
v -0.05602406 0.04099670 0.08500406
v -0.05602406 0.03936439 0.08537662
v -0.05602038 0.03784508 0.08572406
v -0.05535000 0.03061269 0.08763710
v -0.05508847 0.01707707 0.09080596
v -0.05540525 0.01598468 0.09093155
v -0.05573676 0.01481695 0.09106550
v -0.05655448 0.01481695 0.09073480
v -0.05680495 0.01390035 0.09083526
v -0.06010530 0.02214979 0.08757431
v -0.05637767 0.00665540 0.09218318
v -0.05620087 0.00828771 0.09208272
v -0.06184020 0.01439004 0.08763710
v -0.06001690 0.01185368 0.08915246
v -0.05712541 0.01155233 0.09102783
v -0.05650659 0.00501053 0.09226272
v -0.05863561 0.00337822 0.09095666
v -0.05765950 0.00337822 0.09159295
v -0.05655079 0.00337822 0.09230877
v -0.06673179 -0.00615196 0.08598779
v -0.05865403 0.00010104 0.09095247
v -0.05765950 0.00010104 0.09149667
v -0.05643292 0.00174591 0.09228783
v -0.05846617 -0.00228464 0.09084364
v -0.05834094 -0.00316358 0.09080178
v -0.06028947 -0.00775916 0.08930735
v -0.05602406 -0.00153127 0.09196969
v -0.06009057 -0.00885155 0.08920688
v -0.05602406 -0.00316358 0.09164318
v -0.05602406 -0.00480844 0.09130829
v -0.05599091 -0.00631519 0.09100690
v -0.05683442 -0.01379871 0.08921107
v -0.05855826 -0.02702042 0.08596686
v -0.05715119 -0.02076742 0.08767059
v -0.05438862 -0.03589768 0.08484499
v -0.05275318 -0.03752999 0.08475708
v -0.04947861 -0.03917486 0.08493708
v -0.04784317 -0.03917486 0.08520499
v -0.04617826 -0.04078205 0.08512127
v -0.05765950 -0.03262050 0.08498731
v -0.05767424 -0.03429048 0.08456452
v -0.05427075 -0.03745466 0.08447243
v -0.04617826 -0.01299511 0.09106968
v -0.05071256 0.05208385 0.08306590
v -0.05500744 0.04810353 0.08247986
v -0.05436652 0.04751338 0.08348451
v -0.05355617 0.06308311 0.07120256
v -0.05515477 0.06140058 0.07114814
v -0.05721013 0.05860054 0.07153326
v -0.05539051 0.04701113 0.08287753
v -0.05565204 0.04578063 0.08344684
v -0.05682337 0.04505236 0.08264730
v -0.06177021 0.03367641 0.08432173
v -0.04617826 0.05709379 0.08292777
v -0.04911027 0.05375383 0.08309939
v -0.05765950 0.03773208 0.08509197
v -0.06093407 0.03282259 0.08488266
v -0.05751585 0.03596165 0.08555244
v -0.05613088 0.02797588 0.08792175
v -0.05522476 0.02384488 0.08921944
v -0.05628190 0.02300362 0.08898920
v -0.05929863 0.02791310 0.08666175
v -0.05876085 0.02432202 0.08769152
v -0.05930231 0.02477404 0.08736919
v -0.06087145 0.02955797 0.08564871
v -0.06139450 0.02791310 0.08579104
v -0.06165234 0.02678304 0.08589570
v -0.06180704 0.02569065 0.08597523
v -0.06244059 0.02625568 0.08549802
v -0.05849564 0.00591458 0.09086038
v -0.06012003 0.01076129 0.08921944
v -0.05794313 0.01155233 0.09051294
v -0.05986956 0.01318464 0.08906037
v -0.06434492 0.01809413 0.08551476
v -0.06371138 0.01644926 0.08615105
v -0.06452910 0.01644926 0.08561941
v -0.06386240 0.01481695 0.08625988
v -0.05905184 0.01318464 0.08957526
v -0.06256951 0.00501053 0.08822734
v -0.06641133 0.00337822 0.08577849
v -0.06256951 0.00174591 0.08842408
v -0.06599510 -0.00310080 0.08639802
v -0.06374452 -0.00153127 0.08781292
v -0.06162656 0.00010104 0.08913572
v -0.05950490 0.00174591 0.09045433
v -0.05868718 0.00174591 0.09098178
v -0.06673547 -0.00480844 0.08599197
v -0.06879082 -0.00644075 0.08466499
v -0.06878345 -0.00807306 0.08463987
v -0.06747584 -0.00807306 0.08541848
v -0.06665443 -0.00724435 0.08594174
v -0.06153447 -0.00316358 0.08909804
v -0.05855826 -0.00119225 0.09089387
v -0.06249584 -0.00971793 0.08798036
v -0.06511108 -0.01594582 0.08599197
v -0.06044418 -0.00644075 0.08939107
v -0.06500794 -0.01703822 0.08593755
v -0.05981063 -0.00971793 0.08911897
v -0.05751953 -0.00631519 0.09053387
v -0.06477957 -0.01789204 0.08586639
v -0.06584039 -0.02116922 0.08487429
v -0.06417917 -0.01957457 0.08573244
v -0.06256951 -0.01625973 0.08691710
v -0.05929863 -0.02935588 0.08525941
v -0.05929863 -0.03098819 0.08492452
v -0.05808678 -0.02811281 0.08585383
v -0.05364825 -0.03840893 0.08434266
v -0.04771425 -0.04236414 0.08446406
v -0.04620405 -0.04243948 0.08474034
v -0.04784317 -0.04080717 0.08484080
v -0.04617826 -0.04243948 0.08474452
v -0.05872770 -0.03376312 0.08442638
v -0.05713646 -0.03529498 0.08440126
v -0.05538315 -0.03685195 0.08437615
v -0.05844407 0.05159416 0.07608771
v -0.05661710 0.04801563 0.08078031
v -0.05873875 0.05688033 0.07145373
v -0.06025264 0.05509735 0.07137000
v -0.04617826 0.05737003 0.08269334
v -0.04718752 0.05998173 0.07955379
v -0.05246587 0.06358536 0.07166722
v -0.05186179 0.06466520 0.07113977
v -0.05291525 0.06406250 0.07062488
v -0.05336463 0.06453964 0.06927697
v -0.05391714 0.06344725 0.07011418
v -0.05453596 0.06243019 0.07062907
v -0.05500744 0.06286966 0.06924348
v -0.05548997 0.06177727 0.07005976
v -0.05864666 0.05837453 0.06987139
v -0.05672760 0.05969293 0.07106023
v -0.05830042 0.05797273 0.07096395
v -0.05696702 0.04692324 0.08117380
v -0.05655816 0.04590619 0.08235009
v -0.05853616 0.04682279 0.07946588
v -0.06354194 0.03227012 0.08291102
v -0.06315886 0.03117772 0.08406638
v -0.06336882 0.03029879 0.08428824
v -0.06196175 0.03282259 0.08442638
v -0.06093407 0.03117772 0.08525941
v -0.06349774 0.05021297 0.07136163
v -0.06516264 0.04701113 0.07139931
v -0.06545732 0.04590619 0.07175094
v -0.06655130 0.04486402 0.07104349
v -0.05929863 0.03445490 0.08517569
v -0.05997638 0.03012300 0.08588732
v -0.06234114 0.03117772 0.08461894
v -0.06272053 0.02967097 0.08474871
v -0.06420495 0.02135875 0.08511290
v -0.06352720 0.01809413 0.08602965
v -0.06340565 0.00592714 0.08759106
v -0.06556782 0.01809413 0.08469429
v -0.06508529 0.02252648 0.08436359
v -0.06573726 0.01644926 0.08480313
v -0.06468012 0.01481695 0.08571151
v -0.06830829 0.00591458 0.08431754
v -0.06632661 0.00501053 0.08572406
v -0.06747584 0.00337822 0.08506685
v -0.06747584 0.00174591 0.08515476
v -0.06747584 0.00010104 0.08524267
v -0.06660655 -0.00153127 0.08590825
v -0.06442964 0.00174591 0.08718501
v -0.06747584 0.00501053 0.08495801
v -0.06668758 -0.00360305 0.08596267
v -0.06755319 -0.00480844 0.08544778
v -0.06872083 -0.00480844 0.08463150
v -0.06960854 -0.00644075 0.08399522
v -0.06960117 -0.00807306 0.08399940
v -0.06867295 -0.00971793 0.08456452
v -0.06835249 -0.01427584 0.08435522
v -0.06747584 -0.00971793 0.08527197
v -0.06256951 -0.00480844 0.08838641
v -0.06273158 -0.00822374 0.08798873
v -0.06420495 -0.01135024 0.08690454
v -0.06604298 -0.01462742 0.08560685
v -0.06572989 -0.01639785 0.08561104
v -0.06703751 -0.01953691 0.08456452
v -0.06686807 -0.02116922 0.08445150
v -0.06673179 -0.02211094 0.08435940
v -0.06181441 -0.02208582 0.08596267
v -0.06420495 -0.02280153 0.08506267
v -0.06420495 -0.02116922 0.08539755
v -0.06256951 -0.02607870 0.08490778
v -0.06256951 -0.02444639 0.08524267
v -0.06293049 -0.02116922 0.08579941
v -0.06054731 -0.03098819 0.08448499
v -0.06021580 -0.03198014 0.08437196
v -0.05928390 -0.03255772 0.08455615
v -0.05822675 -0.03485551 0.08417522
v -0.05720276 -0.03700263 0.08296963
v -0.05543103 -0.03853449 0.08286079
v -0.05418603 -0.03901163 0.08333381
v -0.05275318 -0.04035514 0.08307009
v -0.05275318 -0.03953898 0.08388638
v -0.04708439 -0.04330585 0.08433429
v -0.04620405 -0.04359465 0.08442638
v -0.04617826 -0.04359465 0.08443057
v -0.05981799 -0.03305997 0.08406638
v -0.06015319 0.05332692 0.07289792
v -0.05881242 0.05050177 0.07649376
v -0.05758215 0.04742549 0.08012309
v -0.05990271 0.04967306 0.07588678
v -0.05982904 0.05618974 0.07079233
v -0.06173337 0.05325158 0.07119000
v -0.04617826 0.05767138 0.08242962
v -0.04617826 0.05897722 0.08126171
v -0.04617826 0.05950459 0.08078449
v -0.04617826 0.06038352 0.07996402
v -0.04617826 0.06068487 0.07967100
v -0.04653187 0.06107412 0.07900541
v -0.05008638 0.06290733 0.07432119
v -0.05073098 0.06347236 0.07323699
v -0.05007901 0.06456475 0.07268443
v -0.05077150 0.06509211 0.07159187
v -0.04897030 0.06659886 0.07146628
v -0.04715805 0.06809305 0.07132814
v -0.05006428 0.06618451 0.07095140
v -0.05118773 0.06560692 0.07049930
v -0.05227433 0.06501677 0.07005139
v -0.05372192 0.06486610 0.06818440
v -0.05436284 0.06388671 0.06871603
v -0.05348618 0.06629751 0.06618764
v -0.05486379 0.06437640 0.06712532
v -0.05532421 0.06323379 0.06815091
v -0.06005005 0.05811085 0.06783277
v -0.05978484 0.05778438 0.06876208
v -0.06018265 0.05662921 0.06969976
v -0.05923969 0.05730725 0.07033186
v -0.05673128 0.06297011 0.06611648
v -0.06024895 0.04858066 0.07628027
v -0.06376294 0.03117772 0.08324591
v -0.06679072 0.04377163 0.07139093
v -0.06674284 0.02088161 0.08278962
v -0.06689017 0.01972644 0.08298637
v -0.06497111 0.02361887 0.08425475
v -0.06516633 0.03077593 0.08126589
v -0.06483482 0.02954541 0.08236683
v -0.06496742 0.02850325 0.08257613
v -0.07833826 0.00501053 0.07153326
v -0.07970113 0.00072886 0.07113140
v -0.06195806 0.05032598 0.07309467
v -0.06256951 0.05081567 0.07202722
v -0.06209067 0.05215919 0.07160442
v -0.06318096 0.05129282 0.07087605
v -0.06377768 0.05077801 0.07035697
v -0.06461013 0.04920848 0.07042395
v -0.06488270 0.04810353 0.07098489
v -0.06519211 0.04869367 0.06989650
v -0.06685334 0.04546672 0.06995092
v -0.06827883 0.04669723 0.06628392
v -0.06824199 0.04496447 0.06784533
v -0.06711486 0.04429899 0.07045744
v -0.06785891 0.04262901 0.07034442
v -0.06664338 0.01554521 0.08429243
v -0.06655498 0.01644926 0.08420870
v -0.06993637 0.00421949 0.08267660
v -0.06924020 0.00337822 0.08353893
v -0.06835249 0.00501053 0.08435940
v -0.06841880 0.00337822 0.08441382
v -0.07036365 -0.00644075 0.08317893
v -0.07035628 -0.00807306 0.08317893
v -0.07024946 -0.00971793 0.08305753
v -0.06949067 -0.00971793 0.08387801
v -0.06827883 -0.01536824 0.08429243
v -0.06763054 -0.01474042 0.08472359
v -0.06747584 -0.01298255 0.08497476
v -0.06409445 -0.00822374 0.08724780
v -0.06617927 -0.01298255 0.08568220
v -0.06785523 -0.01953691 0.08388219
v -0.06768579 -0.02116922 0.08364358
v -0.06829356 -0.02198537 0.08267241
v -0.06735428 -0.02260063 0.08334637
v -0.06688649 -0.02395670 0.08293195
v -0.06492322 -0.02512443 0.08424219
v -0.06168181 -0.03007159 0.08426312
v -0.06347932 -0.02704553 0.08436359
v -0.05936125 -0.03434070 0.08357661
v -0.05999848 -0.03491829 0.08255102
v -0.05890450 -0.03547077 0.08308265
v -0.05717329 -0.03862238 0.08131194
v -0.05829306 -0.03656316 0.08251334
v -0.05649186 -0.03971477 0.08074263
v -0.05540157 -0.04014168 0.08119473
v -0.05472013 -0.03962688 0.08228311
v -0.04617826 -0.04523952 0.08304498
v -0.04617826 -0.04442336 0.08386126
v -0.06036683 -0.03383846 0.08297381
v -0.06044418 0.05246054 0.07322025
v -0.05942018 0.05100402 0.07544306
v -0.06160814 0.05141837 0.07269280
v -0.06051784 0.05567494 0.07030674
v -0.06349774 0.05180762 0.06978767
v -0.06144975 0.05419330 0.07054535
v -0.06167444 0.05479600 0.06943604
v -0.06204278 0.05370361 0.07009744
v -0.04617826 0.06121223 0.07914355
v -0.04617826 0.06357281 0.07677842
v -0.04617826 0.06447686 0.07586585
v -0.04719121 0.06649841 0.07298583
v -0.04772162 0.06708856 0.07194350
v -0.04617826 0.06844463 0.07164628
v -0.04617826 0.06927334 0.07052860
v -0.04626667 0.06924822 0.07047837
v -0.04775845 0.06834417 0.07028162
v -0.04825203 0.06769125 0.07074628
v -0.04617826 0.06608405 0.07419561
v -0.04871983 0.06804283 0.06965790
v -0.05051366 0.06653608 0.06985883
v -0.05160395 0.06610917 0.06914720
v -0.05200913 0.06643563 0.06805463
v -0.05514372 0.06466520 0.06620020
v -0.05383242 0.06662397 0.06509507
v -0.05404606 0.06519257 0.06712532
v -0.05213805 0.06816839 0.06494856
v -0.05704437 0.06332169 0.06502810
v -0.06034472 0.05846242 0.06674439
v -0.06095986 0.05739514 0.06717556
v -0.06044049 0.05696823 0.06876208
v -0.06157131 0.05630275 0.06760672
v -0.06131347 0.05573771 0.06884161
v -0.06803203 0.03282259 0.07571515
v -0.06821989 0.03174275 0.07600399
v -0.06828988 0.04016799 0.07121093
v -0.06813517 0.03810877 0.07260908
v -0.06814254 0.04099670 0.07093884
v -0.06706329 0.01809413 0.08322079
v -0.07982637 -0.00036354 0.07132814
v -0.06638554 0.01809413 0.08403707
v -0.07102298 0.03108983 0.07190582
v -0.07160127 0.03048713 0.07127373
v -0.07819092 0.00610292 0.07133233
v -0.07957589 0.00174591 0.07087605
v -0.07996634 0.00174591 0.07005976
v -0.08012841 0.00015127 0.07051186
v -0.06490849 0.04978606 0.06937325
v -0.06829724 0.04836721 0.06468065
v -0.06891974 0.04605686 0.06563926
v -0.06853298 0.04560484 0.06675695
v -0.06850351 0.04755105 0.06506996
v -0.06991426 0.04505236 0.06461786
v -0.06968589 0.04441199 0.06556391
v -0.06818305 0.04316893 0.06936487
v -0.06838933 0.04207654 0.06976255
v -0.07992950 -0.00153127 0.07145791
v -0.07926649 -0.00153127 0.07227420
v -0.07844876 -0.00153127 0.07324118
v -0.06997320 0.00337822 0.08271846
v -0.07003950 0.00174591 0.08279800
v -0.07630133 -0.00316358 0.07592027
v -0.07932542 -0.00316358 0.07235373
v -0.07118137 -0.00644075 0.08221195
v -0.07486111 -0.00745781 0.07778308
v -0.07117400 -0.00807306 0.08219101
v -0.07337300 -0.00644075 0.07959983
v -0.07184806 -0.00807306 0.08137473
v -0.07480586 -0.00855020 0.07771610
v -0.07326618 -0.00925335 0.07947007
v -0.07918545 -0.00971793 0.07216954
v -0.06875030 -0.01789204 0.08322916
v -0.06888659 -0.01625973 0.08339242
v -0.06861402 -0.01953691 0.08306172
v -0.06841880 -0.02116922 0.08282311
v -0.06846668 -0.02388136 0.08123240
v -0.06798046 -0.02307776 0.08232497
v -0.06996215 -0.02046607 0.08107752
v -0.07638236 -0.02003916 0.07273467
v -0.07488321 -0.02047862 0.07454305
v -0.07620188 -0.02116922 0.07248769
v -0.07319988 -0.02198537 0.07612120
v -0.07596982 -0.02285175 0.07198117
v -0.07149077 -0.02342934 0.07765749
v -0.07190332 -0.02444639 0.07657330
v -0.07168599 -0.02551367 0.07628027
v -0.07139869 -0.02660607 0.07594120
v -0.07150919 -0.03334876 0.07113977
v -0.07003582 -0.03521964 0.07131977
v -0.06656971 -0.03987800 0.07110210
v -0.06164866 -0.03657572 0.07929006
v -0.06000585 -0.03661339 0.08093101
v -0.05891555 -0.03709052 0.08142496
v -0.05826359 -0.03818292 0.08085147
v -0.05992113 -0.04310496 0.07432119
v -0.05994691 -0.04148521 0.07597888
v -0.05883084 -0.04353187 0.07478166
v -0.05987693 -0.04471215 0.07266769
v -0.05930231 -0.04571666 0.07203978
v -0.04634770 -0.04613101 0.08193566
v -0.04617826 -0.04641980 0.08175148
v -0.06517369 0.05185784 0.06659369
v -0.06488270 0.05140582 0.06768626
v -0.06690122 0.05040132 0.06511182
v -0.06520685 0.05031343 0.06828068
v -0.06254741 0.05406773 0.06872440
v -0.06196175 0.05521035 0.06834766
v -0.06421600 0.05411797 0.06551368
v -0.06542785 0.05242287 0.06540903
v -0.04617826 0.06560692 0.07469375
v -0.04617826 0.06973792 0.06975836
v -0.04685233 0.06952446 0.06938999
v -0.04785790 0.06916033 0.06881231
v -0.04841042 0.06946168 0.06764021
v -0.04993904 0.06937379 0.06586113
v -0.05023372 0.06795493 0.06786207
v -0.05064626 0.06828140 0.06677369
v -0.05105144 0.06877109 0.06540484
v -0.05545682 0.06499166 0.06510763
v -0.05321729 0.06770381 0.06385599
v -0.05410500 0.06688765 0.06385599
v -0.05492272 0.06607150 0.06385599
v -0.05037001 0.06968770 0.06476856
v -0.05239957 0.06838184 0.06385599
v -0.05723959 0.06356025 0.06385599
v -0.05860615 0.06160148 0.06489414
v -0.05569992 0.06525534 0.06385599
v -0.05651764 0.06437640 0.06385599
v -0.06016055 0.05986872 0.06476019
v -0.06057310 0.05900234 0.06537973
v -0.06147185 0.05782205 0.06549275
v -0.06185861 0.05669199 0.06651415
v -0.06333935 0.05484623 0.06621694
v -0.06855508 0.03282259 0.07489887
v -0.07000267 0.03220734 0.07296909
v -0.06886817 0.03952762 0.07055791
v -0.06996215 0.03535895 0.07126954
v -0.06933965 0.03598676 0.07190164
v -0.06960486 0.03445490 0.07234118
v -0.06941332 0.03278492 0.07357607
v -0.06858086 0.04099670 0.07012255
v -0.08050412 -0.00153127 0.07039884
v -0.07144289 0.03157952 0.07097233
v -0.07326618 0.02731040 0.06971232
v -0.07341720 0.02626824 0.06997604
v -0.07896813 0.00501053 0.07039884
v -0.07941014 0.00340333 0.07034442
v -0.07969377 0.00396836 0.06945697
v -0.07982637 0.00287597 0.06975836
v -0.08055200 0.00174591 0.06876208
v -0.08129974 0.00051540 0.06775323
v -0.08101243 0.00002571 0.06864068
v -0.06659918 0.04988652 0.06620020
v -0.06841143 0.04856811 0.06385599
v -0.06893816 0.04755105 0.06385599
v -0.06968958 0.04591874 0.06398576
v -0.06656235 0.05149371 0.06432484
v -0.06794732 0.04938426 0.06385599
v -0.07034523 0.04441199 0.06398576
v -0.07161601 0.04033122 0.06476856
v -0.07013895 0.04395997 0.06506577
v -0.07006528 0.04537882 0.06352529
v -0.06984796 0.04323171 0.06615415
v -0.07037470 0.04266668 0.06556391
v -0.06976693 0.04136083 0.06763184
v -0.06940964 0.04088369 0.06863650
v -0.08062936 -0.00316358 0.07039884
v -0.07999212 -0.00316358 0.07153745
v -0.07934015 -0.00480844 0.07235792
v -0.07785205 -0.00480844 0.07417049
v -0.07486111 -0.00533581 0.07778308
v -0.07703433 -0.00644075 0.07516678
v -0.07934015 -0.00644075 0.07235792
v -0.07929964 -0.00807306 0.07230769
v -0.07419073 -0.00644075 0.07861610
v -0.07486847 -0.00644075 0.07779563
v -0.07984847 -0.00971793 0.07135326
v -0.07977111 -0.01067220 0.07124861
v -0.07162338 -0.01890909 0.07946588
v -0.07914125 -0.01127490 0.07189326
v -0.07478744 -0.01677454 0.07605423
v -0.07297151 -0.01953691 0.07745237
v -0.07774892 -0.01625973 0.07237466
v -0.07680596 -0.02116922 0.07167140
v -0.07502318 -0.01953691 0.07473143
v -0.07759421 -0.01791715 0.07194768
v -0.07699013 -0.01951179 0.07212768
v -0.07660337 -0.02232439 0.07139512
v -0.07468430 -0.02486075 0.07264676
v -0.07487584 -0.02698275 0.07126954
v -0.07318515 -0.02521232 0.07446352
v -0.07337300 -0.02725899 0.07307792
v -0.07310043 -0.02835138 0.07273885
v -0.07324409 -0.03024737 0.07126535
v -0.07324777 -0.03187968 0.06966627
v -0.07292363 -0.03297207 0.06908022
v -0.07183333 -0.03385102 0.07004720
v -0.07147235 -0.03494341 0.06941511
v -0.07121083 -0.03434070 0.07051605
v -0.07028261 -0.03582234 0.07026907
v -0.06960854 -0.03631204 0.07072535
v -0.06810202 -0.03810758 0.07094302
v -0.06751267 -0.03921253 0.07047837
v -0.06692701 -0.04029236 0.07001371
v -0.06594353 -0.04092018 0.07056628
v -0.06495269 -0.04154798 0.07111884
v -0.06547942 -0.04045560 0.07168396
v -0.06165602 -0.03825825 0.07767005
v -0.06056573 -0.03877305 0.07818913
v -0.05998743 -0.03824569 0.07928169
v -0.06053626 -0.04201256 0.07488631
v -0.06105562 -0.04418479 0.07214862
v -0.06050311 -0.04522696 0.07157512
v -0.05872401 -0.04670860 0.07141186
v -0.04698862 -0.04650769 0.08100217
v -0.05683073 -0.04816512 0.07120675
v -0.04617826 -0.04723596 0.08078868
v -0.06509266 0.05337714 0.06481042
v -0.06362665 0.05522291 0.06512856
v -0.04617826 0.07032807 0.06872859
v -0.04626667 0.07022761 0.06881231
v -0.04732012 0.06983837 0.06830161
v -0.04785790 0.07015228 0.06710858
v -0.04884875 0.06977559 0.06654764
v -0.05344198 0.06789216 0.06262529
v -0.05511426 0.06627240 0.06261692
v -0.04942705 0.07001415 0.06538391
v -0.04789474 0.07093076 0.06560577
v -0.04738274 0.07149579 0.06513275
v -0.04847304 0.07115677 0.06422437
v -0.05056523 0.06983837 0.06385599
v -0.05138295 0.06919800 0.06385599
v -0.05671286 0.06457731 0.06221924
v -0.05957120 0.06081044 0.06385599
v -0.06025632 0.05999428 0.06385599
v -0.06169286 0.05811085 0.06433321
v -0.06210909 0.05700590 0.06549275
v -0.07035996 0.03278492 0.07208582
v -0.06968958 0.03936439 0.06912208
v -0.06996215 0.04026844 0.06800440
v -0.08141392 -0.00057699 0.06801277
v -0.08114135 -0.00153127 0.06899650
v -0.08120397 -0.00316358 0.06915138
v -0.07170441 0.03240823 0.06988395
v -0.07184438 0.03108983 0.07041558
v -0.07109296 0.04092136 0.06538391
v -0.07320356 0.03528361 0.06467647
v -0.08127027 0.00374235 0.06602438
v -0.07991845 0.00501053 0.06832673
v -0.07955748 0.00501053 0.06914720
v -0.08140656 0.00264996 0.06635927
v -0.08152074 0.00174591 0.06661462
v -0.08164966 0.00002571 0.06717556
v -0.08201064 0.00174591 0.06549275
v -0.06861033 0.04889457 0.06221924
v -0.06933597 0.04755105 0.06221924
v -0.06983691 0.04652144 0.06221924
v -0.06611297 0.05233498 0.06380995
v -0.06670968 0.05170716 0.06323646
v -0.06706698 0.05089101 0.06380995
v -0.06812780 0.04971073 0.06221924
v -0.07075409 0.04427388 0.06221924
v -0.07103771 0.04264157 0.06385599
v -0.07177071 0.03936439 0.06507833
v -0.07143921 0.04143617 0.06385599
v -0.07170441 0.04062001 0.06385599
v -0.07210591 0.03936439 0.06385599
v -0.07019789 0.04570529 0.06221924
v -0.08121133 -0.00480844 0.06917650
v -0.08063672 -0.00480844 0.07039884
v -0.07999212 -0.00480844 0.07154163
v -0.07999212 -0.00644075 0.07154163
v -0.07995529 -0.00807306 0.07149140
v -0.08055200 -0.00807306 0.07039884
v -0.08034205 -0.00971793 0.07039884
v -0.08005105 -0.01127490 0.07048674
v -0.07967535 -0.01176460 0.07108954
v -0.07857032 -0.01462742 0.07181373
v -0.07793677 -0.01462742 0.07263001
v -0.07835668 -0.01625973 0.07155838
v -0.07819829 -0.01738979 0.07134070
v -0.07804359 -0.01848218 0.07108954
v -0.07788888 -0.01953691 0.07074209
v -0.07762368 -0.02103110 0.07026069
v -0.07639710 -0.02341678 0.07106023
v -0.07444120 -0.02607870 0.07232862
v -0.07507843 -0.02761056 0.07032349
v -0.07463273 -0.02807514 0.07081744
v -0.07348719 -0.02935588 0.07157512
v -0.07400287 -0.02766079 0.07200629
v -0.07429386 -0.02926799 0.07032349
v -0.07346141 -0.03086263 0.07028581
v -0.07464010 -0.02977024 0.06916394
v -0.07429017 -0.03090030 0.06867836
v -0.07344299 -0.03250750 0.06862812
v -0.07322567 -0.03348688 0.06799184
v -0.07317042 -0.03503130 0.06624625
v -0.07177808 -0.03535776 0.06832254
v -0.06996215 -0.03675150 0.06963697
v -0.07292731 -0.03466717 0.06712532
v -0.06844826 -0.03854704 0.06985046
v -0.06801730 -0.03963944 0.06909278
v -0.06832671 -0.04002868 0.06800021
v -0.06738375 -0.04070672 0.06859882
v -0.06675389 -0.04171122 0.06810486
v -0.06640764 -0.04138475 0.06919324
v -0.06531735 -0.04189955 0.07002627
v -0.06327305 -0.04315518 0.07106023
v -0.06218275 -0.04365744 0.07162954
v -0.06385871 -0.04206279 0.07166722
v -0.06330251 -0.03990312 0.07440491
v -0.06328778 -0.04153543 0.07275978
v -0.06161182 -0.04313007 0.07272211
v -0.06159340 -0.04474982 0.07099744
v -0.05981431 -0.04631936 0.07087605
v -0.04684128 -0.04806467 0.07924820
v -0.04617826 -0.04754987 0.08041193
v -0.05928021 -0.04700995 0.07035697
v -0.05778106 -0.04791399 0.07055791
v -0.05840356 -0.04812745 0.06949046
v -0.05731326 -0.04846647 0.07011418
v -0.05532790 -0.04988532 0.06972069
v -0.05481590 -0.04957142 0.07081326
v -0.05372561 -0.04988532 0.07133652
v -0.06381451 0.05547403 0.06385599
v -0.06463223 0.05436908 0.06385599
v -0.06522894 0.05355293 0.06385599
v -0.04617826 0.07113166 0.06726346
v -0.04632560 0.07104376 0.06727602
v -0.04695178 0.07123211 0.06622532
v -0.05167025 0.06942401 0.06221924
v -0.05283790 0.06850741 0.06213552
v -0.05360774 0.06803027 0.06153272
v -0.05576990 0.06565714 0.06213133
v -0.05523212 0.06639796 0.06152435
v -0.04632560 0.07187248 0.06560577
v -0.04617826 0.07196037 0.06559322
v -0.04617826 0.07202315 0.06545089
v -0.04617826 0.07257563 0.06395646
v -0.04789474 0.07162136 0.06374716
v -0.04869773 0.07129489 0.06313180
v -0.04933864 0.07070475 0.06374716
v -0.05085253 0.07005182 0.06221924
v -0.04967383 0.07086798 0.06221924
v -0.05739798 0.06376115 0.06221924
v -0.06178494 0.05822386 0.06324483
v -0.06117350 0.05886422 0.06381413
v -0.05821570 0.06276921 0.06221924
v -0.06226747 0.05748303 0.06381413
v -0.06318833 0.05629019 0.06385599
v -0.08258525 -0.00153127 0.06549275
v -0.08148022 -0.00153127 0.06818021
v -0.08234583 0.00010104 0.06549275
v -0.08301621 -0.00242276 0.06465554
v -0.08205116 -0.00316358 0.06712532
v -0.08154653 -0.00316358 0.06833510
v -0.08208799 -0.00480844 0.06712532
v -0.07260685 0.03773208 0.06385599
v -0.07302676 0.03630067 0.06385599
v -0.07326250 0.03547196 0.06385599
v -0.08310093 0.00125622 0.06180063
v -0.08287624 0.00178358 0.06229459
v -0.08255210 0.00174591 0.06385599
v -0.08148759 0.00452084 0.06493600
v -0.08162388 0.00326521 0.06548438
v -0.08286888 0.00017638 0.06387274
v -0.06856613 0.04881923 0.06058248
v -0.06924756 0.04755105 0.06058248
v -0.06979271 0.04647122 0.06058248
v -0.07017211 0.04565506 0.06058248
v -0.06677967 0.05180762 0.06221924
v -0.06743163 0.05081567 0.06221924
v -0.06807992 0.04963539 0.06058248
v -0.06677230 0.05178250 0.06094667
v -0.07067673 0.04427388 0.06058248
v -0.07157181 0.04183797 0.06137784
v -0.07157181 0.04183797 0.06147412
v -0.07133607 0.04249089 0.06209784
v -0.07153129 0.04171241 0.06256668
v -0.08120765 -0.00644075 0.06915975
v -0.08063304 -0.00644075 0.07039884
v -0.08116714 -0.00807306 0.06904255
v -0.08110452 -0.00974304 0.06866998
v -0.08081353 -0.01135024 0.06876208
v -0.07997371 -0.01298255 0.07005558
v -0.07956484 -0.01298255 0.07087605
v -0.07944329 -0.01471531 0.07036535
v -0.07901601 -0.01625973 0.07039884
v -0.07971954 -0.01533057 0.06951976
v -0.07826828 -0.01953691 0.06992581
v -0.07812831 -0.02040329 0.06962441
v -0.07795150 -0.02149568 0.06918487
v -0.07688699 -0.02285175 0.07047000
v -0.07664757 -0.02406971 0.06997185
v -0.07643393 -0.02516210 0.06949046
v -0.07574881 -0.02771101 0.06876208
v -0.07649655 -0.02857739 0.06635508
v -0.07490531 -0.02867785 0.06972906
v -0.07649655 -0.03020970 0.06471833
v -0.07588878 -0.03085007 0.06535461
v -0.07508948 -0.03090030 0.06701648
v -0.07488321 -0.03189224 0.06640113
v -0.07462168 -0.03137743 0.06748951
v -0.07425703 -0.03250750 0.06701648
v -0.07345404 -0.03385102 0.06712532
v -0.07342825 -0.03540798 0.06515368
v -0.07282786 -0.03593535 0.06561833
v -0.07194015 -0.03721608 0.06549275
v -0.07167126 -0.03685195 0.06649322
v -0.07401392 -0.03424026 0.06545926
v -0.07136185 -0.03645015 0.06758579
v -0.07020894 -0.03707797 0.06876208
v -0.06957539 -0.03789412 0.06876208
v -0.06984796 -0.03824569 0.06779928
v -0.06868400 -0.03912464 0.06863231
v -0.06971904 -0.03972733 0.06592392
v -0.07001740 -0.04009146 0.06483135
v -0.06856981 -0.04030492 0.06712532
v -0.06784418 -0.04112107 0.06712532
v -0.07131397 -0.03803224 0.06549275
v -0.06814254 -0.04146009 0.06602438
v -0.06702646 -0.04200001 0.06712532
v -0.06650341 -0.04311751 0.06604950
v -0.06616454 -0.04281617 0.06712532
v -0.06482008 -0.04471215 0.06598252
v -0.06170759 -0.04649514 0.06787044
v -0.06195806 -0.04508884 0.06990488
v -0.06092670 -0.04570409 0.07039046
v -0.06025632 -0.04664581 0.06978348
v -0.04617826 -0.04775076 0.08014821
v -0.04617826 -0.04900639 0.07843192
v -0.04617826 -0.04894360 0.07851983
v -0.05934651 -0.04780098 0.06887092
v -0.05992481 -0.04803956 0.06769044
v -0.05844039 -0.04978488 0.06626299
v -0.05726169 -0.05007367 0.06712532
v -0.05641819 -0.04955887 0.06909696
v -0.05692650 -0.05149252 0.06477275
v -0.05533158 -0.05150508 0.06644718
v -0.04839569 -0.05293649 0.07088023
v -0.05431864 -0.05011133 0.07031930
v -0.04730539 -0.05322528 0.07143698
v -0.04617826 -0.05222079 0.07377700
v -0.04617826 -0.05122885 0.07522120
v -0.04617826 -0.05055081 0.07620492
v -0.06535050 0.05370361 0.06221924
v -0.06616822 0.05262378 0.06221924
v -0.04617826 0.07144557 0.06665229
v -0.05275318 0.06873342 0.06058248
v -0.05363352 0.06805538 0.06058248
v -0.05445124 0.06722667 0.06058248
v -0.05523949 0.06639796 0.06058248
v -0.04617826 0.07283931 0.06277180
v -0.04663869 0.07270119 0.06221924
v -0.04784317 0.07199804 0.06221924
v -0.04885243 0.07139535 0.06221924
v -0.05172919 0.06949935 0.06058248
v -0.05091147 0.07007694 0.06058248
v -0.04967383 0.07089309 0.06058248
v -0.06036314 0.06013240 0.06221924
v -0.06118454 0.05910279 0.06221924
v -0.06183283 0.05828663 0.06221924
v -0.06254373 0.05737003 0.06221924
v -0.08297201 -0.00153127 0.06447553
v -0.08321512 -0.00305057 0.06400669
v -0.08304936 -0.00351515 0.06474344
v -0.08276574 -0.00305057 0.06537136
v -0.08317092 -0.00153127 0.06365925
v -0.08272891 -0.00480844 0.06559322
v -0.08155021 -0.00644075 0.06834347
v -0.07227534 0.03936439 0.06221924
v -0.07333617 0.03572308 0.06221924
v -0.07275419 0.03773208 0.06221924
v -0.08310093 0.00121855 0.06058248
v -0.08338824 0.00010104 0.06058248
v -0.08368291 -0.00153127 0.06058248
v -0.08322249 0.00017638 0.06229459
v -0.08299043 0.00076652 0.06288901
v -0.08309357 -0.00032587 0.06333692
v -0.06838933 0.04853044 0.05964062
v -0.07003214 0.04531604 0.05963643
v -0.06720695 0.05095380 0.06047364
v -0.06662865 0.05159416 0.05985410
v -0.06182914 0.05827408 0.06116435
v -0.05522476 0.06638540 0.05973271
v -0.08304568 0.00097998 0.05972015
v -0.08149864 -0.00807306 0.06822626
v -0.08143234 -0.00921568 0.06806300
v -0.08205852 -0.00644075 0.06712532
v -0.08301990 -0.00725691 0.06467228
v -0.08135131 -0.01030807 0.06786207
v -0.08160546 -0.01135024 0.06684485
v -0.08054463 -0.01298255 0.06876208
v -0.07984847 -0.01423817 0.06980023
v -0.08013577 -0.01471531 0.06889185
v -0.08086509 -0.01462742 0.06712532
v -0.07992582 -0.01625973 0.06836859
v -0.07959063 -0.01625973 0.06918487
v -0.07934015 -0.01779159 0.06864905
v -0.07874344 -0.01953691 0.06876208
v -0.07886499 -0.02116922 0.06712532
v -0.07898286 -0.02280153 0.06549275
v -0.07816882 -0.02214860 0.06809231
v -0.07820566 -0.02386881 0.06653090
v -0.07770840 -0.02273874 0.06868673
v -0.07721482 -0.02771101 0.06549275
v -0.07665862 -0.02921776 0.06535461
v -0.07504528 -0.03250750 0.06532949
v -0.07803990 -0.02669396 0.06437088
v -0.07711168 -0.02935588 0.06385599
v -0.07661810 -0.03046083 0.06385599
v -0.07621292 -0.03127699 0.06385599
v -0.07483901 -0.03344921 0.06467228
v -0.07460327 -0.03298463 0.06576485
v -0.07305255 -0.03650038 0.06414065
v -0.07155339 -0.03833359 0.06462623
v -0.07446698 -0.03445371 0.06385599
v -0.07017579 -0.04026725 0.06385599
v -0.06942805 -0.04108340 0.06385599
v -0.06842985 -0.04176144 0.06493182
v -0.06747952 -0.04243948 0.06549275
v -0.06681650 -0.04341886 0.06495693
v -0.06515528 -0.04502607 0.06488996
v -0.06313676 -0.04630680 0.06590299
v -0.06204647 -0.04679649 0.06678206
v -0.06100774 -0.04741174 0.06723835
v -0.06059519 -0.04693461 0.06876208
v -0.06030789 -0.04831580 0.06660206
v -0.05883452 -0.05006111 0.06517042
v -0.05768529 -0.05063870 0.06551787
v -0.05799838 -0.05114095 0.06385599
v -0.05718066 -0.05164319 0.06385599
v -0.05547523 -0.05323784 0.06183412
v -0.05602406 -0.05227101 0.06385599
v -0.05480485 -0.05288626 0.06385599
v -0.05364825 -0.05311228 0.06474763
v -0.05593566 -0.05170598 0.06538810
v -0.04617826 -0.05422978 0.07027325
v -0.04617826 -0.05345130 0.07197280
v -0.05361510 0.06804283 0.05966573
v -0.04617826 0.07295232 0.06221924
v -0.04617826 0.07293976 0.06146993
v -0.04660554 0.07268864 0.06058248
v -0.04784317 0.07199804 0.06058248
v -0.04885611 0.07139535 0.06058248
v -0.04870141 0.07129489 0.05971178
v -0.08362398 -0.00316358 0.06221924
v -0.08330720 -0.00480844 0.06385599
v -0.08306410 -0.00480844 0.06477693
v -0.08349138 -0.00153127 0.06221924
v -0.08304568 -0.00616452 0.06473926
v -0.08318934 0.00010104 0.05941038
v -0.08334404 -0.00150615 0.05885363
v -0.08357978 -0.00316358 0.05894573
v -0.08379341 -0.00316358 0.06058248
v -0.06697857 0.05050177 0.05942294
v -0.06746110 0.04913314 0.05898759
v -0.06685702 0.04863089 0.05793688
v -0.06712223 0.04755105 0.05766479
v -0.06842616 0.04535371 0.05800804
v -0.06907444 0.02793821 0.05187544
v -0.06925861 0.02738574 0.05187544
v -0.07021631 0.04427388 0.05945643
v -0.08310462 -0.00203352 0.05797456
v -0.08295360 -0.00094112 0.05824665
v -0.05492272 0.06594593 0.05864014
v -0.05382874 0.06668675 0.05777362
v -0.05334989 0.06609661 0.05668524
v -0.05330938 0.06777915 0.05857316
v -0.08194434 -0.00807306 0.06712532
v -0.08240108 -0.00971793 0.06549275
v -0.08260367 -0.00807306 0.06549275
v -0.08277311 -0.00660398 0.06536717
v -0.08320775 -0.00660398 0.06401925
v -0.08359819 -0.00644075 0.06221924
v -0.08315987 -0.00807306 0.06365506
v -0.08297938 -0.00807306 0.06447553
v -0.08214324 -0.01135024 0.06549275
v -0.08148759 -0.01269376 0.06656020
v -0.08118555 -0.01313323 0.06711695
v -0.08138077 -0.01378615 0.06629648
v -0.08127395 -0.01462742 0.06599508
v -0.08143234 -0.01561936 0.06481042
v -0.08105295 -0.01619695 0.06540903
v -0.08040835 -0.01625973 0.06712532
v -0.07977848 -0.01717633 0.06802533
v -0.07948749 -0.02121944 0.06549694
v -0.07985952 -0.02070464 0.06495693
v -0.07823513 -0.02560157 0.06495275
v -0.07969008 -0.02179703 0.06433321
v -0.07892393 -0.02444639 0.06385599
v -0.07836405 -0.02611637 0.06383507
v -0.07816514 -0.02704553 0.06327832
v -0.07780785 -0.02763568 0.06383507
v -0.07748003 -0.02935588 0.06221924
v -0.07675807 -0.03102586 0.06211040
v -0.07637131 -0.03160345 0.06258343
v -0.07550571 -0.03262050 0.06385599
v -0.07494583 -0.03362500 0.06385599
v -0.07356086 -0.03593535 0.06369692
v -0.07320725 -0.03671383 0.06304808
v -0.07237848 -0.03752999 0.06383925
v -0.07170810 -0.03852194 0.06353785
v -0.07110033 -0.03911207 0.06398995
v -0.07514841 -0.03397657 0.06221924
v -0.07466589 -0.03479273 0.06221924
v -0.07119610 -0.03953898 0.06221924
v -0.07037470 -0.04049327 0.06221924
v -0.06963064 -0.04130942 0.06221924
v -0.06861033 -0.04194979 0.06385599
v -0.06781840 -0.04276594 0.06385599
v -0.06700068 -0.04360720 0.06385599
v -0.06615717 -0.04442336 0.06385599
v -0.06533945 -0.04518929 0.06385599
v -0.06347563 -0.04660815 0.06481461
v -0.06147185 -0.04793911 0.06549275
v -0.06065413 -0.04859203 0.06549275
v -0.05992481 -0.04967187 0.06422018
v -0.05934651 -0.05023689 0.06374716
v -0.05829674 -0.05131674 0.06257505
v -0.05771475 -0.05183154 0.06210203
v -0.05558205 -0.05330062 0.06058248
v -0.05438862 -0.05395354 0.06058248
v -0.05451017 -0.05356430 0.06231552
v -0.05850669 -0.05146741 0.06148249
v -0.05398345 -0.05328807 0.06385599
v -0.04617826 -0.05426745 0.07016441
v -0.05058733 0.06982581 0.05894573
v -0.05140505 0.06928589 0.05894573
v -0.05275686 0.06839440 0.05905038
v -0.04617826 0.07291465 0.06058248
v -0.04617826 0.07243751 0.05916340
v -0.04776582 0.07154602 0.05907968
v -0.05031844 0.06965003 0.05810014
v -0.08366081 -0.00480844 0.06221924
v -0.08318565 -0.00316358 0.05782386
v -0.08322985 -0.00480844 0.05773595
v -0.08362029 -0.00480844 0.05894573
v -0.08380815 -0.00480844 0.06058248
v -0.05813098 0.05052688 0.05187544
v -0.06013845 0.04748828 0.05187544
v -0.06107036 0.04598152 0.05187544
v -0.05376612 0.06500422 0.05635036
v -0.06195070 0.04421109 0.05187544
v -0.06863243 0.02901805 0.05187544
v -0.06956066 0.02624312 0.05187544
v -0.08158705 -0.00183262 0.05636292
v -0.08258525 -0.00316358 0.05700757
v -0.05221908 0.06819351 0.05781549
v -0.05278265 0.06722667 0.05725036
v -0.05162237 0.06776659 0.05672710
v -0.05225960 0.06668675 0.05629175
v -0.08371238 -0.00644075 0.06058248
v -0.08344349 -0.00807306 0.06221924
v -0.08307883 -0.00927846 0.06332018
v -0.08289098 -0.00978071 0.06386018
v -0.08262577 -0.01135024 0.06385599
v -0.08174543 -0.01313323 0.06564764
v -0.08156126 -0.01462742 0.06517461
v -0.08227953 -0.01298255 0.06385599
v -0.08187803 -0.01462742 0.06385599
v -0.08152443 -0.01592071 0.06385599
v -0.08128869 -0.01673687 0.06385599
v -0.08095350 -0.01789204 0.06385599
v -0.08052253 -0.01789204 0.06549275
v -0.07995529 -0.01779159 0.06707090
v -0.08045992 -0.01953691 0.06385599
v -0.07978216 -0.02209838 0.06324064
v -0.07949118 -0.02271363 0.06381413
v -0.07867346 -0.02607870 0.06221924
v -0.07826459 -0.02730922 0.06221924
v -0.07795887 -0.02813793 0.06221924
v -0.07762736 -0.02935588 0.06058248
v -0.07649655 -0.03184202 0.06149086
v -0.07600665 -0.03248239 0.06211040
v -0.07394762 -0.03589768 0.06221924
v -0.07330302 -0.03685195 0.06221924
v -0.07268788 -0.03766811 0.06221924
v -0.07187016 -0.03872283 0.06221924
v -0.07474324 -0.03493085 0.06058248
v -0.07193278 -0.03879817 0.06058248
v -0.07125135 -0.03961432 0.06058248
v -0.07043363 -0.04054349 0.06058248
v -0.06967116 -0.04135964 0.06058248
v -0.06881292 -0.04215068 0.06221924
v -0.06719221 -0.04379555 0.06221924
v -0.06635239 -0.04461171 0.06221924
v -0.06800994 -0.04296683 0.06221924
v -0.06465065 -0.04619379 0.06221924
v -0.06445543 -0.04600544 0.06385599
v -0.06363402 -0.04675882 0.06385599
v -0.06172969 -0.04815257 0.06461786
v -0.06094144 -0.04899383 0.06387274
v -0.06014950 -0.04983510 0.06313180
v -0.05438862 -0.05387821 0.05894573
v -0.05640346 -0.05281093 0.06058248
v -0.05297419 -0.05455624 0.05894573
v -0.05267951 -0.05458136 0.06066202
v -0.05275318 -0.05428001 0.06221924
v -0.05850669 -0.05146741 0.06122714
v -0.06028579 -0.04994811 0.06221924
v -0.06110351 -0.04927007 0.06221924
v -0.06115876 -0.04932029 0.06058248
v -0.06034104 -0.04998578 0.06058248
v -0.04617826 -0.05435535 0.06980860
v -0.04617826 0.07237472 0.05900852
v -0.04716542 0.07135768 0.05799549
v -0.04947861 0.06988859 0.05777781
v -0.04947861 0.06926079 0.05695734
v -0.05097040 0.06872086 0.05741362
v -0.08269207 -0.00480844 0.05691966
v -0.08270681 -0.00644075 0.05697408
v -0.08318196 -0.00644075 0.05779037
v -0.08351347 -0.00644075 0.05894573
v -0.05727643 0.05174483 0.05187544
v -0.05278265 0.06554414 0.05601129
v -0.07404707 0.00178358 0.05187544
v -0.08176753 -0.00316358 0.05623315
v -0.08187435 -0.00480844 0.05613268
v -0.05053207 0.06815584 0.05637966
v -0.05109196 0.06721412 0.05604477
v -0.05114720 0.06555669 0.05518244
v -0.05171814 0.06447686 0.05494384
v -0.08352821 -0.00807306 0.06058248
v -0.08318565 -0.00978071 0.06229040
v -0.08299780 -0.01037086 0.06288483
v -0.08308251 -0.01083544 0.06179644
v -0.08289466 -0.01137535 0.06229040
v -0.08254105 -0.01298255 0.06221924
v -0.08211378 -0.01462742 0.06221924
v -0.08136236 -0.01700055 0.06279692
v -0.07918176 -0.02444639 0.06221924
v -0.07802886 -0.02823838 0.06058248
v -0.07749108 -0.02935588 0.05894573
v -0.07676544 -0.03107609 0.05905875
v -0.07648550 -0.03182946 0.05968248
v -0.07691646 -0.03098819 0.06058248
v -0.07650023 -0.03185457 0.06058248
v -0.07605085 -0.03267073 0.06058248
v -0.07523313 -0.03410214 0.06058248
v -0.07410232 -0.03589768 0.06058248
v -0.07338037 -0.03695240 0.06058248
v -0.07275050 -0.03776856 0.06058248
v -0.07516683 -0.03398913 0.05894573
v -0.07466589 -0.03480529 0.05894573
v -0.07264737 -0.03764300 0.05894573
v -0.07182965 -0.03866005 0.05894573
v -0.07112243 -0.03948876 0.05894573
v -0.07030103 -0.04038026 0.05894573
v -0.06950172 -0.04119641 0.05894573
v -0.06885344 -0.04218835 0.06058248
v -0.06803940 -0.04300450 0.06058248
v -0.06722168 -0.04380811 0.06058248
v -0.06636712 -0.04462426 0.06058248
v -0.06554940 -0.04539019 0.06058248
v -0.06467275 -0.04620635 0.06058248
v -0.06385135 -0.04695972 0.06058248
v -0.06383293 -0.04693461 0.06221924
v -0.06290471 -0.04775076 0.06221924
v -0.06208698 -0.04845392 0.06221924
v -0.06191386 -0.04830324 0.06352529
v -0.05541998 -0.05321273 0.05894573
v -0.05525791 -0.05311228 0.05804572
v -0.05435915 -0.05345130 0.05742199
v -0.05267583 -0.05434278 0.05737595
v -0.05778474 -0.05189432 0.06064109
v -0.05207911 -0.05475714 0.05797037
v -0.05215646 -0.05476970 0.05894573
v -0.05208648 -0.05474459 0.06017225
v -0.05188021 -0.05470692 0.06126481
v -0.04617826 -0.05460647 0.06876208
v -0.05915129 -0.05090238 0.06064109
v -0.05841461 -0.05139207 0.06013876
v -0.06213118 -0.04849159 0.06058248
v -0.06195070 -0.04834091 0.05894573
v -0.06022685 -0.04989788 0.05946480
v -0.04617826 0.07189759 0.05813363
v -0.04617826 0.07162136 0.05764386
v -0.04617826 0.07095587 0.05682757
v -0.04843621 0.06952446 0.05659734
v -0.08188909 -0.00644075 0.05610757
v -0.08182647 -0.00807306 0.05615361
v -0.08264419 -0.00807306 0.05716664
v -0.08307883 -0.00807306 0.05798711
v -0.08302727 -0.00892689 0.05811270
v -0.08330352 -0.00807306 0.05894573
v -0.05593935 0.05335204 0.05187544
v -0.07414284 0.00121855 0.05187544
v -0.07433069 0.00010104 0.05187544
v -0.07459590 -0.00153127 0.05187544
v -0.07484269 -0.00316358 0.05187544
v -0.07494583 -0.00480844 0.05187544
v -0.04617826 0.07013972 0.05617873
v -0.04947861 0.06844463 0.05619966
v -0.04617826 0.06356025 0.05187544
v -0.04755218 0.06226696 0.05187544
v -0.04947125 0.06034585 0.05187544
v -0.05118036 0.05856288 0.05187544
v -0.08328510 -0.00971793 0.06058248
v -0.08304568 -0.01062198 0.05965736
v -0.08308620 -0.01083544 0.06058248
v -0.08289466 -0.01165159 0.06058248
v -0.08255947 -0.01298255 0.06058248
v -0.08141392 -0.01717633 0.06123970
v -0.08141392 -0.01717633 0.06170854
v -0.08160546 -0.01637274 0.06224017
v -0.07796255 -0.02772357 0.05890805
v -0.07691646 -0.02941866 0.05720432
v -0.07667704 -0.03058639 0.05767734
v -0.07641183 -0.03167878 0.05859410
v -0.08208799 -0.01462742 0.06058248
v -0.07604717 -0.03246983 0.05905875
v -0.07392920 -0.03589768 0.05894573
v -0.07328828 -0.03682684 0.05894573
v -0.07501949 -0.03373801 0.05771083
v -0.07321093 -0.03672640 0.05810851
v -0.07168968 -0.03849682 0.05784479
v -0.07010949 -0.04016680 0.05775688
v -0.06868400 -0.04201256 0.05894573
v -0.06784786 -0.04282872 0.05894573
v -0.06702646 -0.04361977 0.05894573
v -0.06365981 -0.04679649 0.05894573
v -0.06276842 -0.04761265 0.05894573
v -0.06294890 -0.04777588 0.06058248
v -0.05623770 -0.05266025 0.05894573
v -0.05488588 -0.05282348 0.05695315
v -0.05819360 -0.05124140 0.05894573
v -0.06001690 -0.04973465 0.05837642
v -0.06092670 -0.04860459 0.05742199
v -0.05379559 -0.05323784 0.05629175
v -0.05152291 -0.05460647 0.05687780
v -0.05266478 -0.05348896 0.05571407
v -0.05043262 -0.05474459 0.05640059
v -0.05103302 -0.05483248 0.05737595
v -0.05111406 -0.05495804 0.05894573
v -0.05124666 -0.05487015 0.06066202
v -0.05078991 -0.05481993 0.06185505
v -0.04620405 -0.05515895 0.06549275
v -0.04617826 -0.05490782 0.06704997
v -0.06179599 -0.04820279 0.05804153
v -0.05940176 -0.05034990 0.05892898
v -0.07483532 -0.00617707 0.05187544
v -0.07481322 -0.00644075 0.05187544
v -0.07448540 -0.00808562 0.05187544
v -0.08166808 -0.00971793 0.05627501
v -0.08253368 -0.00956726 0.05746385
v -0.08168650 -0.01298255 0.05761874
v -0.08292045 -0.01000672 0.05856479
v -0.08310830 -0.00956726 0.05904619
v -0.04617826 -0.05391587 0.05187544
v -0.08273627 -0.01124979 0.05904619
v -0.08222428 -0.01298255 0.05894573
v -0.07661442 -0.02892897 0.05635873
v -0.07641183 -0.03002136 0.05658478
v -0.07620556 -0.03107609 0.05720432
v -0.07537310 -0.03270840 0.05722106
v -0.07476902 -0.03331109 0.05662245
v -0.07445225 -0.03427793 0.05722106
v -0.07351666 -0.03584745 0.05745967
v -0.07295678 -0.03636226 0.05701594
v -0.07232323 -0.03745466 0.05743037
v -0.07142816 -0.03818292 0.05675641
v -0.07076882 -0.03918741 0.05725455
v -0.06981850 -0.03989057 0.05666431
v -0.06847036 -0.04179911 0.05779455
v -0.06681282 -0.04340631 0.05784479
v -0.06348300 -0.04662070 0.05793688
v -0.06037419 -0.04837858 0.05624152
v -0.06146817 -0.04793911 0.05694897
v -0.05315099 -0.05276070 0.05519919
v -0.05206069 -0.05316250 0.05475546
v -0.05103302 -0.05425489 0.05578105
v -0.05111406 -0.05340107 0.05443313
v -0.04617826 -0.05422978 0.05239033
v -0.04617826 -0.05434278 0.05283824
v -0.04617826 -0.05458136 0.05383453
v -0.04947861 -0.05494549 0.05730897
v -0.04947861 -0.05507104 0.05894573
v -0.04617826 -0.05532217 0.06385599
v -0.04617826 -0.05515895 0.06551787
v -0.06249216 -0.04727363 0.05744292
v -0.07406180 -0.00971793 0.05187544
v -0.07565673 -0.02771101 0.05556338
v -0.07578196 -0.02941866 0.05591082
v -0.08150601 -0.01087310 0.05640059
v -0.08189645 -0.01138791 0.05719595
v -0.04617826 -0.05421722 0.05236521
v -0.05013426 -0.05299927 0.05329871
v -0.04804944 -0.05278581 0.05187544
v -0.07304150 -0.03294696 0.05496058
v -0.07536574 -0.03098819 0.05605315
v -0.07506370 -0.03221870 0.05628338
v -0.07365663 -0.03426537 0.05604477
v -0.07333617 -0.03526987 0.05633361
v -0.07186648 -0.03709052 0.05615780
v -0.07033786 -0.03879817 0.05609501
v -0.06324726 -0.04474982 0.05499407
v -0.06375557 -0.04525208 0.05608663
v -0.06318465 -0.04634446 0.05684850
v -0.06209435 -0.04684671 0.05611594
v -0.06097091 -0.04737407 0.05563035
v -0.06047364 -0.04680904 0.05458802
v -0.05969276 -0.04790144 0.05514895
v -0.05203860 -0.05153019 0.05314801
v -0.05111406 -0.05267280 0.05361685
v -0.04617826 -0.05470692 0.05507360
v -0.04617826 -0.05522172 0.06058248
v -0.04620405 -0.05530962 0.06221924
v -0.04617826 -0.05530962 0.06221924
v -0.06718116 -0.03403935 0.05187544
v -0.06893816 -0.03426537 0.05285080
v -0.07322198 -0.03185457 0.05484337
v -0.04817836 -0.05274814 0.05191730
v -0.05111406 -0.05185665 0.05285917
v -0.04924288 -0.05198221 0.05187544
v -0.06975588 -0.03426537 0.05331545
v -0.07195120 -0.03426537 0.05462569
v -0.07169705 -0.03526987 0.05476383
v -0.07276892 -0.03426537 0.05522430
v -0.07132502 -0.03636226 0.05506523
v -0.07083144 -0.03761788 0.05558012
v -0.06971904 -0.03814525 0.05500244
v -0.06377399 -0.04365744 0.05454197
v -0.06215697 -0.04527718 0.05452523
v -0.06156394 -0.04636958 0.05502337
v -0.06267265 -0.04581710 0.05555500
v -0.06095617 -0.04574176 0.05401453
v -0.05965224 -0.04619379 0.05349964
v -0.05070888 -0.05092750 0.05187544
v -0.06704487 -0.03436582 0.05187544
v -0.06734692 -0.03419003 0.05198846
v -0.06865822 -0.03557122 0.05301824
v -0.04992799 -0.05150508 0.05187544
v -0.06916653 -0.03602324 0.05349127
v -0.07076882 -0.03584745 0.05440802
v -0.07023472 -0.03705285 0.05464244
v -0.06198017 -0.04350676 0.05306429
v -0.06307414 -0.04290406 0.05344941
v -0.06143870 -0.04458659 0.05343685
v -0.06261371 -0.04412201 0.05398941
v -0.06034841 -0.04510140 0.05306847
v -0.05918076 -0.04567899 0.05281312
v -0.05765582 -0.04564132 0.05187544
v -0.06590670 -0.03594791 0.05187544
v -0.06760844 -0.03602324 0.05267917
v -0.06824567 -0.03666361 0.05324010
v -0.06209067 -0.04105829 0.05187544
v -0.06109246 -0.04233903 0.05187544
v -0.06085304 -0.04262783 0.05187544
v -0.05939440 -0.04417224 0.05187544
v -0.06091197 -0.04405923 0.05274196
v -0.05800575 -0.04536508 0.05187544
v -0.05940913 -0.04418479 0.05189218
f 1 2 3
f 1 3 4
f 1 4 5
f 1 5 6
f 1 6 7
f 1 7 15
f 1 15 14
f 1 14 16
f 1 16 36
f 1 36 76
f 1 76 126
f 1 126 74
f 1 74 73
f 1 73 72
f 1 72 71
f 1 71 64
f 1 64 122
f 1 122 194
f 1 194 279
f 1 279 368
f 1 368 367
f 1 367 470
f 1 470 586
f 1 586 686
f 1 686 799
f 1 799 801
f 1 801 800
f 1 800 814
f 1 814 813
f 1 813 812
f 1 812 908
f 1 908 907
f 1 907 996
f 1 996 1074
f 1 1074 1140
f 1 1140 1208
f 1 1208 1249
f 1 1249 1248
f 1 1248 1278
f 1 1278 1276
f 1 1276 1275
f 1 1275 1245
f 1 1245 1244
f 1 1244 1243
f 1 1243 1256
f 1 1256 1219
f 1 1219 1164
f 1 1164 1162
f 1 1162 1148
f 1 1148 1147
f 1 1147 1146
f 1 1146 1075
f 1 1075 1001
f 1 1001 1000
f 1 1000 911
f 1 911 910
f 1 910 822
f 1 822 708
f 1 708 707
f 1 707 706
f 1 706 817
f 1 817 697
f 1 697 589
f 1 589 480
f 1 480 384
f 1 384 383
f 1 383 388
f 1 388 479
f 1 479 380
f 1 380 379
f 1 379 378
f 1 378 291
f 1 291 290
f 1 290 289
f 1 289 288
f 1 288 287
f 1 287 202
f 1 202 137
f 1 137 83
f 1 83 39
f 1 39 17
f 1 17 8
f 1 8 2
f 2 8 3
f 3 9 10
f 3 10 4
f 3 8 9
f 4 10 5
f 5 11 12
f 5 12 13
f 5 13 6
f 5 10 11
f 6 14 15
f 6 15 7
f 6 13 16
f 6 16 14
f 8 17 18
f 8 18 19
f 8 19 20
f 8 20 21
f 8 21 9
f 9 21 22
f 9 22 23
f 9 23 24
f 9 24 25
f 9 25 10
f 10 25 26
f 10 26 11
f 11 26 27
f 11 27 28
f 11 28 29
f 11 29 30
f 11 30 31
f 11 31 32
f 11 32 33
f 11 33 34
f 11 34 12
f 12 34 13
f 13 34 35
f 13 35 36
f 13 36 16
f 17 37 38
f 17 38 18
f 17 39 37
f 18 38 19
f 19 38 40
f 19 40 41
f 19 41 42
f 19 42 43
f 19 43 20
f 20 44 22
f 20 22 21
f 20 43 45
f 20 45 44
f 22 46 47
f 22 47 23
f 22 44 45
f 22 45 48
f 22 48 46
f 23 47 49
f 23 49 24
f 24 50 25
f 24 49 51
f 24 51 50
f 25 52 53
f 25 53 26
f 25 50 52
f 26 53 54
f 26 54 55
f 26 55 27
f 27 55 56
f 27 56 57
f 27 57 28
f 28 57 58
f 28 58 59
f 28 59 29
f 29 60 61
f 29 61 62
f 29 62 63
f 29 63 64
f 29 64 31
f 29 31 30
f 29 59 65
f 29 65 66
f 29 66 67
f 29 67 68
f 29 68 69
f 29 69 70
f 29 70 60
f 31 33 32
f 31 64 71
f 31 71 33
f 33 72 73
f 33 73 74
f 33 74 75
f 33 75 35
f 33 35 34
f 33 71 72
f 35 75 36
f 36 75 76
f 37 39 77
f 37 77 78
f 37 78 79
f 37 79 38
f 38 79 80
f 38 80 81
f 38 81 82
f 38 82 40
f 39 83 77
f 40 81 45
f 40 45 41
f 40 82 81
f 41 45 43
f 41 43 42
f 45 81 84
f 45 84 85
f 45 85 86
f 45 86 87
f 45 87 88
f 45 88 46
f 45 46 48
f 46 88 89
f 46 89 90
f 46 90 49
f 46 49 47
f 49 90 91
f 49 91 92
f 49 92 93
f 49 93 51
f 50 94 52
f 50 51 95
f 50 95 96
f 50 96 97
f 50 97 94
f 51 98 155
f 51 155 95
f 51 93 98
f 52 99 100
f 52 100 101
f 52 101 102
f 52 102 53
f 52 94 99
f 53 102 103
f 53 103 104
f 53 104 105
f 53 105 106
f 53 106 54
f 54 106 107
f 54 107 108
f 54 108 109
f 54 109 55
f 55 110 56
f 55 109 111
f 55 111 110
f 56 110 111
f 56 111 112
f 56 112 113
f 56 113 114
f 56 114 115
f 56 115 58
f 56 58 57
f 58 115 116
f 58 116 117
f 58 117 65
f 58 65 59
f 60 70 61
f 61 70 69
f 61 69 118
f 61 118 119
f 61 119 120
f 61 120 62
f 62 120 64
f 62 64 63
f 64 120 121
f 64 121 122
f 65 117 123
f 65 123 67
f 65 67 66
f 67 124 125
f 67 125 118
f 67 118 69
f 67 69 68
f 67 123 124
f 74 126 75
f 75 126 76
f 77 83 127
f 77 127 78
f 78 128 129
f 78 129 79
f 78 127 130
f 78 130 131
f 78 131 132
f 78 132 128
f 79 129 80
f 80 129 128
f 80 128 133
f 80 133 81
f 81 133 134
f 81 134 135
f 81 135 136
f 81 136 84
f 83 137 138
f 83 138 127
f 84 139 85
f 84 136 140
f 84 140 139
f 85 139 86
f 86 139 141
f 86 141 87
f 87 141 142
f 87 142 90
f 87 90 89
f 87 89 143
f 87 143 88
f 88 143 89
f 90 142 144
f 90 144 145
f 90 145 91
f 91 145 146
f 91 146 147
f 91 147 148
f 91 148 92
f 92 148 149
f 92 149 150
f 92 150 93
f 93 150 151
f 93 151 152
f 93 152 98
f 94 153 99
f 94 97 154
f 94 154 153
f 95 155 156
f 95 156 96
f 96 156 157
f 96 157 158
f 96 158 159
f 96 159 97
f 97 159 160
f 97 160 154
f 98 161 156
f 98 156 155
f 98 152 161
f 99 153 162
f 99 162 100
f 100 163 164
f 100 164 165
f 100 165 166
f 100 166 170
f 100 170 167
f 100 167 168
f 100 168 101
f 100 162 163
f 101 168 102
f 102 168 169
f 102 169 170
f 102 170 103
f 103 170 171
f 103 171 172
f 103 172 173
f 103 173 174
f 103 174 104
f 104 174 175
f 104 175 105
f 105 175 176
f 105 176 107
f 105 107 106
f 107 176 177
f 107 177 178
f 107 178 179
f 107 179 180
f 107 180 108
f 108 180 109
f 109 180 111
f 111 181 182
f 111 182 112
f 111 180 183
f 111 183 184
f 111 184 185
f 111 185 186
f 111 186 181
f 112 182 113
f 113 115 114
f 113 182 187
f 113 187 188
f 113 188 116
f 113 116 115
f 116 188 189
f 116 189 117
f 117 189 123
f 118 125 119
f 119 125 190
f 119 190 191
f 119 191 192
f 119 192 193
f 119 193 120
f 120 122 121
f 120 193 122
f 122 193 192
f 122 192 194
f 123 189 188
f 123 188 195
f 123 195 124
f 124 195 196
f 124 196 197
f 124 197 125
f 125 197 190
f 127 138 137
f 127 137 130
f 128 198 199
f 128 199 133
f 128 132 200
f 128 200 201
f 128 201 198
f 130 137 202
f 130 202 203
f 130 203 204
f 130 204 205
f 130 205 206
f 130 206 207
f 130 207 208
f 130 208 209
f 130 209 131
f 131 209 210
f 131 210 211
f 131 211 212
f 131 212 213
f 131 213 132
f 132 213 214
f 132 214 200
f 133 215 216
f 133 216 134
f 133 199 215
f 134 216 135
f 135 216 217
f 135 217 136
f 136 218 219
f 136 219 220
f 136 220 221
f 136 221 149
f 136 149 222
f 136 222 140
f 136 217 223
f 136 223 224
f 136 224 225
f 136 225 226
f 136 226 218
f 139 140 227
f 139 227 228
f 139 228 141
f 140 222 227
f 141 228 145
f 141 145 142
f 142 145 144
f 145 228 146
f 146 228 147
f 147 228 222
f 147 222 148
f 148 222 149
f 149 221 229
f 149 229 230
f 149 230 220
f 149 220 150
f 150 220 151
f 151 220 152
f 152 220 231
f 152 231 157
f 152 157 232
f 152 232 161
f 153 233 162
f 153 154 233
f 154 160 233
f 156 161 232
f 156 232 157
f 157 234 159
f 157 159 158
f 157 231 235
f 157 235 234
f 159 234 236
f 159 236 237
f 159 237 160
f 160 237 238
f 160 238 233
f 162 239 163
f 162 233 239
f 163 240 241
f 163 241 242
f 163 242 243
f 163 243 244
f 163 244 164
f 163 239 245
f 163 245 240
f 164 244 243
f 164 243 165
f 165 246 170
f 165 170 166
f 165 243 246
f 167 170 168
f 168 170 169
f 170 246 247
f 170 247 171
f 171 247 248
f 171 248 249
f 171 249 250
f 171 250 172
f 172 250 251
f 172 251 173
f 173 251 252
f 173 252 253
f 173 253 174
f 174 253 254
f 174 254 175
f 175 254 255
f 175 255 176
f 176 255 256
f 176 256 177
f 177 256 178
f 178 256 257
f 178 257 258
f 178 258 180
f 178 180 179
f 180 258 259
f 180 259 260
f 180 260 261
f 180 261 184
f 180 184 183
f 181 186 182
f 182 186 262
f 182 262 187
f 184 263 264
f 184 264 185
f 184 261 265
f 184 265 263
f 185 264 266
f 185 266 267
f 185 267 186
f 186 267 266
f 186 266 262
f 187 262 266
f 187 266 265
f 187 265 188
f 188 268 269
f 188 269 270
f 188 270 195
f 188 265 268
f 190 197 271
f 190 271 272
f 190 272 273
f 190 273 274
f 190 274 275
f 190 275 276
f 190 276 277
f 190 277 191
f 191 277 192
f 192 277 278
f 192 278 279
f 192 279 194
f 195 280 271
f 195 271 196
f 195 270 269
f 195 269 280
f 196 271 197
f 198 281 282
f 198 282 199
f 198 201 281
f 199 283 215
f 199 282 284
f 199 284 283
f 200 214 201
f 201 214 285
f 201 285 286
f 201 286 281
f 202 287 203
f 203 287 288
f 203 288 289
f 203 289 290
f 203 290 291
f 203 291 292
f 203 292 293
f 203 293 204
f 204 293 294
f 204 294 205
f 205 295 296
f 205 296 297
f 205 297 298
f 205 298 299
f 205 299 300
f 205 300 301
f 205 301 206
f 205 294 293
f 205 293 295
f 206 301 207
f 207 302 303
f 207 303 208
f 207 301 304
f 207 304 302
f 208 210 209
f 208 303 210
f 210 303 305
f 210 305 306
f 210 306 212
f 210 212 211
f 212 307 308
f 212 308 309
f 212 309 310
f 212 310 214
f 212 214 213
f 212 306 311
f 212 311 307
f 214 310 285
f 215 283 217
f 215 217 216
f 217 283 312
f 217 312 223
f 218 313 219
f 218 226 314
f 218 314 313
f 219 313 220
f 220 315 316
f 220 316 317
f 220 317 235
f 220 235 231
f 220 230 229
f 220 229 221
f 220 313 318
f 220 318 319
f 220 319 320
f 220 320 321
f 220 321 322
f 220 322 315
f 222 228 227
f 223 312 323
f 223 323 324
f 223 324 325
f 223 325 286
f 223 286 326
f 223 326 327
f 223 327 328
f 223 328 329
f 223 329 224
f 224 329 226
f 224 226 225
f 226 329 330
f 226 330 331
f 226 331 332
f 226 332 333
f 226 333 334
f 226 334 335
f 226 335 314
f 233 238 245
f 233 245 239
f 234 336 236
f 234 235 336
f 235 317 337
f 235 337 336
f 236 336 238
f 236 238 237
f 238 336 337
f 238 337 338
f 238 338 339
f 238 339 340
f 238 340 245
f 240 341 241
f 240 245 340
f 240 340 341
f 241 341 242
f 242 341 247
f 242 247 246
f 242 246 243
f 247 341 248
f 248 341 249
f 249 342 250
f 249 341 340
f 249 340 342
f 250 343 344
f 250 344 345
f 250 345 346
f 250 346 252
f 250 252 251
f 250 342 343
f 252 346 347
f 252 347 348
f 252 348 253
f 253 349 254
f 253 348 257
f 253 257 350
f 253 350 349
f 254 349 256
f 254 256 255
f 256 350 257
f 256 349 350
f 257 347 258
f 257 348 347
f 258 347 259
f 259 347 346
f 259 346 260
f 260 351 261
f 260 346 351
f 261 351 352
f 261 352 353
f 261 353 354
f 261 354 355
f 261 355 356
f 261 356 357
f 261 357 358
f 261 358 269
f 261 269 268
f 261 268 265
f 263 265 266
f 263 266 264
f 269 358 357
f 269 357 280
f 271 280 359
f 271 359 360
f 271 360 361
f 271 361 272
f 272 362 273
f 272 361 363
f 272 363 362
f 273 362 364
f 273 364 365
f 273 365 366
f 273 366 275
f 273 275 274
f 275 366 365
f 275 365 367
f 275 367 277
f 275 277 276
f 277 367 368
f 277 368 278
f 278 368 279
f 280 369 360
f 280 360 359
f 280 357 369
f 281 286 370
f 281 370 282
f 282 370 371
f 282 371 372
f 282 372 284
f 283 284 312
f 284 372 323
f 284 323 312
f 285 310 309
f 285 309 373
f 285 373 286
f 286 374 326
f 286 325 370
f 286 373 375
f 286 375 376
f 286 376 377
f 286 377 374
f 291 378 292
f 292 378 379
f 292 379 295
f 292 295 293
f 295 379 380
f 295 380 381
f 295 381 296
f 296 381 297
f 297 381 382
f 297 382 298
f 298 383 384
f 298 384 385
f 298 385 386
f 298 386 387
f 298 387 299
f 298 382 381
f 298 381 388
f 298 388 383
f 299 387 389
f 299 389 390
f 299 390 300
f 300 390 391
f 300 391 301
f 301 391 392
f 301 392 304
f 302 393 305
f 302 305 303
f 302 304 394
f 302 394 395
f 302 395 393
f 304 392 396
f 304 396 394
f 305 393 306
f 306 393 397
f 306 397 311
f 307 398 399
f 307 399 400
f 307 400 309
f 307 309 308
f 307 311 397
f 307 397 398
f 309 400 401
f 309 401 402
f 309 402 376
f 309 376 373
f 313 403 404
f 313 404 318
f 313 314 405
f 313 405 406
f 313 406 403
f 314 335 407
f 314 407 405
f 315 322 316
f 316 408 317
f 316 322 409
f 316 409 408
f 317 408 410
f 317 410 337
f 318 411 319
f 318 404 411
f 319 411 412
f 319 412 413
f 319 413 320
f 320 413 321
f 321 413 322
f 322 413 414
f 322 414 415
f 322 415 416
f 322 416 409
f 323 372 325
f 323 325 324
f 325 372 370
f 326 374 327
f 327 417 328
f 327 374 417
f 328 417 329
f 329 417 330
f 330 418 332
f 330 332 331
f 330 417 418
f 332 419 420
f 332 420 333
f 332 418 421
f 332 421 419
f 333 422 423
f 333 423 424
f 333 424 334
f 333 420 422
f 334 424 335
f 335 424 425
f 335 425 407
f 337 410 408
f 337 408 338
f 338 426 427
f 338 427 428
f 338 428 429
f 338 429 339
f 338 408 426
f 339 429 430
f 339 430 342
f 339 342 340
f 342 431 432
f 342 432 433
f 342 433 343
f 342 430 431
f 343 434 435
f 343 435 344
f 343 433 436
f 343 436 434
f 344 435 437
f 344 437 438
f 344 438 439
f 344 439 440
f 344 440 441
f 344 441 442
f 344 442 346
f 344 346 345
f 346 442 441
f 346 441 443
f 346 443 351
f 351 443 352
f 352 443 444
f 352 444 353
f 353 445 446
f 353 446 354
f 353 444 447
f 353 447 448
f 353 448 449
f 353 449 450
f 353 450 451
f 353 451 452
f 353 452 453
f 353 453 454
f 353 454 455
f 353 455 456
f 353 456 445
f 354 446 355
f 355 445 457
f 355 457 357
f 355 357 356
f 355 446 445
f 357 457 369
f 360 458 459
f 360 459 460
f 360 460 461
f 360 461 361
f 360 369 457
f 360 457 458
f 361 461 462
f 361 462 363
f 362 363 463
f 362 463 464
f 362 464 364
f 363 462 465
f 363 465 464
f 363 464 463
f 364 464 466
f 364 466 365
f 365 466 467
f 365 467 468
f 365 468 367
f 367 468 469
f 367 469 470
f 370 372 371
f 373 376 375
f 374 471 472
f 374 472 473
f 374 473 474
f 374 474 417
f 374 377 376
f 374 376 475
f 374 475 471
f 376 476 477
f 376 477 478
f 376 478 475
f 376 402 401
f 376 401 476
f 380 479 381
f 381 479 388
f 384 480 385
f 385 480 481
f 385 481 386
f 386 389 387
f 386 481 389
f 389 481 482
f 389 482 483
f 389 483 484
f 389 484 485
f 389 485 390
f 390 485 391
f 391 485 486
f 391 486 392
f 392 486 487
f 392 487 396
f 393 488 397
f 393 395 394
f 393 394 488
f 394 396 489
f 394 489 490
f 394 490 491
f 394 491 488
f 396 487 492
f 396 492 493
f 396 493 489
f 397 494 495
f 397 495 398
f 397 488 496
f 397 496 497
f 397 497 494
f 398 498 499
f 398 499 500
f 398 500 501
f 398 501 399
f 398 495 498
f 399 501 400
f 400 501 401
f 401 501 502
f 401 502 476
f 403 503 404
f 403 406 503
f 404 503 504
f 404 504 411
f 405 407 505
f 405 505 506
f 405 506 507
f 405 507 406
f 406 507 508
f 406 508 509
f 406 509 503
f 407 510 505
f 407 425 510
f 408 409 426
f 409 416 511
f 409 511 426
f 411 504 512
f 411 512 412
f 412 512 513
f 412 513 514
f 412 514 413
f 413 514 515
f 413 515 414
f 414 515 516
f 414 516 517
f 414 517 518
f 414 518 415
f 415 518 519
f 415 519 520
f 415 520 521
f 415 521 416
f 416 521 511
f 417 474 522
f 417 522 418
f 418 523 524
f 418 524 525
f 418 525 422
f 418 422 421
f 418 522 473
f 418 473 526
f 418 526 527
f 418 527 523
f 419 421 422
f 419 422 420
f 422 528 529
f 422 529 530
f 422 530 423
f 422 525 531
f 422 531 528
f 423 530 424
f 424 532 533
f 424 533 425
f 424 530 532
f 425 533 534
f 425 534 535
f 425 535 510
f 426 511 536
f 426 536 537
f 426 537 427
f 427 537 432
f 427 432 428
f 428 432 431
f 428 431 429
f 429 431 430
f 432 537 538
f 432 538 539
f 432 539 540
f 432 540 433
f 433 540 436
f 434 541 542
f 434 542 543
f 434 543 437
f 434 437 435
f 434 436 544
f 434 544 545
f 434 545 541
f 436 540 544
f 437 543 438
f 438 440 439
f 438 543 440
f 440 543 546
f 440 546 547
f 440 547 443
f 440 443 441
f 443 548 444
f 443 547 549
f 443 549 550
f 443 550 548
f 444 548 447
f 445 456 457
f 447 551 448
f 447 548 552
f 447 552 551
f 448 553 450
f 448 450 449
f 448 551 554
f 448 554 555
f 448 555 556
f 448 556 553
f 450 553 557
f 450 557 451
f 451 557 452
f 452 558 453
f 452 557 559
f 452 559 558
f 453 558 560
f 453 560 454
f 454 560 559
f 454 559 455
f 455 559 561
f 455 561 562
f 455 562 456
f 456 562 563
f 456 563 457
f 457 563 564
f 457 564 565
f 457 565 566
f 457 566 567
f 457 567 568
f 457 568 458
f 458 568 569
f 458 569 570
f 458 570 571
f 458 571 459
f 459 571 572
f 459 572 573
f 459 573 574
f 459 574 575
f 459 575 576
f 459 576 460
f 460 576 461
f 461 576 577
f 461 577 578
f 461 578 579
f 461 579 462
f 462 579 465
f 464 465 580
f 464 580 581
f 464 581 582
f 464 582 467
f 464 467 466
f 465 579 580
f 467 582 468
f 468 582 583
f 468 583 469
f 469 583 470
f 470 583 584
f 470 584 585
f 470 585 586
f 471 475 478
f 471 478 473
f 471 473 472
f 473 522 474
f 473 478 587
f 473 587 526
f 476 502 477
f 477 502 588
f 477 588 587
f 477 587 478
f 480 589 590
f 480 590 481
f 481 590 591
f 481 591 482
f 482 591 483
f 483 591 592
f 483 592 593
f 483 593 484
f 484 593 492
f 484 492 486
f 484 486 485
f 486 492 487
f 488 491 496
f 489 493 594
f 489 594 490
f 490 594 595
f 490 595 491
f 491 595 496
f 492 593 596
f 492 596 597
f 492 597 598
f 492 598 599
f 492 599 600
f 492 600 601
f 492 601 493
f 493 601 594
f 494 497 602
f 494 602 603
f 494 603 498
f 494 498 495
f 496 595 497
f 497 595 602
f 498 603 604
f 498 604 605
f 498 605 606
f 498 606 500
f 498 500 499
f 500 606 501
f 501 606 588
f 501 588 502
f 503 509 504
f 504 509 607
f 504 607 512
f 505 510 506
f 506 512 607
f 506 607 507
f 506 510 608
f 506 608 609
f 506 609 512
f 507 607 508
f 508 607 509
f 510 535 608
f 511 521 610
f 511 610 611
f 511 611 612
f 511 612 536
f 512 613 614
f 512 614 513
f 512 609 615
f 512 615 529
f 512 529 613
f 513 614 613
f 513 613 616
f 513 616 617
f 513 617 618
f 513 618 619
f 513 619 517
f 513 517 515
f 513 515 514
f 515 517 516
f 517 619 617
f 517 617 620
f 517 620 621
f 517 621 518
f 518 621 519
f 519 621 520
f 520 622 610
f 520 610 521
f 520 621 623
f 520 623 622
f 523 624 625
f 523 625 524
f 523 527 624
f 524 625 626
f 524 626 531
f 524 531 525
f 526 587 627
f 526 627 628
f 526 628 629
f 526 629 527
f 527 629 630
f 527 630 624
f 528 531 631
f 528 631 632
f 528 632 529
f 529 633 613
f 529 615 533
f 529 533 530
f 529 632 634
f 529 634 635
f 529 635 636
f 529 636 616
f 529 616 633
f 530 533 532
f 531 626 637
f 531 637 631
f 533 615 534
f 534 615 609
f 534 609 535
f 535 609 608
f 536 612 638
f 536 638 639
f 536 639 537
f 537 639 640
f 537 640 538
f 538 640 641
f 538 641 542
f 538 542 541
f 538 541 539
f 539 545 544
f 539 544 540
f 539 541 545
f 542 641 642
f 542 642 543
f 543 642 546
f 546 642 643
f 546 643 644
f 546 644 547
f 547 645 646
f 547 646 647
f 547 647 648
f 547 648 550
f 547 550 549
f 547 644 645
f 548 550 552
f 550 648 647
f 550 647 552
f 551 555 554
f 551 552 555
f 552 647 649
f 552 649 650
f 552 650 555
f 553 556 651
f 553 651 557
f 555 650 556
f 556 650 651
f 557 651 652
f 557 652 653
f 557 653 654
f 557 654 559
f 558 559 655
f 558 655 560
f 559 656 657
f 559 657 658
f 559 658 659
f 559 659 561
f 559 560 655
f 559 654 656
f 561 659 562
f 562 659 658
f 562 658 563
f 563 658 657
f 563 657 660
f 563 660 661
f 563 661 564
f 564 661 660
f 564 660 662
f 564 662 663
f 564 663 664
f 564 664 665
f 564 665 565
f 565 665 566
f 566 665 567
f 567 666 667
f 567 667 668
f 567 668 569
f 567 569 568
f 567 665 669
f 567 669 666
f 569 668 670
f 569 670 571
f 569 571 570
f 571 670 572
f 572 670 573
f 573 670 671
f 573 671 672
f 573 672 673
f 573 673 674
f 573 674 675
f 573 675 574
f 574 675 575
f 575 675 676
f 575 676 677
f 575 677 678
f 575 678 679
f 575 679 680
f 575 680 576
f 576 680 577
f 577 680 681
f 577 681 578
f 578 681 579
f 579 681 682
f 579 682 580
f 580 682 581
f 581 682 678
f 581 678 582
f 582 678 683
f 582 683 684
f 582 684 583
f 583 585 584
f 583 684 585
f 585 685 686
f 585 686 586
f 585 684 687
f 585 687 688
f 585 688 689
f 585 689 690
f 585 690 691
f 585 691 692
f 585 692 693
f 585 693 685
f 587 588 694
f 587 694 695
f 587 695 696
f 587 696 627
f 588 606 605
f 588 605 694
f 589 697 698
f 589 698 590
f 590 698 699
f 590 699 591
f 591 699 592
f 592 597 596
f 592 596 593
f 592 699 597
f 594 601 700
f 594 700 701
f 594 701 702
f 594 702 595
f 595 703 602
f 595 702 704
f 595 704 703
f 597 699 598
f 598 699 705
f 598 705 706
f 598 706 707
f 598 707 708
f 598 708 599
f 599 708 709
f 599 709 710
f 599 710 711
f 599 711 600
f 600 712 700
f 600 700 601
f 600 711 713
f 600 713 712
f 602 703 704
f 602 704 714
f 602 714 604
f 602 604 603
f 604 715 716
f 604 716 605
f 604 714 717
f 604 717 715
f 605 716 715
f 605 715 718
f 605 718 719
f 605 719 694
f 610 720 721
f 610 721 611
f 610 622 722
f 610 722 720
f 611 721 723
f 611 723 724
f 611 724 725
f 611 725 612
f 612 725 726
f 612 726 638
f 613 633 616
f 616 636 727
f 616 727 728
f 616 728 729
f 616 729 730
f 616 730 731
f 616 731 732
f 616 732 733
f 616 733 734
f 616 734 617
f 617 734 623
f 617 623 620
f 617 619 618
f 620 623 621
f 622 623 722
f 623 734 733
f 623 733 732
f 623 732 735
f 623 735 722
f 624 736 625
f 624 630 736
f 625 736 737
f 625 737 738
f 625 738 626
f 626 738 739
f 626 739 637
f 627 696 628
f 628 740 741
f 628 741 630
f 628 630 629
f 628 696 695
f 628 695 694
f 628 694 740
f 630 742 736
f 630 741 743
f 630 743 742
f 631 744 745
f 631 745 746
f 631 746 747
f 631 747 748
f 631 748 635
f 631 635 634
f 631 634 632
f 631 637 739
f 631 739 744
f 635 748 636
f 636 748 727
f 638 726 749
f 638 749 750
f 638 750 639
f 639 750 641
f 639 641 640
f 641 750 642
f 642 750 643
f 643 751 644
f 643 750 749
f 643 749 751
f 644 752 753
f 644 753 754
f 644 754 645
f 644 751 752
f 645 754 646
f 646 754 755
f 646 755 647
f 647 755 649
f 649 755 756
f 649 756 650
f 650 756 757
f 650 757 651
f 651 757 758
f 651 758 652
f 652 758 759
f 652 759 760
f 652 760 653
f 653 760 761
f 653 761 762
f 653 762 654
f 654 762 763
f 654 763 656
f 656 764 765
f 656 765 766
f 656 766 767
f 656 767 657
f 656 763 764
f 657 767 660
f 660 767 662
f 662 768 769
f 662 769 770
f 662 770 771
f 662 771 772
f 662 772 663
f 662 767 768
f 663 772 773
f 663 773 664
f 664 773 665
f 665 774 666
f 665 666 669
f 665 773 774
f 666 775 776
f 666 776 777
f 666 777 778
f 666 778 667
f 666 774 779
f 666 779 775
f 667 778 780
f 667 780 668
f 668 780 781
f 668 781 670
f 670 781 782
f 670 782 783
f 670 783 784
f 670 784 671
f 671 784 672
f 672 785 786
f 672 786 787
f 672 787 788
f 672 788 673
f 672 784 783
f 672 783 789
f 672 789 785
f 673 788 674
f 674 788 790
f 674 790 791
f 674 791 792
f 674 792 793
f 674 793 794
f 674 794 795
f 674 795 796
f 674 796 675
f 675 796 676
f 676 796 677
f 677 796 683
f 677 683 678
f 678 682 681
f 678 681 679
f 679 681 680
f 683 796 797
f 683 797 684
f 684 797 798
f 684 798 687
f 685 799 686
f 685 693 800
f 685 800 801
f 685 801 799
f 687 798 689
f 687 689 688
f 689 798 802
f 689 802 803
f 689 803 804
f 689 804 805
f 689 805 806
f 689 806 690
f 690 806 691
f 691 806 807
f 691 807 808
f 691 808 809
f 691 809 810
f 691 810 693
f 691 693 692
f 693 810 811
f 693 811 812
f 693 812 813
f 693 813 814
f 693 814 800
f 694 815 816
f 694 816 740
f 694 719 715
f 694 715 815
f 697 817 698
f 698 817 699
f 699 817 706
f 699 706 705
f 700 712 702
f 700 702 701
f 702 712 818
f 702 818 819
f 702 819 704
f 704 819 820
f 704 820 821
f 704 821 717
f 704 717 714
f 708 822 823
f 708 823 710
f 708 710 709
f 710 823 824
f 710 824 825
f 710 825 713
f 710 713 711
f 712 826 818
f 712 713 827
f 712 827 826
f 713 828 827
f 713 825 828
f 715 829 830
f 715 830 831
f 715 831 832
f 715 832 815
f 715 719 718
f 715 717 829
f 717 821 829
f 720 722 833
f 720 833 723
f 720 723 721
f 722 735 833
f 723 834 835
f 723 835 836
f 723 836 724
f 723 833 837
f 723 837 834
f 724 835 838
f 724 838 725
f 724 836 835
f 725 838 726
f 726 838 839
f 726 839 749
f 727 748 840
f 727 840 842
f 727 842 728
f 728 841 729
f 728 842 841
f 729 841 730
f 730 843 844
f 730 844 845
f 730 845 846
f 730 846 847
f 730 847 731
f 730 841 843
f 731 847 732
f 732 847 735
f 735 847 848
f 735 848 833
f 736 849 737
f 736 742 849
f 737 849 850
f 737 850 738
f 738 850 739
f 739 850 744
f 740 743 741
f 740 816 743
f 742 743 851
f 742 851 852
f 742 852 849
f 743 852 851
f 743 816 815
f 743 815 853
f 743 853 854
f 743 854 852
f 744 850 855
f 744 855 745
f 745 841 746
f 745 855 843
f 745 843 841
f 746 841 842
f 746 842 840
f 746 840 747
f 747 840 748
f 749 839 751
f 751 856 857
f 751 857 752
f 751 839 858
f 751 858 859
f 751 859 856
f 752 857 860
f 752 860 753
f 753 860 861
f 753 861 862
f 753 862 754
f 754 862 863
f 754 863 755
f 755 863 756
f 756 863 758
f 756 758 757
f 758 863 864
f 758 864 865
f 758 865 866
f 758 866 867
f 758 867 759
f 759 867 760
f 760 867 868
f 760 868 869
f 760 869 870
f 760 870 761
f 761 871 872
f 761 872 873
f 761 873 874
f 761 874 762
f 761 870 871
f 762 874 763
f 763 874 875
f 763 875 766
f 763 766 764
f 764 766 765
f 766 875 876
f 766 876 768
f 766 768 767
f 768 877 769
f 768 876 875
f 768 875 878
f 768 878 879
f 768 879 880
f 768 880 881
f 768 881 882
f 768 882 877
f 769 877 771
f 769 771 770
f 771 877 883
f 771 883 773
f 771 773 772
f 773 883 774
f 774 883 779
f 775 884 885
f 775 885 776
f 775 779 882
f 775 882 886
f 775 886 884
f 776 885 777
f 777 885 789
f 777 789 778
f 778 789 783
f 778 783 782
f 778 782 781
f 778 781 780
f 779 883 882
f 785 789 885
f 785 885 786
f 786 885 887
f 786 887 888
f 786 888 889
f 786 889 790
f 786 790 788
f 786 788 787
f 790 889 890
f 790 890 791
f 791 890 891
f 791 891 792
f 792 891 892
f 792 892 794
f 792 794 793
f 794 892 893
f 794 893 795
f 795 894 895
f 795 895 896
f 795 896 798
f 795 798 796
f 795 893 984
f 795 984 894
f 796 798 797
f 798 896 803
f 798 803 802
f 803 896 897
f 803 897 898
f 803 898 804
f 804 898 899
f 804 899 805
f 805 899 807
f 805 807 806
f 807 899 898
f 807 898 900
f 807 900 901
f 807 901 902
f 807 902 903
f 807 903 904
f 807 904 905
f 807 905 906
f 807 906 808
f 808 906 809
f 809 811 810
f 809 906 811
f 811 905 907
f 811 907 908
f 811 908 812
f 811 906 905
f 815 832 853
f 818 909 819
f 818 826 909
f 819 909 820
f 820 854 821
f 820 909 854
f 821 854 829
f 822 910 823
f 823 910 911
f 823 911 912
f 823 912 913
f 823 913 824
f 824 913 914
f 824 914 825
f 825 914 828
f 826 827 909
f 827 828 909
f 828 914 915
f 828 915 909
f 829 853 830
f 829 854 853
f 830 853 831
f 831 853 832
f 833 848 837
f 834 837 916
f 834 916 917
f 834 917 835
f 835 917 918
f 835 918 838
f 837 848 919
f 837 919 916
f 838 918 920
f 838 920 858
f 838 858 839
f 843 855 844
f 844 855 921
f 844 921 845
f 845 919 846
f 845 921 922
f 845 922 923
f 845 923 924
f 845 924 916
f 845 916 919
f 846 848 847
f 846 919 848
f 849 852 925
f 849 925 926
f 849 926 927
f 849 927 850
f 850 927 928
f 850 928 929
f 850 929 930
f 850 930 931
f 850 931 932
f 850 932 933
f 850 933 934
f 850 934 921
f 850 921 855
f 852 927 925
f 852 854 935
f 852 935 936
f 852 936 937
f 852 937 927
f 854 909 938
f 854 938 936
f 854 936 935
f 856 939 857
f 856 859 939
f 857 940 860
f 857 939 941
f 857 941 940
f 858 942 859
f 858 920 942
f 859 942 920
f 859 920 943
f 859 943 944
f 859 944 945
f 859 945 946
f 859 946 940
f 859 940 941
f 859 941 939
f 860 940 861
f 861 940 947
f 861 947 948
f 861 948 949
f 861 949 862
f 862 949 864
f 862 864 863
f 864 949 950
f 864 950 865
f 865 951 952
f 865 952 953
f 865 953 954
f 865 954 866
f 865 950 951
f 866 954 955
f 866 955 868
f 866 868 867
f 868 955 956
f 868 956 869
f 869 956 870
f 870 956 871
f 871 873 872
f 871 956 957
f 871 957 958
f 871 958 873
f 873 958 874
f 874 958 875
f 875 958 878
f 877 882 883
f 878 958 959
f 878 959 960
f 878 960 961
f 878 961 962
f 878 962 963
f 878 963 879
f 879 964 880
f 879 963 964
f 880 964 965
f 880 965 966
f 880 966 881
f 881 966 967
f 881 967 882
f 882 968 886
f 882 967 968
f 884 886 969
f 884 969 970
f 884 970 971
f 884 971 885
f 885 971 972
f 885 972 973
f 885 973 887
f 886 968 974
f 886 974 975
f 886 975 969
f 887 973 972
f 887 972 976
f 887 976 977
f 887 977 978
f 887 978 888
f 888 978 979
f 888 979 889
f 889 979 891
f 889 891 890
f 891 979 980
f 891 980 981
f 891 981 982
f 891 982 892
f 892 983 984
f 892 984 893
f 892 982 983
f 894 984 985
f 894 985 895
f 895 985 897
f 895 897 896
f 897 986 898
f 897 985 986
f 898 986 987
f 898 987 900
f 900 987 988
f 900 988 989
f 900 989 990
f 900 990 901
f 901 990 902
f 902 991 992
f 902 992 993
f 902 993 903
f 902 990 994
f 902 994 991
f 903 993 904
f 904 993 995
f 904 995 905
f 905 995 907
f 907 995 996
f 909 915 997
f 909 997 998
f 909 998 999
f 909 999 938
f 911 1000 912
f 912 1000 915
f 912 915 913
f 913 915 914
f 915 1000 1001
f 915 1001 1002
f 915 1002 1003
f 915 1003 997
f 916 924 1004
f 916 1004 917
f 917 1004 943
f 917 943 920
f 917 920 918
f 921 934 933
f 921 933 922
f 922 933 923
f 923 1005 1006
f 923 1006 1007
f 923 1007 924
f 923 933 1005
f 924 1007 1008
f 924 1008 1004
f 925 927 926
f 927 1009 1010
f 927 1010 1011
f 927 1011 928
f 927 937 1012
f 927 1012 1009
f 928 1011 1013
f 928 1013 1014
f 928 1014 929
f 929 1014 930
f 930 1014 1013
f 930 1013 1011
f 930 1011 1010
f 930 1010 1009
f 930 1009 1084
f 930 1084 1156
f 930 1156 1167
f 930 1167 1166
f 930 1166 1165
f 930 1165 1164
f 930 1164 1219
f 930 1219 1258
f 930 1258 1284
f 930 1284 1302
f 930 1302 1298
f 930 1298 1312
f 930 1312 1321
f 930 1321 1319
f 930 1319 1318
f 930 1318 1317
f 930 1317 1316
f 930 1316 1313
f 930 1313 1299
f 930 1299 1279
f 930 1279 1251
f 930 1251 1213
f 930 1213 1212
f 930 1212 1211
f 930 1211 1161
f 930 1161 1160
f 930 1160 1159
f 930 1159 1158
f 930 1158 1157
f 930 1157 1086
f 930 1086 1015
f 930 1015 931
f 931 1015 1016
f 931 1016 1017
f 931 1017 933
f 931 933 932
f 933 1017 1005
f 936 938 1018
f 936 1018 1019
f 936 1019 937
f 937 1019 1020
f 937 1020 1021
f 937 1021 1012
f 938 999 1018
f 940 946 947
f 943 1004 944
f 944 1022 1023
f 944 1023 945
f 944 1004 1008
f 944 1008 1022
f 945 1023 1024
f 945 1024 946
f 946 1024 1025
f 946 1025 947
f 947 1026 1027
f 947 1027 950
f 947 950 948
f 947 1025 1026
f 948 950 949
f 950 1027 1028
f 950 1028 951
f 951 1028 952
f 952 1028 1029
f 952 1029 1030
f 952 1030 1031
f 952 1031 1032
f 952 1032 1033
f 952 1033 959
f 952 959 957
f 952 957 1034
f 952 1034 953
f 953 1034 954
f 954 1034 957
f 954 957 1035
f 954 1035 955
f 955 1035 957
f 955 957 956
f 957 959 958
f 959 1033 1036
f 959 1036 1037
f 959 1037 1038
f 959 1038 960
f 960 1038 1039
f 960 1039 962
f 960 962 961
f 962 1039 1040
f 962 1040 1041
f 962 1041 964
f 962 964 963
f 964 1041 1042
f 964 1042 1043
f 964 1043 965
f 965 1043 966
f 966 1043 1044
f 966 1044 967
f 967 1044 974
f 967 974 968
f 969 1045 970
f 969 975 1045
f 970 1045 1046
f 970 1046 1047
f 970 1047 972
f 970 972 971
f 972 1047 1048
f 972 1048 976
f 974 1044 1043
f 974 1043 975
f 975 1043 1049
f 975 1049 1045
f 976 1050 1051
f 976 1051 977
f 976 1048 1050
f 977 1051 1052
f 977 1052 978
f 978 1052 1053
f 978 1053 1054
f 978 1054 981
f 978 981 980
f 978 980 979
f 981 1055 1056
f 981 1056 982
f 981 1054 1057
f 981 1057 1055
f 982 1056 983
f 983 1056 1058
f 983 1058 1059
f 983 1059 984
f 984 1060 1061
f 984 1061 985
f 984 1059 1060
f 985 1061 986
f 986 1061 987
f 987 1061 1062
f 987 1062 1063
f 987 1063 988
f 988 1063 989
f 989 994 990
f 989 1063 994
f 991 1064 992
f 991 994 1065
f 991 1065 1064
f 992 1064 1066
f 992 1066 1067
f 992 1067 1068
f 992 1068 993
f 993 1068 995
f 994 1069 1065
f 994 1063 1070
f 994 1070 1071
f 994 1071 1072
f 994 1072 1073
f 994 1073 1069
f 995 1068 996
f 996 1068 1074
f 997 1003 998
f 998 1003 999
f 999 1003 1018
f 1001 1075 1002
f 1002 1076 1003
f 1002 1075 1076
f 1003 1076 1077
f 1003 1077 1078
f 1003 1078 1079
f 1003 1079 1018
f 1005 1017 1080
f 1005 1080 1006
f 1006 1080 1081
f 1006 1081 1082
f 1006 1082 1007
f 1007 1082 1083
f 1007 1083 1022
f 1007 1022 1008
f 1009 1012 1084
f 1012 1021 1085
f 1012 1085 1084
f 1015 1086 1087
f 1015 1087 1016
f 1016 1087 1017
f 1017 1087 1088
f 1017 1088 1080
f 1018 1079 1020
f 1018 1020 1019
f 1020 1079 1089
f 1020 1089 1021
f 1021 1089 1090
f 1021 1090 1091
f 1021 1091 1092
f 1021 1092 1085
f 1022 1083 1093
f 1022 1093 1023
f 1023 1094 1095
f 1023 1095 1024
f 1023 1093 1096
f 1023 1096 1094
f 1024 1095 1025
f 1025 1095 1026
f 1026 1095 1097
f 1026 1097 1029
f 1026 1029 1028
f 1026 1028 1027
f 1029 1097 1098
f 1029 1098 1030
f 1030 1099 1031
f 1030 1098 1099
f 1031 1099 1100
f 1031 1100 1032
f 1032 1100 1033
f 1033 1037 1036
f 1033 1100 1037
f 1037 1100 1101
f 1037 1101 1039
f 1037 1039 1038
f 1039 1102 1040
f 1039 1101 1102
f 1040 1102 1042
f 1040 1042 1041
f 1042 1102 1103
f 1042 1103 1104
f 1042 1104 1105
f 1042 1105 1106
f 1042 1106 1043
f 1043 1106 1107
f 1043 1107 1108
f 1043 1108 1109
f 1043 1109 1049
f 1045 1049 1110
f 1045 1110 1046
f 1046 1110 1111
f 1046 1111 1047
f 1047 1111 1112
f 1047 1112 1048
f 1048 1112 1050
f 1049 1109 1113
f 1049 1113 1114
f 1049 1114 1110
f 1050 1112 1115
f 1050 1115 1116
f 1050 1116 1051
f 1051 1116 1117
f 1051 1117 1052
f 1052 1117 1118
f 1052 1118 1053
f 1053 1119 1120
f 1053 1120 1055
f 1053 1055 1057
f 1053 1057 1054
f 1053 1118 1119
f 1055 1120 1121
f 1055 1121 1122
f 1055 1122 1056
f 1056 1123 1124
f 1056 1124 1125
f 1056 1125 1058
f 1056 1122 1123
f 1058 1125 1126
f 1058 1126 1127
f 1058 1127 1060
f 1058 1060 1059
f 1060 1127 1128
f 1060 1128 1129
f 1060 1129 1130
f 1060 1130 1061
f 1061 1130 1062
f 1062 1130 1063
f 1063 1130 1070
f 1064 1065 1131
f 1064 1131 1132
f 1064 1132 1133
f 1064 1133 1134
f 1064 1134 1066
f 1065 1135 1131
f 1065 1069 1135
f 1066 1134 1136
f 1066 1136 1137
f 1066 1137 1067
f 1067 1137 1138
f 1067 1138 1139
f 1067 1139 1068
f 1068 1139 1140
f 1068 1140 1074
f 1069 1073 1141
f 1069 1141 1142
f 1069 1142 1135
f 1070 1130 1071
f 1071 1130 1129
f 1071 1129 1072
f 1072 1129 1143
f 1072 1143 1144
f 1072 1144 1145
f 1072 1145 1073
f 1073 1145 1142
f 1073 1142 1141
f 1075 1146 1076
f 1076 1146 1147
f 1076 1147 1078
f 1076 1078 1077
f 1078 1089 1079
f 1078 1147 1148
f 1078 1148 1149
f 1078 1149 1089
f 1080 1088 1150
f 1080 1150 1081
f 1081 1150 1151
f 1081 1151 1152
f 1081 1152 1082
f 1082 1152 1153
f 1082 1153 1083
f 1083 1153 1154
f 1083 1154 1155
f 1083 1155 1093
f 1084 1085 1156
f 1085 1092 1156
f 1086 1157 1087
f 1087 1157 1158
f 1087 1158 1159
f 1087 1159 1088
f 1088 1159 1160
f 1088 1160 1161
f 1088 1161 1150
f 1089 1149 1162
f 1089 1162 1163
f 1089 1163 1164
f 1089 1164 1090
f 1090 1164 1091
f 1091 1164 1165
f 1091 1165 1166
f 1091 1166 1092
f 1092 1166 1167
f 1092 1167 1156
f 1093 1168 1096
f 1093 1155 1169
f 1093 1169 1168
f 1094 1096 1095
f 1095 1096 1097
f 1096 1168 1170
f 1096 1170 1171
f 1096 1171 1098
f 1096 1098 1097
f 1098 1171 1172
f 1098 1172 1099
f 1099 1173 1174
f 1099 1174 1175
f 1099 1175 1100
f 1099 1172 1173
f 1100 1175 1101
f 1101 1175 1174
f 1101 1174 1102
f 1102 1174 1173
f 1102 1173 1103
f 1103 1176 1177
f 1103 1177 1178
f 1103 1178 1179
f 1103 1179 1104
f 1103 1173 1180
f 1103 1180 1176
f 1104 1179 1105
f 1105 1107 1106
f 1105 1179 1181
f 1105 1181 1113
f 1105 1113 1109
f 1105 1109 1108
f 1105 1108 1107
f 1110 1114 1182
f 1110 1182 1111
f 1111 1182 1183
f 1111 1183 1112
f 1112 1183 1115
f 1113 1184 1114
f 1113 1181 1179
f 1113 1179 1184
f 1114 1184 1185
f 1114 1185 1182
f 1115 1183 1185
f 1115 1185 1116
f 1116 1185 1186
f 1116 1186 1117
f 1117 1186 1118
f 1118 1186 1187
f 1118 1187 1119
f 1119 1188 1121
f 1119 1121 1120
f 1119 1187 1188
f 1121 1188 1122
f 1122 1188 1189
f 1122 1189 1190
f 1122 1190 1123
f 1123 1191 1124
f 1123 1190 1191
f 1124 1191 1125
f 1125 1191 1126
f 1126 1191 1192
f 1126 1192 1193
f 1126 1193 1127
f 1127 1193 1128
f 1128 1193 1143
f 1128 1143 1129
f 1131 1135 1142
f 1131 1142 1194
f 1131 1194 1132
f 1132 1195 1133
f 1132 1194 1196
f 1132 1196 1197
f 1132 1197 1198
f 1132 1198 1195
f 1133 1195 1199
f 1133 1199 1134
f 1134 1200 1136
f 1134 1199 1201
f 1134 1201 1200
f 1136 1200 1202
f 1136 1202 1203
f 1136 1203 1204
f 1136 1204 1137
f 1137 1204 1138
f 1138 1204 1205
f 1138 1205 1139
f 1139 1205 1206
f 1139 1206 1207
f 1139 1207 1208
f 1139 1208 1140
f 1142 1145 1196
f 1142 1196 1194
f 1143 1193 1144
f 1144 1193 1192
f 1144 1192 1209
f 1144 1209 1145
f 1145 1197 1210
f 1145 1210 1196
f 1145 1209 1197
f 1148 1162 1149
f 1150 1161 1211
f 1150 1211 1212
f 1150 1212 1151
f 1151 1213 1214
f 1151 1214 1152
f 1151 1212 1213
f 1152 1214 1215
f 1152 1215 1154
f 1152 1154 1153
f 1154 1215 1216
f 1154 1216 1217
f 1154 1217 1169
f 1154 1169 1218
f 1154 1218 1155
f 1155 1218 1169
f 1162 1164 1163
f 1168 1169 1170
f 1169 1220 1221
f 1169 1221 1172
f 1169 1172 1171
f 1169 1171 1170
f 1169 1217 1220
f 1172 1221 1180
f 1172 1180 1173
f 1176 1180 1221
f 1176 1221 1177
f 1177 1222 1223
f 1177 1223 1178
f 1177 1221 1217
f 1177 1217 1216
f 1177 1216 1222
f 1178 1223 1224
f 1178 1224 1225
f 1178 1225 1184
f 1178 1184 1179
f 1182 1185 1183
f 1184 1225 1226
f 1184 1226 1227
f 1184 1227 1228
f 1184 1228 1185
f 1185 1228 1229
f 1185 1229 1230
f 1185 1230 1186
f 1186 1230 1231
f 1186 1231 1232
f 1186 1232 1187
f 1187 1232 1233
f 1187 1233 1234
f 1187 1234 1188
f 1188 1234 1189
f 1189 1234 1190
f 1190 1234 1235
f 1190 1235 1236
f 1190 1236 1191
f 1191 1236 1209
f 1191 1209 1192
f 1195 1198 1237
f 1195 1237 1199
f 1196 1210 1197
f 1197 1209 1198
f 1198 1209 1238
f 1198 1238 1237
f 1199 1239 1240
f 1199 1240 1201
f 1199 1237 1239
f 1200 1201 1241
f 1200 1241 1202
f 1201 1240 1242
f 1201 1242 1241
f 1202 1241 1243
f 1202 1243 1244
f 1202 1244 1245
f 1202 1245 1246
f 1202 1246 1203
f 1203 1246 1204
f 1204 1246 1247
f 1204 1247 1248
f 1204 1248 1205
f 1205 1248 1207
f 1205 1207 1206
f 1207 1248 1249
f 1207 1249 1208
f 1209 1236 1250
f 1209 1250 1238
f 1213 1251 1214
f 1214 1251 1252
f 1214 1252 1253
f 1214 1253 1222
f 1214 1222 1254
f 1214 1254 1215
f 1215 1254 1255
f 1215 1255 1216
f 1216 1255 1222
f 1217 1221 1220
f 1219 1256 1242
f 1219 1242 1257
f 1219 1257 1258
f 1222 1253 1259
f 1222 1259 1260
f 1222 1260 1223
f 1222 1255 1254
f 1223 1260 1261
f 1223 1261 1226
f 1223 1226 1224
f 1224 1226 1225
f 1226 1262 1263
f 1226 1263 1227
f 1226 1261 1262
f 1227 1263 1229
f 1227 1229 1228
f 1229 1263 1264
f 1229 1264 1231
f 1229 1231 1230
f 1231 1264 1265
f 1231 1265 1233
f 1231 1233 1232
f 1233 1265 1266
f 1233 1266 1267
f 1233 1267 1268
f 1233 1268 1234
f 1234 1268 1235
f 1235 1268 1236
f 1236 1268 1250
f 1237 1238 1269
f 1237 1269 1270
f 1237 1270 1271
f 1237 1271 1272
f 1237 1272 1239
f 1238 1250 1268
f 1238 1268 1269
f 1239 1272 1240
f 1240 1273 1274
f 1240 1274 1257
f 1240 1257 1242
f 1240 1272 1271
f 1240 1271 1273
f 1241 1242 1256
f 1241 1256 1243
f 1245 1275 1246
f 1246 1275 1276
f 1246 1276 1247
f 1247 1276 1277
f 1247 1277 1248
f 1248 1277 1278
f 1251 1279 1280
f 1251 1280 1281
f 1251 1281 1252
f 1252 1281 1253
f 1253 1281 1259
f 1257 1282 1258
f 1257 1274 1283
f 1257 1283 1282
f 1258 1282 1284
f 1259 1285 1286
f 1259 1286 1287
f 1259 1287 1288
f 1259 1288 1260
f 1259 1281 1285
f 1260 1288 1261
f 1261 1288 1262
f 1262 1288 1287
f 1262 1287 1263
f 1263 1287 1289
f 1263 1289 1264
f 1264 1290 1265
f 1264 1289 1290
f 1265 1290 1291
f 1265 1291 1266
f 1266 1292 1293
f 1266 1293 1294
f 1266 1294 1295
f 1266 1295 1267
f 1266 1291 1292
f 1267 1295 1269
f 1267 1269 1268
f 1269 1295 1294
f 1269 1294 1270
f 1270 1294 1271
f 1271 1294 1296
f 1271 1296 1297
f 1271 1297 1273
f 1273 1298 1283
f 1273 1283 1274
f 1273 1297 1298
f 1276 1278 1277
f 1279 1299 1300
f 1279 1300 1280
f 1280 1300 1301
f 1280 1301 1285
f 1280 1285 1281
f 1282 1283 1284
f 1283 1298 1302
f 1283 1302 1284
f 1285 1301 1286
f 1286 1301 1287
f 1287 1301 1303
f 1287 1303 1304
f 1287 1304 1305
f 1287 1305 1289
f 1289 1305 1291
f 1289 1291 1290
f 1291 1305 1306
f 1291 1306 1307
f 1291 1307 1308
f 1291 1308 1309
f 1291 1309 1292
f 1292 1309 1293
f 1293 1296 1294
f 1293 1309 1308
f 1293 1308 1296
f 1296 1308 1310
f 1296 1310 1297
f 1297 1310 1311
f 1297 1311 1298
f 1298 1311 1312
f 1299 1313 1314
f 1299 1314 1301
f 1299 1301 1300
f 1301 1315 1303
f 1301 1314 1316
f 1301 1316 1317
f 1301 1317 1315
f 1303 1315 1305
f 1303 1305 1304
f 1305 1315 1318
f 1305 1318 1306
f 1306 1318 1319
f 1306 1319 1320
f 1306 1320 1310
f 1306 1310 1308
f 1306 1308 1307
f 1310 1321 1312
f 1310 1312 1311
f 1310 1320 1322
f 1310 1322 1321
f 1313 1316 1314
f 1315 1317 1318
f 1319 1322 1320
f 1319 1321 1322

