# https://github.com/mikedh/trimesh
v -0.03143882 0.00501493 0.09611547
v -0.03143882 0.00505808 0.09611114
v -0.03432755 0.00600733 0.09579932
v -0.04617826 0.00501493 0.09463431
v -0.03422077 0.00405129 0.09579066
v -0.03143882 0.00333215 0.09591625
v -0.03311405 0.00625184 0.09585995
v -0.03143882 0.00671208 0.09592491
v -0.04617826 0.00664017 0.09446108
v -0.03143882 0.00674085 0.09592058
v -0.03143882 0.05736787 0.08688205
v -0.04617826 0.00340407 0.09445242
v -0.03143882 0.00324586 0.09590325
v -0.04617826 0.00337530 0.09444808
v -0.03143882 -0.04571278 0.08725450
v -0.03147633 0.05736787 0.08687771
v -0.03555692 0.05817330 0.08593791
v -0.03965770 0.05900750 0.08495481
v -0.04129397 0.05736787 0.08496347
v -0.04302115 0.05745417 0.08457369
v -0.04465742 0.05581454 0.08455637
v -0.04617826 0.05423245 0.08454770
v -0.03143882 0.05900750 0.08653991
v -0.04617826 0.00137611 0.09403665
v -0.03143882 -0.04729487 0.08696866
v -0.03446463 0.05863355 0.08604619
v -0.03490616 0.05910818 0.08585130
v -0.03380665 0.05972663 0.08591626
v -0.03802287 0.06063274 0.08483354
v -0.03955092 0.06058959 0.08451306
v -0.04131129 0.05903626 0.08457369
v -0.04253488 0.05850410 0.08442211
v -0.04417260 0.05696516 0.08442211
v -0.04575405 0.05532553 0.08441345
v -0.04617826 0.05433312 0.08452605
v -0.03143882 0.06058959 0.08609816
v -0.03271580 0.06007181 0.08602020
v -0.04617826 -0.01953630 0.08971877
v -0.03143882 -0.04735240 0.08695567
v -0.04617826 -0.02123346 0.08936797
v -0.04617826 -0.02271487 0.08906048
v -0.04617826 -0.02442641 0.08870101
v -0.04617826 -0.02941720 0.08763562
v -0.04617826 -0.03095615 0.08729781
v -0.04617826 -0.03229374 0.08700331
v -0.04617826 -0.03916865 0.08547884
v -0.04617826 -0.04080828 0.08511505
v -0.03638660 0.06063274 0.08514970
v -0.03893335 0.06151008 0.08434415
v -0.03475032 0.06227236 0.08494614
v -0.04077741 0.06001428 0.08440479
v -0.04362718 0.05805824 0.08425321
v -0.04526345 0.05641861 0.08425321
v -0.04617826 0.05509541 0.08433982
v -0.03143882 0.06073342 0.08605485
v -0.03143882 0.06127996 0.08588594
v -0.03475032 0.06063274 0.08546152
v -0.04617826 -0.04244791 0.08474259
v -0.03147633 -0.04735240 0.08694701
v -0.03143882 -0.04909271 0.08635368
v -0.04084090 0.06166829 0.08292362
v -0.04193174 0.06132311 0.08254251
v -0.04002420 0.06110737 0.08401501
v -0.04186826 0.05959719 0.08417525
v -0.03322083 0.06404143 0.08465164
v -0.03143882 0.06545094 0.08453038
v -0.03143882 0.06547970 0.08451739
v -0.03383840 0.06465989 0.08425754
v -0.03143882 0.06337983 0.08522765
v -0.03143882 0.06395514 0.08504576
v -0.04541207 0.05820207 0.08269409
v -0.04465742 0.05745417 0.08392839
v -0.04260270 0.06024440 0.08308387
v -0.04456652 0.05857601 0.08305788
v -0.04579445 0.05736787 0.08305788
v -0.04617826 0.05641861 0.08347798
v -0.04617826 0.05601590 0.08378980
v -0.04617826 -0.04359852 0.08443077
v -0.03409379 -0.04827289 0.08598556
v -0.03638660 -0.04899203 0.08508906
v -0.03143882 -0.05225690 0.08506308
v -0.04183074 0.06293397 0.08084914
v -0.04369499 0.06304903 0.07935499
v -0.04135457 0.06067589 0.08355160
v -0.04540053 0.06637143 0.07450007
v -0.03143882 0.06617007 0.08407564
v -0.04217560 0.07130469 0.07126058
v -0.04617826 0.05766990 0.08242991
v -0.04617826 0.05736787 0.08269409
v -0.04617826 0.06038823 0.07996131
v -0.04617826 0.05951090 0.08078417
v -0.04617826 0.05897873 0.08126490
v -0.04617826 0.06202786 0.07832857
v -0.04617826 0.05709460 0.08292796
v -0.04617826 -0.04441833 0.08386343
v -0.04520429 -0.04474914 0.08422289
v -0.04048161 -0.04817221 0.08430951
v -0.04228959 -0.04664765 0.08437447
v -0.03143882 -0.05350819 0.08451739
v -0.04617826 0.06844254 0.07164603
v -0.04543949 0.06477495 0.07616746
v -0.04617826 0.06447292 0.07586430
v -0.04617826 0.06356681 0.07677812
v -0.04604984 0.06674537 0.07359059
v -0.04617826 0.06671661 0.07352130
v -0.04617826 0.06608377 0.07419691
v -0.03143882 0.07412369 0.07391108
v -0.03237094 0.07456955 0.07289332
v -0.03475032 0.07474214 0.07146413
v -0.03559155 0.07455518 0.07123027
v -0.03894778 0.07295870 0.07127357
v -0.04003863 0.07269981 0.07082316
v -0.04121028 0.07234024 0.07032511
v -0.04280471 0.07150604 0.07025582
v -0.04377724 0.07129031 0.06961485
v -0.04575693 0.06988080 0.06998730
v -0.04522737 0.06953562 0.07107868
v -0.04617826 -0.04522376 0.08306655
v -0.04413220 -0.04680586 0.08297993
v -0.04589545 -0.04689215 0.08144680
v -0.04617826 -0.04755376 0.08041172
v -0.04507443 -0.04798524 0.08077984
v -0.03550930 -0.05140831 0.08427486
v -0.03245319 -0.05317738 0.08437014
v -0.03143882 -0.05441430 0.08371185
v -0.04617826 0.06930550 0.07047236
v -0.04617826 0.06560915 0.07469496
v -0.03143882 0.07474214 0.07310986
v -0.03145902 0.07561949 0.07194053
v -0.03299429 0.07497227 0.07206179
v -0.03199146 0.07607974 0.07100939
v -0.03321217 0.07592152 0.07043771
v -0.03382397 0.07615165 0.06949791
v -0.03623653 0.07472777 0.07026448
v -0.04061003 0.07297308 0.06973178
v -0.04170088 0.07269981 0.06913412
v -0.04536301 0.07126153 0.06792148
v -0.04617826 0.07107457 0.06737579
v -0.04617826 0.07028352 0.06880931
v -0.04617826 0.07016846 0.06901286
v -0.04617826 0.06973697 0.06975777
v -0.04617826 -0.04617302 0.08202714
v -0.04522305 -0.04641753 0.08253818
v -0.04617826 -0.04723734 0.08078850
v -0.04617826 -0.04641753 0.08175429
v -0.04617826 -0.04775511 0.08014754
v -0.04574683 -0.04837357 0.07968846
v -0.03143882 -0.05463003 0.08342601
v -0.03143882 0.07561949 0.07194486
v -0.03143882 0.07616603 0.07117396
v -0.03143882 0.07653999 0.07042472
v -0.03273168 0.07633862 0.06991801
v -0.03143882 0.07733103 0.06864473
v -0.03143882 0.07741732 0.06844551
v -0.03182119 0.07766183 0.06757068
v -0.03250947 0.07789196 0.06647929
v -0.03307798 0.07744609 0.06706396
v -0.03360031 0.07770498 0.06598558
v -0.03439392 0.07638177 0.06840653
v -0.03486287 0.07597906 0.06887427
v -0.03724946 0.07456955 0.06962784
v -0.04219435 0.07295870 0.06804274
v -0.04048449 0.07455518 0.06631905
v -0.04169943 0.07435381 0.06549186
v -0.04617826 0.07144851 0.06665253
v -0.04617826 -0.04900641 0.07843251
v -0.03143882 -0.05542109 0.08231730
v -0.03143882 0.07669819 0.07007825
v -0.03143882 0.07802140 0.06702498
v -0.03143882 0.07863985 0.06549186
v -0.03307798 0.07807893 0.06546154
v -0.03411977 0.07789196 0.06489420
v -0.03469982 0.07746047 0.06546154
v -0.03486287 0.07668380 0.06723720
v -0.03548477 0.07615165 0.06786084
v -0.04293025 0.07373536 0.06549186
v -0.04412931 0.07311690 0.06549186
v -0.04617826 0.07202382 0.06545288
v -0.04209768 0.07454079 0.06463867
v -0.04088130 0.07472777 0.06549186
v -0.04617826 -0.05012826 0.07682142
v -0.04617826 -0.05228566 0.07368587
v -0.04617826 -0.05345065 0.07197084
v -0.03143882 -0.05565120 0.08197516
v -0.04617826 -0.05106313 0.07547019
v -0.03143882 0.07865424 0.06544855
v -0.03143882 0.07912886 0.06383313
v -0.03311405 0.07848165 0.06385478
v -0.03519619 0.07767621 0.06385478
v -0.03638660 0.07718720 0.06385478
v -0.03870104 0.07612289 0.06433551
v -0.03761019 0.07635301 0.06509341
v -0.03647894 0.07665504 0.06557847
v -0.03599701 0.07638177 0.06676946
v -0.04533848 0.07288678 0.06457804
v -0.04615950 0.07258474 0.06395873
v -0.04617826 0.07257036 0.06395873
v -0.03810223 0.07593591 0.06557847
v -0.04144981 0.07495789 0.06399770
v -0.04231556 0.07464147 0.06354729
v -0.04288840 0.07428191 0.06399770
v -0.04470215 0.07337580 0.06395873
v -0.04617826 -0.05346504 0.07194053
v -0.03143882 -0.06187891 0.07206612
v -0.03143882 -0.06087212 0.07378548
v -0.03143882 -0.05680182 0.08019517
v -0.03143882 0.07935898 0.06261615
v -0.03542994 0.07776251 0.06252088
v -0.03143882 0.07943090 0.06221771
v -0.03892037 0.07622357 0.06324413
v -0.04558378 0.07301623 0.06348666
v -0.04617826 0.07284363 0.06277207
v -0.04336024 0.07436820 0.06221771
v -0.04254210 0.07474214 0.06221771
v -0.04456652 0.07377851 0.06221771
v -0.04581898 0.07314567 0.06221771
v -0.04617826 -0.05422732 0.07027314
v -0.03143882 -0.06256927 0.07055465
v -0.03622788 0.07748924 0.06207480
v -0.03143882 0.07953157 0.06058064
v -0.03557567 0.07782004 0.06142950
v -0.03905456 0.07628109 0.06221771
v -0.03987269 0.07592152 0.06221771
v -0.04617826 0.07294431 0.06221771
v -0.04331262 0.07435381 0.06058064
v -0.03557567 0.07782004 0.06136886
v -0.03904590 0.07626671 0.06090546
v -0.04456652 0.07373536 0.06058064
v -0.04578435 0.07311690 0.06058064
v -0.04617826 0.07291555 0.06058064
v -0.04617826 -0.05427047 0.07016487
v -0.03583684 -0.06632315 0.05503712
v -0.03143882 -0.06258366 0.07051567
v -0.03143882 0.07934460 0.05894357
v -0.03544292 0.07776251 0.06027748
v -0.04249448 0.07471338 0.06058064
v -0.04225207 0.07461270 0.05961053
v -0.04553761 0.07298746 0.05959754
v -0.04617826 0.07238339 0.05900854
v -0.04617826 -0.05461565 0.06876167
v -0.03890017 -0.06459723 0.05341305
v -0.03810223 -0.06508625 0.05398905
v -0.03696088 -0.06599235 0.05403669
v -0.03614274 -0.06649574 0.05403669
v -0.03475032 -0.06708543 0.05403669
v -0.03311405 -0.06740185 0.05403669
v -0.03143882 -0.06698476 0.05567376
v -0.03143882 0.07894188 0.05739312
v -0.04285088 0.07409493 0.05901720
v -0.04453766 0.07324635 0.05900854
v -0.04617826 0.07162110 0.05764431
v -0.04397348 0.07303061 0.05791282
v -0.04617826 -0.05490331 0.06709428
v -0.04420579 -0.06019613 0.05239962
v -0.04411777 -0.06008107 0.05354730
v -0.04330252 -0.06100156 0.05239962
v -0.03890017 -0.06459723 0.05301028
v -0.03686420 -0.06597797 0.05239962
v -0.03604607 -0.06643822 0.05239962
v -0.03475032 -0.06692723 0.05239962
v -0.03311405 -0.06705667 0.05239962
v -0.03143882 -0.06730118 0.05403669
v -0.03143882 -0.06730118 0.05407567
v -0.03143882 0.07820838 0.05598125
v -0.03251235 0.07793510 0.05634072
v -0.03360320 0.07764745 0.05686475
v -0.04617826 0.07095950 0.05682578
v -0.04327943 0.07264228 0.05682144
v -0.04617826 -0.05516219 0.06551784
v -0.04617826 -0.05532041 0.06388077
v -0.04479306 -0.05880101 0.05239962
v -0.04438760 -0.05936193 0.05187559
v -0.04409613 -0.06005230 0.05187559
v -0.04364882 -0.06045502 0.05187559
v -0.03871259 -0.06441026 0.05191889
v -0.03810944 -0.06507186 0.05243860
v -0.03619036 -0.06613617 0.05187559
v -0.03720906 -0.06547457 0.05187559
v -0.03584983 -0.06632315 0.05187559
v -0.03530873 -0.06652451 0.05187559
v -0.03475032 -0.06666834 0.05187559
v -0.03311405 -0.06674025 0.05187559
v -0.03224108 -0.06655327 0.05187559
v -0.03143882 -0.06665395 0.05234332
v -0.03392930 -0.06672586 0.05187559
v -0.03143882 0.07817960 0.05594228
v -0.04218858 0.07294431 0.05645332
v -0.04530385 0.07121839 0.05653561
v -0.03894345 0.07025475 0.05187559
v -0.03926234 0.07003902 0.05187559
v -0.04617826 0.07013969 0.05618048
v -0.04617826 -0.05532041 0.06385478
v -0.04617826 -0.05530602 0.06221771
v -0.04617826 -0.05521972 0.06058064
v -0.04617826 -0.05458689 0.05383314
v -0.04617826 -0.05434238 0.05283704
v -0.04617826 -0.05422732 0.05238663
v -0.04617826 -0.05419856 0.05233899
v -0.04617826 -0.05391090 0.05187559
v -0.03875010 -0.06435273 0.05187559
v -0.03864044 -0.06443902 0.05187559
v -0.03180676 -0.06645259 0.05187559
v -0.03143882 -0.06658204 0.05225237
v -0.03143882 0.07751800 0.05515839
v -0.03725379 0.07129031 0.05187559
v -0.03790022 0.07093074 0.05187559
v -0.03801421 0.07085882 0.05187559
v -0.03957690 0.06978012 0.05187559
v -0.04012088 0.06931987 0.05187559
v -0.04069949 0.06878772 0.05187559
v -0.04127666 0.06825556 0.05187559
v -0.04578146 0.06398391 0.05187559
v -0.04617826 0.06355242 0.05187559
v -0.03145902 -0.06620809 0.05187559
v -0.03143882 -0.06619371 0.05187559
v -0.03143882 0.07669819 0.05446112
v -0.03475032 0.07236901 0.05187559
v -0.03620623 0.07179370 0.05187559
v -0.03643277 0.07169302 0.05187559
v -0.03688007 0.07147728 0.05187559
v -0.03143882 0.07363468 0.05187559
f 1 2 3
f 1 3 4
f 1 4 5
f 1 5 6
f 1 6 13
f 1 13 15
f 1 15 25
f 1 25 39
f 1 39 60
f 1 60 81
f 1 81 99
f 1 99 125
f 1 125 148
f 1 148 167
f 1 167 184
f 1 184 206
f 1 206 205
f 1 205 204
f 1 204 218
f 1 218 233
f 1 233 247
f 1 247 263
f 1 263 262
f 1 262 284
f 1 284 303
f 1 303 315
f 1 315 321
f 1 321 316
f 1 316 304
f 1 304 286
f 1 286 264
f 1 264 248
f 1 248 234
f 1 234 220
f 1 220 209
f 1 209 207
f 1 207 187
f 1 187 186
f 1 186 170
f 1 170 169
f 1 169 154
f 1 154 153
f 1 153 168
f 1 168 151
f 1 151 150
f 1 150 149
f 1 149 128
f 1 128 107
f 1 107 86
f 1 86 67
f 1 67 66
f 1 66 70
f 1 70 69
f 1 69 56
f 1 56 55
f 1 55 36
f 1 36 23
f 1 23 11
f 1 11 10
f 1 10 8
f 1 8 2
f 2 7 3
f 2 8 7
f 3 9 4
f 3 7 10
f 3 10 11
f 3 11 9
f 4 12 5
f 4 9 22
f 4 22 35
f 4 35 54
f 4 54 77
f 4 77 76
f 4 76 94
f 4 94 89
f 4 89 88
f 4 88 92
f 4 92 91
f 4 91 90
f 4 90 93
f 4 93 103
f 4 103 102
f 4 102 127
f 4 127 106
f 4 106 105
f 4 105 100
f 4 100 126
f 4 126 141
f 4 141 140
f 4 140 139
f 4 139 138
f 4 138 165
f 4 165 178
f 4 178 197
f 4 197 212
f 4 212 224
f 4 224 230
f 4 230 239
f 4 239 251
f 4 251 267
f 4 267 291
f 4 291 313
f 4 313 299
f 4 299 298
f 4 298 297
f 4 297 296
f 4 296 295
f 4 295 294
f 4 294 293
f 4 293 292
f 4 292 270
f 4 270 269
f 4 269 253
f 4 253 240
f 4 240 231
f 4 231 217
f 4 217 203
f 4 203 183
f 4 183 182
f 4 182 185
f 4 185 181
f 4 181 166
f 4 166 146
f 4 146 121
f 4 121 144
f 4 144 145
f 4 145 142
f 4 142 118
f 4 118 95
f 4 95 78
f 4 78 58
f 4 58 47
f 4 47 46
f 4 46 45
f 4 45 44
f 4 44 43
f 4 43 42
f 4 42 41
f 4 41 40
f 4 40 38
f 4 38 24
f 4 24 14
f 4 14 12
f 5 13 6
f 5 12 14
f 5 14 15
f 5 15 13
f 7 8 10
f 9 11 16
f 9 16 17
f 9 17 18
f 9 18 19
f 9 19 20
f 9 20 21
f 9 21 22
f 11 23 16
f 14 24 25
f 14 25 15
f 16 23 17
f 17 23 26
f 17 26 18
f 18 26 27
f 18 27 28
f 18 28 29
f 18 29 30
f 18 30 31
f 18 31 20
f 18 20 19
f 20 31 32
f 20 32 33
f 20 33 21
f 21 33 34
f 21 34 22
f 22 34 35
f 23 36 37
f 23 37 28
f 23 28 27
f 23 27 26
f 24 38 25
f 25 38 40
f 25 40 41
f 25 41 42
f 25 42 43
f 25 43 44
f 25 44 45
f 25 45 46
f 25 46 47
f 25 47 39
f 28 37 48
f 28 48 29
f 29 49 30
f 29 48 50
f 29 50 49
f 30 51 31
f 30 49 51
f 31 51 32
f 32 51 52
f 32 52 33
f 33 52 53
f 33 53 34
f 34 54 35
f 34 53 54
f 36 55 37
f 37 55 56
f 37 56 57
f 37 57 48
f 39 47 58
f 39 58 59
f 39 59 60
f 48 57 50
f 49 61 62
f 49 62 63
f 49 63 64
f 49 64 51
f 49 50 65
f 49 65 66
f 49 66 67
f 49 67 68
f 49 68 61
f 50 69 70
f 50 70 65
f 50 57 69
f 51 64 52
f 52 71 72
f 52 72 53
f 52 64 73
f 52 73 74
f 52 74 71
f 53 72 75
f 53 75 76
f 53 76 77
f 53 77 54
f 56 69 57
f 58 78 59
f 59 79 60
f 59 78 79
f 60 79 80
f 60 80 81
f 61 68 82
f 61 82 62
f 62 83 73
f 62 73 84
f 62 84 63
f 62 82 85
f 62 85 83
f 63 84 64
f 64 84 73
f 65 70 66
f 67 86 68
f 68 86 87
f 68 87 82
f 71 88 89
f 71 89 75
f 71 75 72
f 71 74 90
f 71 90 91
f 71 91 92
f 71 92 88
f 73 83 93
f 73 93 90
f 73 90 74
f 75 89 94
f 75 94 76
f 78 95 96
f 78 96 97
f 78 97 98
f 78 98 79
f 79 98 97
f 79 97 80
f 80 97 81
f 81 97 99
f 82 100 85
f 82 87 100
f 83 101 102
f 83 102 103
f 83 103 93
f 83 85 101
f 85 100 104
f 85 104 105
f 85 105 106
f 85 106 101
f 86 107 108
f 86 108 109
f 86 109 110
f 86 110 111
f 86 111 87
f 87 111 112
f 87 112 113
f 87 113 114
f 87 114 115
f 87 115 116
f 87 116 117
f 87 117 100
f 95 118 97
f 95 97 96
f 97 118 119
f 97 119 120
f 97 120 121
f 97 121 122
f 97 122 123
f 97 123 124
f 97 124 99
f 99 124 125
f 100 117 126
f 100 105 104
f 101 106 127
f 101 127 102
f 107 128 108
f 108 128 129
f 108 129 130
f 108 130 109
f 109 130 131
f 109 131 110
f 110 131 132
f 110 132 133
f 110 133 134
f 110 134 135
f 110 135 112
f 110 112 111
f 112 135 113
f 113 135 136
f 113 136 114
f 114 136 115
f 115 136 137
f 115 137 138
f 115 138 139
f 115 139 116
f 116 139 140
f 116 140 141
f 116 141 126
f 116 126 117
f 118 142 143
f 118 143 119
f 119 143 120
f 120 144 121
f 120 143 145
f 120 145 144
f 121 146 122
f 122 146 147
f 122 147 148
f 122 148 125
f 122 125 123
f 123 125 124
f 128 149 129
f 129 149 150
f 129 150 131
f 129 131 130
f 131 150 151
f 131 151 152
f 131 152 132
f 132 152 133
f 133 152 153
f 133 153 154
f 133 154 155
f 133 155 156
f 133 156 157
f 133 157 158
f 133 158 159
f 133 159 160
f 133 160 134
f 134 161 135
f 134 160 161
f 135 162 136
f 135 161 163
f 135 163 164
f 135 164 162
f 136 162 165
f 136 165 137
f 137 165 138
f 142 145 143
f 146 166 147
f 147 166 148
f 148 166 167
f 151 168 152
f 152 168 153
f 154 169 155
f 155 169 156
f 156 169 170
f 156 170 158
f 156 158 157
f 158 170 171
f 158 171 172
f 158 172 173
f 158 173 174
f 158 174 159
f 159 175 160
f 159 174 175
f 160 175 161
f 161 175 163
f 162 176 177
f 162 177 178
f 162 178 165
f 162 164 179
f 162 179 176
f 163 180 179
f 163 179 164
f 163 175 180
f 166 181 167
f 167 182 183
f 167 183 184
f 167 181 185
f 167 185 182
f 170 186 171
f 171 186 172
f 172 186 187
f 172 187 188
f 172 188 189
f 172 189 190
f 172 190 191
f 172 191 192
f 172 192 173
f 173 193 174
f 173 192 193
f 174 193 194
f 174 194 175
f 175 194 180
f 176 179 177
f 177 179 195
f 177 195 178
f 178 196 197
f 178 195 196
f 179 180 194
f 179 194 198
f 179 198 192
f 179 192 191
f 179 191 199
f 179 199 200
f 179 200 201
f 179 201 202
f 179 202 195
f 183 203 204
f 183 204 205
f 183 205 206
f 183 206 184
f 187 207 188
f 188 207 189
f 189 208 190
f 189 207 209
f 189 209 208
f 190 208 210
f 190 210 191
f 191 210 199
f 192 198 194
f 192 194 193
f 195 202 211
f 195 211 196
f 196 211 212
f 196 212 197
f 199 210 200
f 200 213 201
f 200 210 214
f 200 214 213
f 201 215 202
f 201 213 215
f 202 215 216
f 202 216 211
f 203 217 204
f 204 217 218
f 208 219 210
f 208 209 219
f 209 220 221
f 209 221 219
f 210 222 223
f 210 223 214
f 210 219 222
f 211 216 212
f 212 216 224
f 213 214 225
f 213 225 215
f 214 223 221
f 214 221 226
f 214 226 227
f 214 227 225
f 215 225 228
f 215 228 216
f 216 229 230
f 216 230 224
f 216 228 229
f 217 231 232
f 217 232 218
f 218 232 233
f 219 221 222
f 220 234 235
f 220 235 227
f 220 227 226
f 220 226 221
f 221 223 222
f 225 227 236
f 225 236 234
f 225 234 237
f 225 237 228
f 227 235 234
f 227 234 236
f 228 238 229
f 228 237 238
f 229 238 230
f 230 238 239
f 231 240 241
f 231 241 242
f 231 242 243
f 231 243 232
f 232 243 244
f 232 244 245
f 232 245 233
f 233 245 246
f 233 246 247
f 234 248 237
f 237 248 249
f 237 249 238
f 238 249 250
f 238 250 239
f 239 250 252
f 239 252 251
f 240 253 254
f 240 254 255
f 240 255 241
f 241 255 256
f 241 256 257
f 241 257 243
f 241 243 242
f 243 257 258
f 243 258 244
f 244 258 259
f 244 259 245
f 245 259 260
f 245 260 246
f 246 260 261
f 246 261 262
f 246 262 263
f 246 263 247
f 248 264 265
f 248 265 266
f 248 266 249
f 249 252 250
f 249 266 252
f 251 252 268
f 251 268 267
f 252 266 265
f 252 265 268
f 253 269 254
f 254 269 270
f 254 270 271
f 254 271 272
f 254 272 273
f 254 273 274
f 254 274 256
f 254 256 255
f 256 275 276
f 256 276 257
f 256 274 275
f 257 276 258
f 258 277 259
f 258 276 275
f 258 275 278
f 258 278 277
f 259 277 279
f 259 279 260
f 260 279 280
f 260 280 281
f 260 281 261
f 261 282 283
f 261 283 284
f 261 284 262
f 261 281 285
f 261 285 282
f 264 286 265
f 265 286 287
f 265 287 268
f 267 268 288
f 267 288 289
f 267 289 290
f 267 290 291
f 268 287 288
f 270 292 271
f 271 292 293
f 271 293 294
f 271 294 295
f 271 295 296
f 271 296 297
f 271 297 298
f 271 298 299
f 271 299 272
f 272 299 313
f 272 313 312
f 272 312 311
f 272 311 310
f 272 310 309
f 272 309 308
f 272 308 290
f 272 290 289
f 272 289 307
f 272 307 306
f 272 306 305
f 272 305 320
f 272 320 319
f 272 319 318
f 272 318 317
f 272 317 321
f 272 321 315
f 272 315 314
f 272 314 302
f 272 302 283
f 272 283 282
f 272 282 285
f 272 285 281
f 272 281 280
f 272 280 279
f 272 279 277
f 272 277 278
f 272 278 301
f 272 301 300
f 272 300 274
f 272 274 273
f 274 300 275
f 275 300 301
f 275 301 278
f 283 302 284
f 284 302 303
f 286 304 287
f 287 305 306
f 287 306 288
f 287 304 305
f 288 306 307
f 288 307 289
f 290 308 291
f 291 308 309
f 291 309 310
f 291 310 311
f 291 311 312
f 291 312 313
f 302 314 303
f 303 314 315
f 304 316 317
f 304 317 318
f 304 318 319
f 304 319 320
f 304 320 305
f 316 321 317

