# https://github.com/mikedh/trimesh
v -0.07494940 -0.00481116 0.05187126
v -0.07257276 -0.00481116 0.04716930
v -0.07481310 -0.00644656 0.05187126
v -0.07484292 -0.00316202 0.05187126
v -0.07251739 -0.00316202 0.04716930
v -0.07235128 -0.00643282 0.04716930
v -0.07448514 -0.00808196 0.05187126
v -0.07459589 -0.00152663 0.05187126
v -0.07038353 0.01644899 0.04716930
v -0.07192111 -0.00804073 0.04716930
v -0.07405923 -0.00971735 0.05187126
v -0.07433181 0.00009503 0.05187126
v -0.06936558 0.02300432 0.04716930
v -0.07012798 0.01811187 0.04716930
v -0.07092019 -0.01129778 0.04716930
v -0.06718061 -0.03404216 0.05187126
v -0.07414441 0.00122194 0.05187126
v -0.06913984 0.02432363 0.04716930
v -0.07032816 -0.01301563 0.04716930
v -0.06737227 -0.02116513 0.04716930
v -0.06726154 -0.02146747 0.04716930
v -0.06617970 -0.02438095 0.04716930
v -0.06605618 -0.02469703 0.04716930
v -0.06546415 -0.02616752 0.04716930
v -0.06704431 -0.03435824 0.05187126
v -0.06920374 -0.01614900 0.04716930
v -0.07404645 0.00177165 0.05187126
v -0.06956151 0.02624763 0.05187126
v -0.06907170 0.02463971 0.04716930
v -0.06485083 -0.02751431 0.04716930
v -0.06200994 -0.03235179 0.04716930
v -0.06083866 -0.03419333 0.04716930
v -0.05759740 -0.03915449 0.04716930
v -0.05651982 -0.04080363 0.04716930
v -0.06590711 -0.03593867 0.05187126
v -0.06473157 -0.02777543 0.04716930
v -0.06464212 -0.02794034 0.04716930
v -0.06387121 -0.02934211 0.04716930
v -0.06925910 0.02738828 0.05187126
v -0.06864152 0.02619266 0.04716930
v -0.05560410 -0.04202674 0.04716930
v -0.06208660 -0.04105100 0.05187126
v -0.06907170 0.02793799 0.05187126
v -0.06858615 0.02637131 0.04716930
v -0.05487577 -0.04276885 0.04716930
v -0.04398925 -0.05991990 0.05135439
v -0.06084718 -0.04263142 0.05187126
v -0.06094939 -0.04250774 0.05187126
v -0.06863300 0.02902368 0.05187126
v -0.06831782 0.02714091 0.04716930
v -0.05470541 -0.04293377 0.04716930
v -0.03839265 -0.05866930 0.04716930
v -0.03814988 -0.05888919 0.04716930
v -0.03857580 -0.06266847 0.05010388
v -0.03809877 -0.06378164 0.05067275
v -0.03762174 -0.06486732 0.05124117
v -0.03864395 -0.06444129 0.05187126
v -0.04365277 -0.06045587 0.05187126
v -0.04409999 -0.06005733 0.05187126
v -0.05939053 -0.04417062 0.05187126
v -0.06194605 0.04420950 0.05187126
v -0.06810912 0.02760817 0.04716930
v -0.03667620 -0.05996113 0.04716930
v -0.03668045 -0.06423515 0.05015037
v -0.03748544 -0.06314946 0.04980748
v -0.03619490 -0.06525212 0.05082234
v -0.03570935 -0.06624160 0.05149431
v -0.03619065 -0.06613166 0.05187126
v -0.03720860 -0.06547200 0.05187126
v -0.06106440 0.04598232 0.05187126
v -0.06799838 0.02785554 0.04716930
v -0.03623324 -0.06024973 0.04716930
v -0.03559010 -0.06453749 0.04993681
v -0.03475103 -0.06639277 0.05134196
v -0.03475103 -0.06666763 0.05187126
v -0.03530899 -0.06653020 0.05187126
v -0.03584991 -0.06632406 0.05187126
v -0.06013589 0.04749404 0.05187126
v -0.05901146 0.04557004 0.04716930
v -0.05984200 0.04409956 0.04716930
v -0.03475103 -0.06086816 0.04716930
v -0.03311550 -0.06123921 0.04716930
v -0.03144163 -0.06147284 0.04717390
v -0.03475103 -0.06540329 0.05052409
v -0.03311550 -0.06642026 0.05134058
v -0.03392901 -0.06673635 0.05187126
v -0.05884109 0.04584489 0.04716930
v -0.05812555 0.05053120 0.05187126
v -0.03147997 -0.06145910 0.04716930
v -0.03144163 -0.06549949 0.05116707
v -0.03206348 -0.06626909 0.05149201
v -0.03144163 -0.06100559 0.04716930
v -0.03180792 -0.06644775 0.05187126
v -0.03311550 -0.06675009 0.05187126
v -0.05834702 0.04654579 0.04716930
v -0.05727370 0.05174057 0.05187126
v -0.03144163 -0.06620037 0.05187126
v -0.03144163 0.07030713 0.04716930
v -0.05776351 0.04735661 0.04716930
v -0.05593631 0.05336222 0.05187126
v -0.05630260 0.04919815 0.04716930
v -0.05762721 0.04753527 0.04716930
v -0.03144163 0.07364664 0.05187126
v -0.03145015 0.07030713 0.04716930
v -0.05465855 0.05106717 0.04716930
v -0.05553595 0.05010518 0.04716930
v -0.05117878 0.05855701 0.05187126
v -0.03265125 0.06992233 0.04716930
v -0.03300476 0.06979864 0.04716930
v -0.03475103 0.07236855 0.05187126
v -0.05400689 0.05175431 0.04716930
v -0.04947084 0.06034358 0.05187126
v -0.05369171 0.05208414 0.04716930
v -0.03481492 0.06908402 0.04716930
v -0.03580306 0.07195627 0.05187126
v -0.05046324 0.05538242 0.04716930
v -0.05076138 0.05508008 0.04716930
v -0.04755420 0.06226758 0.05187126
v -0.03603731 0.06845185 0.04716930
v -0.03725545 0.07129662 0.05187126
v -0.03643342 0.07169516 0.05187126
v -0.03620768 0.07179136 0.05187126
v -0.04978176 0.05605582 0.04716930
v -0.04578663 0.06398543 0.05187126
v -0.04091410 0.06479625 0.04716930
v -0.03618639 0.06836940 0.04716930
v -0.03801358 0.07087059 0.05187126
v -0.04099503 0.06852056 0.05187126
v -0.04070114 0.06879542 0.05187126
v -0.04012615 0.06931765 0.05187126
v -0.04059040 0.06508486 0.04716930
v -0.03635675 0.06827319 0.04716930
v -0.03926579 0.07004602 0.05187126
v -0.03958097 0.06978490 0.05187126
v -0.03971301 0.06581322 0.04716930
v -0.03697434 0.06786091 0.04716930
v -0.03802636 0.06714628 0.04716930
v -0.03815840 0.06705008 0.04716930
f 1 2 3
f 1 3 7
f 1 7 11
f 1 11 16
f 1 16 25
f 1 25 35
f 1 35 42
f 1 42 48
f 1 48 47
f 1 47 60
f 1 60 59
f 1 59 58
f 1 58 57
f 1 57 69
f 1 69 68
f 1 68 77
f 1 77 76
f 1 76 75
f 1 75 86
f 1 86 94
f 1 94 93
f 1 93 97
f 1 97 103
f 1 103 110
f 1 110 115
f 1 115 122
f 1 122 121
f 1 121 120
f 1 120 127
f 1 127 133
f 1 133 134
f 1 134 130
f 1 130 129
f 1 129 128
f 1 128 124
f 1 124 118
f 1 118 112
f 1 112 107
f 1 107 100
f 1 100 96
f 1 96 88
f 1 88 78
f 1 78 70
f 1 70 61
f 1 61 49
f 1 49 43
f 1 43 39
f 1 39 28
f 1 28 27
f 1 27 17
f 1 17 12
f 1 12 8
f 1 8 4
f 1 4 5
f 1 5 2
f 2 6 3
f 2 5 9
f 2 9 14
f 2 14 13
f 2 13 18
f 2 18 29
f 2 29 40
f 2 40 44
f 2 44 50
f 2 50 62
f 2 62 71
f 2 71 80
f 2 80 79
f 2 79 87
f 2 87 95
f 2 95 99
f 2 99 102
f 2 102 101
f 2 101 106
f 2 106 105
f 2 105 111
f 2 111 113
f 2 113 117
f 2 117 116
f 2 116 123
f 2 123 125
f 2 125 131
f 2 131 135
f 2 135 138
f 2 138 137
f 2 137 136
f 2 136 132
f 2 132 126
f 2 126 119
f 2 119 114
f 2 114 109
f 2 109 108
f 2 108 104
f 2 104 98
f 2 98 92
f 2 92 89
f 2 89 82
f 2 82 81
f 2 81 72
f 2 72 63
f 2 63 53
f 2 53 52
f 2 52 51
f 2 51 45
f 2 45 41
f 2 41 34
f 2 34 33
f 2 33 32
f 2 32 31
f 2 31 38
f 2 38 37
f 2 37 36
f 2 36 30
f 2 30 24
f 2 24 23
f 2 23 22
f 2 22 21
f 2 21 20
f 2 20 26
f 2 26 19
f 2 19 15
f 2 15 10
f 2 10 6
f 3 6 7
f 4 8 9
f 4 9 5
f 6 10 11
f 6 11 7
f 8 12 13
f 8 13 14
f 8 14 9
f 10 15 16
f 10 16 11
f 12 17 13
f 13 17 18
f 15 19 16
f 16 20 21
f 16 21 22
f 16 22 23
f 16 23 24
f 16 24 25
f 16 19 26
f 16 26 20
f 17 27 18
f 18 28 29
f 18 27 28
f 24 30 25
f 25 31 32
f 25 32 33
f 25 33 34
f 25 34 35
f 25 30 36
f 25 36 37
f 25 37 38
f 25 38 31
f 28 39 29
f 29 39 40
f 34 41 42
f 34 42 35
f 39 43 44
f 39 44 40
f 41 45 46
f 41 46 47
f 41 47 48
f 41 48 42
f 43 49 50
f 43 50 44
f 45 51 46
f 46 52 53
f 46 53 54
f 46 54 55
f 46 55 56
f 46 56 57
f 46 57 58
f 46 58 59
f 46 59 60
f 46 60 47
f 46 51 52
f 49 61 50
f 50 61 62
f 53 63 64
f 53 64 65
f 53 65 54
f 54 65 64
f 54 64 55
f 55 64 56
f 56 64 66
f 56 66 67
f 56 67 68
f 56 68 69
f 56 69 57
f 61 70 71
f 61 71 62
f 63 72 64
f 64 73 66
f 64 72 73
f 66 73 67
f 67 74 75
f 67 75 76
f 67 76 77
f 67 77 68
f 67 73 74
f 70 78 79
f 70 79 80
f 70 80 71
f 72 81 73
f 73 82 83
f 73 83 84
f 73 84 74
f 73 81 82
f 74 85 86
f 74 86 75
f 74 84 83
f 74 83 85
f 78 87 79
f 78 88 87
f 82 89 83
f 83 90 91
f 83 91 85
f 83 89 92
f 83 92 98
f 83 98 103
f 83 103 97
f 83 97 90
f 85 91 93
f 85 93 94
f 85 94 86
f 87 88 96
f 87 96 95
f 90 97 91
f 91 97 93
f 95 96 99
f 96 100 101
f 96 101 102
f 96 102 99
f 98 104 103
f 100 105 106
f 100 106 101
f 100 107 105
f 103 104 108
f 103 108 109
f 103 109 110
f 105 107 111
f 107 112 113
f 107 113 111
f 109 114 115
f 109 115 110
f 112 116 117
f 112 117 113
f 112 118 116
f 114 119 120
f 114 120 121
f 114 121 122
f 114 122 115
f 116 118 123
f 118 124 125
f 118 125 123
f 119 126 120
f 120 126 127
f 124 128 125
f 125 128 129
f 125 129 130
f 125 130 131
f 126 132 127
f 127 132 133
f 130 134 131
f 131 134 135
f 132 136 133
f 133 136 137
f 133 137 138
f 133 138 135
f 133 135 134

