# https://github.com/mikedh/trimesh
v -0.02247051 0.15086777 -0.00719572
v -0.02232038 0.15086777 -0.01013235
v -0.02224531 0.14792451 -0.01013235
v -0.02237569 0.14792451 -0.00719572
v -0.02204776 0.15086777 -0.00425909
v -0.02187393 0.15360408 -0.00432656
v -0.02222951 0.15381103 -0.00719572
v -0.02183046 0.14792451 -0.01200015
v -0.02207542 0.15381103 -0.01013235
v -0.02175935 0.15381103 -0.01187942
v -0.02186997 0.15086777 -0.01210668
v -0.01024641 -0.07249777 0.00204028
v -0.01019900 -0.07249777 0.00452239
v -0.02165663 0.15086777 -0.00273219
v -0.02165663 0.15247736 -0.00272864
v -0.02189763 0.14815445 -0.00412060
v -0.02163292 0.14928117 -0.00277480
v -0.02173959 0.15551260 -0.00534923
v -0.02180281 0.15562756 -0.00719572
v -0.02172379 0.15546661 -0.01013235
v -0.02104424 0.15086777 -0.01357677
v -0.02094546 0.14792451 -0.01347024
v -0.00970514 -0.07249777 0.00056664
v -0.02163687 0.15530564 -0.01162020
v -0.02077162 0.15381103 -0.01334595
v -0.00982761 -0.07249777 0.00584334
v -0.02079533 0.15086777 -0.00126210
v -0.00927054 -0.07249777 0.00734539
v -0.00791143 -0.07249777 0.00971742
v -0.01932954 0.15086777 0.00102116
v -0.01909249 0.15381103 0.00070868
v -0.02062544 0.15360408 -0.00158168
v -0.02138006 0.15443187 -0.00339621
v -0.00927844 -0.07249777 0.00732764
v -0.02062544 0.15659333 -0.00432656
v -0.01909249 0.15861681 -0.00425909
v -0.02086249 0.15709920 -0.00719572
v -0.02073606 0.15693823 -0.01013235
v -0.01957845 0.15086777 -0.01554754
v -0.01947573 0.14792451 -0.01544456
v -0.00964982 -0.07249777 0.00049207
v -0.01926633 0.15886974 -0.01013235
v -0.01897001 0.15854782 -0.01207472
v -0.01830231 0.15765105 -0.01403129
v -0.01889889 0.15569655 -0.01478764
v -0.01930188 0.15381103 -0.01523861
v -0.00779290 -0.07249777 0.00988787
v -0.01821934 0.15086777 0.00249125
v -0.01789536 0.15381103 0.00217877
v -0.01878037 0.15544361 0.00028611
v -0.01923472 0.15654734 -0.00153197
v -0.01877641 0.15829489 -0.00265051
v -0.01615301 0.16142211 -0.00509711
v -0.01790722 0.16043336 -0.00719572
v -0.01939276 0.15896172 -0.00719572
v -0.01813242 0.15086777 -0.01701763
v -0.01801784 0.14792451 -0.01691465
v -0.00786797 -0.07249777 -0.00179829
v -0.00811687 -0.07249777 -0.00154262
v -0.01792302 0.16031838 -0.01013235
v -0.01617672 0.16146810 -0.01214929
v -0.01723951 0.15962857 -0.01309029
v -0.01714074 0.15661631 -0.01589908
v -0.01634266 0.15877777 -0.01505041
v -0.01597917 0.15558157 -0.01763194
v -0.01785190 0.15381103 -0.01670515
v -0.00602684 -0.07249777 0.01135085
v -0.01524431 0.15086777 0.00560188
v -0.01674960 0.15086777 0.00413534
v -0.01642563 0.15381103 0.00376604
v -0.01596732 0.15558157 0.00326536
v -0.01700246 0.15650135 0.00137981
v -0.01803760 0.15742112 -0.00069395
v -0.01607795 0.15843286 0.00051338
v -0.01712099 0.15886974 -0.00153197
v -0.01333207 0.16133013 -0.00236289
v -0.01430004 0.16165205 -0.00417387
v -0.01428028 0.16227289 -0.00719572
v -0.01643748 0.16160606 -0.00719572
v -0.01528777 0.16096222 -0.00314410
v -0.01645723 0.16165205 -0.01013235
v -0.01666268 0.15086777 -0.01807936
v -0.01655206 0.14792451 -0.01801189
v -0.01638612 0.15381103 -0.01789471
v -0.00587276 -0.07249777 -0.00316185
v -0.01428028 0.16229588 -0.01013235
v -0.01405508 0.16160606 -0.01310449
v -0.01292512 0.16119217 -0.01458879
v -0.01488082 0.16073228 -0.01410586
v -0.01301204 0.15831790 -0.01756447
v -0.01497169 0.15753609 -0.01701053
v -0.01410644 0.15663931 -0.01794798
v -0.00991849 0.15530564 -0.02043009
v -0.01204802 0.15381103 -0.02006434
v -0.01428028 0.15381103 -0.01901681
v -0.00467563 -0.07249777 0.01207169
v -0.01134476 0.15086777 0.00803072
v -0.01377457 0.15086777 0.00666716
v -0.01343874 0.15381103 0.00645765
v -0.01490453 0.15381103 0.00523613
v -0.01296463 0.15546661 0.00614517
v -0.01503096 0.15753609 0.00247350
v -0.01307526 0.15834088 0.00327246
v -0.01414595 0.15884676 0.00153960
v -0.01134476 0.16139911 -0.00219599
v -0.01134476 0.16195097 -0.00425909
v -0.01430004 0.16043336 -0.00135797
v -0.01134476 0.15852484 0.00364176
v -0.01134476 0.15958258 0.00161062
v -0.00840924 0.15875478 0.00410338
v -0.01134476 0.16073228 -0.00072590
v -0.01134476 0.16238786 -0.00719572
v -0.01428028 0.15086777 -0.01951394
v -0.01428028 0.14792451 -0.01936835
v -0.01272363 0.15086777 -0.02037682
v -0.00559224 -0.07249777 -0.00326483
v -0.01253003 0.14792451 -0.02029870
v -0.01106425 0.14792451 -0.02090236
v -0.01134476 0.16241086 -0.01013235
v -0.01134476 0.16190498 -0.01306898
v -0.01134476 0.16135312 -0.01490482
v -0.01134476 0.16013442 -0.01637491
v -0.01134476 0.15866280 -0.01779174
v -0.00840924 0.15567355 -0.02066090
v -0.00840924 0.15381103 -0.02128941
v -0.01057829 0.15381103 -0.02065025
v -0.00456896 -0.07249777 0.01212496
v -0.00959056 0.15086777 0.00885099
v -0.01134476 0.15381103 0.00755845
v -0.01134476 0.15594948 0.00652512
v -0.01134476 0.15739812 0.00511185
v -0.00840924 0.15792698 0.00557347
v -0.00840924 0.16130713 -0.00241615
v -0.00840924 0.15981250 0.00161062
v -0.00840924 0.16169804 -0.00425909
v -0.00546977 0.15799597 0.00558057
v -0.00546977 0.15870879 0.00411048
v -0.00840924 0.16206593 -0.00719572
v -0.00840924 0.16211192 -0.01013235
v -0.01125389 0.15086777 -0.02095563
v -0.00541445 -0.07249777 -0.00330744
v -0.00840924 0.14792451 -0.02160190
v -0.00840924 0.15086777 -0.02173683
v -0.00840924 0.16176702 -0.01306898
v -0.00840924 0.16135312 -0.01490127
v -0.00840924 0.16034138 -0.01636781
v -0.00840924 0.15886974 -0.01813618
v -0.00546977 0.15613344 -0.02101954
v -0.00840924 0.15714519 -0.01960627
v -0.00546977 0.15381103 -0.02190373
v -0.00253424 -0.07249777 0.01273927
v -0.00812477 0.15086777 0.00934102
v -0.00775339 0.15293725 0.00920608
v -0.00860283 0.15388001 0.00855271
v -0.00840924 0.15645536 0.00702580
v -0.00546977 0.15652433 0.00719270
v -0.00680912 0.16119217 -0.00265407
v -0.00546977 0.15962857 0.00161062
v -0.00633897 0.16133013 -0.00425909
v -0.00253424 0.15634038 0.00710748
v 0.00040128 0.15604146 0.00682340
v -0.00253424 0.15781202 0.00508699
v -0.00253424 0.15843286 0.00362045
v -0.00535914 0.16144509 -0.00739457
v -0.00394867 0.16116916 -0.00850602
v -0.00522481 0.16144509 -0.01011460
v -0.00408300 0.16112317 -0.01108400
v -0.00620068 0.16133013 -0.01306898
v -0.00253424 -0.07249777 -0.00392885
v -0.00546977 0.15086777 -0.02213099
v -0.00546977 0.14792451 -0.02195699
v -0.00253424 -0.04295025 -0.00646778
v -0.00684863 0.16116916 -0.01458168
v -0.00026247 0.15838687 -0.01782014
v -0.00253424 0.15859381 -0.01812907
v -0.00253424 0.15767405 -0.01959562
v -0.00546977 0.15760506 -0.01974830
v -0.00253424 0.15620243 -0.02114027
v -0.00253424 0.15381103 -0.02210968
v 0.00023534 -0.07249777 0.01342105
v -0.00546977 0.14792451 0.00991627
v -0.00546977 0.15086777 0.00986301
v 0.00040128 -0.07249777 0.01346011
v -0.00546977 0.15323617 0.00936588
v -0.00546977 0.15470781 0.00866279
v -0.00253424 0.15459282 0.00857402
v -0.00086301 0.15827191 0.00322985
v -0.00025852 0.15845586 0.00161062
v 0.00333680 0.15744411 0.00161062
v 0.00627232 0.15714519 -0.00132601
v -0.00430820 0.16105420 -0.00654590
v 0.00627232 0.15762806 -0.00425909
v 0.00053561 0.15378803 0.00837871
v 0.00333680 0.15558157 0.00632627
v 0.00023139 0.15753609 0.00434484
v -0.00394867 0.16116916 -0.00912388
v 0.00921180 0.15712219 -0.00719572
v 0.00699139 0.15801896 -0.01013235
v -0.00473095 0.16096222 -0.01306898
v 0.00683335 0.15797297 -0.01306898
v 0.00536757 0.15836388 -0.01306898
v 0.00494877 0.15824890 -0.01466691
v -0.00236831 -0.07249777 -0.00393596
v 0.00040128 -0.04589350 -0.00651394
v -0.00253424 0.15086777 -0.02230498
v -0.00253424 0.14792451 -0.02214164
v -0.00253424 0.08039058 -0.01668739
v 0.00169323 0.15817993 -0.01735142
v 0.00058697 0.15758208 -0.01885702
v 0.00040128 0.15599547 -0.02098758
v 0.00040128 0.15381103 -0.02188597
v 0.00040128 0.15086777 -0.02218780
v -0.00253424 0.14792451 0.01016129
v 0.00332495 -0.07249777 0.01385782
v -0.00253424 0.15086777 0.00991272
v -0.00253424 0.15312120 0.00933747
v -0.00035334 0.15277630 0.00916702
v 0.00333680 0.15652433 0.00455080
v 0.00627232 0.15654734 0.00161062
v 0.00921180 0.15675428 -0.00425909
v 0.00333680 0.15381103 0.00747677
v 0.00483024 0.15528266 0.00603509
v 0.01154283 0.15576553 -0.00425909
v 0.01177594 0.15597249 -0.00719572
v 0.00921180 0.15732915 -0.01013235
v 0.00921180 0.15721417 -0.01306898
v 0.00606688 0.15744411 -0.01578900
v 0.00333680 0.15792698 -0.01674421
v 0.00040128 -0.07249777 -0.00404959
v 0.00276392 -0.04881376 -0.00595289
v 0.00333680 -0.07249777 -0.00374776
v 0.00040128 0.08039058 -0.01665898
v 0.00040128 0.14792451 -0.02205642
v 0.00912883 0.15613344 -0.01606243
v 0.00627232 0.15592650 -0.01812553
v 0.00337236 0.15643236 -0.01906297
v 0.00241624 0.15562756 -0.02070351
v 0.00337236 0.15383402 -0.02107991
v 0.00333680 0.15086777 -0.02175814
v 0.00040128 0.14792451 0.00992692
v 0.00627232 -0.07249777 0.01397145
v 0.00053561 0.15100574 0.00942269
v 0.00276392 0.15010897 0.00915282
v 0.00472357 0.14916621 0.00893621
v 0.00358176 0.15100574 0.00868765
v 0.00160631 0.15206346 0.00887585
v 0.00627232 0.15086777 0.00794195
v 0.00599576 0.15565057 0.00436260
v 0.00795541 0.15539762 0.00326181
v 0.00855200 0.15565057 0.00161062
v 0.00943700 0.15601848 -0.00112716
v 0.01113589 0.15553559 -0.00197584
v 0.00837026 0.15268432 0.00633337
v 0.00599576 0.15371906 0.00659614
v 0.01032595 0.15204048 0.00574746
v 0.00914068 0.15374204 0.00450464
v 0.01301257 0.15489176 -0.00425909
v 0.01324172 0.15498374 -0.00719572
v 0.01176013 0.15606446 -0.01013235
v 0.01156654 0.15599547 -0.01306898
v 0.01118725 0.15569655 -0.01512143
v 0.00333680 -0.04295025 -0.00634349
v 0.00354225 -0.04596248 -0.00607007
v 0.00350274 -0.07249777 -0.00371225
v 0.00333680 0.14792451 -0.02160900
v 0.00809369 0.15551260 -0.01765680
v 0.00437589 0.15484577 -0.02012116
v 0.00534781 0.15289126 -0.02068575
v 0.00578636 0.15086777 -0.02093787
v 0.00565598 0.14792451 -0.02085265
v 0.00358176 0.14808548 0.00928420
v 0.00921970 -0.07249777 0.01354534
v 0.00500013 0.14721169 0.00901433
v 0.00609848 0.14808548 0.00860953
v 0.00921180 0.14792451 0.00759041
v 0.00929477 0.15098273 0.00680565
v 0.01002173 0.15486876 0.00161062
v 0.01056301 0.15521366 -0.00001572
v 0.01145591 0.15282228 0.00379090
v 0.01341161 0.15208646 0.00279663
v 0.01231721 0.15337413 0.00173490
v 0.01212757 0.15463881 -0.00112716
v 0.01459688 0.15305221 -0.00132601
v 0.01110033 0.15008596 0.00635113
v 0.01225400 0.15107471 0.00461471
v 0.01496037 0.15342012 -0.00425909
v 0.01502753 0.15351210 -0.00719572
v 0.01322987 0.15489176 -0.01013235
v 0.01484974 0.15344312 -0.01013235
v 0.01631553 0.15185652 -0.01013235
v 0.01005334 0.15454684 -0.01707799
v 0.01417414 0.15289126 -0.01306898
v 0.01364866 0.15240839 -0.01458168
v 0.01198138 0.15346611 -0.01583162
v 0.00498828 -0.04504272 -0.00579665
v 0.00628023 -0.07249777 -0.00310859
v 0.00912883 0.15365006 -0.01808291
v 0.01081587 0.15259234 -0.01757513
v 0.00725610 0.15086777 -0.02012116
v 0.00712572 0.14792451 -0.02009275
v 0.00903796 -0.07249777 -0.00217469
v 0.00758403 -0.07249777 -0.00276770
v 0.01157049 -0.07249777 0.01248360
v 0.01140850 0.14792451 0.00653933
v 0.01408326 0.15263833 0.00084006
v 0.01405956 0.15013195 0.00348196
v 0.01670271 0.14974106 0.00043170
v 0.01606662 0.15171855 -0.00132601
v 0.01643010 0.15215544 -0.00425909
v 0.01287824 0.14792451 0.00531425
v 0.01440329 0.14792451 0.00384416
v 0.01649727 0.15224742 -0.00719572
v 0.01713336 0.15077579 -0.00719572
v 0.01692792 0.15038490 -0.01013235
v 0.01667901 0.14981003 -0.01178709
v 0.01388572 0.15086777 -0.01484800
v 0.01244759 0.15086777 -0.01631454
v 0.01097785 0.15086777 -0.01769231
v 0.00921180 0.15086777 -0.01887122
v 0.01103317 0.14792451 -0.01772072
v 0.00921180 0.14792451 -0.01886767
v 0.01159419 -0.07249777 -0.00064423
v 0.01303232 -0.07249777 0.01113780
v 0.01586907 0.14792451 0.00218587
v 0.01693977 0.15024693 -0.00132601
v 0.01686865 0.14792451 0.00071578
v 0.01751660 0.14792451 -0.00132601
v 0.01712941 0.15070682 -0.00425909
v 0.01444675 0.14500425 0.00390098
v 0.01591253 0.14500425 0.00226754
v 0.01789194 0.14792451 -0.00425909
v 0.01784453 0.14792451 -0.00719572
v 0.01737437 0.14792451 -0.01013235
v 0.01676988 0.14792451 -0.01193623
v 0.01560831 0.14792451 -0.01340632
v 0.01414253 0.14792451 -0.01508947
v 0.01249895 0.14792451 -0.01655601
v 0.01170877 -0.07249777 -0.00051995
v 0.01405561 -0.07249777 0.00966060
v 0.01692792 0.14500425 0.00080100
v 0.01758377 0.14500425 -0.00132601
v 0.01788404 0.14500425 -0.00425909
v 0.01464034 -0.07249777 0.00748743
v 0.01442304 -0.07249777 0.00432354
v 0.01671457 0.14500425 -0.01184746
v 0.01316666 -0.07249777 0.00139756
v 0.01381855 -0.07249777 0.00268300
v 0.01329703 -0.07249777 0.00157866
f 1 2 3
f 1 3 4
f 1 4 5
f 1 5 6
f 1 6 7
f 1 7 2
f 2 8 3
f 2 7 9
f 2 9 10
f 2 10 11
f 2 11 8
f 3 8 12
f 3 12 4
f 4 12 13
f 4 13 5
f 5 14 15
f 5 15 6
f 5 13 16
f 5 16 17
f 5 17 14
f 6 15 18
f 6 18 7
f 7 18 19
f 7 19 20
f 7 20 9
f 8 11 21
f 8 21 22
f 8 22 23
f 8 23 12
f 9 20 24
f 9 24 10
f 10 25 21
f 10 21 11
f 10 24 25
f 12 23 41
f 12 41 59
f 12 59 58
f 12 58 85
f 12 85 116
f 12 116 141
f 12 141 169
f 12 169 203
f 12 203 229
f 12 229 231
f 12 231 264
f 12 264 296
f 12 296 302
f 12 302 301
f 12 301 322
f 12 322 338
f 12 338 346
f 12 346 348
f 12 348 347
f 12 347 344
f 12 344 343
f 12 343 339
f 12 339 323
f 12 323 303
f 12 303 272
f 12 272 241
f 12 241 214
f 12 214 183
f 12 183 180
f 12 180 151
f 12 151 127
f 12 127 96
f 12 96 67
f 12 67 47
f 12 47 29
f 12 29 28
f 12 28 34
f 12 34 26
f 12 26 13
f 13 26 17
f 13 17 16
f 14 27 15
f 14 17 28
f 14 28 29
f 14 29 27
f 15 27 30
f 15 30 31
f 15 31 32
f 15 32 33
f 15 33 18
f 17 26 34
f 17 34 28
f 18 33 35
f 18 35 36
f 18 36 37
f 18 37 19
f 19 37 20
f 20 37 38
f 20 38 24
f 21 39 22
f 21 25 39
f 22 39 40
f 22 40 41
f 22 41 23
f 24 38 42
f 24 42 43
f 24 43 44
f 24 44 45
f 24 45 46
f 24 46 25
f 25 46 39
f 27 29 30
f 29 47 30
f 30 48 31
f 30 47 48
f 31 48 49
f 31 49 50
f 31 50 32
f 32 50 33
f 33 50 51
f 33 51 35
f 35 51 52
f 35 52 36
f 36 52 53
f 36 53 54
f 36 54 55
f 36 55 37
f 37 55 42
f 37 42 38
f 39 56 40
f 39 46 56
f 40 56 57
f 40 57 58
f 40 58 59
f 40 59 41
f 42 55 60
f 42 60 43
f 43 60 61
f 43 61 62
f 43 62 44
f 44 63 45
f 44 62 64
f 44 64 63
f 45 65 66
f 45 66 46
f 45 63 65
f 46 66 56
f 47 67 68
f 47 68 69
f 47 69 48
f 48 69 49
f 49 69 70
f 49 70 71
f 49 71 50
f 50 71 72
f 50 72 73
f 50 73 52
f 50 52 51
f 52 74 75
f 52 75 53
f 52 73 74
f 53 76 77
f 53 77 78
f 53 78 79
f 53 79 54
f 53 75 80
f 53 80 76
f 54 79 81
f 54 81 60
f 54 60 55
f 56 82 83
f 56 83 57
f 56 66 84
f 56 84 82
f 57 83 58
f 58 83 85
f 60 81 61
f 61 81 86
f 61 86 87
f 61 87 88
f 61 88 89
f 61 89 64
f 61 64 62
f 63 64 65
f 64 89 90
f 64 90 91
f 64 91 65
f 65 91 90
f 65 90 92
f 65 92 93
f 65 93 94
f 65 94 95
f 65 95 84
f 65 84 66
f 67 96 97
f 67 97 98
f 67 98 68
f 68 98 99
f 68 99 100
f 68 100 70
f 68 70 69
f 70 100 71
f 71 101 102
f 71 102 72
f 71 100 101
f 72 102 74
f 72 74 73
f 74 102 103
f 74 103 104
f 74 104 80
f 74 80 75
f 76 105 106
f 76 106 77
f 76 80 107
f 76 107 103
f 76 103 108
f 76 108 109
f 76 109 110
f 76 110 111
f 76 111 105
f 77 106 78
f 78 112 119
f 78 119 86
f 78 86 81
f 78 81 79
f 78 106 112
f 80 104 107
f 82 113 83
f 82 84 113
f 83 113 114
f 83 114 85
f 84 95 115
f 84 115 113
f 85 114 117
f 85 117 118
f 85 118 116
f 86 119 120
f 86 120 87
f 87 121 88
f 87 120 121
f 88 121 122
f 88 122 90
f 88 90 89
f 90 122 123
f 90 123 124
f 90 124 93
f 90 93 92
f 93 124 125
f 93 125 126
f 93 126 94
f 94 126 115
f 94 115 95
f 96 127 97
f 97 128 129
f 97 129 99
f 97 99 98
f 97 127 128
f 99 129 101
f 99 101 100
f 101 130 131
f 101 131 103
f 101 103 102
f 101 129 130
f 103 107 104
f 103 131 132
f 103 132 108
f 105 133 106
f 105 111 110
f 105 110 134
f 105 134 133
f 106 133 135
f 106 135 112
f 108 110 109
f 108 132 110
f 110 132 136
f 110 136 137
f 110 137 134
f 112 135 138
f 112 138 139
f 112 139 119
f 113 115 114
f 114 115 117
f 115 140 118
f 115 118 117
f 115 126 140
f 116 118 142
f 116 142 141
f 118 140 143
f 118 143 142
f 119 139 144
f 119 144 120
f 120 144 145
f 120 145 121
f 121 145 146
f 121 146 122
f 122 147 123
f 122 146 147
f 123 147 148
f 123 148 149
f 123 149 124
f 124 149 148
f 124 148 150
f 124 150 125
f 125 150 143
f 125 143 140
f 125 140 126
f 127 151 152
f 127 152 128
f 128 152 153
f 128 153 129
f 129 154 130
f 129 153 154
f 130 155 131
f 130 154 155
f 131 155 132
f 132 155 156
f 132 156 136
f 133 157 135
f 133 134 137
f 133 137 158
f 133 158 157
f 135 159 138
f 135 157 159
f 136 156 160
f 136 160 161
f 136 161 162
f 136 162 137
f 137 163 158
f 137 162 163
f 138 159 164
f 138 164 139
f 139 164 165
f 139 165 166
f 139 166 167
f 139 167 168
f 139 168 144
f 141 142 169
f 142 143 170
f 142 170 171
f 142 171 172
f 142 172 169
f 143 150 170
f 144 168 173
f 144 173 145
f 145 173 174
f 145 174 175
f 145 175 176
f 145 176 146
f 146 176 177
f 146 177 147
f 147 177 148
f 148 177 178
f 148 178 179
f 148 179 150
f 150 179 170
f 151 180 152
f 152 181 182
f 152 182 153
f 152 180 183
f 152 183 181
f 153 184 185
f 153 185 154
f 153 182 184
f 154 185 155
f 155 185 156
f 156 185 186
f 156 186 160
f 157 158 187
f 157 187 188
f 157 188 189
f 157 189 190
f 157 190 159
f 158 163 187
f 159 191 164
f 159 190 192
f 159 192 191
f 160 186 161
f 161 186 193
f 161 193 194
f 161 194 162
f 162 195 187
f 162 187 163
f 162 194 195
f 164 191 165
f 165 196 166
f 165 191 197
f 165 197 198
f 165 198 196
f 166 196 167
f 167 199 168
f 167 196 200
f 167 200 201
f 167 201 202
f 167 202 199
f 168 199 202
f 168 202 173
f 169 172 204
f 169 204 203
f 170 205 206
f 170 206 171
f 170 179 205
f 171 206 207
f 171 207 172
f 172 207 204
f 173 202 208
f 173 208 174
f 174 208 209
f 174 209 176
f 174 176 175
f 176 209 210
f 176 210 178
f 176 178 177
f 178 210 211
f 178 211 179
f 179 211 212
f 179 212 205
f 181 213 182
f 181 183 214
f 181 214 213
f 182 213 215
f 182 215 184
f 184 215 216
f 184 216 185
f 185 216 186
f 186 216 217
f 186 217 193
f 187 195 218
f 187 218 219
f 187 219 189
f 187 189 188
f 189 219 190
f 190 219 220
f 190 220 192
f 191 192 197
f 192 220 197
f 193 217 221
f 193 221 194
f 194 222 218
f 194 218 195
f 194 221 222
f 196 198 200
f 197 220 223
f 197 223 224
f 197 224 225
f 197 225 198
f 198 225 200
f 200 202 201
f 200 225 226
f 200 226 202
f 202 226 227
f 202 227 228
f 202 228 208
f 203 204 229
f 204 230 231
f 204 231 229
f 204 207 206
f 204 206 232
f 204 232 230
f 205 212 233
f 205 233 206
f 206 233 232
f 208 228 234
f 208 234 235
f 208 235 236
f 208 236 209
f 209 236 237
f 209 237 210
f 210 237 211
f 211 238 239
f 211 239 212
f 211 237 238
f 212 239 233
f 213 240 215
f 213 214 241
f 213 241 240
f 215 242 217
f 215 217 216
f 215 240 242
f 217 242 243
f 217 243 244
f 217 244 245
f 217 245 246
f 217 246 247
f 217 247 221
f 218 222 248
f 218 248 249
f 218 249 219
f 219 249 250
f 219 250 251
f 219 251 220
f 220 251 252
f 220 252 223
f 221 247 253
f 221 253 254
f 221 254 222
f 222 249 248
f 222 254 253
f 222 253 255
f 222 255 256
f 222 256 249
f 223 252 257
f 223 257 224
f 224 257 258
f 224 258 259
f 224 259 225
f 225 259 226
f 226 259 260
f 226 260 261
f 226 261 227
f 227 261 234
f 227 234 228
f 230 232 262
f 230 262 263
f 230 263 231
f 231 263 264
f 232 233 265
f 232 265 262
f 233 239 265
f 234 261 266
f 234 266 235
f 235 237 236
f 235 266 237
f 237 266 267
f 237 267 268
f 237 268 238
f 238 268 239
f 239 269 270
f 239 270 265
f 239 268 269
f 240 271 244
f 240 244 243
f 240 243 242
f 240 241 272
f 240 272 271
f 244 271 273
f 244 273 274
f 244 274 275
f 244 275 276
f 244 276 247
f 244 247 245
f 245 247 246
f 247 276 253
f 249 277 278
f 249 278 250
f 249 256 279
f 249 279 280
f 249 280 281
f 249 281 277
f 250 278 252
f 250 252 251
f 252 278 282
f 252 282 283
f 252 283 257
f 253 276 255
f 255 276 284
f 255 284 285
f 255 285 280
f 255 280 279
f 255 279 256
f 257 283 286
f 257 286 258
f 258 286 287
f 258 287 288
f 258 288 259
f 259 288 260
f 260 288 289
f 260 289 290
f 260 290 261
f 261 291 266
f 261 290 292
f 261 292 293
f 261 293 294
f 261 294 291
f 262 265 263
f 263 295 296
f 263 296 264
f 263 265 295
f 265 270 295
f 266 291 268
f 266 268 267
f 268 297 298
f 268 298 299
f 268 299 269
f 268 291 297
f 269 299 300
f 269 300 270
f 270 300 301
f 270 301 302
f 270 302 295
f 271 272 273
f 272 303 275
f 272 275 273
f 273 275 274
f 275 304 284
f 275 284 276
f 275 303 304
f 277 281 278
f 278 281 305
f 278 305 282
f 280 305 281
f 280 285 306
f 280 306 307
f 280 307 305
f 282 305 283
f 283 305 308
f 283 308 309
f 283 309 286
f 284 304 310
f 284 310 311
f 284 311 306
f 284 306 285
f 286 309 312
f 286 312 287
f 287 312 288
f 288 312 289
f 289 312 290
f 290 312 313
f 290 313 314
f 290 314 315
f 290 315 292
f 291 294 298
f 291 298 297
f 292 315 293
f 293 315 316
f 293 316 298
f 293 298 294
f 295 302 296
f 298 316 317
f 298 317 318
f 298 318 319
f 298 319 299
f 299 319 320
f 299 320 321
f 299 321 300
f 300 321 301
f 301 321 322
f 303 323 310
f 303 310 304
f 305 307 308
f 306 311 324
f 306 324 307
f 307 325 308
f 307 324 326
f 307 326 327
f 307 327 325
f 308 325 309
f 309 325 328
f 309 328 312
f 310 329 311
f 310 323 329
f 311 329 330
f 311 330 324
f 312 328 313
f 313 328 331
f 313 331 332
f 313 332 314
f 314 332 333
f 314 333 315
f 315 333 334
f 315 334 335
f 315 335 316
f 316 335 336
f 316 336 317
f 317 336 318
f 318 336 337
f 318 337 320
f 318 320 319
f 320 337 322
f 320 322 321
f 322 337 336
f 322 336 338
f 323 339 330
f 323 330 329
f 324 330 340
f 324 340 326
f 325 327 331
f 325 331 328
f 326 340 327
f 327 340 341
f 327 341 331
f 330 339 340
f 331 341 342
f 331 342 332
f 332 342 343
f 332 343 344
f 332 344 333
f 333 345 334
f 333 344 345
f 334 345 335
f 335 345 338
f 335 338 336
f 338 345 346
f 339 343 341
f 339 341 340
f 341 343 342
f 344 347 345
f 345 347 348
f 345 348 346

