# https://github.com/mikedh/trimesh
v 0.01463798 -0.07250380 0.00748545
v 0.01442348 -0.07250380 0.00432792
v 0.01405575 -0.07250380 0.00965695
v 0.03423470 -0.08259595 0.01200571
v 0.03444154 -0.08252374 0.01042141
v 0.03462540 -0.08246355 0.00748545
v 0.01381826 -0.07250380 0.00268822
v 0.03447219 -0.08251772 0.00541921
v 0.03552940 -0.08322784 0.00448857
v 0.01302918 -0.07250380 0.01113601
v 0.03270251 -0.08339033 0.01629885
v 0.03526126 -0.08464808 0.01629885
v 0.03566729 -0.08398009 0.01338506
v 0.03591245 -0.08339033 0.01042141
v 0.03608865 -0.08321580 0.00748545
v 0.01329732 -0.07250380 0.00158585
v 0.03760551 -0.08479251 0.00455504
v 0.03738335 -0.08512953 0.00252203
v 0.03572858 -0.08452170 0.00157477
v 0.01316708 -0.07250380 0.00140305
v 0.01156594 -0.07250380 0.01248211
v 0.03466371 -0.08516563 0.01824877
v 0.03709223 -0.08559291 0.01476440
v 0.03732972 -0.08518970 0.01280341
v 0.03753657 -0.08485871 0.01042141
v 0.03766680 -0.08468419 0.00748545
v 0.03867038 -0.08701917 0.00455504
v 0.03948244 -0.09011242 0.00163571
v 0.03795026 -0.08689881 0.00157477
v 0.03857079 -0.08995594 -0.00132240
v 0.03750592 -0.08790983 -0.00132240
v 0.03717650 -0.08840330 -0.00287901
v 0.03676281 -0.08584566 0.00056658
v 0.03480161 -0.08515961 -0.00043054
v 0.01158892 -0.07250380 -0.00064104
v 0.01170384 -0.07250380 -0.00051363
v 0.01139740 -0.07250380 0.01255967
v 0.03149208 -0.08542440 0.02086343
v 0.03256461 -0.08482261 0.01922927
v 0.03345328 -0.08600213 0.02020976
v 0.03487822 -0.08795797 0.02131213
v 0.03575156 -0.08715758 0.01914063
v 0.03673217 -0.08618868 0.01629885
v 0.03717650 -0.08831303 0.01807150
v 0.03739867 -0.08765708 0.01629885
v 0.03775107 -0.08675438 0.01361218
v 0.03847120 -0.08701917 0.01042141
v 0.03876232 -0.08701917 0.00748545
v 0.03964333 -0.08964903 0.00455504
v 0.04014129 -0.09119565 0.00262728
v 0.04027919 -0.09659378 -0.00331110
v 0.03822605 -0.09263394 -0.00452979
v 0.03757487 -0.08995594 -0.00356038
v 0.03706925 -0.09147849 -0.00568756
v 0.03591245 -0.08972124 -0.00510591
v 0.03370609 -0.08858986 -0.00562662
v 0.03564431 -0.08791584 -0.00351052
v 0.00903783 -0.07250380 -0.00216995
v 0.00922169 -0.07250380 0.01354570
v 0.02976836 -0.08641737 0.02267486
v 0.02976836 -0.08788576 0.02425916
v 0.03161465 -0.08829498 0.02383816
v 0.03357585 -0.08886067 0.02326759
v 0.03470967 -0.09082254 0.02418715
v 0.03683176 -0.08928795 0.02003250
v 0.03714586 -0.09124380 0.02080249
v 0.03791961 -0.08995594 0.01629885
v 0.03858612 -0.08995594 0.01335736
v 0.03922964 -0.08995594 0.01042141
v 0.03971227 -0.09014250 0.00746884
v 0.04015662 -0.09111742 0.00455504
v 0.04042474 -0.09289272 0.00455504
v 0.04085376 -0.09876627 -0.00132240
v 0.04044773 -0.09876627 -0.00368778
v 0.03976590 -0.09876627 -0.00515576
v 0.03952076 -0.09570312 -0.00427498
v 0.03754423 -0.09343434 -0.00628029
v 0.03716118 -0.09718956 -0.00870660
v 0.03640275 -0.09523372 -0.00823574
v 0.03575922 -0.09279643 -0.00727740
v 0.03511571 -0.09054570 -0.00631906
v 0.03444154 -0.09412039 -0.00880077
v 0.03270251 -0.09223074 -0.00822466
v 0.00758225 -0.07250380 -0.00276268
v 0.00627222 -0.07250380 0.01396671
v 0.02314164 -0.09126787 0.02966575
v 0.02543992 -0.08845747 0.02660792
v 0.02740113 -0.08884261 0.02622016
v 0.02976836 -0.08934813 0.02572714
v 0.02976836 -0.09081651 0.02717296
v 0.03154570 -0.09123777 0.02675749
v 0.03350691 -0.09197799 0.02614260
v 0.03455646 -0.09393383 0.02684612
v 0.03527659 -0.09292883 0.02513995
v 0.03672450 -0.09289272 0.02275241
v 0.03703094 -0.09582950 0.02329528
v 0.03725311 -0.09289272 0.02128443
v 0.03837161 -0.09289272 0.01629885
v 0.03998807 -0.09211038 0.00843271
v 0.04009533 -0.09124981 0.00647726
v 0.04017193 -0.09301308 0.00746884
v 0.04063159 -0.09582950 0.00455504
v 0.04086141 -0.09876627 0.00161909
v 0.04096867 -0.10170305 -0.00132240
v 0.04053200 -0.10170305 -0.00390937
v 0.03988081 -0.10170305 -0.00537734
v 0.03897682 -0.10170305 -0.00719431
v 0.03767446 -0.10170305 -0.00947106
v 0.03856313 -0.09876627 -0.00719431
v 0.03785066 -0.09605818 -0.00723309
v 0.03737569 -0.09876627 -0.00900574
v 0.03621122 -0.10170305 -0.01093903
v 0.03548343 -0.09887459 -0.01053465
v 0.03439558 -0.09992172 -0.01170349
v 0.03550641 -0.09605818 -0.00919962
v 0.03270251 -0.09782145 -0.01138774
v 0.03270251 -0.09582950 -0.01031307
v 0.03117798 -0.09733399 -0.01158716
v 0.00605006 -0.09275431 -0.01527095
v 0.00627989 -0.07250380 -0.00310613
v 0.00332276 -0.07250380 0.01385592
v 0.02095827 -0.09127388 0.02965467
v 0.02403031 -0.09264598 0.03046898
v 0.02509518 -0.09150256 0.02945524
v 0.02095827 -0.09289272 0.03083459
v 0.02658907 -0.08987771 0.02751641
v 0.02993690 -0.09288069 0.02875726
v 0.02683422 -0.09183355 0.02919489
v 0.03102476 -0.09454165 0.02941647
v 0.03259525 -0.09292883 0.02737792
v 0.03485523 -0.09582950 0.02721727
v 0.03624187 -0.09582950 0.02510671
v 0.03179851 -0.09649749 0.03002028
v 0.03223519 -0.09876627 0.03049668
v 0.03703094 -0.09876627 0.02328420
v 0.03736036 -0.09582950 0.02182731
v 0.03634146 -0.09876627 0.02510671
v 0.04007234 -0.09406623 0.00907530
v 0.03971994 -0.09301308 0.01019983
v 0.03901513 -0.09289272 0.01335736
v 0.04065457 -0.09876627 0.00455504
v 0.04086908 -0.10170305 0.00161909
v 0.04100698 -0.10463982 -0.00132240
v 0.04054732 -0.10463982 -0.00399246
v 0.03992679 -0.10463982 -0.00546044
v 0.03913770 -0.10463982 -0.00719431
v 0.03778938 -0.10463982 -0.00969264
v 0.03647935 -0.10463982 -0.01116062
v 0.03474032 -0.10170305 -0.01184198
v 0.03270251 -0.10170305 -0.01239593
v 0.01214817 -0.11051338 -0.01870546
v 0.00920637 -0.11051338 -0.01939236
v 0.00920637 -0.10757660 -0.01888272
v 0.00627222 -0.10757660 -0.01955855
v 0.00920637 -0.10463982 -0.01834539
v 0.00627222 -0.10463982 -0.01901567
v 0.00627222 -0.10170305 -0.01840632
v 0.00623392 -0.09881441 -0.01777482
v 0.00718388 -0.09786357 -0.01734273
v 0.00523033 -0.09700902 -0.01756986
v 0.00623392 -0.09594985 -0.01694389
v 0.00333808 -0.09505318 -0.01721532
v 0.00349896 -0.07250380 -0.00370994
v 0.01721972 -0.09153266 0.02942201
v 0.01813138 -0.09266404 0.03035819
v 0.01918093 -0.09138221 0.02955496
v 0.00040394 -0.07250380 0.01345707
v 0.02389241 -0.09520362 0.03206436
v 0.02683422 -0.09330195 0.03021970
v 0.01508232 -0.09321769 0.03033603
v 0.02095827 -0.09511938 0.03216407
v 0.02906355 -0.09385560 0.02984301
v 0.02993690 -0.09564294 0.03055761
v 0.03370609 -0.09876627 0.02902870
v 0.03395890 -0.10170305 0.02922258
v 0.03494717 -0.09876627 0.02755518
v 0.03494717 -0.10170305 0.02775461
v 0.02982965 -0.09861582 0.03201451
v 0.03090984 -0.10170305 0.03229703
v 0.03118564 -0.10346631 0.03241889
v 0.03248800 -0.10170305 0.03082905
v 0.03688538 -0.10757660 0.02269147
v 0.03723013 -0.10757660 0.02122350
v 0.03727609 -0.10463982 0.02140630
v 0.03775873 -0.10463982 0.01923481
v 0.03735270 -0.09876627 0.02181623
v 0.03858612 -0.09582950 0.01629885
v 0.03622654 -0.10463982 0.02510671
v 0.03616526 -0.10757660 0.02510671
v 0.03605800 -0.11051338 0.02510671
v 0.03417341 -0.10902091 0.02951618
v 0.03417341 -0.10923756 0.02951618
v 0.03477096 -0.10785343 0.02829748
v 0.03473266 -0.11033283 0.02833626
v 0.03920665 -0.09582950 0.01335736
v 0.04007234 -0.09529991 0.00907530
v 0.04053200 -0.10463982 0.00455504
v 0.04085376 -0.10463982 0.00161909
v 0.04091504 -0.10757660 -0.00132240
v 0.04050136 -0.10757660 -0.00392044
v 0.03990380 -0.10757660 -0.00538842
v 0.03909174 -0.10757660 -0.00719431
v 0.03776639 -0.10757660 -0.00958185
v 0.03635678 -0.10757660 -0.01104982
v 0.03488588 -0.10757660 -0.01193061
v 0.03501611 -0.10463982 -0.01194723
v 0.03270251 -0.10463982 -0.01266183
v 0.01508232 -0.11638693 -0.01866668
v 0.01214817 -0.11638693 -0.01949207
v 0.01214817 -0.11345014 -0.01917632
v 0.00781974 -0.11479817 -0.02042826
v 0.00710727 -0.11284233 -0.02026761
v 0.00618795 -0.11053745 -0.02008480
v 0.00514606 -0.11153041 -0.02048919
v 0.00433400 -0.10957456 -0.02031746
v 0.00334574 -0.10751641 -0.02016236
v 0.00333808 -0.10463982 -0.01964718
v -0.00130446 -0.10340614 -0.02037286
v 0.00333808 -0.10170305 -0.01902675
v 0.00333808 -0.09876627 -0.01837309
v 0.00040394 -0.09876627 -0.01891596
v 0.00333808 -0.09652156 -0.01776928
v 0.00333808 -0.07250380 -0.00374318
v 0.00040394 -0.09605216 -0.01802410
v -0.01292612 -0.09734001 -0.02039502
v 0.00040394 -0.09458377 -0.01737597
v 0.00024306 -0.07250380 0.01341829
v -0.00973150 -0.09442730 0.02654145
v -0.00777030 -0.09409631 0.02675749
v -0.00547201 -0.09372922 0.02701231
v -0.00253021 -0.09327787 0.02732806
v 0.00037329 -0.09267005 0.02747763
v 0.00333808 -0.09289272 0.02815345
v 0.01214817 -0.09356071 0.03008675
v 0.02389241 -0.09667202 0.03269587
v 0.02593789 -0.09708725 0.03254076
v 0.02789909 -0.09753259 0.03237458
v 0.02688018 -0.09599800 0.03179293
v 0.00920637 -0.09582950 0.03086783
v 0.01214817 -0.09582950 0.03128883
v 0.01508232 -0.09582950 0.03169875
v 0.01780962 -0.09593180 0.03208652
v 0.02095827 -0.09658776 0.03270695
v 0.03407382 -0.10463982 0.02936661
v 0.03238075 -0.10451946 0.03125559
v 0.02889501 -0.09948843 0.03266817
v 0.02943894 -0.10170305 0.03291745
v 0.03002883 -0.10451946 0.03303378
v 0.03131587 -0.10542216 0.03250753
v 0.03683176 -0.11051338 0.02247543
v 0.03718416 -0.11051338 0.02100746
v 0.03766680 -0.10757660 0.01923481
v 0.03791195 -0.09876627 0.01923481
v 0.03838693 -0.10463982 0.01629885
v 0.03847120 -0.10170305 0.01629885
v 0.03854781 -0.09876627 0.01629885
v 0.03476330 -0.11345014 0.02788756
v 0.03583583 -0.11345014 0.02510671
v 0.03677813 -0.11344413 0.02195472
v 0.03310088 -0.10785343 0.03069056
v 0.03320047 -0.11033283 0.03069056
v 0.03417341 -0.11119340 0.02950510
v 0.03914536 -0.09876627 0.01335736
v 0.03983485 -0.09610031 0.01019983
v 0.04004936 -0.09725576 0.00894789
v 0.04017959 -0.10463982 0.00678747
v 0.04013363 -0.10757660 0.00653819
v 0.04044007 -0.10757660 0.00455504
v 0.04076183 -0.10757660 0.00161909
v 0.04062393 -0.11051338 0.00161909
v 0.04076183 -0.11051338 -0.00132240
v 0.04042474 -0.11051338 -0.00376534
v 0.03985017 -0.11051338 -0.00523885
v 0.03895384 -0.11051338 -0.00719431
v 0.03768212 -0.11051338 -0.00933811
v 0.03605034 -0.11051338 -0.01080609
v 0.03435727 -0.11257153 -0.01170903
v 0.03457944 -0.11051338 -0.01183090
v 0.03752124 -0.11345014 -0.00910545
v 0.03726843 -0.11638693 -0.00882293
v 0.03270251 -0.11051338 -0.01257320
v 0.02734750 -0.11638693 -0.01422952
v 0.01718142 -0.11839091 -0.01774158
v 0.01214817 -0.11932369 -0.01914308
v 0.02577701 -0.11816824 -0.01466160
v 0.00896122 -0.11620036 -0.02011250
v 0.00781974 -0.11510509 -0.02042826
v 0.00333808 -0.11345014 -0.02109300
v 0.00618795 -0.11367281 -0.02060552
v 0.00334574 -0.11053745 -0.02067199
v 0.00049587 -0.10751641 -0.02072185
v -0.00042345 -0.10536198 -0.02053905
v 0.00049587 -0.10448335 -0.02020113
v -0.00238465 -0.10448335 -0.02073293
v -0.00547201 -0.10463982 -0.02122595
v -0.00325800 -0.10268999 -0.02053351
v -0.00238465 -0.10170906 -0.02014020
v -0.00253021 -0.09876627 -0.01939236
v -0.01721625 -0.09543231 -0.01975243
v -0.02015040 -0.09519760 -0.01991308
v 0.00057248 -0.07250380 -0.00402570
v -0.01134030 -0.09915744 -0.02076617
v -0.01405228 -0.09849546 -0.02092681
v -0.01488732 -0.09711735 -0.02051689
v -0.00253021 -0.07250380 0.01273693
v -0.01569172 -0.09734001 0.02656361
v -0.00168750 -0.09701504 0.02965467
v -0.00261448 -0.09595587 0.02889021
v 0.00040394 -0.09513742 0.02908963
v -0.02896815 -0.09372320 0.02117364
v 0.00333808 -0.09468006 0.02932783
v 0.00706130 -0.09416854 0.02964359
v 0.00920637 -0.09390976 0.02983193
v 0.02389241 -0.09876627 0.03328860
v 0.02688018 -0.09861582 0.03283436
v 0.00615731 -0.09558878 0.03027509
v 0.00333808 -0.09614845 0.03014769
v 0.00333808 -0.09876627 0.03122789
v 0.00627222 -0.09876627 0.03163228
v 0.01865232 -0.09697893 0.03255738
v 0.02095827 -0.09876627 0.03328860
v 0.03140014 -0.10757660 0.03256846
v 0.02683422 -0.10170305 0.03357666
v 0.02683422 -0.10463982 0.03399766
v 0.02976836 -0.10757660 0.03334954
v 0.03713820 -0.11245718 0.02083019
v 0.03755955 -0.11051338 0.01923481
v 0.03828734 -0.10757660 0.01629885
v 0.03888490 -0.10757660 0.01335736
v 0.03906876 -0.10170305 0.01335736
v 0.03409680 -0.11345014 0.02936107
v 0.03392826 -0.11638693 0.02900100
v 0.03457944 -0.11638693 0.02752749
v 0.03547577 -0.11638693 0.02510671
v 0.03707691 -0.11441904 0.02051444
v 0.03149208 -0.11051338 0.03263494
v 0.03146909 -0.11345014 0.03261832
v 0.03286338 -0.11345014 0.03098416
v 0.03988848 -0.10757660 0.00800617
v 0.03945181 -0.10757660 0.01042141
v 0.04008000 -0.11051338 0.00620582
v 0.04032516 -0.11051338 0.00455504
v 0.04016427 -0.11315527 0.00448857
v 0.04010299 -0.11547821 0.00346375
v 0.04041708 -0.11345014 0.00161909
v 0.04050136 -0.11345014 -0.00132240
v 0.04027919 -0.11345014 -0.00341635
v 0.03971994 -0.11345014 -0.00488432
v 0.03866273 -0.11345014 -0.00719431
v 0.03712288 -0.11786735 -0.00867336
v 0.03546045 -0.11351033 -0.01072853
v 0.03404317 -0.11453338 -0.01151515
v 0.02976836 -0.11638693 -0.01328780
v 0.03824137 -0.11638693 -0.00719431
v 0.01508232 -0.11935379 -0.01816259
v 0.01410172 -0.12126751 -0.01773050
v 0.01214817 -0.12180913 -0.01808503
v 0.00920637 -0.11932369 -0.01959732
v 0.02992924 -0.11942600 -0.01246240
v 0.02678825 -0.11921538 -0.01388053
v 0.00627222 -0.11573096 -0.02059444
v 0.00040394 -0.11345014 -0.02149738
v -0.00253021 -0.11051338 -0.02159156
v 0.00040394 -0.11051338 -0.02118163
v -0.00253021 -0.10757660 -0.02124811
v -0.00547201 -0.10757660 -0.02164695
v -0.00840616 -0.10463982 -0.02155278
v -0.01134030 -0.10170305 -0.02138105
v -0.00840616 -0.10170305 -0.02100991
v -0.00574015 -0.10170906 -0.02064430
v -0.00493575 -0.10072813 -0.02028423
v -0.01721625 -0.09690070 -0.02063322
v -0.02015040 -0.09666599 -0.02074955
v -0.02309220 -0.09522770 -0.01991862
v -0.02309220 -0.09298900 -0.01845064
v -0.02015040 -0.09304919 -0.01844510
v 0.00040394 -0.07250380 -0.00404231
v -0.01721625 -0.09876627 -0.02131458
v -0.00456802 -0.07250380 0.01212204
v -0.01721625 -0.09783348 0.02637526
v -0.01910851 -0.09992774 0.02667994
v -0.00364105 -0.09758675 0.02942755
v -0.02309220 -0.09639518 0.02411513
v -0.02515300 -0.09693078 0.02381600
v 0.00040394 -0.09876627 0.03069056
v 0.00040394 -0.09660582 0.02987625
v -0.03067654 -0.09413242 0.02089113
v -0.02608763 -0.09590171 0.02306262
v 0.02389241 -0.10170305 0.03391457
v 0.00333808 -0.10170305 0.03190372
v 0.00040394 -0.10170305 0.03141624
v 0.00868542 -0.10072212 0.03236904
v 0.02095827 -0.10170305 0.03388133
v 0.02389241 -0.10463982 0.03428018
v 0.02683422 -0.10757660 0.03415831
v 0.02976836 -0.11051338 0.03344371
v 0.03876998 -0.11051338 0.01335736
v 0.03817243 -0.11051338 0.01629885
v 0.03934455 -0.11051338 0.01042141
v 0.03228115 -0.11661561 0.03126667
v 0.03438025 -0.11830666 0.02706771
v 0.03120862 -0.11774698 0.03243551
v 0.03197472 -0.11932369 0.03048006
v 0.03633380 -0.11638693 0.02217076
v 0.03693135 -0.11660357 0.01941761
v 0.03882361 -0.11638693 0.01042141
v 0.03913770 -0.11345014 0.01042141
v 0.02976836 -0.11345014 0.03338277
v 0.03134652 -0.11579114 0.03252969
v 0.03983485 -0.11051338 0.00767380
v 0.04004936 -0.11198176 0.00602302
v 0.03996509 -0.11393760 0.00542475
v 0.03985784 -0.11642905 0.00448857
v 0.03998807 -0.11734980 0.00161909
v 0.04016427 -0.11588141 0.00161909
v 0.04019492 -0.11588743 -0.00132240
v 0.04013363 -0.11549024 -0.00303966
v 0.03960502 -0.11643507 -0.00411433
v 0.03751358 -0.11903483 -0.00696165
v 0.03717650 -0.12089439 -0.00583158
v 0.03614993 -0.11982921 -0.00778704
v 0.03419639 -0.12081014 -0.00867890
v 0.03102476 -0.12046711 -0.01144313
v 0.03156868 -0.11851127 -0.01184752
v 0.03212027 -0.11638693 -0.01212449
v 0.01214817 -0.12327752 -0.01717101
v 0.02906355 -0.12130963 -0.01200816
v 0.01009504 -0.12363258 -0.01738705
v 0.00915274 -0.12249518 -0.01820136
v 0.00352960 -0.11662765 -0.02081602
v -0.00547201 -0.12276599 -0.02007926
v -0.00547201 -0.12129760 -0.02057782
v -0.00547201 -0.11932369 -0.02118163
v -0.00253021 -0.11638693 -0.02164141
v 0.00040394 -0.11638693 -0.02127580
v -0.00253021 -0.11345014 -0.02185192
v -0.00547201 -0.11051338 -0.02194609
v -0.00840616 -0.10757660 -0.02187961
v -0.01428211 -0.10170305 -0.02168019
v -0.02015040 -0.09876627 -0.02149738
v -0.02309220 -0.09876627 -0.02153062
v -0.02309220 -0.09669609 -0.02073293
v -0.02543645 -0.09698495 -0.02058336
v -0.02625617 -0.09593782 -0.01981891
v -0.02602635 -0.09324176 -0.01821798
v -0.02309220 -0.09152062 -0.01739813
v -0.02602635 -0.09177338 -0.01723194
v -0.00253021 -0.07250380 -0.00392598
v -0.01721625 -0.10170305 -0.02187407
v -0.00467527 -0.07250380 0.01207219
v -0.02011209 -0.09887459 0.02602073
v -0.02711420 -0.09771313 0.02352240
v -0.02789562 -0.09966897 0.02379938
v -0.02116164 -0.10170305 0.02645282
v -0.01969074 -0.10170305 0.02681843
v -0.00969320 -0.10371306 0.02946632
v -0.00773199 -0.10233493 0.02970452
v -0.00253021 -0.10170305 0.03079027
v -0.02896815 -0.09582950 0.02220953
v -0.02896815 -0.08930600 0.01698021
v -0.03078380 -0.08829498 0.01509123
v -0.03274500 -0.08899307 0.01428800
v -0.03380221 -0.09094891 0.01527958
v -0.03465258 -0.09315150 0.01611605
v -0.03355706 -0.09410835 0.01794963
v -0.03264541 -0.09582950 0.01993833
v -0.03313571 -0.09780340 0.02048120
v -0.03117451 -0.09582950 0.02122904
v 0.00513074 -0.10361676 0.03240782
v 0.00709195 -0.10267796 0.03253523
v 0.00617263 -0.10170305 0.03226379
v 0.00040394 -0.10463982 0.03183724
v -0.00253021 -0.10463982 0.03126113
v 0.02095827 -0.10463982 0.03421370
v 0.02389241 -0.10757660 0.03438543
v 0.02683422 -0.11051338 0.03419154
v 0.03343030 -0.11929962 0.02804820
v 0.03390528 -0.12026251 0.02566620
v 0.03462540 -0.11929962 0.02485743
v 0.03709223 -0.11772893 0.01766712
v 0.03147675 -0.12118928 0.02983747
v 0.03004416 -0.11661561 0.03301162
v 0.02914016 -0.11932369 0.03279558
v 0.02846600 -0.12101475 0.03253523
v 0.03061107 -0.11932369 0.03194803
v 0.03830266 -0.11932369 0.01042141
v 0.03889256 -0.11932369 0.00748545
v 0.03939052 -0.11638693 0.00748545
v 0.03975058 -0.11315527 0.00719186
v 0.02683422 -0.11345014 0.03409737
v 0.02683422 -0.11638693 0.03386471
v 0.03996509 -0.11735582 -0.00132240
v 0.03915303 -0.11932369 0.00455504
v 0.03850185 -0.11932369 -0.00425836
v 0.03737569 -0.12114715 -0.00425836
v 0.03591245 -0.12261554 -0.00425836
v 0.03419639 -0.12374090 -0.00574849
v 0.03517699 -0.12183320 -0.00676776
v 0.03270251 -0.12138787 -0.00928825
v 0.01508232 -0.12424039 -0.01511584
v 0.01214817 -0.12479404 -0.01570303
v 0.02994456 -0.12241694 -0.01022997
v 0.02886437 -0.12394551 -0.00902236
v 0.02683422 -0.12320530 -0.01093349
v -0.00367935 -0.12688229 -0.01764187
v -0.00547201 -0.12710495 -0.01784683
v -0.00547201 -0.12519725 -0.01898244
v -0.00840616 -0.12304884 -0.02016236
v -0.00840616 -0.12158044 -0.02068307
v -0.00840616 -0.11932369 -0.02137552
v -0.00547201 -0.11638693 -0.02190731
v -0.00547201 -0.11345014 -0.02212889
v -0.00840616 -0.11051338 -0.02212335
v -0.02015040 -0.10170305 -0.02204580
v -0.02309220 -0.10170305 -0.02213443
v -0.02625617 -0.09852555 -0.02098221
v -0.02738999 -0.09738214 -0.02038948
v -0.02801819 -0.09374728 -0.01785791
v -0.02896815 -0.09077439 -0.01513246
v -0.02896815 -0.08930600 -0.01384729
v -0.02602635 -0.09017861 -0.01576397
v -0.00541073 -0.07250380 -0.00330002
v -0.00602360 -0.07250380 0.01134651
v -0.02890686 -0.09872414 0.02314571
v -0.02992577 -0.10170305 0.02342823
v -0.02845487 -0.10170305 0.02402650
v -0.02602635 -0.10170305 0.02485743
v -0.02156767 -0.10362278 0.02656361
v -0.00859002 -0.10466991 0.02981531
v -0.00547201 -0.10463982 0.03056315
v -0.03385584 -0.08819268 0.01233255
v -0.00611553 -0.07250380 0.01127450
v -0.00779328 -0.07250380 0.00988407
v -0.03480580 -0.09002816 0.01322995
v -0.03575576 -0.09218861 0.01412735
v -0.03641459 -0.09414446 0.01499706
v -0.03402438 -0.09582950 0.01847035
v -0.03357238 -0.09975924 0.02088559
v -0.03205551 -0.09877831 0.02156695
v 0.00341469 -0.10461575 0.03226933
v 0.00444126 -0.10557863 0.03250199
v 0.00617263 -0.10461575 0.03263494
v 0.00920637 -0.10463982 0.03297839
v 0.00040394 -0.10757660 0.03202559
v 0.00252602 -0.10757660 0.03235796
v -0.01001496 -0.10567491 0.02954942
v -0.00253021 -0.10757660 0.03143286
v 0.00920637 -0.10757660 0.03318335
v 0.02095827 -0.10757660 0.03429680
v 0.02389241 -0.11051338 0.03435773
v 0.03187512 -0.12220632 0.02789310
v 0.03134652 -0.12389135 0.02681843
v 0.03314684 -0.12198365 0.02485743
v 0.03419639 -0.12082819 0.02371075
v 0.03726077 -0.12102678 0.01244888
v 0.03696965 -0.12043100 0.01440433
v 0.02963046 -0.12207994 0.03092322
v 0.02882607 -0.12415012 0.03004797
v 0.03078727 -0.12314512 0.02877388
v 0.02683422 -0.11932369 0.03334954
v 0.02683422 -0.12149017 0.03271249
v 0.02683422 -0.12295856 0.03202005
v 0.03752890 -0.12144203 0.01042141
v 0.03782002 -0.12183921 0.00748545
v 0.02389241 -0.11345014 0.03424140
v 0.02389241 -0.11638693 0.03404198
v 0.02389241 -0.11932369 0.03363205
v 0.03913004 -0.11932369 0.00161909
v 0.03899215 -0.11932369 -0.00132240
v 0.03785066 -0.12179709 0.00455504
v 0.03621888 -0.12289236 -0.00132240
v 0.03760551 -0.12142397 -0.00132240
v 0.03444154 -0.12389135 -0.00425836
v 0.02231426 -0.12661750 -0.00857919
v 0.03081791 -0.12352425 -0.00836315
v 0.03015907 -0.12621429 -0.00132240
v 0.02868817 -0.12683414 -0.00132240
v 0.02836641 -0.12668971 -0.00286793
v 0.02208443 -0.12945798 -0.00199269
v 0.02012322 -0.12986119 -0.00346620
v 0.01909666 -0.12947002 -0.00542720
v 0.01645363 -0.12663555 -0.01156500
v 0.01214817 -0.12626243 -0.01394700
v 0.01021761 -0.12655130 -0.01437908
v 0.00826407 -0.12678600 -0.01466714
v 0.02035305 -0.12698459 -0.00909991
v -0.00547201 -0.12829651 -0.01600771
v -0.00840616 -0.12721929 -0.01797424
v -0.00840616 -0.12519725 -0.01919294
v -0.01134030 -0.12310299 -0.02017898
v -0.01134030 -0.12163461 -0.02070523
v -0.01134030 -0.11932369 -0.02143645
v -0.00840616 -0.11638693 -0.02199040
v -0.00840616 -0.11345014 -0.02220644
v -0.02015040 -0.10463982 -0.02216213
v -0.02309220 -0.10463982 -0.02216767
v -0.02602635 -0.10170305 -0.02164695
v -0.02774240 -0.09933798 -0.02065538
v -0.03004068 -0.09582950 -0.01709346
v -0.03086807 -0.09289272 -0.01499397
v -0.03050800 -0.09134008 -0.01459513
v -0.03071485 -0.08828294 -0.01189737
v -0.02896815 -0.08797603 -0.01237931
v -0.02602635 -0.08871022 -0.01424060
v -0.00558693 -0.07250380 -0.00326124
v -0.03190230 -0.10170305 0.02242004
v -0.03033946 -0.10388757 0.02359996
v -0.02920564 -0.10477221 0.02409852
v -0.02602635 -0.10463982 0.02520088
v -0.02166727 -0.10558464 0.02659131
v -0.01721625 -0.10757660 0.02778231
v -0.01161610 -0.10757660 0.02921150
v -0.01014519 -0.10757660 0.02958265
v -0.01113346 -0.10466991 0.02919489
v -0.03483644 -0.08781956 0.01019429
v -0.03634565 -0.08844543 0.00906422
v -0.03581704 -0.08910741 0.01102522
v -0.00790820 -0.07250380 0.00971789
v -0.03645290 -0.09106927 0.01216636
v -0.03661378 -0.09306123 0.01322995
v -0.03701215 -0.09582950 0.01335736
v -0.03656016 -0.09582950 0.01533497
v -0.03643758 -0.10247335 0.01805488
v -0.03603921 -0.09876627 0.01730151
v -0.03554125 -0.10157667 0.01911293
v -0.03445339 -0.09877831 0.01939545
v -0.03392479 -0.10170305 0.02116256
v 0.00399692 -0.10757660 0.03256292
v 0.00627222 -0.10757660 0.03286206
v 0.00040394 -0.11051338 0.03205883
v 0.00224256 -0.11051338 0.03239674
v -0.00840616 -0.10757660 0.03001474
v -0.00547201 -0.10757660 0.03072934
v -0.00253021 -0.11051338 0.03141624
v 0.00627222 -0.11051338 0.03293961
v 0.00920637 -0.11051338 0.03323321
v 0.02095827 -0.11051338 0.03425248
v 0.03162231 -0.12432464 0.02510671
v 0.02979135 -0.12464962 0.02789310
v 0.02986029 -0.12594950 0.02535599
v 0.02683422 -0.12460147 0.03055207
v 0.02707171 -0.12617217 0.02809252
v 0.02820553 -0.12663555 0.02650267
v 0.02389241 -0.12206188 0.03289530
v 0.02389241 -0.12353027 0.03235242
v 0.03656362 -0.12330760 0.00748545
v 0.03078727 -0.12618420 0.02217076
v 0.02095827 -0.11345014 0.03412507
v 0.02095827 -0.11638693 0.03393673
v 0.02095827 -0.11932369 0.03359328
v 0.02095827 -0.12208595 0.03290637
v 0.03657895 -0.12326547 0.00455504
v 0.03474798 -0.12411402 -0.00132240
v 0.03270251 -0.12512503 -0.00132240
v 0.01713545 -0.12980100 -0.00603655
v 0.02925508 -0.12708690 0.00161909
v 0.02683422 -0.12812199 0.00161909
v 0.02432909 -0.12916912 0.00161909
v 0.02250578 -0.12963251 -0.00003723
v 0.02683422 -0.12760444 -0.00132240
v 0.02104254 -0.13004172 -0.00113406
v 0.01801646 -0.13116709 -0.00132240
v 0.01334328 -0.13248503 -0.00248571
v 0.01508232 -0.13131754 -0.00425836
v 0.01807775 -0.13024032 -0.00436915
v 0.01801646 -0.12733965 -0.00969264
v 0.01508232 -0.13017412 -0.00654618
v 0.01210221 -0.13045095 -0.00736603
v 0.00922935 -0.12749612 -0.01326564
v -0.00547201 -0.12932559 -0.01385837
v -0.00840616 -0.12844094 -0.01600771
v 0.00920637 -0.12908486 -0.01069529
v 0.00627222 -0.13018616 -0.00963724
v 0.00920637 -0.13114903 -0.00719431
v 0.00627222 -0.13157029 -0.00719431
v -0.01134030 -0.12718920 -0.01796316
v -0.01134030 -0.12519725 -0.01919848
v -0.01428211 -0.12519725 -0.01907661
v -0.01428211 -0.12294051 -0.02012358
v -0.01428211 -0.12147212 -0.02064984
v -0.01134030 -0.11638693 -0.02197378
v -0.01428211 -0.11932369 -0.02132012
v -0.02309220 -0.10757660 -0.02191285
v -0.01428211 -0.11638693 -0.02182976
v -0.02630214 -0.10488656 -0.02123703
v -0.02774240 -0.10407413 -0.02067753
v -0.02786497 -0.10170305 -0.02079386
v -0.03037011 -0.09797189 -0.01739813
v -0.03136603 -0.09582950 -0.01562548
v -0.03246154 -0.09288670 -0.01292773
v -0.03324296 -0.09189975 -0.01129356
v -0.03115918 -0.09020269 -0.01294988
v -0.03272968 -0.08989577 -0.01024105
v -0.03119749 -0.08790983 -0.01013026
v -0.00970086 -0.07250380 0.00057212
v -0.00964723 -0.07250380 0.00050010
v -0.00811504 -0.07250380 -0.00153845
v -0.00786223 -0.07250380 -0.00179326
v -0.00587038 -0.07250380 -0.00315599
v -0.03433082 -0.10463982 0.02143400
v -0.03162650 -0.10477221 0.02302385
v -0.03046970 -0.10584342 0.02365535
v -0.02922096 -0.10750438 0.02409852
v -0.02602635 -0.10757660 0.02521196
v -0.02166727 -0.10688453 0.02659131
v -0.01721625 -0.11051338 0.02774907
v -0.01428211 -0.11051338 0.02850798
v -0.02044151 -0.10774510 0.02691814
v -0.01155481 -0.11051338 0.02920042
v -0.01009157 -0.11051338 0.02956603
v -0.03282161 -0.08574938 0.00748545
v -0.03634565 -0.08844543 0.00825545
v -0.03665975 -0.08969116 0.00736358
v -0.03657548 -0.09003418 0.01019429
v -0.03315869 -0.08573132 0.00455504
v -0.00927185 -0.07250380 0.00734143
v -0.03703514 -0.09289272 0.01042141
v -0.03720368 -0.09876627 0.01335736
v -0.03669039 -0.09876627 0.01583353
v -0.03652951 -0.10463982 0.01836510
v -0.03580172 -0.10463982 0.01983861
v 0.00371347 -0.11051338 0.03260170
v 0.00040394 -0.11345014 0.03192587
v 0.00238812 -0.11345014 0.03235796
v 0.00385136 -0.11345014 0.03260170
v -0.00840616 -0.11051338 0.02998150
v -0.00547201 -0.11051338 0.03070164
v -0.00993835 -0.11214424 0.02952726
v -0.00253021 -0.11345014 0.03122236
v 0.00627222 -0.11345014 0.03291745
v 0.00920637 -0.11345014 0.03316673
v 0.02894098 -0.12708690 0.02454168
v 0.02379282 -0.12534769 0.03070718
v 0.02275093 -0.12676794 0.02967683
v 0.02470447 -0.12643093 0.02910071
v 0.02625198 -0.12696653 0.02713972
v 0.02707171 -0.12756834 0.02535599
v 0.02095827 -0.12355434 0.03237458
v 0.02095827 -0.12519725 0.03118358
v 0.02095827 -0.12688229 0.02978762
v 0.03510804 -0.12431261 0.00455504
v 0.02932403 -0.12742992 0.02217076
v 0.02940830 -0.12756834 0.01923481
v 0.02999053 -0.12749010 0.01311916
v 0.00920637 -0.11638693 0.03303932
v 0.00627222 -0.11830666 0.03256846
v 0.00920637 -0.11896262 0.03270695
v 0.01084581 -0.12074394 0.03244105
v 0.01801646 -0.12188736 0.03277342
v 0.01801646 -0.12335574 0.03232472
v 0.03491652 -0.12424641 0.00161909
v 0.03270251 -0.12548612 0.00161909
v 0.03071832 -0.12643696 0.00161909
v 0.02683422 -0.12851316 0.00455504
v 0.02480407 -0.12937373 0.00455504
v 0.02285818 -0.12977693 0.00161909
v 0.02095827 -0.13052918 0.00161909
v 0.01801646 -0.13164853 0.00161909
v 0.01598631 -0.13235865 0.00161909
v 0.01502103 -0.13216607 -0.00143319
v 0.01227841 -0.13284010 -0.00143319
v 0.01138974 -0.13267158 -0.00319477
v 0.01227841 -0.13211793 -0.00420850
v 0.01400212 -0.13265955 -0.00053025
v -0.00547201 -0.13081804 -0.01013026
v -0.00840616 -0.12935567 -0.01386945
v 0.00627222 -0.13245494 -0.00530533
v 0.00333808 -0.13248503 -0.00542166
v -0.01134030 -0.12835067 -0.01600771
v 0.00920637 -0.13230448 -0.00500619
v -0.01428211 -0.12711097 -0.01790223
v -0.01721625 -0.12696653 -0.01776374
v -0.01721625 -0.12519725 -0.01881071
v -0.01721625 -0.12257341 -0.01998509
v -0.01721625 -0.12110502 -0.02051689
v -0.01721625 -0.11932369 -0.02104868
v -0.01721625 -0.11638693 -0.02156940
v -0.02015040 -0.11345014 -0.02160264
v -0.02015040 -0.11638693 -0.02127580
v -0.02309220 -0.11051338 -0.02150846
v -0.02572757 -0.10757660 -0.02105422
v -0.02753555 -0.12383719 -0.01750338
v -0.02768877 -0.12226048 -0.01763633
v -0.03042373 -0.10601794 -0.01746460
v -0.02933588 -0.10170305 -0.01902675
v -0.03046204 -0.09992774 -0.01750892
v -0.03050034 -0.10406209 -0.01755324
v -0.03136603 -0.09887459 -0.01625145
v -0.03282927 -0.09582950 -0.01368110
v -0.03350343 -0.09385560 -0.01185306
v -0.03390180 -0.09288670 -0.01024105
v -0.03365665 -0.09083457 -0.00933257
v -0.03316635 -0.08880651 -0.00719431
v -0.03170311 -0.08750663 -0.00719431
v -0.03083742 -0.08523784 -0.00132240
v -0.01024479 -0.07250380 0.00204563
v -0.03138901 -0.08489482 0.00161909
v -0.03589365 -0.10757660 0.01995494
v -0.03442275 -0.10757660 0.02147278
v -0.03162650 -0.10750438 0.02306816
v -0.03046970 -0.10648133 0.02365535
v -0.02869236 -0.11051338 0.02411513
v -0.02602635 -0.11051338 0.02505132
v -0.03037777 -0.10843717 0.02361658
v -0.02147574 -0.11051338 0.02653037
v -0.02160598 -0.10884037 0.02657469
v -0.01721625 -0.11345014 0.02762720
v -0.02000484 -0.11051338 0.02697353
v -0.03168779 -0.08479854 0.00455504
v -0.00927951 -0.07250380 0.00732481
v -0.00982343 -0.07250380 0.00585129
v -0.01019882 -0.07250380 0.00452734
v -0.03629202 -0.08853570 0.00629999
v -0.03665208 -0.09043738 0.00455504
v -0.03715770 -0.09289272 0.00748545
v -0.03285992 -0.08608638 0.00161909
v -0.03721899 -0.09582950 0.01042141
v -0.03725730 -0.09876627 0.01042141
v -0.03723432 -0.10170305 0.01335736
v -0.03693554 -0.10463982 0.01629885
v -0.03655249 -0.10757660 0.01848697
v 0.00040394 -0.11638693 0.03169875
v 0.00286310 -0.11638693 0.03225825
v 0.00433400 -0.11638693 0.03253523
v -0.01428211 -0.11345014 0.02836396
v -0.01721625 -0.11638693 0.02742778
v 0.00627222 -0.11638693 0.03278450
v 0.02683422 -0.12871175 0.02217076
v 0.02260537 -0.12964453 0.02373291
v 0.02370855 -0.12883211 0.02486851
v 0.02379282 -0.12724938 0.02809252
v 0.00813384 -0.13260539 0.02373845
v 0.01508232 -0.12519725 0.03094538
v 0.01801646 -0.12519725 0.03109495
v 0.01508232 -0.12688229 0.02970452
v 0.01801646 -0.12689432 0.02975438
v 0.00920637 -0.12990331 0.02691260
v 0.03270251 -0.12566666 0.00455504
v 0.02683422 -0.12897654 0.01923481
v 0.02683422 -0.12906681 0.01629885
v 0.02658907 -0.12924133 0.01359002
v 0.02658907 -0.12915708 0.01049342
v 0.02990626 -0.12742992 0.01068730
v 0.00470939 -0.11791549 0.03246875
v 0.00627222 -0.11977505 0.03214746
v 0.00920637 -0.12043100 0.03235242
v 0.01508232 -0.12292847 0.03222501
v 0.00784272 -0.12665360 0.02951064
v 0.03099411 -0.12654527 0.00455504
v 0.02952321 -0.12727345 0.00455504
v 0.02683422 -0.12878397 0.00748545
v 0.02333316 -0.12996350 0.00455504
v 0.02095827 -0.13089026 0.00455504
v 0.01639234 -0.13249104 0.00367979
v 0.01451541 -0.13281000 0.00161909
v 0.01214817 -0.13327940 0.00161909
v 0.00920637 -0.13355022 0.00161909
v 0.00920637 -0.13311692 -0.00132240
v 0.00920637 -0.13272574 -0.00353822
v -0.00253021 -0.13184712 -0.00719431
v -0.00547201 -0.13183508 -0.00719431
v -0.00840616 -0.13074583 -0.01013026
v -0.00840616 -0.12990331 -0.01240147
v -0.01134030 -0.12929550 -0.01369218
v 0.00627222 -0.13272574 -0.00383735
v 0.00627222 -0.13315904 -0.00132240
v 0.00333808 -0.13273779 -0.00395368
v 0.00040394 -0.13247299 -0.00531641
v -0.01428211 -0.12921726 -0.01352600
v -0.01428211 -0.12819420 -0.01600771
v -0.01721625 -0.12793543 -0.01600771
v -0.02309220 -0.12736372 -0.01580828
v -0.01928471 -0.12680405 -0.01760863
v -0.02309220 -0.12641288 -0.01727626
v -0.02309220 -0.12493848 -0.01802964
v -0.01995121 -0.12200772 -0.01981891
v -0.01883271 -0.12085829 -0.02043379
v -0.01995121 -0.11935981 -0.02070523
v -0.02215757 -0.11840295 -0.02057228
v -0.02267085 -0.11638693 -0.02076617
v -0.02414175 -0.11638693 -0.02026207
v -0.02602635 -0.12440288 -0.01770834
v -0.02602635 -0.12587126 -0.01688849
v -0.02763514 -0.12678600 -0.01484994
v -0.02816375 -0.12496856 -0.01590246
v -0.03037777 -0.12333167 -0.01444002
v -0.02938184 -0.12231463 -0.01576397
v -0.03050034 -0.12137583 -0.01462836
v -0.03132006 -0.10488054 -0.01629576
v -0.03050034 -0.10170305 -0.01755878
v -0.03167247 -0.10170305 -0.01600771
v -0.03304378 -0.09876627 -0.01393592
v -0.03366431 -0.09582950 -0.01221313
v -0.03440743 -0.09582950 -0.01013026
v -0.03490539 -0.09289272 -0.00719431
v -0.03633033 -0.09138822 0.00002924
v -0.03400140 -0.09027490 -0.00719431
v -0.03335022 -0.08852367 -0.00553799
v -0.03555657 -0.11051338 0.01961149
v -0.03408567 -0.11051338 0.02127335
v -0.03645290 -0.11051338 0.01814352
v -0.03190230 -0.11051338 0.02263054
v -0.03016326 -0.11051338 0.02352794
v -0.02972658 -0.11345014 0.02336176
v -0.02825568 -0.11345014 0.02393787
v -0.02309220 -0.11638693 0.02550556
v -0.02087819 -0.11638693 0.02631987
v -0.01941494 -0.11638693 0.02681289
v -0.02119995 -0.11345014 0.02643620
v -0.01972904 -0.11345014 0.02690706
v -0.03646056 -0.09111140 0.00161909
v -0.03702747 -0.09289272 0.00455504
v -0.03719602 -0.09582950 0.00748545
v -0.03716537 -0.10170305 0.01042141
v -0.03715770 -0.10463982 0.01335736
v -0.03689724 -0.10757660 0.01629885
v -0.01905488 -0.11818028 0.02670210
v 0.02509518 -0.12953621 0.01923481
v 0.02458956 -0.12941585 0.02217076
v 0.02311866 -0.12977091 0.02217076
v 0.01508232 -0.13156428 0.02217076
v 0.01379528 -0.13258734 0.01808258
v 0.00627222 -0.13261742 0.02375506
v 0.00627222 -0.13287017 0.02217076
v 0.00627222 -0.13357429 0.01629885
v 0.00920637 -0.13329746 0.01629885
v 0.01214817 -0.13300257 0.01629885
v 0.01214817 -0.13214802 0.02217076
v 0.01214817 -0.12683414 0.02964913
v 0.00627222 -0.12990331 0.02689044
v 0.00627222 -0.13137169 0.02522304
v 0.01666047 -0.13257530 0.00950184
v 0.02544758 -0.12962649 0.01152377
v 0.01669878 -0.13258734 0.00748545
v 0.02095827 -0.13107682 0.00748545
v 0.00040394 -0.11932369 0.03111156
v 0.00356791 -0.11906493 0.03188710
v 0.00333808 -0.12226048 0.03075149
v 0.00627222 -0.12226048 0.03126667
v 0.00627222 -0.12498061 0.03009783
v 0.00627222 -0.12644899 0.02941093
v 0.00333808 -0.12813402 0.02788202
v 0.00627222 -0.12813402 0.02825870
v 0.01663749 -0.13256927 0.00563525
v 0.01777897 -0.13207580 0.00461598
v 0.01528150 -0.13287619 0.00461598
v 0.01214817 -0.13350808 0.00455504
v 0.00920637 -0.13378490 0.00455504
v 0.00627222 -0.13395944 0.00455504
v 0.00627222 -0.13365853 0.00161909
v -0.00253021 -0.13244290 -0.00501173
v -0.00840616 -0.13170871 -0.00719431
v -0.01428211 -0.13043891 -0.01013026
v -0.01428211 -0.12977091 -0.01205802
v 0.00333808 -0.13318311 -0.00132240
v 0.00040394 -0.13271370 -0.00384843
v -0.01721625 -0.12968666 -0.01181982
v -0.01721625 -0.12909691 -0.01328780
v -0.02309220 -0.12850714 -0.01306621
v -0.02602635 -0.12711097 -0.01542052
v -0.01879441 -0.12961445 -0.01163702
v -0.02079392 -0.12035879 -0.02027869
v -0.02489253 -0.12967463 -0.00884509
v -0.02593441 -0.12895848 -0.00994746
v -0.02696098 -0.12947604 -0.00719431
v -0.02896815 -0.12825439 -0.00719431
v -0.02899113 -0.12741789 -0.00989760
v -0.03047736 -0.12671378 -0.00876200
v -0.03096000 -0.12428854 -0.01248456
v -0.03117451 -0.12231463 -0.01330441
v -0.03306676 -0.10170305 -0.01387499
v -0.03375624 -0.09876627 -0.01246795
v -0.03447637 -0.09876627 -0.01013026
v -0.03519650 -0.09582950 -0.00719431
v -0.03561786 -0.09289272 -0.00425836
v -0.03612348 -0.09289272 -0.00189852
v -0.03642225 -0.09289272 -0.00043054
v -0.03671337 -0.09289272 0.00161909
v -0.03633799 -0.11207804 0.01782222
v -0.03339618 -0.11496066 0.02072494
v -0.03361069 -0.11345014 0.02092990
v -0.03190230 -0.11345014 0.02212090
v -0.03672870 -0.11051338 0.01629885
v -0.02887622 -0.11663968 0.02311248
v -0.02747427 -0.11778911 0.02362765
v -0.02783433 -0.11582725 0.02376614
v -0.02630980 -0.11663968 0.02423700
v -0.03700449 -0.09582950 0.00455504
v -0.03670571 -0.09582950 0.00161909
v -0.03703514 -0.10463982 0.01042141
v -0.03700449 -0.10757660 0.01335736
v -0.02551306 -0.11881217 0.02403204
v -0.02336800 -0.11960654 0.02454168
v -0.02008145 -0.11922741 0.02590440
v -0.01721625 -0.12026852 0.02635864
v -0.00253021 -0.12519725 0.02835288
v -0.00253021 -0.12289236 0.02922812
v -0.00253021 -0.12142397 0.02972668
v 0.01469927 -0.13284610 0.01335736
v 0.01645363 -0.13250910 0.01145730
v 0.01417833 -0.13269565 0.01629885
v 0.01214817 -0.13328542 0.01335736
v 0.00333808 -0.13256927 0.02368305
v 0.00333808 -0.13279796 0.02217076
v 0.00333808 -0.13318913 0.01923481
v 0.00333808 -0.13356826 0.01629885
v 0.00627222 -0.13381500 0.01335736
v 0.00920637 -0.13356224 0.01335736
v 0.00333808 -0.12974684 0.02671871
v 0.00186718 -0.13253919 0.02363873
v 0.01531981 -0.13288222 0.01045464
v 0.01508232 -0.13302062 0.00748545
v 0.01816968 -0.13208182 0.00748545
v -0.00075287 -0.12353629 0.02944417
v 0.00029668 -0.12244101 0.03005351
v 0.00333808 -0.12450518 0.02985963
v 0.00120834 -0.12406587 0.02966021
v 0.00333808 -0.12597357 0.02920597
v 0.00067973 -0.12821828 0.02731699
v 0.00183653 -0.12962046 0.02659131
v 0.01214817 -0.13352615 0.00748545
v 0.00920637 -0.13376083 0.00748545
v 0.00627222 -0.13397147 0.00748545
v 0.00333808 -0.13397749 0.00748545
v 0.00333808 -0.13393535 0.00455504
v 0.00333808 -0.13364650 0.00161909
v 0.00040394 -0.13310488 -0.00132240
v -0.01134030 -0.13218413 -0.00425836
v -0.01428211 -0.13139577 -0.00719431
v -0.01721625 -0.13024634 -0.01013026
v -0.02075561 -0.12948807 -0.01128802
v -0.02309220 -0.12983711 -0.00929933
v -0.01992823 -0.12994544 -0.01023551
v -0.02309220 -0.13033058 -0.00719431
v -0.02549008 -0.12983110 -0.00719431
v -0.02735935 -0.12956029 -0.00425836
v -0.03190230 -0.12808588 0.00455504
v -0.02896815 -0.12870573 -0.00425836
v -0.03166481 -0.12754427 -0.00132240
v -0.02309220 -0.13067963 -0.00425836
v -0.02589611 -0.12998757 -0.00425836
v -0.03121281 -0.12727947 -0.00425836
v -0.03329659 -0.12653926 0.00053334
v -0.03313571 -0.12611198 -0.00132240
v -0.03117451 -0.12523937 -0.00989760
v -0.03243090 -0.12226048 -0.01013026
v -0.03296717 -0.10463982 -0.01346506
v -0.03368730 -0.10170305 -0.01240701
v -0.03506627 -0.09876627 -0.00719431
v -0.03579406 -0.09582950 -0.00425836
v -0.03425421 -0.10170305 -0.01013026
v -0.03642992 -0.09582950 -0.00050255
v -0.03587833 -0.12226048 0.01042141
v -0.03512756 -0.12226048 0.01335736
v -0.03390947 -0.12226048 0.01550116
v -0.03395543 -0.11611612 0.01916833
v -0.03318167 -0.12045508 0.01757294
v -0.03025519 -0.12050924 0.02055321
v -0.03081444 -0.11855340 0.02105177
v -0.03184101 -0.11611612 0.02136753
v -0.03680531 -0.11051338 0.01335736
v -0.02630980 -0.11960654 0.02336176
v -0.02454012 -0.12077403 0.02363319
v -0.02915201 -0.11945007 0.02181623
v -0.02829399 -0.12164062 0.02124012
v -0.03584002 -0.12226048 0.00748545
v -0.02017338 -0.12236880 0.02439211
v -0.02257892 -0.12146610 0.02399326
v -0.01721625 -0.12226048 0.02538923
v -0.00563289 -0.12538982 0.02737238
v -0.00475955 -0.12700264 0.02685166
v -0.00253021 -0.12738779 0.02716742
v 0.00029668 -0.12510698 0.02902870
v 0.01214817 -0.13344791 0.01042141
v 0.00333808 -0.13380899 0.01335736
v 0.00040394 -0.13328542 0.01629885
v -0.00253021 -0.13328542 0.01335736
v 0.00040394 -0.13356224 0.01335736
v 0.00920637 -0.13367659 0.01042141
v 0.00333808 -0.13390528 0.01042141
v -0.02015040 -0.12705681 0.02108501
v -0.02168259 -0.12962649 0.01779453
v -0.02015040 -0.13050511 0.01629885
v -0.02309220 -0.13078194 0.01335736
v -0.02015040 -0.13132355 0.01335736
v -0.01721625 -0.13173880 0.01335736
v -0.01428211 -0.13208182 0.01335736
v 0.00040394 -0.13379695 0.00748545
v 0.00040394 -0.13376083 0.00455504
v -0.01134030 -0.13285212 0.00161909
v -0.00840616 -0.13302062 0.00161909
v 0.00040394 -0.13350207 0.00161909
v -0.01134030 -0.13245494 -0.00206470
v -0.01428211 -0.13202165 -0.00425836
v -0.01721625 -0.13113098 -0.00719431
v -0.02015040 -0.13076990 -0.00719431
v -0.01721625 -0.13169667 -0.00425836
v -0.02015040 -0.13122727 -0.00425836
v -0.02602635 -0.13046901 0.00455504
v -0.02808714 -0.12981906 0.00455504
v -0.02955804 -0.12927143 0.00455504
v -0.03190230 -0.12826041 0.00748545
v -0.03373326 -0.12706283 0.00748545
v -0.03361835 -0.12694848 0.00455504
v -0.03345747 -0.12676794 0.00249433
v -0.02015040 -0.13152215 -0.00132240
v -0.02015040 -0.13176888 0.00161909
v -0.02309220 -0.13090230 -0.00132240
v -0.02309220 -0.13111293 0.00161909
v -0.03458363 -0.12519725 0.00455504
v -0.03396309 -0.12541389 0.00155815
v -0.03371028 -0.12464360 -0.00132240
v -0.03347279 -0.12409596 -0.00322800
v -0.03486708 -0.12226048 0.00161909
v -0.03544931 -0.12226048 0.00455504
v -0.03489007 -0.12519725 0.00748545
v -0.03443807 -0.12545602 0.01062637
v -0.03401672 -0.12451722 0.01335736
v -0.03348811 -0.12385524 0.01494167
v -0.03109024 -0.12226048 0.01844819
v -0.03051566 -0.12380710 0.01784992
v -0.02915201 -0.12247110 0.02001588
v -0.02336800 -0.12236880 0.02317341
v -0.02116164 -0.12342194 0.02345593
v -0.02621021 -0.12247110 0.02184392
v -0.02731339 -0.12359646 0.02059753
v -0.01920810 -0.12400569 0.02383816
v -0.02017338 -0.12507087 0.02266378
v -0.00253021 -0.13349003 0.01042141
v 0.00040394 -0.13371269 0.01042141
v -0.01423614 -0.13238272 0.01039371
v -0.01323256 -0.13258132 0.00939659
v -0.02172855 -0.12671979 0.02075264
v -0.02268617 -0.12792340 0.01901322
v -0.02539049 -0.12717115 0.01827093
v -0.02363613 -0.12912699 0.01707993
v -0.02494615 -0.12974684 0.01511893
v -0.02283173 -0.12995145 0.01617698
v -0.02596506 -0.12999959 0.01323549
v -0.02602635 -0.13048705 0.01042141
v -0.02309220 -0.13119718 0.01042141
v -0.02015040 -0.13163047 0.01042141
v -0.01721625 -0.13202165 0.01042141
v -0.00253021 -0.13360438 0.00748545
v -0.00547201 -0.13338772 0.00455504
v -0.01134030 -0.13297248 0.00455504
v -0.01421316 -0.13262344 0.00190714
v -0.01318659 -0.13257530 -0.00017018
v -0.00840616 -0.13319516 0.00455504
v -0.01134030 -0.13262946 -0.00059119
v -0.01421316 -0.13236466 -0.00121715
v -0.01721625 -0.13200359 -0.00132240
v -0.02602635 -0.13058936 0.00748545
v -0.02827100 -0.12989128 0.00748545
v -0.02309220 -0.13124532 0.00455504
v -0.02974191 -0.12933160 0.00748545
v -0.02951208 -0.12919921 0.01042141
v -0.03216277 -0.12767064 0.01062637
v -0.03361069 -0.12691839 0.00978990
v -0.02015040 -0.13187119 0.00455504
v -0.01692514 -0.13231051 0.00190714
v -0.03331191 -0.12661147 0.01174536
v -0.03265307 -0.12598560 0.01335736
v -0.03051566 -0.12672582 0.01490289
v -0.03149626 -0.12481210 0.01590001
v -0.02896815 -0.12591941 0.01700791
v -0.02896815 -0.12445102 0.01848143
v -0.02535984 -0.12420428 0.02109609
v -0.02286237 -0.12519123 0.02144508
v -0.02735169 -0.12656935 0.01766158
v -0.02635577 -0.12538982 0.01943423
v -0.02368976 -0.12616013 0.02023192
v -0.01134030 -0.13287619 0.00748545
v -0.01527037 -0.13249104 0.00748545
v -0.01380713 -0.13264149 0.00748545
v -0.02614892 -0.12824836 0.01639302
v -0.02690736 -0.12931957 0.01413289
v -0.02771176 -0.12968666 0.01217744
v -0.02804118 -0.12981304 0.01042141
v -0.02309220 -0.13128143 0.00748545
v -0.02015040 -0.13181703 0.00748545
v -0.01721625 -0.13225033 0.00748545
v -0.01566874 -0.13253317 0.00507022
v -0.01452726 -0.13265955 0.00427252
v -0.01575301 -0.13253919 0.00308153
v -0.01514013 -0.13247901 0.00112607
v -0.01692514 -0.13237671 0.00427252
v -0.02879961 -0.12866962 0.01323549
v -0.03118983 -0.12718318 0.01335736
v -0.02896815 -0.12723735 0.01553994
v -0.01575301 -0.13253919 0.00310922
f 1 2 7
f 1 7 16
f 1 16 20
f 1 20 36
f 1 36 35
f 1 35 58
f 1 58 84
f 1 84 120
f 1 120 163
f 1 163 223
f 1 223 301
f 1 301 377
f 1 377 448
f 1 448 522
f 1 522 605
f 1 605 699
f 1 699 698
f 1 698 697
f 1 697 696
f 1 696 695
f 1 695 796
f 1 796 812
f 1 812 811
f 1 811 810
f 1 810 716
f 1 716 618
f 1 618 533
f 1 533 532
f 1 532 523
f 1 523 450
f 1 450 379
f 1 379 305
f 1 305 227
f 1 227 167
f 1 167 121
f 1 121 85
f 1 85 59
f 1 59 37
f 1 37 21
f 1 21 10
f 1 10 3
f 1 3 4
f 1 4 5
f 1 5 6
f 1 6 2
f 2 6 8
f 2 8 9
f 2 9 7
f 3 10 4
f 4 11 12
f 4 12 13
f 4 13 14
f 4 14 5
f 4 10 11
f 5 14 15
f 5 15 6
f 6 15 8
f 7 9 16
f 8 15 9
f 9 15 17
f 9 17 18
f 9 18 19
f 9 19 20
f 9 20 16
f 10 21 11
f 11 22 12
f 11 21 22
f 12 22 23
f 12 23 13
f 13 23 24
f 13 24 14
f 14 24 25
f 14 25 15
f 15 25 26
f 15 26 17
f 17 26 27
f 17 27 18
f 18 27 28
f 18 28 29
f 18 29 30
f 18 30 31
f 18 31 32
f 18 32 33
f 18 33 19
f 19 33 34
f 19 34 35
f 19 35 36
f 19 36 20
f 21 37 38
f 21 38 39
f 21 39 22
f 22 40 41
f 22 41 42
f 22 42 43
f 22 43 23
f 22 39 38
f 22 38 40
f 23 44 45
f 23 45 46
f 23 46 24
f 23 43 44
f 24 46 47
f 24 47 25
f 25 47 48
f 25 48 26
f 26 48 27
f 27 48 49
f 27 49 50
f 27 50 28
f 28 30 29
f 28 50 51
f 28 51 30
f 30 52 53
f 30 53 32
f 30 32 31
f 30 51 52
f 32 54 55
f 32 55 56
f 32 56 57
f 32 57 34
f 32 34 33
f 32 53 54
f 34 57 35
f 35 57 56
f 35 56 58
f 37 59 38
f 38 60 61
f 38 61 62
f 38 62 63
f 38 63 40
f 38 59 60
f 40 63 41
f 41 63 64
f 41 64 65
f 41 65 42
f 42 65 43
f 43 65 44
f 44 65 66
f 44 66 67
f 44 67 68
f 44 68 69
f 44 69 45
f 45 69 46
f 46 69 47
f 47 69 70
f 47 70 48
f 48 70 71
f 48 71 49
f 49 71 50
f 50 71 72
f 50 72 73
f 50 73 51
f 51 73 74
f 51 74 75
f 51 75 76
f 51 76 52
f 52 77 54
f 52 54 53
f 52 76 77
f 54 78 79
f 54 79 80
f 54 80 81
f 54 81 55
f 54 77 78
f 55 81 56
f 56 81 82
f 56 82 83
f 56 83 84
f 56 84 58
f 59 85 86
f 59 86 87
f 59 87 60
f 60 87 61
f 61 87 88
f 61 88 89
f 61 89 62
f 62 89 90
f 62 90 91
f 62 91 63
f 63 92 64
f 63 91 92
f 64 93 94
f 64 94 65
f 64 92 93
f 65 95 66
f 65 94 95
f 66 95 96
f 66 96 97
f 66 97 98
f 66 98 99
f 66 99 68
f 66 68 67
f 68 99 69
f 69 99 70
f 70 99 100
f 70 100 71
f 71 100 72
f 72 100 101
f 72 101 102
f 72 102 103
f 72 103 73
f 73 103 104
f 73 104 105
f 73 105 74
f 74 105 106
f 74 106 75
f 75 106 107
f 75 107 108
f 75 108 109
f 75 109 76
f 76 109 110
f 76 110 77
f 77 110 78
f 78 110 111
f 78 111 112
f 78 112 113
f 78 113 114
f 78 114 115
f 78 115 79
f 79 115 82
f 79 82 80
f 80 82 81
f 82 114 116
f 82 116 117
f 82 117 83
f 82 115 114
f 83 117 118
f 83 118 119
f 83 119 120
f 83 120 84
f 85 121 122
f 85 122 86
f 86 123 124
f 86 124 87
f 86 122 125
f 86 125 123
f 87 124 126
f 87 126 88
f 88 90 89
f 88 126 90
f 90 127 91
f 90 126 128
f 90 128 127
f 91 127 129
f 91 129 130
f 91 130 92
f 92 130 93
f 93 131 132
f 93 132 94
f 93 130 129
f 93 129 133
f 93 133 134
f 93 134 131
f 94 132 95
f 95 132 96
f 96 135 136
f 96 136 97
f 96 132 137
f 96 137 135
f 97 136 98
f 98 138 139
f 98 139 140
f 98 140 99
f 98 136 138
f 99 138 101
f 99 101 100
f 99 140 139
f 99 139 138
f 101 138 102
f 102 141 103
f 102 138 141
f 103 141 142
f 103 142 143
f 103 143 104
f 104 143 105
f 105 143 144
f 105 144 145
f 105 145 106
f 106 145 146
f 106 146 107
f 107 146 147
f 107 147 108
f 108 147 148
f 108 148 112
f 108 112 111
f 108 111 109
f 109 111 110
f 112 148 149
f 112 149 114
f 112 114 113
f 114 118 116
f 114 149 150
f 114 150 151
f 114 151 152
f 114 152 153
f 114 153 154
f 114 154 155
f 114 155 156
f 114 156 157
f 114 157 158
f 114 158 159
f 114 159 160
f 114 160 118
f 116 118 117
f 118 160 161
f 118 161 162
f 118 162 119
f 119 162 163
f 119 163 120
f 121 164 165
f 121 165 166
f 121 166 122
f 121 167 164
f 122 166 125
f 123 125 168
f 123 168 169
f 123 169 124
f 124 169 128
f 124 128 126
f 125 166 165
f 125 165 170
f 125 170 171
f 125 171 168
f 127 128 172
f 127 172 129
f 128 169 172
f 129 172 173
f 129 173 133
f 131 174 175
f 131 175 176
f 131 176 132
f 131 134 174
f 132 176 177
f 132 177 137
f 133 173 178
f 133 178 134
f 134 178 179
f 134 179 180
f 134 180 181
f 134 181 174
f 135 182 183
f 135 183 184
f 135 184 185
f 135 185 186
f 135 186 187
f 135 187 136
f 135 137 188
f 135 188 189
f 135 189 190
f 135 190 182
f 136 187 138
f 137 177 191
f 137 191 192
f 137 192 193
f 137 193 194
f 137 194 188
f 138 187 195
f 138 195 196
f 138 196 141
f 141 197 198
f 141 198 142
f 141 196 197
f 142 198 143
f 143 198 269
f 143 269 199
f 143 199 200
f 143 200 144
f 144 200 201
f 144 201 145
f 145 201 202
f 145 202 146
f 146 202 147
f 147 202 203
f 147 203 148
f 148 204 205
f 148 205 206
f 148 206 149
f 148 203 204
f 149 206 207
f 149 207 208
f 149 208 209
f 149 209 150
f 150 209 210
f 150 210 211
f 150 211 151
f 151 211 152
f 152 211 212
f 152 212 213
f 152 213 154
f 152 154 153
f 154 213 214
f 154 214 215
f 154 215 216
f 154 216 217
f 154 217 156
f 154 156 155
f 156 217 157
f 157 217 218
f 157 218 219
f 157 219 158
f 158 219 220
f 158 220 160
f 158 160 159
f 160 220 221
f 160 221 222
f 160 222 162
f 160 162 161
f 162 223 163
f 162 222 224
f 162 224 225
f 162 225 226
f 162 226 223
f 164 170 165
f 164 167 170
f 167 227 228
f 167 228 229
f 167 229 230
f 167 230 231
f 167 231 232
f 167 232 233
f 167 233 234
f 167 234 170
f 168 235 236
f 168 236 237
f 168 237 238
f 168 238 169
f 168 171 235
f 169 238 172
f 170 234 239
f 170 239 240
f 170 240 171
f 171 240 241
f 171 241 242
f 171 242 243
f 171 243 235
f 172 237 173
f 172 238 237
f 173 237 178
f 174 181 175
f 175 244 176
f 175 181 245
f 175 245 244
f 176 244 191
f 176 191 177
f 178 237 246
f 178 246 179
f 179 246 247
f 179 247 180
f 180 247 248
f 180 248 249
f 180 249 181
f 181 249 245
f 182 190 250
f 182 250 251
f 182 251 183
f 183 251 252
f 183 252 185
f 183 185 184
f 185 253 186
f 185 252 254
f 185 254 255
f 185 255 256
f 185 256 253
f 186 253 187
f 187 253 256
f 187 256 195
f 188 194 189
f 189 194 190
f 190 194 257
f 190 257 258
f 190 258 259
f 190 259 250
f 191 244 260
f 191 260 261
f 191 261 192
f 192 261 262
f 192 262 193
f 193 262 194
f 194 262 257
f 195 256 263
f 195 263 264
f 195 264 196
f 196 264 265
f 196 265 197
f 197 266 267
f 197 267 268
f 197 268 269
f 197 269 198
f 197 265 266
f 199 269 270
f 199 270 271
f 199 271 272
f 199 272 200
f 200 272 273
f 200 273 201
f 201 273 202
f 202 274 203
f 202 273 274
f 203 274 275
f 203 275 204
f 204 276 277
f 204 277 278
f 204 278 205
f 204 275 279
f 204 279 280
f 204 280 276
f 205 278 281
f 205 281 282
f 205 282 208
f 205 208 206
f 206 208 207
f 208 283 284
f 208 284 209
f 208 282 285
f 208 285 283
f 209 284 286
f 209 286 287
f 209 287 211
f 209 211 210
f 211 287 288
f 211 288 289
f 211 289 214
f 211 214 212
f 212 214 213
f 214 289 288
f 214 288 290
f 214 290 291
f 214 291 292
f 214 292 215
f 215 292 216
f 216 292 218
f 216 218 293
f 216 293 217
f 217 293 218
f 218 292 294
f 218 294 295
f 218 295 296
f 218 296 297
f 218 297 221
f 218 221 220
f 218 220 219
f 221 297 298
f 221 298 222
f 222 298 225
f 222 225 224
f 223 226 299
f 223 299 300
f 223 300 301
f 225 302 303
f 225 303 304
f 225 304 226
f 225 298 302
f 226 304 299
f 227 305 228
f 228 306 307
f 228 307 308
f 228 308 309
f 228 309 229
f 228 305 310
f 228 310 306
f 229 309 230
f 230 309 231
f 231 309 232
f 232 309 311
f 232 311 233
f 233 311 312
f 233 312 313
f 233 313 234
f 234 313 239
f 235 314 236
f 235 243 314
f 236 314 315
f 236 315 237
f 237 315 246
f 239 313 316
f 239 316 317
f 239 317 318
f 239 318 240
f 240 318 241
f 241 318 319
f 241 319 242
f 242 320 243
f 242 319 320
f 243 320 321
f 243 321 314
f 244 245 260
f 245 249 322
f 245 322 260
f 246 315 323
f 246 323 247
f 247 323 324
f 247 324 248
f 248 324 325
f 248 325 249
f 249 325 322
f 250 259 326
f 250 326 251
f 251 326 327
f 251 327 252
f 252 327 328
f 252 328 254
f 254 329 330
f 254 330 255
f 254 328 329
f 255 330 263
f 255 263 256
f 257 262 331
f 257 331 332
f 257 332 333
f 257 333 258
f 258 333 334
f 258 334 259
f 259 335 326
f 259 334 335
f 260 322 336
f 260 336 261
f 261 336 337
f 261 337 338
f 261 338 262
f 262 338 331
f 263 330 264
f 264 330 265
f 265 339 267
f 265 267 266
f 265 330 340
f 265 340 339
f 267 339 410
f 267 410 341
f 267 341 268
f 268 342 269
f 268 341 342
f 269 342 270
f 270 342 343
f 270 343 344
f 270 344 345
f 270 345 271
f 271 345 346
f 271 346 347
f 271 347 272
f 272 347 348
f 272 348 273
f 273 348 349
f 273 349 274
f 274 349 275
f 275 349 279
f 276 280 350
f 276 350 351
f 276 351 277
f 277 351 350
f 277 350 352
f 277 352 353
f 277 353 278
f 278 353 281
f 279 349 354
f 279 354 280
f 280 354 350
f 281 353 282
f 282 353 285
f 283 355 284
f 283 285 355
f 284 355 356
f 284 356 357
f 284 357 358
f 284 358 286
f 285 353 359
f 285 359 360
f 285 360 355
f 286 358 361
f 286 361 287
f 287 361 362
f 287 362 288
f 288 362 363
f 288 363 364
f 288 364 290
f 290 364 291
f 291 364 365
f 291 365 292
f 292 365 294
f 294 365 295
f 295 365 366
f 295 366 367
f 295 367 368
f 295 368 369
f 295 369 296
f 296 369 370
f 296 370 371
f 296 371 297
f 297 371 298
f 298 371 302
f 299 304 372
f 299 372 300
f 300 373 374
f 300 374 375
f 300 375 376
f 300 376 377
f 300 377 301
f 300 372 373
f 302 368 303
f 302 371 369
f 302 369 368
f 303 378 304
f 303 368 378
f 304 378 372
f 305 379 310
f 306 380 381
f 306 381 382
f 306 382 307
f 306 310 383
f 306 383 384
f 306 384 380
f 307 382 385
f 307 385 318
f 307 318 386
f 307 386 309
f 307 309 308
f 309 386 317
f 309 317 311
f 310 387 388
f 310 388 383
f 310 379 387
f 311 317 312
f 312 317 313
f 313 317 316
f 314 389 323
f 314 323 315
f 314 321 389
f 317 386 318
f 318 390 319
f 318 385 391
f 318 391 390
f 319 390 392
f 319 392 321
f 319 321 320
f 321 392 393
f 321 393 389
f 322 325 336
f 323 389 324
f 324 389 394
f 324 394 395
f 324 395 325
f 325 396 336
f 325 395 396
f 326 335 397
f 326 397 398
f 326 398 327
f 327 398 328
f 328 398 397
f 328 397 329
f 329 397 399
f 329 399 340
f 329 340 330
f 331 338 400
f 331 400 332
f 332 401 333
f 332 400 402
f 332 402 403
f 332 403 401
f 333 401 334
f 334 401 404
f 334 404 335
f 335 404 405
f 335 405 406
f 335 406 407
f 335 407 397
f 336 396 337
f 337 396 408
f 337 408 409
f 337 409 338
f 338 409 402
f 338 402 400
f 339 340 399
f 339 399 410
f 341 410 411
f 341 411 342
f 342 411 343
f 343 411 412
f 343 412 344
f 344 412 413
f 344 413 414
f 344 414 415
f 344 415 345
f 345 415 346
f 346 415 414
f 346 414 416
f 346 416 417
f 346 417 347
f 347 417 418
f 347 418 348
f 348 418 354
f 348 354 349
f 350 354 418
f 350 418 419
f 350 419 420
f 350 420 421
f 350 421 422
f 350 422 423
f 350 423 424
f 350 424 352
f 352 424 425
f 352 425 353
f 353 425 359
f 355 360 356
f 356 426 357
f 356 360 427
f 356 427 426
f 357 426 428
f 357 428 429
f 357 429 358
f 358 430 361
f 358 429 431
f 358 431 432
f 358 432 433
f 358 433 434
f 358 434 435
f 358 435 430
f 359 425 424
f 359 424 423
f 359 423 427
f 359 427 360
f 361 430 435
f 361 435 434
f 361 434 362
f 362 434 436
f 362 436 363
f 363 436 437
f 363 437 366
f 363 366 365
f 363 365 364
f 366 437 438
f 366 438 367
f 367 438 439
f 367 439 368
f 368 439 378
f 369 371 370
f 372 378 373
f 373 440 441
f 373 441 442
f 373 442 374
f 373 378 440
f 374 442 443
f 374 443 444
f 374 444 445
f 374 445 375
f 375 446 377
f 375 377 376
f 375 445 447
f 375 447 446
f 377 446 448
f 378 439 449
f 378 449 440
f 379 450 387
f 380 384 451
f 380 451 381
f 381 451 452
f 381 452 453
f 381 453 454
f 381 454 455
f 381 455 456
f 381 456 457
f 381 457 458
f 381 458 385
f 381 385 382
f 383 388 384
f 384 388 459
f 384 459 452
f 384 452 451
f 385 458 391
f 387 460 461
f 387 461 462
f 387 462 463
f 387 463 464
f 387 464 465
f 387 465 466
f 387 466 467
f 387 467 468
f 387 468 459
f 387 459 388
f 387 450 460
f 389 393 394
f 390 469 470
f 390 470 471
f 390 471 392
f 390 391 472
f 390 472 469
f 391 458 473
f 391 473 472
f 392 471 470
f 392 470 393
f 393 470 474
f 393 474 394
f 394 475 395
f 394 474 475
f 395 475 476
f 395 476 396
f 396 476 408
f 397 407 399
f 399 407 411
f 399 411 410
f 401 403 477
f 401 477 478
f 401 478 479
f 401 479 480
f 401 480 404
f 402 481 403
f 402 409 408
f 402 408 482
f 402 482 483
f 402 483 484
f 402 484 485
f 402 485 481
f 403 481 477
f 404 480 405
f 405 480 486
f 405 486 406
f 406 486 487
f 406 487 488
f 406 488 407
f 407 488 489
f 407 489 411
f 408 476 490
f 408 490 491
f 408 491 482
f 411 489 412
f 412 489 488
f 412 488 413
f 413 488 487
f 413 487 414
f 414 492 416
f 414 487 493
f 414 493 492
f 416 492 417
f 417 492 418
f 418 492 494
f 418 494 419
f 419 494 420
f 420 494 495
f 420 495 496
f 420 496 497
f 420 497 498
f 420 498 422
f 420 422 421
f 422 498 497
f 422 497 499
f 422 499 423
f 423 499 427
f 426 500 501
f 426 501 428
f 426 427 500
f 427 499 502
f 427 502 503
f 427 503 504
f 427 504 500
f 428 501 505
f 428 505 506
f 428 506 507
f 428 507 429
f 429 507 431
f 431 507 508
f 431 508 509
f 431 509 432
f 432 509 510
f 432 510 433
f 433 510 511
f 433 511 434
f 434 511 512
f 434 512 436
f 436 512 437
f 437 512 513
f 437 513 438
f 438 513 514
f 438 514 449
f 438 449 439
f 440 514 515
f 440 515 441
f 440 449 514
f 441 515 516
f 441 516 443
f 441 443 442
f 443 516 517
f 443 517 444
f 444 517 445
f 445 517 518
f 445 518 447
f 446 447 448
f 447 518 519
f 447 519 520
f 447 520 521
f 447 521 448
f 448 521 522
f 450 523 461
f 450 461 460
f 452 459 524
f 452 524 453
f 453 524 525
f 453 525 526
f 453 526 527
f 453 527 454
f 454 528 455
f 454 527 528
f 455 528 456
f 456 529 530
f 456 530 473
f 456 473 457
f 456 528 529
f 457 473 458
f 459 468 524
f 461 531 462
f 461 523 532
f 461 532 533
f 461 533 531
f 462 531 463
f 463 531 534
f 463 534 535
f 463 535 536
f 463 536 464
f 464 536 465
f 465 536 466
f 466 536 537
f 466 537 467
f 467 538 468
f 467 537 536
f 467 536 538
f 468 538 539
f 468 539 525
f 468 525 524
f 469 472 540
f 469 540 541
f 469 541 542
f 469 542 470
f 470 542 543
f 470 543 474
f 472 473 544
f 472 544 545
f 472 545 541
f 472 541 540
f 473 530 546
f 473 546 547
f 473 547 544
f 474 543 548
f 474 548 549
f 474 549 475
f 475 550 476
f 475 549 550
f 476 550 490
f 477 481 551
f 477 551 478
f 478 551 552
f 478 552 553
f 478 553 554
f 478 554 479
f 479 554 555
f 479 555 556
f 479 556 480
f 480 556 555
f 480 555 486
f 481 485 557
f 481 557 558
f 481 558 559
f 481 559 551
f 482 491 483
f 483 491 560
f 483 560 484
f 484 558 557
f 484 557 485
f 484 560 561
f 484 561 562
f 484 562 558
f 486 563 487
f 486 555 563
f 487 563 564
f 487 564 493
f 490 550 565
f 490 565 566
f 490 566 491
f 491 566 567
f 491 567 560
f 492 493 568
f 492 568 569
f 492 569 494
f 493 564 570
f 493 570 568
f 494 569 495
f 495 571 496
f 495 569 572
f 495 572 571
f 496 571 573
f 496 573 497
f 497 574 503
f 497 503 575
f 497 575 502
f 497 502 499
f 497 573 576
f 497 576 577
f 497 577 578
f 497 578 579
f 497 579 580
f 497 580 581
f 497 581 574
f 500 582 583
f 500 583 501
f 500 504 582
f 501 583 584
f 501 584 585
f 501 585 505
f 502 575 503
f 503 574 586
f 503 586 582
f 503 582 504
f 505 585 506
f 506 585 587
f 506 587 588
f 506 588 589
f 506 589 507
f 507 589 508
f 508 589 590
f 508 590 591
f 508 591 509
f 509 591 592
f 509 592 510
f 510 593 511
f 510 592 593
f 511 593 512
f 512 593 594
f 512 594 513
f 513 594 515
f 513 515 514
f 515 594 595
f 515 595 596
f 515 596 597
f 515 597 516
f 516 597 598
f 516 598 517
f 517 598 599
f 517 599 600
f 517 600 601
f 517 601 518
f 518 601 519
f 519 601 602
f 519 602 520
f 520 603 604
f 520 604 521
f 520 602 603
f 521 604 605
f 521 605 522
f 525 539 606
f 525 606 607
f 525 607 526
f 526 607 608
f 526 608 609
f 526 609 527
f 527 609 528
f 528 609 610
f 528 610 611
f 528 611 612
f 528 612 613
f 528 613 546
f 528 546 614
f 528 614 529
f 529 614 546
f 529 546 530
f 531 615 616
f 531 616 617
f 531 617 534
f 531 533 615
f 533 618 615
f 534 617 619
f 534 619 535
f 535 619 536
f 536 619 620
f 536 620 621
f 536 621 622
f 536 622 623
f 536 623 624
f 536 624 625
f 536 625 626
f 536 626 538
f 538 627 606
f 538 606 539
f 538 626 625
f 538 625 627
f 541 545 628
f 541 628 629
f 541 629 542
f 542 629 543
f 543 629 548
f 544 630 631
f 544 631 545
f 544 547 630
f 545 631 722
f 545 722 628
f 546 613 632
f 546 632 633
f 546 633 547
f 547 633 634
f 547 634 630
f 548 629 635
f 548 635 636
f 548 636 549
f 549 636 637
f 549 637 550
f 550 637 565
f 551 559 552
f 552 638 553
f 552 559 639
f 552 639 640
f 552 640 638
f 553 638 554
f 554 638 555
f 555 638 563
f 558 562 641
f 558 641 642
f 558 642 643
f 558 643 639
f 558 639 559
f 560 567 644
f 560 644 561
f 561 644 645
f 561 645 562
f 562 645 641
f 563 646 564
f 563 638 647
f 563 647 646
f 564 646 570
f 565 637 648
f 565 648 649
f 565 649 566
f 566 649 650
f 566 650 567
f 567 650 651
f 567 651 644
f 568 570 569
f 569 570 572
f 570 646 652
f 570 652 572
f 571 652 653
f 571 653 573
f 571 572 652
f 573 653 654
f 573 654 576
f 574 581 655
f 574 655 586
f 576 654 656
f 576 656 657
f 576 657 577
f 577 657 658
f 577 658 659
f 577 659 660
f 577 660 579
f 577 579 578
f 579 661 662
f 579 662 580
f 579 660 659
f 579 659 661
f 580 662 663
f 580 663 664
f 580 664 665
f 580 665 581
f 581 665 664
f 581 664 655
f 582 586 666
f 582 666 667
f 582 667 584
f 582 584 583
f 584 668 669
f 584 669 585
f 584 667 668
f 585 669 587
f 586 655 667
f 586 667 666
f 587 670 671
f 587 671 588
f 587 669 672
f 587 672 673
f 587 673 674
f 587 674 675
f 587 675 670
f 588 671 676
f 588 676 677
f 588 677 589
f 589 677 590
f 590 677 678
f 590 678 679
f 590 679 680
f 590 680 591
f 591 680 592
f 592 681 593
f 592 680 682
f 592 682 681
f 593 681 594
f 594 681 596
f 594 596 595
f 596 683 597
f 596 681 684
f 596 684 683
f 597 685 686
f 597 686 687
f 597 687 598
f 597 683 685
f 598 687 688
f 598 688 599
f 599 688 689
f 599 689 600
f 600 689 690
f 600 690 601
f 601 690 691
f 601 691 692
f 601 692 602
f 602 692 691
f 602 691 693
f 602 693 694
f 602 694 695
f 602 695 696
f 602 696 697
f 602 697 698
f 602 698 699
f 602 699 603
f 603 699 605
f 603 605 604
f 606 627 700
f 606 700 701
f 606 701 607
f 607 701 702
f 607 702 608
f 608 703 704
f 608 704 609
f 608 702 703
f 609 704 610
f 610 704 705
f 610 705 611
f 611 706 707
f 611 707 612
f 611 705 708
f 611 708 706
f 612 707 709
f 612 709 613
f 613 709 710
f 613 710 632
f 615 711 616
f 615 618 711
f 616 712 713
f 616 713 714
f 616 714 619
f 616 619 617
f 616 711 715
f 616 715 712
f 618 716 711
f 619 714 717
f 619 717 620
f 620 717 621
f 621 717 718
f 621 718 719
f 621 719 622
f 622 719 623
f 623 719 720
f 623 720 721
f 623 721 625
f 623 625 624
f 625 721 627
f 627 721 700
f 628 722 635
f 628 635 629
f 630 634 723
f 630 723 724
f 630 724 631
f 631 724 725
f 631 725 722
f 632 726 727
f 632 727 633
f 632 710 726
f 633 727 634
f 634 727 728
f 634 728 729
f 634 729 723
f 635 730 636
f 635 722 725
f 635 725 730
f 636 730 637
f 637 730 731
f 637 731 745
f 637 745 648
f 638 640 647
f 639 643 640
f 640 643 732
f 640 732 647
f 641 645 733
f 641 733 734
f 641 734 735
f 641 735 642
f 642 735 736
f 642 736 643
f 643 736 737
f 643 737 732
f 644 651 738
f 644 738 645
f 645 738 739
f 645 739 740
f 645 740 734
f 645 734 733
f 646 741 652
f 646 647 742
f 646 742 743
f 646 743 744
f 646 744 741
f 647 732 742
f 648 745 649
f 649 745 650
f 650 745 746
f 650 746 747
f 650 747 748
f 650 748 749
f 650 749 651
f 651 749 750
f 651 750 738
f 652 741 751
f 652 751 653
f 653 751 752
f 653 752 654
f 654 752 753
f 654 753 656
f 655 664 667
f 656 753 754
f 656 754 657
f 657 754 755
f 657 755 658
f 658 755 756
f 658 756 659
f 659 756 661
f 661 756 757
f 661 757 662
f 662 757 758
f 662 758 759
f 662 759 760
f 662 760 663
f 663 761 762
f 663 762 763
f 663 763 664
f 663 760 764
f 663 764 761
f 664 763 667
f 667 763 668
f 668 674 672
f 668 672 669
f 668 763 674
f 670 765 766
f 670 766 671
f 670 675 767
f 670 767 768
f 670 768 765
f 671 766 769
f 671 769 676
f 672 674 673
f 674 763 770
f 674 770 675
f 675 770 767
f 676 769 771
f 676 771 677
f 677 771 678
f 678 771 772
f 678 772 773
f 678 773 679
f 679 773 774
f 679 774 775
f 679 775 680
f 680 775 682
f 681 682 684
f 682 775 776
f 682 776 777
f 682 777 684
f 683 778 779
f 683 779 780
f 683 780 781
f 683 781 685
f 683 684 778
f 684 777 778
f 685 781 782
f 685 782 686
f 686 782 783
f 686 783 784
f 686 784 687
f 687 785 786
f 687 786 688
f 687 784 787
f 687 787 785
f 688 786 788
f 688 788 789
f 688 789 689
f 689 789 690
f 690 789 790
f 690 790 691
f 691 790 791
f 691 791 792
f 691 792 693
f 693 792 793
f 693 793 694
f 694 793 794
f 694 794 795
f 694 795 695
f 695 795 797
f 695 797 796
f 700 721 798
f 700 798 799
f 700 799 701
f 701 800 702
f 701 799 800
f 702 800 801
f 702 801 703
f 703 802 803
f 703 803 704
f 703 801 804
f 703 804 802
f 704 803 805
f 704 805 806
f 704 806 705
f 705 806 708
f 706 807 707
f 706 708 806
f 706 806 808
f 706 808 807
f 707 807 709
f 709 728 710
f 709 807 728
f 710 728 726
f 711 809 715
f 711 716 810
f 711 810 811
f 711 811 812
f 711 812 809
f 712 813 713
f 712 715 813
f 713 814 815
f 713 815 717
f 713 717 714
f 713 813 814
f 715 809 797
f 715 797 816
f 715 816 813
f 717 815 817
f 717 817 718
f 718 817 818
f 718 818 819
f 718 819 820
f 718 820 720
f 718 720 719
f 720 820 821
f 720 821 798
f 720 798 721
f 723 729 822
f 723 822 823
f 723 823 724
f 724 823 824
f 724 824 725
f 725 824 730
f 726 728 727
f 728 807 825
f 728 825 826
f 728 826 729
f 729 826 822
f 730 827 745
f 730 745 731
f 730 824 827
f 732 737 828
f 732 828 742
f 734 829 830
f 734 830 831
f 734 831 736
f 734 736 735
f 734 740 832
f 734 832 829
f 736 831 830
f 736 830 737
f 737 830 829
f 737 829 828
f 738 750 833
f 738 833 834
f 738 834 739
f 739 834 835
f 739 835 836
f 739 836 740
f 740 836 837
f 740 837 832
f 741 744 838
f 741 838 751
f 742 828 839
f 742 839 743
f 743 839 744
f 744 839 840
f 744 840 841
f 744 841 842
f 744 842 843
f 744 843 838
f 745 827 746
f 746 827 844
f 746 844 845
f 746 845 846
f 746 846 747
f 747 846 748
f 748 846 847
f 748 847 749
f 749 847 750
f 750 847 848
f 750 848 833
f 751 838 752
f 752 838 849
f 752 849 850
f 752 850 753
f 753 850 754
f 754 851 755
f 754 850 851
f 755 852 756
f 755 851 842
f 755 842 852
f 756 852 757
f 757 853 758
f 757 852 853
f 758 853 854
f 758 854 759
f 759 854 855
f 759 855 764
f 759 764 760
f 761 764 856
f 761 856 857
f 761 857 762
f 762 857 858
f 762 858 859
f 762 859 767
f 762 767 770
f 762 770 763
f 764 855 856
f 765 860 861
f 765 861 862
f 765 862 863
f 765 863 766
f 765 768 860
f 766 863 864
f 766 864 769
f 767 859 865
f 767 865 768
f 768 865 866
f 768 866 867
f 768 867 868
f 768 868 861
f 768 861 860
f 769 864 869
f 769 869 870
f 769 870 771
f 771 870 772
f 772 870 871
f 772 871 872
f 772 872 873
f 772 873 773
f 773 873 874
f 773 874 875
f 773 875 774
f 774 875 876
f 774 876 877
f 774 877 775
f 775 877 776
f 776 877 878
f 776 878 779
f 776 779 777
f 777 779 778
f 779 878 879
f 779 879 880
f 779 880 780
f 780 880 781
f 781 880 881
f 781 881 782
f 782 882 883
f 782 883 884
f 782 884 885
f 782 885 886
f 782 886 887
f 782 887 783
f 782 881 879
f 782 879 882
f 783 887 784
f 784 886 888
f 784 888 889
f 784 889 787
f 784 887 886
f 785 787 890
f 785 890 786
f 786 890 891
f 786 891 788
f 787 889 891
f 787 891 890
f 788 891 892
f 788 892 789
f 789 892 893
f 789 893 790
f 790 893 894
f 790 894 791
f 791 894 895
f 791 895 792
f 792 895 896
f 792 896 897
f 792 897 793
f 793 898 816
f 793 816 794
f 793 897 813
f 793 813 898
f 794 797 795
f 794 816 797
f 796 797 809
f 796 809 812
f 798 899 900
f 798 900 799
f 798 821 901
f 798 901 899
f 799 900 902
f 799 902 800
f 800 902 903
f 800 903 804
f 800 804 801
f 802 804 903
f 802 903 904
f 802 904 905
f 802 905 906
f 802 906 907
f 802 907 803
f 803 907 908
f 803 908 909
f 803 909 805
f 805 909 910
f 805 910 808
f 805 808 806
f 807 826 825
f 807 808 910
f 807 910 908
f 807 908 826
f 813 897 896
f 813 896 814
f 813 816 898
f 814 896 911
f 814 911 912
f 814 912 815
f 815 913 818
f 815 818 817
f 815 912 913
f 818 913 914
f 818 914 915
f 818 915 819
f 819 915 916
f 819 916 820
f 820 916 821
f 821 916 901
f 822 826 917
f 822 917 844
f 822 844 823
f 823 844 824
f 824 844 827
f 826 908 917
f 828 918 839
f 828 829 919
f 828 919 918
f 829 920 919
f 829 832 921
f 829 921 922
f 829 922 920
f 832 837 923
f 832 923 924
f 832 924 925
f 832 925 926
f 832 926 927
f 832 927 922
f 832 922 928
f 832 928 921
f 833 848 929
f 833 929 834
f 834 929 835
f 835 929 930
f 835 930 836
f 836 930 837
f 837 930 931
f 837 931 923
f 838 843 842
f 838 842 849
f 839 918 932
f 839 932 841
f 839 841 840
f 841 933 842
f 841 932 934
f 841 934 933
f 842 851 850
f 842 850 849
f 842 933 935
f 842 935 853
f 842 853 852
f 844 917 936
f 844 936 937
f 844 937 845
f 845 937 938
f 845 938 939
f 845 939 846
f 846 939 847
f 847 939 940
f 847 940 941
f 847 941 848
f 848 941 942
f 848 942 943
f 848 943 930
f 848 930 929
f 853 935 944
f 853 944 945
f 853 945 854
f 854 944 946
f 854 946 855
f 854 945 944
f 855 946 947
f 855 947 856
f 856 947 948
f 856 948 857
f 857 948 949
f 857 949 950
f 857 950 858
f 858 950 866
f 858 866 865
f 858 865 859
f 861 868 951
f 861 951 952
f 861 952 862
f 862 864 863
f 862 952 953
f 862 953 954
f 862 954 864
f 864 954 869
f 866 950 867
f 867 950 955
f 867 955 868
f 868 956 951
f 868 955 956
f 869 954 957
f 869 957 958
f 869 958 870
f 870 958 871
f 871 958 872
f 872 959 960
f 872 960 874
f 872 874 873
f 872 958 961
f 872 961 959
f 874 960 883
f 874 883 882
f 874 882 875
f 875 882 876
f 876 882 962
f 876 962 877
f 877 962 878
f 878 962 879
f 879 881 880
f 879 962 882
f 883 960 884
f 884 960 963
f 884 963 964
f 884 964 965
f 884 965 966
f 884 966 967
f 884 967 968
f 884 968 969
f 884 969 886
f 884 886 885
f 886 969 970
f 886 970 888
f 888 970 889
f 889 970 971
f 889 971 891
f 891 971 892
f 892 971 972
f 892 972 893
f 893 972 894
f 894 973 974
f 894 974 895
f 894 972 973
f 895 974 975
f 895 975 896
f 896 976 977
f 896 977 978
f 896 978 912
f 896 912 911
f 896 975 976
f 899 901 979
f 899 979 980
f 899 980 900
f 900 980 981
f 900 981 982
f 900 982 902
f 901 916 983
f 901 983 979
f 902 982 904
f 902 904 903
f 904 984 985
f 904 985 986
f 904 986 905
f 904 982 984
f 905 986 987
f 905 987 906
f 906 917 907
f 906 987 985
f 906 985 917
f 907 917 908
f 908 910 909
f 912 988 913
f 912 978 989
f 912 989 988
f 913 988 914
f 914 990 915
f 914 988 990
f 915 991 916
f 915 990 991
f 916 991 983
f 917 985 992
f 917 992 993
f 917 993 994
f 917 994 995
f 917 995 996
f 917 996 997
f 917 997 998
f 917 998 936
f 918 919 999
f 918 999 1000
f 918 1000 932
f 919 920 922
f 919 922 1001
f 919 1001 999
f 921 928 922
f 922 927 1002
f 922 1002 1001
f 923 931 1003
f 923 1003 924
f 924 1003 1004
f 924 1004 1005
f 924 1005 1006
f 924 1006 925
f 925 1007 1008
f 925 1008 1002
f 925 1002 926
f 925 1006 1075
f 925 1075 1007
f 926 1002 927
f 930 943 1009
f 930 1009 1010
f 930 1010 931
f 931 1010 1003
f 932 1000 1011
f 932 1011 1012
f 932 1012 934
f 933 934 1013
f 933 1013 944
f 933 944 935
f 934 1012 944
f 934 944 1013
f 936 998 1014
f 936 1014 1015
f 936 1015 937
f 937 1015 938
f 938 1016 939
f 938 1015 1014
f 938 1014 1017
f 938 1017 1016
f 939 1016 940
f 940 1016 1018
f 940 1018 941
f 941 1018 942
f 942 1009 943
f 942 1018 1019
f 942 1019 1020
f 942 1020 1009
f 944 1012 946
f 946 1012 947
f 947 1012 1021
f 947 1021 948
f 948 1021 1022
f 948 1022 1023
f 948 1023 949
f 949 1023 1024
f 949 1024 1025
f 949 1025 1026
f 949 1026 950
f 950 1026 955
f 951 956 1027
f 951 1027 1028
f 951 1028 952
f 952 1028 1029
f 952 1029 953
f 953 1029 1030
f 953 1030 957
f 953 957 954
f 955 1026 956
f 956 1026 1027
f 957 1030 961
f 957 961 958
f 959 1031 1032
f 959 1032 963
f 959 963 960
f 959 961 1031
f 961 1030 1033
f 961 1033 1031
f 963 1032 1034
f 963 1034 1035
f 963 1035 965
f 963 965 964
f 965 1036 1037
f 965 1037 1038
f 965 1038 1039
f 965 1039 966
f 965 1035 1040
f 965 1040 1041
f 965 1041 1036
f 966 1039 1042
f 966 1042 968
f 966 968 967
f 968 1042 1043
f 968 1043 1044
f 968 1044 1045
f 968 1045 969
f 969 1045 1044
f 969 1044 1046
f 969 1046 970
f 970 1046 1047
f 970 1047 971
f 971 1047 1048
f 971 1048 972
f 972 1048 973
f 973 1049 1050
f 973 1050 974
f 973 1048 1051
f 973 1051 1049
f 974 1050 977
f 974 977 976
f 974 976 975
f 977 1052 978
f 977 1050 1052
f 978 1052 989
f 979 983 1053
f 979 1053 1054
f 979 1054 1055
f 979 1055 1056
f 979 1056 980
f 980 1056 1055
f 980 1055 1057
f 980 1057 1058
f 980 1058 1059
f 980 1059 1060
f 980 1060 984
f 980 984 982
f 980 982 981
f 983 991 1061
f 983 1061 1053
f 984 1060 985
f 985 1062 1063
f 985 1063 992
f 985 987 986
f 985 1060 1064
f 985 1064 1065
f 985 1065 1062
f 988 989 1066
f 988 1066 990
f 989 1052 1066
f 990 1066 991
f 991 1066 1061
f 992 1063 993
f 993 1063 994
f 994 1067 995
f 994 1063 1068
f 994 1068 1067
f 995 1069 1070
f 995 1070 996
f 995 1067 1069
f 996 1070 1071
f 996 1071 1072
f 996 1072 1073
f 996 1073 1014
f 996 1014 997
f 997 1014 998
f 999 1001 1002
f 999 1002 1074
f 999 1074 1011
f 999 1011 1000
f 1002 1008 1074
f 1003 1010 1004
f 1004 1010 1005
f 1005 1010 1006
f 1006 1010 1076
f 1006 1076 1077
f 1006 1077 1078
f 1006 1078 1075
f 1007 1023 1022
f 1007 1022 1079
f 1007 1079 1074
f 1007 1074 1008
f 1007 1075 1080
f 1007 1080 1023
f 1009 1020 1010
f 1010 1020 1071
f 1010 1071 1081
f 1010 1081 1082
f 1010 1082 1083
f 1010 1083 1084
f 1010 1084 1085
f 1010 1085 1086
f 1010 1086 1087
f 1010 1087 1076
f 1011 1074 1012
f 1012 1074 1021
f 1014 1073 1017
f 1016 1017 1073
f 1016 1073 1018
f 1018 1073 1072
f 1018 1072 1019
f 1019 1072 1020
f 1020 1072 1071
f 1021 1074 1022
f 1022 1074 1079
f 1023 1080 1024
f 1024 1080 1088
f 1024 1088 1089
f 1024 1089 1025
f 1025 1089 1090
f 1025 1090 1091
f 1025 1091 1092
f 1025 1092 1026
f 1026 1092 1028
f 1026 1028 1027
f 1028 1093 1094
f 1028 1094 1029
f 1028 1092 1093
f 1029 1094 1095
f 1029 1095 1030
f 1030 1095 1033
f 1031 1033 1032
f 1032 1033 1095
f 1032 1095 1096
f 1032 1096 1034
f 1034 1040 1035
f 1034 1096 1097
f 1034 1097 1098
f 1034 1098 1040
f 1036 1041 1099
f 1036 1099 1100
f 1036 1100 1101
f 1036 1101 1037
f 1037 1102 1103
f 1037 1103 1104
f 1037 1104 1039
f 1037 1039 1038
f 1037 1101 1102
f 1039 1104 1105
f 1039 1105 1043
f 1039 1043 1042
f 1040 1098 1106
f 1040 1106 1107
f 1040 1107 1108
f 1040 1108 1041
f 1041 1108 1109
f 1041 1109 1099
f 1043 1105 1110
f 1043 1110 1111
f 1043 1111 1044
f 1044 1111 1112
f 1044 1112 1113
f 1044 1113 1046
f 1046 1048 1047
f 1046 1113 1114
f 1046 1114 1051
f 1046 1051 1048
f 1049 1051 1115
f 1049 1115 1050
f 1050 1115 1052
f 1051 1114 1115
f 1052 1115 1066
f 1053 1066 1116
f 1053 1116 1117
f 1053 1117 1054
f 1053 1061 1066
f 1054 1117 1118
f 1054 1118 1119
f 1054 1119 1055
f 1055 1119 1057
f 1057 1119 1058
f 1058 1119 1120
f 1058 1120 1121
f 1058 1121 1122
f 1058 1122 1065
f 1058 1065 1064
f 1058 1064 1059
f 1059 1064 1060
f 1062 1065 1063
f 1063 1123 1124
f 1063 1124 1068
f 1063 1065 1125
f 1063 1125 1123
f 1065 1122 1126
f 1065 1126 1125
f 1066 1115 1110
f 1066 1110 1116
f 1067 1068 1124
f 1067 1124 1127
f 1067 1127 1069
f 1069 1071 1070
f 1069 1127 1071
f 1071 1127 1128
f 1071 1128 1081
f 1075 1078 1129
f 1075 1129 1130
f 1075 1130 1080
f 1076 1087 1077
f 1077 1087 1131
f 1077 1131 1132
f 1077 1132 1078
f 1078 1132 1129
f 1080 1130 1144
f 1080 1144 1088
f 1081 1128 1133
f 1081 1133 1082
f 1082 1133 1134
f 1082 1134 1135
f 1082 1135 1136
f 1082 1136 1137
f 1082 1137 1138
f 1082 1138 1083
f 1083 1138 1084
f 1084 1138 1137
f 1084 1137 1139
f 1084 1139 1140
f 1084 1140 1141
f 1084 1141 1085
f 1085 1141 1142
f 1085 1142 1086
f 1086 1143 1131
f 1086 1131 1087
f 1086 1142 1143
f 1088 1144 1149
f 1088 1149 1145
f 1088 1145 1089
f 1089 1145 1090
f 1090 1146 1147
f 1090 1147 1148
f 1090 1148 1091
f 1090 1145 1149
f 1090 1149 1146
f 1091 1148 1092
f 1092 1148 1150
f 1092 1150 1093
f 1093 1150 1148
f 1093 1148 1094
f 1094 1151 1097
f 1094 1097 1095
f 1094 1148 1151
f 1095 1097 1096
f 1097 1151 1152
f 1097 1152 1098
f 1098 1152 1106
f 1099 1153 1154
f 1099 1154 1100
f 1099 1109 1155
f 1099 1155 1153
f 1100 1154 1101
f 1101 1154 1156
f 1101 1156 1102
f 1102 1156 1157
f 1102 1157 1158
f 1102 1158 1159
f 1102 1159 1103
f 1103 1159 1116
f 1103 1116 1104
f 1104 1116 1110
f 1104 1110 1105
f 1106 1152 1107
f 1107 1160 1155
f 1107 1155 1109
f 1107 1109 1108
f 1107 1152 1161
f 1107 1161 1160
f 1110 1115 1112
f 1110 1112 1111
f 1112 1115 1113
f 1113 1115 1114
f 1116 1159 1117
f 1117 1159 1162
f 1117 1162 1118
f 1118 1162 1119
f 1119 1162 1163
f 1119 1163 1164
f 1119 1164 1165
f 1119 1165 1121
f 1119 1121 1120
f 1121 1165 1164
f 1121 1164 1166
f 1121 1166 1167
f 1121 1167 1126
f 1121 1126 1122
f 1123 1125 1168
f 1123 1168 1124
f 1124 1128 1127
f 1124 1168 1169
f 1124 1169 1128
f 1125 1126 1168
f 1126 1170 1171
f 1126 1171 1172
f 1126 1172 1168
f 1126 1167 1170
f 1128 1169 1133
f 1129 1144 1130
f 1129 1132 1173
f 1129 1173 1144
f 1131 1143 1174
f 1131 1174 1132
f 1132 1174 1175
f 1132 1175 1173
f 1133 1169 1168
f 1133 1168 1172
f 1133 1172 1134
f 1134 1172 1135
f 1135 1171 1170
f 1135 1170 1136
f 1135 1172 1171
f 1136 1170 1176
f 1136 1176 1137
f 1137 1176 1177
f 1137 1177 1178
f 1137 1178 1139
f 1139 1178 1140
f 1140 1178 1179
f 1140 1179 1154
f 1140 1154 1153
f 1140 1153 1141
f 1141 1180 1181
f 1141 1181 1182
f 1141 1182 1142
f 1141 1153 1180
f 1142 1182 1143
f 1143 1182 1174
f 1144 1173 1146
f 1144 1146 1149
f 1146 1173 1175
f 1146 1175 1183
f 1146 1183 1184
f 1146 1184 1191
f 1146 1191 1185
f 1146 1185 1147
f 1147 1185 1186
f 1147 1186 1148
f 1148 1186 1151
f 1151 1186 1152
f 1152 1186 1161
f 1153 1155 1180
f 1154 1179 1156
f 1155 1160 1180
f 1156 1179 1157
f 1157 1179 1178
f 1157 1178 1158
f 1158 1162 1159
f 1158 1178 1162
f 1160 1187 1181
f 1160 1181 1180
f 1160 1161 1185
f 1160 1185 1187
f 1161 1186 1185
f 1162 1178 1188
f 1162 1188 1189
f 1162 1189 1164
f 1162 1164 1163
f 1164 1189 1177
f 1164 1177 1190
f 1164 1190 1170
f 1164 1170 1166
f 1166 1170 1167
f 1170 1190 1176
f 1174 1183 1175
f 1174 1182 1183
f 1176 1190 1177
f 1177 1189 1188
f 1177 1188 1178
f 1181 1187 1182
f 1182 1187 1183
f 1183 1191 1184
f 1183 1187 1191
f 1185 1191 1187

