# Blender 3.6.4
# www.blender.org
mtllib untitled.mtl
o decomposed_(2)
v -161.294998 45.159801 -2.469693
v -161.294998 42.743301 -8.268243
v -165.878998 41.937801 -7.226493
v -166.796005 42.773800 -2.469693
v -166.858994 42.724998 3.669727
v -161.294998 44.738701 3.669727
v 139.141998 21.971701 3.723348
v 139.141998 21.282200 -1.493052
v 139.141998 21.209000 -2.033072
v -161.294998 40.326900 -11.339903
v -167.460007 36.494801 -13.457803
v 139.141998 18.194500 -6.851151
v 139.141998 17.987000 -7.180532
v -171.475006 35.426899 -12.634403
v -172.106995 36.269001 -8.609103
v -169.862000 39.820400 -2.469693
v -169.925995 39.899700 3.669727
v -165.942001 41.870701 8.323117
v -177.544998 29.410202 14.041198
v -171.854004 36.043201 9.809137
v -161.294998 42.322300 8.943567
v 139.141998 21.727600 4.263369
v -161.294998 37.257500 -13.584203
v -167.934006 30.953999 -16.782202
v -170.337006 28.360598 -17.816301
v 139.141998 12.641599 -10.527901
v -173.561005 31.368998 -14.131902
v -177.449997 29.269897 -12.772302
v -175.173996 32.870098 -8.609103
v -177.923996 29.794600 -8.609102
v -183.393997 22.923700 3.669728
v -177.703003 29.648199 9.809138
v -167.460007 36.049301 14.090997
v -161.294998 39.625099 12.015197
v -171.063995 35.024101 13.344197
v -183.078003 22.527000 7.836718
v -182.634995 21.941200 11.930898
v -183.772995 17.846703 14.293999
v -178.367004 24.760403 16.032799
v -176.723007 22.356201 19.077599
v -173.593002 26.487303 18.154598
v -173.309006 31.454401 14.922098
v 139.141998 18.780300 10.038899
v 139.141998 18.975599 9.809138
v -164.235001 28.586397 -17.889101
v 139.141998 12.611099 -10.543200
v -166.227005 28.586397 -17.889101
v -172.360001 24.266098 -18.770002
v -174.067001 25.907598 -17.165201
v -167.934006 25.907598 -18.532501
v -178.462006 25.303497 -13.932702
v -180.453003 25.303499 -8.609102
v -183.330002 22.862600 -0.665781
v -183.740997 19.604099 9.855098
v -167.460007 31.442202 16.779697
v -161.294998 36.555801 14.255697
v 139.141998 16.150301 12.915199
v -183.772995 14.862801 9.809139
v -183.772995 14.783401 14.293999
v -177.481995 14.746802 19.387897
v -177.324005 19.158703 19.338099
v -173.593002 23.411802 19.571697
v 136.770996 9.791909 -11.653901
v 139.141998 7.442589 -12.293501
v -174.067001 18.694899 -18.973001
v -176.438004 20.433998 -17.686102
v 139.141998 1.102499 -12.936900
v -166.858994 18.652199 -19.064901
v 139.141998 7.399879 -12.301201
v 139.141998 7.375469 -12.305001
v -178.651001 18.694899 -15.284701
v -180.800995 19.158701 -8.609102
v -183.330002 20.879400 -0.665781
v -167.460007 26.499502 18.640999
v -161.294998 31.442202 16.706898
v 139.141998 13.026001 13.995299
v -183.108994 15.759800 5.764709
v -177.923996 15.180099 -14.752301
v -165.214996 3.146709 -12.573100
v -177.703003 9.120671 10.958099
v -177.703003 9.120671 14.500799
v -179.632004 12.720901 16.442598
v -173.214005 6.997141 15.136599
v -173.593002 11.256401 18.480200
v -173.593002 14.319702 19.514198
v -173.593002 19.158703 20.061897
v -167.460007 23.424002 19.544899
v -168.882004 13.025999 -18.555502
v -173.024002 13.605699 -18.417603
v -176.690994 16.040499 -17.843102
v -176.690994 16.339499 -17.843102
v 139.141998 0.742471 -12.948400
v 139.141998 12.592801 14.090999
v -170.589996 9.920049 -17.846901
v -170.906006 3.555551 12.233500
v -161.294998 2.542599 -13.182100
v -153.358994 -3.046940 -0.658119
v -170.906006 3.555551 13.271400
v -167.460007 2.878211 13.914900
v -167.460007 6.881201 16.381300
v 10.627300 -3.956149 13.861200
v 41.325401 -4.261259 14.137000
v 41.325401 0.742473 15.967700
v 96.588402 0.742473 15.726400
v 102.752998 0.742473 15.680500
v 139.141998 0.742473 15.366400
v 115.019997 6.881201 15.749399
v 139.141998 6.881201 15.305099
v -170.367996 9.920049 -17.846901
v 139.141998 -3.925641 -12.335600
v 139.141998 -6.995011 -11.159899
v 139.141998 -11.541101 -8.739319
v -112.165001 -3.602231 -7.042650
v -145.233994 -2.302480 -5.472370
v -149.028000 -3.370350 -1.830080
v 139.141998 -15.220700 -6.188569
v 16.760599 -9.655531 -6.877959
v -153.358994 -3.046940 2.283290
v -161.294998 2.585311 13.999100
v -149.059998 -3.284920 4.064210
v -151.145996 -2.168240 6.377500
v -147.067993 -2.528260 7.063070
v -118.330002 -3.681559 8.430360
v 16.760599 -7.135359 11.919401
v 139.141998 -11.248199 11.517301
v 139.141998 -11.168899 11.567101
v 108.887001 -8.264249 12.788801
v 139.141998 -6.097999 13.949300
v 139.141998 -5.957649 13.995300
v -99.898598 -6.207830 -2.469690
v -112.165001 -5.597620 -2.469690
v 84.321800 -15.562400 -1.450919
v 55.805099 -14.909400 -0.121925
v -118.330002 -5.499990 3.669730
v -142.895004 -3.791400 3.669730
v 139.141998 -16.654699 -2.707139
v 84.321800 -13.933100 -4.522539
v -112.165001 -3.870729 8.660160
v 16.760599 -10.119299 8.847821
v -112.165001 -5.866119 3.669730
v -106.031998 -6.171219 3.669730
v 16.760599 -12.187900 3.669731
v 139.141998 -15.647799 8.074171
v 139.141998 -11.278699 11.494301
v 121.184998 -8.319169 12.827101
v 139.141998 -16.746201 -2.469689
v 139.141998 -17.179399 3.669731
v 55.805099 -14.909400 1.088341
v 35.192101 -13.011700 3.669731
v 84.321800 -15.562400 2.754371
vn 0.0675 0.9859 -0.1530
vn 0.0655 0.8646 -0.4981
vn -0.4293 0.8119 -0.3956
vn 0.0675 0.9859 -0.1531
vn -0.5778 0.8074 -0.1195
vn -0.5374 0.8290 0.1549
vn 0.0648 0.9664 0.2487
vn 0.4939 0.8695 -0.0018
vn 0.0790 0.9883 -0.1306
vn 0.0790 0.9882 -0.1310
vn 0.0771 0.8941 -0.4411
vn 0.0655 0.8647 -0.4981
vn 0.0566 0.6948 -0.7170
vn -0.2276 0.6499 -0.7252
vn 0.0656 0.8647 -0.4981
vn 0.0795 0.8450 -0.5289
vn 0.0687 0.6301 -0.7735
vn -0.4979 0.6651 -0.5565
vn -0.4292 0.8119 -0.3956
vn -0.6747 0.7076 -0.2100
vn -0.6747 0.7076 -0.2099
vn -0.5778 0.8074 -0.1194
vn -0.7420 0.6672 -0.0650
vn -0.7672 0.6408 0.0289
vn -0.4054 0.7905 0.4590
vn -0.7099 0.6088 0.3542
vn -0.5374 0.8290 0.1548
vn -0.6447 0.7192 0.2591
vn -0.4054 0.7905 0.4591
vn 0.0637 0.8666 0.4950
vn 0.0637 0.8665 0.4950
vn 0.0685 0.9007 0.4291
vn 0.0685 0.9006 0.4291
vn 0.4939 0.8695 -0.0017
vn 0.0681 0.8886 0.4535
vn 0.0681 0.8887 0.4535
vn 0.0592 0.7443 0.6652
vn 0.0592 0.7442 0.6653
vn 0.0423 0.4792 0.8767
vn 0.0398 0.2990 0.9534
vn 0.0398 0.2989 0.9535
vn 0.0514 0.2082 0.9767
vn 0.0540 0.1454 0.9879
vn 0.0823 -0.0501 0.9954
vn 0.0823 -0.0500 0.9954
vn 0.1638 -0.2137 0.9631
vn 0.1207 -0.3710 0.9208
vn 0.1207 -0.3710 0.9207
vn 0.2525 -0.4614 0.8505
vn 0.2525 -0.4613 0.8505
vn -0.0083 -0.5431 0.8396
vn -0.0081 -0.5431 0.8396
vn 0.1955 -0.6044 0.7723
vn 0.1178 -0.7990 0.5897
vn 0.1178 -0.7989 0.5898
vn 0.3716 -0.9266 0.0580
vn 0.3716 -0.9266 0.0579
vn 0.5680 -0.8203 -0.0675
vn 0.5562 -0.7689 -0.3154
vn 0.0739 -0.7217 -0.6883
vn 0.0380 -0.5298 -0.8473
vn 0.0380 -0.5299 -0.8472
vn 0.0793 -0.4256 -0.9014
vn 0.0569 -0.2252 -0.9726
vn 0.0429 -0.1063 -0.9934
vn 0.0430 -0.1063 -0.9934
vn 0.0477 0.0861 -0.9951
vn 0.4939 0.8695 -0.0019
vn 0.0732 0.1001 -0.9923
vn 0.0732 0.1003 -0.9923
vn 0.0734 0.1682 -0.9830
vn 0.0702 0.2383 -0.9687
vn 0.0702 0.2382 -0.9687
vn 0.0583 0.4088 -0.9107
vn 0.0756 0.5288 -0.8454
vn 0.0687 0.6300 -0.7735
vn 0.0795 0.8450 -0.5288
vn 0.0772 0.8941 -0.4411
vn 0.0771 0.8941 -0.4412
vn 0.0790 0.9882 -0.1309
vn 0.0474 0.4944 -0.8680
vn -0.0525 0.4745 -0.8787
vn -0.2276 0.6498 -0.7252
vn -0.2823 0.4521 -0.8461
vn -0.4656 0.4805 -0.7432
vn -0.7542 0.5373 -0.3775
vn -0.7370 0.6622 -0.1353
vn -0.7873 0.6158 -0.0306
vn -0.7873 0.6158 -0.0305
vn -0.8025 0.5961 0.0237
vn -0.7823 0.6206 0.0530
vn -0.2100 0.5998 0.7721
vn 0.0473 0.6974 0.7151
vn -0.7099 0.6088 0.3541
vn -0.4526 0.6831 0.5731
vn -0.4525 0.6832 0.5732
vn -0.2101 0.5998 0.7721
vn -0.8738 0.4670 0.1357
vn -0.8514 0.4639 0.2445
vn -0.8514 0.4639 0.2446
vn -0.8047 0.2352 0.5451
vn -0.6729 0.3763 0.6369
vn -0.5431 0.3569 0.7600
vn -0.3050 0.4923 0.8152
vn -0.3570 0.5366 0.7646
vn -0.4525 0.6831 0.5732
vn 0.0408 0.3616 -0.9314
vn 0.0583 0.4089 -0.9107
vn -0.0234 0.3276 -0.9445
vn 0.0145 0.0812 -0.9966
vn -0.5167 0.3881 -0.7632
vn -0.5166 0.3881 -0.7632
vn 0.0268 0.1219 -0.9922
vn 0.0268 0.1220 -0.9922
vn 0.0145 0.0811 -0.9966
vn -0.7917 0.2476 -0.5584
vn -0.9337 0.1797 -0.3096
vn -0.9627 0.2096 -0.1714
vn -0.9627 0.2096 -0.1713
vn -0.7874 0.6157 -0.0306
vn -0.7874 0.6157 -0.0305
vn -0.9973 0.0738 0.0008
vn -0.0661 0.4283 0.9012
vn 0.0353 0.4972 0.8669
vn -0.3050 0.4923 0.8153
vn -0.9973 0.0738 0.0009
vn -0.8515 0.4639 0.2445
vn -0.7483 -0.6460 -0.1509
vn -0.7698 -0.5422 0.3369
vn -0.7697 -0.5422 0.3369
vn -0.4332 -0.3004 0.8497
vn -0.4332 -0.3005 0.8497
vn -0.4613 0.0892 0.8827
vn -0.4613 0.0892 0.8828
vn -0.0871 0.2680 0.9595
vn 0.0398 0.3205 -0.9464
vn 0.0144 0.0812 -0.9966
vn -0.1268 -0.0245 -0.9916
vn -0.6004 0.2038 -0.7733
vn 0.0185 -0.0119 -0.9998
vn 0.0144 0.0811 -0.9966
vn 0.0185 -0.0120 -0.9998
vn 0.0734 0.1683 -0.9830
vn 0.0732 0.1002 -0.9923
vn -0.7917 0.2477 -0.5584
vn -0.9218 0.0210 -0.3871
vn -0.9337 0.1796 -0.3096
vn -0.9626 0.2096 -0.1714
vn -0.9477 -0.1525 -0.2805
vn -0.9414 -0.2616 -0.2130
vn -0.9414 -0.2615 -0.2130
vn 0.0275 0.3180 0.9477
vn 0.0308 0.3836 0.9230
vn -0.0871 0.2681 0.9595
vn 0.0274 0.3180 0.9477
vn -0.9204 -0.3211 -0.2233
vn -0.9203 -0.3211 -0.2233
vn -0.7472 -0.6289 -0.2149
vn -0.5629 -0.8104 -0.1623
vn -0.5629 -0.8104 -0.1624
vn -0.6439 -0.7558 -0.1186
vn -0.7698 -0.5422 0.3368
vn -0.5614 -0.7118 0.4221
vn -0.5298 -0.5442 0.6505
vn -0.7697 -0.5423 0.3368
vn -0.3702 -0.6035 0.7062
vn -0.0158 -0.3844 0.9230
vn -0.0158 -0.3843 0.9231
vn 0.0035 -0.1838 0.9830
vn 0.0121 -0.0135 0.9998
vn 0.0121 -0.0134 0.9998
vn 0.0232 0.1880 0.9819
vn 0.0114 -0.1381 -0.9903
vn -0.1610 -0.1881 -0.9689
vn -0.5987 -0.4370 -0.6713
vn -0.6256 0.0638 -0.7775
vn 0.0429 -0.1062 -0.9934
vn 0.0430 -0.1062 -0.9934
vn 0.0114 -0.1381 -0.9904
vn -0.5987 -0.4370 -0.6712
vn -0.9204 -0.3210 -0.2233
vn 0.0398 0.2989 0.9534
vn -0.5987 -0.4369 -0.6713
vn -0.0292 -0.5264 -0.8497
vn -0.4704 -0.8784 -0.0847
vn -0.0285 -0.6765 -0.7359
vn -0.0285 -0.6765 -0.7358
vn -0.3435 -0.9317 -0.1185
vn -0.6439 -0.7558 -0.1187
vn -0.3928 -0.8524 0.3450
vn -0.3929 -0.8524 0.3451
vn -0.5614 -0.7118 0.4220
vn -0.3929 -0.8524 0.3450
vn -0.3928 -0.8524 0.3451
vn -0.1099 -0.8623 0.4944
vn -0.0158 -0.3844 0.9231
vn -0.0181 -0.4792 0.8775
vn -0.0163 -0.4942 0.8692
vn -0.0074 -0.3815 0.9243
vn -0.0021 -0.2930 0.9561
vn -0.0021 -0.2929 0.9561
vn 0.0046 -0.1962 0.9806
vn 0.0083 -0.1226 0.9924
vn 0.0156 0.0100 0.9998
vn 0.0114 -0.1382 -0.9903
vn 0.0039 -0.2928 -0.9562
vn -0.0291 -0.5264 -0.8498
vn 0.0569 -0.2252 -0.9727
vn 0.0039 -0.2929 -0.9561
vn 0.0792 -0.4256 -0.9014
vn 0.0379 -0.5299 -0.8472
vn -0.2051 -0.9710 0.1224
vn -0.2052 -0.9710 0.1224
vn -0.0436 -0.8868 -0.4600
vn -0.0629 -0.9123 -0.4046
vn -0.0284 -0.6765 -0.7359
vn -0.0630 -0.9123 -0.4046
vn -0.0788 -0.9838 -0.1609
vn -0.0788 -0.9838 -0.1608
vn -0.0285 -0.6766 -0.7358
vn 0.0739 -0.7216 -0.6883
vn -0.0376 -0.8473 -0.5298
vn -0.3435 -0.9316 -0.1185
vn -0.0291 -0.6643 0.7469
vn -0.1121 -0.9554 0.2734
vn -0.1120 -0.9554 0.2733
vn -0.1379 -0.9348 0.3273
vn -0.1378 -0.9347 0.3276
vn -0.0663 -0.9099 0.4094
vn -0.0481 -0.9158 0.3986
vn -0.0480 -0.9158 0.3987
vn -0.0233 -0.6383 0.7694
vn -0.0082 -0.5431 0.8396
vn -0.0074 -0.3815 0.9244
vn -0.0068 -0.4252 0.9051
vn 0.1208 -0.3710 0.9207
vn 0.1639 -0.2137 0.9631
vn 0.1639 -0.2138 0.9630
vn 0.0822 -0.0500 0.9954
vn -0.0451 -0.9156 -0.3995
vn -0.0564 -0.9907 -0.1235
vn -0.0359 -0.9301 -0.3657
vn -0.0474 -0.9765 -0.2104
vn -0.0452 -0.9156 -0.3996
vn -0.0644 -0.9967 0.0494
vn -0.0704 -0.9974 0.0140
vn -0.0704 -0.9974 0.0141
vn -0.0359 -0.9300 -0.3657
vn 0.0738 -0.7216 -0.6883
vn -0.0369 -0.8713 -0.4894
vn -0.0481 -0.9158 0.3987
vn -0.0401 -0.8032 0.5944
vn -0.0382 -0.8438 0.5354
vn -0.0382 -0.8437 0.5354
vn -0.0663 -0.9099 0.4095
vn -0.1375 -0.9349 0.3273
vn -0.1120 -0.9554 0.2734
vn -0.0550 -0.9983 0.0218
vn -0.0550 -0.9982 0.0218
vn -0.0460 -0.9380 0.3436
vn -0.0452 -0.9333 0.3564
vn -0.0382 -0.8438 0.5353
vn -0.0043 -0.4252 0.9051
vn -0.0067 -0.4252 0.9051
vn -0.0452 -0.9156 -0.3995
vn -0.0550 -0.9982 0.0219
vn -0.0447 -0.9801 0.1934
vn -0.0410 -0.9279 0.3707
vn -0.0413 -0.9279 0.3705
vn -0.0385 -0.9316 0.3615
vn -0.0452 -0.9332 0.3564
vn -0.0451 -0.9333 0.3563
vn -0.0413 -0.9278 0.3707
s 0
f 1//1 2//2 3//3
f 1//4 3//3 4//5
f 1//4 4//5 5//6
f 1//4 5//6 6//7
f 1//1 6//7 7//8
f 1//4 7//8 8//9
f 1//4 8//10 9//11
f 1//4 9//11 2//2
f 2//12 10//13 11//14
f 2//15 11//14 3//3
f 2//2 9//11 12//16
f 2//2 12//16 13//17
f 2//2 13//17 10//13
f 3//3 11//14 14//18
f 3//19 14//18 15//20
f 3//19 15//21 4//22
f 4//5 15//20 16//23
f 4//22 16//23 17//24
f 4//5 17//24 5//6
f 5//6 18//25 6//7
f 5//6 17//24 19//26
f 5//27 19//26 20//28
f 5//6 20//28 18//29
f 6//7 18//29 21//30
f 6//7 21//31 22//32
f 6//7 22//33 7//8
f 7//34 22//33 44//35
f 7//34 44//36 43//37
f 7//8 43//38 57//39
f 7//8 57//39 76//40
f 7//8 76//41 93//42
f 7//8 93//42 108//43
f 7//34 108//43 106//44
f 7//34 106//45 129//46
f 7//34 129//46 128//47
f 7//8 128//48 126//49
f 7//34 126//50 125//51
f 7//34 125//52 144//53
f 7//8 144//53 143//54
f 7//8 143//55 147//56
f 7//34 147//57 146//58
f 7//34 146//58 136//59
f 7//8 136//59 116//60
f 7//8 116//60 112//61
f 7//8 112//62 111//63
f 7//8 111//63 110//64
f 7//8 110//64 92//65
f 7//8 92//66 67//67
f 7//68 67//67 70//69
f 7//8 70//70 69//71
f 7//34 69//71 64//72
f 7//34 64//73 46//74
f 7//8 46//74 26//75
f 7//8 26//75 13//17
f 7//8 13//76 12//16
f 7//34 12//77 9//78
f 7//8 9//79 8//80
f 10//13 23//81 11//14
f 10//13 13//17 23//81
f 11//14 23//81 24//82
f 11//83 24//82 25//84
f 11//14 25//84 14//18
f 13//17 26//75 23//81
f 14//18 25//84 27//85
f 14//18 27//85 28//86
f 14//18 28//86 15//20
f 15//20 28//86 29//87
f 15//21 29//87 16//23
f 16//23 29//87 30//88
f 16//23 30//88 17//24
f 17//24 30//89 31//90
f 17//24 31//90 32//91
f 17//24 32//91 19//26
f 18//29 33//92 34//93
f 18//25 34//93 21//30
f 18//29 20//28 19//94
f 18//29 19//94 35//95
f 18//29 35//96 33//97
f 19//26 32//91 31//90
f 19//26 31//90 36//98
f 19//26 36//98 37//99
f 19//26 37//100 38//101
f 19//26 38//101 39//102
f 19//94 39//102 40//103
f 19//26 40//103 41//104
f 19//26 41//104 42//105
f 19//26 42//105 35//106
f 21//31 34//93 43//38
f 21//30 43//38 44//36
f 21//30 44//36 22//32
f 23//81 45//107 24//82
f 23//81 26//75 46//108
f 23//81 46//108 45//107
f 24//82 45//107 47//109
f 24//82 47//109 25//84
f 25//84 48//110 49//111
f 25//84 49//112 27//85
f 25//84 47//109 50//113
f 25//84 50//114 48//115
f 27//85 49//111 28//86
f 28//86 51//116 52//117
f 28//86 52//117 53//118
f 28//86 53//119 30//120
f 28//86 30//121 29//87
f 28//86 49//111 51//116
f 30//120 53//118 31//90
f 31//90 53//118 54//122
f 31//90 54//122 36//98
f 33//97 55//123 56//124
f 33//92 56//124 34//93
f 33//92 35//106 42//105
f 33//97 42//105 41//125
f 33//92 41//104 55//123
f 34//93 56//124 57//39
f 34//93 57//39 43//38
f 36//98 54//126 38//101
f 36//98 38//101 37//127
f 38//101 54//122 58//128
f 38//101 58//128 59//129
f 38//101 59//130 60//131
f 38//101 60//132 61//133
f 38//101 61//134 40//103
f 38//101 40//103 39//102
f 40//103 61//134 62//135
f 40//103 62//135 41//104
f 41//104 62//135 55//123
f 45//107 50//113 47//109
f 45//107 46//108 63//136
f 45//107 63//136 64//72
f 45//107 64//73 50//114
f 46//108 64//73 63//136
f 48//137 65//138 66//139
f 48//115 66//139 49//111
f 48//115 50//114 67//67
f 48//115 67//67 68//140
f 48//141 68//142 65//138
f 49//111 66//139 51//116
f 50//114 64//73 69//143
f 50//114 69//143 70//144
f 50//114 70//144 67//67
f 51//145 66//139 71//146
f 51//116 71//146 52//147
f 52//147 71//146 53//118
f 53//148 71//146 72//149
f 53//118 72//149 73//150
f 53//118 73//151 58//128
f 53//148 58//128 54//122
f 55//123 74//152 75//153
f 55//123 75//153 56//124
f 55//123 62//154 74//155
f 56//124 75//153 57//39
f 57//39 75//153 74//152
f 57//39 74//152 76//40
f 58//128 73//150 77//156
f 58//128 77//157 78//158
f 58//128 78//158 79//159
f 58//128 79//160 80//161
f 58//128 80//161 59//162
f 59//162 81//163 82//164
f 59//165 82//164 60//131
f 59//165 80//161 81//163
f 60//132 82//164 81//163
f 60//132 81//163 83//166
f 60//132 83//166 84//167
f 60//132 84//168 85//169
f 60//131 85//169 86//170
f 60//131 86//171 61//133
f 61//134 86//171 62//135
f 62//135 86//171 87//172
f 62//135 87//172 74//155
f 65//138 68//142 88//173
f 65//138 88//173 89//174
f 65//138 89//174 90//175
f 65//138 90//175 91//176
f 65//138 91//176 66//139
f 66//139 91//176 71//146
f 67//67 92//177 68//142
f 68//142 92//178 88//179
f 71//146 91//176 90//180
f 71//146 90//175 78//158
f 71//146 78//158 72//149
f 72//149 78//158 73//150
f 73//150 78//158 77//181
f 74//152 87//172 76//182
f 76//182 87//172 93//42
f 78//158 90//183 94//184
f 78//158 94//184 79//159
f 79//159 95//185 80//161
f 79//160 94//184 96//186
f 79//159 96//187 97//188
f 79//159 97//188 95//185
f 80//189 95//185 98//190
f 80//189 98//191 81//192
f 81//163 98//193 83//166
f 83//166 98//190 84//168
f 84//167 98//194 99//195
f 84//196 99//195 100//197
f 84//168 100//197 101//198
f 84//168 101//198 102//199
f 84//168 102//199 103//200
f 84//167 103//201 85//169
f 85//169 103//200 104//202
f 85//169 104//202 105//203
f 85//169 105//203 86//171
f 86//171 105//203 106//45
f 86//171 106//44 107//204
f 86//170 107//204 108//43
f 86//171 108//43 87//172
f 87//172 108//43 93//42
f 88//205 109//206 94//207
f 88//173 94//184 89//174
f 88//173 92//177 110//208
f 88//205 110//208 109//209
f 89//174 94//184 90//175
f 94//184 109//209 111//210
f 94//184 111//210 112//62
f 94//184 112//211 96//186
f 95//185 97//188 118//212
f 95//185 118//213 98//190
f 96//187 113//214 114//215
f 96//216 114//217 115//218
f 96//186 115//219 97//188
f 96//220 112//62 116//221
f 96//186 116//60 117//222
f 96//186 117//222 113//214
f 97//223 115//218 118//212
f 98//191 118//213 99//195
f 99//195 119//224 100//197
f 99//195 118//213 120//225
f 99//195 120//226 121//227
f 99//195 121//228 122//229
f 99//195 122//229 123//230
f 99//195 123//231 119//224
f 100//197 119//224 101//198
f 101//198 124//232 125//233
f 101//198 125//233 126//49
f 101//198 126//50 102//199
f 101//198 119//224 124//232
f 102//234 126//49 127//235
f 102//199 127//235 128//236
f 102//234 128//48 103//200
f 103//200 128//236 129//237
f 103//200 129//46 104//202
f 104//202 129//238 105//203
f 105//203 129//46 106//239
f 106//44 108//43 107//204
f 109//206 110//208 111//210
f 113//214 130//240 131//241
f 113//214 131//241 114//215
f 113//214 117//222 132//242
f 113//214 132//242 133//243
f 113//214 133//243 130//244
f 114//215 131//241 115//219
f 115//218 134//245 135//246
f 115//219 135//247 118//213
f 115//219 131//241 134//245
f 116//60 136//59 132//248
f 116//249 132//242 137//250
f 116//60 137//250 117//222
f 117//222 137//250 132//242
f 118//213 135//247 120//226
f 119//224 123//251 138//252
f 119//224 138//252 139//253
f 119//224 139//254 124//232
f 120//225 122//255 121//256
f 120//257 135//247 134//245
f 120//257 134//245 122//255
f 122//255 134//245 140//258
f 122//229 140//259 123//230
f 123//231 140//259 141//260
f 123//231 141//260 142//261
f 123//231 142//261 139//262
f 123//231 139//254 138//252
f 124//232 139//253 143//54
f 124//232 143//54 144//53
f 124//232 144//53 125//233
f 126//50 128//48 145//263
f 126//49 145//263 127//264
f 127//235 145//263 128//48
f 130//265 133//243 131//241
f 131//241 133//243 140//259
f 131//241 140//266 134//245
f 132//242 136//59 146//58
f 132//242 146//58 147//56
f 132//248 147//56 133//243
f 133//243 147//57 148//267
f 133//243 148//267 140//259
f 139//262 142//261 149//268
f 139//262 149//269 150//270
f 139//253 150//270 143//54
f 140//259 148//267 141//260
f 141//260 148//267 142//271
f 142//272 148//267 150//270
f 142//271 150//270 149//273
f 143//54 150//270 147//57
f 147//57 150//270 148//267
