# Blender 3.6.4
# www.blender.org
mtllib untitled.mtl
o decomposed_(2).001
v 173.464005 -56.827400 19.060003
v 173.089996 -56.827400 19.060003
v 173.464005 -58.147099 19.060003
v 176.455994 -36.113300 18.005201
v 176.455994 -29.968798 17.793602
v 173.089996 -58.147099 19.060003
v 170.753006 -60.385300 18.590803
v 170.319000 -66.814903 17.871206
v 168.854996 -79.098801 14.862006
v 164.550995 -72.954201 15.648705
v 164.783005 -79.098801 14.862006
v 161.595001 -78.729202 9.344746
v 161.084000 -82.218498 6.984726
v 165.746002 -82.962799 13.772007
v 168.416000 -83.538200 9.810407
v 163.891006 -83.290100 9.344747
v 167.757996 -82.962799 13.772007
v 173.792999 -71.011597 13.884906
v 170.908005 -79.098801 9.810406
v 172.811005 -74.754303 9.810406
v 171.537003 -79.098801 -8.611195
v 173.147003 -75.356102 -8.611195
v 168.710007 -83.839104 -8.611194
v 174.136002 -71.687302 9.810406
v 168.085007 -83.205704 -12.636293
v 173.919006 -71.233299 -12.477594
v 176.561005 -66.814903 -8.611196
v 179.781998 -52.577999 -12.064796
v 169.222000 -79.098801 -13.567595
v 174.875000 -66.814903 -13.447695
v 180.526001 -48.397099 -12.854996
v 170.319000 -66.814903 -15.976995
v 175.867004 -60.670399 -14.146095
v 176.455994 -48.397099 -15.659496
v 181.363007 -42.252602 -13.574697
v 183.459000 -42.252602 -8.611197
v 184.309998 -36.113300 -8.611197
v 181.701996 -36.113300 -13.676997
v 176.455994 -42.252602 -16.439096
v 170.319000 -48.397099 -16.978897
v 170.319000 -54.536400 -16.929497
v 170.319000 -60.670399 -16.731895
v 170.319000 -42.252602 -16.971796
v 176.455994 -36.113300 -16.368599
v 181.925995 -29.910702 -13.694598
v 182.225998 -29.910702 -13.140799
v 176.455994 -29.910702 -16.068699
v 176.455994 -29.968801 -16.072298
v 176.455994 -29.910698 17.790003
v 170.266998 -29.910702 -16.178099
v 170.319000 -29.910702 -16.199299
v 170.753006 -54.684200 18.393303
v 181.981003 -29.910698 15.359502
v 176.511002 -29.910698 17.768902
v 170.319000 -29.910698 16.163801
v 166.123001 -29.910698 13.733202
v 184.860992 -29.910700 9.810402
v 182.011993 -29.910698 15.306502
v 163.544998 -29.910700 9.810402
v 185.389999 -29.910700 3.668692
v 161.945007 -29.910700 3.728662
v 161.931000 -29.910700 3.668692
v 185.442993 -29.910700 -2.885758
v 185.397995 -29.910700 3.026652
v 185.393005 -29.910700 3.587552
v 161.839996 -29.910700 -2.374248
v 184.966003 -29.910700 -8.057358
v 161.839996 -29.910700 -2.469488
v 162.130997 -29.910700 -8.515958
v 162.138000 -29.910700 -8.611198
v 164.774994 -29.910702 -13.775698
v 164.804001 -29.910702 -13.821598
v 164.804001 -29.968801 -13.825098
v 170.319000 -36.113300 -16.693098
v 164.779999 -36.113300 -14.001497
v 164.727997 -66.814903 -14.209596
v 164.839996 -60.670399 -14.269595
v 164.858994 -42.252602 -14.110897
v 161.912003 -72.954201 -8.611195
v 161.084000 -80.529297 6.674286
v 162.419998 -79.098801 -8.611195
v 164.666000 -72.954201 -14.093194
v 161.084000 -82.218498 6.674286
v 165.119003 -83.839104 -8.611194
v 165.977005 -83.205704 -12.636293
v 164.990005 -79.098801 -13.567595
v 161.084000 -80.529297 6.984726
v 161.533005 -72.954201 9.810406
v 164.768005 -66.814903 15.701605
v 165.350006 -54.536400 15.207804
v 165.169006 -60.670399 15.532305
v 185.388000 -29.968800 3.668692
v 184.809006 -36.113300 3.668693
v 184.856003 -29.968800 9.810402
v 184.253006 -36.113300 9.810403
v 181.682999 -36.113300 15.359503
v 181.018005 -42.252602 15.038403
v 181.981003 -29.968798 15.359502
v 175.304993 -60.385300 16.474203
v 180.214005 -48.397099 14.258803
v 179.770996 -52.541000 13.482704
v 174.656006 -66.814903 15.052505
v 178.298996 -60.670399 9.810405
v 182.951004 -42.252602 9.810403
v 179.320007 -56.647900 9.810404
v 183.563995 -42.252602 3.668693
v 183.725998 -42.252602 -2.469487
v 178.453995 -60.670399 3.668694
v 184.847000 -36.113300 -2.469487
v 178.304001 -60.670399 -8.611196
v 176.186996 -66.814903 9.810405
vn 0.1039 0.0330 0.9940
vn 0.0762 0.0389 0.9963
vn -0.1937 0.0620 0.9791
vn -0.0940 -0.0892 0.9916
vn 0.5511 -0.1361 0.8233
vn 0.4029 -0.0016 0.9153
vn 0.5511 -0.1360 0.8232
vn -0.3513 -0.0189 0.9361
vn 0.5511 -0.1360 0.8233
vn -0.0515 -0.1799 0.9823
vn 0.3941 -0.2921 0.8714
vn -0.6521 -0.0577 0.7559
vn -0.4994 -0.2318 0.8348
vn 0.3941 -0.2922 0.8714
vn -0.4297 -0.6792 0.5950
vn -0.8855 -0.0942 0.4551
vn -0.7251 -0.6281 0.2824
vn -0.4296 -0.6793 0.5950
vn 0.7763 -0.5054 0.3767
vn -0.1933 -0.9802 0.0438
vn -0.4297 -0.6793 0.5950
vn -0.4296 -0.6792 0.5950
vn 0.5377 -0.8419 0.0469
vn 0.7763 -0.5054 0.3766
vn 0.8856 -0.3542 0.3004
vn 0.8895 -0.4462 0.0983
vn 0.8856 -0.3541 0.3004
vn 0.9156 -0.3988 0.0516
vn 0.8942 -0.4468 -0.0276
vn 0.9189 -0.3920 0.0437
vn 0.8942 -0.4468 -0.0275
vn 0.8738 -0.3388 -0.3488
vn 0.9246 -0.3808 -0.0080
vn 0.9246 -0.3809 -0.0079
vn 0.5377 -0.8419 0.0468
vn 0.5940 -0.8042 -0.0207
vn 0.7055 -0.5833 -0.4025
vn 0.9246 -0.3808 -0.0079
vn 0.9485 -0.3134 -0.0464
vn 0.9186 -0.2647 -0.2934
vn 0.3217 -0.2388 -0.9162
vn 0.6326 -0.2281 -0.7401
vn 0.6326 -0.2281 -0.7402
vn 0.3176 -0.1592 -0.9348
vn 0.5258 -0.1493 -0.8374
vn 0.8284 -0.2004 -0.5231
vn 0.6326 -0.2280 -0.7401
vn 0.4662 -0.1240 -0.8759
vn 0.7058 -0.1193 -0.6983
vn 0.7058 -0.1194 -0.6983
vn 0.9613 -0.2203 -0.1654
vn 0.9604 -0.0972 -0.2613
vn 0.8283 -0.2004 -0.5232
vn 0.9604 -0.0971 -0.2612
vn 0.7616 -0.0424 -0.6466
vn 0.3134 -0.0434 -0.9486
vn -0.2317 -0.0029 -0.9728
vn 0.3134 -0.0435 -0.9486
vn -0.1987 -0.0187 -0.9799
vn -0.3044 0.0167 -0.9524
vn -0.0434 -0.0813 -0.9957
vn 0.2053 0.0324 -0.9782
vn 0.2247 0.8696 -0.4396
vn 0.2248 0.8696 -0.4396
vn 0.2661 0.9532 -0.1435
vn -0.0403 0.9861 0.1614
vn 0.2262 0.0470 -0.9729
vn 0.0024 0.9952 -0.0973
vn 0.0024 0.9952 -0.0974
vn -0.4039 0.0686 0.9122
vn -0.0404 0.9861 0.1614
vn 0.4027 0.0317 0.9148
vn 0.0031 0.9841 -0.1776
vn -0.0709 0.9839 -0.1644
vn -0.0711 0.9838 -0.1647
vn -0.3634 0.1062 0.9256
vn 0.4031 0.0372 0.9144
vn 0.7721 0.4935 0.4003
vn -0.6436 0.1509 0.7504
vn -0.9005 0.1778 0.3969
vn -0.6436 0.1509 0.7503
vn 0.4414 0.8687 0.2248
vn 0.0075 1.0000 0.0006
vn 0.7721 0.4935 0.4004
vn -0.9293 0.2769 0.2443
vn 0.0066 1.0000 0.0001
vn -0.9791 0.1984 0.0441
vn -0.9293 0.2769 0.2442
vn -0.9576 0.2878 0.0141
vn 0.8450 0.5338 -0.0326
vn 0.4920 0.8502 -0.1871
vn 0.8450 0.5338 -0.0327
vn -0.9570 0.2868 -0.0431
vn 0.2662 0.9532 -0.1435
vn -0.9933 0.1037 -0.0502
vn -0.8054 0.4413 -0.3957
vn -0.2155 0.9703 -0.1102
vn -0.8053 0.4413 -0.3958
vn -0.4389 0.0342 -0.8979
vn -0.0710 0.9838 -0.1647
vn -0.1409 0.0589 -0.9883
vn -0.0709 0.9839 -0.1643
vn -0.3045 0.0166 -0.9524
vn -0.0708 0.9839 -0.1644
vn -0.8540 0.0074 -0.5202
vn -0.2154 0.9703 -0.1102
vn -0.3045 0.0167 -0.9524
vn -0.7800 0.0004 -0.6258
vn -0.4633 0.0051 -0.8862
vn -0.9759 -0.0039 -0.2181
vn -0.7800 0.0004 -0.6257
vn -0.8054 0.4413 -0.3958
vn -0.4652 0.0085 -0.8852
vn -0.4652 0.0086 -0.8852
vn -0.9987 0.0055 -0.0497
vn -0.9933 0.1038 -0.0502
vn -0.9597 -0.2497 -0.1288
vn -0.9988 0.0055 -0.0496
vn -0.6564 -0.0536 -0.7525
vn -0.9336 -0.2522 -0.2545
vn -0.9759 -0.0039 -0.2182
vn -0.9336 -0.2521 -0.2545
vn -0.7251 -0.6281 0.2825
vn -0.3883 -0.9190 -0.0684
vn -0.9988 0.0055 -0.0497
vn 0.5939 -0.8042 -0.0207
vn -0.3883 -0.9190 -0.0683
vn -0.5863 -0.4838 -0.6498
vn -0.5863 -0.4837 -0.6498
vn -0.3619 -0.1765 -0.9154
vn -0.3619 -0.1765 -0.9153
vn 0.3176 -0.1592 -0.9347
vn -0.9989 0.0192 0.0432
vn -0.9570 0.2868 -0.0432
vn -0.9500 0.0332 0.3106
vn -0.9500 0.0333 0.3106
vn -0.9005 0.1778 0.3968
vn -0.8170 0.0454 0.5748
vn -0.8855 -0.0942 0.4550
vn -0.6522 -0.0577 0.7559
vn -0.5174 0.0659 0.8532
vn -0.6436 0.1508 0.7503
vn -0.5058 0.0586 0.8606
vn -0.4633 0.0050 -0.8862
vn -0.4653 0.0086 -0.8851
vn -0.7800 0.0005 -0.6258
vn 0.9604 -0.0972 -0.2612
vn 0.4921 0.8502 -0.1870
vn 0.4921 0.8502 -0.1871
vn 0.9946 -0.0934 0.0457
vn 0.0065 1.0000 0.0001
vn 0.0066 1.0000 -0.0000
vn 0.0067 1.0000 0.0001
vn 0.0075 1.0000 0.0004
vn 0.9896 -0.1367 0.0440
vn 0.9752 -0.0943 0.2004
vn 0.4414 0.8687 0.2249
vn 0.8449 0.5339 -0.0326
vn 0.0065 1.0000 -0.0000
vn 0.9520 -0.1552 0.2640
vn 0.7664 -0.0778 0.6376
vn 0.9519 -0.1552 0.2640
vn 0.9752 -0.0944 0.2004
vn 0.7664 -0.0777 0.6376
vn 0.7843 -0.1537 0.6011
vn 0.7721 0.4936 0.4004
vn 0.4527 -0.0194 0.8915
vn 0.4527 -0.0193 0.8915
vn 0.4032 0.0372 0.9144
vn 0.4526 -0.0193 0.8915
vn 0.7381 -0.1914 0.6469
vn 0.8508 -0.1779 0.4945
vn 0.7843 -0.1538 0.6011
vn 0.9089 -0.2431 0.3389
vn 0.7382 -0.1915 0.6469
vn 0.9089 -0.2432 0.3388
vn 0.9556 -0.2796 0.0929
vn 0.6903 -0.2692 0.6716
vn 0.9089 -0.2431 0.3388
vn 0.9641 -0.2316 0.1299
vn 0.9556 -0.2796 0.0928
vn 0.9629 -0.2432 0.1172
vn 0.9641 -0.2316 0.1298
vn 0.9693 -0.2376 0.0639
vn 0.9656 -0.2598 -0.0041
vn 0.9657 -0.2598 -0.0041
vn 0.9569 -0.2904 0.0066
vn 0.9895 -0.1386 -0.0407
vn 0.9575 -0.2689 -0.1042
vn 0.9329 -0.3582 0.0380
vn 0.7381 -0.1915 0.6469
vn 0.4029 0.0313 0.9147
vn 0.9613 -0.2203 -0.1655
s 0
f 1//1 5//2 2//3
f 1//1 2//3 6//4
f 1//1 3//5 4//6
f 1//1 6//4 3//7
f 1//1 4//6 5//2
f 2//3 7//8 6//4
f 3//9 6//4 8//10
f 7//8 8//10 6//4
f 3//9 8//10 9//11
f 7//8 10//12 8//10
f 8//10 11//13 9//14
f 8//10 10//12 11//13
f 9//11 11//13 14//15
f 10//12 12//16 11//13
f 11//13 12//16 13//17
f 11//13 13//17 14//15
f 9//11 14//18 17//19
f 13//17 16//20 14//21
f 14//22 16//20 15//23
f 17//19 14//21 15//23
f 9//11 17//24 18//25
f 17//19 19//26 18//27
f 17//19 15//23 19//26
f 18//27 19//26 20//28
f 15//23 21//29 19//26
f 19//26 21//29 20//28
f 20//28 21//29 24//30
f 21//31 26//32 22//33
f 24//30 21//29 22//34
f 15//35 23//36 21//29
f 23//36 25//37 21//29
f 21//29 25//37 26//32
f 22//38 26//32 27//39
f 27//39 26//32 28//40
f 25//37 29//41 26//32
f 26//32 30//42 28//40
f 26//32 29//41 30//43
f 29//41 32//44 30//42
f 30//42 33//45 31//46
f 28//40 30//47 31//46
f 30//43 32//44 33//45
f 32//44 34//48 33//45
f 35//49 33//45 34//48
f 31//46 33//45 35//50
f 36//51 35//49 37//52
f 36//51 31//53 35//50
f 37//54 35//49 38//55
f 35//50 39//56 38//55
f 35//49 34//48 39//56
f 40//57 39//58 41//59
f 40//57 43//60 39//56
f 41//59 39//56 42//61
f 42//61 39//58 32//44
f 43//60 44//62 39//56
f 32//44 39//58 34//48
f 39//56 44//62 45//63
f 38//55 39//58 45//64
f 38//55 45//63 46//65
f 49//66 46//65 45//63
f 45//64 48//67 47//68
f 49//66 45//63 47//69
f 45//63 44//62 48//67
f 2//3 49//66 52//70
f 2//3 5//2 49//71
f 5//2 54//72 49//71
f 49//66 47//69 51//73
f 49//66 50//74 72//75
f 49//66 51//73 50//74
f 49//66 55//76 52//70
f 49//66 53//77 58//78
f 49//66 54//72 53//77
f 49//66 56//79 55//76
f 49//66 59//80 56//81
f 49//66 57//82 60//83
f 49//66 58//84 57//82
f 49//66 61//85 59//80
f 49//66 60//83 65//86
f 49//66 62//87 61//88
f 49//66 66//89 62//87
f 49//66 63//90 67//91
f 49//66 64//86 63//92
f 49//66 65//86 64//86
f 49//66 68//93 66//89
f 49//66 67//91 46//94
f 49//66 69//95 68//93
f 49//66 70//96 69//95
f 49//66 71//97 70//98
f 49//66 72//75 71//97
f 71//97 72//75 73//99
f 73//99 72//100 74//101
f 72//75 50//102 74//101
f 73//99 74//101 43//60
f 43//103 74//101 44//62
f 74//101 48//67 44//62
f 74//101 47//68 48//67
f 74//101 51//73 47//68
f 74//101 50//104 51//73
f 75//105 71//106 73//99
f 75//105 73//99 43//107
f 76//108 75//105 77//109
f 79//110 75//105 76//111
f 70//98 71//97 75//105
f 79//110 70//112 75//105
f 75//105 78//113 77//109
f 75//105 43//107 78//114
f 80//115 69//116 79//110
f 83//117 80//118 79//110
f 79//110 82//119 81//120
f 83//117 79//121 81//122
f 79//110 69//95 70//112
f 79//110 76//111 82//119
f 13//123 83//117 84//124
f 13//17 80//125 83//117
f 83//117 81//122 84//124
f 84//124 25//37 23//126
f 15//35 84//124 23//126
f 13//17 84//124 16//20
f 15//23 16//20 84//124
f 84//127 81//120 85//128
f 84//124 85//129 25//37
f 85//129 29//41 25//37
f 81//120 86//130 85//128
f 85//128 86//130 29//41
f 82//119 42//61 86//130
f 81//120 82//119 86//131
f 86//130 32//44 29//41
f 86//130 42//61 32//132
f 76//108 41//59 82//119
f 82//119 41//59 42//61
f 80//118 68//93 69//116
f 87//133 68//134 80//118
f 13//17 87//133 80//125
f 88//135 62//87 87//133
f 88//135 87//133 13//123
f 87//133 62//87 66//89
f 87//133 66//89 68//134
f 88//136 59//137 61//88
f 89//138 59//137 88//136
f 88//135 13//17 12//139
f 10//12 88//136 12//16
f 88//135 61//85 62//87
f 89//138 88//136 10//12
f 7//8 89//138 10//140
f 89//138 90//141 56//142
f 89//138 91//143 90//141
f 52//70 91//143 89//138
f 89//138 56//142 59//137
f 7//8 52//70 89//138
f 52//70 90//141 91//143
f 52//70 56//142 90//141
f 77//144 78//145 43//60
f 77//109 43//107 40//57
f 76//108 77//109 40//57
f 76//146 40//57 41//59
f 37//147 38//55 67//148
f 63//90 37//52 67//91
f 67//149 38//55 46//94
f 92//150 64//151 65//152
f 92//150 65//153 60//154
f 93//155 63//90 92//150
f 94//156 93//155 92//150
f 94//156 92//150 57//157
f 57//157 92//150 60//83
f 92//150 63//158 64//159
f 95//160 93//155 94//156
f 96//161 95//162 94//163
f 96//164 94//156 57//157
f 97//165 95//162 96//164
f 3//9 97//165 96//161
f 96//161 58//166 98//167
f 3//9 96//161 98//167
f 96//164 57//157 58//166
f 98//168 58//84 53//169
f 4//6 98//167 53//169
f 3//9 98//170 4//6
f 99//171 100//172 97//165
f 3//7 99//171 97//173
f 97//173 100//172 95//162
f 101//174 95//162 100//172
f 99//175 101//176 100//172
f 18//27 103//177 101//176
f 102//178 18//27 101//179
f 102//178 101//174 99//175
f 101//179 104//180 95//162
f 101//176 103//181 105//182
f 101//179 105//182 104//183
f 104//180 105//182 106//184
f 103//181 106//184 105//182
f 103//181 107//185 106//184
f 95//160 104//180 106//184
f 95//162 106//184 93//155
f 106//184 107//186 93//155
f 103//181 108//187 107//185
f 27//39 107//185 108//187
f 107//185 36//51 109//188
f 93//155 107//186 109//188
f 107//185 110//189 36//51
f 27//39 110//189 107//185
f 28//40 36//51 110//189
f 27//39 28//40 110//189
f 109//188 37//147 63//90
f 93//155 109//188 63//158
f 109//188 36//51 37//52
f 111//190 108//187 103//181
f 111//190 27//39 108//187
f 18//27 111//190 103//177
f 18//25 24//30 111//190
f 111//190 22//34 27//39
f 24//30 22//34 111//190
f 9//11 18//27 102//178
f 3//9 9//11 102//178
f 3//9 102//178 99//191
f 52//70 55//76 56//142
f 4//6 53//169 54//192
f 4//6 54//72 5//2
f 2//3 52//70 7//8
f 28//40 31//53 36//193
f 18//27 20//28 24//30
