# Blender 3.6.4
# www.blender.org
mtllib untitled.mtl
o decomposed_(2).002
v 139.177994 -17.174000 3.670691
v 139.177994 0.742798 -12.949700
v 139.177994 -15.643899 8.077211
v 139.177994 -16.746599 -2.468539
v 162.138000 -29.902201 -8.611818
v 162.132996 -29.902201 -8.514878
v 161.841995 -29.902201 -2.468538
v 161.841995 -29.902201 -2.375648
v 161.931000 -29.902201 3.670692
v 161.945007 -29.902201 3.731282
v 163.544006 -29.902201 9.809932
v 139.177994 -11.164699 11.566901
v 139.177994 -5.958919 13.994300
v 139.177994 -6.095689 13.949900
v 139.177994 -11.540801 -8.741069
v 139.177994 -6.993241 -11.160399
v 139.177994 -3.924471 -12.335800
v 139.177994 0.742800 15.363500
v 139.177994 6.888891 15.302899
v 139.177994 1.101819 -12.937600
v 139.177994 12.590501 14.091199
v 139.177994 13.026401 13.994299
v 139.177994 12.616099 -10.542401
v 139.177994 12.641799 -10.530301
v 139.177994 17.984301 -7.177981
v 139.177994 21.967800 3.723198
v 139.177994 21.728399 4.264419
v 139.177994 18.189501 -6.850832
v 139.177994 21.207001 -2.032342
v 139.177994 21.283899 -1.491112
v 139.177994 -11.284399 11.494201
v 139.177994 -16.652599 -2.706839
v 139.177994 -15.216500 -6.188439
v 139.177994 7.401779 -12.303401
v 139.177994 7.444519 -12.291301
v 139.177994 16.146502 12.915899
v 139.177994 18.779301 10.036099
v 139.177994 18.975901 9.809928
v 146.669998 49.868801 3.670686
v 146.628006 49.868801 -2.468544
v 148.677994 53.134201 7.027076
v 147.945007 53.920601 -2.468544
v 148.067001 53.783798 3.670686
v 151.748993 54.570202 9.369677
v 151.895004 55.955002 -2.468544
v 151.895004 55.749901 3.670686
v 158.037003 56.767101 9.809926
v 164.173996 56.433701 15.953197
v 157.942993 54.989101 16.179396
v 153.701004 54.159901 14.281096
v 170.315994 57.408199 9.809925
v 158.037003 56.929501 -8.611825
v 153.837006 54.074501 -12.784103
v 164.173996 57.168900 -8.611825
v 151.828995 54.681400 -8.296783
v 158.037003 54.852299 -13.749404
v 164.173996 55.091702 -14.310803
v 170.315994 57.160301 -8.611825
v 170.315994 54.997700 -14.399704
v 170.315994 52.022900 -17.473305
v 176.457993 54.382198 -13.567604
v 165.679001 48.526699 -18.664804
v 173.932999 47.936901 -18.091303
v 170.315994 48.954102 -18.656704
v 176.171005 49.937199 -16.289904
v 180.774994 49.868801 -13.038504
v 180.149994 53.570099 -12.424603
v 183.516998 49.868801 -8.611824
v 185.727997 53.022999 0.334498
v 176.457993 56.519199 -8.611824
v 181.246002 54.433498 -8.611824
v 182.985992 54.655701 -2.016184
v 176.457993 57.271400 -2.468544
v 183.102997 54.707001 3.363726
v 185.727997 53.022999 1.114016
v 181.528000 54.595901 9.809926
v 185.488007 52.578499 5.205496
v 176.457993 57.365501 3.670686
v 176.457993 56.886799 9.809925
v 170.819000 55.322498 16.498497
v 176.457993 54.647202 14.903096
v 180.328995 53.715401 13.638896
v 184.410995 50.262001 9.874546
v 181.160995 49.868801 14.442596
v 176.548004 50.355999 17.750496
v 173.203995 52.732399 18.913795
v 174.557999 48.637901 19.838696
v 170.819000 50.355999 20.743397
v 169.108002 53.946201 19.915396
v 164.173996 54.339401 20.286997
v 164.173996 49.868801 21.854095
v 164.173996 43.722698 22.023796
v 170.315994 43.722698 21.938995
v 159.927994 53.800900 19.814497
v 159.188995 49.868801 20.319296
v 156.117996 49.868801 18.178696
v 152.882996 49.868801 15.109097
v 176.457993 -29.902199 17.790901
v 175.160004 43.722698 20.266796
v 181.979004 -29.902199 15.359502
v 182.595001 0.742800 15.723000
v 178.231003 43.722698 18.033297
v 176.509995 -29.902199 17.770702
v 185.822006 5.085241 13.162300
v 181.716003 43.722698 14.963697
v 184.787003 43.722698 11.029697
v 186.404999 48.484001 7.871216
v 187.218002 43.722698 3.670687
v 186.677994 50.262001 3.363726
v 186.376999 49.868801 -1.030674
v 186.522003 43.722698 -1.854623
v 185.544006 43.722698 -4.924243
v 185.337006 49.868801 -4.100294
v 183.925995 43.722698 -8.611823
v 185.488007 0.742798 -10.978700
v 185.671005 -8.343841 -11.689499
v 176.966003 43.722698 -16.213203
v 180.981995 43.722698 -13.143503
v 185.985992 -5.941821 -8.967250
v 183.164993 -5.941821 -13.410100
v 185.671005 -8.566091 -11.689499
v 182.182007 -23.824501 -13.765498
v 182.384003 -17.678402 -13.769599
v 185.455002 -17.678400 -10.582799
v 185.949005 -10.985201 -8.842039
v 185.944000 -17.678400 -7.513218
v 181.923004 -29.902203 -13.692798
v 183.145996 -10.985201 -13.389899
v 185.253006 -23.824499 -9.544818
v 182.223999 -29.902203 -13.139498
v 176.457993 -29.902203 -16.067799
v 170.315994 -29.902203 -16.196999
v 173.895004 43.722698 -18.071104
v 170.315994 43.722698 -19.238403
v 164.880005 43.722698 -18.987904
v 158.037003 49.868801 -16.096004
v 152.962997 49.868801 -13.519204
v 149.891998 49.868801 -9.920454
v 148.514008 53.313702 -6.043034
v 170.264008 -29.902203 -16.176798
v 164.800003 -29.902203 -13.822098
v 164.772003 -29.902203 -13.777699
v 184.966003 -29.902201 -8.058478
v 185.671005 -26.936001 -5.566438
v 185.440994 -29.902201 -2.888598
v 185.817001 -23.824499 -6.475198
v 186.136993 -17.678400 -2.468539
v 185.873001 -24.251900 -2.920908
v 185.492004 -29.380699 -2.920908
v 185.397995 -29.902201 3.028502
v 185.854996 -22.995300 3.670692
v 185.389008 -29.902201 3.670692
v 184.867004 -29.902201 9.721072
v 185.764999 -22.012300 7.519832
v 185.662003 -8.369479 12.831101
v 186.376999 0.742800 9.809930
v 184.858002 -29.902201 9.809932
v 186.598007 0.742799 3.670690
v 185.313995 -23.961201 9.664532
v 186.565002 6.888890 -2.468540
v 182.011993 -29.902199 15.307002
v 185.751007 -4.274939 13.053200
v 185.845001 0.742800 13.222900
v 170.315994 -29.902199 16.163202
v 160.867996 9.521712 19.067301
v 166.121002 -29.902199 13.731802
v 149.811996 49.868801 10.920596
vn -0.9546 -0.2973 0.0203
vn -0.1867 -0.0530 -0.9810
vn -0.5181 -0.2286 -0.8242
vn -0.5021 0.0675 -0.8622
vn -0.9546 -0.2972 0.0203
vn -0.4357 -0.8760 0.2069
vn -0.5145 -0.7160 0.4719
vn -0.5144 -0.7160 0.4719
vn -0.4757 -0.5300 0.7020
vn -0.5236 -0.8373 -0.1573
vn -0.0957 -0.9950 -0.0280
vn -0.5839 -0.7508 -0.3088
vn -0.0958 -0.9950 -0.0279
vn -0.4945 -0.8689 -0.0239
vn -0.4944 -0.8689 -0.0238
vn -0.4943 -0.8690 -0.0235
vn -0.4820 -0.8762 0.0070
vn -0.4820 -0.8761 0.0070
vn -0.4815 -0.8764 0.0082
vn -0.4343 -0.8935 0.1141
vn -0.4734 -0.3768 0.7962
vn -0.4727 -0.3724 0.7987
vn -0.4734 -0.3767 0.7962
vn -0.3494 -0.2047 0.9143
vn -0.2142 -0.0862 0.9730
vn -0.3494 -0.2046 0.9144
vn -0.6438 -0.3959 -0.6548
vn -0.6340 -0.5907 -0.4992
vn -0.6384 -0.3285 -0.6961
vn -0.5510 0.0678 0.8318
vn -0.5510 0.0677 0.8318
vn -0.8570 0.1074 0.5040
vn -0.6359 0.0948 -0.7659
vn -0.5021 0.0674 -0.8622
vn -0.8570 0.1075 0.5040
vn -0.7958 0.1867 0.5761
vn -0.7957 0.1867 0.5761
vn -0.9032 0.2236 0.3663
vn -0.8662 0.1642 -0.4719
vn -0.9393 0.1098 -0.3250
vn -0.9399 0.1607 -0.3013
vn -0.9702 0.1521 -0.1887
vn -0.9924 0.1043 -0.0653
vn -0.9877 0.1564 -0.0037
vn -0.9939 0.1091 -0.0144
vn -0.9923 0.1109 0.0545
vn -0.9922 0.1109 0.0567
vn -0.9927 0.1048 -0.0605
vn -0.6359 0.0949 -0.7660
vn -0.9888 0.1105 0.1007
vn -0.9922 0.1109 0.0566
vn -0.9514 0.2740 0.1404
vn -0.9614 0.2576 -0.0967
vn -0.7626 0.6426 -0.0744
vn -0.8630 0.3277 0.3844
vn -0.6505 0.7524 0.1038
vn -0.9032 0.2237 0.3663
vn -0.8631 0.3277 0.3843
vn -0.9888 0.1105 0.1006
vn -0.4107 0.8877 0.2082
vn -0.3438 0.9331 0.1049
vn -0.6505 0.7524 0.1037
vn -0.2770 0.9603 -0.0328
vn -0.7626 0.6426 -0.0743
vn -0.3438 0.9332 0.1049
vn -0.2770 0.9603 -0.0329
vn -0.1378 0.9876 0.0753
vn -0.4108 0.8876 0.2082
vn -0.7040 0.4506 0.5490
vn -0.4108 0.8877 0.2082
vn -0.0191 0.9583 0.2852
vn -0.1378 0.9876 0.0754
vn -0.2494 0.9146 0.3183
vn -0.0192 0.9583 0.2851
vn -0.0225 0.9992 0.0318
vn -0.1095 0.9910 -0.0775
vn -0.1095 0.9910 -0.0776
vn -0.5273 0.5860 -0.6153
vn -0.1785 0.6243 -0.7605
vn -0.5274 0.5860 -0.6153
vn -0.4064 0.8832 -0.2343
vn -0.4063 0.8832 -0.2343
vn -0.0143 0.9978 -0.0650
vn -0.0299 0.8853 -0.4641
vn -0.0300 0.8853 -0.4641
vn 0.0433 0.9701 -0.2387
vn 0.0543 0.5477 -0.8349
vn 0.0834 0.8742 -0.4784
vn -0.1580 0.3079 -0.9382
vn 0.2630 0.7213 -0.6407
vn 0.4147 0.3765 -0.8284
vn 0.2631 0.7213 -0.6407
vn 0.0826 0.2073 -0.9748
vn 0.4677 0.0424 -0.8829
vn 0.4147 0.3766 -0.8284
vn 0.6765 0.5277 -0.5137
vn 0.7883 0.0727 -0.6110
vn 0.4677 0.0425 -0.8829
vn 0.6765 0.5277 -0.5136
vn 0.8675 0.1274 -0.4808
vn 0.2522 0.9367 -0.2428
vn 0.8218 0.5051 -0.2637
vn 0.5295 0.8167 -0.2294
vn 0.4284 0.8987 -0.0932
vn 0.8218 0.5051 -0.2636
vn 0.1866 0.9813 -0.0466
vn 0.4285 0.8987 -0.0932
vn 0.4284 0.8987 -0.0933
vn 0.4321 0.9004 0.0507
vn 0.1866 0.9813 -0.0467
vn 0.7758 0.6238 0.0951
vn 0.7740 0.5668 0.2822
vn 0.5085 0.8331 0.2177
vn 0.2411 0.9427 0.2306
vn 0.4320 0.9004 0.0507
vn 0.1014 0.9948 0.0075
vn 0.1650 0.9083 0.3843
vn 0.2950 0.8245 0.4829
vn 0.6027 0.5690 0.5595
vn -0.0191 0.9583 0.2851
vn 0.4264 0.4745 0.7701
vn 0.7878 0.3840 0.4816
vn 0.7029 0.1817 0.6877
vn 0.6027 0.5689 0.5595
vn 0.5490 0.3193 0.7724
vn 0.5490 0.3193 0.7725
vn 0.4263 0.4745 0.7701
vn 0.4794 0.1922 0.8563
vn 0.2241 0.2263 0.9479
vn 0.4794 0.1923 0.8563
vn 0.5489 0.3193 0.7725
vn 0.1926 0.6705 0.7164
vn 0.1926 0.6706 0.7164
vn -0.0187 0.6684 0.7436
vn -0.0262 0.1730 0.9846
vn 0.1927 0.6705 0.7164
vn 0.2949 0.8245 0.4829
vn 0.1649 0.9084 0.3843
vn 0.1649 0.9083 0.3843
vn -0.1343 -0.0475 0.9898
vn -0.3813 0.0765 0.9213
vn 0.1606 -0.0202 0.9868
vn -0.0188 0.6684 0.7436
vn -0.3836 0.5574 0.7363
vn -0.5509 0.0677 0.8318
vn -0.6087 0.2022 0.7672
vn -0.6864 0.2376 0.6873
vn -0.6865 0.2376 0.6873
vn -0.0192 0.9583 0.2852
vn -0.0601 -0.1379 0.9886
vn 0.4793 0.1922 0.8563
vn 0.4143 -0.0134 0.9101
vn -0.0601 -0.1378 0.9886
vn 0.4143 -0.0133 0.9101
vn 0.4505 -0.2214 0.8649
vn 0.5447 -0.0020 0.8386
vn 0.3702 -0.3952 0.8407
vn 0.6194 0.0422 0.7839
vn -0.0600 -0.1379 0.9886
vn -0.0957 -0.9950 -0.0279
vn 0.4506 -0.2214 0.8649
vn 0.3703 -0.3952 0.8406
vn 0.8160 0.0320 0.5772
vn 0.7289 0.0564 0.6823
vn 0.8159 0.0320 0.5773
vn 0.8107 0.0678 0.5815
vn 0.8159 0.0320 0.5772
vn 0.8107 0.0677 0.5815
vn 0.9383 0.0708 0.3384
vn 0.8108 0.0678 0.5814
vn 1.0000 0.0020 0.0042
vn 0.9826 0.1828 0.0322
vn 0.9826 0.1828 0.0323
vn 0.9383 0.0707 0.3385
vn 0.9773 0.1035 -0.1846
vn 0.8218 0.5050 -0.2637
vn 0.9813 0.0231 -0.1912
vn 0.9344 0.0530 -0.3521
vn 0.9773 0.1035 -0.1847
vn 0.9207 0.1782 -0.3472
vn 0.8675 0.1273 -0.4808
vn 0.9207 0.1782 -0.3473
vn 0.9344 0.0530 -0.3522
vn 0.8788 0.0275 -0.4764
vn 0.9813 0.0231 -0.1911
vn 0.8774 0.0574 -0.4763
vn 0.9115 0.0562 -0.4074
vn 0.8788 0.0274 -0.4764
vn 0.9956 -0.0017 -0.0937
vn 0.5861 0.0304 -0.8097
vn 0.6081 0.0328 -0.7932
vn 0.5217 0.0135 -0.8530
vn 0.5860 0.0304 -0.8097
vn 0.6081 0.0328 -0.7931
vn 0.8774 0.0574 -0.4764
vn 0.8213 -0.0446 -0.5687
vn 0.8213 -0.0447 -0.5688
vn 0.4727 -0.0233 -0.8809
vn 0.8213 -0.0446 -0.5688
vn 0.5976 -0.5596 -0.5742
vn 0.4074 -0.0100 -0.9132
vn 0.5575 -0.0117 -0.8301
vn 0.8213 -0.0447 -0.5687
vn 0.5576 -0.0116 -0.8301
vn 0.9975 -0.0222 -0.0677
vn 0.9163 -0.0801 -0.3925
vn 0.9162 -0.0801 -0.3925
vn 0.9971 -0.0129 -0.0750
vn 0.9975 -0.0222 -0.0678
vn 0.5576 -0.0117 -0.8301
vn 0.2446 -0.1176 -0.9625
vn 0.4727 -0.0234 -0.8809
vn 0.9120 -0.1175 -0.3930
vn 0.2470 -0.9598 -0.1334
vn -0.1167 -0.0657 -0.9910
vn 0.0699 -0.0272 -0.9972
vn 0.3587 -0.0126 -0.9334
vn 0.0698 -0.0272 -0.9972
vn 0.0825 0.2073 -0.9748
vn -0.1678 -0.0263 -0.9855
vn -0.3680 0.1151 -0.9227
vn -0.1867 -0.0531 -0.9810
vn -0.1679 -0.0263 -0.9855
vn -0.6359 0.0949 -0.7659
vn -0.6359 0.0948 -0.7660
vn -0.6158 0.1853 -0.7659
vn -0.6158 0.1853 -0.7658
vn -0.7797 0.2445 -0.5765
vn -0.6157 0.1853 -0.7659
vn -0.9393 0.1098 -0.3251
vn -0.7796 0.2445 -0.5765
vn -0.8692 0.2893 -0.4009
vn -0.8693 0.2892 -0.4009
vn -0.8693 0.2893 -0.4009
vn 0.4073 -0.0099 -0.9132
vn 0.3588 -0.0126 -0.9333
vn -0.3563 -0.4336 -0.8277
vn -0.4245 -0.4298 -0.7969
vn -0.4245 -0.4299 -0.7969
vn -0.3564 -0.4336 -0.8276
vn -0.5367 -0.7904 -0.2954
vn -0.4246 -0.4298 -0.7968
vn -0.4246 -0.4299 -0.7969
vn -0.6384 -0.3285 -0.6960
vn -0.6339 -0.5907 -0.4992
vn 0.2949 -0.9512 -0.0911
vn 0.9933 -0.0538 -0.1021
vn 0.0760 -0.9971 -0.0055
vn 0.9927 -0.1001 -0.0669
vn 0.9996 -0.0248 -0.0128
vn 0.9983 -0.0576 0.0045
vn 0.9971 -0.0763 0.0053
vn 0.2321 -0.9727 0.0023
vn 0.5840 -0.8113 0.0281
vn 0.2321 -0.9727 0.0022
vn 0.9990 -0.0398 0.0223
vn 0.5840 -0.8113 0.0282
vn 0.9965 -0.0441 0.0712
vn 0.3006 -0.9534 0.0260
vn 0.9997 -0.0208 0.0109
vn 0.9468 -0.0688 0.3142
vn 0.9968 -0.0178 0.0785
vn 0.9469 -0.0688 0.3142
vn 0.9822 -0.0615 0.1772
vn 0.9968 -0.0178 0.0784
vn 0.9997 -0.0208 0.0108
vn 0.5942 -0.7592 0.2655
vn 0.9822 -0.0616 0.1772
vn 0.5942 -0.7592 0.2654
vn 0.9468 -0.0688 0.3143
vn 0.9991 -0.0131 -0.0409
vn 0.9991 -0.0131 -0.0410
vn 0.9975 -0.0223 -0.0678
vn 0.5091 -0.8192 0.2641
vn 0.8754 -0.0383 0.4819
vn 0.8830 -0.0088 0.4693
vn 0.8830 -0.0087 0.4693
vn 0.4505 -0.2213 0.8649
vn 0.0760 -0.9971 -0.0054
vn 0.6082 0.0327 -0.7931
vn -0.2696 -0.6837 0.6781
vn -0.3494 -0.2046 0.9143
vn -0.1288 -0.0783 0.9886
vn -0.1287 -0.0783 0.9886
vn -0.3740 -0.7826 0.4977
vn 0.0833 0.8742 -0.4784
vn -0.7039 0.4506 0.5490
vn -0.8057 0.2892 0.5170
vn -0.8631 0.3277 0.3844
vn -0.9927 0.1047 -0.0605
vn -0.4820 -0.8762 0.0071
vn -0.4945 -0.8689 -0.0238
s 0
f 1//1 2//2 17//3
f 1//1 20//4 2//2
f 1//5 11//6 3//7
f 1//1 3//8 31//9
f 1//5 4//10 5//11
f 1//1 32//12 4//10
f 1//5 5//13 6//14
f 1//5 6//15 7//15
f 1//5 7//16 8//17
f 1//1 8//18 9//19
f 1//5 9//19 10//20
f 1//5 10//20 11//6
f 1//1 12//21 14//22
f 1//1 31//9 12//23
f 1//1 13//24 18//25
f 1//1 14//22 13//26
f 1//1 15//27 33//28
f 1//1 16//29 15//27
f 1//5 17//3 16//29
f 1//1 18//25 19//30
f 1//1 19//31 21//32
f 1//1 34//33 20//34
f 1//1 21//35 22//36
f 1//1 22//37 36//38
f 1//1 23//39 35//40
f 1//1 24//41 23//39
f 1//1 25//42 24//41
f 1//5 28//43 25//42
f 1//1 26//44 30//45
f 1//1 27//46 26//44
f 1//1 38//47 27//46
f 1//1 29//48 28//43
f 1//1 30//45 29//48
f 1//5 33//28 32//12
f 1//5 35//40 34//49
f 1//1 36//38 37//50
f 1//1 37//50 38//51
f 39//52 38//47 37//50
f 39//52 27//46 38//47
f 39//52 40//53 26//44
f 39//52 42//54 40//53
f 41//55 43//56 39//52
f 36//57 41//58 39//52
f 36//38 39//52 37//59
f 39//52 43//56 42//54
f 39//52 26//44 27//46
f 44//60 46//61 43//62
f 41//55 44//60 43//56
f 43//56 45//63 42//64
f 43//62 46//65 45//66
f 47//67 46//65 44//68
f 47//67 45//66 46//61
f 50//69 47//67 44//70
f 48//71 47//72 49//73
f 48//74 51//75 47//67
f 50//69 49//73 47//67
f 47//72 51//75 52//76
f 47//67 52//77 45//66
f 53//78 52//77 56//79
f 53//80 55//81 52//77
f 55//82 45//66 52//77
f 52//77 54//83 57//84
f 51//75 54//83 52//76
f 56//79 52//77 57//85
f 57//84 54//83 58//86
f 56//79 57//85 60//87
f 57//84 58//86 59//88
f 60//87 57//85 59//88
f 62//89 56//79 60//87
f 60//87 61//90 65//91
f 60//87 59//88 61//92
f 62//89 60//87 64//93
f 63//94 60//87 65//95
f 64//93 60//87 63//94
f 65//95 67//96 66//97
f 63//98 65//95 66//97
f 65//91 61//92 67//96
f 66//97 67//99 68//100
f 61//90 70//101 67//96
f 67//96 69//102 68//100
f 67//99 71//103 69//102
f 67//96 70//101 71//103
f 70//101 72//104 71//103
f 69//105 71//103 72//104
f 70//101 73//106 72//107
f 69//105 72//108 74//109
f 74//109 72//104 73//110
f 69//105 74//109 75//111
f 77//112 75//111 74//109
f 76//113 74//109 79//114
f 77//112 74//115 76//113
f 74//109 73//106 78//116
f 79//114 74//109 78//116
f 80//117 79//114 48//71
f 81//118 79//114 80//117
f 82//119 79//114 81//118
f 82//119 76//113 79//114
f 48//120 79//114 51//75
f 79//114 78//116 51//75
f 86//121 82//119 81//118
f 82//119 77//112 76//113
f 83//122 77//112 82//119
f 84//123 83//122 82//119
f 84//123 82//124 85//125
f 85//126 82//124 86//127
f 87//128 86//127 88//129
f 87//130 85//131 86//127
f 88//129 86//127 89//132
f 86//127 81//118 89//132
f 89//133 48//120 90//134
f 91//135 89//133 90//134
f 89//136 81//137 80//138
f 88//129 89//132 91//135
f 89//133 80//139 48//74
f 92//140 91//135 95//141
f 93//142 91//135 92//140
f 93//142 88//129 91//135
f 91//135 90//143 94//144
f 91//135 94//144 95//141
f 19//145 95//141 96//146
f 92//140 95//141 19//31
f 95//141 94//144 96//146
f 96//146 94//144 50//69
f 96//146 97//147 22//37
f 21//35 96//146 22//37
f 96//146 50//69 97//147
f 19//31 96//146 21//35
f 50//69 36//38 97//147
f 22//37 97//148 36//38
f 94//144 49//73 50//69
f 94//144 48//71 49//73
f 90//143 48//149 94//144
f 98//150 93//142 92//140
f 93//142 87//151 88//129
f 99//152 87//128 93//142
f 98//153 99//154 93//142
f 99//152 100//155 101//156
f 103//157 100//155 99//152
f 99//154 101//156 102//158
f 99//154 102//158 87//128
f 98//159 103//157 99//152
f 5//160 100//161 103//162
f 5//160 103//157 98//159
f 102//158 104//163 105//164
f 102//158 101//156 104//165
f 102//158 84//123 87//128
f 102//158 105//164 84//123
f 105//164 106//166 84//123
f 105//164 104//167 106//168
f 104//167 107//169 106//170
f 84//123 106//168 107//169
f 108//171 109//172 107//169
f 104//163 108//171 107//169
f 107//169 109//173 77//112
f 83//122 107//174 77//112
f 84//123 107//169 83//122
f 108//171 110//175 109//172
f 109//173 75//111 77//112
f 109//173 69//102 75//111
f 110//175 69//176 109//172
f 108//171 111//177 110//175
f 111//177 112//178 110//175
f 110//179 112//178 113//180
f 110//175 113//180 69//102
f 68//181 69//102 113//182
f 68//100 113//182 112//183
f 116//184 112//183 111//185
f 115//186 114//187 112//178
f 68//100 112//178 114//187
f 116//184 115//186 112//183
f 108//171 116//188 111//185
f 108//171 119//189 116//184
f 117//190 118//191 116//184
f 120//192 117//193 116//188
f 66//97 116//184 118//194
f 66//97 115//195 116//184
f 121//196 116//184 119//189
f 120//192 116//188 121//197
f 122//198 121//199 127//200
f 123//201 121//199 122//198
f 123//201 128//202 121//203
f 120//192 121//197 128//204
f 121//196 126//205 124//206
f 127//200 121//197 124//207
f 121//203 119//189 125//208
f 121//199 125//208 126//209
f 123//201 120//192 128//210
f 131//211 122//212 127//200
f 127//200 124//206 129//213
f 127//200 129//213 130//214
f 5//160 127//200 130//214
f 5//160 131//211 127//200
f 132//215 134//216 131//211
f 5//160 132//215 131//211
f 131//211 133//217 123//201
f 131//211 123//201 122//198
f 131//211 134//218 133//217
f 134//218 63//98 133//217
f 134//218 64//219 63//94
f 132//215 135//220 134//216
f 135//220 62//89 134//218
f 134//216 62//89 64//93
f 135//220 20//34 136//221
f 2//222 20//4 135//220
f 132//215 2//222 135//223
f 135//220 136//221 62//89
f 20//4 34//224 136//221
f 136//221 56//79 62//89
f 136//221 34//225 137//226
f 136//221 137//227 53//78
f 136//221 53//78 56//79
f 137//227 138//228 53//78
f 137//229 23//39 138//228
f 137//227 35//230 23//39
f 34//224 35//40 137//227
f 53//78 138//231 139//232
f 138//231 23//39 24//41
f 138//228 24//41 139//232
f 53//78 139//233 55//81
f 139//232 24//41 25//42
f 139//234 25//42 40//53
f 139//234 40//53 42//64
f 139//234 42//64 55//81
f 123//235 133//236 63//98
f 17//3 2//222 132//215
f 5//13 140//237 132//215
f 140//237 17//3 132//215
f 141//238 17//3 140//237
f 5//160 141//239 140//240
f 142//241 33//28 141//239
f 5//160 142//241 141//242
f 33//28 15//27 141//243
f 141//239 15//27 16//29
f 141//243 16//244 17//3
f 4//10 142//241 5//13
f 4//10 32//12 142//241
f 32//12 33//245 142//241
f 5//160 130//214 143//246
f 129//213 143//246 130//214
f 129//213 146//247 143//246
f 5//160 143//246 145//248
f 143//246 144//249 145//248
f 146//247 144//249 143//246
f 126//205 147//250 146//247
f 124//206 126//205 146//247
f 124//207 146//247 129//213
f 146//247 148//251 144//249
f 146//247 147//250 148//251
f 148//251 149//252 144//249
f 150//253 149//252 148//251
f 152//254 150//255 148//251
f 151//256 148//251 147//250
f 152//257 148//251 151//256
f 154//258 152//254 151//256
f 154//258 153//259 152//254
f 5//160 152//257 153//259
f 5//160 150//255 152//257
f 154//258 151//256 158//260
f 155//261 154//258 156//262
f 155//263 159//264 154//258
f 156//265 154//258 158//266
f 157//267 154//258 159//268
f 157//269 153//259 154//258
f 155//270 157//267 159//268
f 108//171 158//266 160//271
f 156//262 158//266 108//171
f 158//260 147//250 160//272
f 158//260 151//256 147//250
f 108//171 160//271 119//189
f 160//272 125//208 119//189
f 160//271 126//273 125//208
f 160//272 147//250 126//205
f 161//274 157//267 155//261
f 5//160 157//267 161//274
f 5//13 153//259 157//267
f 100//155 161//274 155//261
f 5//13 161//274 100//161
f 155//263 156//262 162//275
f 163//276 156//265 108//171
f 162//275 156//262 163//276
f 163//277 108//171 104//163
f 101//156 163//277 104//167
f 100//278 162//275 163//277
f 100//278 163//276 101//156
f 100//155 155//270 162//275
f 150//255 145//248 149//252
f 5//160 145//248 150//255
f 144//249 149//252 145//279
f 123//201 63//94 120//192
f 63//94 117//190 120//192
f 117//193 66//97 118//280
f 63//98 66//97 117//190
f 66//97 68//100 115//186
f 68//100 114//187 115//186
f 164//281 98//150 13//282
f 5//160 98//150 164//281
f 98//150 18//25 13//24
f 98//150 92//140 165//283
f 98//150 165//284 18//25
f 165//284 92//140 18//25
f 164//281 14//22 12//21
f 31//9 164//281 12//21
f 164//281 13//282 14//22
f 166//285 164//281 31//9
f 5//160 164//281 166//285
f 3//7 166//285 31//9
f 3//7 11//6 166//285
f 5//160 166//285 11//6
f 18//25 92//140 19//31
f 87//128 84//123 85//131
f 78//116 73//110 54//83
f 51//75 78//116 54//83
f 58//86 73//106 70//101
f 54//83 73//110 58//86
f 59//286 70//101 61//90
f 59//88 58//86 70//101
f 55//81 42//64 45//66
f 50//287 167//288 36//38
f 50//69 44//60 41//55
f 50//69 41//289 167//288
f 36//38 167//288 41//55
f 40//53 25//42 28//43
f 40//53 29//48 30//45
f 40//53 28//43 29//290
f 40//53 30//45 26//44
f 5//160 11//6 10//20
f 5//160 10//20 9//19
f 5//160 9//19 8//17
f 5//160 8//291 7//16
f 5//160 7//16 6//292
