# https://github.com/mikedh/trimesh
v 0.01369419 0.03357107 0.11411291
v 0.01178281 0.03352538 0.11411291
v 0.01561190 0.03348476 0.11411291
v -0.01119172 0.02630060 0.08567475
v -0.01310310 0.02626506 0.08567475
v 0.00986510 0.03333752 0.11411291
v -0.01502080 0.02611275 0.08567475
v 0.01759923 0.03302782 0.11411291
v 0.01561190 0.03345430 0.11403774
v 0.01262458 0.03211901 0.10927717
v -0.00926135 0.02619398 0.08567475
v 0.00795372 0.03310397 0.11411291
v 0.00028922 0.03106296 0.10637628
v -0.01693851 0.02581827 0.08567475
v -0.00162216 0.03079895 0.10637628
v 0.00028922 0.03132697 0.10829164
v 0.01804859 0.03280442 0.11411291
v 0.01639671 0.03209362 0.11123151
v 0.01369419 0.03144375 0.10829164
v 0.01178281 0.03102742 0.10637628
v -0.00545125 0.02559996 0.08567475
v -0.00736896 0.02598074 0.08567475
v -0.00162216 0.03101727 0.10829164
v 0.00603602 0.03278411 0.11411291
v -0.01885622 0.02528517 0.08567475
v -0.01187526 0.02822484 0.10446092
v -0.00928034 0.02904734 0.10637628
v -0.00736896 0.02957536 0.10637628
v -0.00470442 0.03026585 0.10693586
v 0.01944099 0.03198700 0.11411291
v 0.01695366 0.03047909 0.10884287
v 0.01562456 0.03075326 0.10823875
v 0.01499165 0.03037755 0.10707227
v 0.01286508 0.03026585 0.10533229
v -0.00343227 0.02490439 0.08567475
v -0.00353987 0.03061617 0.10829164
v -0.00162216 0.03111373 0.11020701
v 0.00396008 0.03238810 0.11411291
v -0.01502080 0.02711802 0.10446092
v -0.01310942 0.02780851 0.10446092
v -0.02038786 0.02472161 0.08567475
v -0.01197019 0.02824515 0.10637628
v -0.01101450 0.02853455 0.10637628
v -0.00928034 0.02907780 0.10829164
v -0.00736896 0.02963121 0.10829164
v -0.00579302 0.03005261 0.10829164
v -0.00483733 0.03030139 0.10829164
v 0.02101060 0.03091065 0.11411291
v 0.01626380 0.03005769 0.10756781
v 0.01823214 0.03001707 0.10957505
v 0.01766885 0.02939766 0.10814966
v 0.01414356 0.02996630 0.10579443
v -0.00164748 0.02409205 0.08567475
v -0.00353987 0.03067710 0.11020701
v 0.00257401 0.03209870 0.11411291
v 0.00296009 0.03217993 0.11411291
v 0.00342211 0.03227640 0.11411291
v -0.01502080 0.02711802 0.10637628
v -0.01310942 0.02783390 0.10637628
v -0.01645750 0.02657477 0.10446092
v -0.02116633 0.02438652 0.08567475
v -0.01741952 0.02618891 0.10446092
v -0.01193855 0.02822484 0.10829164
v -0.01097653 0.02854470 0.10829164
v -0.00928034 0.02900672 0.11020701
v -0.00736896 0.02960075 0.11020701
v -0.00582466 0.03004753 0.11020701
v -0.00486897 0.03032170 0.11020701
v 0.02120047 0.03074310 0.11411291
v 0.01709923 0.02878333 0.10675768
v 0.01649164 0.02822992 0.10547984
v 0.01574481 0.02937227 0.10627606
v 0.00013099 0.02307154 0.08567475
v -0.00017913 0.02326447 0.08567475
v 0.01892833 0.02873763 0.10873429
v -0.00353987 0.03065171 0.11212237
v -0.00162216 0.03112389 0.11212237
v 0.00028922 0.03156560 0.11411291
v -0.01643852 0.02656969 0.10637628
v -0.01502080 0.02705202 0.10829164
v -0.01310942 0.02778821 0.10829164
v -0.02268531 0.02370111 0.08567475
v -0.01885622 0.02555934 0.10446092
v -0.01739421 0.02618383 0.10637628
v -0.01176766 0.02816391 0.11020701
v -0.01080564 0.02849901 0.11020701
v -0.00928034 0.02887979 0.11212237
v -0.00736896 0.02937227 0.11411291
v -0.00736896 0.02949920 0.11212237
v -0.00572340 0.03000692 0.11212237
v -0.00476771 0.03029631 0.11212237
v 0.02068782 0.02861070 0.11077215
v 0.02275109 0.02918950 0.11411291
v 0.02280805 0.02912857 0.11410734
v 0.01837770 0.02814361 0.10745924
v 0.01521950 0.02868686 0.10498152
v 0.01699797 0.02695048 0.10496481
v 0.00407400 0.01948708 0.08567475
v 0.00386514 0.01974601 0.08567475
v 0.00356135 0.02010649 0.08567475
v 0.00263730 0.02106607 0.08567475
v 0.00227655 0.02139101 0.08567475
v 0.00106769 0.02242167 0.08567475
v 0.00042846 0.02286846 0.08567475
v 0.02020048 0.02794052 0.10949710
v -0.00354620 0.03056033 0.11411291
v -0.00162216 0.03108835 0.11411291
v -0.01634991 0.02653415 0.10829164
v -0.01502080 0.02691494 0.11020701
v -0.01310942 0.02765620 0.11020701
v -0.02434986 0.02290907 0.08567475
v -0.02038786 0.02479777 0.10446092
v -0.02037520 0.02478761 0.10637628
v -0.01885622 0.02553903 0.10637628
v -0.02512833 0.02252321 0.08567475
v -0.01885622 0.02546795 0.10829164
v -0.01730560 0.02614829 0.10829164
v -0.01035628 0.02834669 0.11403774
v -0.00928667 0.02872748 0.11411291
v -0.00553986 0.02994599 0.11411291
v -0.00459049 0.03024554 0.11403774
v 0.02280172 0.02913872 0.11411291
v 0.02281438 0.02912349 0.11411291
v 0.02239033 0.02840762 0.11295756
v 0.01880175 0.02686416 0.10694978
v 0.01827644 0.02600105 0.10567472
v 0.01681442 0.02485362 0.10325268
v 0.00489045 0.01842596 0.08567475
v 0.02051693 0.02666108 0.10904888
v -0.01713471 0.02608229 0.11020701
v -0.01617902 0.02646307 0.11020701
v -0.01604611 0.02641230 0.11137906
v -0.01310942 0.02747342 0.11212237
v -0.02031191 0.02474700 0.10829164
v -0.02531187 0.02242674 0.08567475
v -0.02133089 0.02424436 0.10637628
v -0.02017900 0.02467592 0.11020701
v -0.01885622 0.02533087 0.11020701
v -0.01129931 0.02797606 0.11411291
v -0.01034995 0.02834161 0.11411291
v 0.02335235 0.02734142 0.11411291
v 0.02066883 0.02542733 0.10875935
v 0.01860555 0.02472669 0.10525991
v 0.00640310 0.01571476 0.08567475
v 0.00564994 0.01714652 0.08567475
v 0.00546640 0.01747653 0.08567475
v 0.02008022 0.02542733 0.10780167
v -0.01885622 0.02511763 0.11212237
v -0.01678661 0.02602644 0.11205834
v -0.01564105 0.02624983 0.11411291
v -0.01560308 0.02626506 0.11411291
v -0.01310942 0.02726018 0.11411291
v -0.02126760 0.02420374 0.10829164
v -0.02651439 0.02173625 0.08567475
v -0.02268531 0.02345740 0.10637628
v -0.02268531 0.02338125 0.10829164
v -0.01998912 0.02456930 0.11212237
v -0.02114102 0.02412759 0.11020701
v 0.02347261 0.02542733 0.11411291
v 0.02343463 0.02542733 0.11403774
v 0.02027643 0.02351325 0.10757617
v 0.01954858 0.02351325 0.10637628
v 0.01871315 0.02351325 0.10509009
v 0.00754866 0.01215061 0.08567475
v 0.00718158 0.01358236 0.08567475
v 0.00708664 0.01393776 0.08567475
v 0.00651070 0.01549137 0.08567475
v -0.01985621 0.02449314 0.11325266
v -0.01896381 0.02481808 0.11395144
v -0.01892584 0.02481300 0.11411291
v -0.01693851 0.02570150 0.11411291
v -0.01693851 0.02571165 0.11403774
v -0.02784983 0.02090360 0.08567475
v -0.02392581 0.02272630 0.10637628
v -0.02385619 0.02268568 0.10829164
v -0.02372328 0.02260952 0.11020701
v -0.02268531 0.02322385 0.11020701
v -0.02094482 0.02401589 0.11212237
v -0.02364733 0.02255875 0.11119253
v 0.02324476 0.02351325 0.11411291
v 0.02026377 0.02159917 0.10765412
v 0.02074478 0.02351325 0.10853385
v 0.01959288 0.02159917 0.10637628
v 0.00801069 0.00819044 0.08567475
v 0.00789043 0.01010452 0.08567475
v -0.01916002 0.02470130 0.11411291
v -0.02072330 0.02385850 0.11411291
v -0.02034355 0.02407681 0.11411291
v -0.02881185 0.02023342 0.08567475
v -0.02629921 0.02116761 0.10637628
v -0.02488150 0.02212719 0.10637628
v -0.02481188 0.02206627 0.10829164
v -0.02468529 0.02196472 0.11020701
v -0.02606503 0.02100514 0.11020701
v -0.02441314 0.02190380 0.11194698
v -0.02348910 0.02245721 0.11247037
v -0.02232455 0.02290907 0.11411291
v 0.02270046 0.02163471 0.11411291
v 0.02038402 0.01877628 0.10929944
v 0.02054225 0.02005064 0.10889855
v 0.02066250 0.02159917 0.10861180
v 0.01939036 0.01968001 0.10637628
v 0.00790309 0.00628143 0.08567475
v -0.03015361 0.01927891 0.08567475
v -0.02725490 0.02047712 0.10637628
v -0.02621060 0.02111176 0.10829164
v -0.02716629 0.02040604 0.10829164
v -0.02702072 0.02029434 0.11020701
v -0.02584984 0.02085283 0.11212237
v -0.02476124 0.02127931 0.11411012
v -0.02329290 0.02233028 0.11403774
v -0.02324227 0.02235059 0.11411291
v 0.02235869 0.02063959 0.11411291
v 0.02020048 0.01771008 0.11004554
v 0.01971947 0.01776593 0.10829164
v 0.00718158 0.00279343 0.08567475
v 0.02018149 0.01952262 0.10827216
v 0.00757398 0.00436735 0.08567475
v -0.03093209 0.01870520 0.08567475
v -0.02960298 0.01888798 0.10254833
v -0.02952704 0.01883720 0.10446092
v -0.02842578 0.01956323 0.10637628
v -0.03110930 0.01857319 0.08567475
v -0.02939412 0.01873058 0.10738686
v -0.02856501 0.01930938 0.10813296
v -0.02680553 0.02012680 0.11212237
v -0.02820426 0.01933476 0.11020701
v -0.02799540 0.01916722 0.11212237
v -0.02566630 0.02072082 0.11351992
v -0.02476124 0.02127423 0.11411291
v -0.02333087 0.02228966 0.11411291
v -0.02638782 0.02005064 0.11411291
v -0.02328024 0.02232520 0.11411291
v 0.02202958 0.01984756 0.11411291
v 0.02031440 0.01703990 0.11166024
v 0.01945365 0.01585184 0.11020701
v 0.01891567 0.01576046 0.10826659
v 0.00637146 0.00056457 0.08567475
v 0.00687145 0.00185416 0.08567475
v 0.00692841 0.00201155 0.08567475
v -0.03062196 0.01813656 0.10063297
v -0.03056500 0.01807055 0.10254833
v -0.03218524 0.01761361 0.08567475
v -0.02929286 0.01864427 0.10866470
v -0.03048905 0.01797917 0.10446092
v -0.03150171 0.01702466 0.10446092
v -0.03139411 0.01691297 0.10637628
v -0.03133082 0.01684189 0.10754554
v -0.03031817 0.01774562 0.10810512
v -0.02775489 0.01896921 0.11411291
v -0.02915995 0.01852750 0.11020701
v -0.02895109 0.01832949 0.11212237
v 0.02109920 0.01777100 0.11411291
v 0.02042199 0.01676573 0.11293807
v 0.01873213 0.01440486 0.11020701
v 0.00551070 -0.00126828 0.08567475
v 0.00616893 0.00013301 0.08567475
v -0.03296372 0.01690789 0.08567475
v -0.03166626 0.01718206 0.10063297
v -0.03159664 0.01711098 0.10254833
v -0.03015994 0.01756792 0.11020701
v -0.03255233 0.01612601 0.10254833
v -0.03346372 0.01516643 0.10254833
v -0.03246372 0.01600924 0.10446092
v -0.03335612 0.01505473 0.10446092
v -0.03326752 0.01495319 0.10581392
v -0.03318524 0.01485165 0.10709176
v -0.03123588 0.01674034 0.10882338
v -0.02875489 0.01806548 0.11411291
v -0.02995741 0.01737499 0.11212237
v -0.02973589 0.01714652 0.11411291
v 0.02053592 0.01655757 0.11411291
v 0.02052959 0.01657280 0.11403774
v 0.01823846 0.01344528 0.11020701
v 0.00508665 -0.00204001 0.08567475
v 0.00687145 -0.00211109 0.09488966
v -0.03314093 0.01674034 0.08567475
v -0.03332448 0.01656264 0.08567475
v -0.03410295 0.01578584 0.08567475
v -0.03262195 0.01620724 0.10063297
v -0.03355232 0.01525274 0.10063297
v -0.03111563 0.01661342 0.11020701
v -0.03450801 0.01403930 0.10063297
v -0.03453333 0.01376514 0.10246482
v -0.03418523 0.01393776 0.10446092
v -0.03380549 0.01410531 0.10642361
v -0.03378017 0.01377529 0.10829164
v -0.03309030 0.01472980 0.10829164
v -0.03197005 0.01565384 0.11020701
v -0.03091943 0.01640018 0.11212237
v -0.03069158 0.01617678 0.11411291
v 0.02001060 0.01560306 0.11411291
v 0.01837770 0.01316604 0.11212237
v 0.00490944 -0.00235479 0.08567475
v 0.01849796 0.01295787 0.11411291
v 0.00695373 -0.00227355 0.09680502
v 0.00610564 -0.00329406 0.09488966
v 0.00505501 -0.00421302 0.09215303
v 0.00437780 -0.00326867 0.08567475
v -0.03505864 0.01480595 0.08567475
v -0.03583079 0.01385145 0.08567475
v -0.03660926 0.01288172 0.08567475
v -0.03178018 0.01544567 0.11212237
v -0.03159031 0.01522736 0.11403774
v -0.03515358 0.01300864 0.10177161
v -0.03678648 0.01265324 0.08567475
v -0.03692572 0.01247047 0.08567475
v -0.03750799 0.01169366 0.08567475
v -0.03508396 0.01290202 0.10304945
v -0.03500168 0.01276494 0.10446092
v -0.03411561 0.01202876 0.11411291
v -0.03363460 0.01356205 0.11020701
v -0.03497004 0.01077470 0.11411291
v -0.03292575 0.01451656 0.11020701
v -0.03332448 0.01312034 0.11411291
v -0.03158398 0.01521720 0.11411291
v 0.01899163 0.01379052 0.11411291
v 0.01805492 0.01229784 0.11411291
v 0.01794733 0.01214553 0.11411291
v 0.01689037 0.01065793 0.11411291
v 0.00622589 -0.00329406 0.09680502
v 0.00526387 -0.00446180 0.09488966
v 0.00516260 -0.00434503 0.09342808
v 0.00325122 -0.00625911 0.09152663
v 0.00313730 -0.00613218 0.09024880
v 0.00273224 -0.00564985 0.08567475
v 0.00347907 -0.00469027 0.08567475
v -0.03255233 0.01407484 0.11411291
v -0.03587509 0.01202368 0.10063297
v -0.03559661 0.01216584 0.10246482
v -0.03743837 0.01159720 0.08722820
v -0.03734977 0.01148042 0.08914356
v -0.03725483 0.01134842 0.09105893
v -0.03715357 0.01121134 0.09297429
v -0.03708395 0.01111487 0.09424656
v -0.03855862 0.00999790 0.08567475
v -0.03557130 0.01180536 0.10446092
v -0.03549535 0.00981512 0.11411291
v -0.03259031 0.01402915 0.11411291
v 0.01609291 0.00969835 0.11411291
v 0.00530184 -0.00449227 0.09680502
v 0.00435248 -0.00541631 0.09488966
v 0.00332717 -0.00634542 0.09297429
v 0.00130820 -0.00812750 0.09161851
v 0.00121326 -0.00805134 0.09034345
v 0.00085251 -0.00768071 0.08567475
v 0.00102972 -0.00750301 0.08567475
v 0.00177022 -0.00672621 0.08567475
v -0.03686243 0.01069854 0.09872039
v -0.03816622 0.01010452 0.08914356
v -0.03798267 0.01010452 0.09105893
v -0.03866621 0.00979989 0.08567475
v -0.03896368 0.00915002 0.08626773
v -0.03676749 0.01044976 0.10063297
v -0.03635610 0.00819044 0.11411291
v 0.01513722 0.00863215 0.11411291
v 0.00522589 -0.00440088 0.09872039
v 0.00434615 -0.00545185 0.09680502
v 0.00339679 -0.00640127 0.09488966
v 0.00231452 -0.00729992 0.09297429
v 0.00135883 -0.00816811 0.09297429
v -0.00312848 -0.01113317 0.08567475
v -0.00214747 -0.01035637 0.08567475
v -0.00118545 -0.00954910 0.08567475
v -0.00097660 -0.00937140 0.08567475
v -0.00010318 -0.00858952 0.08567475
v -0.03873583 0.00866261 0.09105893
v -0.03931811 0.00855599 0.08567475
v -0.03695103 0.00690592 0.11411291
v 0.01330179 0.00662160 0.11411291
v 0.00514362 -0.00431457 0.09994255
v 0.00321325 -0.00429933 0.11411291
v 0.00423223 -0.00536046 0.09872039
v 0.00338414 -0.00638096 0.09680502
v 0.00687778 -0.00039501 0.11411291
v 0.00233984 -0.00736085 0.09488966
v 0.00138415 -0.00818842 0.09488966
v 0.00028922 -0.00896015 0.09297429
v -0.00432467 -0.01203182 0.08567475
v -0.03938140 0.00809397 0.08722820
v -0.03927381 0.00790612 0.08914356
v -0.03917254 0.00770303 0.09105893
v -0.03941304 0.00835290 0.08567475
v -0.03696369 0.00687038 0.11411291
v 0.00596007 -0.00138505 0.11411291
v 0.00507400 -0.00233448 0.11411291
v 0.00413096 -0.00333468 0.11411291
v 0.00220693 -0.00517260 0.11411291
v 0.00327021 -0.00626926 0.09872039
v 0.00228921 -0.00733547 0.09680502
v 0.00133352 -0.00814273 0.09680502
v 0.00028922 -0.00890430 0.09680502
v 0.00028922 -0.00898046 0.09488966
v -0.00090698 -0.00982834 0.09297429
v -0.00186267 -0.01048329 0.09297429
v -0.00430569 -0.01204197 0.08722820
v -0.00523606 -0.01263092 0.08567475
v -0.04012190 0.00662160 0.08567475
v -0.04024848 0.00628143 0.08567475
v -0.04008392 0.00628143 0.08722820
v -0.03905228 0.00745425 0.09297429
v -0.03722318 0.00594634 0.11411291
v 0.00019428 -0.00691406 0.11411291
v 0.00202338 -0.00735577 0.09859511
v 0.00126390 -0.00809704 0.09787128
v -0.00103356 -0.00973187 0.09872039
v -0.00095128 -0.00979788 0.09680502
v -0.00090065 -0.00983342 0.09488966
v -0.00186267 -0.01048329 0.09488966
v -0.00330569 -0.01144287 0.09297429
v -0.00676137 -0.01360066 0.08567475
v -0.00427404 -0.01205213 0.09105893
v -0.04060291 0.00502738 0.08567475
v -0.04071050 0.00464151 0.08567475
v -0.03764723 0.00436735 0.11411291
v -0.00089432 -0.00783302 0.11411291
v -0.00093862 -0.00786856 0.11411291
v -0.00116014 -0.00962018 0.10063297
v -0.00212216 -0.01033098 0.10063297
v -0.00367911 -0.01141241 0.10079444
v -0.00199558 -0.01040713 0.09872039
v -0.00338797 -0.01136672 0.09872039
v -0.00190697 -0.01045283 0.09680502
v -0.00334367 -0.01141241 0.09680502
v -0.00331202 -0.01143780 0.09488966
v -0.00426771 -0.01204705 0.09488966
v -0.00426771 -0.01205213 0.09297429
v -0.00772339 -0.01419976 0.08567475
v -0.04064722 0.00424042 0.08719758
v -0.04040038 0.00436735 0.08914356
v -0.04095101 0.00370224 0.08567475
v -0.04090037 0.00351439 0.08653778
v -0.03793204 0.00245327 0.11411291
v -0.00190064 -0.00856921 0.11411291
v -0.00450189 -0.01190489 0.10154332
v -0.00441328 -0.01196074 0.10026549
v -0.00434999 -0.01200643 0.09872039
v -0.00429936 -0.01203182 0.09680502
v -0.00898920 -0.01490041 0.08567475
v -0.04105860 0.00276297 0.08567475
v -0.04108392 0.00245327 0.08567475
v -0.04115987 0.00098597 0.08567475
v -0.03801432 0.00053411 0.11411291
v -0.00321076 -0.00948817 0.11411291
v -0.00421708 -0.01017866 0.11403774
v -0.00422341 -0.01017359 0.11411291
v -0.00460948 -0.01184904 0.10254833
v -0.00556517 -0.01234660 0.10254833
v -0.00726136 -0.01340265 0.10063297
v -0.00526771 -0.01236691 0.10079444
v -0.00711579 -0.01346357 0.09872039
v -0.00545125 -0.01260046 0.09872039
v -0.00545125 -0.01266139 0.09680502
v -0.00703984 -0.01349911 0.09680502
v -0.00793224 -0.01403222 0.09488966
v -0.00928034 -0.01505272 0.08567475
v -0.04117886 0.00053411 0.08567475
v -0.03793837 -0.00137998 0.11411291
v -0.00545125 -0.01087931 0.11411291
v -0.00685630 -0.01162565 0.11411291
v -0.00695757 -0.01167642 0.11411291
v -0.00755883 -0.01336711 0.10236738
v -0.00821705 -0.01387990 0.10063297
v -0.00807781 -0.01395098 0.09872039
v -0.00799554 -0.01399160 0.09680502
v -0.01023603 -0.01552490 0.08567475
v -0.04105860 -0.00133428 0.08567475
v -0.04095734 -0.00085703 0.08689969
v -0.03762192 -0.00329406 0.11411291
v -0.00787528 -0.01212321 0.11411291
v -0.00832465 -0.01382913 0.10161014
v -0.00928034 -0.01428607 0.10063297
v -0.00928034 -0.01443839 0.09872039
v -0.01152716 -0.01599199 0.08722820
v -0.01057147 -0.01560105 0.08722820
v -0.01047653 -0.01563659 0.08567475
v -0.04087506 -0.00232433 0.08567475
v -0.03718521 -0.00497967 0.11411291
v -0.04071683 -0.00308082 0.08567475
v -0.04065354 -0.00333975 0.08567475
v -0.00928034 -0.01272231 0.11411291
v -0.00850819 -0.01375805 0.10288519
v -0.00919806 -0.01406776 0.10236738
v -0.01119172 -0.01497656 0.10063297
v -0.01119172 -0.01515427 0.09872039
v -0.01119172 -0.01528119 0.09680502
v -0.01219804 -0.01572798 0.09557451
v -0.01310942 -0.01657586 0.08722820
v -0.01281196 -0.01656063 0.08567475
v -0.01143222 -0.01603768 0.08567475
v -0.01065374 -0.01571275 0.08567475
v -0.03712192 -0.00513706 0.11411291
v -0.04015988 -0.00484766 0.08567475
v -0.04003329 -0.00520814 0.08567475
v -0.01134994 -0.01352450 0.11411291
v -0.01145754 -0.01356004 0.11411291
v -0.01286259 -0.01400683 0.11411291
v -0.01266006 -0.01562136 0.09872039
v -0.01233728 -0.01568736 0.09680502
v -0.01502080 -0.01720543 0.08722820
v -0.01310942 -0.01666725 0.08567475
v -0.01516004 -0.01734759 0.08567475
v -0.03635610 -0.00697499 0.11411291
v -0.03924849 -0.00701560 0.08567475
v -0.01296386 -0.01403222 0.11411291
v -0.01361575 -0.01585491 0.09872039
v -0.01502080 -0.01639816 0.09680502
v -0.01502080 -0.01658602 0.09488966
v -0.01329930 -0.01595645 0.09680502
v -0.01633725 -0.01758114 0.08722820
v -0.01610940 -0.01763191 0.08576662
v -0.01595751 -0.01759129 0.08567475
v -0.03893203 -0.00769594 0.08567475
v -0.03885609 -0.00785841 0.08567475
v -0.03556497 -0.00849305 0.11411291
v -0.01502080 -0.01449931 0.11411291
v -0.01693851 -0.01699727 0.09488966
v -0.01693851 -0.01719527 0.09297429
v -0.01711573 -0.01743390 0.09090303
v -0.01670434 -0.01749990 0.08914356
v -0.01766003 -0.01770807 0.08914356
v -0.01729927 -0.01778422 0.08722820
v -0.01693218 -0.01780453 0.08567475
v -0.01622333 -0.01765729 0.08567475
v -0.03874849 -0.00804119 0.08567475
v -0.03551434 -0.00858952 0.11411291
v -0.01686256 -0.01477856 0.11411291
v -0.01829293 -0.01760145 0.09143476
v -0.01786889 -0.01766237 0.09015971
v -0.01885622 -0.01789592 0.08914356
v -0.01885622 -0.01803808 0.08722820
v -0.01885622 -0.01813455 0.08567475
v -0.01855875 -0.01808378 0.08567475
v -0.03821052 -0.00894999 0.08567475
v -0.03473586 -0.00954910 0.11411291
v -0.03730546 -0.01034113 0.08567475
v -0.01693851 -0.01478871 0.11411291
v -0.01957141 -0.01769284 0.09226995
v -0.01890053 -0.01773853 0.09090303
v -0.02076760 -0.01803808 0.08914356
v -0.02076760 -0.01819040 0.08722820
v -0.02076760 -0.01829701 0.08567475
v -0.02040684 -0.01826655 0.08567475
v -0.03555864 -0.01231106 0.08567475
v -0.03384979 -0.01042744 0.11411291
v -0.03653332 -0.01127025 0.08567475
v -0.01885622 -0.01496641 0.11411291
v -0.02076760 -0.01502733 0.11411291
v -0.02076760 -0.01770807 0.09236182
v -0.02076760 -0.01786038 0.09105893
v -0.02268531 -0.01815486 0.08722820
v -0.02268531 -0.01828178 0.08567475
v -0.02232455 -0.01828686 0.08567475
v -0.03444472 -0.01329095 0.08567475
v -0.03378017 -0.01049345 0.11411291
v -0.02260936 -0.01496133 0.11411291
v -0.02197645 -0.01769284 0.09222541
v -0.02268531 -0.01796700 0.08914356
v -0.02424226 -0.01809901 0.08567475
v -0.03352068 -0.01405760 0.08567475
v -0.03263461 -0.01144287 0.11411291
v -0.02268531 -0.01495625 0.11411291
v -0.02264100 -0.01776392 0.09101717
v -0.02378657 -0.01769284 0.09035180
v -0.02412834 -0.01776899 0.08914356
v -0.02461568 -0.01804823 0.08567475
v -0.03215360 -0.01496641 0.08567475
v -0.03166626 -0.01214860 0.11411291
v -0.02459669 -0.01473286 0.11411291
v -0.02664731 -0.01428607 0.11411291
v -0.02541947 -0.01762683 0.08794089
v -0.02471061 -0.01786038 0.08727274
v -0.02572326 -0.01770807 0.08666306
v -0.02593212 -0.01776392 0.08567475
v -0.03176120 -0.01522534 0.08567475
v -0.03110930 -0.01563659 0.08567475
v -0.03034348 -0.01286447 0.11411291
v -0.02721692 -0.01413376 0.11411291
v -0.02686249 -0.01748467 0.08567475
v -0.03028652 -0.01604276 0.08567475
v -0.02869160 -0.01364635 0.11411291
v -0.02832451 -0.01377836 0.11411291
v -0.02842578 -0.01688557 0.08567475
v -0.02991311 -0.01621539 0.08567475
f 1 2 6
f 1 6 12
f 1 12 24
f 1 24 38
f 1 38 57
f 1 57 56
f 1 56 55
f 1 55 78
f 1 78 107
f 1 107 106
f 1 106 120
f 1 120 88
f 1 88 119
f 1 119 140
f 1 140 139
f 1 139 152
f 1 152 151
f 1 151 150
f 1 150 171
f 1 171 170
f 1 170 186
f 1 186 188
f 1 188 187
f 1 187 197
f 1 197 212
f 1 212 233
f 1 233 231
f 1 231 230
f 1 230 232
f 1 232 250
f 1 250 269
f 1 269 271
f 1 271 291
f 1 291 316
f 1 316 328
f 1 328 339
f 1 339 315
f 1 315 311
f 1 311 313
f 1 313 338
f 1 338 355
f 1 355 369
f 1 369 384
f 1 384 402
f 1 402 415
f 1 415 433
f 1 433 443
f 1 443 458
f 1 458 469
f 1 469 478
f 1 478 492
f 1 492 503
f 1 503 515
f 1 515 526
f 1 526 535
f 1 535 545
f 1 545 555
f 1 555 561
f 1 561 568
f 1 568 577
f 1 577 581
f 1 581 582
f 1 582 578
f 1 578 570
f 1 570 569
f 1 569 562
f 1 562 556
f 1 556 548
f 1 548 547
f 1 547 537
f 1 537 527
f 1 527 516
f 1 516 505
f 1 505 497
f 1 497 496
f 1 496 495
f 1 495 481
f 1 481 470
f 1 470 461
f 1 461 460
f 1 460 459
f 1 459 446
f 1 446 444
f 1 444 434
f 1 434 417
f 1 417 416
f 1 416 403
f 1 403 388
f 1 388 372
f 1 372 387
f 1 387 386
f 1 386 385
f 1 385 375
f 1 375 370
f 1 370 356
f 1 356 340
f 1 340 320
f 1 320 319
f 1 319 318
f 1 318 295
f 1 295 317
f 1 317 292
f 1 292 272
f 1 272 253
f 1 253 234
f 1 234 213
f 1 213 198
f 1 198 180
f 1 180 159
f 1 159 141
f 1 141 123
f 1 123 122
f 1 122 93
f 1 93 69
f 1 69 48
f 1 48 30
f 1 30 17
f 1 17 8
f 1 8 3
f 1 3 4
f 1 4 5
f 1 5 2
f 2 5 7
f 2 7 6
f 3 8 9
f 3 9 10
f 3 10 11
f 3 11 4
f 4 11 22
f 4 22 21
f 4 21 35
f 4 35 53
f 4 53 74
f 4 74 73
f 4 73 104
f 4 104 103
f 4 103 102
f 4 102 101
f 4 101 100
f 4 100 99
f 4 99 98
f 4 98 128
f 4 128 146
f 4 146 145
f 4 145 144
f 4 144 167
f 4 167 166
f 4 166 165
f 4 165 164
f 4 164 185
f 4 185 184
f 4 184 203
f 4 203 218
f 4 218 216
f 4 216 240
f 4 240 239
f 4 239 238
f 4 238 257
f 4 257 256
f 4 256 275
f 4 275 294
f 4 294 299
f 4 299 327
f 4 327 326
f 4 326 348
f 4 348 347
f 4 347 346
f 4 346 366
f 4 366 365
f 4 365 364
f 4 364 363
f 4 363 362
f 4 362 379
f 4 379 397
f 4 397 411
f 4 411 428
f 4 428 439
f 4 439 456
f 4 456 466
f 4 466 476
f 4 476 491
f 4 491 490
f 4 490 489
f 4 489 501
f 4 501 502
f 4 502 512
f 4 512 524
f 4 524 523
f 4 523 533
f 4 533 532
f 4 532 543
f 4 543 542
f 4 542 553
f 4 553 552
f 4 552 559
f 4 559 566
f 4 566 574
f 4 574 579
f 4 579 583
f 4 583 584
f 4 584 580
f 4 580 576
f 4 576 575
f 4 575 567
f 4 567 560
f 4 560 554
f 4 554 544
f 4 544 546
f 4 546 536
f 4 536 534
f 4 534 525
f 4 525 514
f 4 514 513
f 4 513 504
f 4 504 494
f 4 494 493
f 4 493 480
f 4 480 479
f 4 479 477
f 4 477 467
f 4 467 457
f 4 457 442
f 4 442 441
f 4 441 440
f 4 440 431
f 4 431 414
f 4 414 413
f 4 413 399
f 4 399 398
f 4 398 383
f 4 383 368
f 4 368 352
f 4 352 336
f 4 336 308
f 4 308 307
f 4 307 306
f 4 306 302
f 4 302 301
f 4 301 300
f 4 300 279
f 4 279 278
f 4 278 277
f 4 277 258
f 4 258 243
f 4 243 223
f 4 223 219
f 4 219 204
f 4 204 189
f 4 189 173
f 4 173 154
f 4 154 135
f 4 135 115
f 4 115 111
f 4 111 82
f 4 82 61
f 4 61 41
f 4 41 25
f 4 25 14
f 4 14 7
f 4 7 5
f 6 7 13
f 6 13 12
f 7 14 15
f 7 15 16
f 7 16 13
f 8 17 18
f 8 18 9
f 9 18 10
f 10 18 19
f 10 19 20
f 10 20 21
f 10 21 22
f 10 22 11
f 12 13 16
f 12 16 23
f 12 23 24
f 14 25 26
f 14 26 27
f 14 27 28
f 14 28 29
f 14 29 23
f 14 23 15
f 15 23 16
f 17 30 31
f 17 31 18
f 18 31 32
f 18 32 33
f 18 33 34
f 18 34 19
f 19 34 20
f 20 34 21
f 21 34 35
f 23 29 36
f 23 36 37
f 23 37 38
f 23 38 24
f 25 39 40
f 25 40 26
f 25 41 39
f 26 40 42
f 26 42 43
f 26 43 27
f 27 44 45
f 27 45 28
f 27 43 44
f 28 45 46
f 28 46 47
f 28 47 29
f 29 47 36
f 30 48 31
f 31 49 33
f 31 33 32
f 31 48 50
f 31 50 51
f 31 51 49
f 33 49 52
f 33 52 34
f 34 52 53
f 34 53 35
f 36 47 54
f 36 54 37
f 37 54 55
f 37 55 56
f 37 56 57
f 37 57 38
f 39 58 59
f 39 59 40
f 39 41 60
f 39 60 58
f 40 59 42
f 41 61 62
f 41 62 60
f 42 59 63
f 42 63 64
f 42 64 44
f 42 44 43
f 44 64 65
f 44 65 66
f 44 66 45
f 45 67 68
f 45 68 54
f 45 54 46
f 45 66 67
f 46 54 47
f 48 69 50
f 49 51 70
f 49 70 71
f 49 71 72
f 49 72 73
f 49 73 74
f 49 74 52
f 50 69 75
f 50 75 51
f 51 75 70
f 52 74 53
f 54 76 77
f 54 77 55
f 54 68 76
f 55 77 78
f 58 60 79
f 58 79 80
f 58 80 81
f 58 81 59
f 59 81 63
f 60 62 79
f 61 82 83
f 61 83 62
f 62 83 84
f 62 84 79
f 63 85 86
f 63 86 65
f 63 65 64
f 63 81 85
f 65 86 87
f 65 87 88
f 65 88 89
f 65 89 66
f 66 89 90
f 66 90 91
f 66 91 76
f 66 76 67
f 67 76 68
f 69 92 75
f 69 93 94
f 69 94 92
f 70 75 95
f 70 95 71
f 71 96 72
f 71 95 97
f 71 97 98
f 71 98 99
f 71 99 100
f 71 100 101
f 71 101 102
f 71 102 103
f 71 103 104
f 71 104 73
f 71 73 96
f 72 96 73
f 75 92 105
f 75 105 95
f 76 106 107
f 76 107 78
f 76 78 77
f 76 91 106
f 79 84 117
f 79 117 108
f 79 108 80
f 80 108 109
f 80 109 110
f 80 110 81
f 81 110 85
f 82 111 83
f 83 112 113
f 83 113 114
f 83 114 84
f 83 111 115
f 83 115 112
f 84 114 116
f 84 116 117
f 85 118 119
f 85 119 86
f 85 110 118
f 86 119 87
f 87 119 88
f 88 120 89
f 89 120 121
f 89 121 90
f 90 121 106
f 90 106 91
f 92 94 105
f 93 122 94
f 94 122 123
f 94 123 124
f 94 124 105
f 95 105 125
f 95 125 126
f 95 126 97
f 97 126 127
f 97 127 128
f 97 128 98
f 105 124 129
f 105 129 126
f 105 126 125
f 106 121 120
f 108 117 130
f 108 130 131
f 108 131 109
f 109 131 132
f 109 132 110
f 110 132 133
f 110 133 118
f 112 115 113
f 113 134 116
f 113 116 114
f 113 115 135
f 113 135 136
f 113 136 153
f 113 153 134
f 116 134 137
f 116 137 138
f 116 138 117
f 117 138 130
f 118 139 140
f 118 140 119
f 118 133 139
f 123 141 124
f 124 141 142
f 124 142 129
f 126 129 143
f 126 143 127
f 127 143 144
f 127 144 145
f 127 145 146
f 127 146 128
f 129 142 147
f 129 147 143
f 130 138 148
f 130 148 149
f 130 149 132
f 130 132 131
f 132 149 150
f 132 150 151
f 132 151 152
f 132 152 139
f 132 139 133
f 134 153 137
f 135 154 136
f 136 154 155
f 136 155 156
f 136 156 153
f 137 157 138
f 137 153 158
f 137 158 157
f 138 157 148
f 141 159 160
f 141 160 161
f 141 161 142
f 142 161 162
f 142 162 147
f 143 147 162
f 143 162 163
f 143 163 164
f 143 164 165
f 143 165 166
f 143 166 167
f 143 167 144
f 148 157 168
f 148 168 169
f 148 169 170
f 148 170 171
f 148 171 172
f 148 172 149
f 149 172 150
f 150 172 171
f 153 156 158
f 154 173 174
f 154 174 155
f 155 174 156
f 156 174 175
f 156 175 176
f 156 176 177
f 156 177 158
f 157 158 178
f 157 178 168
f 158 177 179
f 158 179 178
f 159 180 181
f 159 181 182
f 159 182 161
f 159 161 160
f 161 182 181
f 161 181 183
f 161 183 184
f 161 184 185
f 161 185 162
f 162 185 163
f 163 185 164
f 168 186 170
f 168 170 169
f 168 178 187
f 168 187 188
f 168 188 186
f 173 189 190
f 173 190 191
f 173 191 174
f 174 191 175
f 175 191 192
f 175 192 176
f 176 192 193
f 176 193 179
f 176 179 177
f 178 179 187
f 179 193 194
f 179 194 195
f 179 195 196
f 179 196 197
f 179 197 187
f 180 198 199
f 180 199 200
f 180 200 201
f 180 201 181
f 181 201 200
f 181 200 202
f 181 202 203
f 181 203 184
f 181 184 183
f 189 204 190
f 190 205 206
f 190 206 192
f 190 192 191
f 190 204 205
f 192 206 193
f 193 206 194
f 194 206 207
f 194 207 208
f 194 208 209
f 194 209 195
f 195 210 211
f 195 211 196
f 195 209 210
f 196 211 212
f 196 212 197
f 198 213 199
f 199 214 215
f 199 215 216
f 199 216 217
f 199 217 200
f 199 213 214
f 200 217 202
f 202 217 218
f 202 218 203
f 204 219 205
f 205 220 221
f 205 221 222
f 205 222 207
f 205 207 206
f 205 219 223
f 205 223 220
f 207 222 224
f 207 224 225
f 207 225 208
f 208 226 209
f 208 225 227
f 208 227 228
f 208 228 226
f 209 226 229
f 209 229 210
f 210 230 231
f 210 231 211
f 210 229 232
f 210 232 230
f 211 231 233
f 211 233 212
f 213 234 235
f 213 235 214
f 214 235 236
f 214 236 237
f 214 237 215
f 215 237 238
f 215 238 239
f 215 239 240
f 215 240 216
f 216 218 217
f 220 223 241
f 220 241 242
f 220 242 221
f 221 224 222
f 221 242 224
f 223 243 241
f 224 244 227
f 224 227 225
f 224 242 245
f 224 245 246
f 224 246 247
f 224 247 248
f 224 248 249
f 224 249 244
f 226 232 229
f 226 228 250
f 226 250 232
f 227 244 251
f 227 251 228
f 228 251 252
f 228 252 250
f 234 253 235
f 235 253 254
f 235 254 236
f 236 254 255
f 236 255 256
f 236 256 257
f 236 257 238
f 236 238 237
f 241 243 258
f 241 258 259
f 241 259 242
f 242 259 260
f 242 260 245
f 244 249 261
f 244 261 251
f 245 260 246
f 246 260 262
f 246 262 263
f 246 263 264
f 246 264 247
f 247 264 248
f 248 264 265
f 248 265 266
f 248 266 267
f 248 267 268
f 248 268 249
f 249 268 261
f 250 252 269
f 251 261 270
f 251 270 252
f 252 270 271
f 252 271 269
f 253 272 273
f 253 273 254
f 254 273 255
f 255 273 272
f 255 272 274
f 255 274 256
f 256 274 276
f 256 276 275
f 258 277 259
f 259 277 278
f 259 278 279
f 259 279 280
f 259 280 260
f 260 280 281
f 260 281 262
f 261 268 282
f 261 282 270
f 262 281 263
f 263 281 283
f 263 283 284
f 263 284 265
f 263 265 264
f 265 284 285
f 265 285 266
f 266 285 267
f 267 285 286
f 267 286 287
f 267 287 288
f 267 288 289
f 267 289 268
f 268 289 282
f 270 282 290
f 270 290 271
f 271 290 291
f 272 292 293
f 272 293 274
f 274 293 276
f 275 276 294
f 276 293 295
f 276 295 296
f 276 296 297
f 276 297 298
f 276 298 299
f 276 299 294
f 279 300 280
f 280 300 281
f 281 300 301
f 281 301 302
f 281 302 283
f 282 289 303
f 282 303 304
f 282 304 290
f 283 305 284
f 283 302 306
f 283 306 307
f 283 307 308
f 283 308 305
f 284 305 285
f 285 305 309
f 285 309 310
f 285 310 286
f 286 310 287
f 287 311 312
f 287 312 288
f 287 310 313
f 287 313 311
f 288 314 289
f 288 312 315
f 288 315 314
f 289 314 303
f 290 304 316
f 290 316 291
f 292 317 293
f 293 317 295
f 295 318 296
f 296 318 319
f 296 319 320
f 296 320 321
f 296 321 297
f 297 321 322
f 297 322 323
f 297 323 298
f 298 323 324
f 298 324 325
f 298 325 326
f 298 326 327
f 298 327 299
f 303 314 328
f 303 328 304
f 304 328 316
f 305 329 330
f 305 330 309
f 305 308 331
f 305 331 332
f 305 332 333
f 305 333 334
f 305 334 335
f 305 335 329
f 308 336 331
f 309 330 310
f 310 330 337
f 310 337 313
f 311 315 312
f 313 337 338
f 314 339 328
f 314 315 339
f 320 340 341
f 320 341 321
f 321 341 322
f 322 341 342
f 322 342 343
f 322 343 324
f 322 324 323
f 324 343 344
f 324 344 345
f 324 345 346
f 324 346 347
f 324 347 348
f 324 348 325
f 325 348 326
f 329 335 349
f 329 349 330
f 330 349 337
f 331 336 332
f 332 336 333
f 333 336 334
f 334 336 350
f 334 350 351
f 334 351 335
f 335 351 349
f 336 352 353
f 336 353 351
f 336 351 350
f 337 349 338
f 338 349 354
f 338 354 355
f 340 356 357
f 340 357 341
f 341 357 358
f 341 358 359
f 341 359 342
f 342 359 343
f 343 359 360
f 343 360 344
f 344 360 361
f 344 361 362
f 344 362 363
f 344 363 364
f 344 364 365
f 344 365 345
f 345 365 366
f 345 366 346
f 349 351 367
f 349 367 355
f 349 355 354
f 351 353 367
f 352 368 353
f 353 368 367
f 355 367 369
f 356 370 357
f 357 371 372
f 357 372 373
f 357 373 374
f 357 374 358
f 357 370 375
f 357 375 371
f 358 374 359
f 359 374 376
f 359 376 361
f 359 361 360
f 361 377 378
f 361 378 379
f 361 379 362
f 361 376 377
f 367 368 380
f 367 380 381
f 367 381 382
f 367 382 369
f 368 383 380
f 369 382 384
f 371 375 385
f 371 385 386
f 371 386 387
f 371 387 372
f 372 388 389
f 372 389 373
f 373 389 374
f 374 389 390
f 374 390 376
f 376 390 377
f 377 390 391
f 377 391 392
f 377 392 393
f 377 393 394
f 377 394 378
f 378 394 379
f 379 394 395
f 379 395 396
f 379 396 397
f 380 382 381
f 380 383 398
f 380 398 382
f 382 398 399
f 382 399 400
f 382 400 401
f 382 401 384
f 384 401 400
f 384 400 402
f 388 403 389
f 389 403 404
f 389 404 405
f 389 405 390
f 390 405 391
f 391 405 406
f 391 406 392
f 392 406 407
f 392 407 393
f 393 407 408
f 393 408 394
f 394 408 395
f 395 408 409
f 395 409 410
f 395 410 396
f 396 410 397
f 397 410 412
f 397 412 411
f 399 413 400
f 400 413 414
f 400 414 402
f 402 414 415
f 403 405 404
f 403 416 405
f 405 416 417
f 405 417 418
f 405 418 406
f 406 418 419
f 406 419 420
f 406 420 421
f 406 421 407
f 407 421 422
f 407 422 423
f 407 423 408
f 408 423 409
f 409 423 424
f 409 424 425
f 409 425 410
f 410 425 426
f 410 426 427
f 410 427 412
f 411 412 427
f 411 427 428
f 414 429 430
f 414 430 415
f 414 431 429
f 415 430 429
f 415 429 431
f 415 431 432
f 415 432 433
f 417 434 419
f 417 419 418
f 419 434 435
f 419 435 420
f 420 435 436
f 420 436 421
f 421 436 422
f 422 436 437
f 422 437 424
f 422 424 423
f 424 437 438
f 424 438 425
f 425 438 426
f 426 438 428
f 426 428 427
f 428 438 439
f 431 440 432
f 432 440 433
f 433 440 441
f 433 441 442
f 433 442 443
f 434 444 435
f 435 445 446
f 435 446 447
f 435 447 448
f 435 448 449
f 435 449 450
f 435 450 436
f 435 444 445
f 436 450 451
f 436 451 452
f 436 452 437
f 437 452 453
f 437 453 438
f 438 453 439
f 439 453 452
f 439 452 454
f 439 454 455
f 439 455 456
f 442 457 443
f 443 457 458
f 444 446 445
f 446 459 447
f 447 459 460
f 447 460 448
f 448 460 461
f 448 461 462
f 448 462 449
f 449 451 450
f 449 462 463
f 449 463 464
f 449 464 451
f 451 454 452
f 451 464 465
f 451 465 454
f 454 465 455
f 455 465 456
f 456 465 466
f 457 467 468
f 457 468 458
f 458 468 467
f 458 467 469
f 461 470 462
f 462 470 471
f 462 471 463
f 463 471 472
f 463 472 473
f 463 473 464
f 464 473 474
f 464 474 475
f 464 475 476
f 464 476 466
f 464 466 465
f 467 477 469
f 469 477 479
f 469 479 480
f 469 480 478
f 470 481 482
f 470 482 471
f 471 482 483
f 471 483 472
f 472 483 484
f 472 484 485
f 472 485 473
f 473 485 486
f 473 486 474
f 474 486 487
f 474 487 488
f 474 488 489
f 474 489 490
f 474 490 475
f 475 490 491
f 475 491 476
f 478 480 493
f 478 493 494
f 478 494 492
f 481 495 482
f 482 495 483
f 483 495 484
f 484 495 496
f 484 496 497
f 484 497 498
f 484 498 485
f 485 498 499
f 485 499 487
f 485 487 486
f 487 499 500
f 487 500 488
f 488 501 489
f 488 500 502
f 488 502 501
f 492 494 503
f 494 504 503
f 497 505 498
f 498 505 506
f 498 506 507
f 498 507 508
f 498 508 509
f 498 509 499
f 499 509 510
f 499 510 511
f 499 511 500
f 500 511 502
f 502 511 512
f 503 504 513
f 503 513 514
f 503 514 515
f 505 516 507
f 505 507 506
f 507 516 517
f 507 517 518
f 507 518 508
f 508 518 519
f 508 519 520
f 508 520 510
f 508 510 509
f 510 520 521
f 510 521 522
f 510 522 511
f 511 522 523
f 511 523 524
f 511 524 512
f 514 525 526
f 514 526 515
f 516 527 528
f 516 528 517
f 517 528 529
f 517 529 518
f 518 529 519
f 519 529 521
f 519 521 520
f 521 529 530
f 521 530 531
f 521 531 522
f 522 531 532
f 522 532 533
f 522 533 523
f 525 534 526
f 526 534 536
f 526 536 535
f 527 537 538
f 527 538 528
f 528 538 539
f 528 539 529
f 529 539 530
f 530 539 538
f 530 538 540
f 530 540 541
f 530 541 531
f 531 541 542
f 531 542 543
f 531 543 532
f 535 544 545
f 535 536 546
f 535 546 544
f 537 547 538
f 538 547 548
f 538 548 549
f 538 549 550
f 538 550 540
f 540 550 551
f 540 551 552
f 540 552 541
f 541 552 553
f 541 553 542
f 544 554 555
f 544 555 545
f 548 556 557
f 548 557 549
f 549 557 550
f 550 557 558
f 550 558 551
f 551 558 559
f 551 559 552
f 554 560 555
f 555 560 561
f 556 562 557
f 557 562 563
f 557 563 558
f 558 564 565
f 558 565 566
f 558 566 559
f 558 563 564
f 560 567 568
f 560 568 561
f 562 569 563
f 563 569 564
f 564 569 565
f 565 569 570
f 565 570 571
f 565 571 572
f 565 572 566
f 566 572 573
f 566 573 574
f 567 575 568
f 568 575 576
f 568 576 577
f 570 578 573
f 570 573 571
f 571 573 572
f 573 578 574
f 574 578 579
f 576 580 577
f 577 580 581
f 578 582 579
f 579 582 581
f 579 581 583
f 580 584 581
f 581 584 583

