# https://github.com/mikedh/trimesh
v -0.04098545 -0.00138018 0.03929325
v -0.04094048 0.00010022 0.03929325
v -0.04092049 -0.00263763 0.03929325
v -0.04282933 -0.00138018 0.05718011
v -0.04283433 -0.00016287 0.05713471
v -0.04082555 0.00104999 0.03929325
v -0.04078057 -0.00356512 0.03929325
v -0.04264944 -0.00314597 0.05673521
v -0.04279935 -0.00241022 0.05747520
v -0.04291928 -0.00138018 0.05850574
v -0.04299923 -0.00138018 0.06041700
v -0.04287931 0.00009130 0.05850574
v -0.04271940 0.00104999 0.05850574
v -0.04232464 0.00245013 0.05658994
v -0.04266943 0.00049707 0.05653092
v -0.04054072 0.00240554 0.03929325
v -0.04213476 0.00245013 0.05467413
v -0.04077558 -0.00359633 0.03929325
v -0.04273938 -0.00371227 0.05850574
v -0.04283433 -0.00275357 0.05850574
v -0.04303421 -0.00138018 0.06233280
v -0.04291428 0.00032317 0.06041700
v -0.04286431 -0.00339121 0.06045332
v -0.04291428 -0.00329311 0.06233280
v -0.04275438 0.00127741 0.06041700
v -0.04244457 0.00245013 0.05850574
v -0.04178997 0.00436306 0.05658994
v -0.04053073 0.00244567 0.03929325
v -0.04076559 -0.00364538 0.03929325
v -0.04203981 -0.00521050 0.05467413
v -0.04223469 -0.00521050 0.05658994
v -0.04277437 -0.00409128 0.05984044
v -0.04301922 -0.00138018 0.06424406
v -0.04292428 0.00043019 0.06424406
v -0.04292927 0.00045248 0.06233280
v -0.04290929 -0.00329311 0.06424406
v -0.04277936 0.00141118 0.06233280
v -0.04280435 -0.00428748 0.06111613
v -0.04281435 -0.00432315 0.06233280
v -0.04251453 0.00245013 0.06041700
v -0.04190989 0.00436306 0.05850574
v -0.04122530 0.00599953 0.05850574
v -0.04116034 0.00586576 0.05658994
v -0.04105041 0.00565173 0.05467413
v -0.04158509 0.00436306 0.05467413
v -0.03994108 0.00430510 0.03929325
v -0.04039581 -0.00521050 0.03929325
v -0.04139021 -0.00712343 0.05467413
v -0.03975119 -0.00712343 0.03929325
v -0.04238960 -0.00521050 0.05850574
v -0.04158009 -0.00712343 0.05658994
v -0.04174499 -0.00712343 0.05850574
v -0.04285432 -0.00340013 0.06612808
v -0.04296925 -0.00138018 0.06615986
v -0.04289929 0.00029196 0.06615986
v -0.04275938 0.00125065 0.06615986
v -0.04277437 0.00138888 0.06424406
v -0.04280935 -0.00431423 0.06424406
v -0.04279935 -0.00427856 0.06546527
v -0.04257449 0.00245013 0.06424406
v -0.04256449 0.00245013 0.06233280
v -0.04254950 -0.00504106 0.06045332
v -0.04253451 -0.00528185 0.06233280
v -0.04253451 -0.00527293 0.06424406
v -0.04203981 0.00436306 0.06233280
v -0.04197485 0.00436306 0.06041700
v -0.04140020 0.00627599 0.06615986
v -0.04129526 0.00618681 0.06233280
v -0.04093548 0.00733279 0.06615986
v -0.04090050 0.00727482 0.06476160
v -0.04086552 0.00721239 0.06348591
v -0.04072061 0.00695377 0.05850574
v -0.04065065 0.00682445 0.05658994
v -0.03926149 0.00590589 0.03929325
v -0.03992110 0.00436306 0.03929325
v -0.04088051 -0.00809104 0.05367992
v -0.04094048 -0.00818914 0.05467413
v -0.03917155 -0.00849682 0.03929325
v -0.04186991 -0.00712343 0.06041700
v -0.04104541 -0.00836750 0.05658994
v -0.04113536 -0.00852357 0.05850574
v -0.04282433 -0.00277141 0.06807566
v -0.04277936 -0.00410912 0.06674095
v -0.04279935 -0.00242360 0.06914251
v -0.04288929 -0.00138018 0.06807566
v -0.04281934 -0.00022529 0.06944214
v -0.04285432 0.00004225 0.06807566
v -0.04272940 0.00099649 0.06807566
v -0.04250953 0.00245013 0.06807566
v -0.04255450 0.00245013 0.06615986
v -0.04256949 -0.00503660 0.06612808
v -0.04244957 -0.00521050 0.06807566
v -0.04208978 0.00436306 0.06807566
v -0.04209478 0.00436306 0.06615986
v -0.04207479 0.00436306 0.06424406
v -0.04194986 -0.00712343 0.06233280
v -0.04196986 -0.00712343 0.06424406
v -0.04194487 -0.00712343 0.06615986
v -0.04144517 0.00627599 0.06807566
v -0.04097046 0.00739521 0.06807566
v -0.04035583 0.00835391 0.06807566
v -0.04030086 0.00829148 0.06615986
v -0.03988112 0.00819338 0.05850574
v -0.03974620 0.00819338 0.05658994
v -0.03792730 0.00818892 0.03929325
v -0.03875180 0.00686013 0.03929325
v -0.03866685 -0.00945551 0.03929325
v -0.04120532 -0.00864842 0.06041700
v -0.04047076 -0.00932620 0.05658994
v -0.04056071 -0.00947781 0.05850574
v -0.04063566 -0.00960266 0.06041700
v -0.04275438 -0.00373010 0.06807566
v -0.04235462 -0.00521050 0.06999146
v -0.04224469 -0.00521050 0.07190272
v -0.04270441 -0.00315488 0.06986434
v -0.04256949 -0.00329311 0.07190272
v -0.04254451 -0.00138018 0.07381852
v -0.04266943 -0.00138018 0.07190272
v -0.04275938 -0.00138018 0.07037734
v -0.04281435 -0.00138018 0.06941944
v -0.04233963 0.00053720 0.07573432
v -0.04246955 0.00053720 0.07381852
v -0.04258448 0.00053720 0.07190272
v -0.04224469 0.00245013 0.07381852
v -0.04234962 0.00245013 0.07190272
v -0.04243957 0.00245013 0.06999146
v -0.04198485 0.00436306 0.07190272
v -0.04204981 0.00436306 0.06999146
v -0.04187991 -0.00712343 0.06807566
v -0.04142019 0.00627599 0.07190272
v -0.04144517 0.00627599 0.06999146
v -0.04125029 -0.00872423 0.06233280
v -0.04127028 -0.00873761 0.06424406
v -0.04126028 -0.00870193 0.06615986
v -0.04122530 -0.00863951 0.06807566
v -0.04098545 0.00742197 0.06999146
v -0.04038581 0.00838066 0.06999146
v -0.03884674 0.01089110 0.07381852
v -0.03881676 0.01085543 0.07190272
v -0.03942639 0.00984769 0.06999146
v -0.03939641 0.00978080 0.06807566
v -0.03934644 0.00969162 0.06615986
v -0.03901165 0.00921896 0.05658994
v -0.03896667 0.00915653 0.05557302
v -0.03717276 0.00932152 0.03929325
v -0.03720274 0.00927693 0.03929325
v -0.03770244 -0.01095375 0.03929325
v -0.03951134 -0.01085119 0.05658994
v -0.04068064 -0.00968292 0.06233280
v -0.03950135 -0.01113657 0.05840586
v -0.03900165 -0.01196149 0.05898242
v -0.03975119 -0.01095375 0.06041700
v -0.04177997 -0.00712343 0.06999146
v -0.04211477 -0.00521050 0.07381852
v -0.04165504 -0.00712343 0.07190272
v -0.04243957 -0.00329311 0.07381852
v -0.04239959 -0.00138018 0.07573432
v -0.04218472 0.00053720 0.07765012
v -0.04197985 0.00245013 0.07765012
v -0.04212476 0.00245013 0.07573432
v -0.04179995 0.00436306 0.07573432
v -0.04190989 0.00436306 0.07381852
v -0.04137521 0.00627599 0.07381852
v -0.04117034 -0.00855033 0.06999146
v -0.04096546 0.00739967 0.07381852
v -0.04098046 0.00742197 0.07190272
v -0.04068064 -0.00969184 0.06424406
v -0.04064566 -0.00965617 0.06615986
v -0.04060568 -0.00959820 0.06807566
v -0.04055571 -0.00950902 0.06999146
v -0.04040081 0.00838066 0.07190272
v -0.03945138 0.00993241 0.07381852
v -0.03884674 0.01088218 0.07573432
v -0.03793230 0.01202370 0.07573432
v -0.03791731 0.01202370 0.07381852
v -0.03770244 0.01220206 0.07195720
v -0.03782236 0.01196127 0.06999146
v -0.03877679 0.01080638 0.06999146
v -0.03872682 0.01073503 0.06807566
v -0.03865686 0.01065031 0.06615986
v -0.03826210 0.01017320 0.05658994
v -0.03641822 0.01028021 0.03929325
v -0.03715277 0.00934827 0.03929325
v -0.03889172 -0.01180988 0.05658994
v -0.03706283 -0.01187677 0.03929325
v -0.03894668 -0.01189461 0.05770219
v -0.03903663 -0.01200162 0.06041700
v -0.03981116 -0.01095375 0.06233280
v -0.03831707 -0.01271061 0.05840586
v -0.03721273 -0.01399482 0.05850574
v -0.03821213 -0.01296032 0.06041700
v -0.04227967 -0.00329311 0.07573432
v -0.04150513 -0.00712343 0.07381852
v -0.04194986 -0.00521050 0.07573432
v -0.04109539 -0.00842993 0.07190272
v -0.04101044 -0.00829616 0.07381852
v -0.04222969 -0.00138018 0.07765012
v -0.04199984 0.00053720 0.07956592
v -0.04181495 0.00245013 0.07956592
v -0.04165004 0.00436306 0.07765012
v -0.04111037 0.00641422 0.07760926
v -0.04129026 0.00627599 0.07573432
v -0.04093048 0.00733279 0.07573432
v -0.04037582 0.00829148 0.07573432
v -0.04040580 0.00835836 0.07381852
v -0.03980117 -0.01095375 0.06424406
v -0.03972621 -0.01095375 0.06615986
v -0.03951634 -0.01112765 0.06796216
v -0.03959629 -0.01087349 0.06999146
v -0.03952134 -0.01079322 0.07190272
v -0.04047576 -0.00938863 0.07190272
v -0.03942140 0.00992349 0.07573432
v -0.03881676 0.01082422 0.07765012
v -0.03788732 0.01202370 0.07765012
v -0.03707782 0.01300915 0.07765012
v -0.03709281 0.01302698 0.07573432
v -0.03707782 0.01301361 0.07381852
v -0.03705783 0.01299131 0.07262909
v -0.03703284 0.01296010 0.07135340
v -0.03699287 0.01291997 0.06999146
v -0.03776740 0.01189439 0.06807566
v -0.03769744 0.01181412 0.06615986
v -0.03738263 0.01143956 0.05850574
v -0.03730268 0.01134146 0.05658994
v -0.03545880 0.01141727 0.03929325
v -0.03704284 -0.01190352 0.03929325
v -0.03801225 -0.01287114 0.05658994
v -0.03905162 -0.01202392 0.06233280
v -0.03712279 -0.01390563 0.05658994
v -0.03725771 -0.01403941 0.06041700
v -0.03590852 -0.01501594 0.05665803
v -0.03515398 -0.01575614 0.05734354
v -0.03614838 -0.01495351 0.05850574
v -0.04208478 -0.00329311 0.07765012
v -0.04124030 -0.00726612 0.07577518
v -0.04093548 -0.00817577 0.07516230
v -0.04172000 -0.00521050 0.07765012
v -0.04039081 -0.00925040 0.07381852
v -0.04199984 -0.00138018 0.07956592
v -0.04176498 0.00053720 0.08148172
v -0.04161007 0.00245013 0.08148172
v -0.04095047 0.00369867 0.08567197
v -0.04147016 0.00436306 0.07956592
v -0.04105541 0.00595048 0.07956592
v -0.04085053 0.00714550 0.07822214
v -0.04089551 0.00726590 0.07694645
v -0.03937643 0.00986552 0.07765012
v -0.03904163 -0.01200608 0.06424406
v -0.03899665 -0.01195257 0.06615986
v -0.03893669 -0.01188123 0.06852056
v -0.03889671 -0.01183218 0.06999146
v -0.03883675 -0.01175192 0.07190272
v -0.03875180 -0.01163598 0.07381852
v -0.03943139 -0.01068175 0.07381852
v -0.03875680 0.01071720 0.07956592
v -0.03771243 0.01193006 0.08148172
v -0.03765247 0.01219314 0.07948874
v -0.03705783 0.01299131 0.07879869
v -0.03520895 0.01497558 0.07956592
v -0.03618835 0.01396784 0.07765012
v -0.03522893 0.01499342 0.07765012
v -0.03523393 0.01499788 0.07573432
v -0.03617336 0.01397230 0.07381852
v -0.03631328 0.01375381 0.07195720
v -0.03515398 0.01491762 0.07060433
v -0.03586855 0.01411945 0.06997330
v -0.03597348 0.01387420 0.06807566
v -0.03692791 0.01285308 0.06807566
v -0.03685295 0.01277282 0.06615986
v -0.03589353 0.01379394 0.06615986
v -0.03580358 0.01369584 0.06424406
v -0.03498908 0.01474817 0.06615986
v -0.03648318 0.01239826 0.05850574
v -0.03488914 0.01465453 0.06424406
v -0.03450937 0.01237150 0.03929325
v -0.03701785 -0.01193028 0.03929325
v -0.03706283 -0.01384321 0.05552308
v -0.03820713 -0.01297815 0.06233280
v -0.03516897 -0.01386105 0.03929325
v -0.03508402 -0.01570709 0.05606785
v -0.03725271 -0.01403049 0.06233280
v -0.03617836 -0.01499364 0.06041700
v -0.03433448 -0.01622434 0.05665803
v -0.03417457 -0.01643837 0.05850574
v -0.03518896 -0.01578735 0.05850574
v -0.04182494 -0.00329311 0.07956592
v -0.04116034 -0.00682468 0.07765012
v -0.04083554 -0.00799740 0.07643799
v -0.03930647 -0.01049893 0.07573432
v -0.04036083 -0.00890705 0.07577518
v -0.04150513 -0.00329311 0.08148172
v -0.04101543 -0.00649025 0.07917550
v -0.04129526 -0.00537549 0.07971574
v -0.04096546 -0.00447476 0.08284821
v -0.04173999 -0.00138018 0.08148172
v -0.04150513 0.00053720 0.08339752
v -0.04108539 0.00245013 0.08567197
v -0.04137521 0.00245013 0.08339752
v -0.04106041 0.00276227 0.08567197
v -0.04071062 0.00463952 0.08567197
v -0.04104541 0.00440319 0.08324771
v -0.04125529 0.00436306 0.08148172
v -0.04088551 0.00534851 0.08251226
v -0.04094548 0.00556255 0.08148172
v -0.04078057 0.00690918 0.07956592
v -0.03996107 0.00819338 0.08148172
v -0.04016595 0.00819338 0.07956592
v -0.03941640 0.00835391 0.08567197
v -0.03931646 0.00855456 0.08567197
v -0.03930647 0.00975850 0.07956592
v -0.04042579 0.00801948 0.07760926
v -0.03815716 -0.01296032 0.06424406
v -0.03720274 -0.01397698 0.06424406
v -0.03787733 -0.01272845 0.07190272
v -0.03779238 -0.01263927 0.07381852
v -0.03765247 -0.01250104 0.07573432
v -0.03861189 -0.01145762 0.07573432
v -0.03866685 0.01055667 0.08148172
v -0.03751255 0.01169373 0.08567197
v -0.03762249 0.01183196 0.08339752
v -0.03689293 0.01279065 0.08339752
v -0.03696788 0.01288429 0.08148172
v -0.03701785 0.01294672 0.08007438
v -0.03511400 0.01487303 0.08400586
v -0.03514898 0.01491316 0.08273017
v -0.03517397 0.01493991 0.08148172
v -0.03422454 0.01589861 0.08148172
v -0.03425452 0.01593428 0.07956592
v -0.03426452 0.01595211 0.07765012
v -0.03521894 0.01498004 0.07381852
v -0.03331010 0.01689743 0.07765012
v -0.03425452 0.01595657 0.07573432
v -0.03518396 0.01494437 0.07190272
v -0.03511400 0.01487748 0.06932865
v -0.03326512 0.01685284 0.07381852
v -0.03323514 0.01682609 0.07262001
v -0.03506903 0.01483289 0.06807566
v -0.03410961 0.01570241 0.06807566
v -0.03402966 0.01561323 0.06615986
v -0.03393472 0.01551959 0.06424406
v -0.03382978 0.01543041 0.06233280
v -0.03371985 0.01533231 0.06041700
v -0.03358493 0.01325885 0.03929325
v -0.03612339 -0.01286668 0.03929325
v -0.03498908 -0.01563574 0.05467413
v -0.03420955 -0.01461462 0.03929325
v -0.03291534 -0.01556886 0.03929325
v -0.03402966 -0.01624663 0.05467413
v -0.03615837 -0.01498472 0.06233280
v -0.03521894 -0.01580965 0.06041700
v -0.03248060 -0.01729005 0.05658994
v -0.03260053 -0.01735247 0.05850574
v -0.03417457 -0.01648742 0.06041700
v -0.03265549 -0.01737923 0.06041700
v -0.04144017 -0.00138018 0.08339752
v -0.04073061 -0.00778337 0.07765012
v -0.03994108 -0.00904082 0.07765012
v -0.03912657 -0.01024030 0.07765012
v -0.04111537 -0.00334662 0.08344746
v -0.04088051 -0.00232550 0.08567197
v -0.04105541 -0.00133559 0.08567197
v -0.04003103 -0.00521050 0.08567197
v -0.04011597 -0.00521050 0.08530878
v -0.04059069 -0.00712789 0.07971574
v -0.03900165 -0.00814455 0.08450524
v -0.03924650 -0.00701642 0.08567197
v -0.03937643 -0.00672212 0.08567197
v -0.04016095 -0.00484932 0.08567197
v -0.04082555 -0.00401994 0.08412389
v -0.04117533 0.00053720 0.08567197
v -0.04116034 0.00098757 0.08567197
v -0.04060568 0.00502300 0.08567197
v -0.04025090 0.00627599 0.08567197
v -0.04067064 0.00651678 0.08148172
v -0.04012097 0.00661934 0.08567197
v -0.03902164 0.00926801 0.08498646
v -0.03866685 0.00979864 0.08567197
v -0.03921152 0.00959798 0.08148172
v -0.03591352 -0.01508282 0.06423498
v -0.03696788 -0.01375848 0.06999146
v -0.03688293 -0.01368268 0.07190272
v -0.03677800 -0.01359796 0.07381852
v -0.03745259 -0.01230484 0.07765012
v -0.03662309 -0.01345973 0.07573432
v -0.03757751 -0.01069512 0.08339752
v -0.03840701 -0.01119900 0.07765012
v -0.03696289 -0.01182326 0.08204920
v -0.03857691 0.01037831 0.08339752
v -0.03846698 0.01014644 0.08567197
v -0.03692291 0.01247406 0.08567197
v -0.03680798 0.01267472 0.08530878
v -0.03583357 0.01384745 0.08567197
v -0.03505904 0.01480614 0.08567197
v -0.03507403 0.01482398 0.08530878
v -0.03411461 0.01580051 0.08530878
v -0.03320516 0.01679933 0.08412389
v -0.03324014 0.01683055 0.08284821
v -0.03326512 0.01685730 0.08148172
v -0.03329510 0.01688405 0.07956592
v -0.03329510 0.01688405 0.07573432
v -0.03422454 0.01593874 0.07381852
v -0.03131630 0.01873902 0.07907108
v -0.03227072 0.01785613 0.07765012
v -0.03207085 0.01800773 0.07592045
v -0.03127633 0.01870334 0.07540291
v -0.03121636 0.01865875 0.07381852
v -0.03313021 0.01673691 0.06999146
v -0.03303526 0.01665664 0.06807566
v -0.03281539 0.01647828 0.06424406
v -0.03355495 0.01328561 0.03929325
v -0.03152618 0.01503355 0.03929325
v -0.03245062 0.01423984 0.03929325
v -0.03417457 -0.01464138 0.03929325
v -0.03196091 -0.01609503 0.03929325
v -0.03519895 -0.01579181 0.06233280
v -0.03515898 -0.01576060 0.06359032
v -0.03152618 -0.01776717 0.05658994
v -0.03164110 -0.01782513 0.05850574
v -0.03263550 -0.01736139 0.06233280
v -0.03417457 -0.01645621 0.06233280
v -0.03169607 -0.01785189 0.06041700
v -0.03167608 -0.01784297 0.06233280
v -0.03935144 -0.00867518 0.08148172
v -0.03913157 -0.00835413 0.08339752
v -0.03948136 -0.00914338 0.07949782
v -0.03901165 -0.01006640 0.07881231
v -0.04072061 -0.00307908 0.08567197
v -0.03853693 -0.00931282 0.08339752
v -0.03837203 -0.00888475 0.08521345
v -0.03875180 -0.00804199 0.08567197
v -0.03885674 -0.00785917 0.08567197
v -0.03893169 -0.00769865 0.08567197
v -0.04065565 -0.00333770 0.08567197
v -0.03855692 0.00999929 0.08567197
v -0.03509901 -0.01572046 0.06486601
v -0.03592351 -0.01448977 0.07190272
v -0.03581858 -0.01440505 0.07381852
v -0.03566867 -0.01428019 0.07573432
v -0.03641322 -0.01326353 0.07765012
v -0.03584856 -0.01257684 0.08339752
v -0.03545380 -0.01410629 0.07765012
v -0.03499408 -0.01370052 0.08179951
v -0.03735265 -0.01040529 0.08530878
v -0.03680798 -0.01164936 0.08339752
v -0.03560870 -0.01236281 0.08530878
v -0.03678799 0.01265242 0.08567197
v -0.03660810 0.01287983 0.08567197
v -0.03487915 0.01499342 0.08567197
v -0.03409962 0.01578267 0.08567197
v -0.03332509 0.01656300 0.08567197
v -0.03316019 0.01675474 0.08530878
v -0.03296530 0.01690635 0.08567197
v -0.03220077 0.01762871 0.08530878
v -0.03120637 0.01864983 0.08339752
v -0.03244562 0.01752616 0.08344746
v -0.03127133 0.01869888 0.08148172
v -0.03226073 0.01778924 0.08148172
v -0.03129631 0.01872118 0.08034677
v -0.03207584 0.01801665 0.07965218
v -0.03131630 0.01873456 0.07765012
v -0.03053178 0.01929640 0.07965218
v -0.03034689 0.01943909 0.07765012
v -0.03130131 0.01872564 0.07667860
v -0.03052178 0.01926964 0.07592045
v -0.03026194 0.01935436 0.07381852
v -0.03016700 0.01928748 0.07190272
v -0.03112642 0.01858741 0.07190272
v -0.03217578 0.01755291 0.06999146
v -0.03208084 0.01745927 0.06807566
v -0.03185598 0.01726307 0.06424406
v -0.03146121 0.01508706 0.03929325
v -0.03140125 -0.01770474 0.05512812
v -0.03039686 -0.01682185 0.03929325
v -0.03434947 -0.01624217 0.06423498
v -0.03034689 -0.01823537 0.05658994
v -0.03034689 -0.01835130 0.05850574
v -0.03034689 -0.01840481 0.06041700
v -0.03158614 -0.01780284 0.06424406
v -0.03254056 -0.01730789 0.06424406
v -0.03034689 -0.01839143 0.06233280
v -0.03730768 -0.01034286 0.08567197
v -0.03821213 -0.00894718 0.08567197
v -0.03468926 -0.01544401 0.07190272
v -0.03406464 -0.01627784 0.06615986
v -0.03455934 -0.01536374 0.07381852
v -0.03438944 -0.01523889 0.07573432
v -0.03417457 -0.01474393 0.07956592
v -0.03428451 -0.01436046 0.08129105
v -0.03479919 -0.01353553 0.08339752
v -0.03383977 -0.01431141 0.08339752
v -0.03656813 -0.01136398 0.08530878
v -0.03555873 -0.01231376 0.08567197
v -0.03453435 -0.01331704 0.08530878
v -0.03314520 0.01674137 0.08567197
v -0.03218577 0.01761534 0.08567197
v -0.03112642 0.01858295 0.08530878
v -0.03093154 0.01870334 0.08567197
v -0.03016700 0.01929194 0.08530878
v -0.03025195 0.01934991 0.08339752
v -0.03031191 0.01939895 0.08148172
v -0.02896773 0.02035765 0.08148172
v -0.02900770 0.02038440 0.07956592
v -0.02900770 0.02038886 0.07765012
v -0.02897772 0.02036211 0.07573432
v -0.02891276 0.02031306 0.07381852
v -0.03005707 0.01920276 0.06999146
v -0.03101649 0.01850715 0.06999146
v -0.02881782 0.02024171 0.07190272
v -0.03174105 0.01716497 0.06233280
v -0.03089156 0.01841796 0.06807566
v -0.03017699 0.01611710 0.03929325
v -0.03034689 -0.01684415 0.03929325
v -0.02838808 -0.01749070 0.03929325
v -0.02842805 -0.01878829 0.05658994
v -0.02842805 -0.01889530 0.05850574
v -0.02842805 -0.01893544 0.06041700
v -0.02842805 -0.01893098 0.06233280
v -0.03144622 -0.01773149 0.06615986
v -0.03034689 -0.01831117 0.06424406
v -0.03240565 -0.01723208 0.06615986
v -0.03360492 -0.01596571 0.07381852
v -0.03372984 -0.01604151 0.07190272
v -0.02842805 -0.01887301 0.06424406
v -0.03653314 -0.01127034 0.08567197
v -0.03343003 -0.01586761 0.07573432
v -0.03329011 -0.01578289 0.07701909
v -0.03314020 -0.01570263 0.07829477
v -0.03402466 -0.01517646 0.07765466
v -0.03297030 -0.01560899 0.07956592
v -0.03357493 -0.01409737 0.08530878
v -0.03270046 -0.01545292 0.08148172
v -0.03242063 -0.01527010 0.08339752
v -0.03444941 -0.01329029 0.08567197
v -0.03351997 -0.01405724 0.08567197
v -0.03111143 0.01856957 0.08567197
v -0.03015201 0.01927856 0.08567197
v -0.02880782 0.02023725 0.08567197
v -0.02882781 0.02024617 0.08530878
v -0.02890776 0.02030860 0.08339752
v -0.02794834 0.02096408 0.08339752
v -0.02800830 0.02099975 0.08148172
v -0.02804828 0.02102205 0.07956592
v -0.02805328 0.02102650 0.07765012
v -0.02801830 0.02100867 0.07573432
v -0.02795334 0.02096854 0.07381852
v -0.02785839 0.02091057 0.07190272
v -0.02993714 0.01910912 0.06807566
v -0.02869289 0.02015699 0.06999146
v -0.02860794 0.01726307 0.03929325
v -0.02757857 -0.01768690 0.03929325
v -0.02666412 -0.01783405 0.03929325
v -0.02651421 -0.01905583 0.05658994
v -0.02651421 -0.01913609 0.05850574
v -0.02651421 -0.01916730 0.06041700
v -0.02651421 -0.01917176 0.06233280
v -0.02651421 -0.01914055 0.06424406
v -0.03034689 -0.01817740 0.06615986
v -0.03134629 -0.01768244 0.06739469
v -0.02842805 -0.01876153 0.06615986
v -0.03226073 -0.01667916 0.07381852
v -0.02651421 -0.01906475 0.06615986
v -0.03226073 -0.01648296 0.07573432
v -0.03240565 -0.01616637 0.07765466
v -0.03201088 -0.01611286 0.07956592
v -0.03174105 -0.01597463 0.08148172
v -0.03146121 -0.01582748 0.08339752
v -0.03336006 -0.01416426 0.08567197
v -0.03131130 -0.01574722 0.08438720
v -0.03111143 -0.01564020 0.08567197
v -0.03176103 -0.01522551 0.08567197
v -0.03207584 -0.01513187 0.08514081
v -0.02785340 0.02090165 0.08567197
v -0.02786839 0.02091503 0.08530878
v -0.02651421 0.02173549 0.08567197
v -0.02651421 0.02175333 0.08530878
v -0.02651421 0.02183359 0.08339752
v -0.02651421 0.02189602 0.08148172
v -0.02651421 0.02194061 0.07956592
v -0.02651421 0.02194507 0.07765012
v -0.02651421 0.02192277 0.07573432
v -0.02651421 0.02186035 0.07381852
v -0.02651421 0.02174887 0.07190272
v -0.02773347 0.02082139 0.06999146
v -0.02651421 0.02158834 0.06999146
v -0.02854798 0.01730320 0.03929325
v -0.02465533 -0.01802579 0.03929325
v -0.02460037 -0.01803025 0.03929325
v -0.02460037 -0.01900678 0.05467413
v -0.02460037 -0.01912718 0.05658994
v -0.02460037 -0.01919852 0.05850574
v -0.02460037 -0.01923419 0.06041700
v -0.02460037 -0.01925203 0.06233280
v -0.02460037 -0.01923865 0.06424406
v -0.02460037 -0.01919406 0.06615986
v -0.02975725 -0.01779838 0.07381852
v -0.03090655 -0.01749516 0.07190272
v -0.02842805 -0.01818186 0.07381852
v -0.02651421 -0.01844940 0.07573432
v -0.02651421 -0.01817294 0.07956592
v -0.03071167 -0.01741490 0.07381852
v -0.02460037 -0.01910042 0.06807566
v -0.02268653 -0.01843156 0.08339752
v -0.02460037 -0.01837806 0.08148172
v -0.03048681 -0.01731680 0.07573432
v -0.03034689 -0.01690657 0.07956592
v -0.03034689 -0.01664349 0.08148172
v -0.03034689 -0.01636257 0.08339752
v -0.03042184 -0.01606381 0.08514081
v -0.03028692 -0.01604151 0.08567197
v -0.02530994 0.02243110 0.08567197
v -0.02537490 0.02246678 0.08339752
v -0.02542986 0.02249353 0.08148172
v -0.02546984 0.02251137 0.07956592
v -0.02547984 0.02251582 0.07765012
v -0.02546984 0.02251137 0.07573432
v -0.02542487 0.02248907 0.07381852
v -0.02532993 0.02244002 0.07190272
v -0.02518501 0.02236422 0.06999146
v -0.02759356 0.02072329 0.06807566
v -0.02684901 0.01837337 0.03929325
v -0.02268653 -0.01800795 0.03929325
v -0.02268653 -0.01906921 0.05658994
v -0.02268653 -0.01914947 0.05850574
v -0.02268653 -0.01919406 0.06041700
v -0.02268653 -0.01922081 0.06233280
v -0.02268653 -0.01922973 0.06424406
v -0.02268653 -0.01919406 0.06615986
v -0.02268653 -0.01911825 0.06807566
v -0.02952738 -0.01770920 0.07573432
v -0.02842805 -0.01802579 0.07573432
v -0.02651421 -0.01802579 0.08148172
v -0.02460037 -0.01825320 0.08339752
v -0.02268653 -0.01831117 0.08530878
v -0.02076769 -0.01841373 0.08339752
v -0.02076769 -0.01832009 0.08530878
v -0.02939746 -0.01766015 0.07672854
v -0.03016200 -0.01724992 0.07748215
v -0.02862293 -0.01737031 0.08148172
v -0.02842805 -0.01693778 0.08530878
v -0.02842805 -0.01688427 0.08567197
v -0.02991715 -0.01621542 0.08567197
v -0.02435052 0.02290822 0.08567197
v -0.02436551 0.02291268 0.08530878
v -0.02451542 0.02297956 0.07956592
v -0.02452541 0.02299294 0.07765012
v -0.02451542 0.02299740 0.07573432
v -0.02447045 0.02297511 0.07381852
v -0.02437550 0.02292606 0.07190272
v -0.02422559 0.02285025 0.06999146
v -0.02589458 0.01889954 0.03929325
v -0.02591957 0.01888616 0.03929325
v -0.02077768 -0.01778946 0.03929325
v -0.02076769 -0.01883288 0.05658994
v -0.02076769 -0.01894435 0.05850574
v -0.02076769 -0.01902461 0.06041700
v -0.02076769 -0.01907366 0.06233280
v -0.02076769 -0.01909150 0.06424406
v -0.02076769 -0.01906921 0.06615986
v -0.02076769 -0.01900232 0.06807566
v -0.02766351 -0.01772703 0.08148172
v -0.02460037 -0.01808822 0.08530878
v -0.02600452 -0.01778054 0.08530878
v -0.02657917 -0.01783851 0.08325679
v -0.02424059 -0.01810159 0.08567197
v -0.02232674 -0.01828887 0.08567197
v -0.02268653 -0.01827996 0.08567197
v -0.01885385 -0.01823982 0.08339752
v -0.01885385 -0.01815510 0.08530878
v -0.02040790 -0.01826658 0.08567197
v -0.02076769 -0.01829333 0.08567197
v -0.01885385 -0.01813281 0.08567197
v -0.02749861 -0.01766907 0.08252588
v -0.02825316 -0.01728113 0.08325679
v -0.02725876 -0.01759772 0.08380157
v -0.02696394 -0.01749962 0.08530878
v -0.02686400 -0.01748179 0.08567197
v -0.02268653 0.02370193 0.08567197
v -0.02268653 0.02381341 0.07956592
v -0.02268653 0.02383570 0.07765012
v -0.02268653 0.02384016 0.07573432
v -0.02268653 0.02379557 0.07381852
v -0.02268653 0.02369747 0.07190272
v -0.02268653 0.02355478 0.06999146
v -0.02402571 0.02274769 0.06807566
v -0.02460037 0.01949259 0.03929325
v -0.01895878 -0.01741044 0.03929325
v -0.01885385 -0.01861438 0.06041700
v -0.01885385 -0.01869465 0.06233280
v -0.01885385 -0.01873924 0.06424406
v -0.01885385 -0.01873478 0.06615986
v -0.01694500 -0.01791432 0.08339752
v -0.02462036 -0.01804809 0.08567197
v -0.02592956 -0.01776271 0.08567197
v -0.01683007 -0.01780730 0.08519983
v -0.01694000 -0.01780284 0.08567197
v -0.01856402 -0.01808376 0.08567197
v -0.02134734 0.02430390 0.08567197
v -0.02116745 0.02438416 0.08567197
v -0.02038792 0.02472305 0.08567197
v -0.02142729 0.02434849 0.07956592
v -0.02145227 0.02435741 0.07765012
v -0.02144728 0.02435741 0.07573432
v -0.02138731 0.02433511 0.07381852
v -0.02125739 0.02428607 0.07190272
v -0.02109249 0.02421472 0.06999146
v -0.02268653 0.02335412 0.06807566
v -0.02066775 0.02418351 0.06792584
v -0.01978328 0.02446443 0.06718586
v -0.02455539 0.01951043 0.03929325
v -0.01694500 -0.01682631 0.03929325
v -0.01703994 -0.01799458 0.06041700
v -0.01676011 -0.01799012 0.06216936
v -0.01694500 -0.01815064 0.06424406
v -0.01694500 -0.01819077 0.06615986
v -0.01579570 -0.01771366 0.08148172
v -0.01588564 -0.01768690 0.08339752
v -0.01596559 -0.01766461 0.08448708
v -0.01623043 -0.01766015 0.08567197
v -0.02049285 0.02474535 0.07765012
v -0.01885385 0.02528489 0.08567197
v -0.02048786 0.02474089 0.07573432
v -0.02042789 0.02470967 0.07381852
v -0.02030297 0.02466062 0.07190272
v -0.02013307 0.02459374 0.06999146
v -0.01995818 0.02452685 0.06846154
v -0.02066775 0.02086598 0.03929325
v -0.02074270 0.02084814 0.03929325
v -0.02256660 0.02029076 0.03929325
v -0.01885385 0.02494600 0.06999146
v -0.01902874 0.02470967 0.06792584
v -0.01694500 0.02518233 0.06807566
v -0.01885385 0.02128067 0.03929325
v -0.01494621 -0.01607719 0.03929325
v -0.01589564 -0.01769582 0.06269598
v -0.01580069 -0.01773595 0.06424406
v -0.01571574 -0.01776717 0.06615986
v -0.01568576 -0.01777163 0.06807566
v -0.01484127 -0.01741490 0.08148172
v -0.01577571 -0.01772258 0.07956592
v -0.01492622 -0.01738815 0.08339752
v -0.01520605 -0.01738815 0.08519983
v -0.01516608 -0.01734801 0.08567197
v -0.01596559 -0.01758880 0.08567197
v -0.01885385 0.02526705 0.07765012
v -0.01694500 0.02581552 0.08567197
v -0.01885385 0.02524922 0.07573432
v -0.01885385 0.02519125 0.07381852
v -0.01885385 0.02508423 0.07190272
v -0.01694500 0.02552568 0.07190272
v -0.01694500 0.02537853 0.06999146
v -0.01503116 0.02565053 0.06999146
v -0.01503116 0.02542758 0.06807566
v -0.01694500 0.02153484 0.03929325
v -0.01491623 -0.01606381 0.03929325
v -0.01323225 -0.01530132 0.03929325
v -0.01484627 -0.01730343 0.06424406
v -0.01475633 -0.01735694 0.06615986
v -0.01472634 -0.01738815 0.06807566
v -0.01311232 -0.01680401 0.07956592
v -0.01311232 -0.01681293 0.08148172
v -0.01311232 -0.01677280 0.08339752
v -0.01311232 -0.01669254 0.08530878
v -0.01311232 -0.01667024 0.08567197
v -0.01694500 0.02567729 0.07573432
v -0.01503116 0.02611427 0.08567197
v -0.01694500 0.02562378 0.07381852
v -0.01503116 0.02579768 0.07190272
v -0.01311232 0.02574417 0.06999146
v -0.01503116 0.02168198 0.03929325
v -0.01686505 0.02154375 0.03929325
v -0.01311232 0.02549892 0.06807566
v -0.01137337 -0.01429803 0.03929325
v -0.01071377 -0.01549305 0.06807566
v -0.01167319 -0.01598801 0.06807566
v -0.01311232 -0.01659890 0.06615986
v -0.01311232 -0.01667916 0.06807566
v -0.01311232 -0.01671483 0.06999146
v -0.01136338 -0.01609948 0.08148172
v -0.01135838 -0.01608611 0.08339752
v -0.01141835 -0.01605044 0.08530878
v -0.01143833 -0.01603706 0.08567197
v -0.01281750 -0.01655877 0.08567197
v -0.01503116 0.02591807 0.07573432
v -0.01503116 0.02587794 0.07381852
v -0.01311232 0.02626588 0.08567197
v -0.01311232 0.02589132 0.07190272
v -0.01119848 0.02583335 0.07190272
v -0.01119848 0.02566391 0.06999146
v -0.01311232 0.02173103 0.03929325
v -0.01119848 0.02166415 0.03929325
v -0.01302737 0.02173103 0.03929325
v -0.01041895 -0.01371390 0.03929325
v -0.00809536 -0.01396806 0.06807566
v -0.00928464 -0.01467705 0.06807566
v -0.01064881 -0.01552873 0.06999146
v -0.00928464 -0.01476177 0.06999146
v -0.01160823 -0.01601476 0.06999146
v -0.01040396 -0.01566250 0.08148172
v -0.01040396 -0.01567141 0.08339752
v -0.01045893 -0.01564912 0.08530878
v -0.01048391 -0.01564020 0.08567197
v -0.01311232 0.02596266 0.07381852
v -0.01119848 0.02630155 0.08567197
v -0.01119848 0.02591807 0.07381852
v -0.00737080 0.02598050 0.08567197
v -0.00928464 0.02568620 0.07381852
v -0.00928464 0.02558365 0.07190272
v -0.01111853 0.02165969 0.03929325
v -0.00928464 0.02540528 0.06999146
v -0.00920469 0.02147241 0.03929325
v -0.00928464 -0.01291573 0.03929325
v -0.00454251 -0.01188123 0.07151684
v -0.00557688 -0.01246982 0.06999146
v -0.00714093 -0.01336609 0.06807566
v -0.00705599 -0.01342852 0.06999146
v -0.00801541 -0.01401711 0.06999146
v -0.00928464 -0.01481528 0.07190272
v -0.00928464 -0.01507391 0.08148172
v -0.00794545 -0.01404832 0.07190272
v -0.00789548 -0.01407954 0.07381852
v -0.00928464 -0.01509620 0.08339752
v -0.00928464 -0.01506499 0.08530878
v -0.00928464 -0.01505161 0.08567197
v -0.01023906 -0.01552427 0.08567197
v -0.00926965 0.02619453 0.08567197
v -0.00545196 0.02560148 0.08567197
v -0.00737080 0.02511991 0.07190272
v -0.00737080 0.02494600 0.06999146
v -0.00452752 0.02062073 0.03929325
v -0.00586671 0.02091503 0.03929325
v -0.00723088 0.02119595 0.03929325
v -0.00810535 -0.01206851 0.03929325
v -0.00461746 -0.01182326 0.06999146
v -0.00353812 -0.01097604 0.06999146
v -0.00372800 -0.01127034 0.07205707
v -0.00449254 -0.01191690 0.07279252
v -0.00529205 -0.01240294 0.07205707
v -0.00699103 -0.01347757 0.07190272
v -0.00774557 -0.01419547 0.08148172
v -0.00771559 -0.01420885 0.08339752
v -0.00693606 -0.01351324 0.07381852
v -0.00771559 -0.01420439 0.08530878
v -0.00899481 -0.01490000 0.08567197
v -0.00343318 0.02490587 0.08567197
v -0.00588669 0.02464279 0.07190272
v -0.00615153 0.02455361 0.06999146
v -0.00634642 0.02449118 0.06884743
v -0.00272361 0.02007227 0.03929325
v -0.00807537 -0.01204621 0.03929325
v -0.00245877 -0.01010207 0.06999146
v -0.00237382 -0.01017342 0.07190272
v -0.00447255 -0.01193028 0.07381852
v -0.00545196 -0.01257238 0.07381852
v -0.00675617 -0.01360242 0.08339752
v -0.00675617 -0.01360688 0.08530878
v -0.00772058 -0.01419993 0.08567197
v -0.00493227 0.02431282 0.07190272
v -0.00164426 0.02409433 0.08567197
v -0.00519711 0.02422810 0.06999146
v -0.00058490 0.01920276 0.03929325
v -0.00715093 -0.01128372 0.03929325
v -0.00602161 -0.01032948 0.03929325
v -0.00506219 -0.00948226 0.03929325
v -0.00401782 -0.00852803 0.03929325
v -0.00150435 -0.00918797 0.06999146
v -0.00141940 -0.00928607 0.07190272
v -0.00139441 -0.00933957 0.07381852
v -0.00010519 -0.00859046 0.08567197
v -0.00097467 -0.00937079 0.08567197
v -0.00118454 -0.00954915 0.08567197
v -0.00214396 -0.01035624 0.08567197
v -0.00312836 -0.01113211 0.08567197
v -0.00432264 -0.01203284 0.08567197
v -0.00523709 -0.01263035 0.08567197
v -0.00651132 -0.01344636 0.08567197
v -0.00676117 -0.01360242 0.08567197
v -0.00018015 0.02326494 0.08567197
v 0.00012966 0.02307321 0.08567197
v 0.00083924 0.01825744 0.03929325
v -0.00306340 -0.00760947 0.03929325
v -0.00043499 -0.00833183 0.07190272
v -0.00038003 -0.00838088 0.07381852
v 0.00085423 -0.00768527 0.08567197
v 0.00106910 0.02242219 0.08567197
v 0.00181365 0.01733888 0.03929325
v 0.00227836 0.02138769 0.08567197
v 0.00263815 0.02106664 0.08567197
v -0.00212397 -0.00665077 0.03929325
v -0.00052994 -0.00822927 0.06999146
v -0.00116455 -0.00557614 0.03929325
v -0.00037003 -0.00461745 0.03929325
v 0.00052443 -0.00716802 0.07190272
v 0.00273309 -0.00564749 0.08567197
v 0.00177367 -0.00672658 0.08567197
v 0.00355759 0.02010794 0.08567197
v 0.00386240 0.01974676 0.08567197
v 0.00407728 0.01948813 0.08567197
v 0.00489178 0.01842242 0.08567197
v 0.00256819 0.01629992 0.03929325
v -0.00207900 -0.00660172 0.03929325
v -0.00033505 -0.00456840 0.03929325
v 0.00178366 -0.00534873 0.07016851
v 0.00124899 -0.00616920 0.07092666
v 0.00348263 -0.00469325 0.08567197
v 0.00546643 0.01747711 0.08567197
v 0.00565132 0.01714714 0.08567197
v 0.00640087 0.01571579 0.08567197
v 0.00327276 0.01493099 0.03929325
v 0.00060937 -0.00323515 0.03929325
v 0.00202352 -0.00521050 0.07190272
v 0.00294796 -0.00384158 0.07190272
v 0.00437709 -0.00327082 0.08567197
v 0.00651080 0.01549283 0.08567197
v 0.00384741 0.01334803 0.03929325
v 0.00709045 0.01393663 0.08567197
v 0.00063436 -0.00319502 0.03929325
v 0.00287300 -0.00370334 0.06999146
v 0.00500172 -0.00220065 0.08567197
v 0.00491177 -0.00235671 0.08567197
v 0.00414723 0.01205491 0.03929325
v 0.00718040 0.01358436 0.08567197
v 0.00754518 0.01214855 0.08567197
v 0.00171371 -0.00136235 0.03929325
v 0.00551141 -0.00126871 0.08567197
v 0.00415223 0.01202370 0.03929325
v 0.00788997 0.01010631 0.08567197
v 0.00172870 -0.00133113 0.03929325
v 0.00637588 0.00056396 0.08567197
v 0.00431713 0.01041398 0.03929325
v 0.00801489 0.00819338 0.08567197
v 0.00254820 0.00054612 0.03929325
v 0.00687558 0.00185708 0.08567197
v 0.00256819 0.00059517 0.03929325
v 0.00431213 0.01010631 0.03929325
v 0.00790496 0.00627599 0.08567197
v 0.00718040 0.00279348 0.08567197
v 0.00309287 0.00245013 0.03929325
v 0.00408727 0.00792584 0.03929325
v 0.00757516 0.00436306 0.08567197
v 0.00348263 0.00436306 0.03929325
v 0.00376746 0.00603966 0.03929325
v 0.00335271 0.00365407 0.03929325
f 1 2 6
f 1 6 16
f 1 16 28
f 1 28 46
f 1 46 75
f 1 75 74
f 1 74 106
f 1 106 105
f 1 105 146
f 1 146 145
f 1 145 183
f 1 183 182
f 1 182 225
f 1 225 275
f 1 275 343
f 1 343 410
f 1 410 412
f 1 412 411
f 1 411 471
f 1 471 511
f 1 511 549
f 1 549 585
f 1 585 620
f 1 620 651
f 1 651 650
f 1 650 685
f 1 685 709
f 1 709 728
f 1 728 727
f 1 727 726
f 1 726 732
f 1 732 753
f 1 753 770
f 1 770 769
f 1 769 789
f 1 789 791
f 1 791 790
f 1 790 808
f 1 808 810
f 1 810 831
f 1 831 830
f 1 830 829
f 1 829 848
f 1 848 860
f 1 860 879
f 1 879 885
f 1 885 899
f 1 899 908
f 1 908 914
f 1 914 920
f 1 920 925
f 1 925 929
f 1 929 934
f 1 934 938
f 1 938 941
f 1 941 940
f 1 940 942
f 1 942 937
f 1 937 933
f 1 933 931
f 1 931 927
f 1 927 923
f 1 923 916
f 1 916 909
f 1 909 901
f 1 901 891
f 1 891 890
f 1 890 900
f 1 900 888
f 1 888 880
f 1 880 864
f 1 864 863
f 1 863 862
f 1 862 861
f 1 861 849
f 1 849 832
f 1 832 811
f 1 811 792
f 1 792 772
f 1 772 755
f 1 755 754
f 1 754 733
f 1 733 710
f 1 710 686
f 1 686 652
f 1 652 621
f 1 621 587
f 1 587 586
f 1 586 551
f 1 551 550
f 1 550 513
f 1 513 512
f 1 512 473
f 1 473 414
f 1 414 347
f 1 347 413
f 1 413 346
f 1 346 279
f 1 279 344
f 1 344 276
f 1 276 226
f 1 226 185
f 1 185 147
f 1 147 107
f 1 107 78
f 1 78 49
f 1 49 47
f 1 47 29
f 1 29 18
f 1 18 7
f 1 7 3
f 1 3 4
f 1 4 5
f 1 5 2
f 2 5 6
f 3 7 8
f 3 8 9
f 3 9 4
f 4 9 10
f 4 10 5
f 5 10 11
f 5 11 12
f 5 12 13
f 5 13 14
f 5 14 15
f 5 15 6
f 6 15 17
f 6 17 16
f 7 18 8
f 8 19 9
f 8 18 19
f 9 19 20
f 9 20 10
f 10 20 11
f 11 21 22
f 11 22 12
f 11 20 23
f 11 23 24
f 11 24 21
f 12 22 13
f 13 22 25
f 13 25 26
f 13 26 14
f 14 17 15
f 14 26 41
f 14 41 27
f 14 27 17
f 16 17 28
f 17 27 28
f 18 29 30
f 18 30 19
f 19 30 31
f 19 31 32
f 19 32 20
f 20 32 23
f 21 33 34
f 21 34 35
f 21 35 22
f 21 24 36
f 21 36 33
f 22 35 37
f 22 37 25
f 23 32 38
f 23 38 24
f 24 38 39
f 24 39 36
f 25 37 40
f 25 40 26
f 26 40 41
f 27 41 42
f 27 42 43
f 27 43 44
f 27 44 45
f 27 45 28
f 28 45 46
f 29 47 30
f 30 48 31
f 30 47 49
f 30 49 48
f 31 50 32
f 31 48 51
f 31 51 52
f 31 52 50
f 32 50 38
f 33 36 53
f 33 53 54
f 33 54 55
f 33 55 34
f 34 55 56
f 34 56 57
f 34 57 37
f 34 37 35
f 36 39 58
f 36 58 59
f 36 59 53
f 37 57 60
f 37 60 61
f 37 61 40
f 38 50 62
f 38 62 63
f 38 63 39
f 39 63 64
f 39 64 58
f 40 61 65
f 40 65 66
f 40 66 41
f 41 66 67
f 41 67 68
f 41 68 42
f 42 68 69
f 42 69 70
f 42 70 71
f 42 71 72
f 42 72 43
f 43 72 73
f 43 73 74
f 43 74 44
f 44 75 45
f 44 74 75
f 45 75 46
f 48 49 76
f 48 76 77
f 48 77 51
f 49 78 76
f 50 52 79
f 50 79 62
f 51 77 80
f 51 80 52
f 52 80 81
f 52 81 79
f 53 82 54
f 53 59 83
f 53 83 82
f 54 82 84
f 54 84 85
f 54 85 86
f 54 86 87
f 54 87 55
f 55 87 88
f 55 88 56
f 56 88 89
f 56 89 90
f 56 90 57
f 57 90 60
f 58 64 59
f 59 64 91
f 59 91 92
f 59 92 83
f 60 90 93
f 60 93 94
f 60 94 61
f 61 94 95
f 61 95 65
f 62 79 96
f 62 96 63
f 63 96 97
f 63 97 64
f 64 97 98
f 64 98 91
f 65 99 67
f 65 67 66
f 65 95 99
f 67 99 100
f 67 100 69
f 67 69 68
f 69 100 101
f 69 101 102
f 69 102 70
f 70 102 71
f 71 102 103
f 71 103 72
f 72 103 104
f 72 104 73
f 73 104 105
f 73 105 106
f 73 106 74
f 76 78 77
f 77 78 107
f 77 107 80
f 79 81 108
f 79 108 96
f 80 107 109
f 80 109 81
f 81 109 110
f 81 110 111
f 81 111 108
f 82 83 112
f 82 112 84
f 83 92 113
f 83 113 114
f 83 114 112
f 84 112 115
f 84 115 116
f 84 116 117
f 84 117 118
f 84 118 119
f 84 119 120
f 84 120 85
f 85 120 86
f 86 120 119
f 86 119 118
f 86 118 117
f 86 117 121
f 86 121 122
f 86 122 123
f 86 123 124
f 86 124 125
f 86 125 87
f 87 125 88
f 88 125 126
f 88 126 89
f 89 126 127
f 89 127 128
f 89 128 90
f 90 128 93
f 91 98 129
f 91 129 92
f 92 129 113
f 93 128 130
f 93 130 131
f 93 131 94
f 94 131 99
f 94 99 95
f 96 108 132
f 96 132 133
f 96 133 97
f 97 133 98
f 98 133 134
f 98 134 135
f 98 135 129
f 99 131 136
f 99 136 100
f 100 136 137
f 100 137 101
f 101 137 138
f 101 138 139
f 101 139 140
f 101 140 141
f 101 141 102
f 102 141 142
f 102 142 103
f 103 142 143
f 103 143 104
f 104 143 144
f 104 144 145
f 104 145 146
f 104 146 105
f 107 147 148
f 107 148 109
f 108 111 149
f 108 149 132
f 109 148 110
f 110 148 150
f 110 150 111
f 111 150 151
f 111 151 152
f 111 152 149
f 112 114 116
f 112 116 115
f 113 129 153
f 113 153 114
f 114 154 156
f 114 156 116
f 114 153 155
f 114 155 154
f 116 156 117
f 117 156 157
f 117 157 121
f 121 158 159
f 121 159 160
f 121 160 122
f 121 157 158
f 122 160 124
f 122 124 123
f 124 160 161
f 124 161 162
f 124 162 125
f 125 162 126
f 126 162 127
f 127 162 163
f 127 163 128
f 128 163 130
f 129 135 164
f 129 164 153
f 130 163 165
f 130 165 131
f 131 165 166
f 131 166 136
f 132 149 133
f 133 149 167
f 133 167 134
f 134 167 168
f 134 168 135
f 135 168 169
f 135 169 170
f 135 170 164
f 136 166 171
f 136 171 172
f 136 172 137
f 137 172 138
f 138 173 174
f 138 174 175
f 138 175 139
f 138 172 173
f 139 175 176
f 139 176 177
f 139 177 178
f 139 178 140
f 140 178 141
f 141 178 179
f 141 179 142
f 142 179 180
f 142 180 143
f 143 180 181
f 143 181 144
f 144 181 182
f 144 182 183
f 144 183 145
f 147 184 148
f 147 185 184
f 148 184 186
f 148 186 150
f 149 152 187
f 149 187 188
f 149 188 167
f 150 186 151
f 151 186 189
f 151 189 190
f 151 190 191
f 151 191 187
f 151 187 152
f 153 164 155
f 154 192 156
f 154 155 193
f 154 193 194
f 154 194 192
f 155 164 195
f 155 195 196
f 155 196 193
f 156 192 157
f 157 192 197
f 157 197 158
f 158 197 198
f 158 198 199
f 158 199 159
f 159 199 200
f 159 200 161
f 159 161 160
f 161 200 201
f 161 201 202
f 161 202 162
f 162 202 163
f 163 202 203
f 163 203 165
f 164 170 195
f 165 203 204
f 165 204 205
f 165 205 166
f 166 205 171
f 167 188 206
f 167 206 168
f 168 206 207
f 168 207 169
f 169 207 208
f 169 208 209
f 169 209 170
f 170 209 210
f 170 210 211
f 170 211 195
f 171 205 172
f 172 205 173
f 173 205 212
f 173 212 213
f 173 213 214
f 173 214 174
f 174 214 215
f 174 215 216
f 174 216 175
f 175 216 217
f 175 217 218
f 175 218 176
f 176 218 219
f 176 219 177
f 177 219 220
f 177 220 221
f 177 221 179
f 177 179 178
f 179 221 222
f 179 222 180
f 180 222 223
f 180 223 181
f 181 223 224
f 181 224 182
f 182 224 225
f 184 185 186
f 185 226 186
f 186 226 227
f 186 227 189
f 187 191 228
f 187 228 188
f 188 228 206
f 189 227 229
f 189 229 190
f 190 230 191
f 190 229 231
f 190 231 232
f 190 232 233
f 190 233 230
f 191 230 228
f 192 194 234
f 192 234 197
f 193 235 194
f 193 196 236
f 193 236 235
f 194 235 237
f 194 237 234
f 195 211 196
f 196 211 238
f 196 238 236
f 197 234 239
f 197 239 198
f 198 239 240
f 198 240 298
f 198 298 241
f 198 241 199
f 199 241 242
f 199 242 243
f 199 243 200
f 200 243 244
f 200 244 201
f 201 244 245
f 201 245 202
f 202 245 246
f 202 246 203
f 203 246 247
f 203 247 204
f 204 247 213
f 204 213 212
f 204 212 205
f 206 228 248
f 206 248 207
f 207 248 249
f 207 249 208
f 208 249 250
f 208 250 251
f 208 251 209
f 209 251 252
f 209 252 210
f 210 252 253
f 210 253 254
f 210 254 211
f 211 254 238
f 213 247 255
f 213 255 256
f 213 256 257
f 213 257 214
f 214 257 258
f 214 258 215
f 215 258 259
f 215 259 260
f 215 260 216
f 216 260 261
f 216 261 262
f 216 262 217
f 217 262 263
f 217 263 218
f 218 263 264
f 218 264 219
f 219 264 265
f 219 265 266
f 219 266 220
f 220 266 267
f 220 267 268
f 220 268 221
f 221 268 222
f 222 268 269
f 222 269 223
f 223 269 224
f 224 269 270
f 224 270 271
f 224 271 272
f 224 272 273
f 224 273 225
f 225 273 274
f 225 274 275
f 226 276 277
f 226 277 229
f 226 229 227
f 228 230 278
f 228 278 248
f 229 277 279
f 229 279 280
f 229 280 231
f 230 281 278
f 230 233 282
f 230 282 281
f 231 280 232
f 232 280 283
f 232 283 284
f 232 284 285
f 232 285 233
f 233 285 282
f 234 237 286
f 234 286 295
f 234 295 239
f 235 287 237
f 235 236 288
f 235 288 287
f 236 238 289
f 236 289 290
f 236 290 288
f 237 291 286
f 237 287 292
f 237 292 293
f 237 293 294
f 237 294 291
f 238 254 289
f 239 295 296
f 239 296 240
f 240 296 297
f 240 297 298
f 241 298 299
f 241 299 242
f 242 299 297
f 242 297 371
f 242 371 370
f 242 370 361
f 242 361 360
f 242 360 427
f 242 427 433
f 242 433 368
f 242 368 362
f 242 362 367
f 242 367 366
f 242 366 432
f 242 432 431
f 242 431 430
f 242 430 482
f 242 482 481
f 242 481 524
f 242 524 492
f 242 492 533
f 242 533 534
f 242 534 567
f 242 567 570
f 242 570 569
f 242 569 609
f 242 609 641
f 242 641 640
f 242 640 676
f 242 676 693
f 242 693 692
f 242 692 664
f 242 664 666
f 242 666 665
f 242 665 670
f 242 670 669
f 242 669 671
f 242 671 696
f 242 696 695
f 242 695 718
f 242 718 743
f 242 743 742
f 242 742 763
f 242 763 782
f 242 782 781
f 242 781 801
f 242 801 824
f 242 824 823
f 242 823 843
f 242 843 856
f 242 856 876
f 242 876 875
f 242 875 874
f 242 874 873
f 242 873 872
f 242 872 871
f 242 871 870
f 242 870 869
f 242 869 868
f 242 868 883
f 242 883 894
f 242 894 893
f 242 893 904
f 242 904 912
f 242 912 919
f 242 919 918
f 242 918 924
f 242 924 928
f 242 928 932
f 242 932 936
f 242 936 939
f 242 939 935
f 242 935 930
f 242 930 926
f 242 926 922
f 242 922 921
f 242 921 915
f 242 915 913
f 242 913 907
f 242 907 906
f 242 906 905
f 242 905 898
f 242 898 897
f 242 897 896
f 242 896 895
f 242 895 887
f 242 887 886
f 242 886 884
f 242 884 878
f 242 878 877
f 242 877 858
f 242 858 844
f 242 844 826
f 242 826 805
f 242 805 825
f 242 825 803
f 242 803 785
f 242 785 765
f 242 765 745
f 242 745 720
f 242 720 699
f 242 699 698
f 242 698 697
f 242 697 677
f 242 677 642
f 242 642 610
f 242 610 574
f 242 574 572
f 242 572 537
f 242 537 536
f 242 536 497
f 242 497 535
f 242 535 495
f 242 495 452
f 242 452 494
f 242 494 450
f 242 450 449
f 242 449 448
f 242 448 393
f 242 393 392
f 242 392 447
f 242 447 446
f 242 446 390
f 242 390 319
f 242 319 389
f 242 389 434
f 242 434 377
f 242 377 309
f 242 309 308
f 242 308 375
f 242 375 373
f 242 373 372
f 242 372 300
f 242 300 301
f 242 301 302
f 242 302 243
f 243 302 303
f 243 303 304
f 243 304 244
f 244 304 305
f 244 305 245
f 245 306 307
f 245 307 246
f 245 305 308
f 245 308 309
f 245 309 306
f 246 307 310
f 246 310 311
f 246 311 247
f 247 310 255
f 247 311 310
f 248 278 281
f 248 281 312
f 248 312 249
f 249 312 250
f 250 312 313
f 250 313 251
f 251 313 314
f 251 314 252
f 252 314 315
f 252 315 253
f 253 289 254
f 253 315 316
f 253 316 317
f 253 317 289
f 255 310 318
f 255 318 319
f 255 319 320
f 255 320 256
f 256 320 321
f 256 321 322
f 256 322 257
f 257 322 323
f 257 323 258
f 258 323 324
f 258 324 325
f 258 325 326
f 258 326 259
f 259 261 260
f 259 326 327
f 259 327 328
f 259 328 261
f 261 328 329
f 261 329 262
f 262 330 263
f 262 329 331
f 262 331 332
f 262 332 330
f 263 330 333
f 263 333 264
f 264 333 265
f 265 334 266
f 265 333 335
f 265 335 336
f 265 336 334
f 266 334 267
f 267 269 268
f 267 334 337
f 267 337 270
f 267 270 269
f 270 337 272
f 270 272 271
f 272 337 338
f 272 338 339
f 272 339 340
f 272 340 274
f 272 274 273
f 274 340 341
f 274 341 342
f 274 342 343
f 274 343 275
f 276 344 277
f 277 344 279
f 279 345 280
f 279 346 345
f 280 345 347
f 280 347 348
f 280 348 283
f 281 282 349
f 281 349 313
f 281 313 312
f 282 285 350
f 282 350 349
f 283 348 351
f 283 351 352
f 283 352 284
f 284 353 285
f 284 352 354
f 284 354 353
f 285 353 350
f 286 291 355
f 286 355 295
f 287 288 356
f 287 356 292
f 288 290 357
f 288 357 356
f 289 317 358
f 289 358 357
f 289 357 290
f 291 359 360
f 291 360 361
f 291 361 355
f 291 294 359
f 292 362 363
f 292 363 294
f 292 294 293
f 292 356 364
f 292 364 365
f 292 365 366
f 292 366 367
f 292 367 362
f 294 363 362
f 294 362 368
f 294 368 369
f 294 369 359
f 295 355 370
f 295 370 296
f 296 370 371
f 296 371 297
f 297 299 298
f 300 303 301
f 300 372 303
f 301 303 302
f 303 372 373
f 303 373 304
f 304 373 374
f 304 374 305
f 305 374 373
f 305 373 375
f 305 375 308
f 306 309 376
f 306 376 307
f 307 376 377
f 307 377 378
f 307 378 310
f 309 377 376
f 310 378 318
f 313 349 379
f 313 379 380
f 313 380 314
f 314 380 381
f 314 381 315
f 315 381 382
f 315 382 316
f 316 383 317
f 316 382 384
f 316 384 383
f 317 385 386
f 317 386 358
f 317 383 387
f 317 387 385
f 318 388 319
f 318 378 388
f 319 388 389
f 319 390 391
f 319 391 320
f 320 391 321
f 321 391 392
f 321 392 393
f 321 393 394
f 321 394 322
f 322 394 323
f 323 394 324
f 324 394 395
f 324 395 396
f 324 396 325
f 325 396 397
f 325 397 327
f 325 327 326
f 327 397 398
f 327 398 328
f 328 398 399
f 328 399 331
f 328 331 329
f 330 332 400
f 330 400 401
f 330 401 333
f 331 400 332
f 331 399 402
f 331 402 403
f 331 403 400
f 333 401 335
f 334 336 337
f 335 400 404
f 335 404 405
f 335 405 336
f 335 401 400
f 336 405 406
f 336 406 407
f 336 407 337
f 337 407 338
f 338 407 339
f 339 407 408
f 339 408 340
f 340 408 341
f 341 408 409
f 341 409 342
f 342 410 343
f 342 409 411
f 342 411 412
f 342 412 410
f 345 346 413
f 345 413 347
f 347 414 351
f 347 351 348
f 349 350 415
f 349 415 416
f 349 416 379
f 350 353 415
f 351 414 417
f 351 417 352
f 352 417 418
f 352 418 421
f 352 421 354
f 353 354 419
f 353 419 420
f 353 420 415
f 354 421 422
f 354 422 419
f 355 361 370
f 356 357 423
f 356 423 424
f 356 424 365
f 356 365 364
f 357 425 423
f 357 358 426
f 357 426 425
f 358 386 385
f 358 385 426
f 359 369 427
f 359 427 360
f 365 424 428
f 365 428 429
f 365 429 430
f 365 430 431
f 365 431 432
f 365 432 366
f 368 433 369
f 369 433 427
f 377 434 378
f 378 434 388
f 379 416 435
f 379 435 380
f 380 435 436
f 380 436 381
f 381 436 437
f 381 437 382
f 382 437 438
f 382 438 384
f 383 384 439
f 383 439 440
f 383 440 387
f 384 438 441
f 384 441 442
f 384 442 439
f 385 443 428
f 385 428 426
f 385 387 444
f 385 444 443
f 387 440 445
f 387 445 444
f 388 434 389
f 390 446 391
f 391 446 447
f 391 447 392
f 393 448 394
f 394 448 395
f 395 449 450
f 395 450 396
f 395 448 449
f 396 450 451
f 396 451 452
f 396 452 453
f 396 453 454
f 396 454 455
f 396 455 456
f 396 456 397
f 397 456 457
f 397 457 398
f 398 457 458
f 398 458 459
f 398 459 399
f 399 459 402
f 400 403 460
f 400 460 404
f 402 460 403
f 402 459 458
f 402 458 461
f 402 461 462
f 402 462 460
f 404 460 463
f 404 463 405
f 405 463 464
f 405 464 465
f 405 465 406
f 406 465 466
f 406 466 467
f 406 467 468
f 406 468 407
f 407 468 408
f 408 468 469
f 408 469 409
f 409 469 470
f 409 470 471
f 409 471 411
f 414 472 417
f 414 473 472
f 415 420 416
f 416 420 474
f 416 474 435
f 417 472 475
f 417 475 476
f 417 476 418
f 418 476 477
f 418 477 421
f 419 422 478
f 419 478 479
f 419 479 420
f 420 479 474
f 421 477 480
f 421 480 422
f 422 480 478
f 423 428 424
f 423 425 428
f 425 426 428
f 428 443 481
f 428 481 429
f 429 481 482
f 429 482 430
f 435 483 436
f 435 474 484
f 435 484 483
f 436 483 437
f 437 483 485
f 437 485 438
f 438 485 486
f 438 486 487
f 438 487 488
f 438 488 441
f 439 442 440
f 440 442 489
f 440 489 445
f 441 488 442
f 442 488 490
f 442 490 489
f 443 444 491
f 443 491 481
f 444 445 492
f 444 492 491
f 445 489 493
f 445 493 492
f 450 494 451
f 451 494 452
f 452 495 453
f 453 495 535
f 453 535 496
f 453 496 454
f 454 496 497
f 454 497 498
f 454 498 499
f 454 499 456
f 454 456 455
f 456 499 500
f 456 500 458
f 456 458 457
f 458 500 461
f 460 462 463
f 461 500 501
f 461 501 502
f 461 502 462
f 462 464 463
f 462 502 503
f 462 503 504
f 462 504 464
f 464 504 465
f 465 504 505
f 465 505 466
f 466 506 507
f 466 507 467
f 466 505 508
f 466 508 506
f 467 507 468
f 468 507 469
f 469 507 470
f 470 509 471
f 470 507 510
f 470 510 509
f 471 509 511
f 472 473 512
f 472 512 475
f 474 479 484
f 475 512 513
f 475 513 514
f 475 514 476
f 476 514 515
f 476 515 477
f 477 515 516
f 477 516 517
f 477 517 480
f 478 518 479
f 478 480 519
f 478 519 518
f 479 518 520
f 479 520 521
f 479 521 522
f 479 522 484
f 480 517 523
f 480 523 519
f 481 491 524
f 483 484 522
f 483 522 521
f 483 521 485
f 485 521 525
f 485 525 486
f 486 525 526
f 486 526 527
f 486 527 528
f 486 528 487
f 487 528 529
f 487 529 490
f 487 490 488
f 489 490 530
f 489 530 493
f 490 529 531
f 490 531 532
f 490 532 530
f 491 492 524
f 492 493 533
f 493 530 534
f 493 534 533
f 496 535 497
f 497 536 498
f 498 536 537
f 498 537 538
f 498 538 539
f 498 539 499
f 499 539 501
f 499 501 500
f 501 539 540
f 501 540 541
f 501 541 502
f 502 541 542
f 502 542 543
f 502 543 503
f 503 543 544
f 503 544 504
f 504 544 545
f 504 545 505
f 505 545 546
f 505 546 508
f 506 547 510
f 506 510 507
f 506 508 548
f 506 548 547
f 508 546 548
f 509 510 511
f 510 547 549
f 510 549 511
f 513 550 514
f 514 550 551
f 514 551 552
f 514 552 515
f 515 552 553
f 515 553 516
f 516 553 554
f 516 554 555
f 516 555 517
f 517 555 556
f 517 556 523
f 518 519 557
f 518 557 558
f 518 558 520
f 519 523 559
f 519 559 557
f 520 560 521
f 520 558 560
f 521 560 525
f 523 556 561
f 523 561 559
f 525 560 562
f 525 562 526
f 526 562 527
f 527 529 528
f 527 562 563
f 527 563 564
f 527 564 529
f 529 564 565
f 529 565 566
f 529 566 531
f 530 532 567
f 530 567 534
f 531 566 568
f 531 568 569
f 531 569 532
f 532 570 571
f 532 571 567
f 532 569 570
f 537 572 573
f 537 573 538
f 538 573 539
f 539 573 540
f 540 573 574
f 540 574 575
f 540 575 576
f 540 576 541
f 541 576 577
f 541 577 542
f 542 577 578
f 542 578 543
f 543 578 579
f 543 579 580
f 543 580 544
f 544 580 581
f 544 581 545
f 545 581 582
f 545 582 546
f 546 583 548
f 546 582 584
f 546 584 583
f 547 548 549
f 548 583 549
f 549 583 585
f 551 586 552
f 552 586 587
f 552 587 588
f 552 588 589
f 552 589 553
f 553 589 590
f 553 590 591
f 553 591 554
f 554 591 592
f 554 592 555
f 555 592 593
f 555 593 556
f 556 593 594
f 556 594 561
f 557 559 595
f 557 595 558
f 558 595 596
f 558 596 560
f 559 597 595
f 559 561 598
f 559 598 599
f 559 599 597
f 560 596 600
f 560 600 562
f 561 594 601
f 561 601 602
f 561 602 603
f 561 603 598
f 562 564 563
f 562 600 604
f 562 604 605
f 562 605 564
f 564 605 606
f 564 606 565
f 565 606 607
f 565 607 566
f 566 607 608
f 566 608 568
f 567 571 570
f 568 608 569
f 569 608 609
f 572 574 573
f 574 610 575
f 575 610 576
f 576 610 577
f 577 610 611
f 577 611 612
f 577 612 578
f 578 612 613
f 578 613 614
f 578 614 579
f 579 614 615
f 579 615 580
f 580 615 616
f 580 616 581
f 581 616 617
f 581 617 582
f 582 617 618
f 582 618 584
f 583 584 619
f 583 619 585
f 584 620 619
f 584 618 620
f 585 619 620
f 587 621 588
f 588 621 589
f 589 621 622
f 589 622 623
f 589 623 590
f 590 623 624
f 590 624 591
f 591 624 625
f 591 625 592
f 592 625 626
f 592 626 593
f 593 626 627
f 593 627 594
f 594 627 628
f 594 628 602
f 594 602 601
f 595 600 596
f 595 597 629
f 595 629 600
f 597 630 629
f 597 599 631
f 597 631 630
f 598 603 632
f 598 632 599
f 599 632 631
f 600 629 604
f 602 633 603
f 602 628 634
f 602 634 635
f 602 635 633
f 603 633 632
f 604 629 636
f 604 636 637
f 604 637 605
f 605 637 638
f 605 638 639
f 605 639 606
f 606 639 607
f 607 639 640
f 607 640 641
f 607 641 608
f 608 641 609
f 610 642 643
f 610 643 611
f 611 643 612
f 612 643 644
f 612 644 613
f 613 644 645
f 613 645 614
f 614 645 646
f 614 646 615
f 615 646 647
f 615 647 616
f 616 647 648
f 616 648 617
f 617 648 618
f 618 648 649
f 618 649 650
f 618 650 651
f 618 651 620
f 621 652 622
f 622 652 653
f 622 653 654
f 622 654 655
f 622 655 623
f 623 655 656
f 623 656 624
f 624 656 625
f 625 656 657
f 625 657 626
f 626 657 658
f 626 658 627
f 627 658 659
f 627 659 634
f 627 634 628
f 629 630 636
f 630 631 660
f 630 660 636
f 631 632 661
f 631 661 662
f 631 662 663
f 631 663 660
f 632 633 664
f 632 664 661
f 633 635 665
f 633 665 666
f 633 666 664
f 634 667 668
f 634 668 635
f 634 659 667
f 635 669 670
f 635 670 665
f 635 668 671
f 635 671 669
f 636 660 672
f 636 672 638
f 636 638 637
f 638 673 639
f 638 672 674
f 638 674 673
f 639 673 674
f 639 674 675
f 639 675 640
f 640 675 676
f 642 677 643
f 643 677 644
f 644 677 678
f 644 678 679
f 644 679 645
f 645 679 680
f 645 680 646
f 646 680 647
f 647 680 681
f 647 681 648
f 648 681 682
f 648 682 683
f 648 683 649
f 649 684 650
f 649 683 684
f 650 684 685
f 652 686 653
f 653 686 654
f 654 686 687
f 654 687 655
f 655 687 688
f 655 688 656
f 656 688 689
f 656 689 657
f 657 689 690
f 657 690 658
f 658 690 691
f 658 691 667
f 658 667 659
f 660 663 672
f 661 664 692
f 661 692 693
f 661 693 662
f 662 693 672
f 662 672 663
f 667 691 668
f 668 691 694
f 668 694 695
f 668 695 696
f 668 696 671
f 672 693 674
f 674 693 675
f 675 693 676
f 677 697 678
f 678 697 698
f 678 698 699
f 678 699 679
f 679 699 700
f 679 700 701
f 679 701 680
f 680 701 702
f 680 702 681
f 681 702 703
f 681 703 682
f 682 703 704
f 682 704 705
f 682 705 683
f 683 706 685
f 683 685 684
f 683 705 707
f 683 707 706
f 685 706 707
f 685 707 708
f 685 708 709
f 686 710 687
f 687 710 711
f 687 711 712
f 687 712 713
f 687 713 688
f 688 713 689
f 689 713 714
f 689 714 690
f 690 714 715
f 690 715 691
f 691 715 716
f 691 716 717
f 691 717 694
f 694 717 718
f 694 718 695
f 699 719 701
f 699 701 700
f 699 720 719
f 701 719 702
f 702 719 721
f 702 721 703
f 703 721 722
f 703 722 723
f 703 723 704
f 704 723 724
f 704 724 705
f 705 724 725
f 705 725 707
f 707 725 708
f 708 726 727
f 708 727 728
f 708 728 709
f 708 725 729
f 708 729 730
f 708 730 731
f 708 731 732
f 708 732 726
f 710 733 734
f 710 734 712
f 710 712 711
f 712 734 735
f 712 735 713
f 713 735 736
f 713 736 714
f 714 736 737
f 714 737 738
f 714 738 739
f 714 739 715
f 715 739 738
f 715 738 740
f 715 740 716
f 716 740 717
f 717 740 741
f 717 741 742
f 717 742 743
f 717 743 718
f 719 744 721
f 719 720 744
f 720 745 744
f 721 744 746
f 721 746 722
f 722 746 747
f 722 747 723
f 723 747 748
f 723 748 724
f 724 748 729
f 724 729 725
f 729 748 749
f 729 749 750
f 729 750 730
f 730 750 731
f 731 750 751
f 731 751 752
f 731 752 753
f 731 753 732
f 733 754 735
f 733 735 734
f 735 754 755
f 735 755 756
f 735 756 757
f 735 757 736
f 736 757 758
f 736 758 737
f 737 758 759
f 737 759 760
f 737 760 738
f 738 760 761
f 738 761 740
f 740 761 762
f 740 762 741
f 741 762 742
f 742 762 763
f 744 745 746
f 745 764 746
f 745 765 764
f 746 764 766
f 746 766 747
f 747 766 749
f 747 749 748
f 749 766 767
f 749 767 751
f 749 751 750
f 751 767 786
f 751 786 768
f 751 768 752
f 752 769 770
f 752 770 753
f 752 768 771
f 752 771 769
f 755 772 773
f 755 773 774
f 755 774 775
f 755 775 756
f 756 775 757
f 757 775 776
f 757 776 758
f 758 776 777
f 758 777 778
f 758 778 759
f 759 778 760
f 760 778 779
f 760 779 761
f 761 779 780
f 761 780 762
f 762 780 781
f 762 781 782
f 762 782 763
f 764 765 783
f 764 783 784
f 764 784 766
f 765 785 783
f 766 784 767
f 767 784 786
f 768 786 787
f 768 787 788
f 768 788 771
f 769 771 789
f 771 788 790
f 771 790 791
f 771 791 789
f 772 792 793
f 772 793 794
f 772 794 773
f 773 795 774
f 773 794 796
f 773 796 795
f 774 795 797
f 774 797 776
f 774 776 775
f 776 797 777
f 777 797 798
f 777 798 778
f 778 798 799
f 778 799 779
f 779 799 800
f 779 800 780
f 780 800 801
f 780 801 781
f 783 785 784
f 784 785 802
f 784 802 786
f 785 803 802
f 786 802 804
f 786 804 787
f 787 804 805
f 787 805 806
f 787 806 807
f 787 807 788
f 788 808 790
f 788 807 809
f 788 809 810
f 788 810 808
f 792 811 812
f 792 812 813
f 792 813 814
f 792 814 815
f 792 815 793
f 793 815 816
f 793 816 794
f 794 816 796
f 795 798 797
f 795 796 817
f 795 817 818
f 795 818 798
f 796 816 819
f 796 819 820
f 796 820 817
f 798 818 821
f 798 821 799
f 799 821 822
f 799 822 800
f 800 822 823
f 800 823 824
f 800 824 801
f 802 803 804
f 803 825 804
f 804 825 805
f 805 807 806
f 805 826 807
f 807 827 828
f 807 828 809
f 807 826 827
f 809 828 829
f 809 829 830
f 809 830 831
f 809 831 810
f 811 832 833
f 811 833 812
f 812 833 834
f 812 834 835
f 812 835 836
f 812 836 837
f 812 837 813
f 813 837 815
f 813 815 814
f 815 837 838
f 815 838 816
f 816 838 819
f 817 820 818
f 818 820 839
f 818 839 840
f 818 840 821
f 819 838 841
f 819 841 820
f 820 841 839
f 821 840 842
f 821 842 822
f 822 842 843
f 822 843 823
f 826 844 845
f 826 845 827
f 827 845 828
f 828 845 846
f 828 846 847
f 828 847 848
f 828 848 829
f 832 849 833
f 833 849 834
f 834 850 851
f 834 851 835
f 834 849 850
f 835 851 836
f 836 852 853
f 836 853 837
f 836 851 852
f 837 853 838
f 838 853 841
f 839 841 853
f 839 853 854
f 839 854 840
f 840 854 855
f 840 855 842
f 842 856 843
f 842 855 876
f 842 876 856
f 844 857 845
f 844 858 857
f 845 857 859
f 845 859 846
f 846 859 848
f 846 848 847
f 848 859 860
f 849 861 850
f 850 861 862
f 850 862 863
f 850 863 864
f 850 864 865
f 850 865 866
f 850 866 851
f 851 866 867
f 851 867 868
f 851 868 869
f 851 869 870
f 851 870 871
f 851 871 852
f 852 871 872
f 852 872 873
f 852 873 854
f 852 854 853
f 854 873 874
f 854 874 855
f 855 874 875
f 855 875 876
f 857 858 860
f 857 860 859
f 858 877 860
f 860 877 878
f 860 878 879
f 864 880 865
f 865 881 866
f 865 880 881
f 866 881 882
f 866 882 867
f 867 882 883
f 867 883 868
f 878 884 879
f 879 884 886
f 879 886 887
f 879 887 885
f 880 888 889
f 880 889 881
f 881 889 890
f 881 890 891
f 881 891 892
f 881 892 893
f 881 893 894
f 881 894 882
f 882 894 883
f 885 887 895
f 885 895 896
f 885 896 897
f 885 897 898
f 885 898 899
f 888 900 889
f 889 900 890
f 891 901 902
f 891 902 903
f 891 903 892
f 892 903 893
f 893 903 904
f 898 905 899
f 899 905 906
f 899 906 907
f 899 907 908
f 901 909 902
f 902 910 903
f 902 909 910
f 903 910 904
f 904 910 911
f 904 911 912
f 907 913 908
f 908 913 915
f 908 915 914
f 909 916 911
f 909 911 910
f 911 917 918
f 911 918 919
f 911 919 912
f 911 916 917
f 914 915 921
f 914 921 922
f 914 922 920
f 916 923 917
f 917 923 918
f 918 923 924
f 920 922 926
f 920 926 925
f 923 927 924
f 924 927 928
f 925 926 929
f 926 930 929
f 927 931 928
f 928 931 933
f 928 933 932
f 929 930 934
f 930 935 934
f 932 933 936
f 933 937 936
f 934 935 938
f 935 939 940
f 935 940 941
f 935 941 938
f 936 937 939
f 937 942 939
f 939 942 940

