# https://github.com/mikedh/trimesh
v 0.02514286 0.04270366 0.12975898
v 0.02336240 0.04261346 0.12975898
v 0.02709562 0.04268978 0.12975898
v 0.01369431 0.03356556 0.11411291
v 0.01177984 0.03352393 0.11411291
v 0.02135220 0.04243306 0.12975898
v 0.02901966 0.04259958 0.12975898
v 0.01560879 0.03348230 0.11411291
v 0.00986537 0.03333659 0.11411291
v 0.01943773 0.04214164 0.12975898
v 0.00795090 0.03310067 0.11411291
v 0.03027364 0.04238449 0.12975898
v 0.03093414 0.04225265 0.12975898
v 0.01759027 0.03302435 0.11411291
v 0.01752326 0.04175308 0.12975898
v 0.00603643 0.03278150 0.11411291
v 0.00595985 0.03276762 0.11411291
v 0.00395922 0.03238600 0.11411291
v 0.03278160 0.04148247 0.12975898
v 0.01804974 0.03280231 0.11411291
v 0.01684362 0.04160043 0.12975898
v 0.00295413 0.03217784 0.11411291
v 0.00257123 0.03209458 0.11411291
v 0.03412173 0.04077474 0.12975898
v 0.01943773 0.03198356 0.11411291
v 0.01596296 0.04139921 0.12975898
v 0.00229363 0.03203213 0.11411291
v 0.03667755 0.03906091 0.12975898
v 0.02100760 0.03090808 0.11411291
v 0.01570451 0.04132982 0.12975898
v 0.00029301 0.03156725 0.11411291
v -0.00162146 0.03108849 0.11411291
v 0.03693600 0.03883193 0.12975898
v 0.02119904 0.03074156 0.11411291
v -0.00354551 0.03056116 0.11411291
v -0.00458889 0.03024198 0.11411291
v -0.00548869 0.02996444 0.11411291
v -0.00737445 0.02936772 0.11411291
v -0.00746060 0.02933997 0.11411291
v 0.01356030 0.04062903 0.12975898
v 0.03857288 0.03700709 0.12975898
v 0.02280720 0.02913875 0.11411291
v 0.02253917 0.03044320 0.11479450
v -0.00935593 0.02870162 0.11411291
v -0.01035145 0.02834081 0.11411291
v -0.01129912 0.02797307 0.11411291
v -0.01310829 0.02725840 0.11411291
v -0.01559711 0.02626618 0.11411291
v 0.01218188 0.04004619 0.12975898
v 0.03870689 0.03663935 0.12975898
v 0.02335283 0.02734166 0.11411291
v -0.01693724 0.02569722 0.11411291
v 0.01164583 0.03981027 0.12975898
v 0.03913765 0.03500184 0.12975898
v 0.02347727 0.02542661 0.11411291
v -0.01892829 0.02480908 0.11411291
v -0.00743188 0.03072074 0.12975898
v 0.03886005 0.03294803 0.12975898
v 0.02323796 0.02351156 0.11411291
v -0.01915802 0.02469806 0.11411291
v -0.00911662 0.02990893 0.12975898
v 0.03816126 0.02925670 0.12975898
v 0.02269233 0.02163121 0.11411291
v -0.02034500 0.02407359 0.11411291
v -0.01125125 0.02881263 0.12975898
v 0.03752949 0.02731390 0.12975898
v 0.02235730 0.02063900 0.11411291
v -0.02061302 0.02392094 0.11411291
v -0.01289770 0.02790368 0.12975898
v -0.01217020 0.02831306 0.12975898
v 0.03723275 0.02671025 0.12975898
v 0.02052898 0.01655911 0.11411291
v 0.02106503 0.01770398 0.11411291
v 0.02203184 0.01984800 0.11411291
v -0.02071832 0.02385849 0.11411291
v -0.01554924 0.02636332 0.12975898
v 0.03659140 0.02562783 0.12975898
v 0.01849964 0.01295799 0.11411291
v 0.01894954 0.01372124 0.11411291
v 0.01998336 0.01554608 0.11411291
v -0.02231690 0.02290791 0.11411291
v -0.01691809 0.02553763 0.12975898
v -0.02328371 0.02232507 0.11411291
v 0.03580647 0.02447603 0.12975898
v 0.01804974 0.01229883 0.11411291
v -0.01726270 0.02532253 0.12975898
v -0.02265193 0.02171447 0.12975898
v -0.02142667 0.02258180 0.12975898
v -0.01900486 0.02421930 0.12975898
v -0.01824865 0.02470500 0.12975898
v -0.02475785 0.02127734 0.11411291
v -0.04291662 0.00731693 0.12975898
v 0.03535657 0.02386543 0.12975898
v 0.01689148 0.01065439 0.11411291
v 0.01789658 0.01207680 0.11411291
v -0.02638515 0.02004922 0.11411291
v -0.04328994 0.00703939 0.12975898
v 0.03510768 0.02353238 0.12975898
v 0.01612569 0.00973850 0.11411291
v 0.03340380 0.02148550 0.12975898
v -0.02775400 0.01896680 0.11411291
v -0.04508954 0.00567249 0.12975898
v 0.01605869 0.00966217 0.11411291
v 0.03226469 0.02029207 0.12975898
v 0.00321258 -0.00429824 0.11411291
v 0.00413153 -0.00333378 0.11411291
v 0.00510791 -0.00229993 0.11411291
v 0.00595985 -0.00138404 0.11411291
v 0.00695537 -0.00030162 0.11411291
v 0.01330185 0.00662308 0.11411291
v 0.01429737 0.00771243 0.11411291
v 0.01513017 0.00862832 0.11411291
v -0.02874953 0.01806479 0.11411291
v -0.04819099 0.00311216 0.12975898
v -0.04597977 0.00495088 0.12975898
v 0.03150848 0.01958433 0.12975898
v 0.01016211 0.00091263 0.12975898
v 0.00894642 -0.00014897 0.12975898
v 0.00220748 -0.00517250 0.11411291
v -0.02973548 0.01714195 0.11411291
v -0.04922481 0.00215464 0.12975898
v 0.00854438 -0.00048202 0.12975898
v -0.00094182 -0.00787160 0.11411291
v 0.00018771 -0.00691408 0.11411291
v -0.03069272 0.01617749 0.11411291
v -0.05212523 -0.00066936 0.12975898
v -0.05019161 0.00124568 0.12975898
v 0.00778817 -0.00110649 0.12975898
v 0.00684051 -0.00186280 0.12975898
v 0.00644804 -0.00216116 0.12975898
v 0.00568225 -0.00273012 0.12975898
v -0.00189906 -0.00856546 0.11411291
v -0.03158295 0.01521997 0.11411291
v -0.05304418 -0.00164076 0.12975898
v 0.00461015 -0.00350030 0.12975898
v -0.00321047 -0.00948829 0.11411291
v -0.03254976 0.01407511 0.11411291
v -0.05400141 -0.00267461 0.12975898
v 0.00431340 -0.00370846 0.12975898
v -0.00422514 -0.01017521 0.11411291
v 0.00335617 -0.00437456 0.12975898
v -0.03332512 0.01311758 0.11411291
v -0.05479592 -0.00365989 0.12975898
v -0.00541211 -0.01085519 0.11411291
v 0.00249465 -0.00490883 0.12975898
v 0.00220748 -0.00508229 0.12975898
v -0.01499405 -0.01544853 0.12975898
v -0.01693724 -0.01656563 0.12975898
v -0.01858368 -0.01750928 0.12975898
v -0.03408133 0.01207680 0.11411291
v -0.05577230 -0.00491577 0.12975898
v -0.00685754 -0.01162537 0.11411291
v -0.02919943 -0.02352502 0.12975898
v -0.02953446 -0.02371237 0.12975898
v -0.03261676 -0.02543313 0.12975898
v -0.03499071 0.01073765 0.11411291
v -0.05627963 -0.00561657 0.12975898
v -0.00692455 -0.01166006 0.11411291
v -0.03281778 -0.02553027 0.12975898
v -0.00788178 -0.01212495 0.11411291
v -0.03548847 0.00981482 0.11411291
v -0.05604032 -0.00647695 0.12862707
v -0.05643279 -0.00584554 0.12975898
v -0.03303795 -0.02562741 0.12975898
v -0.00928892 -0.01272166 0.11411291
v -0.03632126 0.00825364 0.11411291
v -0.05634664 -0.00775365 0.12820280
v -0.05681569 -0.00711530 0.12930254
v -0.05712200 -0.00711530 0.12975898
v -0.03415791 -0.02609229 0.12975898
v -0.03593837 -0.02678615 0.12975898
v -0.01145227 -0.01356123 0.11411291
v -0.03695304 0.00690756 0.11411291
v -0.05578187 -0.00903728 0.12693150
v -0.05659552 -0.00903728 0.12789033
v -0.05763890 -0.00891933 0.12938372
v -0.05780164 -0.00864179 0.12975898
v -0.03639784 -0.02695962 0.12975898
v -0.01285941 -0.01400530 0.11411291
v -0.03722107 0.00595004 0.11411291
v -0.05403971 -0.01095233 0.12476878
v -0.05376210 -0.00903728 0.12502457
v -0.05482464 -0.00903728 0.12598340
v -0.05605947 -0.01095233 0.12663283
v -0.05684441 -0.01095233 0.12759013
v -0.05780164 -0.01095233 0.12883538
v -0.05818454 -0.00981440 0.12975898
v -0.05802180 -0.00923850 0.12975898
v -0.03716363 -0.02718859 0.12975898
v -0.01296471 -0.01403305 0.11411291
v -0.03764225 0.00436804 0.11411291
v -0.05413542 -0.01286737 0.12468760
v -0.05510223 -0.01095233 0.12572608
v -0.03791985 0.00252932 0.11411291
v -0.03792942 0.00245300 0.11411291
v -0.05615520 -0.01286737 0.12653021
v -0.05694970 -0.01286737 0.12748750
v -0.05790693 -0.01286737 0.12869446
v -0.05865358 -0.01286737 0.12975898
v -0.05845256 -0.01101477 0.12975898
v -0.05844299 -0.01095233 0.12975898
v -0.03800600 -0.02741063 0.12975898
v -0.01495576 -0.01448406 0.11411291
v -0.03879093 -0.02759102 0.12975898
v -0.05317819 -0.01286737 0.12403051
v -0.05308247 -0.01478242 0.12408565
v -0.05403971 -0.01478242 0.12476418
v -0.05513095 -0.01478242 0.12572148
v -0.05519796 -0.01286737 0.12564490
v -0.03801557 0.00053795 0.11411291
v -0.05608819 -0.01478242 0.12659607
v -0.05691141 -0.01478242 0.12755336
v -0.05786865 -0.01478242 0.12872203
v -0.05856742 -0.01478242 0.12967933
v -0.05862486 -0.01478242 0.12975898
v -0.01502276 -0.01449794 0.11411291
v -0.03990133 -0.02783388 0.12975898
v -0.03793899 -0.00137710 0.11411291
v -0.03762311 -0.00329214 0.11411291
v -0.05123500 -0.01467141 0.12306709
v -0.05140730 -0.01669747 0.12349442
v -0.05279530 -0.01669747 0.12426333
v -0.05375253 -0.01669747 0.12499393
v -0.05490121 -0.01669747 0.12595123
v -0.05585845 -0.01669747 0.12682276
v -0.05672954 -0.01669747 0.12778158
v -0.05768677 -0.01669747 0.12892881
v -0.05833769 -0.01669747 0.12975898
v -0.05851956 -0.01553179 0.12975898
v -0.01693724 -0.01478936 0.11411291
v -0.04192110 -0.02810448 0.12975898
v -0.03992047 -0.02771592 0.12956599
v -0.03718278 -0.00497822 0.11411291
v -0.05144559 -0.01859864 0.12410862
v -0.05253684 -0.01794641 0.12444406
v -0.03647442 -0.00669898 0.11411291
v -0.03635955 -0.00696959 0.11411291
v -0.03556505 -0.00848914 0.11411291
v -0.03550761 -0.00858628 0.11411291
v -0.05459489 -0.01823089 0.12622540
v -0.05641365 -0.01861251 0.12815225
v -0.05783993 -0.01836966 0.12975898
v -0.01885171 -0.01496282 0.11411291
v -0.04141376 -0.02720940 0.12843867
v -0.04374942 -0.02818081 0.12975898
v -0.04195938 -0.02773673 0.12918919
v -0.04949284 -0.01861251 0.12329224
v -0.05082339 -0.01995860 0.12436901
v -0.05210609 -0.01922311 0.12473814
v -0.05338878 -0.01873047 0.12548101
v -0.03473225 -0.00954380 0.11411291
v -0.05424072 -0.01950759 0.12651489
v -0.05523624 -0.01876516 0.12707089
v -0.05620306 -0.01959085 0.12838813
v -0.05763890 -0.01887618 0.12975898
v -0.05745703 -0.01866108 0.12943426
v -0.02068960 -0.01502527 0.11411291
v -0.04195938 -0.02661269 0.12763148
v -0.04268688 -0.02723716 0.12839426
v -0.04374942 -0.02791020 0.12935921
v -0.04555859 -0.02806285 0.12975898
v -0.04476408 -0.02724410 0.12838660
v -0.04952155 -0.02056919 0.12408412
v -0.03378459 -0.01049438 0.11411291
v -0.04890892 -0.02174875 0.12438892
v -0.05018204 -0.02123529 0.12470904
v -0.05144559 -0.02056919 0.12506592
v -0.05251770 -0.02165855 0.12636632
v -0.05292930 -0.02052756 0.12604313
v -0.05388654 -0.02052756 0.12681203
v -0.05519796 -0.02034716 0.12788727
v -0.05581059 -0.02086755 0.12879249
v -0.05652851 -0.02112428 0.12975898
v -0.05666253 -0.02034716 0.12940210
v -0.05694013 -0.02039573 0.12975898
v -0.05713158 -0.01999329 0.12975898
v -0.02076618 -0.01502527 0.11411291
v -0.04183494 -0.02551639 0.12627748
v -0.04374942 -0.02552333 0.12627595
v -0.04374942 -0.02648085 0.12742777
v -0.04374942 -0.02724410 0.12838507
v -0.04757836 -0.02766041 0.12975898
v -0.04551073 -0.02772286 0.12925506
v -0.04603721 -0.02711921 0.12854742
v -0.04563517 -0.02627964 0.12745228
v -0.04522356 -0.02544007 0.12635866
v -0.03263591 -0.01144497 0.11411291
v -0.04757836 -0.02207486 0.12416683
v -0.04757836 -0.02303239 0.12487446
v -0.04949284 -0.02369155 0.12623459
v -0.05045964 -0.02340707 0.12648119
v -0.05122543 -0.02235240 0.12611053
v -0.03166910 -0.01214576 0.11411291
v -0.05173276 -0.02293525 0.12687024
v -0.05265171 -0.02366380 0.12814765
v -0.05322605 -0.02235240 0.12751967
v -0.05452789 -0.02176956 0.12816910
v -0.05586802 -0.02208180 0.12975898
v -0.02268065 -0.01495588 0.11411291
v -0.04374942 -0.02450336 0.12531865
v -0.04923438 -0.02709145 0.12975898
v -0.04757836 -0.02693880 0.12878943
v -0.04649668 -0.02528048 0.12651795
v -0.04757836 -0.02598128 0.12764373
v -0.04496511 -0.02347645 0.12450533
v -0.04624780 -0.02328911 0.12466769
v -0.03033854 -0.01286737 0.11411291
v -0.02868252 -0.01364449 0.11411291
v -0.02831877 -0.01377633 0.11411291
v -0.04757836 -0.02413562 0.12583176
v -0.04949284 -0.02464907 0.12710612
v -0.04757836 -0.02509314 0.12668644
v -0.05052664 -0.02535681 0.12835443
v -0.05112971 -0.02417031 0.12761310
v -0.05179977 -0.02494049 0.12878637
v -0.05294845 -0.02498906 0.12975898
v -0.05348451 -0.02453805 0.12975898
v -0.05408757 -0.02397603 0.12975898
v -0.05392483 -0.02304626 0.12872663
v -0.05541812 -0.02261607 0.12975898
v -0.02459512 -0.01473385 0.11411291
v -0.04980871 -0.02682778 0.12975898
v -0.04956941 -0.02665432 0.12938984
v -0.04949284 -0.02562047 0.12806495
v -0.02721795 -0.01413713 0.11411291
v -0.02664361 -0.01428978 0.11411291
v -0.05130201 -0.02607842 0.12975898
v -0.05126371 -0.02580088 0.12939750
v -0.05201993 -0.02566211 0.12975898
v -0.05486292 -0.02320585 0.12975898
f 1 2 6
f 1 6 10
f 1 10 15
f 1 15 21
f 1 21 26
f 1 26 30
f 1 30 40
f 1 40 49
f 1 49 53
f 1 53 57
f 1 57 61
f 1 61 65
f 1 65 70
f 1 70 69
f 1 69 76
f 1 76 82
f 1 82 86
f 1 86 90
f 1 90 89
f 1 89 88
f 1 88 87
f 1 87 92
f 1 92 97
f 1 97 102
f 1 102 115
f 1 115 114
f 1 114 121
f 1 121 127
f 1 127 126
f 1 126 134
f 1 134 138
f 1 138 143
f 1 143 151
f 1 151 157
f 1 157 163
f 1 163 169
f 1 169 177
f 1 177 188
f 1 188 187
f 1 187 201
f 1 201 200
f 1 200 199
f 1 199 215
f 1 215 229
f 1 229 228
f 1 228 242
f 1 242 255
f 1 255 276
f 1 276 275
f 1 275 273
f 1 273 298
f 1 298 320
f 1 320 330
f 1 330 318
f 1 318 317
f 1 317 316
f 1 316 329
f 1 329 327
f 1 327 322
f 1 322 301
f 1 301 282
f 1 282 261
f 1 261 245
f 1 245 231
f 1 231 217
f 1 217 204
f 1 204 202
f 1 202 189
f 1 189 178
f 1 178 171
f 1 171 170
f 1 170 164
f 1 164 159
f 1 159 155
f 1 155 154
f 1 154 153
f 1 153 149
f 1 149 148
f 1 148 147
f 1 147 146
f 1 146 145
f 1 145 141
f 1 141 139
f 1 139 135
f 1 135 131
f 1 131 130
f 1 130 129
f 1 129 128
f 1 128 122
f 1 122 118
f 1 118 117
f 1 117 116
f 1 116 104
f 1 104 100
f 1 100 98
f 1 98 93
f 1 93 84
f 1 84 77
f 1 77 71
f 1 71 66
f 1 66 62
f 1 62 58
f 1 58 54
f 1 54 50
f 1 50 41
f 1 41 33
f 1 33 28
f 1 28 24
f 1 24 19
f 1 19 13
f 1 13 12
f 1 12 7
f 1 7 3
f 1 3 4
f 1 4 5
f 1 5 2
f 2 5 6
f 3 7 8
f 3 8 4
f 4 8 14
f 4 14 20
f 4 20 25
f 4 25 29
f 4 29 34
f 4 34 42
f 4 42 51
f 4 51 55
f 4 55 59
f 4 59 63
f 4 63 67
f 4 67 74
f 4 74 73
f 4 73 72
f 4 72 80
f 4 80 79
f 4 79 78
f 4 78 85
f 4 85 95
f 4 95 94
f 4 94 99
f 4 99 103
f 4 103 112
f 4 112 111
f 4 111 110
f 4 110 109
f 4 109 108
f 4 108 107
f 4 107 106
f 4 106 105
f 4 105 119
f 4 119 124
f 4 124 123
f 4 123 132
f 4 132 136
f 4 136 140
f 4 140 144
f 4 144 152
f 4 152 158
f 4 158 160
f 4 160 165
f 4 165 172
f 4 172 179
f 4 179 190
f 4 190 203
f 4 203 216
f 4 216 230
f 4 230 243
f 4 243 257
f 4 257 277
f 4 277 299
f 4 299 321
f 4 321 326
f 4 326 325
f 4 325 309
f 4 309 308
f 4 308 307
f 4 307 293
f 4 293 287
f 4 287 264
f 4 264 251
f 4 251 239
f 4 239 238
f 4 238 237
f 4 237 236
f 4 236 233
f 4 233 219
f 4 219 218
f 4 218 210
f 4 210 195
f 4 195 194
f 4 194 191
f 4 191 180
f 4 180 173
f 4 173 166
f 4 166 161
f 4 161 156
f 4 156 150
f 4 150 142
f 4 142 137
f 4 137 133
f 4 133 125
f 4 125 120
f 4 120 113
f 4 113 101
f 4 101 96
f 4 96 91
f 4 91 83
f 4 83 81
f 4 81 75
f 4 75 68
f 4 68 64
f 4 64 60
f 4 60 56
f 4 56 52
f 4 52 48
f 4 48 47
f 4 47 46
f 4 46 45
f 4 45 44
f 4 44 39
f 4 39 38
f 4 38 37
f 4 37 36
f 4 36 35
f 4 35 32
f 4 32 31
f 4 31 27
f 4 27 23
f 4 23 22
f 4 22 18
f 4 18 17
f 4 17 16
f 4 16 11
f 4 11 9
f 4 9 5
f 5 9 6
f 6 9 11
f 6 11 10
f 7 12 8
f 8 12 13
f 8 13 14
f 10 11 16
f 10 16 17
f 10 17 18
f 10 18 15
f 13 19 14
f 14 19 20
f 15 18 22
f 15 22 23
f 15 23 21
f 19 24 20
f 20 24 25
f 21 23 27
f 21 27 26
f 24 28 25
f 25 28 29
f 26 27 31
f 26 31 32
f 26 32 30
f 28 33 34
f 28 34 29
f 30 32 35
f 30 35 36
f 30 36 37
f 30 37 38
f 30 38 39
f 30 39 40
f 33 41 42
f 33 42 43
f 33 43 34
f 34 43 42
f 39 44 40
f 40 44 45
f 40 45 46
f 40 46 47
f 40 47 48
f 40 48 49
f 41 50 42
f 42 50 51
f 48 52 49
f 49 52 53
f 50 54 51
f 51 54 55
f 52 56 53
f 53 56 57
f 54 58 59
f 54 59 55
f 56 60 61
f 56 61 57
f 58 62 59
f 59 62 63
f 60 64 65
f 60 65 61
f 62 66 63
f 63 66 67
f 64 68 69
f 64 69 70
f 64 70 65
f 66 71 72
f 66 72 73
f 66 73 74
f 66 74 67
f 68 75 76
f 68 76 69
f 71 77 78
f 71 78 79
f 71 79 80
f 71 80 72
f 75 81 76
f 76 81 83
f 76 83 82
f 77 84 78
f 78 84 85
f 82 83 86
f 83 87 88
f 83 88 89
f 83 89 90
f 83 90 86
f 83 91 92
f 83 92 87
f 84 93 94
f 84 94 95
f 84 95 85
f 91 96 97
f 91 97 92
f 93 98 94
f 94 98 100
f 94 100 99
f 96 101 102
f 96 102 97
f 99 100 103
f 100 104 105
f 100 105 106
f 100 106 107
f 100 107 108
f 100 108 109
f 100 109 110
f 100 110 111
f 100 111 112
f 100 112 103
f 101 113 114
f 101 114 115
f 101 115 102
f 104 116 105
f 105 117 118
f 105 118 119
f 105 116 117
f 113 120 121
f 113 121 114
f 118 122 123
f 118 123 124
f 118 124 119
f 120 125 126
f 120 126 127
f 120 127 121
f 122 128 123
f 123 129 130
f 123 130 131
f 123 131 132
f 123 128 129
f 125 133 134
f 125 134 126
f 131 135 132
f 132 135 136
f 133 137 138
f 133 138 134
f 135 139 136
f 136 139 141
f 136 141 140
f 137 142 138
f 138 142 143
f 140 141 145
f 140 145 146
f 140 146 147
f 140 147 148
f 140 148 149
f 140 149 144
f 142 150 151
f 142 151 143
f 144 149 153
f 144 153 154
f 144 154 155
f 144 155 152
f 150 156 157
f 150 157 151
f 152 155 158
f 155 159 160
f 155 160 158
f 156 161 162
f 156 162 163
f 156 163 157
f 159 164 160
f 160 164 165
f 161 166 162
f 162 167 168
f 162 168 169
f 162 169 163
f 162 166 167
f 164 170 165
f 165 170 171
f 165 171 172
f 166 173 167
f 167 174 175
f 167 175 176
f 167 176 177
f 167 177 168
f 167 173 174
f 168 177 169
f 171 178 172
f 172 178 179
f 173 180 181
f 173 181 182
f 173 182 183
f 173 183 174
f 174 183 184
f 174 184 175
f 175 184 185
f 175 185 186
f 175 186 187
f 175 187 188
f 175 188 176
f 176 188 177
f 178 189 179
f 179 189 202
f 179 202 190
f 180 191 181
f 181 192 209
f 181 209 193
f 181 193 182
f 181 191 194
f 181 194 195
f 181 195 192
f 182 193 183
f 183 193 184
f 184 196 197
f 184 197 185
f 184 193 196
f 185 197 198
f 185 198 186
f 186 198 199
f 186 199 200
f 186 200 201
f 186 201 187
f 190 202 204
f 190 204 203
f 192 205 206
f 192 206 207
f 192 207 208
f 192 208 209
f 192 195 205
f 193 209 196
f 195 210 205
f 196 209 211
f 196 211 212
f 196 212 197
f 197 212 213
f 197 213 198
f 198 213 214
f 198 214 215
f 198 215 199
f 203 204 217
f 203 217 216
f 205 210 218
f 205 218 206
f 206 218 219
f 206 219 220
f 206 220 221
f 206 221 222
f 206 222 207
f 207 222 223
f 207 223 224
f 207 224 208
f 208 224 225
f 208 225 211
f 208 211 209
f 211 225 226
f 211 226 212
f 212 226 227
f 212 227 213
f 213 228 229
f 213 229 214
f 213 227 228
f 214 229 215
f 216 217 230
f 217 231 232
f 217 232 230
f 219 233 220
f 220 233 221
f 221 234 235
f 221 235 222
f 221 233 236
f 221 236 237
f 221 237 238
f 221 238 239
f 221 239 234
f 222 235 223
f 223 240 224
f 223 235 240
f 224 240 225
f 225 241 226
f 225 240 241
f 226 242 227
f 226 241 242
f 227 242 228
f 230 232 244
f 230 244 243
f 231 245 246
f 231 246 244
f 231 244 232
f 234 247 248
f 234 248 249
f 234 249 235
f 234 239 247
f 235 249 250
f 235 250 240
f 239 251 247
f 240 250 252
f 240 252 253
f 240 253 241
f 241 253 254
f 241 254 255
f 241 255 256
f 241 256 242
f 242 256 255
f 243 244 258
f 243 258 257
f 244 246 259
f 244 259 258
f 245 260 259
f 245 259 246
f 245 261 262
f 245 262 260
f 247 263 248
f 247 251 264
f 247 264 263
f 248 263 265
f 248 265 266
f 248 266 267
f 248 267 249
f 249 268 269
f 249 269 252
f 249 252 250
f 249 267 268
f 252 269 270
f 252 270 271
f 252 271 254
f 252 254 253
f 254 272 273
f 254 273 274
f 254 274 275
f 254 275 276
f 254 276 255
f 254 271 272
f 257 258 278
f 257 278 279
f 257 279 277
f 258 259 280
f 258 280 278
f 259 260 281
f 259 281 280
f 260 262 281
f 261 282 283
f 261 283 262
f 262 283 284
f 262 284 285
f 262 285 286
f 262 286 279
f 262 279 280
f 262 280 281
f 263 264 287
f 263 287 265
f 265 288 289
f 265 289 290
f 265 290 291
f 265 291 292
f 265 292 266
f 265 287 293
f 265 293 288
f 266 292 268
f 266 268 267
f 268 292 294
f 268 294 295
f 268 295 296
f 268 296 297
f 268 297 270
f 268 270 269
f 270 297 271
f 271 297 272
f 272 298 273
f 272 297 298
f 273 275 274
f 277 279 299
f 278 280 279
f 279 286 300
f 279 300 299
f 282 301 302
f 282 302 284
f 282 284 283
f 284 303 285
f 284 302 304
f 284 304 303
f 285 303 286
f 286 305 300
f 286 303 305
f 288 306 289
f 288 293 307
f 288 307 308
f 288 308 309
f 288 309 306
f 289 306 310
f 289 310 290
f 290 311 291
f 290 310 312
f 290 312 311
f 291 311 313
f 291 313 314
f 291 314 294
f 291 294 292
f 294 314 295
f 295 314 315
f 295 315 316
f 295 316 317
f 295 317 318
f 295 318 319
f 295 319 296
f 296 319 297
f 297 319 320
f 297 320 298
f 299 300 321
f 300 305 321
f 301 322 323
f 301 323 324
f 301 324 302
f 302 324 304
f 303 306 305
f 303 304 312
f 303 312 310
f 303 310 306
f 304 324 312
f 305 306 309
f 305 309 325
f 305 325 326
f 305 326 321
f 311 312 324
f 311 324 313
f 313 324 323
f 313 323 322
f 313 322 327
f 313 327 328
f 313 328 329
f 313 329 315
f 313 315 314
f 315 329 316
f 318 330 319
f 319 330 320
f 327 329 328

