# https://github.com/mikedh/trimesh
v -0.02548110 0.05735054 0.00322227
v -0.02523835 0.05735054 0.00536913
v -0.02520598 0.05949643 0.00536913
v -0.02534084 0.05949643 0.00322227
v -0.02534084 0.05735054 0.00107541
v -0.02514125 0.04018350 -0.00321314
v -0.02516822 0.04018350 -0.00106628
v -0.02511428 0.03803762 -0.00106628
v -0.02493087 0.03589174 0.00107541
v -0.02478522 0.03589174 0.00322227
v -0.02340966 0.04662115 0.01010775
v -0.02453169 0.05949643 0.00751599
v -0.02470970 0.03374586 0.00322227
v -0.02428355 0.03374586 0.00536913
v -0.02381963 0.03589174 0.00726251
v -0.02491469 0.06164231 0.00536913
v -0.02443998 0.06164231 0.00751599
v -0.02247104 0.07023293 0.01180972
v -0.02293496 0.07023293 0.00966285
v -0.02494166 0.06164231 0.00322227
v -0.02519519 0.05949643 0.00107541
v -0.02374411 0.06797336 0.00536913
v -0.02515743 0.05735054 -0.00106628
v -0.02484456 0.04018350 -0.00536001
v -0.02487153 0.03803762 -0.00536001
v -0.02508191 0.03803762 -0.00321314
v -0.02465036 0.02945410 -0.00321314
v -0.02467194 0.02945410 -0.00106628
v -0.02482298 0.03374586 0.00107541
v -0.02337190 0.06164231 0.01027846
v -0.02382503 0.06164231 0.00920762
v -0.02208804 0.02730822 0.01180972
v -0.02159176 0.02730822 0.01344444
v -0.02126271 0.02730822 0.01452045
v -0.02470970 0.03159998 0.00107541
v -0.02311297 0.00626865 -0.00106628
v -0.02455866 0.03159998 0.00322227
v -0.02395449 0.02945410 0.00536913
v -0.02036185 0.00626865 0.01395658
v -0.02320468 0.07023293 0.00751599
v -0.02176438 0.07023293 0.01329441
v -0.02159176 0.07237881 0.01308749
v -0.02210962 0.07237881 0.01180972
v -0.02256814 0.07237881 0.00966285
v -0.02478522 0.06164231 0.00107541
v -0.02354452 0.06904630 0.00536913
v -0.02145151 0.07885908 0.00317571
v -0.02140835 0.07885908 0.00231179
v -0.02132744 0.07885908 0.00115300
v -0.02500639 0.05949643 -0.00106628
v -0.02483917 0.05735054 -0.00321314
v -0.02454248 0.03803762 -0.00750169
v -0.02456405 0.03589174 -0.00750169
v -0.02449932 0.03374586 -0.00750169
v -0.02447774 0.02945410 -0.00536001
v -0.02306442 0.00626865 -0.00750169
v -0.02317231 0.00626865 -0.00536001
v -0.02318849 0.00626865 -0.00492546
v -0.02324244 0.00626865 -0.00321314
v -0.02154321 0.02516234 0.01327889
v -0.02121955 0.02516234 0.01435491
v -0.01970913 0.00626865 0.01575684
v -0.02026475 0.02730822 0.01610344
v -0.02322086 0.00626865 -0.00277860
v -0.02305903 0.00626865 -0.00063174
v -0.02282168 0.00626865 0.00107541
v -0.02275694 0.00626865 0.00150995
v -0.02249801 0.00626865 0.00322227
v -0.02210423 0.00626865 0.00536913
v -0.02023238 0.00626865 0.01431870
v -0.02277852 0.07237881 0.00751599
v -0.01977386 0.07023293 0.01562234
v -0.01726009 0.07885908 0.01731396
v -0.01924522 0.04018350 0.01714325
v -0.01809082 0.07885908 0.01612413
v -0.01902944 0.07885908 0.01468082
v -0.01969295 0.07885908 0.01359963
v -0.01970374 0.07885908 0.01357894
v -0.02142454 0.07345885 0.01288573
v -0.02049131 0.07885908 0.01180972
v -0.02099299 0.07885908 0.00966285
v -0.02127350 0.07885908 0.00745909
v -0.02140835 0.07885908 0.00621753
v -0.02458563 0.06164231 -0.00106628
v -0.02094444 0.07885908 -0.00321314
v -0.02146230 0.07885908 0.00518290
v -0.02067472 0.07885908 -0.00531862
v -0.02066933 0.07885908 -0.00536001
v -0.02468273 0.05949643 -0.00321314
v -0.02443459 0.05735054 -0.00536001
v -0.02415948 0.05305878 -0.00750169
v -0.02421881 0.05091290 -0.00750169
v -0.02393291 0.03600543 -0.00985031
v -0.02379806 0.05091290 -0.00919332
v -0.02392213 0.03378850 -0.00980375
v -0.02392752 0.03159998 -0.00942611
v -0.02380345 0.02730822 -0.00915193
v -0.02269221 0.00626865 -0.00964856
v -0.02276773 0.00626865 -0.00921918
v -0.01894853 0.00626865 0.01682768
v -0.01934771 0.02730822 0.01723119
v -0.01882446 0.07023293 0.01669318
v -0.01586295 0.07885908 0.01851931
v -0.01764309 0.07237881 0.01763987
v -0.01817174 0.04018350 0.01814684
v -0.01777795 0.06808705 0.01777955
v -0.02048052 0.07885908 0.01183558
v -0.02001661 0.07885908 -0.00750169
v -0.02137599 0.06459111 -0.01270590
v -0.02353373 0.06025672 -0.00841734
v -0.02368477 0.06107386 -0.00698438
v -0.02427276 0.05949643 -0.00536001
v -0.02399765 0.05735054 -0.00750169
v -0.02408396 0.05520466 -0.00750169
v -0.02376029 0.05305878 -0.00909503
v -0.02359846 0.03535883 -0.01079700
v -0.02359846 0.03453458 -0.01079700
v -0.02181833 0.05735054 -0.01391124
v -0.02339348 0.05091290 -0.01026416
v -0.02197476 0.00626865 -0.01179542
v -0.02212041 0.00626865 -0.01136605
v -0.01787505 0.00626865 0.01778989
v -0.01474093 0.03803762 0.02130764
v -0.01596005 0.03803762 0.02023162
v -0.01703353 0.03803762 0.01923838
v -0.01761073 0.00626865 0.01800717
v -0.01656422 0.00626865 0.01886591
v -0.01775098 0.07023293 0.01772781
v -0.01557166 0.07885908 0.01876762
v -0.01647791 0.07023293 0.01880383
v -0.01636463 0.07237881 0.01871071
v -0.01495131 0.07885908 0.01929528
v -0.01701735 0.04018350 0.01922286
v -0.01560402 0.06164231 0.01992123
v -0.01657501 0.06808705 0.01885039
v -0.01594387 0.04018350 0.02021610
v -0.01910496 0.07885908 -0.01014001
v -0.01934771 0.06729122 -0.01737726
v -0.01948257 0.06594117 -0.01778077
v -0.02219054 0.06164231 -0.01179542
v -0.02247104 0.05949643 -0.01179542
v -0.02325323 0.05952485 -0.00950888
v -0.02360925 0.05882140 -0.00870187
v -0.02379266 0.05952485 -0.00762068
v -0.02366320 0.05735054 -0.00882602
v -0.02371714 0.05520466 -0.00896570
v -0.02218514 0.03589174 -0.01394228
v -0.02140835 0.05735054 -0.01498726
v -0.02094444 0.05735054 -0.01608914
v -0.01996267 0.05949643 -0.01823601
v -0.02025936 0.00626865 -0.01608914
v -0.02109548 0.00626865 -0.01416473
v -0.02150545 0.00626865 -0.01309388
v -0.02258972 0.05735054 -0.01179542
v -0.02175899 0.05949643 -0.01376122
v -0.01366745 0.03803762 0.02192842
v -0.01364587 0.04018350 0.02192325
v -0.01471935 0.04018350 0.02128695
v -0.01549074 0.00626865 0.01971948
v -0.01517787 0.00626865 0.01991606
v -0.01390480 0.00626865 0.02071273
v -0.01529654 0.07237881 0.01957463
v -0.01518326 0.07452469 0.01948669
v -0.01550153 0.06808705 0.01975569
v -0.01406663 0.07885908 0.01999366
v -0.01554468 0.06594117 0.01983329
v -0.01909957 0.07885908 -0.01015553
v -0.01904562 0.06594117 -0.01885161
v -0.01845224 0.07885908 -0.01176955
v -0.01844146 0.07885908 -0.01179542
v -0.01754599 0.07885908 -0.01375605
v -0.01704971 0.07885908 -0.01481137
v -0.01921824 0.06442768 -0.01919821
v -0.02156479 0.03589174 -0.01522522
v -0.01939626 0.05949643 -0.01947239
v -0.02134902 0.05949643 -0.01483206
v -0.02084195 0.05949643 -0.01608914
v -0.01935310 0.06164231 -0.01941549
v -0.01950954 0.00626865 -0.01763074
v -0.01929916 0.06299947 -0.01934306
v -0.01176324 0.03803762 0.02280269
v -0.01176324 0.04018350 0.02284407
v -0.01365126 0.00626865 0.02085758
v -0.01267489 0.00626865 0.02139558
v -0.01245911 0.00626865 0.02150422
v -0.01160141 0.00626865 0.02190256
v -0.01120762 0.00626865 0.02208361
v -0.01301473 0.06379529 0.02155078
v -0.01414215 0.06164231 0.02099208
v -0.01419070 0.05949643 0.02102829
v -0.01408281 0.06379529 0.02095069
v -0.01398572 0.06594117 0.02090413
v -0.01390480 0.07667057 0.02024714
v -0.01221637 0.07885908 0.02121453
v -0.01510235 0.07172510 -0.02162443
v -0.01729246 0.07386387 -0.01743417
v -0.01755139 0.07237881 -0.01783767
v -0.01543680 0.07885908 -0.01792562
v -0.01482184 0.07885908 -0.01902750
v -0.01381849 0.07885908 -0.02038804
v -0.01641857 0.07885908 -0.01606845
v -0.01838212 0.06374555 -0.02009834
v -0.01808003 0.01013408 -0.02038287
v -0.01900247 0.00798820 -0.01876367
v -0.01799912 0.06159967 -0.02066739
v -0.01715220 0.06085359 -0.02147440
v -0.01726549 0.01013408 -0.02158821
v -0.01896471 0.00626865 -0.01870676
v -0.01709287 0.06228891 -0.02142785
v -0.00924947 0.04018350 0.02392009
v -0.00961628 0.00626865 0.02278199
v -0.00920631 0.04232938 0.02391491
v -0.01291224 0.06594117 0.02150422
v -0.01114289 0.07885908 0.02163872
v -0.01290684 0.07885908 -0.02150544
v -0.01405045 0.07241434 -0.02218313
v -0.01390480 0.07023293 -0.02274700
v -0.01569573 0.06594117 -0.02209518
v -0.01699037 0.06379529 -0.02133990
v -0.01802609 0.00798820 -0.02038287
v -0.01624595 0.06159967 -0.02211588
v -0.01605175 0.01013408 -0.02247283
v -0.01605175 0.00798820 -0.02241592
v -0.01722772 0.00798820 -0.02155200
v -0.01794517 0.00626865 -0.02038287
v -0.01591690 0.06379529 -0.02220899
v -0.00746933 0.04018350 0.02460294
v -0.00924407 0.00626865 0.02291132
v -0.00746933 0.04232938 0.02456156
v -0.00961628 0.07885908 0.02216639
v -0.01187113 0.07885908 -0.02164512
v -0.00961628 0.07667057 -0.02255559
v -0.00961628 0.07186721 -0.02375577
v -0.01088935 0.07145509 -0.02364196
v -0.01166614 0.07225091 -0.02328501
v -0.01233504 0.07023293 -0.02351263
v -0.01268028 0.06885445 -0.02357471
v -0.01292842 0.06741913 -0.02364196
v -0.01416912 0.06594117 -0.02317120
v -0.01734101 0.00626865 -0.02127265
v -0.01448200 0.06164231 -0.02334191
v -0.01450357 0.05949643 -0.02333674
v -0.01470856 0.01013408 -0.02341434
v -0.01468159 0.00798820 -0.02339365
v -0.01463843 0.00626865 -0.02335743
v -0.01491354 0.00626865 -0.02316086
v -0.01605175 0.00626865 -0.02233315
v -0.01717918 0.00626865 -0.02150544
v -0.01435793 0.06379529 -0.02328501
v -0.00532237 0.03803762 0.02518751
v -0.00532237 0.04018350 0.02522372
v -0.00772826 0.00626865 0.02342346
v -0.00218825 0.04791436 0.02578760
v -0.00743696 0.07885908 0.02286476
v -0.00746933 0.07885908 0.02285442
v -0.00750709 0.07885908 -0.02199172
v -0.00746933 0.07667057 -0.02276252
v -0.00685437 0.07364360 -0.02366265
v -0.00752867 0.07252092 -0.02390062
v -0.00746933 0.07023293 -0.02443345
v -0.00746933 0.06808705 -0.02484731
v -0.00746933 0.06594117 -0.02518356
v -0.00961628 0.06594117 -0.02473350
v -0.01176324 0.06594117 -0.02412306
v -0.01309565 0.06594117 -0.02370921
v -0.01340852 0.06164231 -0.02385406
v -0.01343010 0.05949643 -0.02387475
v -0.01363508 0.01013408 -0.02415410
v -0.01360811 0.00798820 -0.02413858
v -0.01356495 0.00626865 -0.02412306
v -0.01328445 0.06379529 -0.02379198
v -0.00245797 0.03589174 0.02586519
v -0.00365012 0.03803762 0.02562206
v -0.00257665 0.03803762 0.02588072
v -0.00751248 0.00626865 0.02347520
v -0.00102846 0.03589174 0.02621180
v -0.00102846 0.04662115 0.02595314
v -0.00099070 0.07885908 0.02431842
v -0.00102846 0.07885908 0.02431325
v -0.00317542 0.07885908 0.02399251
v -0.00443770 0.07885908 0.02368212
v -0.00552197 0.07885908 0.02340277
v -0.00102846 0.03803762 0.02619111
v -0.00746933 0.07885908 -0.02199172
v -0.00746933 0.07881645 -0.02200724
v -0.00618008 0.07364360 -0.02366265
v -0.00532237 0.07023293 -0.02451622
v -0.00532237 0.06808705 -0.02503871
v -0.00746933 0.06379529 -0.02528702
v -0.00961628 0.06379529 -0.02484213
v -0.00532237 0.06594117 -0.02537497
v -0.00283018 0.06164231 -0.02583021
v -0.01176324 0.06379529 -0.02425756
v -0.01176324 0.06164231 -0.02435068
v -0.01176324 0.05949643 -0.02438689
v -0.01176324 0.01013408 -0.02501285
v -0.01213545 0.00626865 -0.02477488
v -0.00637427 0.00626865 0.02374420
v 0.00111849 0.03589174 0.02630492
v -0.00532237 0.00626865 0.02398216
v -0.00317542 0.00626865 0.02439084
v -0.00102846 0.00626865 0.02451500
v 0.00111849 0.04662115 0.02595314
v 0.00326005 0.06808705 0.02509440
v 0.00326005 0.07023293 0.02500128
v 0.00111849 0.07023293 0.02489264
v 0.00111849 0.03803762 0.02626870
v 0.00111849 0.07237881 0.02477883
v 0.00326005 0.07237881 0.02487712
v 0.00111849 0.07885908 0.02440637
v -0.00558670 0.07885908 -0.02167099
v 0.00540701 0.06594117 -0.02431964
v 0.00111849 0.06808705 -0.02432999
v -0.00102846 0.06808705 -0.02463521
v -0.00317542 0.06808705 -0.02491456
v -0.00317542 0.06594117 -0.02538532
v -0.00532237 0.06164231 -0.02557155
v -0.00317542 0.03803762 -0.02616646
v -0.00508502 0.03589174 -0.02591298
v -0.00240942 0.06294973 -0.02578365
v -0.00102846 0.05949643 -0.02595954
v 0.00111849 0.04018350 -0.02652341
v -0.00102846 0.04018350 -0.02635270
v -0.00961628 0.00626865 -0.02524047
v -0.01004783 0.00626865 -0.02518356
v -0.01176324 0.00626865 -0.02494042
v 0.00288784 0.03589174 0.02595314
v 0.00313059 0.03803762 0.02595314
v 0.00755396 0.05520466 0.02505818
v 0.00111849 0.00626865 0.02442706
v 0.00326005 0.00626865 0.02426152
v 0.00548253 0.00626865 0.02384249
v 0.00540701 0.06594117 0.02502714
v 0.00540701 0.06808705 0.02492886
v 0.00540701 0.07023293 0.02477883
v 0.00326005 0.07885908 0.02436498
v 0.00115625 0.07885908 0.02440637
v -0.00532237 0.07885908 -0.02157787
v 0.00976025 0.06819363 -0.02212622
v 0.00985735 0.06596959 -0.02327467
v 0.00805564 0.06670146 -0.02347124
v 0.00742450 0.06596959 -0.02391096
v 0.00985735 0.06397293 -0.02411789
v 0.00755396 0.06379529 -0.02463003
v 0.00326005 0.06594117 -0.02465073
v 0.00540701 0.06379529 -0.02494559
v -0.00102846 0.06594117 -0.02519908
v 0.00409078 0.06038462 -0.02573709
v -0.00186459 0.06294973 -0.02578365
v -0.00102846 0.03803762 -0.02637339
v -0.00109859 0.06165652 -0.02586124
v 0.00111849 0.05949643 -0.02595436
v 0.00326005 0.04232938 -0.02648202
v 0.00326005 0.04018350 -0.02654410
v 0.00111849 0.04232938 -0.02646651
v 0.00326005 0.03803762 -0.02653376
v 0.00111849 0.03803762 -0.02648720
v 0.00111849 0.00626865 -0.02555603
v 0.00420406 0.03803762 0.02573070
v 0.00970092 0.05520466 0.02467537
v 0.00740831 0.00626865 0.02333552
v 0.00970092 0.05949643 0.02444775
v 0.01168604 0.05949643 0.02393043
v 0.00755396 0.06808705 0.02437532
v 0.00540701 0.07237881 0.02455639
v 0.00328702 0.07885908 0.02435981
v -0.00461032 0.07885908 -0.02132438
v 0.00908596 0.06945842 -0.02166064
v 0.01184787 0.06741913 -0.02170202
v 0.01184787 0.06594117 -0.02251421
v 0.01067730 0.06480428 -0.02357471
v 0.00924240 0.06526614 -0.02377129
v 0.01184787 0.06325527 -0.02384371
v 0.01184787 0.06164231 -0.02431964
v 0.00970092 0.06164231 -0.02481627
v 0.00540701 0.06164231 -0.02538532
v 0.01184787 0.05735054 -0.02520425
v 0.00970092 0.05735054 -0.02545257
v 0.01184787 0.05520466 -0.02545774
v 0.00692822 0.05661867 -0.02578365
v 0.00471113 0.05894930 -0.02579399
v 0.00333018 0.05960301 -0.02584055
v 0.00266128 0.06073279 -0.02577848
v 0.00326005 0.05735054 -0.02596988
v 0.00540701 0.04018350 -0.02649237
v 0.00540701 0.03803762 -0.02653376
v 0.00282850 0.00626865 -0.02546291
v 0.00755396 0.03803762 -0.02644581
v 0.00540701 0.03803762 0.02540478
v 0.01184787 0.05520466 0.02417875
v 0.00970092 0.00626865 0.02261645
v 0.00755396 0.04018350 0.02486160
v 0.01301305 0.05683894 0.02367178
v 0.01275952 0.05949643 0.02355279
v 0.01140014 0.06164231 0.02384249
v 0.01065032 0.06664462 0.02357866
v 0.00499164 0.07881645 0.02395630
v 0.00499164 0.07885908 0.02395113
v -0.00369867 0.07885908 -0.02098296
v 0.01051546 0.06897525 -0.02133990
v -0.00345593 0.07885908 -0.02088984
v -0.00327252 0.07885908 -0.02081741
v -0.00097992 0.07885908 -0.01990694
v 0.00023382 0.07885908 -0.01938962
v 0.01292674 0.06701411 -0.02145888
v 0.01528947 0.06503876 -0.02155718
v 0.01184787 0.06849207 -0.02103469
v 0.01184787 0.06432821 -0.02334191
v 0.01298069 0.06277919 -0.02363161
v 0.01333132 0.06164231 -0.02378164
v 0.01399483 0.05735054 -0.02455761
v 0.01184787 0.05949643 -0.02477488
v 0.01399483 0.05520466 -0.02488352
v 0.01184787 0.05305878 -0.02552499
v 0.00970092 0.04018350 -0.02617681
v 0.00755396 0.04018350 -0.02637856
v 0.00950132 0.05503413 -0.02565949
v 0.00835772 0.05563100 -0.02573192
v 0.01399483 0.05305878 -0.02501285
v 0.01282964 0.04232938 -0.02573709
v 0.00541779 0.05734344 -0.02585090
v 0.00760790 0.05503413 -0.02581469
v 0.00540701 0.05520466 -0.02594402
v 0.00326005 0.00626865 -0.02543187
v 0.00970092 0.03803762 -0.02618198
v 0.00497546 0.00626865 -0.02524047
v 0.01309397 0.05345670 0.02372351
v 0.01312094 0.05520466 0.02373903
v 0.01149184 0.00626865 0.02184565
v 0.01685384 0.05949643 0.02126108
v 0.01561313 0.06164231 0.02177323
v 0.01399483 0.05949643 0.02287511
v 0.01399483 0.06164231 0.02266301
v 0.01247362 0.06164231 0.02343381
v 0.01213377 0.06379529 0.02327344
v 0.01168065 0.06593406 0.02316998
v 0.01408114 0.06578485 0.02191807
v 0.01184787 0.06808705 0.02264232
v 0.01035903 0.06808705 0.02343898
v 0.00606512 0.07885908 0.02337173
v 0.00121559 0.07885908 -0.01893438
v 0.00128032 0.07885908 -0.01890334
v 0.01435625 0.06647409 -0.02111746
v 0.01671898 0.06439216 -0.02113815
v 0.01735551 0.06296394 -0.02156752
v 0.01606087 0.06372423 -0.02184170
v 0.01485253 0.06899656 -0.01915166
v 0.01342302 0.06949395 -0.01957585
v 0.01388694 0.06800178 -0.02034666
v 0.01614178 0.06164231 -0.02254007
v 0.01440480 0.06164231 -0.02331088
v 0.01483635 0.06017856 -0.02350228
v 0.01407035 0.05947511 -0.02401443
v 0.01525171 0.05874323 -0.02368334
v 0.01560774 0.05735054 -0.02384371
v 0.01668122 0.05735054 -0.02336778
v 0.01594219 0.05520466 -0.02400408
v 0.01175617 0.04232938 -0.02587159
v 0.01601232 0.05305878 -0.02408685
v 0.01614178 0.04447526 -0.02437137
v 0.01399483 0.04447526 -0.02534910
v 0.01701567 0.05520466 -0.02351263
v 0.01399483 0.04232938 -0.02538014
v 0.01270018 0.04018350 -0.02570605
v 0.01162670 0.04018350 -0.02589746
v 0.01135159 0.03803762 -0.02587159
v 0.00755396 0.00626865 -0.02489386
v 0.00712241 0.00626865 -0.02495594
v 0.00540701 0.00626865 -0.02518356
v 0.01697251 0.05520466 0.02132316
v 0.01419442 0.05520466 0.02306651
v 0.01287280 0.00626865 0.02112658
v 0.01430770 0.00626865 0.02036613
v 0.01556998 0.00626865 0.01964706
v 0.01691857 0.05735054 0.02129729
v 0.01827255 0.05949643 0.02018507
v 0.01812151 0.06164231 0.02006608
v 0.01668661 0.06164231 0.02114210
v 0.01530026 0.06379529 0.02160251
v 0.01399483 0.06379529 0.02232675
v 0.01510067 0.06496771 0.02148870
v 0.01485253 0.06639593 0.02134385
v 0.01099556 0.07452469 0.02161803
v 0.00755396 0.07885908 0.02250781
v 0.01077979 0.07561895 0.02147836
v 0.00313598 0.07885908 -0.01781181
v 0.01554301 0.06756123 -0.01968449
v 0.01757668 0.06530878 -0.01970518
v 0.01763602 0.06164231 -0.02176410
v 0.01603929 0.05947511 -0.02315568
v 0.01818085 0.06361765 -0.02026388
v 0.01942695 0.06284314 -0.01938962
v 0.01870950 0.06164231 -0.02075534
v 0.01939458 0.05850875 -0.02149510
v 0.01330435 0.07160430 -0.01749624
v 0.01559695 0.06961475 -0.01771869
v 0.01702646 0.06895393 -0.01697376
v 0.01628743 0.06825758 -0.01839120
v 0.01697791 0.06673700 -0.01906371
v 0.00317914 0.07885908 -0.01778594
v 0.00418249 0.07885908 -0.01703583
v 0.00655600 0.07885908 -0.01503382
v 0.01828874 0.05735054 -0.02247800
v 0.01731775 0.04447526 -0.02366783
v 0.01614178 0.04232938 -0.02439207
v 0.01828874 0.05520466 -0.02275735
v 0.01614178 0.04018350 -0.02432482
v 0.01399483 0.04018350 -0.02530772
v 0.01399483 0.03803762 -0.02519908
v 0.01293753 0.00626865 -0.02361092
v 0.01200970 0.00626865 -0.02385406
v 0.00970092 0.00626865 -0.02445415
v 0.01828874 0.05520466 0.02027818
v 0.01939997 0.05683894 0.01936253
v 0.01849372 0.05747134 0.02006608
v 0.01578575 0.00626865 0.01950221
v 0.01664346 0.00626865 0.01889177
v 0.01779246 0.03803762 0.01974534
v 0.01934603 0.05949643 0.01931080
v 0.02161166 0.06110228 0.01726740
v 0.01919499 0.06164231 0.01918147
v 0.02146601 0.06253761 0.01714325
v 0.01776548 0.06379529 0.01982294
v 0.01637374 0.06379529 0.02089379
v 0.01594758 0.06578485 0.02068686
v 0.01722605 0.06703543 0.01933667
v 0.01614718 0.06788809 0.01989537
v 0.00896728 0.07881645 0.02168528
v 0.00895649 0.07885908 0.02168011
v 0.01513843 0.07141245 0.01939874
v 0.01962654 0.06521640 -0.01747555
v 0.01900619 0.06427136 -0.01890334
v 0.01764681 0.06752571 -0.01763074
v 0.01907631 0.06665173 -0.01684443
v 0.01832650 0.05933300 -0.02195034
v 0.02145523 0.06259445 -0.01709791
v 0.02175192 0.06116623 -0.01744968
v 0.01967509 0.06164231 -0.01968449
v 0.01996099 0.06365318 -0.01821014
v 0.02143904 0.05806110 -0.01922925
v 0.01953483 0.05735054 -0.02163994
v 0.02209715 0.05949643 -0.01785319
v 0.01473385 0.07104296 -0.01682373
v 0.01771154 0.06960054 -0.01554596
v 0.01623349 0.07032531 -0.01618226
v 0.01839123 0.06820784 -0.01619261
v 0.00758093 0.07885908 -0.01404057
v 0.01839123 0.04447526 -0.02302118
v 0.01733394 0.04232938 -0.02367817
v 0.01835886 0.04018350 -0.02300566
v 0.01728539 0.04018350 -0.02364713
v 0.01966969 0.05520466 -0.02177445
v 0.01992862 0.04447526 -0.02194516
v 0.01724223 0.03879792 -0.02362127
v 0.01633598 0.03806605 -0.02411789
v 0.01383839 0.00626865 -0.02323328
v 0.01353091 0.00626865 -0.02336778
v 0.01936221 0.05410330 0.01932632
v 0.01939458 0.05520466 0.01935736
v 0.01886593 0.03803762 0.01889177
v 0.02162245 0.05949643 0.01727775
v 0.01690239 0.00626865 0.01867450
v 0.02263120 0.05949643 0.01610344
v 0.02358600 0.05949643 0.01489809
v 0.02351048 0.06164231 0.01476876
v 0.02231293 0.06174889 0.01629485
v 0.02209176 0.06379529 0.01575684
v 0.02116393 0.06379529 0.01682768
v 0.01739867 0.06594117 0.01951255
v 0.00897268 0.07885908 0.02166459
v 0.01933524 0.06694306 0.01714842
v 0.02171955 0.06530167 0.01531712
v 0.01990704 0.06808705 0.01569476
v 0.01031587 0.07885908 0.02026266
v 0.01018101 0.07885908 0.02043338
v 0.02159548 0.06500323 -0.01515280
v 0.02113156 0.06379529 -0.01667888
v 0.01967509 0.06746176 -0.01541146
v 0.02036557 0.06582748 -0.01600120
v 0.02233990 0.06178442 -0.01626503
v 0.02395281 0.05911272 -0.01548906
v 0.02326234 0.05969538 -0.01615639
v 0.02190296 0.06379529 -0.01560804
v 0.02347272 0.05735054 -0.01690133
v 0.02225899 0.05735054 -0.01840155
v 0.02074856 0.05735054 -0.02021733
v 0.02156851 0.05663288 -0.01938962
v 0.01543512 0.07158299 -0.01539594
v 0.01686463 0.07103586 -0.01462514
v 0.01914105 0.06888998 -0.01465100
v 0.01743643 0.07151904 -0.01319735
v 0.00863823 0.07885908 -0.01286626
v 0.01994480 0.04232938 -0.02195551
v 0.01840741 0.04232938 -0.02302635
v 0.01993941 0.04018350 -0.02193482
v 0.01991244 0.03803762 -0.02188826
v 0.01808914 0.03806605 -0.02307808
v 0.02100210 0.04447526 -0.02085880
v 0.01717750 0.03736260 -0.02357988
v 0.01606087 0.00626865 -0.02209001
v 0.01999875 0.03803762 0.01782093
v 0.02230214 0.04232938 0.01580340
v 0.02154693 0.05592232 0.01721567
v 0.01791653 0.00626865 0.01782093
v 0.02041951 0.00626865 0.01557578
v 0.02127182 0.00626865 0.01479980
v 0.02337562 0.04232938 0.01462392
v 0.02256646 0.05735054 0.01610344
v 0.02356981 0.05735054 0.01487740
v 0.02797701 0.05639129 0.00649688
v 0.02506405 0.06164231 0.01180972
v 0.02407688 0.06164231 0.01369792
v 0.02585163 0.02381939 0.01079578
v 0.02640185 0.02532577 0.00987495
v 0.02390426 0.06323395 0.01333580
v 0.02320300 0.06388766 0.01401348
v 0.02136891 0.06672989 0.01477911
v 0.01171841 0.07885908 0.01830721
v 0.01950786 0.06938026 0.01522917
v 0.02120169 0.06657356 -0.01394228
v 0.02150377 0.06700701 -0.01285074
v 0.02191914 0.06550063 -0.01394228
v 0.02376401 0.06500323 -0.01094185
v 0.02339719 0.06437084 -0.01237481
v 0.02296025 0.06371002 -0.01384399
v 0.02584084 0.05850875 -0.01293351
v 0.02593794 0.06086069 -0.01094702
v 0.02619147 0.05933300 -0.01171782
v 0.02417398 0.05735054 -0.01583049
v 0.02379638 0.04447526 -0.01735139
v 0.02295486 0.04447526 -0.01842224
v 0.02188138 0.04447526 -0.01978278
v 0.00956606 0.07885908 -0.01174369
v 0.01952944 0.06935184 -0.01321804
v 0.01770075 0.07183879 -0.01179542
v 0.01058559 0.07885908 -0.01047626
v 0.01142172 0.07885908 -0.00939507
v 0.01151342 0.07885908 -0.00925540
v 0.01236034 0.07885908 -0.00772931
v 0.02101828 0.04232938 -0.02086915
v 0.02101289 0.04018350 -0.02085880
v 0.02098592 0.03803762 -0.02085880
v 0.02092658 0.03589174 -0.02084328
v 0.02085645 0.03374586 -0.02081741
v 0.02076475 0.03159998 -0.02080189
v 0.01985310 0.03589174 -0.02180549
v 0.01969127 0.03159998 -0.02165547
v 0.01828874 0.00626865 -0.02070878
v 0.02147680 0.00626865 0.01458253
v 0.02438976 0.00626865 0.01147863
v 0.02460553 0.00626865 0.01123550
v 0.02842474 0.05526861 0.00552950
v 0.02838698 0.05720844 0.00542604
v 0.02571137 0.06164231 0.01049056
v 0.02799858 0.04379313 0.00653827
v 0.02848408 0.04449658 0.00553984
v 0.02546323 0.00626865 0.01024742
v 0.02611056 0.00626865 0.00917140
v 0.02627239 0.00626865 0.00883515
v 0.02751309 0.02516234 0.00751599
v 0.02595412 0.06301368 0.00910933
v 0.02436818 0.06388766 0.01191835
v 0.02355363 0.06466217 0.01270467
v 0.02394742 0.06544378 0.01127171
v 0.02327312 0.06606907 0.01191835
v 0.02176270 0.06745466 0.01334615
v 0.02098592 0.06813679 0.01401866
v 0.01178314 0.07885908 0.01820892
v 0.01323962 0.07885908 0.01591721
v 0.01300226 0.07885908 0.01631037
v 0.01196115 0.07885908 0.01793474
v 0.01973982 0.06959343 -0.01179542
v 0.02305196 0.06629645 -0.00964856
v 0.02394202 0.06521640 -0.00964856
v 0.02585163 0.06280051 -0.00872256
v 0.02559270 0.06229602 -0.01015553
v 0.02408767 0.06371002 -0.01171265
v 0.02794464 0.05837375 -0.00856219
v 0.02667697 0.05735054 -0.01179542
v 0.02591636 0.05735054 -0.01305767
v 0.02524746 0.05735054 -0.01413369
v 0.02708694 0.05949643 -0.00964856
v 0.02454619 0.04447526 -0.01608914
v 0.02557112 0.02300936 -0.01456823
v 0.02374243 0.02730822 -0.01727380
v 0.02187598 0.04232938 -0.01979830
v 0.01421599 0.07885908 -0.00320797
v 0.01474464 0.07885908 -0.00145427
v 0.01285662 0.07885908 -0.00652914
v 0.02182744 0.03159998 -0.01972588
v 0.02181665 0.02945410 -0.01967414
v 0.01978297 0.03374586 -0.02172272
v 0.02118011 0.01227996 -0.01899129
v 0.01982613 0.00626865 -0.01968449
v 0.02935257 0.05520466 0.00322227
v 0.02921771 0.05735054 0.00322227
v 0.02855960 0.04232938 0.00536913
v 0.02688195 0.00626865 0.00751599
v 0.02703299 0.00626865 0.00717974
v 0.02816041 0.00798820 0.00475870
v 0.02938493 0.04447526 0.00322227
v 0.02613753 0.06334764 0.00751599
v 0.02375322 0.06719886 0.00902656
v 0.02358060 0.06687200 0.01045435
v 0.02534995 0.06375266 0.00976114
v 0.02842474 0.05970249 0.00341368
v 0.02793925 0.06055515 0.00425173
v 0.02218886 0.06813679 0.01184593
v 0.02134194 0.06888998 0.01258569
v 0.01403259 0.07885908 0.01395658
v 0.02174113 0.06942290 0.01115790
v 0.02415780 0.06549352 -0.00750169
v 0.02523128 0.06405109 -0.00750169
v 0.02596491 0.06297815 -0.00750169
v 0.02713009 0.06164231 -0.00536001
v 0.02794464 0.06056936 -0.00426847
v 0.02785294 0.06037751 -0.00536001
v 0.02841395 0.05930458 -0.00536001
v 0.02815502 0.05887824 -0.00712923
v 0.02767492 0.05956038 -0.00770862
v 0.02614292 0.06160677 -0.00952440
v 0.02769110 0.05753529 -0.00953475
v 0.02900193 0.05735054 -0.00536001
v 0.02799858 0.05693842 -0.00874325
v 0.02763716 0.05520466 -0.00980375
v 0.02670394 0.05520466 -0.01179542
v 0.02611056 0.02300936 -0.01349739
v 0.02556033 0.02086348 -0.01454754
v 0.02553336 0.01871760 -0.01451133
v 0.02448685 0.02086348 -0.01602189
v 0.02445988 0.01871760 -0.01594947
v 0.02371007 0.02556736 -0.01722724
v 0.01481477 0.07885908 -0.00106628
v 0.02438976 0.01657172 -0.01588739
v 0.02344574 0.01657172 -0.01695823
v 0.02338101 0.01442584 -0.01687029
v 0.02219965 0.01227996 -0.01791527
v 0.02171955 0.00626865 -0.01783250
v 0.02089961 0.00626865 -0.01869125
v 0.02962768 0.05520466 0.00107541
v 0.02942809 0.05735054 0.00107541
v 0.02774505 0.00626865 0.00551915
v 0.02810108 0.00626865 0.00466041
v 0.02817120 0.00626865 0.00435519
v 0.02848947 0.00798820 0.00322227
v 0.02944427 0.04447526 0.00107541
v 0.02863512 0.00798820 0.00107541
v 0.02868367 0.01013408 0.00107541
v 0.02766953 0.06159257 0.00341368
v 0.02628857 0.06390898 0.00533292
v 0.02587860 0.06496771 0.00459316
v 0.02319760 0.06842101 0.00751599
v 0.02312748 0.06798757 0.00970941
v 0.02866209 0.05949643 0.00107541
v 0.02805253 0.06083938 0.00282394
v 0.01450190 0.07885908 0.01177350
v 0.02197308 0.06967870 0.00966285
v 0.02434121 0.06573511 -0.00536001
v 0.02541469 0.06432821 -0.00536001
v 0.02615371 0.06325527 -0.00536001
v 0.02847329 0.05971670 -0.00341490
v 0.02628318 0.06349685 -0.00321314
v 0.02581926 0.06488954 -0.00011959
v 0.02590018 0.06499613 0.00107541
v 0.02662302 0.06379529 0.00107541
v 0.02938493 0.05735054 -0.00321314
v 0.02952519 0.05520466 -0.00321314
v 0.02908824 0.05520466 -0.00536001
v 0.02770729 0.02300936 -0.00990722
v 0.02694129 0.02300936 -0.01179542
v 0.02609437 0.02086348 -0.01347670
v 0.02607819 0.01871760 -0.01344048
v 0.02605122 0.01657172 -0.01335254
v 0.02546323 0.01657172 -0.01442856
v 0.01496581 0.07885908 0.00020114
v 0.02316524 0.06854180 0.00107541
v 0.02400676 0.06746887 0.00107541
v 0.02384493 0.06725570 -0.00106628
v 0.02438976 0.06611881 -0.00326488
v 0.02429266 0.01442584 -0.01579427
v 0.02396360 0.00626865 -0.01538559
v 0.02377480 0.00626865 -0.01560287
v 0.02299801 0.00626865 -0.01646161
v 0.02278224 0.00626865 -0.01669440
v 0.02192453 0.00626865 -0.01761523
v 0.02962228 0.05520466 -0.00106628
v 0.02942809 0.05735054 -0.00106628
v 0.02836540 0.00626865 0.00322227
v 0.02839777 0.00626865 0.00279290
v 0.02866209 0.00798820 -0.00106628
v 0.02850026 0.00626865 0.00107541
v 0.02859736 0.00626865 -0.00106628
v 0.02667697 0.06379529 0.00322227
v 0.02594333 0.06506008 0.00322227
v 0.02326773 0.06857734 0.00536913
v 0.02212413 0.06984923 0.00751599
v 0.02861893 0.05949643 -0.00106628
v 0.02759940 0.06188389 0.00107541
v 0.01481477 0.07885908 0.00966285
v 0.02559270 0.06456980 -0.00321314
v 0.02571677 0.06474743 -0.00154221
v 0.02504787 0.06573511 -0.00092143
v 0.02508023 0.06606907 0.00107541
v 0.02327312 0.06866260 0.00322227
v 0.02407149 0.06758966 0.00322227
v 0.02857039 0.00626865 -0.00321314
v 0.02852723 0.00626865 -0.00364252
v 0.02832224 0.00626865 -0.00536001
v 0.02807950 0.00996355 -0.00770862
v 0.02796622 0.01056752 -0.00862944
v 0.02798240 0.01227996 -0.00868118
v 0.02798779 0.01442584 -0.00871739
v 0.02801477 0.02300936 -0.00883120
v 0.02765874 0.01657172 -0.00981410
v 0.02763716 0.01442584 -0.00979341
v 0.02687656 0.01871760 -0.01179542
v 0.02683880 0.01657172 -0.01179542
v 0.02675249 0.01442584 -0.01179542
v 0.02635870 0.00626865 -0.01165057
v 0.02622923 0.00626865 -0.01186784
v 0.02557112 0.00626865 -0.01295938
v 0.02495077 0.00626865 -0.01394228
v 0.02474579 0.00626865 -0.01424750
v 0.01505212 0.07885908 0.00107541
v 0.01523013 0.07885908 0.00536913
v 0.01513843 0.07885908 0.00638824
v 0.01489568 0.07885908 0.00895413
v 0.01514382 0.07885908 0.00207900
v 0.01524632 0.07885908 0.00322227
v 0.01524092 0.07885908 0.00407584
v 0.02826830 0.00626865 -0.00576351
v 0.02758322 0.01227996 -0.00975719
v 0.02794464 0.00913219 -0.00856219
v 0.02739441 0.00626865 -0.00964856
v 0.02717864 0.00626865 -0.01006758
v 0.02790688 0.00626865 -0.00829836
f 1 2 3
f 1 3 4
f 1 4 5
f 1 5 6
f 1 6 7
f 1 7 8
f 1 8 9
f 1 9 10
f 1 10 2
f 2 11 12
f 2 12 3
f 2 10 13
f 2 13 14
f 2 14 15
f 2 15 11
f 3 16 4
f 3 12 17
f 3 17 18
f 3 18 19
f 3 19 16
f 4 20 21
f 4 21 5
f 4 16 22
f 4 22 46
f 4 46 20
f 5 21 23
f 5 23 6
f 6 24 25
f 6 25 26
f 6 26 8
f 6 8 7
f 6 23 24
f 8 26 27
f 8 27 28
f 8 28 29
f 8 29 9
f 9 29 13
f 9 13 10
f 11 30 31
f 11 31 12
f 11 15 32
f 11 32 33
f 11 33 34
f 11 34 30
f 12 31 17
f 13 29 35
f 13 35 36
f 13 36 37
f 13 37 14
f 14 37 38
f 14 38 39
f 14 39 32
f 14 32 15
f 16 19 40
f 16 40 22
f 17 31 18
f 18 41 42
f 18 42 43
f 18 43 19
f 18 31 30
f 18 30 41
f 19 43 44
f 19 44 40
f 20 45 21
f 20 46 47
f 20 47 48
f 20 48 49
f 20 49 45
f 21 45 50
f 21 50 23
f 22 40 46
f 23 50 51
f 23 51 24
f 24 52 25
f 24 51 52
f 25 52 53
f 25 53 54
f 25 54 26
f 26 54 55
f 26 55 27
f 27 55 56
f 27 56 57
f 27 57 58
f 27 58 59
f 27 59 28
f 28 35 29
f 28 59 35
f 30 34 41
f 32 60 61
f 32 61 33
f 32 39 60
f 33 61 34
f 34 61 62
f 34 62 63
f 34 63 41
f 35 59 64
f 35 64 36
f 36 64 59
f 36 59 58
f 36 58 57
f 36 57 56
f 36 56 99
f 36 99 98
f 36 98 121
f 36 121 120
f 36 120 153
f 36 153 152
f 36 152 151
f 36 151 179
f 36 179 208
f 36 208 225
f 36 225 240
f 36 240 248
f 36 248 247
f 36 247 246
f 36 246 245
f 36 245 270
f 36 270 297
f 36 297 326
f 36 326 325
f 36 325 324
f 36 324 358
f 36 358 387
f 36 387 424
f 36 424 426
f 36 426 469
f 36 469 468
f 36 468 467
f 36 467 512
f 36 512 511
f 36 511 510
f 36 510 557
f 36 557 556
f 36 556 600
f 36 600 648
f 36 648 694
f 36 694 739
f 36 739 738
f 36 738 785
f 36 785 784
f 36 784 783
f 36 783 782
f 36 782 781
f 36 781 823
f 36 823 822
f 36 822 821
f 36 821 820
f 36 820 819
f 36 819 835
f 36 835 834
f 36 834 836
f 36 836 831
f 36 831 808
f 36 808 807
f 36 807 806
f 36 806 792
f 36 792 791
f 36 791 789
f 36 789 788
f 36 788 744
f 36 744 743
f 36 743 742
f 36 742 699
f 36 699 698
f 36 698 659
f 36 659 658
f 36 658 657
f 36 657 651
f 36 651 650
f 36 650 649
f 36 649 606
f 36 606 605
f 36 605 604
f 36 604 562
f 36 562 517
f 36 517 516
f 36 516 474
f 36 474 473
f 36 473 472
f 36 472 429
f 36 429 391
f 36 391 361
f 36 361 332
f 36 332 331
f 36 331 330
f 36 330 302
f 36 302 301
f 36 301 300
f 36 300 298
f 36 298 275
f 36 275 252
f 36 252 228
f 36 228 211
f 36 211 187
f 36 187 186
f 36 186 185
f 36 185 184
f 36 184 183
f 36 183 161
f 36 161 160
f 36 160 159
f 36 159 127
f 36 127 126
f 36 126 122
f 36 122 100
f 36 100 62
f 36 62 70
f 36 70 39
f 36 39 69
f 36 69 68
f 36 68 67
f 36 67 66
f 36 66 65
f 36 65 37
f 37 65 66
f 37 66 67
f 37 67 68
f 37 68 69
f 37 69 38
f 38 69 39
f 39 70 61
f 39 61 60
f 40 44 71
f 40 71 46
f 41 72 73
f 41 73 42
f 41 63 74
f 41 74 72
f 42 73 75
f 42 75 76
f 42 76 77
f 42 77 78
f 42 78 79
f 42 79 43
f 43 79 80
f 43 80 81
f 43 81 44
f 44 81 82
f 44 82 83
f 44 83 71
f 45 84 50
f 45 49 85
f 45 85 84
f 46 71 86
f 46 86 47
f 47 86 83
f 47 83 82
f 47 82 81
f 47 81 80
f 47 80 107
f 47 107 78
f 47 78 77
f 47 77 76
f 47 76 75
f 47 75 73
f 47 73 103
f 47 103 129
f 47 129 132
f 47 132 165
f 47 165 194
f 47 194 214
f 47 214 230
f 47 230 255
f 47 255 254
f 47 254 282
f 47 282 281
f 47 281 280
f 47 280 279
f 47 279 278
f 47 278 310
f 47 310 337
f 47 337 336
f 47 336 366
f 47 366 398
f 47 398 440
f 47 440 484
f 47 484 529
f 47 529 570
f 47 570 575
f 47 575 574
f 47 574 618
f 47 618 668
f 47 668 671
f 47 671 670
f 47 670 669
f 47 669 710
f 47 710 756
f 47 756 799
f 47 799 827
f 47 827 826
f 47 826 825
f 47 825 830
f 47 830 829
f 47 829 828
f 47 828 824
f 47 824 775
f 47 775 733
f 47 733 688
f 47 688 687
f 47 687 689
f 47 689 639
f 47 639 638
f 47 638 637
f 47 637 636
f 47 636 633
f 47 633 592
f 47 592 547
f 47 547 502
f 47 502 501
f 47 501 500
f 47 500 486
f 47 486 442
f 47 442 441
f 47 441 404
f 47 404 403
f 47 403 402
f 47 402 401
f 47 401 399
f 47 399 367
f 47 367 338
f 47 338 311
f 47 311 284
f 47 284 256
f 47 256 231
f 47 231 215
f 47 215 200
f 47 200 199
f 47 199 198
f 47 198 201
f 47 201 172
f 47 172 171
f 47 171 170
f 47 170 169
f 47 169 167
f 47 167 137
f 47 137 108
f 47 108 88
f 47 88 87
f 47 87 85
f 47 85 49
f 47 49 48
f 50 84 85
f 50 85 87
f 50 87 88
f 50 88 89
f 50 89 51
f 51 89 90
f 51 90 91
f 51 91 92
f 51 92 52
f 52 93 53
f 52 92 94
f 52 94 93
f 53 93 95
f 53 95 54
f 54 95 96
f 54 96 97
f 54 97 98
f 54 98 99
f 54 99 56
f 54 56 55
f 61 70 62
f 62 100 63
f 63 100 101
f 63 101 74
f 71 83 86
f 72 102 73
f 72 74 102
f 73 102 104
f 73 104 103
f 74 101 105
f 74 105 106
f 74 106 102
f 78 107 79
f 79 107 80
f 88 108 109
f 88 109 110
f 88 110 111
f 88 111 89
f 89 111 112
f 89 112 90
f 90 112 113
f 90 113 114
f 90 114 91
f 91 115 94
f 91 94 92
f 91 114 115
f 93 116 117
f 93 117 95
f 93 94 116
f 94 115 118
f 94 118 119
f 94 119 116
f 95 117 120
f 95 120 121
f 95 121 98
f 95 98 96
f 96 98 97
f 100 122 101
f 101 123 124
f 101 124 125
f 101 125 105
f 101 122 126
f 101 126 127
f 101 127 123
f 102 106 128
f 102 128 104
f 103 104 129
f 104 128 130
f 104 130 131
f 104 131 132
f 104 132 129
f 105 125 133
f 105 133 106
f 106 134 135
f 106 135 128
f 106 133 136
f 106 136 134
f 108 137 138
f 108 138 109
f 109 138 139
f 109 139 140
f 109 140 110
f 110 140 141
f 110 141 142
f 110 142 143
f 110 143 144
f 110 144 112
f 110 112 111
f 112 144 113
f 113 144 143
f 113 143 145
f 113 145 146
f 113 146 114
f 114 146 115
f 115 146 118
f 116 147 117
f 116 119 148
f 116 148 149
f 116 149 150
f 116 150 147
f 117 147 151
f 117 151 152
f 117 152 153
f 117 153 120
f 118 146 154
f 118 154 155
f 118 155 148
f 118 148 119
f 123 156 157
f 123 157 158
f 123 158 136
f 123 136 124
f 123 127 159
f 123 159 160
f 123 160 161
f 123 161 156
f 124 136 133
f 124 133 125
f 128 135 130
f 130 162 163
f 130 163 131
f 130 135 164
f 130 164 162
f 131 163 132
f 132 163 165
f 134 166 135
f 134 136 158
f 134 158 166
f 135 166 164
f 137 167 138
f 138 168 139
f 138 167 169
f 138 169 170
f 138 170 171
f 138 171 172
f 138 172 168
f 139 168 173
f 139 173 140
f 140 173 141
f 141 155 154
f 141 154 145
f 141 145 143
f 141 143 142
f 141 173 155
f 145 154 146
f 147 174 151
f 147 150 175
f 147 175 174
f 148 155 176
f 148 176 177
f 148 177 150
f 148 150 149
f 150 177 178
f 150 178 175
f 151 174 179
f 155 180 176
f 155 173 180
f 156 181 182
f 156 182 157
f 156 161 183
f 156 183 184
f 156 184 185
f 156 185 186
f 156 186 187
f 156 187 181
f 157 182 188
f 157 188 189
f 157 189 190
f 157 190 158
f 158 190 166
f 162 164 165
f 162 165 163
f 164 166 191
f 164 191 192
f 164 192 193
f 164 193 165
f 165 193 194
f 166 190 189
f 166 189 191
f 168 195 173
f 168 172 196
f 168 196 197
f 168 197 198
f 168 198 199
f 168 199 200
f 168 200 195
f 172 201 196
f 173 195 202
f 173 202 180
f 174 203 204
f 174 204 179
f 174 175 203
f 175 178 205
f 175 205 206
f 175 206 207
f 175 207 203
f 176 180 177
f 177 180 178
f 178 180 205
f 179 204 208
f 180 202 209
f 180 209 205
f 181 210 182
f 181 187 211
f 181 211 210
f 182 210 212
f 182 212 188
f 188 213 192
f 188 192 191
f 188 191 189
f 188 212 213
f 192 213 194
f 192 194 193
f 194 213 214
f 195 200 215
f 195 215 216
f 195 216 217
f 195 217 218
f 195 218 219
f 195 219 202
f 196 201 198
f 196 198 197
f 202 219 209
f 203 207 220
f 203 220 204
f 204 220 208
f 205 209 206
f 206 209 221
f 206 221 222
f 206 222 207
f 207 222 223
f 207 223 224
f 207 224 220
f 208 220 225
f 209 219 226
f 209 226 221
f 210 227 212
f 210 211 227
f 211 228 227
f 212 227 229
f 212 229 214
f 212 214 213
f 214 229 230
f 215 231 232
f 215 232 233
f 215 233 234
f 215 234 235
f 215 235 236
f 215 236 217
f 215 217 216
f 217 236 237
f 217 237 238
f 217 238 239
f 217 239 218
f 218 239 226
f 218 226 219
f 220 224 240
f 220 240 225
f 221 226 241
f 221 241 242
f 221 242 243
f 221 243 222
f 222 243 244
f 222 244 223
f 223 244 245
f 223 245 246
f 223 246 247
f 223 247 248
f 223 248 224
f 224 248 240
f 226 239 249
f 226 249 241
f 227 250 251
f 227 251 229
f 227 228 252
f 227 252 250
f 229 251 253
f 229 253 254
f 229 254 255
f 229 255 230
f 231 256 257
f 231 257 232
f 232 257 258
f 232 258 259
f 232 259 233
f 233 259 260
f 233 260 234
f 234 236 235
f 234 260 261
f 234 261 262
f 234 262 263
f 234 263 236
f 236 263 237
f 237 263 264
f 237 264 238
f 238 264 265
f 238 265 239
f 239 265 249
f 241 249 266
f 241 266 267
f 241 267 268
f 241 268 242
f 242 268 243
f 243 268 269
f 243 269 244
f 244 269 270
f 244 270 245
f 249 265 271
f 249 271 266
f 250 272 273
f 250 273 251
f 250 252 272
f 251 273 274
f 251 274 253
f 252 275 276
f 252 276 272
f 253 277 278
f 253 278 279
f 253 279 280
f 253 280 281
f 253 281 282
f 253 282 254
f 253 274 283
f 253 283 277
f 256 284 285
f 256 285 257
f 257 286 258
f 257 285 286
f 258 286 287
f 258 287 288
f 258 288 259
f 259 288 260
f 260 288 261
f 261 288 291
f 261 291 262
f 262 289 290
f 262 290 263
f 262 291 292
f 262 292 289
f 263 290 293
f 263 293 264
f 264 293 271
f 264 271 265
f 266 294 295
f 266 295 267
f 266 271 293
f 266 293 294
f 267 295 296
f 267 296 268
f 268 296 269
f 269 297 270
f 269 296 297
f 272 276 273
f 273 276 274
f 274 276 283
f 275 298 276
f 276 299 283
f 276 298 300
f 276 300 301
f 276 301 302
f 276 302 299
f 277 303 304
f 277 304 305
f 277 305 306
f 277 306 278
f 277 283 307
f 277 307 303
f 278 306 308
f 278 308 305
f 278 305 309
f 278 309 310
f 283 299 307
f 284 311 285
f 285 311 286
f 286 311 312
f 286 312 313
f 286 313 314
f 286 314 315
f 286 315 287
f 287 315 288
f 288 315 316
f 288 316 291
f 289 292 317
f 289 317 318
f 289 318 319
f 289 319 296
f 289 296 290
f 290 295 294
f 290 294 293
f 290 296 295
f 291 316 320
f 291 320 292
f 292 320 321
f 292 321 322
f 292 322 323
f 292 323 318
f 292 318 317
f 296 319 318
f 296 318 324
f 296 324 325
f 296 325 326
f 296 326 297
f 299 327 328
f 299 328 329
f 299 329 307
f 299 302 330
f 299 330 331
f 299 331 332
f 299 332 327
f 303 307 304
f 304 333 305
f 304 307 333
f 305 333 334
f 305 334 309
f 305 308 306
f 307 329 333
f 309 334 335
f 309 335 336
f 309 336 337
f 309 337 310
f 311 338 339
f 311 339 340
f 311 340 341
f 311 341 342
f 311 342 312
f 312 342 343
f 312 343 344
f 312 344 345
f 312 345 313
f 313 345 314
f 314 345 346
f 314 346 315
f 315 346 347
f 315 347 316
f 316 347 348
f 316 348 349
f 316 349 320
f 318 323 350
f 318 350 324
f 320 349 351
f 320 351 321
f 321 351 352
f 321 352 353
f 321 353 354
f 321 354 355
f 321 355 322
f 322 355 354
f 322 354 356
f 322 356 357
f 322 357 350
f 322 350 323
f 324 350 357
f 324 357 358
f 327 359 328
f 327 332 359
f 328 359 360
f 328 360 329
f 329 360 333
f 332 361 359
f 333 360 334
f 334 360 362
f 334 362 335
f 335 362 363
f 335 363 364
f 335 364 365
f 335 365 366
f 335 366 336
f 338 367 339
f 339 368 369
f 339 369 370
f 339 370 340
f 339 367 368
f 340 370 371
f 340 371 341
f 341 371 372
f 341 372 342
f 342 372 343
f 343 372 371
f 343 371 373
f 343 373 374
f 343 374 375
f 343 375 344
f 344 346 345
f 344 375 346
f 346 375 376
f 346 376 347
f 347 376 348
f 348 376 377
f 348 377 378
f 348 378 379
f 348 379 380
f 348 380 381
f 348 381 382
f 348 382 383
f 348 383 349
f 349 383 352
f 349 352 351
f 352 383 382
f 352 382 384
f 352 384 353
f 353 385 354
f 353 384 385
f 354 385 386
f 354 386 356
f 356 386 358
f 356 358 357
f 358 386 388
f 358 388 387
f 359 361 389
f 359 389 390
f 359 390 360
f 360 390 362
f 361 391 392
f 361 392 389
f 362 390 363
f 363 390 393
f 363 393 394
f 363 394 395
f 363 395 364
f 364 396 365
f 364 395 396
f 365 396 397
f 365 397 366
f 366 397 398
f 367 399 368
f 368 400 369
f 368 399 401
f 368 401 402
f 368 402 403
f 368 403 404
f 368 404 400
f 369 405 406
f 369 406 370
f 369 400 407
f 369 407 405
f 370 406 408
f 370 408 371
f 371 408 409
f 371 409 373
f 373 409 374
f 374 410 411
f 374 411 412
f 374 412 375
f 374 409 410
f 375 412 377
f 375 377 376
f 377 411 413
f 377 413 379
f 377 379 378
f 377 412 411
f 379 414 415
f 379 415 416
f 379 416 417
f 379 417 418
f 379 418 380
f 379 413 419
f 379 419 420
f 379 420 414
f 380 421 381
f 380 418 422
f 380 422 421
f 381 421 382
f 382 421 384
f 384 421 423
f 384 423 385
f 385 416 388
f 385 388 386
f 385 423 416
f 387 388 424
f 388 416 415
f 388 415 425
f 388 425 426
f 388 426 424
f 389 392 390
f 390 427 428
f 390 428 393
f 390 392 427
f 391 429 427
f 391 427 392
f 393 428 430
f 393 430 431
f 393 431 432
f 393 432 394
f 394 432 433
f 394 433 434
f 394 434 395
f 395 434 396
f 396 435 436
f 396 436 437
f 396 437 438
f 396 438 439
f 396 439 398
f 396 398 397
f 396 434 435
f 398 439 438
f 398 438 440
f 400 404 441
f 400 441 442
f 400 442 407
f 405 443 406
f 405 407 443
f 406 444 445
f 406 445 446
f 406 446 409
f 406 409 408
f 406 443 447
f 406 447 444
f 407 442 448
f 407 448 449
f 407 449 443
f 409 446 445
f 409 445 450
f 409 450 451
f 409 451 410
f 410 451 452
f 410 452 453
f 410 453 411
f 411 453 454
f 411 454 455
f 411 455 413
f 413 455 456
f 413 456 457
f 413 457 419
f 414 420 458
f 414 458 415
f 415 458 420
f 415 420 425
f 416 423 422
f 416 422 418
f 416 418 417
f 419 459 460
f 419 460 461
f 419 461 420
f 419 457 462
f 419 462 459
f 420 463 464
f 420 464 465
f 420 465 425
f 420 461 463
f 421 422 423
f 425 465 464
f 425 464 466
f 425 466 467
f 425 467 468
f 425 468 469
f 425 469 426
f 427 470 471
f 427 471 428
f 427 429 472
f 427 472 473
f 427 473 474
f 427 474 470
f 428 471 475
f 428 475 430
f 430 476 477
f 430 477 478
f 430 478 431
f 430 475 476
f 431 433 432
f 431 478 479
f 431 479 480
f 431 480 433
f 433 480 436
f 433 436 435
f 433 435 434
f 436 480 437
f 437 480 479
f 437 479 481
f 437 481 482
f 437 482 438
f 438 482 483
f 438 483 440
f 440 483 485
f 440 485 484
f 442 486 447
f 442 447 448
f 443 449 447
f 444 447 487
f 444 487 488
f 444 488 445
f 445 489 490
f 445 490 450
f 445 488 491
f 445 491 492
f 445 492 493
f 445 493 494
f 445 494 489
f 447 495 496
f 447 496 497
f 447 497 498
f 447 498 499
f 447 499 488
f 447 488 487
f 447 449 448
f 447 486 500
f 447 500 501
f 447 501 502
f 447 502 495
f 450 490 451
f 451 490 452
f 452 490 453
f 453 490 454
f 454 490 456
f 454 456 455
f 456 503 462
f 456 462 457
f 456 490 489
f 456 489 503
f 459 462 460
f 460 504 505
f 460 505 463
f 460 463 461
f 460 462 506
f 460 506 504
f 462 503 506
f 463 505 507
f 463 507 508
f 463 508 464
f 464 508 509
f 464 509 510
f 464 510 511
f 464 511 512
f 464 512 466
f 466 512 467
f 470 513 514
f 470 514 515
f 470 515 476
f 470 476 475
f 470 475 471
f 470 474 516
f 470 516 517
f 470 517 518
f 470 518 513
f 476 515 514
f 476 514 519
f 476 519 477
f 477 519 520
f 477 520 521
f 477 521 522
f 477 522 523
f 477 523 524
f 477 524 478
f 478 524 481
f 478 481 479
f 481 524 482
f 482 524 525
f 482 525 526
f 482 526 527
f 482 527 485
f 482 485 483
f 484 528 529
f 484 485 528
f 485 529 528
f 485 527 526
f 485 526 530
f 485 530 529
f 488 531 532
f 488 532 491
f 488 499 533
f 488 533 534
f 488 534 531
f 489 494 535
f 489 535 503
f 491 532 492
f 492 536 537
f 492 537 538
f 492 538 494
f 492 494 493
f 492 532 539
f 492 539 536
f 494 540 541
f 494 541 503
f 494 503 535
f 494 538 542
f 494 542 540
f 495 543 496
f 495 502 543
f 496 544 497
f 496 543 545
f 496 545 544
f 497 544 546
f 497 546 533
f 497 533 499
f 497 499 498
f 502 547 543
f 503 541 506
f 504 548 549
f 504 549 505
f 504 506 548
f 505 549 550
f 505 550 551
f 505 551 507
f 506 541 552
f 506 552 553
f 506 553 548
f 507 551 554
f 507 554 555
f 507 555 509
f 507 509 508
f 509 555 556
f 509 556 557
f 509 557 510
f 513 558 559
f 513 559 514
f 513 518 560
f 513 560 558
f 514 559 561
f 514 561 520
f 514 520 519
f 517 562 560
f 517 560 518
f 520 561 563
f 520 563 564
f 520 564 565
f 520 565 566
f 520 566 522
f 520 522 521
f 522 566 565
f 522 565 567
f 522 567 568
f 522 568 530
f 522 530 526
f 522 526 569
f 522 569 523
f 523 569 525
f 523 525 524
f 525 569 526
f 529 530 570
f 530 568 571
f 530 571 572
f 530 572 573
f 530 573 574
f 530 574 575
f 530 575 570
f 531 576 577
f 531 577 539
f 531 539 532
f 531 534 578
f 531 578 579
f 531 579 576
f 533 546 534
f 534 546 578
f 536 580 581
f 536 581 582
f 536 582 537
f 536 539 577
f 536 577 583
f 536 583 580
f 537 582 542
f 537 542 538
f 540 584 585
f 540 585 586
f 540 586 541
f 540 542 584
f 541 586 587
f 541 587 552
f 542 582 581
f 542 581 584
f 543 588 589
f 543 589 545
f 543 547 588
f 544 590 546
f 544 545 589
f 544 589 591
f 544 591 590
f 546 590 578
f 547 592 589
f 547 589 588
f 548 553 593
f 548 593 594
f 548 594 549
f 549 594 550
f 550 595 596
f 550 596 597
f 550 597 554
f 550 554 551
f 550 594 595
f 552 587 598
f 552 598 553
f 553 598 640
f 553 640 593
f 554 597 599
f 554 599 555
f 555 599 600
f 555 600 556
f 558 560 601
f 558 601 559
f 559 601 602
f 559 602 603
f 559 603 561
f 560 562 604
f 560 604 605
f 560 605 606
f 560 606 601
f 561 603 607
f 561 607 608
f 561 608 563
f 563 608 607
f 563 607 609
f 563 609 564
f 564 610 611
f 564 611 612
f 564 612 565
f 564 609 613
f 564 613 614
f 564 614 610
f 565 612 615
f 565 615 567
f 567 616 572
f 567 572 571
f 567 571 568
f 567 615 616
f 572 616 617
f 572 617 573
f 573 617 574
f 574 617 619
f 574 619 618
f 576 579 578
f 576 578 590
f 576 590 620
f 576 620 621
f 576 621 622
f 576 622 623
f 576 623 624
f 576 624 625
f 576 625 583
f 576 583 577
f 580 626 581
f 580 583 626
f 581 626 584
f 583 625 627
f 583 627 628
f 583 628 626
f 584 587 585
f 584 626 629
f 584 629 630
f 584 630 587
f 585 587 586
f 587 630 631
f 587 631 632
f 587 632 598
f 589 592 633
f 589 633 591
f 590 591 634
f 590 634 621
f 590 621 620
f 591 635 634
f 591 633 636
f 591 636 637
f 591 637 638
f 591 638 639
f 591 639 635
f 593 640 641
f 593 641 595
f 593 595 594
f 595 641 642
f 595 642 643
f 595 643 596
f 596 643 644
f 596 644 645
f 596 645 646
f 596 646 597
f 597 646 647
f 597 647 600
f 597 600 599
f 598 632 640
f 600 647 648
f 601 606 602
f 602 606 649
f 602 649 650
f 602 650 607
f 602 607 603
f 607 650 651
f 607 651 613
f 607 613 609
f 610 652 653
f 610 653 654
f 610 654 611
f 610 614 655
f 610 655 656
f 610 656 652
f 611 654 615
f 611 615 612
f 613 651 657
f 613 657 658
f 613 658 614
f 614 658 659
f 614 659 660
f 614 660 656
f 614 656 655
f 615 654 661
f 615 661 662
f 615 662 663
f 615 663 616
f 616 663 617
f 617 663 664
f 617 664 665
f 617 665 666
f 617 666 667
f 617 667 619
f 618 619 668
f 619 667 669
f 619 669 670
f 619 670 671
f 619 671 668
f 621 623 622
f 621 634 623
f 623 634 672
f 623 672 673
f 623 673 674
f 623 674 675
f 623 675 676
f 623 676 677
f 623 677 624
f 624 677 625
f 625 677 627
f 626 628 678
f 626 678 679
f 626 679 680
f 626 680 681
f 626 681 629
f 627 677 676
f 627 676 682
f 627 682 628
f 628 682 678
f 629 681 630
f 630 683 684
f 630 684 685
f 630 685 686
f 630 686 631
f 630 681 680
f 630 680 679
f 630 679 683
f 631 686 632
f 632 686 640
f 634 635 687
f 634 687 688
f 634 688 672
f 635 639 689
f 635 689 687
f 640 686 641
f 641 686 685
f 641 685 690
f 641 690 642
f 642 690 691
f 642 691 643
f 643 691 644
f 644 691 645
f 645 647 692
f 645 692 646
f 645 691 693
f 645 693 694
f 645 694 647
f 646 692 647
f 647 694 648
f 652 695 653
f 652 656 695
f 653 695 696
f 653 696 654
f 654 696 661
f 656 660 697
f 656 697 695
f 659 698 660
f 660 698 699
f 660 699 700
f 660 700 701
f 660 701 697
f 661 702 703
f 661 703 704
f 661 704 705
f 661 705 662
f 661 696 706
f 661 706 707
f 661 707 702
f 662 664 663
f 662 705 664
f 664 704 708
f 664 708 665
f 664 705 704
f 665 708 666
f 666 708 709
f 666 709 667
f 667 709 669
f 669 709 711
f 669 711 710
f 672 688 673
f 673 688 674
f 674 712 713
f 674 713 675
f 674 688 712
f 675 714 715
f 675 715 716
f 675 716 717
f 675 717 718
f 675 718 719
f 675 719 720
f 675 720 682
f 675 682 721
f 675 721 676
f 675 713 714
f 676 721 682
f 678 722 679
f 678 682 720
f 678 720 719
f 678 719 723
f 678 723 724
f 678 724 722
f 679 722 725
f 679 725 726
f 679 726 683
f 683 726 684
f 684 727 728
f 684 728 685
f 684 726 727
f 685 728 729
f 685 729 730
f 685 730 731
f 685 731 732
f 685 732 691
f 685 691 690
f 688 733 712
f 691 732 731
f 691 731 734
f 691 734 735
f 691 735 736
f 691 736 693
f 693 736 737
f 693 737 738
f 693 738 739
f 693 739 694
f 695 740 696
f 695 697 701
f 695 701 740
f 696 740 741
f 696 741 706
f 699 742 700
f 700 742 743
f 700 743 744
f 700 744 745
f 700 745 701
f 701 746 740
f 701 745 747
f 701 747 748
f 701 748 746
f 702 707 749
f 702 749 750
f 702 750 751
f 702 751 703
f 703 751 752
f 703 752 753
f 703 753 704
f 704 753 711
f 704 711 708
f 706 754 755
f 706 755 749
f 706 749 707
f 706 741 754
f 708 711 709
f 710 711 757
f 710 757 756
f 711 753 757
f 712 758 759
f 712 759 713
f 712 733 758
f 713 759 760
f 713 760 714
f 714 760 715
f 715 760 716
f 716 761 718
f 716 718 717
f 716 760 762
f 716 762 763
f 716 763 764
f 716 764 765
f 716 765 761
f 718 766 723
f 718 723 719
f 718 761 766
f 722 724 725
f 723 766 767
f 723 767 768
f 723 768 724
f 724 768 769
f 724 769 725
f 725 769 770
f 725 770 726
f 726 770 727
f 727 770 771
f 727 771 728
f 728 771 772
f 728 772 729
f 729 772 773
f 729 773 774
f 729 774 734
f 729 734 731
f 729 731 730
f 733 775 776
f 733 776 777
f 733 777 778
f 733 778 779
f 733 779 758
f 734 774 780
f 734 780 736
f 734 736 735
f 736 780 781
f 736 781 782
f 736 782 783
f 736 783 784
f 736 784 785
f 736 785 737
f 737 785 738
f 740 746 786
f 740 786 787
f 740 787 741
f 741 787 754
f 744 788 745
f 745 788 789
f 745 789 747
f 746 790 786
f 746 748 790
f 747 789 791
f 747 791 792
f 747 792 790
f 747 790 748
f 749 755 793
f 749 793 750
f 750 793 751
f 751 793 794
f 751 794 752
f 752 795 796
f 752 796 757
f 752 757 753
f 752 794 795
f 754 787 766
f 754 766 797
f 754 797 798
f 754 798 755
f 755 798 793
f 756 757 799
f 757 796 799
f 758 779 800
f 758 800 759
f 759 800 760
f 760 800 801
f 760 801 763
f 760 763 762
f 761 765 798
f 761 798 797
f 761 797 766
f 763 801 802
f 763 802 777
f 763 777 803
f 763 803 764
f 764 794 765
f 764 803 804
f 764 804 805
f 764 805 794
f 765 794 793
f 765 793 798
f 766 787 786
f 766 786 767
f 767 786 806
f 767 806 807
f 767 807 808
f 767 808 809
f 767 809 810
f 767 810 811
f 767 811 768
f 768 811 812
f 768 812 813
f 768 813 769
f 769 813 812
f 769 812 811
f 769 811 814
f 769 814 770
f 770 814 815
f 770 815 816
f 770 816 771
f 771 816 772
f 772 816 817
f 772 817 773
f 773 817 818
f 773 818 819
f 773 819 774
f 774 819 820
f 774 820 821
f 774 821 822
f 774 822 823
f 774 823 781
f 774 781 780
f 775 824 776
f 776 804 777
f 776 824 804
f 777 802 778
f 777 804 803
f 778 802 779
f 779 802 801
f 779 801 800
f 786 790 806
f 790 792 806
f 794 805 795
f 795 805 804
f 795 804 825
f 795 825 796
f 796 825 826
f 796 826 827
f 796 827 799
f 804 824 828
f 804 828 829
f 804 829 830
f 804 830 825
f 808 831 809
f 809 831 810
f 810 832 815
f 810 815 811
f 810 831 833
f 810 833 832
f 811 815 814
f 815 817 816
f 815 832 817
f 817 832 834
f 817 834 818
f 818 834 835
f 818 835 819
f 831 836 833
f 832 833 834
f 833 836 834

