# https://github.com/mikedh/trimesh
v -0.01434906 -0.06600056 -0.00106667
v -0.01404650 -0.06600056 0.00107838
v -0.01422325 -0.06600056 -0.00321173
v -0.01136242 -0.08861684 -0.00106667
v -0.01144630 -0.08861684 0.00107838
v -0.01112577 -0.09054118 0.00322620
v -0.01133546 -0.08861684 0.00322620
v -0.01364809 -0.06600056 0.00323998
v -0.01095202 -0.09019656 0.00460201
v -0.01392069 -0.06600056 -0.00398924
v -0.01093405 -0.09015997 -0.00277059
v -0.01108383 -0.09044968 -0.00106667
v -0.01114075 -0.09056862 0.00107838
v -0.01053563 -0.09164210 0.00107838
v -0.01046673 -0.09161161 0.00322620
v -0.01309389 -0.06600056 0.00475917
v -0.00903782 -0.09216055 0.00459098
v -0.00960399 -0.09075770 0.00531335
v -0.00873526 -0.08988550 0.00659542
v -0.00889103 -0.08861684 0.00673328
v -0.01062550 -0.06600056 0.00855024
v -0.01064647 -0.06600056 0.00853094
v -0.01152419 -0.06600056 0.00737018
v -0.01248578 -0.06600056 0.00586202
v -0.01345337 -0.06600056 -0.00510037
v -0.01058057 -0.08861684 -0.00402233
v -0.00994549 -0.08861684 -0.00535954
v -0.00884011 -0.09076381 -0.00696420
v -0.00958602 -0.09076381 -0.00535954
v -0.00861543 -0.09190438 -0.00658923
v -0.01031395 -0.09083090 -0.00337716
v -0.01044876 -0.09152317 -0.00106667
v -0.01327663 -0.06600056 -0.00549740
v -0.00937632 -0.09256310 -0.00106667
v -0.00946020 -0.09255396 0.00107838
v -0.00939430 -0.09242892 0.00322620
v -0.00746811 -0.09139813 0.00608811
v -0.00746811 -0.09032465 0.00695661
v -0.00653647 -0.09405744 0.00438971
v -0.00733930 -0.09288941 0.00492735
v -0.00595831 -0.08919323 0.00840687
v -0.00649453 -0.08776293 0.00866052
v -0.00742318 -0.06600056 0.01098755
v -0.00946919 -0.06600056 0.00943804
v -0.00829191 -0.08861684 -0.00827108
v -0.00697683 -0.09039479 -0.00904860
v -0.00760291 -0.09097118 -0.00814150
v -0.01218322 -0.06600056 -0.00751011
v -0.01179679 -0.06600056 -0.00812771
v -0.01117070 -0.06600056 -0.00911201
v -0.00636872 -0.09182509 -0.00856886
v -0.00746811 -0.09232828 -0.00708000
v -0.00597030 -0.09385616 -0.00607916
v -0.00656942 -0.09410928 -0.00464820
v -0.00883412 -0.09210565 -0.00535954
v -0.00917262 -0.09241367 -0.00321173
v -0.00788750 -0.09348715 -0.00321173
v -0.00800133 -0.09363659 -0.00106667
v -0.00795041 -0.09362744 0.00107838
v -0.00781560 -0.09350240 0.00322620
v -0.00627585 -0.09177019 0.00639140
v -0.00540113 -0.09080650 0.00756042
v -0.00452641 -0.08984280 0.00870188
v -0.00674317 -0.09416417 0.00322620
v -0.00265414 -0.09639042 -0.00106667
v -0.00224673 -0.09620439 0.00023194
v -0.00088972 -0.09631113 0.00100118
v -0.00008090 -0.09616171 0.00223087
v 0.00111436 -0.09576220 0.00348537
v 0.00111436 -0.09482900 0.00537125
v -0.00010486 -0.09403914 0.00652925
v -0.00144990 -0.09159331 0.00840135
v -0.00317538 -0.09123040 0.00811461
v -0.00527531 -0.08853145 0.00895002
v -0.00315441 -0.08649733 0.01043061
v -0.00532324 -0.08646988 0.00947112
v -0.00454738 -0.06600056 0.01302232
v -0.00567073 -0.06600056 0.01226686
v -0.00700678 -0.06600056 0.01129359
v -0.00721947 -0.08861684 -0.00925263
v -0.01067642 -0.06600056 -0.00962760
v -0.01012523 -0.06600056 -0.01020108
v -0.00466121 -0.09006543 -0.01105304
v -0.00317538 -0.09042224 -0.01141423
v -0.00317538 -0.09149572 -0.01024796
v -0.00265414 -0.09635383 -0.00455722
v -0.00403512 -0.09603056 -0.00321173
v -0.00532324 -0.09523460 -0.00321173
v -0.00681506 -0.09426176 -0.00321173
v -0.00692590 -0.09428616 -0.00106667
v -0.00687498 -0.09422822 0.00107838
v -0.00317538 -0.09015692 0.00891969
v -0.00317538 -0.08861684 0.00971099
v -0.00295969 -0.09650326 -0.00321173
v -0.00102751 -0.09677163 -0.00106667
v 0.00111436 -0.09657645 0.00107838
v 0.00111436 -0.09624099 0.00241284
v 0.00326222 -0.09585064 0.00358738
v 0.00326222 -0.09501503 0.00537125
v 0.00111436 -0.09412453 0.00662851
v -0.00001799 -0.09186168 0.00860814
v -0.00085077 -0.09083090 0.00909339
v -0.00165959 -0.08722925 0.01065945
v -0.00242348 -0.08579895 0.01084142
v -0.00381644 -0.08432292 0.01056847
v -0.00415195 -0.06600056 0.01316569
v -0.00274401 -0.08432292 0.01097928
v -0.00590140 -0.08861684 -0.01032516
v -0.00897791 -0.06600056 -0.01110818
v -0.00482896 -0.08861684 -0.01119090
v -0.00020971 -0.08978486 -0.01293065
v -0.00317538 -0.08861684 -0.01207318
v -0.00088073 -0.09075161 -0.01176438
v -0.00155474 -0.09172139 -0.01053746
v -0.00102751 -0.09651851 -0.00480260
v -0.00102751 -0.09695461 -0.00321173
v -0.00012284 -0.09187388 -0.01077733
v -0.00097958 -0.08848876 0.01032308
v 0.00111436 -0.09693327 -0.00106667
v 0.00326222 -0.09661610 0.00107838
v 0.00326222 -0.09626845 0.00251485
v 0.00540709 -0.09492964 0.00537125
v 0.00456831 -0.09619524 0.00236873
v 0.00540709 -0.09420382 0.00665332
v 0.00326222 -0.09421907 0.00670295
v 0.00070695 -0.09186168 0.00860814
v 0.00129709 -0.09097728 0.00920368
v 0.00111436 -0.08889436 0.01041682
v -0.00022768 -0.08768669 0.01078904
v -0.00097958 -0.08649733 0.01099307
v -0.00102751 -0.08432292 0.01147832
v -0.00317538 -0.06600056 0.01341659
v -0.00842072 -0.06600056 -0.01151900
v -0.00747111 -0.06600056 -0.01212833
v -0.00692291 -0.06600056 -0.01247573
v -0.00629682 -0.06600056 -0.01282864
v 0.00111436 -0.08861684 -0.01323118
v 0.00111436 -0.08999834 -0.01308781
v 0.00111436 -0.09107182 -0.01200977
v -0.00329520 -0.06600056 -0.01399767
v -0.00514950 -0.06600056 -0.01339110
v 0.00111436 -0.09583234 -0.00607364
v 0.00326222 -0.09598177 -0.00624459
v 0.00111436 -0.09661306 -0.00500112
v 0.00111436 -0.09198671 -0.01093724
v 0.00111436 -0.09708270 -0.00321173
v 0.00326222 -0.09715589 -0.00321173
v 0.00326222 -0.09695157 -0.00106667
v 0.00540709 -0.09664050 -0.00106667
v 0.00533220 -0.09576220 0.00314073
v 0.00742315 -0.09433496 0.00522237
v 0.00662032 -0.09409098 0.00654028
v 0.00533220 -0.09629894 0.00086884
v 0.00600022 -0.09598177 0.00144233
v 0.00540709 -0.09291076 0.00751079
v 0.00213287 -0.09183423 0.00859159
v 0.00326222 -0.09064791 0.00925055
v 0.00328319 -0.08853755 0.01036444
v 0.00258221 -0.08776904 0.01082212
v 0.00111436 -0.08782088 0.01083867
v 0.00111436 -0.08646988 0.01130462
v 0.00111436 -0.08432292 0.01188638
v -0.00096461 -0.06600056 0.01379984
v 0.00326222 -0.08861684 -0.01345451
v -0.00102751 -0.06600056 -0.01428441
v 0.00326222 -0.09014167 -0.01319810
v 0.00326222 -0.09121515 -0.01211730
v 0.00540709 -0.09594823 -0.00619496
v 0.00326222 -0.09668014 -0.00517206
v 0.00540709 -0.09662221 -0.00512243
v 0.00540709 -0.09696986 -0.00321173
v 0.00668922 -0.09623794 -0.00106667
v 0.00648551 -0.09613120 0.00001137
v 0.00755495 -0.09490829 0.00322620
v 0.00875320 -0.09404829 0.00440901
v 0.01294708 -0.08971472 0.00647962
v 0.00867831 -0.08971167 0.00860814
v 0.00755495 -0.09002578 0.00877632
v 0.00540709 -0.09043444 0.00904101
v 0.00540709 -0.08861684 0.00986264
v 0.00401113 -0.08734513 0.01067048
v 0.00328319 -0.08656442 0.01110335
v 0.00326222 -0.08432292 0.01177334
v 0.00111436 -0.06600056 0.01388255
v 0.00505660 -0.08861684 -0.01314847
v 0.00487686 -0.08997699 -0.01308230
v 0.00116828 -0.06600056 -0.01401697
v 0.00481396 -0.09197757 -0.01092070
v 0.00678508 -0.09640263 -0.00475297
v 0.00624586 -0.09176714 -0.01063120
v 0.00755495 -0.09156586 -0.01033067
v 0.00898986 -0.09202636 -0.00886387
v 0.00691389 -0.09644227 -0.00321173
v 0.01360013 -0.09223679 0.00107838
v 0.01184768 -0.09316084 0.00107838
v 0.00901981 -0.09417637 0.00322620
v 0.01326462 -0.09204771 0.00244317
v 0.01379185 -0.09078820 0.00318484
v 0.01474146 -0.09077295 0.00122451
v 0.01452278 -0.08861684 0.00322620
v 0.01360612 -0.08861684 0.00537125
v 0.01302497 -0.08861684 0.00659542
v 0.01184768 -0.08861684 0.00728747
v 0.00755196 -0.08453335 0.01039752
v 0.00647653 -0.08539030 0.01073665
v 0.00504462 -0.08591179 0.01091862
v 0.00561978 -0.08453335 0.01113919
v 0.00683301 -0.08396001 0.01089105
v 0.00636269 -0.06600056 0.01285689
v 0.00316936 -0.06600056 0.01359305
v 0.00755495 -0.08861684 -0.01217244
v 0.00251032 -0.06600056 -0.01363097
v 0.00422681 -0.06600056 -0.01310987
v 0.00460127 -0.06600056 -0.01297477
v 0.00919955 -0.09011423 -0.01109164
v 0.00755495 -0.09049238 -0.01147764
v 0.00556286 -0.09087054 -0.01185813
v 0.01042177 -0.09160246 -0.00825730
v 0.01120662 -0.09203856 -0.00682634
v 0.01303395 -0.09192268 -0.00456273
v 0.01324065 -0.09205686 -0.00321173
v 0.01357616 -0.09223374 -0.00106667
v 0.00981066 -0.09085834 -0.00971583
v 0.01466657 -0.09077295 -0.00104462
v 0.01515785 -0.09006543 -0.00031673
v 0.01515785 -0.09006543 0.00060415
v 0.01501406 -0.08861684 0.00182005
v 0.01583486 -0.06600056 0.00326480
v 0.01528966 -0.06600056 0.00481707
v 0.01475644 -0.06600056 0.00581791
v 0.01386973 -0.06600056 0.00745290
v 0.01331854 -0.06600056 0.00841789
v 0.01308488 -0.06600056 0.00880941
v 0.01191658 -0.06600056 0.00983231
v 0.01123358 -0.06600056 0.01033135
v 0.01070036 -0.06600056 0.01069529
v 0.00959797 -0.06600056 0.01135425
v 0.00766280 -0.06600056 0.01234682
v 0.00944519 -0.08861684 -0.01124328
v 0.00526929 -0.06600056 -0.01270733
v 0.01113173 -0.09017217 -0.00913683
v 0.01052062 -0.08861684 -0.01046577
v 0.01263853 -0.09141033 -0.00599644
v 0.01327959 -0.09072111 -0.00530991
v 0.01398656 -0.09076381 -0.00321173
v 0.01301598 -0.08998004 -0.00658096
v 0.01445388 -0.08861684 -0.00321173
v 0.01491820 -0.08861684 -0.00152436
v 0.01604156 -0.06600056 -0.00106667
v 0.01616139 -0.06600056 -0.00007135
v 0.01625425 -0.06600056 0.00107838
v 0.00569467 -0.06600056 -0.01248124
v 0.00747108 -0.06600056 -0.01153003
v 0.00933735 -0.06600056 -0.01033894
v 0.01132345 -0.08861684 -0.00939324
v 0.00990053 -0.06600056 -0.00992813
v 0.01060450 -0.06600056 -0.00934637
v 0.01110776 -0.06600056 -0.00891074
v 0.01158407 -0.06600056 -0.00848063
v 0.01221015 -0.06600056 -0.00784373
v 0.01319871 -0.06600056 -0.00673536
v 0.01350427 -0.06600056 -0.00635487
v 0.01239888 -0.08861684 -0.00775826
v 0.01308188 -0.08861684 -0.00668297
v 0.01368999 -0.08861684 -0.00535954
v 0.01564015 -0.06600056 -0.00222467
v 0.01311783 -0.08646988 -0.00672433
v 0.01412736 -0.06600056 -0.00544501
v 0.01376488 -0.08646988 -0.00535954
v 0.01539451 -0.06600056 -0.00291120
v 0.01463362 -0.06600056 -0.00455170
f 1 2 8
f 1 8 16
f 1 16 24
f 1 24 23
f 1 23 22
f 1 22 21
f 1 21 44
f 1 44 43
f 1 43 79
f 1 79 78
f 1 78 77
f 1 77 106
f 1 106 132
f 1 132 163
f 1 163 184
f 1 184 210
f 1 210 209
f 1 209 238
f 1 238 237
f 1 237 236
f 1 236 235
f 1 235 234
f 1 234 233
f 1 233 232
f 1 232 231
f 1 231 230
f 1 230 229
f 1 229 228
f 1 228 251
f 1 251 250
f 1 250 249
f 1 249 266
f 1 266 270
f 1 270 271
f 1 271 268
f 1 268 262
f 1 262 261
f 1 261 260
f 1 260 259
f 1 259 258
f 1 258 257
f 1 257 256
f 1 256 254
f 1 254 253
f 1 253 252
f 1 252 240
f 1 240 214
f 1 214 213
f 1 213 212
f 1 212 187
f 1 187 165
f 1 165 140
f 1 140 141
f 1 141 136
f 1 136 135
f 1 135 134
f 1 134 133
f 1 133 109
f 1 109 82
f 1 82 81
f 1 81 50
f 1 50 49
f 1 49 48
f 1 48 33
f 1 33 25
f 1 25 10
f 1 10 3
f 1 3 4
f 1 4 5
f 1 5 6
f 1 6 7
f 1 7 2
f 2 7 9
f 2 9 8
f 3 10 11
f 3 11 4
f 4 11 12
f 4 12 5
f 5 12 13
f 5 13 6
f 6 9 7
f 6 13 14
f 6 14 15
f 6 15 9
f 8 9 16
f 9 15 17
f 9 17 18
f 9 18 19
f 9 19 20
f 9 20 21
f 9 21 22
f 9 22 23
f 9 23 24
f 9 24 16
f 10 25 11
f 11 26 27
f 11 27 28
f 11 28 29
f 11 29 30
f 11 30 31
f 11 31 32
f 11 32 12
f 11 25 33
f 11 33 26
f 12 32 14
f 12 14 13
f 14 32 34
f 14 34 35
f 14 35 15
f 15 35 36
f 15 36 17
f 17 37 38
f 17 38 19
f 17 19 18
f 17 36 39
f 17 39 40
f 17 40 37
f 19 38 41
f 19 41 42
f 19 42 20
f 20 42 43
f 20 43 44
f 20 44 21
f 26 33 27
f 27 33 28
f 28 45 46
f 28 46 47
f 28 47 30
f 28 30 29
f 28 33 48
f 28 48 49
f 28 49 50
f 28 50 45
f 30 51 52
f 30 52 53
f 30 53 54
f 30 54 55
f 30 55 31
f 30 47 51
f 31 55 32
f 32 55 56
f 32 56 34
f 34 56 57
f 34 57 58
f 34 58 35
f 35 58 59
f 35 59 36
f 36 59 60
f 36 60 39
f 37 40 39
f 37 39 61
f 37 61 38
f 38 62 63
f 38 63 41
f 38 61 62
f 39 60 64
f 39 64 65
f 39 65 66
f 39 66 67
f 39 67 68
f 39 68 69
f 39 69 70
f 39 70 71
f 39 71 72
f 39 72 73
f 39 73 62
f 39 62 61
f 41 63 74
f 41 74 42
f 42 74 75
f 42 75 76
f 42 76 77
f 42 77 78
f 42 78 79
f 42 79 43
f 45 80 46
f 45 50 81
f 45 81 82
f 45 82 80
f 46 83 51
f 46 51 47
f 46 80 83
f 51 83 84
f 51 84 85
f 51 85 86
f 51 86 53
f 51 53 52
f 53 86 54
f 54 86 87
f 54 87 88
f 54 88 89
f 54 89 57
f 54 57 55
f 55 57 56
f 57 89 58
f 58 89 88
f 58 88 87
f 58 87 90
f 58 90 59
f 59 90 87
f 59 87 91
f 59 91 64
f 59 64 60
f 62 73 63
f 63 73 92
f 63 92 93
f 63 93 74
f 64 91 87
f 64 87 94
f 64 94 65
f 65 94 95
f 65 95 66
f 66 95 67
f 67 95 68
f 68 95 96
f 68 96 97
f 68 97 69
f 69 98 99
f 69 99 70
f 69 97 98
f 70 99 100
f 70 100 71
f 71 100 101
f 71 101 72
f 72 101 102
f 72 102 92
f 72 92 73
f 74 93 75
f 75 93 103
f 75 103 104
f 75 104 105
f 75 105 76
f 76 105 77
f 77 105 107
f 77 107 106
f 80 108 83
f 80 82 108
f 82 109 110
f 82 110 108
f 83 111 84
f 83 108 110
f 83 110 112
f 83 112 111
f 84 111 113
f 84 113 114
f 84 114 85
f 85 114 86
f 86 115 116
f 86 116 94
f 86 94 87
f 86 114 117
f 86 117 115
f 92 102 118
f 92 118 93
f 93 118 103
f 94 116 95
f 95 116 119
f 95 119 96
f 96 119 120
f 96 120 121
f 96 121 97
f 97 121 98
f 98 122 99
f 98 121 123
f 98 123 122
f 99 122 124
f 99 124 125
f 99 125 100
f 100 125 101
f 101 126 127
f 101 127 128
f 101 128 102
f 101 125 126
f 102 128 118
f 103 118 129
f 103 129 130
f 103 130 104
f 104 107 105
f 104 130 131
f 104 131 107
f 106 107 131
f 106 131 132
f 109 133 110
f 110 133 134
f 110 134 135
f 110 135 136
f 110 136 112
f 111 137 138
f 111 138 139
f 111 139 113
f 111 112 140
f 111 140 137
f 112 136 141
f 112 141 140
f 113 139 114
f 114 139 117
f 115 142 143
f 115 143 144
f 115 144 116
f 115 117 145
f 115 145 142
f 116 146 119
f 116 144 146
f 117 139 145
f 118 128 129
f 119 146 147
f 119 147 148
f 119 148 120
f 120 149 123
f 120 123 121
f 120 148 149
f 122 123 150
f 122 150 151
f 122 151 152
f 122 152 124
f 123 149 153
f 123 153 154
f 123 154 150
f 124 152 155
f 124 155 156
f 124 156 125
f 125 156 126
f 126 156 127
f 127 156 157
f 127 157 128
f 128 157 158
f 128 158 159
f 128 159 160
f 128 160 129
f 129 160 161
f 129 161 162
f 129 162 130
f 130 162 131
f 131 162 132
f 132 162 163
f 137 164 138
f 137 140 165
f 137 165 164
f 138 164 166
f 138 166 139
f 139 167 145
f 139 166 167
f 142 145 143
f 143 168 169
f 143 169 144
f 143 145 167
f 143 167 168
f 144 169 146
f 146 169 147
f 147 169 170
f 147 170 171
f 147 171 148
f 148 171 149
f 149 171 172
f 149 172 173
f 149 173 153
f 150 154 174
f 150 174 151
f 151 175 152
f 151 174 175
f 152 175 176
f 152 176 177
f 152 177 178
f 152 178 179
f 152 179 155
f 153 173 154
f 154 173 174
f 155 179 157
f 155 157 156
f 157 179 158
f 158 180 159
f 158 179 178
f 158 178 180
f 159 180 181
f 159 181 182
f 159 182 183
f 159 183 161
f 159 161 160
f 161 183 162
f 162 183 184
f 162 184 163
f 164 185 186
f 164 186 166
f 164 165 187
f 164 187 185
f 166 186 167
f 167 186 188
f 167 188 168
f 168 189 170
f 168 170 169
f 168 188 190
f 168 190 191
f 168 191 192
f 168 192 189
f 170 189 171
f 171 189 193
f 171 193 172
f 172 193 194
f 172 194 195
f 172 195 173
f 173 195 196
f 173 196 174
f 174 196 175
f 175 196 194
f 175 194 197
f 175 197 176
f 176 197 198
f 176 198 199
f 176 199 200
f 176 200 201
f 176 201 202
f 176 202 203
f 176 203 204
f 176 204 205
f 176 205 177
f 177 205 180
f 177 180 178
f 180 205 206
f 180 206 181
f 181 206 182
f 182 206 183
f 183 206 205
f 183 205 207
f 183 207 208
f 183 208 209
f 183 209 210
f 183 210 184
f 185 211 186
f 185 187 212
f 185 212 213
f 185 213 214
f 185 214 211
f 186 215 216
f 186 216 217
f 186 217 188
f 186 211 215
f 188 217 190
f 189 192 218
f 189 218 219
f 189 219 220
f 189 220 221
f 189 221 222
f 189 222 193
f 190 217 216
f 190 216 191
f 191 216 215
f 191 215 192
f 192 215 223
f 192 223 218
f 193 222 194
f 194 222 199
f 194 199 197
f 194 196 195
f 197 199 198
f 199 222 224
f 199 224 225
f 199 225 226
f 199 226 200
f 200 226 227
f 200 227 228
f 200 228 229
f 200 229 201
f 201 229 202
f 202 204 203
f 202 229 230
f 202 230 231
f 202 231 232
f 202 232 233
f 202 233 234
f 202 234 235
f 202 235 236
f 202 236 204
f 204 208 205
f 204 236 237
f 204 237 208
f 205 208 207
f 208 237 238
f 208 238 209
f 211 239 215
f 211 214 240
f 211 240 239
f 215 241 223
f 215 239 242
f 215 242 241
f 218 243 219
f 218 223 241
f 218 241 243
f 219 243 220
f 220 243 244
f 220 244 245
f 220 245 224
f 220 224 221
f 221 224 222
f 224 245 225
f 225 245 244
f 225 244 246
f 225 246 247
f 225 247 248
f 225 248 249
f 225 249 250
f 225 250 251
f 225 251 226
f 226 251 227
f 227 251 228
f 239 240 252
f 239 252 253
f 239 253 254
f 239 254 242
f 241 242 255
f 241 255 246
f 241 246 243
f 242 254 256
f 242 256 257
f 242 257 258
f 242 258 259
f 242 259 260
f 242 260 261
f 242 261 262
f 242 262 255
f 243 246 244
f 246 255 263
f 246 263 264
f 246 264 265
f 246 265 247
f 247 265 266
f 247 266 249
f 247 249 248
f 255 267 263
f 255 262 268
f 255 268 267
f 263 267 264
f 264 267 269
f 264 269 265
f 265 269 270
f 265 270 266
f 267 268 271
f 267 271 269
f 269 271 270

