# https://github.com/mikedh/trimesh
v -0.02635230 -0.01226040 -0.00840016
v -0.02635230 -0.00872833 -0.00772554
v -0.02281880 -0.00872833 -0.00783366
v -0.01222760 -0.00554535 -0.00706737
v -0.01222760 -0.00872833 -0.00729067
v -0.02281880 -0.01226040 -0.00815805
v -0.02281880 -0.01579020 -0.00728127
v -0.02635230 -0.01579020 -0.00749518
v -0.04047700 -0.01579020 -0.00784072
v -0.06519290 -0.01226040 -0.00713553
v -0.08285110 -0.00935299 -0.00602840
v -0.01567110 -0.00554535 -0.00654318
v -0.00352437 -0.00554535 -0.00555828
v -0.07931770 -0.00743539 -0.00481784
v -0.07931770 -0.00672117 -0.00305254
v -0.00352437 -0.01306420 -0.00580744
v -0.00352437 -0.01526200 -0.00579099
v -0.00352437 -0.01557430 -0.00572987
v -0.00352437 -0.01673630 -0.00548776
v -0.01576100 -0.01839210 -0.00596023
v -0.01929440 -0.01867000 -0.00615063
v -0.00352437 -0.01931990 -0.00473557
v -0.02281880 -0.01880320 -0.00626581
v -0.04047700 -0.01931990 -0.00686287
v -0.05780240 -0.02320110 -0.00615298
v -0.06872640 -0.02488900 -0.00582390
v -0.06872640 -0.02285200 -0.00626816
v -0.07225980 -0.02285200 -0.00625876
v -0.07578420 -0.02285200 -0.00612948
v -0.08544050 -0.02168310 -0.00570167
v -0.08638450 -0.01152550 -0.00583565
v -0.08638450 -0.00981689 -0.00583565
v -0.08285110 -0.00758696 -0.00457103
v -0.01679490 -0.00554535 -0.00637159
v -0.00352437 -0.00554535 0.00820919
v -0.08867720 -0.00690030 -0.00224628
v -0.08285110 -0.00677858 -0.00280338
v -0.08638450 -0.00645707 -0.00029058
v -0.05640880 -0.02461110 -0.00558414
v -0.05106820 -0.02251670 -0.00616239
v -0.00352437 -0.02058530 -0.00392696
v -0.05106820 -0.02428270 -0.00537023
v -0.05460170 -0.02450090 -0.00551362
v -0.05460170 -0.02273490 -0.00621175
v -0.05876450 -0.02470070 -0.00565701
v -0.06519290 -0.02635190 -0.00382354
v -0.06872640 -0.02638630 -0.00382354
v -0.07225980 -0.02485690 -0.00580509
v -0.06165950 -0.02628990 -0.00382354
v -0.07578420 -0.02476960 -0.00572752
v -0.07806790 -0.02465250 -0.00561940
v -0.08285110 -0.02224570 -0.00578864
v -0.08042350 -0.02439070 -0.00549717
v -0.08285110 -0.02401170 -0.00527856
v -0.08652840 -0.02285660 -0.00492597
v -0.09225560 -0.02494640 -0.00237086
v -0.08991790 -0.02285200 -0.00387055
v -0.08991790 -0.01931990 -0.00443234
v -0.08840750 -0.01080440 -0.00568286
v -0.08840750 -0.01023490 -0.00568286
v -0.08638450 -0.00805086 -0.00417848
v -0.02281880 -0.00554535 -0.00536788
v -0.00352437 -0.01567070 0.00923170
v -0.00673412 -0.00554535 0.00868401
v -0.02054410 -0.00987201 0.01229690
v -0.09103280 -0.00714603 -0.00171035
v -0.08988200 -0.00664768 -0.00043632
v -0.08991790 -0.00597939 0.00324002
v -0.00352437 -0.02196550 -0.00300318
v -0.05780240 -0.02586960 -0.00417378
v -0.06165950 -0.02795720 -0.00162807
v -0.06519290 -0.02792270 -0.00158106
v -0.06872640 -0.02788140 -0.00146118
v -0.07225980 -0.02626690 -0.00382354
v -0.08991790 -0.02512560 -0.00263413
v -0.08991790 -0.02567670 -0.00029058
v -0.09293890 -0.02519220 -0.00029058
v -0.09453030 -0.02259940 0.00004790
v -0.09265120 -0.02285200 -0.00269290
v -0.07154050 -0.02842800 0.00072723
v -0.09249830 -0.01226040 -0.00289270
v -0.09227350 -0.00949997 -0.00270935
v -0.02641520 -0.00554535 -0.00471677
v -0.02054410 -0.01119480 0.01229690
v -0.00516072 -0.01579020 0.00947852
v -0.00352437 -0.01821300 0.00893553
v -0.00904479 -0.00554535 0.00901780
v -0.02281880 -0.00771557 0.01168570
v -0.02281880 -0.00948160 0.01239330
v -0.06339480 -0.01045530 0.01561360
v -0.09304680 -0.00848490 -0.00043632
v -0.09224660 -0.00678088 0.00064496
v -0.09267810 -0.00655123 0.00324002
v -0.08991790 -0.00589671 0.00677062
v -0.08638450 -0.00577729 0.00677062
v -0.08638450 -0.00592198 0.00324002
v -0.00352437 -0.02245700 -0.00174560
v -0.04839800 -0.02828560 0.00121615
v -0.05812610 -0.02788600 -0.00149409
v -0.05812610 -0.02858410 0.00027121
v -0.06165950 -0.02862320 0.00013958
v -0.06519290 -0.02865530 0.00018424
v -0.06872640 -0.02859560 0.00030412
v -0.07790610 -0.02829020 0.00473970
v -0.09307370 -0.02527710 0.00324002
v -0.09483590 -0.02332510 0.00324002
v -0.09521360 -0.02125590 0.00145121
v -0.09521360 -0.02106760 0.00145121
v -0.09398180 -0.01226040 -0.00029058
v -0.02943610 -0.00554535 -0.00380003
v -0.06339480 -0.01051730 0.01561360
v -0.02281880 -0.01183090 0.01239330
v -0.02281880 -0.01579020 0.01175390
v -0.00352437 -0.01997900 0.00775788
v -0.04907230 -0.02117090 0.01213230
v -0.01981590 -0.00554535 0.00980760
v -0.02635230 -0.00749280 0.01181740
v -0.08285110 -0.00680384 0.01228980
v -0.06344870 -0.01045530 0.01561360
v -0.09455720 -0.00894191 0.00323062
v -0.09257920 -0.00652137 0.00677062
v -0.08991790 -0.00653515 0.00957254
v -0.08649240 -0.00644558 0.01054330
v -0.09211170 -0.00674184 0.00892613
v -0.08285110 -0.00632846 0.01030120
v -0.02583080 -0.00554535 0.00976294
v -0.02918440 -0.00554535 0.00934218
v -0.03183670 -0.00554535 0.00845130
v -0.03471380 -0.00554535 0.00677062
v -0.03590960 -0.00554535 0.00573166
v -0.03695250 -0.00554535 0.00451170
v -0.03747400 -0.00554535 0.00376185
v -0.03751000 -0.00554535 0.00324002
v -0.03489360 -0.00554535 -0.00029058
v -0.02989470 -0.00554535 -0.00354617
v -0.00352437 -0.02294840 -0.00029058
v -0.04804730 -0.02834070 0.00324002
v -0.05106820 -0.02869440 0.00324002
v -0.05460170 -0.02894930 0.00324002
v -0.05812610 -0.02900440 0.00324002
v -0.06519290 -0.02898140 0.00324002
v -0.07790610 -0.02829020 0.00525449
v -0.09243540 -0.02505900 0.00587975
v -0.09536640 -0.02154760 0.00540257
v -0.09533040 -0.02155900 0.00324002
v -0.09533040 -0.02074840 0.00324002
v -0.09525850 -0.01026010 0.00440122
v -0.06344870 -0.01051730 0.01561360
v -0.05923200 -0.02131790 0.01218640
v -0.05106820 -0.02120310 0.01214880
v -0.00352437 -0.02193570 0.00599258
v -0.06519290 -0.02534830 0.00967127
v -0.05106820 -0.02847850 0.00534616
v -0.02266600 -0.00554535 0.00983346
v -0.08538650 -0.00684518 0.01222400
v -0.08285110 -0.00872833 0.01336880
v -0.08285110 -0.01226040 0.01378950
v -0.09437740 -0.00894191 0.00655437
v -0.09525850 -0.01026010 0.00523333
v -0.08774210 -0.00712306 0.01188320
v -0.09271410 -0.00872833 0.00965716
v -0.09154530 -0.01102950 0.01199600
v -0.09018760 -0.00847112 0.01144130
v -0.00352437 -0.02291860 0.00324002
v -0.04853280 -0.02826720 0.00512520
v -0.05460170 -0.02860710 0.00547074
v -0.05812610 -0.02856810 0.00546134
v -0.06519290 -0.02847850 0.00547544
v -0.08638450 -0.02488440 0.00890262
v -0.08879410 -0.02481320 0.00875453
v -0.06872640 -0.02538510 0.00959605
v -0.09114970 -0.02437000 0.00823505
v -0.09361320 -0.02295990 0.00681764
v -0.09536640 -0.02065420 0.00540257
v -0.09244440 -0.02201610 0.00914003
v -0.09177900 -0.01411600 0.01213000
v -0.09267810 -0.01222820 0.01061150
v -0.07931770 -0.01931990 0.01169750
v -0.06872640 -0.02285200 0.01119680
v -0.06069750 -0.02131790 0.01218640
v -0.06519290 -0.02285200 0.01131200
v -0.08649240 -0.00847112 0.01280230
v -0.08638450 -0.01226040 0.01329590
v -0.08991790 -0.01436170 0.01230390
v -0.08638450 -0.02285200 0.01004030
v -0.08918970 -0.00947700 0.01246850
v -0.09177900 -0.01338340 0.01213000
v -0.09018760 -0.01222820 0.01249670
v -0.08995390 -0.02305640 0.00949732
v 0.10568400 -0.00554305 0.00077042
v 0.10568400 -0.00554305 -0.00029210
v 0.10565200 -0.00554305 0.00323881
v 0.10521300 -0.00608608 -0.00029210
v 0.10309700 -0.00742137 -0.00261188
v 0.10396300 -0.00554305 -0.00356166
v 0.10559800 -0.00554305 0.00418688
v 0.10519200 -0.00605198 0.00323881
v 0.10342800 -0.00783061 0.00323881
v 0.10344900 -0.00779388 -0.00029210
v 0.09929100 -0.01069270 -0.00232319
v 0.10201700 -0.00554305 -0.00452339
v 0.10059500 -0.00864910 -0.00310727
v 0.10439000 -0.00554305 0.00685343
v 0.10306500 -0.00746859 0.00554151
v 0.09933380 -0.01072680 0.00523232
v 0.10130100 -0.00959613 0.00323881
v 0.10126900 -0.00955940 -0.00029210
v 0.10078800 -0.00581063 -0.00493508
v 0.09949420 -0.01083430 -0.00029210
v 0.09725990 -0.01208830 -0.00029210
v 0.09464090 -0.01351280 -0.00029210
v 0.09243870 -0.01430500 -0.00236248
v 0.09019380 -0.01482710 -0.00306969
v 0.10078800 -0.00554305 -0.00506661
v 0.10149300 -0.00554305 0.00802698
v 0.09210730 -0.01407940 0.00507004
v 0.09439500 -0.01355480 0.00323881
v 0.09725990 -0.01215650 0.00323881
v 0.09952620 -0.01086060 0.00323881
v 0.05333440 -0.02830850 0.00865561
v 0.05318480 -0.03172670 0.00507004
v 0.05312060 -0.03168740 -0.00559616
v 0.09287700 -0.01442830 -0.00029210
v 0.05350550 -0.03181850 -0.00382302
v 0.09725990 -0.00554305 -0.00537751
v 0.05134610 -0.02638290 -0.00711478
v 0.05134610 -0.02285190 -0.00758625
v 0.09696060 -0.00554305 0.00908780
v 0.09591300 -0.00724823 0.00871198
v 0.05365510 -0.03185000 0.00323881
v 0.05575040 -0.03134370 -0.00029210
v 0.05134610 -0.02638290 0.00939869
v 0.05134610 -0.02850000 0.00877519
v 0.05134610 -0.03026550 0.00704988
v 0.05134610 -0.03186050 0.00528527
v 0.05134610 -0.03218580 0.00323881
v 0.05134610 -0.03234320 -0.00029210
v 0.05164540 -0.03195230 -0.00402288
v 0.05302440 -0.03168740 -0.00559616
v 0.04781830 -0.02954670 -0.00625554
v 0.05164540 -0.03017370 -0.00606080
v 0.05398650 -0.03194970 -0.00029210
v 0.09637270 -0.00554305 -0.00539801
v 0.05134610 -0.01932090 -0.00737614
v 0.04781830 -0.02638290 -0.00704474
v -0.00162324 -0.01568490 -0.00591902
v 0.00191517 -0.01225880 -0.00621454
v 0.00191517 -0.00554305 -0.00627604
v 0.09375360 -0.00554305 0.00921250
v 0.05134610 -0.02285190 0.00967543
v 0.04781830 -0.02638290 0.00943115
v 0.04781830 -0.02859970 0.00882985
v 0.04867360 -0.03187360 0.00531260
v 0.03535370 -0.03172150 0.00155449
v 0.04857730 -0.03194970 -0.00297744
v 0.03535370 -0.03172150 0.00140588
v 0.05068330 -0.03152210 -0.00533309
v 0.04429060 -0.02907190 -0.00611888
v 0.04464340 -0.00554305 -0.00646736
v 0.02310290 -0.00872780 -0.00658010
v -0.00162324 -0.01745310 -0.00556371
v -0.00351539 -0.01526260 -0.00579261
v -0.00175152 -0.01215910 -0.00599589
v -0.00125978 -0.00554305 -0.00606080
v 0.06900610 -0.00872780 0.00986504
v 0.06546770 -0.00554305 0.00970105
v -0.00351539 -0.01566920 0.00923300
v -0.00351539 -0.01821650 0.00893576
v 0.04429060 -0.02844490 0.00874786
v 0.04204570 -0.02825340 0.00862486
v -0.00351539 -0.02193370 0.00599248
v -0.00351539 -0.02291750 0.00323881
v -0.00351539 -0.02294900 -0.00029210
v -0.00351539 -0.02245580 -0.00174581
v -0.00351539 -0.02196520 -0.00300478
v -0.00351539 -0.02058530 -0.00392551
v -0.00351539 -0.01932090 -0.00473521
v -0.00351539 -0.01673430 -0.00548854
v -0.00351539 -0.01557210 -0.00572940
v -0.00351539 -0.01306420 -0.00580798
v -0.00351539 -0.00554305 -0.00555858
v 0.04076290 -0.00554305 0.00955927
v 0.00544290 -0.00554305 0.00920908
v 0.00212897 -0.00554305 0.00912879
v -0.00351539 -0.00554305 0.00820976
v -0.00351539 -0.01997930 0.00775879
v 0.07487040 0.03219480 0.00324109
v 0.07466090 0.03203600 0.00123802
v 0.07379560 0.03219480 0.00324109
v 0.07469740 0.03214310 0.00530438
v 0.08904430 0.02527970 0.00231942
v 0.08904430 0.02527970 0.00094476
v 0.07821350 0.02857470 -0.00223134
v 0.07606370 0.02879270 -0.00239368
v 0.07252940 0.02897370 -0.00254554
v 0.06900410 0.02911040 -0.00268955
v 0.06193540 0.02938000 -0.00289379
v 0.05841930 0.02941330 -0.00289379
v 0.07404150 0.03203600 0.00123802
v 0.07389570 0.03214310 0.00530438
v 0.05636060 0.03194730 0.00461836
v 0.05636060 0.03194730 0.00510800
v 0.05841930 0.02623640 0.01334020
v 0.06546980 0.02578580 0.01307050
v 0.07804040 0.02851560 0.00871352
v 0.09252400 0.02187010 0.00894393
v 0.09310700 0.02224320 0.00677067
v 0.05488490 0.02806860 0.01156760
v 0.09328010 0.02231340 0.00324109
v 0.09504730 0.02089860 0.00324109
v 0.09640450 0.01858980 0.00055986
v 0.09855430 0.01388740 -0.00187000
v 0.08501810 0.02493240 -0.00211613
v 0.07252940 0.02658740 -0.00348031
v 0.09517480 0.00693528 -0.00553836
v 0.09282460 0.00746722 -0.00571379
v 0.06900410 0.02658740 -0.00385473
v 0.06546980 0.02658740 -0.00406944
v 0.06546980 0.02921750 -0.00280738
v 0.06193540 0.02658740 -0.00415847
v 0.05841930 0.03104230 -0.00029111
v 0.05135050 0.02658740 -0.00413490
v 0.05135050 0.02929510 -0.00286760
v 0.05135050 0.03065440 -0.00029111
v 0.04782530 0.03036630 -0.00029111
v 0.03107350 0.02855990 -0.00229418
v 0.03107350 0.02855990 -0.00162911
v 0.01460410 0.02633990 0.00677067
v 0.01460410 0.02608130 0.00822650
v 0.01460410 0.02559000 0.01047310
v 0.01730950 0.02498790 0.01220910
v 0.04429090 0.02882220 0.00920054
v 0.04782530 0.02891090 0.00950427
v 0.05841930 0.02420470 0.01510500
v 0.06193540 0.02408280 0.01505790
v 0.05488490 0.02630290 0.01329310
v 0.06546980 0.02380950 0.01483530
v 0.06822070 0.02171130 0.01589310
v 0.08210310 0.02182210 0.01232690
v 0.09197750 0.01777350 0.01207810
v 0.09342580 0.01925480 0.01017200
v 0.09611300 0.01837930 0.00904605
v 0.09487420 0.02074340 0.00677067
v 0.04782530 0.02777310 0.01127170
v 0.09692380 0.01913290 0.00324109
v 0.09869090 0.01740040 0.00324109
v 0.09972940 0.01513230 0.00048655
v 0.10200700 0.01020820 -0.00159245
v 0.10300000 0.00785509 -0.00243819
v 0.10167900 0.00290513 -0.00542053
v 0.09932860 0.00378799 -0.00563524
v 0.09725170 0.00445661 -0.00575830
v 0.09389040 0.00561283 -0.00591802
v 0.09019210 0.00793266 -0.00580805
v 0.08537330 0.01088050 -0.00566404
v 0.06900410 0.02305590 -0.00462978
v 0.06546980 0.02305590 -0.00477903
v 0.01460410 0.02164850 -0.00569284
v 0.04782530 0.02916950 -0.00280738
v 0.01460410 0.02326640 -0.00512727
v 0.01460410 0.02579310 -0.00329702
v 0.01460410 0.02497680 0.01121670
v 0.01460410 0.02450760 0.01176390
v 0.01460410 0.02321840 0.01276150
v 0.01460410 0.01601510 0.01645080
v 0.02310300 0.01853810 0.01620210
v 0.04559350 0.01792490 0.01922900
v 0.05488490 0.02231340 0.01659490
v 0.05135050 0.02611820 0.01324860
v 0.05841930 0.02243900 0.01663150
v 0.06546980 0.02204370 0.01606070
v 0.07434210 0.01778090 0.01561300
v 0.09019210 0.01815770 0.01237140
v 0.05495780 0.01922150 0.01848530
v 0.05381910 0.01784370 0.01917660
v 0.09228720 0.01599300 0.01218290
v 0.10078600 0.00540227 0.01038930
v 0.10432000 0.00187081 0.00953569
v 0.10425700 0.00506981 0.00913508
v 0.10263500 0.01083610 0.00860092
v 0.09946520 0.01472960 0.00885753
v 0.09019210 0.01599300 0.01282700
v 0.09847230 0.01709380 0.00677067
v 0.09671430 0.01897770 0.00677067
v 0.09993890 0.01532800 0.00677067
v 0.10013000 0.01563460 0.00324109
v 0.10295400 0.01126460 0.00076148
v 0.10618800 0.00380277 -0.00220777
v 0.10422900 0.00515108 -0.00298019
v 0.10408400 0.00178585 -0.00454599
v 0.10275400 0.00055205 -0.00567190
v 0.10061300 0.00178585 -0.00576616
v 0.09725170 0.00187081 -0.00600705
v 0.09372640 0.00187081 -0.00622176
v 0.08313250 0.00893373 -0.00603847
v 0.08659390 0.00901131 -0.00585780
v 0.06546980 0.01952440 -0.00519273
v 0.01460410 0.01035960 -0.00712772
v 0.01460410 0.01969800 -0.00597825
v 0.01460410 0.01463360 0.01679650
v 0.04559350 0.01747060 0.01922900
v 0.04782530 0.01796560 0.01925510
v 0.01460410 0.01246520 0.01725210
v 0.08137440 0.01074750 0.01561030
v 0.05135050 0.01790280 0.01921320
v 0.05381910 0.01762940 0.01917660
v 0.10658900 -0.00166066 0.00898845
v 0.10628800 0.00187081 0.00871352
v 0.10610600 0.00366978 0.00855379
v 0.10300900 0.01132740 0.00677067
v 0.10170600 0.01309320 0.00677067
v 0.10189700 0.01341090 0.00324109
v 0.10324600 0.01164880 0.00324109
v 0.10483100 0.00893373 0.00324109
v 0.10646100 0.00449355 -0.00029111
v 0.10546800 0.00626297 -0.00029111
v 0.10728100 0.00187081 -0.00029111
v 0.10653400 0.00187081 -0.00264504
v 0.10472100 -0.00166066 -0.00472928
v 0.10078600 -0.00166066 -0.00599657
v 0.10296300 -0.00166066 -0.00576878
v 0.09372640 -0.00166066 -0.00621652
v 0.01460410 0.00540227 -0.00749429
v 0.01460410 0.00682815 -0.00742621
v 0.06546980 0.01679090 -0.00550170
v 0.01460410 0.00893373 -0.00728482
v 0.04782530 0.01734500 0.01925510
v 0.01460410 0.00908888 0.01627800
v 0.08137440 0.01068840 0.01561030
v 0.05135050 0.01746690 0.01921320
v 0.10649800 -0.00386967 0.00891775
v 0.10734500 -0.00166066 0.00677067
v 0.10697100 0.00187081 0.00677067
v 0.10635200 0.00427560 0.00677067
v 0.10414700 0.00893373 0.00677067
v 0.10590500 0.00674689 0.00324109
v 0.10664300 0.00498115 0.00324109
v 0.10750900 0.00187081 0.00324109
v 0.10756300 -0.00166066 -0.00029111
v 0.10674300 -0.00166066 -0.00296448
v 0.10647900 -0.00401004 -0.00262933
v 0.10289900 -0.00378471 -0.00574783
v 0.10078600 -0.00403959 -0.00581067
v 0.09372640 -0.00424646 -0.00590493
v 0.04463710 -0.00554305 -0.00646788
v 0.04429090 -0.00519212 -0.00650716
v 0.01460410 0.00187081 -0.00729268
v 0.02662820 0.00901870 0.01641160
v 0.03016260 0.00937332 0.01647700
v 0.09375380 -0.00554305 0.00921101
v 0.01460410 -0.00554305 0.00899892
v 0.01760100 0.00706457 0.01564700
v 0.09696020 -0.00554305 0.00908794
v 0.10149700 -0.00554305 0.00802750
v 0.10438400 -0.00554305 0.00685184
v 0.10560500 -0.00554305 0.00418894
v 0.10672500 -0.00416149 0.00677067
v 0.10766300 -0.00166066 0.00324109
v 0.10674300 -0.00431664 -0.00029111
v 0.10568700 -0.00554305 -0.00029111
v 0.10396500 -0.00554305 -0.00356148
v 0.10417500 -0.00507391 -0.00379713
v 0.10201600 -0.00554305 -0.00452242
v 0.10078600 -0.00554305 -0.00506705
v 0.09725170 -0.00554305 -0.00537864
v 0.09725170 -0.00420582 -0.00583685
v 0.09637720 -0.00554305 -0.00539697
v 0.01638040 -0.00554305 -0.00618510
v 0.01460410 -0.00554305 -0.00614844
v 0.01861210 0.00706457 0.01564700
v 0.06546980 -0.00554305 0.00970065
v 0.04075660 -0.00554305 0.00955925
v 0.10565000 -0.00554305 0.00324109
v 0.10678900 -0.00428340 0.00324109
v 0.10568700 -0.00554305 0.00076933
v -0.00163338 0.02880850 -0.00130470
v 0.01460410 0.02559050 0.01047150
v 0.01460410 0.02608150 0.00822524
v 0.00051972 0.02871430 -0.00141087
v -0.00163338 0.02880850 -0.00251725
v -0.01576530 0.02858320 -0.00161762
v -0.07225750 0.02671020 0.00324095
v -0.06519150 0.02682460 0.00324095
v -0.00014644 0.02486760 0.01210870
v 0.01050010 0.02494490 0.01218140
v 0.01115440 0.02494490 0.01218140
v 0.01460410 0.02497850 0.01121750
v 0.01460410 0.02634040 0.00676962
v 0.00051972 0.02871430 -0.00240270
v -0.01576530 0.02858320 -0.00233844
v 0.00410029 0.02485410 -0.00561288
v -0.00516637 0.02498190 -0.00569669
v -0.02635240 0.02511640 -0.00579448
v -0.04048440 0.02515340 -0.00583639
v -0.04401730 0.02514670 -0.00583918
v -0.06872450 0.02497850 -0.00572742
v -0.07225750 0.02572500 0.00594822
v -0.06519150 0.02687160 -0.00029052
v -0.08637750 0.02602430 -0.00029052
v -0.09697650 0.02538880 0.00324095
v -0.09697650 0.02500540 0.00531680
v 0.00702660 0.02135710 0.01565140
v -0.07579050 0.02556030 0.00599851
v -0.08536640 0.02518030 0.00595101
v -0.08284450 0.02244320 0.00951042
v -0.08565190 0.02234230 0.00944337
v 0.00728830 0.02135710 0.01565140
v 0.01460410 0.02322000 0.01275970
v 0.01460410 0.02450440 0.01176230
v 0.01460410 0.02579230 -0.00329674
v 0.00645561 0.02463220 -0.00551788
v -0.07137720 0.02493150 -0.00569110
v -0.08637750 0.02536520 -0.00281061
v -0.00163338 0.01952450 -0.00704614
v -0.00516637 0.02305860 -0.00629738
v 0.00896558 0.02259450 -0.00588388
v -0.04401730 0.02305860 -0.00657956
v -0.06872450 0.02305860 -0.00662985
v -0.09937940 0.02524420 0.00044986
v -0.09923660 0.02515000 0.00324095
v -0.09876080 0.02484070 0.00502903
v -0.09697650 0.02347550 0.00708254
v -0.01436170 0.01081900 0.01920240
v -0.08637750 0.01851580 0.01250270
v -0.08637750 0.01599390 0.01384650
v -0.09697650 0.02171020 0.00890415
v -0.09889170 0.01782980 0.01208920
v 0.01460410 0.01463540 0.01679690
v 0.01460410 0.01601410 0.01645040
v -0.01223230 0.01079540 0.01918560
v 0.00189961 0.01246320 0.01818260
v 0.01460410 0.02326700 -0.00512674
v 0.00896558 0.02436320 -0.00540054
v 0.01249860 0.02202290 -0.00578330
v -0.07243590 0.02337460 -0.00636722
v -0.09697650 0.02200940 -0.00606548
v -0.09697650 0.02365710 -0.00382199
v -0.09697650 0.02470280 -0.00146116
v -0.00163338 0.01599390 -0.00776975
v -0.00516637 0.01952450 -0.00711319
v -0.05459250 0.01599390 -0.00848219
v -0.06165850 0.01952450 -0.00774461
v -0.06519150 0.01952450 -0.00778372
v 0.00189961 0.01599390 -0.00756580
v -0.07225750 0.01952450 -0.00768314
v -0.09697650 0.01952450 -0.00719421
v -0.10050900 0.02309220 -0.00382199
v -0.10300800 0.02191530 -0.00382199
v -0.10423300 0.02257100 -0.00039949
v -0.10626700 0.02185140 0.00070689
v -0.10660000 0.02213050 0.00324095
v -0.10639800 0.02184800 0.00581132
v -0.09897490 0.02145130 0.00878681
v -0.03695140 0.00738584 0.01920800
v -0.01436170 0.01045920 0.01920240
v -0.03956840 0.00730178 0.01918290
v -0.10024800 0.01610150 0.01254180
v -0.09697650 0.01246320 0.01354480
v -0.07758670 0.01071470 0.01560390
v -0.10404200 0.01890250 0.00987363
v -0.10124700 0.01734900 0.01186290
v 0.01460410 0.01246320 0.01725230
v -0.01223230 0.01051630 0.01918560
v -0.01043610 0.01070800 0.01913260
v 0.01460410 0.02164970 -0.00569390
v -0.10050900 0.01952450 -0.00692600
v -0.10050900 0.02169340 -0.00587550
v -0.00163338 0.01246320 -0.00829780
v -0.00516637 0.01246320 -0.00840676
v -0.00869936 0.01246320 -0.00845984
v -0.04753840 0.01288690 -0.00893201
v -0.05812550 0.01319630 -0.00900745
v -0.05812550 0.01599390 -0.00851013
v -0.06165850 0.01599390 -0.00852969
v -0.06519150 0.01599390 -0.00850175
v -0.09697650 0.01599390 -0.00822236
v 0.00189961 0.01246320 -0.00808267
v 0.01249860 0.01952450 -0.00618003
v -0.10050900 0.01599390 -0.00797650
v -0.10234100 0.02136050 -0.00563523
v -0.10554100 0.02021390 -0.00164835
v -0.10582700 0.01786010 -0.00212331
v -0.10588600 0.01599390 -0.00241667
v -0.10616000 0.01923200 -0.00039949
v -0.10692100 0.01952450 0.00324095
v -0.10663600 0.01963210 0.00690094
v -0.10626700 0.01852250 0.00934558
v -0.03695140 0.00694872 0.01920800
v -0.02065440 0.00708658 0.01916050
v -0.05105950 0.00540196 0.01858500
v -0.03956840 0.00698570 0.01918290
v -0.10272200 0.01499520 0.01233780
v -0.10068800 0.01235560 0.01279320
v -0.09961730 0.00893260 0.01248310
v 0.01460410 0.00909064 0.01627720
v -0.01043610 0.01069120 0.01913260
v 0.01460410 0.01969600 -0.00597887
v -0.10279300 0.01952450 -0.00600681
v 0.00189961 0.00893260 -0.00831736
v -0.03061100 0.00540196 -0.00919184
v -0.03143180 0.00733541 -0.00914155
v -0.04753840 0.01112160 -0.00918067
v -0.05812550 0.01143430 -0.00919743
v -0.09697650 0.01246320 -0.00861630
v 0.01460410 0.01036170 -0.00712716
v 0.01460410 0.00893260 -0.00728641
v -0.10050900 0.01246320 -0.00794018
v -0.10342400 0.01599390 -0.00656559
v -0.10464900 0.01923200 -0.00350908
v -0.10518400 0.01599390 -0.00418241
v -0.10597000 0.01246320 -0.00276870
v -0.10602900 0.00605765 0.00324095
v -0.10597000 0.00661919 0.00546767
v -0.10597000 0.00893260 -0.00264856
v -0.10589800 0.00689828 -0.00231050
v -0.10597000 0.00626949 -0.00029052
v -0.10626700 0.01689510 0.00934558
v -0.04401730 0.00540196 0.01865200
v -0.01940540 0.00570458 0.01833070
v 0.01249860 -0.00554305 0.00923383
v -0.02629290 0.00159222 0.01677170
v -0.06720180 0.00353239 0.01566810
v -0.05105950 0.00207306 0.01711260
v -0.04753840 0.00211005 0.01719640
v -0.09902250 0.00696553 0.01217860
v -0.10272200 0.01346190 0.01233780
v 0.01460410 -0.00554305 0.00899914
v 0.00189961 0.00540196 -0.00834809
v 0.01460410 0.00682766 -0.00742611
v 0.01460410 0.00540196 -0.00749316
v 0.00543260 0.00187131 -0.00814413
v -0.03049210 0.00328021 -0.00919743
v -0.04401730 0.00540196 -0.00933433
v -0.04753840 0.00893260 -0.00930360
v -0.05812550 0.00893260 -0.00931198
v -0.06165850 0.01120570 -0.00917228
v -0.05105950 0.00893260 -0.00931477
v -0.07406560 0.00723789 -0.00912199
v -0.07406560 0.00712357 -0.00912199
v -0.07545740 0.00572812 -0.00894877
v -0.09697650 0.00893260 -0.00831456
v -0.06458480 0.01087610 -0.00914435
v -0.06165850 0.00893260 -0.00926728
v -0.10050900 0.00893260 -0.00747919
v -0.10287700 0.00647124 -0.00601240
v -0.10321000 0.00893260 -0.00611577
v -0.10343600 0.01246320 -0.00639237
v -0.10519600 0.01246320 -0.00453444
v -0.10556500 0.00429232 0.00324095
v -0.10432800 0.00519684 0.00692049
v -0.10313800 0.00613162 0.00932603
v -0.10531500 0.00893260 0.00740663
v -0.10498200 0.00893260 -0.00441709
v -0.10415000 0.00550956 -0.00378288
v -0.10305500 0.00292378 -0.00290281
v -0.10548200 0.00450416 -0.00029052
v -0.10354300 0.00893260 0.00984848
v -0.02743490 -0.00002515 0.01576590
v -0.01982170 -0.00554305 0.00980937
v -0.08284450 0.00301457 0.01257530
v -0.02918360 -0.00554305 0.00934000
v -0.02582900 -0.00554305 0.00976187
v -0.02852930 -0.00002515 0.01576590
v -0.10139000 0.00893260 0.01161420
v -0.10167500 0.00377786 0.00837331
v 0.01460410 -0.00554305 -0.00614930
v 0.01460410 0.00187131 -0.00729200
v 0.00896558 0.00187131 -0.00785078
v 0.00543260 -0.00166270 -0.00743728
v -0.01223230 -0.00554305 -0.00706570
v -0.04048440 0.00113492 -0.00890128
v -0.04401730 0.00097352 -0.00891525
v -0.04401730 0.00273884 -0.00923654
v -0.04753840 0.00540196 -0.00932874
v -0.07240020 0.00572812 -0.00901303
v -0.07932340 0.00540196 -0.00851013
v -0.09672670 0.00506234 -0.00661309
v -0.09905820 0.00353576 -0.00568831
v -0.10034300 0.00533807 -0.00635046
v -0.10141400 0.00411747 -0.00525526
v -0.10379300 0.00240931 0.00324095
v -0.10317400 0.00292714 0.00601807
v -0.10370900 0.00240931 -0.00029052
v -0.10034300 0.00263796 -0.00397566
v -0.10050900 0.00099705 -0.00029052
v -0.02266480 -0.00554305 0.00983172
v -0.09931990 0.00353239 0.00871137
v -0.10049800 0.00266486 0.00702387
v -0.03183630 -0.00554305 0.00845154
v -0.10050900 0.00103404 0.00324095
v -0.01568210 -0.00554305 -0.00654324
v -0.07932340 0.00236560 -0.00695394
v -0.07579050 0.00218402 -0.00718583
v -0.01678840 -0.00554305 -0.00637002
v -0.02281940 -0.00554305 -0.00536701
v -0.02642380 -0.00554305 -0.00471604
v -0.03751050 -0.00554305 0.00324095
v -0.03747480 -0.00554305 0.00376340
v -0.02943340 -0.00554305 -0.00379964
v -0.02989730 -0.00554305 -0.00354540
v -0.03489340 -0.00554305 -0.00029052
v -0.03471500 -0.00554305 0.00676962
v -0.03695140 -0.00554305 0.00451496
v -0.03591650 -0.00554305 0.00573030
vn -0.01222790 0.07260578 -0.99728576
vn -0.03172319 0.25836391 -0.96552666
vn 0.00349227 0.18760699 -0.98223797
vn -0.00756646 0.93714239 -0.34886515
vn 0.12794596 -0.00261589 -0.99177769
vn 0.09224179 -0.14980798 -0.98440288
vn 0.07345980 -0.26299699 -0.96199597
vn 0.03430850 -0.28724000 -0.95724402
vn -0.01624980 -0.12700500 -0.99176896
vn -0.04439291 -0.00999361 -0.99896416
vn -0.03748019 0.32637590 -0.94449670
vn -0.02834909 0.98212270 -0.18609494
vn 0.95219522 0.24421206 -0.18353404
vn -0.04529460 0.78363106 -0.61957305
vn -0.03235920 0.96631495 -0.25531999
vn 0.18688696 0.02352090 -0.98209981
vn 0.12686000 -0.07634790 -0.98897803
vn 0.19808503 -0.19745703 -0.96009012
vn 0.15210105 -0.24617508 -0.95721633
vn 0.07403191 -0.28463805 -0.95577218
vn 0.05672781 -0.41143705 -0.90967110
vn 0.12684902 -0.43129705 -0.89324811
vn 0.04203071 -0.34054807 -0.93928719
vn 0.03153780 -0.30306798 -0.95244694
vn 0.01618639 -0.26561389 -0.96394360
vn 0.00718150 -0.39777701 -0.91745402
vn -0.00165149 -0.21151391 -0.97737359
vn -0.01890230 -0.16380899 -0.98631096
vn -0.04106289 -0.06302479 -0.99716684
vn -0.10546298 -0.05770099 -0.99274778
vn -0.06351458 -0.01624779 -0.99784864
vn -0.09209036 0.19565391 -0.97633955
vn -0.12530597 0.72248385 -0.67993786
vn -0.02722201 0.98603222 -0.16431504
vn 0.55139609 0.60395910 0.57549610
vn -0.08443631 0.93509115 -0.34420205
vn -0.04192092 0.96106638 -0.27311911
vn -0.02792670 0.98622116 -0.16305803
vn 0.06196441 -0.57062007 -0.81887310
vn 0.04229420 -0.35401497 -0.93428293
vn 0.20794398 -0.53584495 -0.81830892
vn 0.06782719 -0.54655795 -0.83466992
vn 0.06704321 -0.54658711 -0.83471417
vn 0.03095150 -0.31758396 -0.94772487
vn 0.02983698 -0.59283969 -0.80476758
vn 0.01089629 -0.79832851 -0.60212363
vn -0.01366909 -0.82163456 -0.56985069
vn -0.02252991 -0.63632224 -0.77109429
vn 0.02323460 -0.78517893 -0.61883294
vn -0.04469898 -0.51250075 -0.85752258
vn -0.08943500 -0.71520301 -0.69317100
vn -0.06818290 -0.19638699 -0.97815297
vn -0.12878902 -0.56045009 -0.81811313
vn -0.19790395 -0.46657488 -0.86205679
vn -0.23057711 -0.41619919 -0.87955240
vn -0.28907315 -0.77645640 -0.55995729
vn -0.35173905 -0.18972003 -0.91667113
vn -0.37061601 -0.09255520 -0.92416303
vn -0.41008793 -0.03814759 -0.91124785
vn -0.39358719 0.44909421 -0.80212438
vn -0.20307205 0.69517617 -0.68955916
vn -0.02662901 0.98705355 -0.15816509
vn 0.72990078 0.05267128 0.68152079
vn 0.03395299 0.97217076 0.23179994
vn 0.16161795 0.13344996 0.97778870
vn -0.38321416 0.69705028 -0.60602625
vn -0.12932197 0.97127081 -0.19977196
vn -0.03941840 0.98965601 -0.13793900
vn 0.12934399 -0.81335294 -0.56720996
vn 0.06628997 -0.79256259 -0.60617669
vn 0.01503370 -0.85537388 -0.51779293
vn -0.02071740 -0.87775205 -0.47866703
vn -0.07600330 -0.89487399 -0.43980000
vn -0.07557122 -0.86299921 -0.49952112
vn -0.09712799 -0.89252990 -0.44040495
vn -0.13885502 -0.97420213 -0.17790302
vn -0.36106879 -0.92747546 -0.09704944
vn -0.87586310 -0.09076871 -0.47394606
vn -0.62890576 -0.04422498 -0.77622271
vn -0.12674301 -0.96970808 -0.20881202
vn -0.72961010 0.02009400 -0.68356809
vn -0.69873198 0.31092499 -0.64428198
vn -0.01226670 0.99883685 -0.04663129
vn 0.11387103 -0.10387503 0.98805029
vn 0.14684393 -0.11446395 0.98251456
vn 0.29269891 -0.33670590 0.89496172
vn 0.03097821 0.95792735 0.28533410
vn 0.07837046 0.39852379 0.91380351
vn 0.06806081 0.33784105 0.93873913
vn 0.02589930 0.63925804 0.76855604
vn -0.84447381 0.37629392 -0.38113891
vn -0.50556820 0.82841333 -0.24110610
vn -0.47311894 0.87921590 -0.05601669
vn -0.12352203 0.98794128 0.09335063
vn -0.00863077 0.99961270 0.02645689
vn -0.01243301 0.99892146 -0.04473622
vn 0.39115399 -0.86527199 -0.31353300
vn 0.09367229 -0.94684890 -0.30773797
vn 0.07554982 -0.85603020 -0.51137512
vn 0.04372990 -0.96439002 -0.26084400
vn 0.01321810 -0.97954678 -0.20078195
vn -0.00897582 -0.97687536 -0.21362108
vn -0.07609833 -0.97190438 -0.22273509
vn -0.13431106 -0.98582944 -0.10050304
vn -0.28031909 -0.95903031 0.04101301
vn -0.84456881 -0.53478988 0.02652019
vn -0.96072921 -0.24086405 -0.13778203
vn -0.95857979 0.05299809 -0.27984994
vn -0.91576314 0.09448911 -0.39044806
vn -0.00702173 0.99975751 -0.02087139
vn 0.05672142 -0.20682507 0.97673234
vn 0.07385721 -0.15300201 0.98546207
vn 0.07754870 -0.24174101 0.96723704
vn 0.45956108 -0.55079609 0.69672612
vn 0.07918260 -0.52571403 0.84696805
vn 0.01223180 0.85731122 0.51465313
vn 0.03855711 0.62286310 0.78138013
vn 0.00577863 0.80298975 0.59596482
vn -0.08494663 0.27348010 0.95811936
vn -0.87083917 0.46117309 -0.17017203
vn -0.62477487 0.77727183 0.07419478
vn -0.13499002 0.94772012 0.28914404
vn -0.04359480 0.97721406 0.20773101
vn -0.53280406 0.67054107 0.51623106
vn -0.01211921 0.98164341 0.19034008
vn -0.00850391 0.98982870 0.14200996
vn -0.00168660 0.99996876 0.00772286
vn -0.00223214 0.99998599 0.00479959
vn -0.00244462 0.99999031 0.00366101
vn -0.00263963 0.99999309 0.00261603
vn -0.00272408 0.99999395 0.00216346
vn -0.00289130 0.99999502 0.00126739
vn -0.00354954 0.99999115 -0.00226017
vn -0.00395619 0.99998232 -0.00443954
vn -0.00440637 0.99996681 -0.00685226
vn 0.35932007 -0.93025118 -0.07430901
vn 0.11957299 -0.99278792 0.00862804
vn 0.09183389 -0.99556589 0.02037410
vn 0.03985072 -0.99696344 -0.06690153
vn 0.00379174 -0.99983132 -0.01797071
vn -0.02755609 -0.99794675 0.05781829
vn -0.09075186 -0.89131162 0.44421581
vn -0.34653805 -0.89515712 0.28036604
vn -0.85184323 -0.20424006 0.48233713
vn -0.98075869 -0.18821794 -0.05183038
vn -0.99919114 0.00993448 -0.03896641
vn -0.98282557 0.06127197 -0.17406792
vn -0.05957049 -0.31234294 0.94809981
vn 0.00762495 -0.33027200 0.94385500
vn 0.01118710 -0.39111409 0.92027421
vn 0.23901698 -0.72826893 0.64225794
vn 0.04725661 -0.66880311 0.74193612
vn 0.08104329 -0.70956794 0.69996094
vn -0.00046907 0.99800247 0.06317323
vn -0.07940633 0.59233221 0.80177128
vn -0.10185099 0.22308299 0.96946395
vn -0.08496923 -0.21773908 0.97230135
vn -0.84448828 0.48646416 0.22403607
vn -0.91862573 0.07299468 0.38832789
vn -0.30971389 0.61909977 0.72165974
vn -0.83534761 0.21298490 0.50678576
vn -0.57522210 0.28495605 0.76675914
vn -0.46418415 0.47353516 0.74853025
vn 0.40650194 -0.90469886 0.12757798
vn 0.12312599 -0.96287991 0.24021298
vn 0.00502401 -0.86801191 0.49651795
vn -0.01174820 -0.97554513 0.21948503
vn -0.01660200 -0.86728680 0.49753189
vn -0.05147932 -0.66063025 0.74894429
vn -0.17244407 -0.84601035 0.50450921
vn -0.03075620 -0.74117592 0.67060593
vn -0.46600300 -0.62872400 0.62253300
vn -0.68782800 -0.53160200 0.49425900
vn -0.95486245 0.01333519 0.29674883
vn -0.62366789 -0.29518595 0.72381187
vn -0.57062391 -0.18903297 0.79915887
vn -0.88401682 0.03318209 0.46627590
vn -0.06143819 -0.31386493 0.94747779
vn -0.05678011 -0.36737503 0.92833809
vn -0.04608518 -0.32298989 0.94527969
vn 0.00208132 -0.53424389 0.84532783
vn -0.16428506 0.23655509 0.95762838
vn -0.16431897 0.06217459 0.98444583
vn -0.11758299 -0.29912097 0.94694291
vn -0.08279724 -0.34279215 0.93575540
vn -0.25942207 0.21632206 0.94122524
vn -0.60160571 0.08006386 0.79477062
vn -0.22613509 0.05766902 0.97238737
vn -0.18045899 -0.34473699 0.92118997
vn 0.00057612 0.99999983 0.00000523
vn 0.81587743 -0.43237723 -0.38391920
vn 0.75403402 -0.65666802 0.01482620
vn 0.71082616 -0.70115315 -0.05577121
vn 0.65100005 -0.66726006 -0.36188803
vn 0.60688999 -0.24821000 -0.75503399
vn 0.78909069 -0.55296478 0.26751790
vn 0.71688239 -0.69681838 0.02288611
vn 0.66693903 -0.73833003 0.10030500
vn 0.64979742 -0.75376249 -0.09800726
vn 0.44330512 -0.70601819 -0.55228515
vn 0.40329890 0.39392690 -0.82593680
vn 0.37481097 -0.52490996 -0.76418994
vn 0.59334935 -0.00920076 0.80489247
vn 0.63909284 -0.71533082 0.28259893
vn 0.32057814 -0.64936127 0.68960829
vn 0.61159914 -0.79073319 0.02622051
vn 0.60820602 -0.79121303 -0.06377600
vn 0.28820002 -0.50262403 -0.81505205
vn 0.53387193 -0.84482789 -0.03530710
vn 0.48248007 -0.87424713 -0.05389751
vn 0.46747586 -0.87906874 -0.09329777
vn 0.41436898 -0.88002695 -0.23205799
vn 0.29856207 -0.53318112 -0.79156717
vn 0.12294095 -0.15052794 -0.98093163
vn 0.28536191 -0.42925186 0.85691973
vn 0.39935786 -0.87961769 0.25842991
vn 0.40949005 -0.90337612 0.12739502
vn 0.47031693 -0.88202588 0.02885020
vn 0.53495601 -0.84427502 0.03196490
vn 0.24843503 -0.53318006 0.80870209
vn 0.35032823 -0.80297653 0.48218132
vn 0.23998494 -0.46259389 -0.85347180
vn 0.41569882 -0.90711160 -0.06590167
vn 0.39699689 -0.90713975 -0.13960996
vn 0.04140540 0.11945400 -0.99197598
vn 0.11182199 -0.19709199 -0.97398696
vn -0.00156909 -0.03517510 -0.99937993
vn 0.08558346 -0.03555158 0.99569652
vn 0.20740698 -0.41428497 0.88619993
vn 0.38416890 -0.91513477 0.12223997
vn 0.41037206 -0.91187713 0.00865242
vn 0.07234958 -0.16016796 0.98443474
vn 0.05427148 -0.51685380 0.85435166
vn 0.06055401 -0.72291908 0.68827408
vn 0.05320159 -0.89177482 0.44934091
vn -0.01045320 -0.99723326 0.07359722
vn 0.00033617 -0.99966300 -0.02595700
vn -0.01640810 -0.99166294 -0.12780999
vn -0.11080404 -0.77454231 -0.62274125
vn -0.03176310 -0.28901999 -0.95679598
vn 0.00976084 -0.27220309 -0.96219032
vn 0.22129998 -0.97516391 -0.00903708
vn 0.01845191 0.45395920 -0.89083139
vn 0.01064780 0.06828878 -0.99760877
vn -0.05730908 -0.17368894 -0.98313164
vn -0.04698442 -0.09627314 -0.99424542
vn -0.03457919 -0.02310769 -0.99913478
vn -0.01652510 0.42818298 -0.90354096
vn 0.02692040 0.48709305 0.87293508
vn 0.00488538 -0.02923009 0.99956077
vn -0.02649421 -0.12698903 0.99155022
vn -0.00965077 -0.57641620 0.81709928
vn -0.13195395 -0.83919468 0.52757980
vn -0.16378995 -0.94267070 0.29076591
vn -0.06586941 -0.98559613 -0.15576102
vn -0.16603305 -0.91486826 -0.36803410
vn -0.16722805 -0.85367428 -0.49322916
vn -0.10801698 -0.41714993 -0.90239585
vn 0.00934555 0.52163715 -0.85311625
vn -0.00446852 0.06365121 -0.99796220
vn -0.07839402 -0.25430607 -0.96394128
vn -0.99952224 -0.00209627 -0.03083661
vn -0.07131383 -0.01051920 -0.99739846
vn -0.05126280 0.91728205 -0.39492502
vn -0.00045870 -0.00254882 0.99999665
vn 0.00221478 0.94098362 0.33844486
vn -0.10406395 -0.00692420 0.99454650
vn -0.23472209 -0.28086110 0.93060334
vn -0.05419548 -0.33649989 0.94012269
vn -0.13435099 -0.70504692 0.69631792
vn -0.24647208 -0.80587725 0.53834317
vn -0.40897482 -0.90086660 0.14552994
vn -0.37096795 -0.92491188 -0.08319129
vn -0.31759600 -0.89141800 -0.32327500
vn -0.18575999 -0.82223196 -0.53798497
vn -0.16172493 -0.54036176 -0.82574464
vn -0.12211993 -0.40395376 -0.90659146
vn -0.17699098 -0.25229597 -0.95132588
vn -0.11499805 -0.20099209 -0.97281942
vn -0.18462696 0.01573100 -0.98268277
vn -0.08754537 0.99610262 -0.01074180
vn -0.00785563 0.55185920 0.83390030
vn -0.00805431 0.69095597 0.72285197
vn -0.04906690 0.89672692 0.43985596
vn -0.17564898 0.98386391 0.03404750
vn -0.39120999 -0.57128499 0.72151799
vn 0.40298586 0.91496568 -0.02098109
vn 0.22061202 0.84090508 -0.49417505
vn -0.01493451 0.99959739 -0.02412491
vn 0.25459691 0.83182472 0.49320183
vn 0.46920077 0.87609757 0.11092195
vn 0.47561904 0.75091306 -0.45816603
vn 0.20163299 0.40902899 -0.88996597
vn 0.08965232 0.58820911 -0.80372415
vn 0.06034011 0.61428207 -0.78677609
vn 0.05075070 0.68055099 -0.73094098
vn 0.03080419 0.66587877 -0.74542375
vn -0.00372453 0.69224498 -0.72165298
vn -0.02567629 0.96066053 -0.27653586
vn -0.01400871 0.91045439 0.41337218
vn -0.06325821 0.98695920 -0.14802003
vn -0.09364372 0.96583416 0.24165104
vn 0.05741772 0.72436623 0.68702021
vn 0.08345231 0.70939409 0.69985409
vn 0.20231201 0.64612903 0.73592603
vn 0.35259906 0.69484211 0.62679210
vn 0.48701413 0.85425022 0.18186205
vn -0.01596601 0.80117254 0.59822040
vn 0.58836869 0.80851658 0.01110049
vn 0.65242797 0.74425796 -0.14289099
vn 0.60390624 0.65316426 -0.45680818
vn 0.41979802 0.46298502 -0.78065004
vn 0.29781306 0.39948108 -0.86701917
vn 0.11748402 0.24227504 -0.96306817
vn 0.16613404 0.26994107 -0.94843624
vn 0.10982605 0.22638510 -0.96782644
vn 0.09243410 0.24064001 -0.96620304
vn 0.04268040 0.33075799 -0.94274998
vn 0.04253030 0.43289399 -0.90044098
vn 0.00899179 0.24903987 -0.96845149
vn -0.03619300 0.92848302 -0.36960701
vn -0.00780984 0.38011388 -0.92490672
vn -0.01773980 0.52415694 -0.85143690
vn -0.06168972 0.96677229 -0.24808408
vn -0.08434579 0.98141290 -0.17237898
vn -0.10542997 0.91683375 -0.38509790
vn -0.13304704 0.99110926 0.00095754
vn -0.92530669 0.37921687 0.00144989
vn -0.12277699 0.97268394 0.19700699
vn -0.11232802 0.93703915 0.33066605
vn -0.07254442 0.66785215 0.74075017
vn -0.07159728 0.88028979 0.46900289
vn -0.05622308 0.85289773 0.51904184
vn 0.01708280 0.65485793 0.75555892
vn 0.06736418 0.65731082 0.75060279
vn -0.03532329 0.67963681 0.73269780
vn 0.12720294 0.61546770 0.77782962
vn 0.18488398 0.41922495 0.88885789
vn 0.22708704 0.55008109 0.80364313
vn 0.37917194 0.31919895 0.86852787
vn 0.46393582 0.49840881 0.73236072
vn 0.59200215 0.56416114 0.57554814
vn 0.66554696 0.72014996 0.19603899
vn -0.05930501 0.83669214 0.54445309
vn 0.69175216 0.72059417 -0.04714851
vn 0.73496078 0.67476180 -0.06729908
vn 0.68084884 0.59355886 -0.42910690
vn 0.65689984 0.51301188 -0.55254087
vn 0.47476013 0.40472511 -0.78153721
vn 0.30713393 0.34559992 -0.88669580
vn 0.14119096 0.18745595 -0.97207272
vn 0.10358602 0.15469904 -0.98251623
vn 0.05357018 0.09745997 -0.99379665
vn 0.05781989 0.14113898 -0.98829988
vn 0.05694062 0.15758604 -0.98586227
vn 0.06641080 0.17900099 -0.98160494
vn 0.01699700 0.13649303 -0.99049521
vn -0.09129163 0.21497507 -0.97234333
vn -0.04553083 0.69988140 -0.71280641
vn -0.15021595 0.47840884 -0.86519371
vn -0.25902290 0.93517464 -0.24156891
vn -0.67247390 0.56714292 0.47552893
vn -0.76297336 0.42666120 0.48562523
vn -0.83516420 0.26575306 0.48153512
vn -0.29022609 0.39355713 0.87228528
vn -0.10722897 0.45116788 0.88597376
vn -0.08073353 0.46145720 0.88348138
vn -0.04704260 0.61115598 0.79011098
vn -0.04449469 0.63694891 0.76962089
vn 0.02983089 0.54620277 0.83712165
vn 0.10087105 0.46754625 0.87819447
vn 0.17916905 0.19040005 0.96521825
vn 0.20273193 0.32380389 0.92414869
vn 0.07006162 0.42753813 0.90127827
vn 0.16130095 0.18802894 0.96882770
vn 0.30773811 0.08980643 0.94722334
vn 0.28070412 0.05698132 0.95810142
vn 0.30138117 0.06304033 0.95141753
vn 0.39336005 0.16818102 0.90387113
vn 0.55860221 0.31844112 0.76587129
vn 0.60931207 0.48745106 0.62540408
vn 0.23939795 0.11652498 0.96390381
vn 0.72458832 0.64214028 0.25025511
vn 0.69922011 0.69469210 0.16880203
vn 0.76888603 0.62014103 0.15569001
vn 0.77484684 0.62505087 -0.09446578
vn 0.78380011 0.53312307 -0.31849204
vn 0.73441636 0.42592121 -0.52841626
vn 0.49178629 0.36273721 -0.79156046
vn 0.53742922 0.26247911 -0.80142033
vn 0.29998286 0.13978394 -0.94364757
vn 0.08219050 0.09023730 -0.99252302
vn 0.06674159 0.07402049 -0.99502087
vn 0.01992660 0.03754701 -0.99909617
vn 0.02118140 0.08797069 -0.99589784
vn 0.05072001 0.12975303 -0.99024827
vn 0.01817150 0.11457197 -0.99324874
vn -0.13022995 0.11731695 -0.98451861
vn -0.21216697 0.12321998 -0.96943386
vn -0.31540396 0.20892597 0.92567288
vn -0.04241829 -0.11844096 0.99205465
vn 0.00125965 0.44788312 0.89409123
vn -0.33831515 -0.09803474 0.93591241
vn 0.22603296 0.10661398 0.96826782
vn 0.01937451 0.34886819 0.93697151
vn 0.05508897 -0.26733187 0.96202852
vn 0.37180887 0.00676337 0.92828467
vn 0.71656691 0.12091599 0.68695792
vn 0.78377839 0.32176316 0.53118726
vn 0.86018692 0.47002296 0.19788098
vn 0.77503812 0.59746009 0.20580903
vn 0.78701002 0.61691001 0.00610518
vn 0.83048389 0.55698392 0.00808839
vn 0.87542084 0.47693991 -0.07852819
vn 0.89320401 0.41468101 -0.17385700
vn 0.83073568 0.47531382 -0.28974989
vn 0.96858666 0.17982694 -0.17176194
vn 0.75677170 0.16239194 -0.63318675
vn 0.61064978 0.01424119 -0.79177272
vn 0.05373319 0.00575886 -0.99853872
vn 0.30642982 0.02695828 -0.95151144
vn 0.01319300 -0.05511569 -0.99839281
vn -0.09468859 -0.01627250 -0.99537394
vn -0.04175500 0.05532430 -0.99759498
vn 0.01807519 0.10950696 -0.99382167
vn -0.04042909 0.10066397 -0.99409871
vn 0.01299820 -0.34922108 0.93695020
vn -0.73597606 -0.21327902 0.64253505
vn 0.06126191 -0.30971705 0.94885316
vn 0.03304689 -0.34306088 0.93873166
vn 0.17450698 -0.33536496 0.92578489
vn 0.98534562 -0.02049439 0.16933394
vn 0.96148835 0.14771905 0.23177409
vn 0.92040585 0.34743494 0.17928197
vn 0.88359196 0.41888498 0.20928599
vn 0.90222201 0.42034800 0.09645210
vn 0.95091598 0.30938699 0.00620457
vn 0.98836773 0.14403696 0.04881179
vn 0.99003678 -0.06149099 -0.12667297
vn 0.87159736 0.00956094 -0.49012920
vn 0.75890117 -0.40245109 -0.51195911
vn 0.40823693 -0.31719395 -0.85599685
vn 0.03479551 -0.18058803 -0.98294315
vn 0.01660690 -0.19343299 -0.98097293
vn 0.00048472 -0.98870134 -0.14989805
vn 0.01051650 -0.06838179 -0.99760380
vn -0.18420997 -0.08217359 -0.97944586
vn 0.01068310 -0.37248697 0.92797593
vn 0.01987230 -0.36806195 0.92958888
vn 0.02041420 -0.56406500 0.82547800
vn -0.55697020 -0.78413628 0.27370510
vn -0.01810760 -0.44762901 0.89403601
vn 0.04817368 -0.74614562 0.66403766
vn 0.01479680 -0.99868296 0.04912630
vn 0.02135359 -0.99951074 0.02285379
vn 0.04963840 -0.99869695 0.01185060
vn 0.90767209 -0.41184704 0.08070561
vn 0.98640942 -0.16257607 0.02377991
vn 0.91385508 -0.40210504 -0.05639531
vn 0.05053411 -0.99864612 -0.01233790
vn 0.03219859 -0.99900277 -0.03093079
vn 0.55165508 -0.49778007 -0.66924710
vn 0.03090761 -0.99738931 -0.06526312
vn 0.03504521 -0.97524821 -0.21831805
vn 0.02894392 -0.76371246 -0.64490738
vn 0.02211751 -0.32379910 -0.94586730
vn 0.01953870 -0.32996707 -0.94379021
vn -0.01051140 -0.15252300 -0.98824402
vn -0.80245312 -0.59646809 -0.01716990
vn 0.00875719 -0.39917293 0.91683384
vn 0.00463786 -0.80895513 0.58785210
vn -0.00674634 -0.87224770 0.48901783
vn 0.02018760 -0.99979609 0.00048399
vn 0.86591322 -0.50002912 0.01285210
vn 0.02023061 -0.99979532 0.00020870
vn -0.00800002 0.96748263 0.25281090
vn 0.73893295 0.64627596 0.19053999
vn 0.05072499 0.97903884 0.19725597
vn 0.08343062 0.98745520 0.13405803
vn 0.00000503 0.71896809 -0.69504308
vn -0.02314360 0.99475895 0.09959420
vn -0.03104970 0.98615307 0.16290501
vn -0.01119550 0.95905129 0.28301109
vn -0.03171120 0.82773396 0.56022397
vn -0.00920139 0.77958091 0.62623393
vn 0.14803807 0.64043432 0.75361038
vn 0.17325798 0.75359491 0.63409493
vn 0.23345290 0.97210859 -0.02246399
vn 0.17075203 0.94393614 -0.28253904
vn -0.03701451 0.96972823 -0.24136506
vn 0.03547599 0.41228785 -0.91036267
vn 0.00896717 0.47980003 -0.87733205
vn 0.00596772 0.54729407 -0.83691911
vn 0.00272713 0.49572824 -0.86847342
vn -0.00690861 0.63381878 -0.77345073
vn -0.01229340 0.70278504 -0.71129604
vn -0.02382700 0.93317410 0.35863404
vn -0.03745799 0.99832265 -0.04414508
vn -0.04778371 0.98980018 -0.13421002
vn -0.05762609 0.99620575 0.06521758
vn -0.05153481 0.90541122 0.42139610
vn -0.04192548 0.51900971 0.85373952
vn -0.03532809 0.85284370 0.52096982
vn -0.04202270 0.78746508 0.61492506
vn -0.04252468 0.77706372 0.62798378
vn -0.04770081 0.65898019 0.75064622
vn 0.08735240 0.31629999 0.94462896
vn 0.29400200 0.48322900 0.82465299
vn 0.24185991 0.63976475 0.72952371
vn 0.37105109 0.87806321 -0.30220207
vn 0.09436898 0.62415084 -0.77558380
vn -0.05316270 0.85806497 -0.51078198
vn -0.05313200 0.93989700 -0.33729900
vn 0.03632351 0.21547205 -0.97583421
vn 0.01074841 0.24754213 -0.96881751
vn 0.05235569 0.20391397 -0.97758784
vn 0.00501106 0.30415994 -0.95260780
vn -0.00893746 0.33870505 -0.94085015
vn -0.22692101 0.95314703 -0.20004401
vn -0.31759702 0.93928306 0.12992101
vn -0.23776195 0.79844082 0.55313788
vn -0.09363289 0.73457789 0.67203290
vn -0.04047618 0.36517986 0.93005664
vn -0.04659931 0.57288910 0.81830714
vn -0.04942761 0.35975905 0.93173512
vn -0.08131764 0.67659733 0.73184936
vn -0.08821662 0.58131810 0.80888015
vn 0.16081295 0.22810292 0.96026468
vn 0.36694094 0.39588593 0.84180085
vn 0.03433790 0.25718897 0.96575087
vn 0.05491598 0.22346991 0.97316259
vn 0.91878185 0.19771697 -0.34168394
vn 0.12242804 0.48341616 -0.86678728
vn 0.06658352 0.20241705 -0.97703325
vn -0.03348000 0.41168704 -0.91071009
vn -0.06005399 0.58618991 -0.80794487
vn -0.09593775 0.84140455 -0.53182171
vn -0.10861202 0.91035714 -0.39931606
vn 0.01869050 0.17983002 -0.98352012
vn 0.01250890 0.21000602 -0.97762007
vn 0.01184490 0.20510698 -0.97866788
vn 0.01085760 0.22532598 -0.97422293
vn -0.00037992 0.25853097 -0.96600289
vn 0.06765739 0.16277497 -0.98434079
vn -0.01776380 0.28694207 -0.95778322
vn -0.02907131 0.32945907 -0.94372220
vn -0.24657000 0.86656099 -0.43390700
vn -0.43530110 0.83450018 -0.33782007
vn -0.43074430 0.85185959 -0.29798421
vn -0.76120417 0.57115213 -0.30717007
vn -0.61371618 0.78940923 0.01362100
vn -0.34434191 0.78548980 0.51423187
vn -0.19840293 0.70942176 0.67628177
vn -0.00545359 0.03076190 0.99951186
vn 0.00333622 -0.01685161 0.99985244
vn -0.05816309 0.26685896 0.96197887
vn -0.10562998 0.22900196 0.96767784
vn -0.12076398 -0.01602920 0.99255183
vn -0.08135793 0.16820207 0.98238941
vn -0.21855308 0.67940724 0.70045725
vn -0.27439495 0.44353692 0.85321885
vn 0.26117508 -0.18265706 0.94785230
vn 0.02023031 -0.05129802 0.99847847
vn 0.06797463 0.06063973 0.99584249
vn 0.76312887 0.12978998 -0.63307889
vn -0.16681095 0.34743989 -0.92274570
vn -0.13621798 0.69509092 -0.70589892
vn 0.04789621 0.10889903 -0.99289826
vn 0.02044341 0.04975032 -0.99855244
vn 0.01380269 0.15596194 -0.98766662
vn 0.01329450 0.16315806 -0.98651037
vn -0.00645122 0.13098505 -0.99136335
vn 0.00659005 0.19694104 -0.98039319
vn -0.00116493 0.18860295 -0.98205273
vn -0.00855825 0.18062998 -0.98351389
vn -0.01499680 0.18388700 -0.98283298
vn 0.08608028 0.11398897 -0.98974577
vn 0.08117049 0.14419298 -0.98621485
vn -0.22359992 0.16415194 -0.96075867
vn -0.61201829 0.50221124 -0.61091529
vn -0.81667994 0.29331698 -0.49698996
vn -0.91624491 0.14303299 -0.37421496
vn -0.96761935 0.05267232 -0.24685709
vn -0.97687201 0.04767160 -0.20844300
vn -0.99872575 -0.02707499 -0.04258899
vn -0.99571375 -0.01885650 0.09054588
vn -0.54736508 0.35234405 0.75910812
vn 0.00126279 -0.13248503 0.99118420
vn 0.07808310 -0.37987600 0.92173600
vn -0.11378500 -0.16567001 0.97959503
vn -0.02631169 -0.12438797 0.99188474
vn -0.29766388 0.18286893 0.93699262
vn -0.21958208 -0.08917013 0.97151037
vn -0.14579005 -0.18999407 0.97090036
vn 0.39405204 -0.38392403 0.83506008
vn 0.08660943 -0.23644008 0.96777833
vn 0.81151456 0.07287026 -0.57977068
vn -0.61556996 0.25703998 -0.74498595
vn 0.04523320 0.02607750 -0.99863603
vn 0.02175220 0.01739960 -0.99961197
vn 0.01682320 0.05173979 -0.99851889
vn 0.01395811 0.08195403 -0.99653836
vn -0.00561580 0.08491632 -0.99637226
vn -0.02875981 0.03667461 -0.99891333
vn 0.79822822 0.07263992 -0.59795916
vn 0.58714920 0.06097072 -0.80717928
vn -0.35113416 -0.07236693 -0.93352441
vn -0.61484118 0.07563992 -0.78501524
vn -0.79362434 0.27328212 -0.54357823
vn -0.84605722 0.15520004 -0.51000013
vn -0.96848470 0.02141259 -0.24815092
vn -0.99604589 -0.08867679 0.00538544
vn -0.97257457 -0.13399494 0.19011592
vn -0.97231921 -0.03446921 -0.23110005
vn -0.93722809 -0.21312302 -0.27601103
vn -0.99446266 -0.09845897 -0.03674039
vn -0.87314359 -0.16227492 0.45965978
vn 0.00626372 -0.39866304 0.91707609
vn 0.08456452 -0.46900411 0.87913821
vn 0.03810960 -0.90138705 0.43133402
vn 0.04788349 -0.46696792 0.88297686
vn -0.13586499 -0.43355697 0.89082493
vn -0.08415276 -0.77177265 0.63030571
vn 0.00139823 -0.45459905 0.89069509
vn -0.18130094 -0.41817285 0.89009069
vn -0.61091771 -0.19381091 0.76760464
vn 0.99658114 -0.06919231 0.04514921
vn 0.02837330 -0.00696333 -0.99957314
vn 0.81368207 0.03398210 -0.58031605
vn 0.62166510 0.00023415 -0.78328312
vn 0.03458030 -0.13056801 -0.99083611
vn 0.02006941 -0.13257006 -0.99097043
vn 0.00559972 -0.00231223 -0.99998165
vn 0.01013260 0.03681369 -0.99927078
vn -0.00661122 -0.00022380 -0.99997812
vn -0.01288251 0.05316902 -0.99850243
vn 0.00079146 0.02453849 -0.99969857
vn -0.01551980 0.02616930 -0.99953704
vn -0.01724611 -0.05417762 -0.99838237
vn -0.04346389 -0.17915197 -0.98286086
vn -0.09615162 -0.25858905 -0.96119018
vn -0.01424029 0.04174988 -0.99902661
vn -0.01488031 0.03303421 -0.99934344
vn -0.27564395 -0.21545496 -0.93680284
vn -0.55940113 -0.30557607 -0.77051518
vn -0.56315972 -0.10452595 -0.81971059
vn -0.60541504 -0.06869271 -0.79294006
vn -0.82471654 -0.01092999 -0.56544068
vn -0.83694133 -0.52881321 0.14101705
vn -0.74402699 -0.49673199 0.44685699
vn -0.66503515 -0.35235008 0.65846615
vn -0.79786657 -0.23292088 0.55601870
vn -0.76453170 -0.13443795 -0.63041075
vn -0.72127723 -0.43570414 -0.53844317
vn -0.57092619 -0.67400923 -0.46878016
vn -0.83196362 -0.50737477 -0.22451590
vn -0.74392986 -0.21738096 0.63191288
vn 0.02027940 -0.67543115 0.73714416
vn 0.01166280 -0.72758617 0.68591716
vn -0.12225600 -0.82612800 0.55006000
vn -0.10612502 -0.89056120 0.44231010
vn -0.03321431 -0.78972032 0.61256725
vn -0.02520761 -0.73472720 0.67789418
vn -0.50008304 -0.30465603 0.81061807
vn -0.24017693 -0.68570179 0.68711579
vn 0.77059397 -0.58815598 -0.24547399
vn 0.96602746 -0.03149542 -0.25651312
vn 0.09182896 -0.12135295 -0.98835262
vn 0.03328309 -0.22106997 -0.97468985
vn -0.01302341 -0.69025140 -0.72345242
vn 0.01471090 -0.20595402 -0.97845109
vn -0.05172258 -0.43465684 -0.89910967
vn -0.01118899 -0.10195095 -0.99472650
vn -0.00892457 -0.03250060 -0.99943187
vn -0.01903230 -0.10445000 -0.99434801
vn -0.07804693 -0.42743817 -0.90066936
vn -0.09146693 -0.40698612 -0.90884327
vn -0.09789839 -0.74654596 -0.65809196
vn -0.21377804 -0.36827507 -0.90480518
vn -0.37789088 -0.60621181 -0.69978978
vn -0.50698801 -0.85735301 0.08893240
vn -0.52024731 -0.74531944 0.41694325
vn -0.60361078 -0.78796271 -0.12152696
vn -0.11127203 -0.88657624 -0.44900012
vn -0.11383496 -0.97709464 -0.17979893
vn -0.00424496 -0.77273618 0.63471315
vn -0.15493898 -0.82425290 0.54461093
vn -0.12181807 -0.89970649 0.41915223
vn -0.06491358 -0.98806469 0.13969396
vn -0.12008903 -0.97154524 0.20415305
vn -0.04169301 -0.96109620 -0.27304906
vn -0.08627582 -0.63064217 -0.77126321
vn -0.06784271 -0.52761509 -0.84677015
vn -0.04329941 -0.96389433 -0.26274109
vn -0.04415468 -0.96534149 -0.25722786
vn -0.08211590 -0.93047000 -0.35704700
vn -0.05480919 -0.99788675 -0.03489979
vn -0.08670498 -0.99609771 0.01648010
vn -0.04581661 -0.98965613 -0.13594702
vn -0.05093591 -0.99555223 -0.07925462
vn -0.05270759 -0.99685788 -0.05912929
vn -0.06282110 -0.99356994 0.09419279
vn -0.06057098 -0.99700964 0.04798898
vn -0.06120277 -0.99627756 0.06070617
f 1//1 2//2 3//3
f 1//1 3//3 4//4
f 1//1 4//4 5//5
f 1//1 5//5 6//6
f 1//1 6//6 7//7
f 1//1 7//7 8//8
f 1//1 8//8 9//9
f 1//1 9//9 10//10
f 1//1 10//10 11//11
f 1//1 11//11 2//2
f 2//2 4//4 3//3
f 2//2 11//11 4//4
f 4//4 12//12 34//34
f 4//4 34//34 62//62
f 4//4 62//62 83//83
f 4//4 83//83 110//110
f 4//4 110//110 135//135
f 4//4 135//135 134//134
f 4//4 134//134 133//133
f 4//4 133//133 132//132
f 4//4 132//132 131//131
f 4//4 131//131 130//130
f 4//4 130//130 129//129
f 4//4 129//129 128//128
f 4//4 128//128 127//127
f 4//4 127//127 126//126
f 4//4 126//126 154//154
f 4//4 154//154 116//116
f 4//4 116//116 87//87
f 4//4 87//87 64//64
f 4//4 64//64 35//35
f 4//4 35//35 13//13
f 4//4 13//13 5//5
f 4//4 11//11 14//14
f 4//4 14//14 15//15
f 4//4 15//15 12//12
f 5//5 13//13 16//16
f 5//5 16//16 17//17
f 5//5 17//17 6//6
f 6//6 17//17 18//18
f 6//6 18//18 19//19
f 6//6 19//19 7//7
f 7//7 20//20 21//21
f 7//7 21//21 8//8
f 7//7 19//19 22//22
f 7//7 22//22 20//20
f 8//8 21//21 23//23
f 8//8 23//23 24//24
f 8//8 24//24 9//9
f 9//9 24//24 25//25
f 9//9 25//25 26//26
f 9//9 26//26 27//27
f 9//9 27//27 28//28
f 9//9 28//28 29//29
f 9//9 29//29 10//10
f 10//10 29//29 30//30
f 10//10 30//30 31//31
f 10//10 31//31 32//32
f 10//10 32//32 11//11
f 11//11 32//32 33//33
f 11//11 33//33 14//14
f 12//12 15//15 34//34
f 13//13 35//35 63//63
f 13//13 63//63 86//86
f 13//13 86//86 114//114
f 13//13 114//114 151//151
f 13//13 151//151 164//164
f 13//13 164//164 136//136
f 13//13 136//136 97//97
f 13//13 97//97 69//69
f 13//13 69//69 41//41
f 13//13 41//41 22//22
f 13//13 22//22 19//19
f 13//13 19//19 18//18
f 13//13 18//18 17//17
f 13//13 17//17 16//16
f 14//14 33//33 36//36
f 14//14 36//36 37//37
f 14//14 37//37 15//15
f 15//15 37//37 38//38
f 15//15 38//38 34//34
f 20//20 22//22 21//21
f 21//21 22//22 39//39
f 21//21 39//39 40//40
f 21//21 40//40 23//23
f 22//22 41//41 42//42
f 22//22 42//42 43//43
f 22//22 43//43 39//39
f 23//23 40//40 24//24
f 24//24 40//40 44//44
f 24//24 44//44 25//25
f 25//25 44//44 45//45
f 25//25 45//45 26//26
f 26//26 46//46 47//47
f 26//26 47//47 48//48
f 26//26 48//48 28//28
f 26//26 28//28 27//27
f 26//26 45//45 49//49
f 26//26 49//49 46//46
f 28//28 48//48 50//50
f 28//28 50//50 29//29
f 29//29 50//50 51//51
f 29//29 51//51 52//52
f 29//29 52//52 30//30
f 30//30 52//52 53//53
f 30//30 53//53 54//54
f 30//30 54//54 55//55
f 30//30 55//55 56//56
f 30//30 56//56 57//57
f 30//30 57//57 58//58
f 30//30 58//58 59//59
f 30//30 59//59 31//31
f 31//31 59//59 60//60
f 31//31 60//60 32//32
f 32//32 60//60 61//61
f 32//32 61//61 33//33
f 33//33 61//61 36//36
f 34//34 38//38 62//62
f 35//35 64//64 65//65
f 35//35 65//65 63//63
f 36//36 61//61 66//66
f 36//36 66//66 67//67
f 36//36 67//67 68//68
f 36//36 68//68 38//38
f 36//36 38//38 37//37
f 38//38 68//68 62//62
f 39//39 43//43 69//69
f 39//39 69//69 70//70
f 39//39 70//70 45//45
f 39//39 45//45 40//40
f 40//40 45//45 44//44
f 41//41 69//69 42//42
f 42//42 69//69 43//43
f 45//45 70//70 49//49
f 46//46 49//49 71//71
f 46//46 71//71 47//47
f 47//47 71//71 72//72
f 47//47 72//72 73//73
f 47//47 73//73 74//74
f 47//47 74//74 48//48
f 48//48 74//74 50//50
f 49//49 70//70 71//71
f 50//50 74//74 51//51
f 51//51 75//75 53//53
f 51//51 53//53 52//52
f 51//51 74//74 75//75
f 53//53 75//75 56//56
f 53//53 56//56 54//54
f 54//54 56//56 55//55
f 56//56 76//76 77//77
f 56//56 77//77 78//78
f 56//56 78//78 79//79
f 56//56 79//79 57//57
f 56//56 75//75 80//80
f 56//56 80//80 76//76
f 57//57 79//79 58//58
f 58//58 79//79 59//59
f 59//59 79//79 81//81
f 59//59 81//81 60//60
f 60//60 66//66 61//61
f 60//60 81//81 82//82
f 60//60 82//82 66//66
f 62//62 68//68 83//83
f 63//63 84//84 85//85
f 63//63 85//85 86//86
f 63//63 65//65 84//84
f 64//64 87//87 65//65
f 65//65 87//87 88//88
f 65//65 88//88 89//89
f 65//65 89//89 90//90
f 65//65 90//90 111//111
f 65//65 111//111 84//84
f 66//66 82//82 91//91
f 66//66 91//91 92//92
f 66//66 92//92 67//67
f 67//67 92//92 68//68
f 68//68 92//92 93//93
f 68//68 93//93 94//94
f 68//68 94//94 95//95
f 68//68 95//95 96//96
f 68//68 96//96 83//83
f 69//69 97//97 98//98
f 69//69 98//98 99//99
f 69//69 99//99 70//70
f 70//70 99//99 71//71
f 71//71 99//99 100//100
f 71//71 100//100 101//101
f 71//71 101//101 102//102
f 71//71 102//102 72//72
f 72//72 102//102 73//73
f 73//73 102//102 103//103
f 73//73 103//103 75//75
f 73//73 75//75 74//74
f 75//75 103//103 80//80
f 76//76 80//80 104//104
f 76//76 104//104 77//77
f 77//77 104//104 105//105
f 77//77 105//105 106//106
f 77//77 106//106 78//78
f 78//78 106//106 107//107
f 78//78 107//107 108//108
f 78//78 108//108 109//109
f 78//78 109//109 81//81
f 78//78 81//81 79//79
f 80//80 103//103 104//104
f 81//81 109//109 82//82
f 82//82 109//109 91//91
f 83//83 96//96 95//95
f 83//83 95//95 110//110
f 84//84 111//111 112//112
f 84//84 112//112 113//113
f 84//84 113//113 86//86
f 84//84 86//86 85//85
f 86//86 113//113 115//115
f 86//86 115//115 114//114
f 87//87 116//116 117//117
f 87//87 117//117 88//88
f 88//88 117//117 90//90
f 88//88 90//90 89//89
f 90//90 118//118 119//119
f 90//90 119//119 148//148
f 90//90 148//148 111//111
f 90//90 117//117 116//116
f 90//90 116//116 118//118
f 91//91 109//109 120//120
f 91//91 120//120 92//92
f 92//92 120//120 93//93
f 93//93 121//121 94//94
f 93//93 120//120 121//121
f 94//94 122//122 123//123
f 94//94 123//123 95//95
f 94//94 121//121 124//124
f 94//94 124//124 122//122
f 95//95 123//123 125//125
f 95//95 125//125 126//126
f 95//95 126//126 127//127
f 95//95 127//127 128//128
f 95//95 128//128 129//129
f 95//95 129//129 130//130
f 95//95 130//130 131//131
f 95//95 131//131 132//132
f 95//95 132//132 133//133
f 95//95 133//133 134//134
f 95//95 134//134 135//135
f 95//95 135//135 110//110
f 97//97 136//136 98//98
f 98//98 136//136 137//137
f 98//98 137//137 138//138
f 98//98 138//138 139//139
f 98//98 139//139 100//100
f 98//98 100//100 99//99
f 100//100 139//139 101//101
f 101//101 139//139 140//140
f 101//101 140//140 102//102
f 102//102 141//141 103//103
f 102//102 140//140 141//141
f 103//103 141//141 104//104
f 104//104 142//142 105//105
f 104//104 141//141 142//142
f 105//105 143//143 106//106
f 105//105 142//142 143//143
f 106//106 144//144 145//145
f 106//106 145//145 107//107
f 106//106 143//143 144//144
f 107//107 145//145 146//146
f 107//107 146//146 108//108
f 108//108 146//146 147//147
f 108//108 147//147 109//109
f 109//109 147//147 120//120
f 111//111 148//148 180//180
f 111//111 180//180 149//149
f 111//111 149//149 150//150
f 111//111 150//150 115//115
f 111//111 115//115 113//113
f 111//111 113//113 112//112
f 114//114 115//115 151//151
f 115//115 150//150 152//152
f 115//115 152//152 153//153
f 115//115 153//153 151//151
f 116//116 154//154 118//118
f 118//118 125//125 123//123
f 118//118 123//123 155//155
f 118//118 155//155 119//119
f 118//118 154//154 126//126
f 118//118 126//126 125//125
f 119//119 155//155 156//156
f 119//119 156//156 157//157
f 119//119 157//157 148//148
f 120//120 158//158 121//121
f 120//120 147//147 159//159
f 120//120 159//159 158//158
f 121//121 158//158 124//124
f 122//122 160//160 155//155
f 122//122 155//155 123//123
f 122//122 124//124 160//160
f 124//124 158//158 161//161
f 124//124 161//161 162//162
f 124//124 162//162 163//163
f 124//124 163//163 160//160
f 136//136 164//164 137//137
f 137//137 165//165 138//138
f 137//137 164//164 165//165
f 138//138 165//165 153//153
f 138//138 153//153 139//139
f 139//139 166//166 140//140
f 139//139 153//153 166//166
f 140//140 166//166 141//141
f 141//141 166//166 167//167
f 141//141 167//167 168//168
f 141//141 168//168 142//142
f 142//142 169//169 170//170
f 142//142 170//170 143//143
f 142//142 168//168 171//171
f 142//142 171//171 169//169
f 143//143 170//170 172//172
f 143//143 172//172 173//173
f 143//143 173//173 144//144
f 144//144 174//174 146//146
f 144//144 146//146 145//145
f 144//144 173//173 175//175
f 144//144 175//175 176//176
f 144//144 176//176 177//177
f 144//144 177//177 174//174
f 146//146 174//174 147//147
f 147//147 174//174 159//159
f 148//148 157//157 178//178
f 148//148 178//178 179//179
f 148//148 179//179 180//180
f 149//149 180//180 181//181
f 149//149 181//181 150//150
f 150//150 181//181 152//152
f 151//151 153//153 165//165
f 151//151 165//165 164//164
f 152//152 181//181 171//171
f 152//152 171//171 166//166
f 152//152 166//166 153//153
f 155//155 160//160 182//182
f 155//155 182//182 156//156
f 156//156 182//182 183//183
f 156//156 183//183 157//157
f 157//157 183//183 176//176
f 157//157 176//176 184//184
f 157//157 184//184 185//185
f 157//157 185//185 178//178
f 158//158 159//159 161//161
f 159//159 174//174 177//177
f 159//159 177//177 161//161
f 160//160 163//163 186//186
f 160//160 186//186 182//182
f 161//161 177//177 162//162
f 162//162 177//177 187//187
f 162//162 187//187 188//188
f 162//162 188//188 186//186
f 162//162 186//186 163//163
f 166//166 171//171 168//168
f 166//166 168//168 167//167
f 169//169 185//185 170//170
f 169//169 171//171 179//179
f 169//169 179//179 185//185
f 170//170 185//185 189//189
f 170//170 189//189 172//172
f 171//171 181//181 179//179
f 172//172 189//189 175//175
f 172//172 175//175 173//173
f 175//175 189//189 176//176
f 176//176 187//187 177//177
f 176//176 189//189 184//184
f 176//176 183//183 188//188
f 176//176 188//188 187//187
f 178//178 185//185 179//179
f 179//179 181//181 180//180
f 182//182 186//186 183//183
f 183//183 186//186 188//188
f 184//184 189//189 185//185
f 190//190 191//191 195//195
f 190//190 195//195 201//201
f 190//190 201//201 214//214
f 190//190 214//214 225//225
f 190//190 225//225 243//243
f 190//190 243//243 259//259
f 190//190 259//259 248//248
f 190//190 248//248 264//264
f 190//190 264//264 281//281
f 190//190 281//281 285//285
f 190//190 285//285 284//284
f 190//190 284//284 283//283
f 190//190 283//283 282//282
f 190//190 282//282 266//266
f 190//190 266//266 249//249
f 190//190 249//249 228//228
f 190//190 228//228 215//215
f 190//190 215//215 203//203
f 190//190 203//203 196//196
f 190//190 196//196 192//192
f 190//190 192//192 193//193
f 190//190 193//193 191//191
f 191//191 193//193 194//194
f 191//191 194//194 195//195
f 192//192 196//196 197//197
f 192//192 197//197 193//193
f 193//193 197//197 198//198
f 193//193 198//198 199//199
f 193//193 199//199 194//194
f 194//194 199//199 200//200
f 194//194 200//200 195//195
f 195//195 200//200 202//202
f 195//195 202//202 201//201
f 196//196 203//203 204//204
f 196//196 204//204 198//198
f 196//196 198//198 197//197
f 198//198 204//204 205//205
f 198//198 205//205 206//206
f 198//198 206//206 199//199
f 199//199 206//206 207//207
f 199//199 207//207 200//200
f 200//200 208//208 202//202
f 200//200 207//207 209//209
f 200//200 209//209 210//210
f 200//200 210//210 211//211
f 200//200 211//211 212//212
f 200//200 212//212 213//213
f 200//200 213//213 208//208
f 201//201 202//202 208//208
f 201//201 208//208 214//214
f 203//203 215//215 205//205
f 203//203 205//205 204//204
f 205//205 216//216 217//217
f 205//205 217//217 218//218
f 205//205 218//218 219//219
f 205//205 219//219 206//206
f 205//205 215//215 220//220
f 205//205 220//220 221//221
f 205//205 221//221 216//216
f 206//206 219//219 209//209
f 206//206 209//209 207//207
f 208//208 213//213 222//222
f 208//208 222//222 214//214
f 209//209 219//219 218//218
f 209//209 218//218 210//210
f 210//210 218//218 211//211
f 211//211 223//223 212//212
f 211//211 218//218 223//223
f 212//212 223//223 224//224
f 212//212 224//224 222//222
f 212//212 222//222 213//213
f 214//214 222//222 226//226
f 214//214 226//226 227//227
f 214//214 227//227 225//225
f 215//215 228//228 229//229
f 215//215 229//229 220//220
f 216//216 221//221 217//217
f 217//217 223//223 218//218
f 217//217 221//221 230//230
f 217//217 230//230 231//231
f 217//217 231//231 223//223
f 220//220 232//232 233//233
f 220//220 233//233 234//234
f 220//220 234//234 221//221
f 220//220 229//229 228//228
f 220//220 228//228 232//232
f 221//221 234//234 235//235
f 221//221 235//235 236//236
f 221//221 236//236 230//230
f 222//222 224//224 237//237
f 222//222 237//237 238//238
f 222//222 238//238 239//239
f 222//222 239//239 240//240
f 222//222 240//240 241//241
f 222//222 241//241 226//226
f 223//223 231//231 224//224
f 224//224 242//242 237//237
f 224//224 231//231 242//242
f 225//225 227//227 244//244
f 225//225 244//244 243//243
f 226//226 241//241 240//240
f 226//226 240//240 245//245
f 226//226 245//245 227//227
f 227//227 245//245 246//246
f 227//227 246//246 247//247
f 227//227 247//247 248//248
f 227//227 248//248 244//244
f 228//228 249//249 250//250
f 228//228 250//250 232//232
f 230//230 236//236 237//237
f 230//230 237//237 242//242
f 230//230 242//242 231//231
f 232//232 250//250 251//251
f 232//232 251//251 252//252
f 232//232 252//252 233//233
f 233//233 252//252 234//234
f 234//234 252//252 253//253
f 234//234 253//253 235//235
f 235//235 253//253 236//236
f 236//236 253//253 254//254
f 236//236 254//254 237//237
f 237//237 255//255 238//238
f 237//237 254//254 256//256
f 237//237 256//256 255//255
f 238//238 255//255 239//239
f 239//239 255//255 257//257
f 239//239 257//257 258//258
f 239//239 258//258 240//240
f 240//240 258//258 245//245
f 243//243 244//244 259//259
f 244//244 248//248 260//260
f 244//244 260//260 259//259
f 245//245 258//258 261//261
f 245//245 261//261 246//246
f 246//246 261//261 262//262
f 246//246 262//262 263//263
f 246//246 263//263 247//247
f 247//247 263//263 248//248
f 248//248 263//263 264//264
f 248//248 259//259 260//260
f 249//249 265//265 250//250
f 249//249 266//266 265//265
f 250//250 265//265 267//267
f 250//250 267//267 251//251
f 251//251 267//267 268//268
f 251//251 268//268 269//269
f 251//251 269//269 252//252
f 252//252 269//269 253//253
f 253//253 269//269 270//270
f 253//253 270//270 271//271
f 253//253 271//271 254//254
f 254//254 271//271 272//272
f 254//254 272//272 273//273
f 254//254 273//273 256//256
f 255//255 256//256 257//257
f 256//256 273//273 274//274
f 256//256 274//274 275//275
f 256//256 275//275 257//257
f 257//257 275//275 258//258
f 258//258 275//275 276//276
f 258//258 276//276 277//277
f 258//258 277//277 261//261
f 261//261 277//277 278//278
f 261//261 278//278 279//279
f 261//261 279//279 262//262
f 262//262 279//279 278//278
f 262//262 278//278 277//277
f 262//262 277//277 276//276
f 262//262 276//276 275//275
f 262//262 275//275 274//274
f 262//262 274//274 273//273
f 262//262 273//273 272//272
f 262//262 272//272 271//271
f 262//262 271//271 286//286
f 262//262 286//286 268//268
f 262//262 268//268 267//267
f 262//262 267//267 285//285
f 262//262 285//285 281//281
f 262//262 281//281 280//280
f 262//262 280//280 263//263
f 263//263 280//280 264//264
f 264//264 280//280 281//281
f 265//265 266//266 282//282
f 265//265 282//282 267//267
f 267//267 282//282 283//283
f 267//267 283//283 284//284
f 267//267 284//284 285//285
f 268//268 286//286 270//270
f 268//268 270//270 269//269
f 270//270 286//286 271//271
f 287//287 288//288 299//299
f 287//287 299//299 289//289
f 287//287 289//289 300//300
f 287//287 300//300 290//290
f 287//287 290//290 291//291
f 287//287 291//291 292//292
f 287//287 292//292 288//288
f 288//288 293//293 294//294
f 288//288 294//294 295//295
f 288//288 295//295 296//296
f 288//288 296//296 297//297
f 288//288 297//297 298//298
f 288//288 298//298 299//299
f 288//288 292//292 293//293
f 289//289 299//299 301//301
f 289//289 301//301 302//302
f 289//289 302//302 300//300
f 290//290 303//303 304//304
f 290//290 304//304 305//305
f 290//290 305//305 306//306
f 290//290 306//306 307//307
f 290//290 307//307 291//291
f 290//290 300//300 308//308
f 290//290 308//308 303//303
f 291//291 307//307 309//309
f 291//291 309//309 292//292
f 292//292 309//309 310//310
f 292//292 310//310 311//311
f 292//292 311//311 312//312
f 292//292 312//312 313//313
f 292//292 313//313 293//293
f 293//293 314//314 294//294
f 293//293 313//313 315//315
f 293//293 315//315 316//316
f 293//293 316//316 314//314
f 294//294 314//314 317//317
f 294//294 317//317 295//295
f 295//295 317//317 318//318
f 295//295 318//318 296//296
f 296//296 318//318 319//319
f 296//296 319//319 297//297
f 297//297 319//319 318//318
f 297//297 318//318 320//320
f 297//297 320//320 298//298
f 298//298 321//321 299//299
f 298//298 320//320 322//322
f 298//298 322//322 323//323
f 298//298 323//323 321//321
f 299//299 321//321 301//301
f 300//300 302//302 308//308
f 301//301 324//324 325//325
f 301//301 325//325 326//326
f 301//301 326//326 327//327
f 301//301 327//327 302//302
f 301//301 321//321 324//324
f 302//302 327//327 328//328
f 302//302 328//328 329//329
f 302//302 329//329 330//330
f 302//302 330//330 331//331
f 302//302 331//331 332//332
f 302//302 332//332 333//333
f 302//302 333//333 308//308
f 303//303 334//334 335//335
f 303//303 335//335 304//304
f 303//303 308//308 336//336
f 303//303 336//336 334//334
f 304//304 335//335 337//337
f 304//304 337//337 305//305
f 305//305 337//337 338//338
f 305//305 338//338 339//339
f 305//305 339//339 306//306
f 306//306 339//339 340//340
f 306//306 340//340 341//341
f 306//306 341//341 342//342
f 306//306 342//342 343//343
f 306//306 343//343 307//307
f 307//307 343//343 310//310
f 307//307 310//310 309//309
f 308//308 333//333 344//344
f 308//308 344//344 331//331
f 308//308 331//331 336//336
f 310//310 343//343 345//345
f 310//310 345//345 311//311
f 311//311 345//345 346//346
f 311//311 346//346 347//347
f 311//311 347//347 312//312
f 312//312 347//347 348//348
f 312//312 348//348 349//349
f 312//312 349//349 350//350
f 312//312 350//350 313//313
f 313//313 350//350 315//315
f 314//314 316//316 317//317
f 315//315 350//350 351//351
f 315//315 351//351 352//352
f 315//315 352//352 316//316
f 316//316 352//352 353//353
f 316//316 353//353 354//354
f 316//316 354//354 355//355
f 316//316 355//355 356//356
f 316//316 356//356 317//317
f 317//317 356//356 318//318
f 318//318 356//356 357//357
f 318//318 357//357 320//320
f 320//320 357//357 358//358
f 320//320 358//358 322//322
f 321//321 323//323 359//359
f 321//321 359//359 326//326
f 321//321 326//326 324//324
f 322//322 358//358 360//360
f 322//322 360//360 323//323
f 323//323 360//360 359//359
f 324//324 326//326 325//325
f 326//326 360//360 361//361
f 326//326 361//361 328//328
f 326//326 328//328 327//327
f 326//326 359//359 360//360
f 328//328 361//361 360//360
f 328//328 360//360 358//358
f 328//328 358//358 399//399
f 328//328 399//399 398//398
f 328//328 398//398 426//426
f 328//328 426//426 424//424
f 328//328 424//424 423//423
f 328//328 423//423 447//447
f 328//328 447//447 469//469
f 328//328 469//469 451//451
f 328//328 451//451 428//428
f 328//328 428//428 403//403
f 328//328 403//403 400//400
f 328//328 400//400 365//365
f 328//328 365//365 364//364
f 328//328 364//364 363//363
f 328//328 363//363 362//362
f 328//328 362//362 330//330
f 328//328 330//330 329//329
f 330//330 362//362 331//331
f 331//331 362//362 363//363
f 331//331 363//363 364//364
f 331//331 364//364 365//365
f 331//331 365//365 366//366
f 331//331 366//366 367//367
f 331//331 367//367 368//368
f 331//331 368//368 369//369
f 331//331 369//369 336//336
f 331//331 344//344 333//333
f 331//331 333//333 332//332
f 334//334 336//336 370//370
f 334//334 370//370 335//335
f 335//335 370//370 337//337
f 336//336 369//369 368//368
f 336//336 368//368 370//370
f 337//337 370//370 371//371
f 337//337 371//371 338//338
f 338//338 372//372 373//373
f 338//338 373//373 339//339
f 338//338 371//371 374//374
f 338//338 374//374 375//375
f 338//338 375//375 372//372
f 339//339 373//373 340//340
f 340//340 376//376 377//377
f 340//340 377//377 378//378
f 340//340 378//378 379//379
f 340//340 379//379 380//380
f 340//340 380//380 381//381
f 340//340 381//381 342//342
f 340//340 342//342 341//341
f 340//340 373//373 382//382
f 340//340 382//382 376//376
f 342//342 381//381 383//383
f 342//342 383//383 384//384
f 342//342 384//384 343//343
f 343//343 384//384 345//345
f 345//345 384//384 346//346
f 346//346 383//383 385//385
f 346//346 385//385 386//386
f 346//346 386//386 347//347
f 346//346 384//384 383//383
f 347//347 386//386 387//387
f 347//347 387//387 348//348
f 348//348 387//387 388//388
f 348//348 388//388 349//349
f 349//349 388//388 389//389
f 349//349 389//389 350//350
f 350//350 389//389 390//390
f 350//350 390//390 391//391
f 350//350 391//391 351//351
f 351//351 392//392 352//352
f 351//351 391//391 392//392
f 352//352 392//392 353//353
f 353//353 392//392 393//393
f 353//353 393//393 394//394
f 353//353 394//394 395//395
f 353//353 395//395 396//396
f 353//353 396//396 354//354
f 354//354 396//396 355//355
f 355//355 396//396 395//395
f 355//355 395//395 356//356
f 356//356 395//395 357//357
f 357//357 395//395 397//397
f 357//357 397//397 398//398
f 357//357 398//398 399//399
f 357//357 399//399 358//358
f 365//365 400//400 367//367
f 365//365 367//367 366//366
f 367//367 401//401 427//427
f 367//367 427//427 402//402
f 367//367 402//402 370//370
f 367//367 370//370 368//368
f 367//367 400//400 403//403
f 367//367 403//403 401//401
f 370//370 402//402 374//374
f 370//370 374//374 371//371
f 372//372 404//404 382//382
f 372//372 382//382 373//373
f 372//372 375//375 404//404
f 374//374 402//402 405//405
f 374//374 405//405 375//375
f 375//375 406//406 429//429
f 375//375 429//429 404//404
f 375//375 405//405 430//430
f 375//375 430//430 406//406
f 376//376 382//382 377//377
f 377//377 382//382 404//404
f 377//377 404//404 378//378
f 378//378 407//407 408//408
f 378//378 408//408 409//409
f 378//378 409//409 379//379
f 378//378 404//404 407//407
f 379//379 409//409 380//380
f 380//380 409//409 410//410
f 380//380 410//410 411//411
f 380//380 411//411 381//381
f 381//381 411//411 385//385
f 381//381 385//385 383//383
f 385//385 411//411 412//412
f 385//385 412//412 386//386
f 386//386 412//412 387//387
f 387//387 412//412 413//413
f 387//387 413//413 414//414
f 387//387 414//414 415//415
f 387//387 415//415 416//416
f 387//387 416//416 388//388
f 388//388 416//416 415//415
f 388//388 415//415 417//417
f 388//388 417//417 418//418
f 388//388 418//418 390//390
f 388//388 390//390 389//389
f 390//390 418//418 419//419
f 390//390 419//419 391//391
f 391//391 420//420 392//392
f 391//391 419//419 421//421
f 391//391 421//421 420//420
f 392//392 420//420 393//393
f 393//393 420//420 394//394
f 394//394 420//420 422//422
f 394//394 422//422 423//423
f 394//394 423//423 424//424
f 394//394 424//424 395//395
f 395//395 425//425 397//397
f 395//395 424//424 426//426
f 395//395 426//426 425//425
f 397//397 425//425 398//398
f 398//398 425//425 426//426
f 401//401 403//403 427//427
f 402//402 427//427 430//430
f 402//402 430//430 405//405
f 403//403 428//428 427//427
f 404//404 429//429 407//407
f 406//406 430//430 429//429
f 407//407 431//431 432//432
f 407//407 432//432 433//433
f 407//407 433//433 408//408
f 407//407 429//429 431//431
f 408//408 433//433 409//409
f 409//409 433//433 434//434
f 409//409 434//434 435//435
f 409//409 435//435 410//410
f 410//410 435//435 436//436
f 410//410 436//436 414//414
f 410//410 414//414 413//413
f 410//410 413//413 411//411
f 411//411 413//413 412//412
f 414//414 436//436 415//415
f 415//415 437//437 417//417
f 415//415 436//436 437//437
f 417//417 438//438 439//439
f 417//417 439//439 440//440
f 417//417 440//440 418//418
f 417//417 437//437 438//438
f 418//418 440//440 419//419
f 419//419 440//440 441//441
f 419//419 441//441 442//442
f 419//419 442//442 421//421
f 420//420 421//421 442//442
f 420//420 442//442 443//443
f 420//420 443//443 422//422
f 422//422 443//443 444//444
f 422//422 444//444 445//445
f 422//422 445//445 446//446
f 422//422 446//446 447//447
f 422//422 447//447 423//423
f 427//427 428//428 448//448
f 427//427 448//448 449//449
f 427//427 449//449 450//450
f 427//427 450//450 430//430
f 428//428 451//451 452//452
f 428//428 452//452 448//448
f 429//429 450//450 453//453
f 429//429 453//453 431//431
f 429//429 430//430 450//450
f 431//431 453//453 454//454
f 431//431 454//454 455//455
f 431//431 455//455 456//456
f 431//431 456//456 457//457
f 431//431 457//457 432//432
f 432//432 458//458 438//438
f 432//432 438//438 433//433
f 432//432 457//457 458//458
f 433//433 438//438 434//434
f 434//434 438//438 437//437
f 434//434 437//437 436//436
f 434//434 436//436 435//435
f 438//438 458//458 439//439
f 439//439 458//458 459//459
f 439//439 459//459 441//441
f 439//439 441//441 440//440
f 441//441 459//459 460//460
f 441//441 460//460 461//461
f 441//441 461//461 462//462
f 441//441 462//462 442//442
f 442//442 462//462 461//461
f 442//442 461//461 463//463
f 442//442 463//463 464//464
f 442//442 464//464 443//443
f 443//443 464//464 465//465
f 443//443 465//465 466//466
f 443//443 466//466 444//444
f 444//444 466//466 465//465
f 444//444 465//465 467//467
f 444//444 467//467 445//445
f 445//445 468//468 447//447
f 445//445 447//447 446//446
f 445//445 467//467 465//465
f 445//445 465//465 464//464
f 445//445 464//464 463//463
f 445//445 463//463 461//461
f 445//445 461//461 460//460
f 445//445 460//460 475//475
f 445//445 475//475 473//473
f 445//445 473//473 456//456
f 445//445 456//456 455//455
f 445//445 455//455 454//454
f 445//445 454//454 453//453
f 445//445 453//453 450//450
f 445//445 450//450 471//471
f 445//445 471//471 472//472
f 445//445 472//472 451//451
f 445//445 451//451 469//469
f 445//445 469//469 468//468
f 447//447 468//468 469//469
f 448//448 452//452 470//470
f 448//448 470//470 471//471
f 448//448 471//471 450//450
f 448//448 450//450 449//449
f 451//451 472//472 452//452
f 452//452 472//472 471//471
f 452//452 471//471 470//470
f 456//456 473//473 474//474
f 456//456 474//474 457//457
f 457//457 474//474 458//458
f 458//458 474//474 459//459
f 459//459 474//474 460//460
f 460//460 474//474 475//475
f 473//473 475//475 474//474
f 476//476 477//477 478//478
f 476//476 478//478 479//479
f 476//476 479//479 489//489
f 476//476 489//489 480//480
f 476//476 480//480 490//490
f 476//476 490//490 481//481
f 476//476 481//481 482//482
f 476//476 482//482 483//483
f 476//476 483//483 477//477
f 477//477 484//484 485//485
f 477//477 485//485 486//486
f 477//477 486//486 487//487
f 477//477 487//487 509//509
f 477//477 509//509 508//508
f 477//477 508//508 529//529
f 477//477 529//529 528//528
f 477//477 528//528 562//562
f 477//477 562//562 595//595
f 477//477 595//595 627//627
f 477//477 627//627 666//666
f 477//477 666//666 667//667
f 477//477 667//667 630//630
f 477//477 630//630 629//629
f 477//477 629//629 606//606
f 477//477 606//606 605//605
f 477//477 605//605 597//597
f 477//477 597//597 565//565
f 477//477 565//565 532//532
f 477//477 532//532 510//510
f 477//477 510//510 488//488
f 477//477 488//488 478//478
f 477//477 483//483 484//484
f 478//478 488//488 479//479
f 479//479 488//488 489//489
f 480//480 489//489 491//491
f 480//480 491//491 492//492
f 480//480 492//492 493//493
f 480//480 493//493 494//494
f 480//480 494//494 495//495
f 480//480 495//495 496//496
f 480//480 496//496 490//490
f 481//481 490//490 482//482
f 482//482 497//497 484//484
f 482//482 484//484 483//483
f 482//482 490//490 498//498
f 482//482 498//498 499//499
f 482//482 499//499 500//500
f 482//482 500//500 501//501
f 482//482 501//501 497//497
f 484//484 502//502 485//485
f 484//484 497//497 503//503
f 484//484 503//503 504//504
f 484//484 504//504 505//505
f 484//484 505//505 506//506
f 484//484 506//506 502//502
f 485//485 502//502 507//507
f 485//485 507//507 486//486
f 486//486 507//507 508//508
f 486//486 508//508 509//509
f 486//486 509//509 487//487
f 488//488 510//510 489//489
f 489//489 510//510 511//511
f 489//489 511//511 491//491
f 490//490 496//496 512//512
f 490//490 512//512 513//513
f 490//490 513//513 499//499
f 490//490 499//499 498//498
f 491//491 514//514 515//515
f 491//491 515//515 492//492
f 491//491 511//511 516//516
f 491//491 516//516 514//514
f 492//492 515//515 517//517
f 492//492 517//517 493//493
f 493//493 517//517 494//494
f 494//494 517//517 518//518
f 494//494 518//518 495//495
f 495//495 518//518 496//496
f 496//496 518//518 512//512
f 497//497 501//501 503//503
f 499//499 513//513 519//519
f 499//499 519//519 500//500
f 500//500 519//519 520//520
f 500//500 520//520 501//501
f 501//501 520//520 521//521
f 501//501 521//521 522//522
f 501//501 522//522 506//506
f 501//501 506//506 504//504
f 501//501 504//504 503//503
f 502//502 523//523 507//507
f 502//502 506//506 524//524
f 502//502 524//524 525//525
f 502//502 525//525 523//523
f 504//504 506//506 505//505
f 506//506 522//522 526//526
f 506//506 526//526 527//527
f 506//506 527//527 524//524
f 507//507 528//528 529//529
f 507//507 529//529 508//508
f 507//507 523//523 530//530
f 507//507 530//530 531//531
f 507//507 531//531 528//528
f 510//510 532//532 533//533
f 510//510 533//533 511//511
f 511//511 533//533 534//534
f 511//511 534//534 516//516
f 512//512 518//518 535//535
f 512//512 535//535 536//536
f 512//512 536//536 537//537
f 512//512 537//537 513//513
f 513//513 537//537 538//538
f 513//513 538//538 519//519
f 514//514 539//539 540//540
f 514//514 540//540 515//515
f 514//514 516//516 539//539
f 515//515 540//540 541//541
f 515//515 541//541 542//542
f 515//515 542//542 543//543
f 515//515 543//543 517//517
f 516//516 534//534 544//544
f 516//516 544//544 539//539
f 517//517 543//543 518//518
f 518//518 543//543 545//545
f 518//518 545//545 546//546
f 518//518 546//546 535//535
f 519//519 538//538 537//537
f 519//519 537//537 547//547
f 519//519 547//547 548//548
f 519//519 548//548 549//549
f 519//519 549//549 550//550
f 519//519 550//550 551//551
f 519//519 551//551 520//520
f 520//520 551//551 552//552
f 520//520 552//552 521//521
f 521//521 553//553 522//522
f 521//521 552//552 553//553
f 522//522 553//553 526//526
f 523//523 554//554 588//588
f 523//523 588//588 555//555
f 523//523 555//555 563//563
f 523//523 563//563 530//530
f 523//523 525//525 556//556
f 523//523 556//556 554//554
f 524//524 527//527 525//525
f 525//525 527//527 557//557
f 525//525 557//557 558//558
f 525//525 558//558 559//559
f 525//525 559//559 556//556
f 526//526 553//553 527//527
f 527//527 553//553 560//560
f 527//527 560//560 561//561
f 527//527 561//561 557//557
f 528//528 531//531 562//562
f 530//530 563//563 596//596
f 530//530 596//596 564//564
f 530//530 564//564 531//531
f 531//531 564//564 562//562
f 532//532 565//565 533//533
f 533//533 565//565 534//534
f 534//534 565//565 544//544
f 535//535 546//546 536//536
f 536//536 546//546 566//566
f 536//536 566//566 567//567
f 536//536 567//567 537//537
f 537//537 567//567 547//547
f 539//539 544//544 568//568
f 539//539 568//568 569//569
f 539//539 569//569 570//570
f 539//539 570//570 571//571
f 539//539 571//571 541//541
f 539//539 541//541 540//540
f 541//541 571//571 572//572
f 541//541 572//572 573//573
f 541//541 573//573 543//543
f 541//541 543//543 542//542
f 543//543 573//573 574//574
f 543//543 574//574 575//575
f 543//543 575//575 576//576
f 543//543 576//576 545//545
f 544//544 577//577 568//568
f 544//544 565//565 578//578
f 544//544 578//578 577//577
f 545//545 576//576 546//546
f 546//546 576//576 579//579
f 546//546 579//579 566//566
f 547//547 567//567 580//580
f 547//547 580//580 548//548
f 548//548 580//580 550//550
f 548//548 550//550 549//549
f 550//550 580//580 581//581
f 550//550 581//581 582//582
f 550//550 582//582 583//583
f 550//550 583//583 584//584
f 550//550 584//584 585//585
f 550//550 585//585 551//551
f 551//551 585//585 586//586
f 551//551 586//586 552//552
f 552//552 586//586 587//587
f 552//552 587//587 560//560
f 552//552 560//560 553//553
f 554//554 556//556 591//591
f 554//554 591//591 588//588
f 555//555 589//589 563//563
f 555//555 588//588 589//589
f 556//556 559//559 590//590
f 556//556 590//590 591//591
f 557//557 561//561 592//592
f 557//557 592//592 558//558
f 558//558 592//592 593//593
f 558//558 593//593 594//594
f 558//558 594//594 590//590
f 558//558 590//590 559//559
f 560//560 587//587 561//561
f 561//561 587//587 592//592
f 562//562 564//564 596//596
f 562//562 596//596 589//589
f 562//562 589//589 595//595
f 563//563 589//589 596//596
f 565//565 597//597 578//578
f 566//566 579//579 598//598
f 566//566 598//598 580//580
f 566//566 580//580 567//567
f 568//568 577//577 599//599
f 568//568 599//599 569//569
f 569//569 599//599 600//600
f 569//569 600//600 601//601
f 569//569 601//601 602//602
f 569//569 602//602 570//570
f 570//570 602//602 571//571
f 571//571 602//602 572//572
f 572//572 575//575 574//574
f 572//572 574//574 573//573
f 572//572 602//602 603//603
f 572//572 603//603 604//604
f 572//572 604//604 576//576
f 572//572 576//576 575//575
f 576//576 604//604 579//579
f 577//577 578//578 597//597
f 577//577 597//597 605//605
f 577//577 605//605 606//606
f 577//577 606//606 599//599
f 579//579 604//604 607//607
f 579//579 607//607 608//608
f 579//579 608//608 598//598
f 580//580 598//598 609//609
f 580//580 609//609 581//581
f 581//581 609//609 610//610
f 581//581 610//610 582//582
f 582//582 610//610 583//583
f 583//583 610//610 611//611
f 583//583 611//611 585//585
f 583//583 585//585 584//584
f 585//585 612//612 613//613
f 585//585 613//613 586//586
f 585//585 611//611 614//614
f 585//585 614//614 615//615
f 585//585 615//615 616//616
f 585//585 616//616 612//612
f 586//586 613//613 617//617
f 586//586 617//617 587//587
f 587//587 617//617 626//626
f 587//587 626//626 592//592
f 588//588 591//591 590//590
f 588//588 590//590 618//618
f 588//588 618//618 589//589
f 589//589 619//619 620//620
f 589//589 620//620 595//595
f 589//589 618//618 621//621
f 589//589 621//621 619//619
f 590//590 622//622 623//623
f 590//590 623//623 624//624
f 590//590 624//624 618//618
f 590//590 594//594 625//625
f 590//590 625//625 622//622
f 592//592 626//626 593//593
f 593//593 626//626 594//594
f 594//594 626//626 625//625
f 595//595 620//620 627//627
f 598//598 608//608 610//610
f 598//598 610//610 609//609
f 599//599 628//628 600//600
f 599//599 606//606 629//629
f 599//599 629//629 630//630
f 599//599 630//630 631//631
f 599//599 631//631 628//628
f 600//600 628//628 632//632
f 600//600 632//632 633//633
f 600//600 633//633 634//634
f 600//600 634//634 601//601
f 601//601 634//634 602//602
f 602//602 634//634 603//603
f 603//603 635//635 636//636
f 603//603 636//636 604//604
f 603//603 634//634 637//637
f 603//603 637//637 635//635
f 604//604 638//638 639//639
f 604//604 639//639 640//640
f 604//604 640//640 641//641
f 604//604 641//641 607//607
f 604//604 636//636 642//642
f 604//604 642//642 643//643
f 604//604 643//643 638//638
f 607//607 641//641 644//644
f 607//607 644//644 645//645
f 607//607 645//645 646//646
f 607//607 646//646 647//647
f 607//607 647//647 608//608
f 608//608 647//647 648//648
f 608//608 648//648 610//610
f 610//610 648//648 611//611
f 611//611 648//648 614//614
f 612//612 616//616 649//649
f 612//612 649//649 613//613
f 613//613 649//649 650//650
f 613//613 650//650 651//651
f 613//613 651//651 652//652
f 613//613 652//652 617//617
f 614//614 648//648 653//653
f 614//614 653//653 615//615
f 615//615 653//653 645//645
f 615//615 645//645 654//654
f 615//615 654//654 655//655
f 615//615 655//655 656//656
f 615//615 656//656 616//616
f 616//616 656//656 649//649
f 617//617 652//652 651//651
f 617//617 651//651 657//657
f 617//617 657//657 626//626
f 618//618 624//624 621//621
f 619//619 621//621 620//620
f 620//620 621//621 658//658
f 620//620 658//658 659//659
f 620//620 659//659 686//686
f 620//620 686//686 662//662
f 620//620 662//662 661//661
f 620//620 661//661 689//689
f 620//620 689//689 702//702
f 620//620 702//702 704//704
f 620//620 704//704 703//703
f 620//620 703//703 698//698
f 620//620 698//698 697//697
f 620//620 697//697 701//701
f 620//620 701//701 700//700
f 620//620 700//700 699//699
f 620//620 699//699 696//696
f 620//620 696//696 695//695
f 620//620 695//695 694//694
f 620//620 694//694 691//691
f 620//620 691//691 670//670
f 620//620 670//670 666//666
f 620//620 666//666 627//627
f 621//621 624//624 658//658
f 622//622 625//625 660//660
f 622//622 660//660 623//623
f 623//623 660//660 661//661
f 623//623 661//661 662//662
f 623//623 662//662 663//663
f 623//623 663//663 624//624
f 624//624 663//663 658//658
f 625//625 626//626 664//664
f 625//625 664//664 651//651
f 625//625 651//651 665//665
f 625//625 665//665 660//660
f 626//626 657//657 651//651
f 626//626 651//651 664//664
f 628//628 631//631 632//632
f 630//630 667//667 668//668
f 630//630 668//668 631//631
f 631//631 668//668 666//666
f 631//631 666//666 669//669
f 631//631 669//669 670//670
f 631//631 670//670 632//632
f 632//632 670//670 671//671
f 632//632 671//671 672//672
f 632//632 672//672 673//673
f 632//632 673//673 633//633
f 633//633 673//673 674//674
f 633//633 674//674 635//635
f 633//633 635//635 637//637
f 633//633 637//637 634//634
f 635//635 643//643 636//636
f 635//635 674//674 639//639
f 635//635 639//639 638//638
f 635//635 638//638 643//643
f 636//636 643//643 642//642
f 639//639 675//675 640//640
f 639//639 674//674 673//673
f 639//639 673//673 675//675
f 640//640 676//676 641//641
f 640//640 675//675 673//673
f 640//640 673//673 672//672
f 640//640 672//672 676//676
f 641//641 677//677 678//678
f 641//641 678//678 679//679
f 641//641 679//679 644//644
f 641//641 676//676 677//677
f 644//644 679//679 645//645
f 645//645 655//655 654//654
f 645//645 653//653 646//646
f 645//645 679//679 680//680
f 645//645 680//680 655//655
f 646//646 653//653 647//647
f 647//647 653//653 648//648
f 649//649 681//681 682//682
f 649//649 682//682 650//650
f 649//649 656//656 683//683
f 649//649 683//683 681//681
f 650//650 682//682 651//651
f 651//651 682//682 665//665
f 655//655 683//683 656//656
f 655//655 680//680 684//684
f 655//655 684//684 685//685
f 655//655 685//685 683//683
f 658//658 663//663 686//686
f 658//658 686//686 659//659
f 660//660 665//665 687//687
f 660//660 687//687 688//688
f 660//660 688//688 661//661
f 661//661 688//688 690//690
f 661//661 690//690 689//689
f 662//662 686//686 663//663
f 665//665 682//682 688//688
f 665//665 688//688 687//687
f 666//666 668//668 667//667
f 666//666 670//670 669//669
f 670//670 691//691 678//678
f 670//670 678//678 692//692
f 670//670 692//692 693//693
f 670//670 693//693 672//672
f 670//670 672//672 671//671
f 672//672 693//693 676//676
f 676//676 693//693 692//692
f 676//676 692//692 678//678
f 676//676 678//678 677//677
f 678//678 684//684 680//680
f 678//678 680//680 679//679
f 678//678 691//691 694//694
f 678//678 694//694 695//695
f 678//678 695//695 696//696
f 678//678 696//696 684//684
f 681//681 683//683 685//685
f 681//681 685//685 690//690
f 681//681 690//690 682//682
f 682//682 690//690 688//688
f 684//684 696//696 685//685
f 685//685 697//697 698//698
f 685//685 698//698 690//690
f 685//685 696//696 699//699
f 685//685 699//699 700//700
f 685//685 700//700 701//701
f 685//685 701//701 697//697
f 689//689 690//690 702//702
f 690//690 698//698 703//703
f 690//690 703//703 704//704
f 690//690 704//704 702//702

