# https://github.com/mikedh/trimesh
v 0.19105319 -0.06018883 0.02308053
v 0.18684522 -0.06439893 0.02256666
v 0.19105319 -0.06439893 0.02306368
v 0.19526115 -0.05177380 0.02252454
v 0.19526115 -0.04756888 0.02248664
v 0.19105319 -0.05597873 0.02298787
v 0.19105319 -0.05177380 0.02277305
v 0.18684522 -0.06018883 0.02234764
v 0.18404201 -0.06439893 0.02131148
v 0.18404201 -0.06860385 0.02132412
v 0.18684522 -0.06860385 0.02242767
v 0.19526115 -0.06018883 0.02216652
v 0.19526115 -0.05597873 0.02242767
v 0.19105319 -0.06860385 0.02262985
v 0.19875254 -0.04756888 0.02128621
v 0.19891353 -0.04335878 0.02127357
v 0.19904296 -0.03914868 0.02119354
v 0.20100647 -0.03073366 0.02040168
v 0.19526115 -0.04335878 0.02233079
v 0.19526115 -0.03914868 0.02204437
v 0.19105319 -0.04756888 0.02243609
v 0.18419038 -0.06018883 0.02110509
v 0.18684522 -0.05597873 0.02198540
v 0.18276668 -0.06018883 0.01843466
v 0.18263724 -0.06439893 0.01843466
v 0.18076528 -0.02660114 0.01151851
v 0.18269406 -0.06860385 0.01843466
v 0.18431665 -0.07145369 0.02101664
v 0.18684522 -0.07195538 0.02137887
v 0.19437726 -0.06860385 0.02153051
v 0.19551370 -0.06422824 0.02161896
v 0.19817485 -0.05597873 0.02113036
v 0.19852209 -0.05177380 0.02126094
v 0.19105319 -0.07177953 0.02138730
v 0.19366068 -0.07122611 0.02103349
v 0.20114852 -0.03914868 0.02033850
v 0.20116747 -0.03493858 0.02039747
v 0.20362658 -0.02660114 0.01907489
v 0.20054874 -0.02660114 0.02035956
v 0.20050770 -0.02660114 0.02037220
v 0.19844317 -0.02660114 0.02073022
v 0.19837373 -0.02660114 0.02073864
v 0.19526115 -0.03493858 0.02165687
v 0.19286516 -0.02785279 0.02065019
v 0.19105319 -0.04335878 0.02199383
v 0.18442082 -0.05597873 0.02083552
v 0.18365688 -0.03914868 0.01742799
v 0.18654848 -0.05177898 0.02137045
v 0.18462601 -0.05318062 0.02063756
v 0.18746395 -0.04756888 0.02123566
v 0.18132719 -0.05597873 0.01422264
v 0.18132719 -0.06018883 0.01422264
v 0.18136192 -0.06439893 0.01422264
v 0.18070846 -0.03073366 0.01160696
v 0.18138401 -0.04756888 0.01422264
v 0.18061376 -0.04335878 0.01183441
v 0.18389996 -0.03493858 0.01710366
v 0.18302554 -0.02660114 0.01459329
v 0.18074950 -0.02660114 0.01147639
v 0.18147871 -0.06860385 0.01422264
v 0.18184174 -0.07281395 0.01422264
v 0.18354324 -0.07283981 0.01856945
v 0.18404201 -0.07603617 0.01725530
v 0.18684522 -0.07406043 0.01986254
v 0.19708261 -0.06552127 0.02008999
v 0.19748036 -0.06271282 0.02065019
v 0.19775184 -0.06018883 0.02086500
v 0.20062766 -0.05177380 0.01972354
v 0.20085810 -0.04756888 0.02006051
v 0.20101594 -0.04335878 0.02022899
v 0.18684522 -0.07645512 0.01775653
v 0.19014404 -0.07584998 0.01730584
v 0.19295040 -0.07475866 0.01590745
v 0.19439305 -0.07202779 0.01843466
v 0.19649861 -0.06874867 0.01858630
v 0.20674547 -0.02660114 0.01712051
v 0.20668865 -0.02660114 0.01715842
v 0.20367709 -0.03073366 0.01895696
v 0.20367709 -0.02660114 0.01904962
v 0.19529903 -0.02660114 0.02077234
v 0.19526115 -0.03073366 0.02121039
v 0.19021664 -0.03073366 0.02003945
v 0.19232220 -0.03073366 0.02085658
v 0.19333553 -0.02660114 0.02055753
v 0.19144147 -0.02660114 0.01991309
v 0.19126784 -0.02660114 0.01984569
v 0.19068068 -0.03886421 0.02131990
v 0.19155195 -0.03493858 0.02114300
v 0.18494800 -0.05038251 0.02040589
v 0.18457550 -0.02660114 0.01646765
v 0.18450606 -0.02735109 0.01652240
v 0.18421563 -0.03073366 0.01677934
v 0.18809213 -0.04335878 0.02093661
v 0.18060429 -0.04756888 0.01185126
v 0.18061692 -0.05177380 0.01177545
v 0.18064217 -0.06018883 0.01151009
v 0.18066427 -0.06439893 0.01125737
v 0.18005185 -0.04756888 0.00974525
v 0.18000766 -0.02660114 0.00941250
v 0.18067374 -0.03493858 0.01168699
v 0.17999819 -0.03493858 0.00958098
v 0.18000135 -0.03073366 0.00950095
v 0.18361269 -0.02660114 0.01531776
v 0.18072425 -0.06860385 0.01078562
v 0.18286138 -0.07702405 0.01001482
v 0.18366319 -0.07727231 0.01392358
v 0.18049064 -0.07095716 0.00822049
v 0.18096416 -0.07253983 0.00977894
v 0.18469230 -0.07915496 0.01232301
v 0.19789389 -0.06744530 0.01728478
v 0.20128111 -0.06139910 0.01541885
v 0.20172937 -0.05859065 0.01656452
v 0.20209240 -0.05597873 0.01704048
v 0.20262904 -0.05177380 0.01762174
v 0.20588051 -0.04175542 0.01644237
v 0.20607623 -0.03914868 0.01662349
v 0.20634456 -0.03493858 0.01682988
v 0.20655922 -0.03073366 0.01698994
v 0.18665582 -0.07861706 0.01392358
v 0.19134992 -0.07649132 0.01439111
v 0.19355018 -0.07529657 0.01310224
v 0.19532429 -0.07277774 0.01414261
v 0.19710470 -0.07024858 0.01518719
v 0.20886997 -0.02660114 0.01405837
v 0.18944639 -0.03493858 0.02034271
v 0.18648219 -0.02660114 0.01757120
v 0.18902970 -0.03727120 0.02050698
v 0.18859091 -0.04007449 0.02070495
v 0.18684522 -0.03073366 0.01838833
v 0.18001082 -0.03914868 0.00965258
v 0.18002660 -0.04335878 0.00973261
v 0.18010867 -0.05177380 0.00967364
v 0.18018760 -0.05597873 0.00955992
v 0.18026652 -0.06018883 0.00940828
v 0.18034544 -0.06439893 0.00915556
v 0.17897540 -0.02660114 0.00580700
v 0.18042751 -0.06860385 0.00868382
v 0.18079369 -0.07351218 0.00580700
v 0.18254570 -0.07702405 0.00580700
v 0.18454710 -0.07923771 0.01001482
v 0.18040541 -0.07140714 0.00580700
v 0.18019707 -0.06860385 0.00580700
v 0.18684522 -0.07940322 0.00580700
v 0.18512478 -0.07915496 0.01232301
v 0.20054874 -0.06415584 0.01410048
v 0.20171358 -0.06259386 0.01261364
v 0.20213343 -0.06006987 0.01410048
v 0.20334878 -0.05597873 0.01422264
v 0.20445049 -0.05177380 0.01422264
v 0.20559641 -0.04455871 0.01588639
v 0.20731368 -0.03914868 0.01422264
v 0.20793241 -0.03493858 0.01422264
v 0.20840278 -0.03073366 0.01422264
v 0.20898361 -0.02660114 0.01388567
v 0.18793114 -0.07904117 0.01123209
v 0.18903917 -0.07917564 0.00842688
v 0.19068701 -0.07793434 0.00990530
v 0.19385955 -0.07559655 0.01001482
v 0.19742354 -0.07079683 0.01238198
v 0.19823167 -0.06874867 0.01396149
v 0.17913955 -0.03493858 0.00580700
v 0.17923110 -0.03914868 0.00580700
v 0.17932580 -0.04335878 0.00580700
v 0.17942998 -0.04756888 0.00580700
v 0.17956256 -0.05177380 0.00580700
v 0.17849557 -0.02660114 0.00159918
v 0.18003607 -0.06439893 0.00580700
v 0.18074003 -0.07382769 0.00159918
v 0.18034859 -0.07172263 0.00159918
v 0.18244784 -0.07702405 0.00159918
v 0.18438925 -0.07932046 0.00580700
v 0.18008973 -0.06860385 0.00159918
v 0.18665582 -0.07924288 0.00990530
v 0.18684522 -0.07943943 0.00159918
v 0.18910546 -0.07921185 0.00580700
v 0.19886618 -0.06860385 0.01001482
v 0.20080760 -0.06490062 0.01001482
v 0.20180197 -0.06279557 0.01001482
v 0.20280582 -0.06018883 0.01001482
v 0.20425794 -0.05597873 0.01001482
v 0.20577003 -0.04962738 0.01204923
v 0.20612358 -0.04681892 0.01308118
v 0.20534386 -0.04796196 0.01437848
v 0.20645505 -0.04323982 0.01437848
v 0.20849432 -0.03914868 0.01001482
v 0.20916987 -0.03493858 0.01001482
v 0.20994328 -0.02660114 0.01156906
v 0.19120787 -0.07779469 0.00580700
v 0.19395426 -0.07568964 0.00580700
v 0.19605666 -0.07318634 0.00580700
v 0.19595880 -0.07307256 0.01001482
v 0.19752771 -0.07096751 0.01001482
v 0.17849557 -0.02660114 0.00151915
v 0.18075897 -0.07368804 -0.00260864
v 0.18247625 -0.07702405 -0.00260864
v 0.18038016 -0.07158299 -0.00260864
v 0.18435453 -0.07933081 -0.00260864
v 0.18434506 -0.07933599 0.00159918
v 0.18014971 -0.06860385 -0.00260864
v 0.18684522 -0.07941874 -0.00260864
v 0.18910546 -0.07921702 -0.00260864
v 0.18912756 -0.07922737 0.00159918
v 0.19760032 -0.07108129 0.00580700
v 0.19898929 -0.06860385 0.00580700
v 0.20086126 -0.06498855 0.00580700
v 0.20183669 -0.06288867 0.00580700
v 0.20298261 -0.06018883 0.00159918
v 0.20290684 -0.06018883 0.00580700
v 0.20449154 -0.05597873 0.00580700
v 0.20552379 -0.05300994 0.00580700
v 0.20598469 -0.05038251 0.00924402
v 0.20543541 -0.05178414 0.01039390
v 0.20644242 -0.04796196 0.01039390
v 0.20760726 -0.04335878 0.01001482
v 0.20801448 -0.04335878 0.00580700
v 0.20886682 -0.03914868 0.00580700
v 0.20988960 -0.03197496 0.00580700
v 0.21004114 -0.02906307 0.00840582
v 0.20971283 -0.03057332 0.00989267
v 0.20989591 -0.02759936 0.01121103
v 0.20951710 -0.03493858 0.00580700
v 0.21011058 -0.02660114 0.01017487
v 0.19123312 -0.07775849 0.00159918
v 0.19391952 -0.07565861 0.00159918
v 0.19121102 -0.07772228 -0.00260864
v 0.19602193 -0.07315531 0.00159918
v 0.19753402 -0.07097268 -0.00681645
v 0.19758138 -0.07105026 0.00159918
v 0.17857449 -0.02660114 -0.00260864
v 0.17999188 -0.06439893 -0.00260864
v 0.18082842 -0.07330013 -0.00681645
v 0.18264671 -0.07702405 -0.00681645
v 0.18044645 -0.07120025 -0.00681645
v 0.18445554 -0.07927909 -0.00681645
v 0.18028546 -0.06860385 -0.00681645
v 0.18700305 -0.07927909 -0.00689648
v 0.18903917 -0.07918082 -0.00554863
v 0.18460707 -0.07920151 -0.00954164
v 0.18570563 -0.07920151 -0.00954164
v 0.19895772 -0.06860385 -0.00260864
v 0.19898299 -0.06860385 0.00159918
v 0.20087073 -0.06511268 -0.00260864
v 0.20087073 -0.06505579 0.00159918
v 0.20191245 -0.06300763 -0.00260864
v 0.20187457 -0.06295073 0.00159918
v 0.20304574 -0.06018883 -0.00260864
v 0.20458624 -0.05597873 0.00159918
v 0.20558063 -0.05320131 0.00159918
v 0.20619619 -0.05110143 0.00159918
v 0.20613621 -0.05090489 0.00580700
v 0.20701695 -0.04756888 0.00580700
v 0.20814707 -0.04335878 0.00159918
v 0.20901203 -0.03914868 0.00159918
v 0.21074194 -0.02660114 0.00159918
v 0.21054621 -0.02660114 0.00580700
v 0.21053989 -0.02660114 0.00589124
v 0.21015792 -0.02660114 0.00974104
v 0.21014214 -0.02660114 0.00989267
v 0.20965916 -0.03493858 0.00159918
v 0.20996537 -0.03262665 0.00159918
v 0.21023684 -0.03052677 0.00159918
v 0.19388480 -0.07561724 -0.00260864
v 0.19068701 -0.07793434 -0.00689648
v 0.19383429 -0.07556034 -0.00681645
v 0.19598721 -0.07311393 -0.00260864
v 0.19746773 -0.07086924 -0.00949109
v 0.19891669 -0.06860385 -0.00681645
v 0.19755927 -0.07100888 -0.00260864
v 0.19593355 -0.07307773 -0.00681645
v 0.17903222 -0.02660114 -0.00681645
v 0.18045592 -0.06860385 -0.00927207
v 0.17984351 -0.05597873 -0.00681645
v 0.17997925 -0.06018883 -0.00681645
v 0.18013077 -0.06439893 -0.00681645
v 0.18338540 -0.07736541 -0.01097794
v 0.18050644 -0.07085889 -0.00904883
v 0.18110622 -0.07248294 -0.01067888
v 0.18850884 -0.07908772 -0.00835384
v 0.19105319 -0.07707577 -0.01102427
v 0.18378946 -0.07619134 -0.01433914
v 0.18684522 -0.07666718 -0.01494988
v 0.18700305 -0.07881877 -0.01097794
v 0.20085179 -0.06509716 -0.00681645
v 0.20190298 -0.06299211 -0.00681645
v 0.20296683 -0.06018883 -0.00681645
v 0.20461465 -0.05597873 -0.00260864
v 0.20558378 -0.05318579 -0.00260864
v 0.20618040 -0.05109108 -0.00260864
v 0.20713059 -0.04756888 0.00159918
v 0.20811235 -0.04335878 -0.00260864
v 0.20709903 -0.04756888 -0.00260864
v 0.20896783 -0.03914868 -0.00260864
v 0.21071668 -0.02660114 -0.00260864
v 0.20961497 -0.03493858 -0.00260864
v 0.20994643 -0.03249735 -0.00260864
v 0.21022739 -0.03039230 -0.00260864
v 0.19352177 -0.07526036 -0.01102427
v 0.19720257 -0.07041926 -0.01229630
v 0.19833269 -0.06885212 -0.01094424
v 0.20177672 -0.06272834 -0.00983648
v 0.19587672 -0.07248811 -0.01094424
v 0.17904800 -0.02660114 -0.00688806
v 0.18024126 -0.05597873 -0.00998390
v 0.18030124 -0.06018883 -0.00980699
v 0.18037700 -0.06439893 -0.00956270
v 0.18093575 -0.06860385 -0.01137387
v 0.18345170 -0.07259672 -0.01553957
v 0.19105319 -0.07575171 -0.01410747
v 0.19321873 -0.07497589 -0.01321874
v 0.18684522 -0.07372424 -0.01705168
v 0.18466705 -0.07104509 -0.01738443
v 0.19105319 -0.07347598 -0.01620928
v 0.20441577 -0.05597873 -0.00681645
v 0.20545751 -0.05269961 -0.00681645
v 0.20603204 -0.05059456 -0.00681645
v 0.20778089 -0.04335878 -0.00681645
v 0.20866794 -0.03914868 -0.00681645
v 0.20678966 -0.04756888 -0.00681645
v 0.20934349 -0.03493858 -0.00681645
v 0.21013268 -0.02966820 -0.00574238
v 0.21036313 -0.02660114 -0.00647949
v 0.19394163 -0.07239501 -0.01486564
v 0.19796019 -0.06761081 -0.01409905
v 0.20145473 -0.06196803 -0.01264169
v 0.20072236 -0.06423859 -0.01115484
v 0.20231022 -0.06041640 -0.01115484
v 0.20377180 -0.05597873 -0.01102427
v 0.17998241 -0.02660114 -0.01076734
v 0.18020338 -0.05177380 -0.01010605
v 0.18083473 -0.05597873 -0.01208570
v 0.18086631 -0.06018883 -0.01191301
v 0.18090103 -0.06439893 -0.01166871
v 0.18286453 -0.06860385 -0.01523209
v 0.19316190 -0.07071407 -0.01733810
v 0.18684522 -0.07161919 -0.01753607
v 0.19105319 -0.07137093 -0.01750237
v 0.18456604 -0.06860385 -0.01744762
v 0.18684522 -0.06439893 -0.01830687
v 0.18684522 -0.06860385 -0.01799097
v 0.20586788 -0.04998942 -0.00926364
v 0.20772090 -0.03914868 -0.01102427
v 0.20846275 -0.03493858 -0.01102427
v 0.20994012 -0.02808036 -0.00854760
v 0.20981069 -0.03093537 -0.00701442
v 0.21031261 -0.02660114 -0.00703127
v 0.19670064 -0.06543335 -0.01690426
v 0.19856628 -0.06417653 -0.01539636
v 0.20194088 -0.05916475 -0.01387160
v 0.20506922 -0.05154623 -0.01080946
v 0.17999503 -0.02660114 -0.01080946
v 0.18064217 -0.03073366 -0.01278069
v 0.18076844 -0.04756888 -0.01232579
v 0.18080001 -0.05177380 -0.01221206
v 0.18274142 -0.06439893 -0.01523209
v 0.18447764 -0.06439893 -0.01750658
v 0.19105319 -0.06860385 -0.01807100
v 0.19371434 -0.06860385 -0.01753186
v 0.19748667 -0.06262489 -0.01741392
v 0.18684522 -0.06018883 -0.01839532
v 0.19105319 -0.05177380 -0.01935988
v 0.19105319 -0.05597873 -0.01924615
v 0.19105319 -0.06018883 -0.01901449
v 0.19105319 -0.06439893 -0.01867332
v 0.20549854 -0.04827228 -0.01206885
v 0.20608255 -0.04714994 -0.01080946
v 0.20684648 -0.04335878 -0.01102427
v 0.20578265 -0.04546383 -0.01313028
v 0.20678966 -0.03493858 -0.01456237
v 0.20901834 -0.03073366 -0.01102427
v 0.20599100 -0.04335878 -0.01347988
v 0.20640454 -0.03914868 -0.01409905
v 0.20952974 -0.02660114 -0.01077997
v 0.20090861 -0.05597873 -0.01676948
v 0.20028673 -0.06041640 -0.01525736
v 0.20244911 -0.05597873 -0.01466346
v 0.18061692 -0.02660114 -0.01287335
v 0.18266881 -0.06018883 -0.01523209
v 0.18443976 -0.06018883 -0.01753607
v 0.19526115 -0.06018883 -0.01842902
v 0.19528325 -0.06417653 -0.01780985
v 0.19795388 -0.06018883 -0.01761188
v 0.20142947 -0.05342888 -0.01724123
v 0.18684522 -0.05597873 -0.01843323
v 0.19105319 -0.02660114 -0.01965472
v 0.19105319 -0.03493858 -0.01957048
v 0.19105319 -0.03914868 -0.01952415
v 0.19105319 -0.04335878 -0.01947360
v 0.19105319 -0.04756888 -0.01941884
v 0.19526115 -0.03493858 -0.01983584
v 0.19526115 -0.03914868 -0.01976844
v 0.19526115 -0.04335878 -0.01967999
v 0.19526115 -0.04756888 -0.01954521
v 0.19526115 -0.05177380 -0.01932197
v 0.19526115 -0.05597873 -0.01895552
v 0.20282161 -0.05192896 -0.01559432
v 0.20490823 -0.03493858 -0.01666418
v 0.20710534 -0.03073366 -0.01486564
v 0.20173884 -0.05062559 -0.01746025
v 0.20952027 -0.02660114 -0.01080524
v 0.18250466 -0.02660114 -0.01523209
v 0.18251413 -0.03073366 -0.01523209
v 0.18442713 -0.05597873 -0.01754870
v 0.18259621 -0.05177380 -0.01523209
v 0.18262462 -0.05597873 -0.01523209
v 0.19880305 -0.05597873 -0.01793200
v 0.19980374 -0.05192896 -0.01810469
v 0.18684522 -0.05177380 -0.01845008
v 0.18684522 -0.02660114 -0.01851326
v 0.19526115 -0.02660114 -0.01994114
v 0.18684522 -0.04756888 -0.01846271
v 0.18684522 -0.03914868 -0.01848799
v 0.19526115 -0.03073366 -0.01989059
v 0.19946913 -0.02660114 -0.01938094
v 0.19946913 -0.03073366 -0.01928827
v 0.19946913 -0.03493858 -0.01918718
v 0.19946913 -0.03914868 -0.01907346
v 0.19946913 -0.04335878 -0.01891761
v 0.19946913 -0.04756888 -0.01866489
v 0.20518603 -0.03073366 -0.01697166
v 0.20545751 -0.02660114 -0.01710223
v 0.20733579 -0.02660114 -0.01503833
v 0.20197244 -0.04756888 -0.01761610
v 0.18254254 -0.02660114 -0.01527842
v 0.18443344 -0.05177380 -0.01754870
v 0.18446185 -0.04335878 -0.01753186
v 0.18449342 -0.03493858 -0.01751501
v 0.18450920 -0.03073366 -0.01750658
v 0.18456604 -0.02660114 -0.01751501
v 0.19534007 -0.02660114 -0.01993271
v 0.20331406 -0.02660114 -0.01807100
v 0.20308362 -0.03073366 -0.01801203
v 0.20225340 -0.04335878 -0.01776773
v 0.20280267 -0.03493858 -0.01794463
v 0.20251856 -0.03914868 -0.01786882
v 0.20541963 -0.02660114 -0.01714014
v 0.18452184 -0.02660114 -0.01749395
f 1 2 3
f 1 3 4
f 1 4 5
f 1 5 6
f 1 6 2
f 2 6 7
f 2 7 8
f 2 8 9
f 2 9 10
f 2 10 11
f 2 11 3
f 3 12 13
f 3 13 4
f 3 11 14
f 3 14 12
f 4 13 15
f 4 15 16
f 4 16 5
f 5 16 17
f 5 17 18
f 5 18 19
f 5 19 6
f 6 19 7
f 7 19 20
f 7 20 21
f 7 21 8
f 8 22 9
f 8 21 23
f 8 23 22
f 9 24 25
f 9 25 10
f 9 22 26
f 9 26 24
f 10 27 28
f 10 28 11
f 10 25 27
f 11 28 29
f 11 29 14
f 12 14 30
f 12 30 31
f 12 31 32
f 12 32 33
f 12 33 13
f 13 33 15
f 14 29 34
f 14 34 35
f 14 35 30
f 15 36 37
f 15 37 16
f 15 33 36
f 16 37 17
f 17 37 18
f 18 37 38
f 18 38 39
f 18 39 40
f 18 40 19
f 19 40 41
f 19 41 20
f 20 41 42
f 20 42 43
f 20 43 21
f 21 43 44
f 21 44 45
f 21 45 23
f 22 23 46
f 22 46 47
f 22 47 26
f 23 48 49
f 23 49 46
f 23 45 50
f 23 50 48
f 24 26 25
f 25 51 52
f 25 52 53
f 25 53 27
f 25 26 54
f 25 54 55
f 25 55 56
f 25 56 51
f 26 47 57
f 26 57 58
f 26 58 103
f 26 103 90
f 26 90 126
f 26 126 86
f 26 86 85
f 26 85 84
f 26 84 80
f 26 80 42
f 26 42 41
f 26 41 40
f 26 40 39
f 26 39 38
f 26 38 79
f 26 79 77
f 26 77 76
f 26 76 124
f 26 124 154
f 26 154 187
f 26 187 222
f 26 222 258
f 26 258 257
f 26 257 256
f 26 256 255
f 26 255 254
f 26 254 293
f 26 293 321
f 26 321 345
f 26 345 372
f 26 372 399
f 26 399 421
f 26 421 420
f 26 420 435
f 26 435 430
f 26 430 413
f 26 413 429
f 26 429 409
f 26 409 384
f 26 384 408
f 26 408 428
f 26 428 436
f 26 436 423
f 26 423 400
f 26 400 376
f 26 376 350
f 26 350 328
f 26 328 302
f 26 302 270
f 26 270 229
f 26 229 193
f 26 193 166
f 26 166 136
f 26 136 99
f 26 99 59
f 26 59 54
f 27 60 61
f 27 61 62
f 27 62 28
f 27 53 60
f 28 62 63
f 28 63 64
f 28 64 29
f 29 64 34
f 30 65 66
f 30 66 31
f 30 35 65
f 31 66 67
f 31 67 32
f 32 68 69
f 32 69 33
f 32 67 68
f 33 69 70
f 33 70 36
f 34 64 71
f 34 71 72
f 34 72 35
f 35 72 73
f 35 73 74
f 35 74 75
f 35 75 65
f 36 70 76
f 36 76 77
f 36 77 78
f 36 78 79
f 36 79 37
f 37 79 38
f 42 80 43
f 43 80 81
f 43 81 44
f 44 82 83
f 44 83 45
f 44 81 80
f 44 80 84
f 44 84 85
f 44 85 86
f 44 86 82
f 45 87 50
f 45 83 88
f 45 88 87
f 46 49 57
f 46 57 47
f 48 50 49
f 49 50 89
f 49 89 90
f 49 90 91
f 49 91 92
f 49 92 57
f 50 87 93
f 50 93 89
f 51 56 94
f 51 94 52
f 52 94 95
f 52 95 53
f 53 96 97
f 53 97 60
f 53 95 98
f 53 98 96
f 54 59 99
f 54 99 100
f 54 100 55
f 55 100 56
f 56 101 94
f 56 100 99
f 56 99 102
f 56 102 101
f 57 92 58
f 58 92 103
f 60 104 61
f 60 97 104
f 61 105 106
f 61 106 63
f 61 63 62
f 61 104 107
f 61 107 108
f 61 108 105
f 63 71 64
f 63 106 109
f 63 109 71
f 65 75 110
f 65 110 111
f 65 111 112
f 65 112 66
f 66 112 113
f 66 113 114
f 66 114 115
f 66 115 68
f 66 68 67
f 68 115 116
f 68 116 69
f 69 116 117
f 69 117 118
f 69 118 70
f 70 118 76
f 71 109 119
f 71 119 72
f 72 119 120
f 72 120 73
f 73 120 121
f 73 121 74
f 74 122 123
f 74 123 75
f 74 121 122
f 75 123 110
f 76 118 124
f 77 79 78
f 82 125 83
f 82 86 126
f 82 126 125
f 83 125 127
f 83 127 88
f 87 128 93
f 87 88 128
f 88 127 128
f 89 93 128
f 89 128 127
f 89 127 129
f 89 129 126
f 89 126 90
f 90 103 91
f 91 103 92
f 94 101 130
f 94 130 131
f 94 131 98
f 94 98 95
f 96 132 97
f 96 98 132
f 97 132 133
f 97 133 134
f 97 134 135
f 97 135 104
f 98 131 136
f 98 136 132
f 99 136 102
f 101 102 136
f 101 136 130
f 104 137 107
f 104 135 137
f 105 108 138
f 105 138 139
f 105 139 140
f 105 140 109
f 105 109 106
f 107 141 138
f 107 138 108
f 107 137 142
f 107 142 141
f 109 140 143
f 109 143 144
f 109 144 119
f 110 123 145
f 110 145 111
f 111 145 146
f 111 146 147
f 111 147 148
f 111 148 112
f 112 148 149
f 112 149 150
f 112 150 113
f 113 150 115
f 113 115 114
f 115 150 151
f 115 151 152
f 115 152 116
f 116 152 153
f 116 153 117
f 117 153 154
f 117 154 124
f 117 124 118
f 119 144 155
f 119 155 120
f 120 155 156
f 120 156 157
f 120 157 121
f 121 157 158
f 121 158 159
f 121 159 122
f 122 159 123
f 123 159 160
f 123 160 145
f 125 126 127
f 126 129 127
f 130 136 131
f 132 136 161
f 132 161 162
f 132 162 163
f 132 163 133
f 133 163 134
f 134 163 164
f 134 164 135
f 135 164 165
f 135 165 137
f 136 166 161
f 137 165 167
f 137 167 142
f 138 168 139
f 138 141 169
f 138 169 168
f 139 168 170
f 139 170 171
f 139 171 140
f 140 171 143
f 141 142 172
f 141 172 169
f 142 167 172
f 143 173 144
f 143 171 174
f 143 174 175
f 143 175 156
f 143 156 173
f 144 173 155
f 145 160 146
f 146 148 147
f 146 160 159
f 146 159 176
f 146 176 177
f 146 177 178
f 146 178 179
f 146 179 180
f 146 180 181
f 146 181 148
f 148 181 149
f 149 181 182
f 149 182 183
f 149 183 150
f 150 183 182
f 150 182 184
f 150 184 151
f 151 184 182
f 151 182 185
f 151 185 186
f 151 186 187
f 151 187 152
f 152 187 153
f 153 187 154
f 155 173 156
f 156 175 188
f 156 188 157
f 157 188 158
f 158 189 190
f 158 190 191
f 158 191 159
f 158 188 189
f 159 192 176
f 159 191 192
f 161 166 162
f 162 166 163
f 163 166 164
f 164 166 165
f 165 166 167
f 166 193 172
f 166 172 167
f 168 169 194
f 168 194 195
f 168 195 170
f 169 172 196
f 169 196 194
f 170 195 197
f 170 197 198
f 170 198 171
f 171 198 174
f 172 199 196
f 172 193 199
f 174 198 197
f 174 197 200
f 174 200 201
f 174 201 202
f 174 202 175
f 175 202 188
f 176 192 203
f 176 203 204
f 176 204 177
f 177 204 205
f 177 205 178
f 178 205 206
f 178 206 207
f 178 207 208
f 178 208 179
f 179 208 209
f 179 209 210
f 179 210 180
f 180 210 211
f 180 211 212
f 180 212 181
f 181 211 213
f 181 213 214
f 181 214 182
f 181 212 211
f 182 214 185
f 185 214 215
f 185 215 216
f 185 216 186
f 186 217 218
f 186 218 219
f 186 219 220
f 186 220 187
f 186 216 221
f 186 221 217
f 187 220 222
f 188 202 223
f 188 223 189
f 189 224 226
f 189 226 190
f 189 223 225
f 189 225 224
f 190 226 227
f 190 227 228
f 190 228 203
f 190 203 192
f 190 192 191
f 193 229 230
f 193 230 199
f 194 231 232
f 194 232 195
f 194 196 233
f 194 233 231
f 195 232 234
f 195 234 197
f 196 199 233
f 197 234 200
f 199 235 233
f 199 230 235
f 200 236 237
f 200 237 201
f 200 234 238
f 200 238 239
f 200 239 236
f 201 237 225
f 201 225 223
f 201 223 202
f 203 228 240
f 203 240 241
f 203 241 204
f 204 241 242
f 204 242 243
f 204 243 205
f 205 243 244
f 205 244 245
f 205 245 206
f 206 245 246
f 206 246 207
f 207 246 247
f 207 247 208
f 208 247 209
f 209 247 248
f 209 248 210
f 210 248 249
f 210 249 250
f 210 250 211
f 211 250 251
f 211 251 214
f 211 214 213
f 214 251 215
f 215 252 253
f 215 253 216
f 215 251 252
f 216 253 221
f 217 254 255
f 217 255 256
f 217 256 218
f 217 221 254
f 218 220 219
f 218 256 257
f 218 257 258
f 218 258 220
f 220 258 222
f 221 253 259
f 221 259 260
f 221 260 261
f 221 261 254
f 224 262 265
f 224 265 226
f 224 225 262
f 225 237 263
f 225 263 264
f 225 264 262
f 226 265 227
f 227 266 267
f 227 267 268
f 227 268 228
f 227 265 269
f 227 269 266
f 228 268 267
f 228 267 240
f 229 270 271
f 229 271 272
f 229 272 273
f 229 273 274
f 229 274 235
f 229 235 230
f 231 275 232
f 231 233 276
f 231 276 277
f 231 277 275
f 232 275 238
f 232 238 234
f 233 235 276
f 235 274 276
f 236 239 278
f 236 278 237
f 237 278 279
f 237 279 263
f 238 275 280
f 238 280 281
f 238 281 282
f 238 282 239
f 239 282 278
f 240 267 283
f 240 283 242
f 240 242 241
f 242 283 284
f 242 284 244
f 242 244 243
f 244 284 246
f 244 246 245
f 246 284 285
f 246 285 286
f 246 286 247
f 247 286 248
f 248 287 249
f 248 286 287
f 249 287 288
f 249 288 289
f 249 289 250
f 250 289 251
f 251 289 252
f 252 290 253
f 252 289 291
f 252 291 290
f 253 292 294
f 253 294 259
f 253 290 292
f 254 261 293
f 259 294 295
f 259 295 296
f 259 296 260
f 260 296 261
f 261 296 293
f 262 264 269
f 262 269 265
f 263 279 297
f 263 297 264
f 264 297 266
f 264 266 269
f 266 298 299
f 266 299 300
f 266 300 283
f 266 283 267
f 266 297 301
f 266 301 298
f 270 302 303
f 270 303 304
f 270 304 305
f 270 305 271
f 271 305 306
f 271 306 276
f 271 276 272
f 272 276 273
f 273 276 274
f 275 277 280
f 276 306 277
f 277 306 307
f 277 307 280
f 278 282 279
f 279 282 308
f 279 308 309
f 279 309 297
f 280 310 281
f 280 307 311
f 280 311 310
f 281 310 312
f 281 312 308
f 281 308 282
f 283 300 284
f 284 300 285
f 285 300 313
f 285 313 287
f 285 287 286
f 287 314 288
f 287 313 314
f 288 314 315
f 288 315 291
f 288 291 289
f 290 316 317
f 290 317 292
f 290 291 318
f 290 318 316
f 291 315 318
f 292 317 319
f 292 319 294
f 293 296 320
f 293 320 321
f 294 319 320
f 294 320 295
f 295 320 296
f 297 309 301
f 298 301 309
f 298 309 322
f 298 322 323
f 298 323 324
f 298 324 325
f 298 325 299
f 299 325 300
f 300 324 326
f 300 326 327
f 300 327 313
f 300 325 324
f 302 328 329
f 302 329 303
f 303 329 330
f 303 330 331
f 303 331 332
f 303 332 304
f 304 332 306
f 304 306 305
f 306 333 307
f 306 332 333
f 307 333 311
f 308 312 334
f 308 334 309
f 309 334 322
f 310 335 336
f 310 336 312
f 310 311 335
f 311 333 337
f 311 337 338
f 311 338 339
f 311 339 335
f 312 336 334
f 313 327 314
f 314 327 340
f 314 340 315
f 315 340 318
f 316 318 340
f 316 340 317
f 317 341 342
f 317 342 319
f 317 340 341
f 319 342 343
f 319 343 344
f 319 344 320
f 320 344 343
f 320 343 345
f 320 345 321
f 322 334 323
f 323 334 346
f 323 346 347
f 323 347 348
f 323 348 324
f 324 348 327
f 324 327 326
f 327 349 340
f 327 348 349
f 328 350 351
f 328 351 352
f 328 352 353
f 328 353 329
f 329 353 330
f 330 353 354
f 330 354 331
f 331 354 333
f 331 333 332
f 333 354 355
f 333 355 337
f 334 336 356
f 334 356 357
f 334 357 358
f 334 358 346
f 335 339 356
f 335 356 336
f 337 355 338
f 338 355 359
f 338 359 360
f 338 360 361
f 338 361 362
f 338 362 339
f 339 362 363
f 339 363 356
f 340 364 365
f 340 365 366
f 340 366 341
f 340 349 364
f 341 366 367
f 341 367 342
f 342 368 369
f 342 369 343
f 342 367 370
f 342 370 371
f 342 371 368
f 343 369 372
f 343 372 345
f 346 358 347
f 347 358 373
f 347 373 374
f 347 374 348
f 348 374 373
f 348 373 375
f 348 375 364
f 348 364 349
f 350 376 351
f 351 376 354
f 351 354 352
f 352 354 353
f 354 376 377
f 354 377 355
f 355 377 378
f 355 378 359
f 356 363 379
f 356 379 357
f 357 379 380
f 357 380 358
f 358 380 379
f 358 379 381
f 358 381 382
f 358 382 373
f 359 378 383
f 359 383 384
f 359 384 385
f 359 385 386
f 359 386 387
f 359 387 388
f 359 388 360
f 360 388 389
f 360 389 390
f 360 390 391
f 360 391 361
f 361 391 392
f 361 392 393
f 361 393 362
f 362 393 363
f 363 393 394
f 363 394 379
f 364 367 366
f 364 366 365
f 364 375 367
f 367 375 395
f 367 395 382
f 367 382 370
f 368 396 397
f 368 397 369
f 368 371 382
f 368 382 398
f 368 398 396
f 369 397 399
f 369 399 372
f 370 382 371
f 373 382 375
f 375 382 395
f 376 400 401
f 376 401 402
f 376 402 378
f 376 378 403
f 376 403 404
f 376 404 377
f 377 404 378
f 378 404 403
f 378 402 383
f 379 394 405
f 379 405 381
f 381 405 382
f 382 405 406
f 382 406 398
f 383 402 407
f 383 407 384
f 384 409 385
f 384 407 410
f 384 410 411
f 384 411 408
f 385 409 386
f 386 409 387
f 387 409 412
f 387 412 388
f 388 412 389
f 389 412 413
f 389 413 390
f 390 413 391
f 391 413 414
f 391 414 415
f 391 415 416
f 391 416 392
f 392 416 417
f 392 417 393
f 393 417 418
f 393 418 394
f 394 418 406
f 394 406 405
f 396 398 419
f 396 419 397
f 397 419 420
f 397 420 421
f 397 421 399
f 398 418 422
f 398 422 419
f 398 406 418
f 400 423 402
f 400 402 401
f 402 424 408
f 402 408 411
f 402 411 410
f 402 410 407
f 402 423 424
f 408 425 426
f 408 426 427
f 408 427 428
f 408 424 425
f 409 429 412
f 412 429 413
f 413 430 414
f 414 430 415
f 415 430 416
f 416 430 431
f 416 431 417
f 417 432 418
f 417 431 433
f 417 433 434
f 417 434 432
f 418 432 422
f 419 435 420
f 419 422 432
f 419 432 435
f 423 436 427
f 423 427 426
f 423 426 425
f 423 425 424
f 427 436 428
f 430 435 431
f 431 435 433
f 432 434 435
f 433 435 434

