# https://github.com/mikedh/trimesh
v -0.17931667 0.04749821 -0.00260871
v -0.17672955 0.04718875 -0.00487095
v -0.17931667 0.04727716 -0.00509240
v -0.18352709 0.04723928 -0.00497951
v -0.18352709 0.04739716 -0.00260871
v -0.17931667 0.04746032 0.00159880
v -0.17628569 0.04724559 0.00159880
v -0.17620959 0.04725822 -0.00260871
v -0.17931667 0.04644984 -0.00719399
v -0.17410438 0.04699928 -0.00260871
v -0.17090852 0.04655721 -0.00260871
v -0.16669811 0.04586250 -0.00260871
v -0.16669811 0.04518675 -0.00681622
v -0.17090852 0.04581829 -0.00681622
v -0.17523307 0.04643089 -0.00649057
v -0.18352709 0.04639300 -0.00708544
v -0.18564498 0.04713823 -0.00472332
v -0.18373001 0.04732137 0.00155104
v -0.18572108 0.04715717 -0.00260871
v -0.18573376 0.04716349 0.00011814
v -0.17931667 0.04724559 0.00399131
v -0.17681833 0.04717612 0.00382197
v -0.18244913 0.04723928 0.00396526
v -0.17418047 0.04698665 0.00159880
v -0.17931667 0.04458678 -0.01102374
v -0.17510626 0.04441626 -0.01102374
v -0.17090852 0.04652563 0.00159880
v -0.15183481 0.04294476 -0.00481017
v -0.16669811 0.04581829 0.00159880
v -0.08351696 0.03054119 -0.00260871
v -0.08351696 0.03042752 -0.00435424
v -0.16248768 0.04444153 -0.00681622
v -0.15652716 0.04285003 -0.00867031
v -0.15932987 0.04311528 -0.00930426
v -0.16248768 0.04339947 -0.00986439
v -0.17078170 0.04386050 -0.01139282
v -0.16669811 0.04374682 -0.01056347
v -0.18352709 0.04444784 -0.01102374
v -0.18744583 0.04379735 -0.01121045
v -0.18733169 0.04603934 -0.00640372
v -0.19215084 0.04395523 -0.00679886
v -0.19194793 0.04471941 -0.00260871
v -0.18782629 0.04651300 -0.00260871
v -0.18525185 0.04708770 0.00292315
v -0.18738242 0.04658247 0.00155104
v -0.17931667 0.04634248 0.00609290
v -0.17529649 0.04632985 0.00545895
v -0.17090852 0.04565409 0.00580632
v -0.16669811 0.04500360 0.00580632
v -0.18373001 0.04644352 0.00554145
v -0.17931667 0.04316580 -0.01343361
v -0.17510626 0.04310265 -0.01335980
v -0.17210063 0.04300792 -0.01323822
v -0.08351696 0.03037068 -0.00496214
v -0.15212650 0.04289424 0.00330960
v -0.08351696 0.03047172 0.00034393
v -0.08351696 0.02958756 -0.00706807
v -0.16248768 0.04223111 -0.01196598
v -0.16669811 0.04264794 -0.01266940
v -0.11408054 0.03450730 -0.00892215
v -0.16929791 0.04286897 -0.01304717
v -0.18352709 0.04307738 -0.01332940
v -0.18584791 0.04296371 -0.01318611
v -0.18865063 0.04268583 -0.01273888
v -0.19089533 0.04347526 -0.00992952
v -0.19369806 0.04272372 -0.00819268
v -0.19429411 0.04311528 -0.00538767
v -0.19194793 0.04468151 0.00159880
v -0.19445896 0.04324159 -0.00260871
v -0.19445896 0.04322896 0.00159880
v -0.18773752 0.04560357 0.00580632
v -0.19203671 0.04387313 0.00567605
v -0.17931667 0.04423943 0.00983580
v -0.17510626 0.04411944 0.00956659
v -0.18352709 0.04419522 0.00983580
v -0.17090852 0.04389840 0.00922357
v -0.16669811 0.04361420 0.00881975
v -0.16248768 0.04324790 0.00834212
v -0.15998933 0.04300160 0.00802080
v -0.16248768 0.04422680 0.00580632
v -0.15492922 0.04316580 0.00447763
v -0.18773752 0.04388577 0.00940159
v -0.17931667 0.04112591 -0.01553954
v -0.18773752 0.03899128 -0.01758034
v -0.17510626 0.04105644 -0.01546573
v -0.16862576 0.03873866 -0.01735455
v -0.08351696 0.03001701 0.00244552
v -0.08351696 0.02798343 -0.00970808
v -0.08351696 0.02748451 -0.01048532
v -0.15092171 0.03892813 -0.01339888
v -0.15406685 0.03925022 -0.01381138
v -0.15827726 0.03969230 -0.01433678
v -0.16248768 0.04012806 -0.01479270
v -0.16701515 0.04019122 -0.01556125
v -0.19050219 0.03887129 -0.01748915
v -0.19192257 0.03993228 -0.01548744
v -0.19519452 0.03942073 -0.01425427
v -0.19799725 0.03852394 -0.01250440
v -0.19656418 0.04146694 -0.00260871
v -0.19850453 0.03893444 -0.00969939
v -0.19875816 0.03918074 -0.00681622
v -0.19429411 0.04310265 0.00419105
v -0.19656418 0.04151115 0.00159880
v -0.19069241 0.04340579 0.00868514
v -0.19349513 0.04257846 0.00699606
v -0.18352709 0.04277424 0.01194173
v -0.17931667 0.04275529 0.01193739
v -0.17510626 0.04247741 0.01167252
v -0.16669811 0.04168167 0.01092568
v -0.17090852 0.04210480 0.01132515
v -0.08351696 0.02663192 0.00858962
v -0.08351696 0.02845709 0.00580632
v -0.18773752 0.04245215 0.01150752
v -0.17510626 0.03895339 -0.01751955
v -0.17931667 0.03902286 -0.01757600
v -0.18352709 0.03903549 -0.01759337
v -0.18773752 0.03661035 -0.01913482
v -0.17090852 0.03882076 -0.01742402
v -0.17090852 0.03661035 -0.01870061
v -0.16582304 0.03850499 -0.01718086
v -0.16248768 0.03606722 -0.01827508
v -0.16701515 0.03690718 -0.01825771
v -0.08351696 0.02601932 -0.01209190
v -0.16248768 0.03817027 -0.01689863
v -0.08351696 0.02556461 -0.01258690
v -0.19194793 0.03330737 -0.02082824
v -0.19192257 0.03688192 -0.01853561
v -0.19330491 0.03846710 -0.01705929
v -0.19642467 0.03782924 -0.01548744
v -0.19868207 0.03487360 -0.01763679
v -0.19956981 0.03569461 -0.01523125
v -0.20238520 0.03443152 -0.01287782
v -0.19894839 0.03935758 -0.00260871
v -0.19902448 0.03940810 0.00159880
v -0.20282909 0.03483570 -0.01007281
v -0.20312077 0.03511359 -0.00681622
v -0.20093946 0.03746926 0.00580632
v -0.19883426 0.03918074 0.00580632
v -0.19849184 0.03887129 0.00829001
v -0.19194793 0.03968598 0.01322700
v -0.19750264 0.03826500 0.01109502
v -0.19468724 0.03909233 0.01261476
v -0.18352709 0.04067119 0.01380884
v -0.18773752 0.04034279 0.01370463
v -0.17931667 0.04064593 0.01371766
v -0.17510626 0.04037437 0.01351358
v -0.17090852 0.04000176 0.01322700
v -0.16669811 0.03957862 0.01288397
v -0.16248768 0.03913654 0.01249752
v -0.15976105 0.03884602 0.01223700
v -0.08351696 0.02461097 0.01069120
v -0.17510626 0.03661035 -0.01890034
v -0.17931667 0.03661035 -0.01903061
v -0.18352709 0.03661035 -0.01910876
v -0.18773752 0.03344631 -0.02099759
v -0.17090852 0.03259372 -0.02071969
v -0.17510626 0.03292844 -0.02081956
v -0.17931667 0.03316843 -0.02089772
v -0.15827726 0.03559356 -0.01801889
v -0.14786535 0.03448204 -0.01731981
v -0.16248768 0.03239794 -0.02012916
v -0.15406685 0.03239794 -0.01919995
v -0.15827726 0.03239794 -0.01968627
v -0.08351696 0.02396048 -0.01406322
v -0.19194793 0.03120431 -0.02203535
v -0.19515648 0.03078118 -0.02183996
v -0.19639931 0.03227163 -0.02046785
v -0.19615835 0.03565040 -0.01816652
v -0.19795919 0.03013700 -0.02145351
v -0.20036878 0.02916442 -0.02078482
v -0.20019123 0.03230952 -0.01858771
v -0.20301931 0.03084434 -0.01781481
v -0.20166234 0.03380629 -0.01523125
v -0.20670977 0.03033278 -0.01319046
v -0.20105360 0.03737452 -0.00260871
v -0.20112970 0.03747557 0.00159880
v -0.20334903 0.03536620 0.00580632
v -0.20702682 0.03063592 -0.01102374
v -0.20743263 0.03102748 -0.00681622
v -0.20522598 0.03313053 -0.00681622
v -0.20303199 0.03504412 0.00909764
v -0.20041950 0.03665456 0.01009633
v -0.19194793 0.03744399 0.01533293
v -0.19770555 0.03418521 0.01613188
v -0.20234717 0.03439363 0.01190265
v -0.19954445 0.03546094 0.01332687
v -0.18352709 0.03789239 0.01591477
v -0.18773752 0.03783555 0.01580622
v -0.17931667 0.03774082 0.01582359
v -0.17510626 0.03745031 0.01561516
v -0.17090852 0.03710296 0.01533293
v -0.16248768 0.03661035 0.01446016
v -0.08351696 0.02250793 0.01260173
v -0.18352709 0.03333263 -0.02095851
v -0.18773752 0.03133694 -0.02204838
v -0.17090852 0.03049067 -0.02162285
v -0.17510626 0.03082539 -0.02177048
v -0.16710392 0.03198112 -0.02070666
v -0.17931667 0.03106538 -0.02189640
v -0.18352709 0.03122958 -0.02198325
v -0.14950133 0.03280844 -0.01842705
v -0.08351696 0.02346156 -0.01450612
v -0.08351696 0.02085959 -0.01611270
v -0.08351696 0.02005753 -0.01660770
v -0.13087149 0.03030752 -0.01734586
v -0.14565869 0.03208848 -0.01831416
v -0.16248768 0.02930968 -0.02129719
v -0.16597523 0.02987176 -0.02144048
v -0.16879063 0.03030120 -0.02154903
v -0.08351696 0.01845340 -0.01723731
v -0.08351696 0.01795448 -0.01742836
v -0.11387763 0.02613300 -0.01736758
v -0.19194793 0.02819184 -0.02306009
v -0.19639931 0.02852024 -0.02246522
v -0.20036878 0.02706137 -0.02199627
v -0.20252471 0.02614563 -0.02157943
v -0.20417337 0.02772450 -0.01914784
v -0.20700145 0.02649930 -0.01767152
v -0.20582204 0.02930336 -0.01599547
v -0.20447774 0.03144430 -0.01484914
v -0.20754678 0.02801501 -0.01484914
v -0.20882766 0.02819184 -0.01102374
v -0.20328564 0.03527147 -0.00260871
v -0.20336173 0.03536620 0.00159880
v -0.20546693 0.03331368 0.00159880
v -0.20757214 0.03120431 0.00159880
v -0.20545425 0.03323789 0.00580632
v -0.20942372 0.02819184 -0.00681622
v -0.20754678 0.03116642 -0.00260871
v -0.20539085 0.03326947 -0.00260871
v -0.20748337 0.03113485 0.00580632
v -0.20715364 0.03080013 0.00894133
v -0.20475674 0.03259372 0.01042199
v -0.19194793 0.03534095 0.01674846
v -0.19490284 0.03486097 0.01652267
v -0.20036878 0.03117274 0.01669635
v -0.19624712 0.03263161 0.01711320
v -0.20255007 0.03038331 0.01638372
v -0.20649417 0.03009280 0.01174634
v -0.20345050 0.03132431 0.01422569
v -0.18352709 0.03578934 0.01689609
v -0.17931667 0.03563777 0.01684399
v -0.18773752 0.03572619 0.01689175
v -0.17510626 0.03534726 0.01673109
v -0.17090852 0.03499359 0.01657912
v -0.16758584 0.03470940 0.01644017
v -0.16478312 0.03445678 0.01630990
v -0.16248768 0.03419153 0.01618832
v -0.16639373 0.03631352 0.01524608
v -0.15827726 0.03367366 0.01592345
v -0.08351696 0.01977333 0.01436029
v -0.18773752 0.02819184 -0.02305575
v -0.17510626 0.02819184 -0.02250430
v -0.17931667 0.02819184 -0.02273443
v -0.18352709 0.02819184 -0.02291246
v -0.16248768 0.02720663 -0.02183127
v -0.16710392 0.02835604 -0.02190509
v -0.17090852 0.02819184 -0.02221772
v -0.08351696 0.01556723 -0.01800153
v -0.19194793 0.02398574 -0.02375917
v -0.19615835 0.02398574 -0.02361154
v -0.20036878 0.02398574 -0.02297325
v -0.20332367 0.02398574 -0.02200496
v -0.20635468 0.02143430 -0.02131890
v -0.20541621 0.02398574 -0.02057206
v -0.20783846 0.02398574 -0.01846613
v -0.21070460 0.02121957 -0.01662073
v -0.20994367 0.02382786 -0.01522257
v -0.21057777 0.02508463 -0.01102374
v -0.20958858 0.02819184 -0.00260871
v -0.20962662 0.02819184 0.00159880
v -0.21078069 0.02562145 -0.00681622
v -0.20943639 0.02819184 0.00580632
v -0.20821893 0.02848867 0.01021357
v -0.19194793 0.03239794 0.01786004
v -0.20036878 0.02819184 0.01765596
v -0.19615835 0.02819184 0.01856781
v -0.20753410 0.02728241 0.01327476
v -0.20629126 0.02545725 0.01607977
v -0.20329831 0.02819184 0.01669201
v -0.18352709 0.03239794 0.01810754
v -0.17931667 0.03239794 0.01800333
v -0.18773752 0.03239794 0.01811623
v -0.17510626 0.03239794 0.01781662
v -0.17090852 0.03239794 0.01754741
v -0.16639373 0.03279581 0.01705675
v -0.16248768 0.03208848 0.01700898
v -0.14744685 0.03035173 0.01635767
v -0.12730785 0.02592459 0.01627517
v -0.08351696 0.01654613 0.01597990
v -0.14464413 0.03002964 0.01622306
v -0.18773752 0.02398574 -0.02371141
v -0.16248768 0.02398574 -0.02245654
v -0.16669811 0.02398574 -0.02274312
v -0.17090852 0.02398574 -0.02299930
v -0.17931667 0.02398574 -0.02340312
v -0.17510626 0.02398574 -0.02322075
v -0.18352709 0.02398574 -0.02356378
v -0.15827726 0.02649298 -0.02164890
v -0.14663519 0.02228057 -0.02164022
v -0.08351696 0.01235898 -0.01859639
v -0.19194793 0.01977333 -0.02402839
v -0.19615835 0.01977333 -0.02394154
v -0.20036878 0.01977333 -0.02366365
v -0.20479478 0.01992490 -0.02252601
v -0.20716631 0.01863023 -0.02190943
v -0.20892911 0.01992490 -0.01945179
v -0.21103434 0.01841551 -0.01758902
v -0.21126260 0.01979859 -0.01522257
v -0.21100895 0.02231846 -0.01381572
v -0.21114846 0.02298158 -0.01102374
v -0.21081873 0.02579197 -0.00260871
v -0.21083141 0.02586144 0.00159880
v -0.21126260 0.02351840 -0.00681622
v -0.21074263 0.02546988 0.00580632
v -0.21042558 0.02399837 0.01020054
v -0.19194793 0.02819184 0.01904544
v -0.20036878 0.02398574 0.01864596
v -0.19615835 0.02398574 0.01946662
v -0.21081873 0.02152903 0.01172897
v -0.20821893 0.02402364 0.01449490
v -0.20705218 0.02265318 0.01653569
v -0.20475674 0.02402364 0.01714359
v -0.18352709 0.02819184 0.01917570
v -0.17931667 0.02819184 0.01907584
v -0.18773752 0.02819184 0.01921478
v -0.17510626 0.02819184 0.01891952
v -0.17090852 0.02819184 0.01871978
v -0.16669811 0.02819184 0.01848531
v -0.16248768 0.02819184 0.01821609
v -0.15827726 0.02819184 0.01791215
v -0.13011057 0.02624036 0.01640109
v -0.08351696 0.01444940 0.01660517
v -0.18773752 0.01977333 -0.02396760
v -0.14985642 0.01977333 -0.02217430
v -0.15406685 0.01977333 -0.02243049
v -0.15827726 0.01977333 -0.02267799
v -0.16248768 0.01977333 -0.02292115
v -0.16669811 0.01977333 -0.02315128
v -0.17090852 0.01977333 -0.02334667
v -0.17510626 0.01977333 -0.02351168
v -0.08351696 0.01136114 -0.01877442
v -0.14540505 0.02008279 -0.02183562
v -0.18773752 0.01556723 -0.02396760
v -0.19194793 0.01556723 -0.02402404
v -0.19615835 0.01556723 -0.02396326
v -0.20036878 0.01556723 -0.02375483
v -0.20457919 0.01556723 -0.02302970
v -0.20730582 0.01556723 -0.02200496
v -0.20941102 0.01556723 -0.01987298
v -0.21114846 0.01556723 -0.01776705
v -0.21174452 0.01556723 -0.01523125
v -0.21226449 0.01556723 -0.01102374
v -0.21178258 0.01977333 -0.01102374
v -0.21128797 0.02368260 -0.00260871
v -0.21119918 0.02336051 0.00580632
v -0.21127527 0.02375839 0.00159880
v -0.21194742 0.01977333 -0.00681622
v -0.21104701 0.02260266 0.00892396
v -0.19194793 0.02398574 0.01979228
v -0.20036878 0.01977333 0.01927991
v -0.20457919 0.01977333 0.01804675
v -0.19615835 0.01977333 0.01994860
v -0.21132600 0.01998806 0.01020054
v -0.21108506 0.01872496 0.01265384
v -0.20986758 0.01998806 0.01412582
v -0.21010854 0.01556723 0.01519832
v -0.20755946 0.01977333 0.01682228
v -0.18352709 0.02398574 0.01983136
v -0.18773752 0.02398574 0.01987913
v -0.17931667 0.02398574 0.01972281
v -0.17510626 0.02398574 0.01958386
v -0.17090852 0.02398574 0.01942755
v -0.16669811 0.02398574 0.01925386
v -0.16248768 0.02398574 0.01906281
v -0.15827726 0.02398574 0.01885004
v -0.15406685 0.02398574 0.01863294
v -0.14985642 0.02398574 0.01840280
v -0.08351696 0.01136114 0.01714359
v -0.17090852 0.01556723 -0.02340312
v -0.17510626 0.01556723 -0.02354641
v -0.17931667 0.01556723 -0.02368970
v -0.13836655 0.01809342 -0.02160983
v -0.13556383 0.01697558 -0.02151864
v -0.14565869 0.01556723 -0.02215693
v -0.14985642 0.01556723 -0.02239141
v -0.15827726 0.01556723 -0.02283864
v -0.16248768 0.01556723 -0.02305575
v -0.16669811 0.01556723 -0.02325115
v -0.08351696 0.00814656 -0.01893942
v -0.18773752 0.01136114 -0.02370707
v -0.18352709 0.01136114 -0.02357681
v -0.19194793 0.01136114 -0.02376352
v -0.19615835 0.01136114 -0.02371575
v -0.20036878 0.01136114 -0.02352470
v -0.20457919 0.01136114 -0.02267365
v -0.20698877 0.01136114 -0.02176614
v -0.21095823 0.00465411 -0.01741968
v -0.21108506 0.00715504 -0.01760205
v -0.21118652 0.01136114 -0.01778007
v -0.21190939 0.01136114 -0.01523125
v -0.21268299 0.00715504 -0.01102374
v -0.21249276 0.01136114 -0.01102374
v -0.21240398 0.01556723 -0.00681622
v -0.21178258 0.01977333 0.00580632
v -0.21194742 0.01977333 -0.00260871
v -0.21189670 0.01977333 0.00159880
v -0.19194793 0.01977333 0.02017439
v -0.20036878 0.01556723 0.01958386
v -0.20457919 0.01556723 0.01847662
v -0.19615835 0.01556723 0.02013965
v -0.21187133 0.01556723 0.01001383
v -0.21123724 0.01556723 0.01309674
v -0.21026073 0.01136114 0.01545016
v -0.20800333 0.01556723 0.01706109
v -0.18352709 0.01977333 0.02016136
v -0.17931667 0.01977333 0.02005715
v -0.18773752 0.01977333 0.02021781
v -0.17510626 0.01977333 0.01992689
v -0.17090852 0.01977333 0.01979228
v -0.16669811 0.01977333 0.01964900
v -0.16248768 0.01977333 0.01950136
v -0.15827726 0.01977333 0.01934939
v -0.15406685 0.01977333 0.01918873
v -0.14985642 0.01977333 0.01901939
v -0.08351696 0.00715504 0.01743886
v -0.17090852 0.01136114 -0.02315128
v -0.17510626 0.01136114 -0.02329457
v -0.17931667 0.01136114 -0.02343786
v -0.08351696 0.00715504 -0.01898718
v -0.16248768 0.01136114 -0.02282128
v -0.16669811 0.01136114 -0.02299930
v -0.13566528 0.00987069 -0.02152732
v -0.18773752 0.00715504 -0.02314259
v -0.19194793 0.00715504 -0.02320338
v -0.18352709 0.00715504 -0.02301667
v -0.17931667 0.00715504 -0.02288207
v -0.19615835 0.00715504 -0.02317299
v -0.20036878 0.00715504 -0.02288641
v -0.20446506 0.00747713 -0.02200930
v -0.20673513 0.00909388 -0.02158812
v -0.20900521 0.00313209 -0.01841403
v -0.21056509 0.00185005 -0.01688994
v -0.21124991 -0.00126347 -0.01404151
v -0.21147820 0.00313209 -0.01538757
v -0.21188403 0.00715504 -0.01523125
v -0.21263227 0.00294262 -0.01102374
v -0.21301271 0.00294262 -0.00681622
v -0.21284786 0.00715504 -0.00681622
v -0.21263227 0.01136114 -0.00681622
v -0.21249276 0.01136114 0.00159880
v -0.21218838 0.01556723 0.00580632
v -0.19194793 0.01556723 0.02030465
v -0.20036878 0.01136114 0.01960123
v -0.20457919 0.01136114 0.01857215
v -0.20815551 0.01136114 0.01713056
v -0.19615835 0.01136114 0.02009623
v -0.21241667 0.01136114 0.00580632
v -0.21208693 0.01136114 0.01001383
v -0.21133869 0.01136114 0.01334424
v -0.21010854 0.00715504 0.01537635
v -0.21135139 0.00715504 0.01327042
v -0.18352709 0.01556723 0.02026557
v -0.18773752 0.01556723 0.02033071
v -0.17931667 0.01556723 0.02016136
v -0.17510626 0.01556723 0.02003978
v -0.17090852 0.01556723 0.01991386
v -0.16248768 0.01556723 0.01965334
v -0.08351696 0.00294262 0.01730425
v -0.16248768 0.01136114 0.01966636
v -0.16669811 0.01136114 0.01978360
v -0.17090852 0.00715504 -0.02259549
v -0.17510626 0.00715504 -0.02274312
v -0.08351696 0.00394047 -0.01867455
v -0.13846800 0.00896758 -0.02158377
v -0.14144827 0.00637192 -0.02138404
v -0.14565869 0.00570880 -0.02146219
v -0.14857554 0.00527935 -0.02151864
v -0.18773752 0.00354259 -0.02214391
v -0.15406685 0.00482463 -0.02161417
v -0.16248768 0.00438255 -0.02176614
v -0.16669811 0.00418046 -0.02183996
v -0.17090852 0.00400362 -0.02190943
v -0.17510626 0.00385837 -0.02197456
v -0.17931667 0.00373837 -0.02203101
v -0.18352709 0.00363733 -0.02209180
v -0.19194793 0.00348575 -0.02217430
v -0.19615835 0.00353628 -0.02216127
v -0.15137826 0.00497620 -0.02156640
v -0.20036878 0.00399099 -0.02197891
v -0.20299394 0.00460359 -0.02172706
v -0.20579666 0.00628982 -0.02121469
v -0.20755946 -0.00126347 -0.01784521
v -0.20966468 -0.00126347 -0.01614744
v -0.21100895 -0.00363177 -0.01339019
v -0.21213765 -0.00126347 -0.01102374
v -0.21286053 -0.00126347 -0.00681622
v -0.21307613 -0.00126347 -0.00260871
v -0.21297467 0.00294262 -0.00260871
v -0.21278444 0.00715504 -0.00260871
v -0.19194793 0.01136114 0.02023952
v -0.20036878 0.00715504 0.01924518
v -0.20457919 0.00715504 0.01829859
v -0.20800333 0.00715504 0.01702201
v -0.19615835 0.00715504 0.01970544
v -0.21270835 0.00715504 0.00159880
v -0.21260688 0.00715504 0.00580632
v -0.21217571 0.00715504 0.01001383
v -0.21119918 0.00294262 0.01281450
v -0.21100895 0.00025855 0.01237594
v -0.20961395 0.00294262 0.01492043
v -0.20750873 0.00294262 0.01673977
v -0.21202351 0.00294262 0.01001383
v -0.18352709 0.01136114 0.02017873
v -0.17931667 0.01136114 0.02009189
v -0.17510626 0.01136114 0.01999636
v -0.18773752 0.01136114 0.02024821
v -0.17090852 0.01136114 0.01989215
v -0.08351696 -0.00126347 0.01683964
v -0.16669811 0.00715504 0.01947097
v -0.17090852 0.00715504 0.01956215
v -0.08351696 0.00294262 -0.01857469
v -0.13713639 0.00740134 -0.02133627
v -0.18773752 0.00143954 -0.02130153
v -0.17510626 0.00175532 -0.02120167
v -0.17931667 0.00163532 -0.02123640
v -0.08351696 -0.00300022 -0.01723731
v -0.17090852 0.00190057 -0.02115390
v -0.19194793 0.00138271 -0.02131890
v -0.19615835 0.00143323 -0.02129285
v -0.08351696 0.00001225 -0.01797981
v -0.08351696 -0.00089086 -0.01778876
v -0.20036878 0.00188794 -0.02110614
v -0.20457919 -0.00126347 -0.01888732
v -0.20677318 -0.00344862 -0.01737626
v -0.20446506 0.00310051 -0.02064588
v -0.20844719 -0.00494539 -0.01495336
v -0.20730582 -0.00805259 -0.01370717
v -0.21010854 -0.00644215 -0.01180966
v -0.21092019 -0.00762946 -0.00900465
v -0.21126260 -0.00521064 -0.01065466
v -0.21201084 -0.00546957 -0.00681622
v -0.21239131 -0.00546957 -0.00260871
v -0.21231522 -0.00546957 0.00159880
v -0.21297467 -0.00126347 0.00159880
v -0.21288589 0.00294262 0.00159880
v -0.19194793 0.00715504 0.01984005
v -0.20036878 0.00294262 0.01844188
v -0.20457919 0.00294262 0.01763859
v -0.20702682 0.00039118 0.01649662
v -0.19615835 0.00294262 0.01885438
v -0.21268299 0.00294262 0.00580632
v -0.21065387 -0.00254551 0.01163344
v -0.20884034 -0.00108033 0.01413885
v -0.21145284 -0.00118769 0.01014409
v -0.21251812 -0.00126347 0.00580632
v -0.18352709 0.00715504 0.01978794
v -0.17510626 0.00715504 0.01964031
v -0.18773752 0.00715504 0.01984873
v -0.08351696 -0.00379597 0.01643583
v -0.18773752 -0.00126347 -0.02003364
v -0.19194793 -0.00126347 -0.02008574
v -0.12040886 -0.00400438 -0.01764113
v -0.12461928 -0.00407385 -0.01768455
v -0.17510626 -0.00126347 -0.01983824
v -0.17931667 -0.00126347 -0.01990771
v -0.11198802 -0.00381492 -0.01753692
v -0.08351696 -0.00488855 -0.01644270
v -0.19615835 -0.00126347 -0.02005969
v -0.20036878 -0.00126347 -0.01972100
v -0.20457919 -0.00402333 -0.01765850
v -0.20457919 -0.00613269 -0.01643836
v -0.20873889 -0.00855783 -0.01065466
v -0.20457919 -0.00856415 -0.01433678
v -0.20431287 -0.01071140 -0.01069808
v -0.20554302 -0.01148820 -0.00801031
v -0.20696341 -0.01195555 -0.00520530
v -0.21111040 -0.00794523 -0.00681622
v -0.21128797 -0.00824206 -0.00260871
v -0.21126260 -0.00818522 0.00159880
v -0.21109773 -0.00793260 0.00471645
v -0.21160501 -0.00571587 0.00599303
v -0.19194793 0.00294262 0.01898031
v -0.18773752 0.00294262 0.01900202
v -0.20457919 -0.00041720 0.01678319
v -0.20049559 -0.00157925 0.01704806
v -0.20783846 -0.00464225 0.01308805
v -0.20457919 -0.00252656 0.01595385
v -0.19615835 -0.00126347 0.01755175
v -0.20930957 -0.00596218 0.01041765
v -0.21118652 -0.00447173 0.00882843
v -0.21076801 -0.00728211 0.00752145
v -0.18352709 0.00294262 0.01897162
v -0.17931667 0.00294262 0.01893689
v -0.17510626 0.00294262 0.01889781
v -0.17090852 0.00294262 0.01885004
v -0.16248768 0.00294262 0.01874583
v -0.12040886 -0.00407385 0.01660083
v -0.08351696 -0.00589902 0.01582359
v -0.15406685 -0.00126347 0.01760820
v -0.15827726 -0.00450331 -0.01795376
v -0.17931667 -0.00474329 -0.01811442
v -0.19194793 -0.00487592 -0.01820995
v -0.13725053 -0.00424437 -0.01778876
v -0.14144827 -0.00429489 -0.01782350
v -0.14985642 -0.00440226 -0.01788863
v -0.19615835 -0.00489486 -0.01820560
v -0.08351696 -0.00546957 -0.01619520
v -0.12040886 -0.00610743 -0.01651652
v -0.12461928 -0.00618322 -0.01654257
v -0.20036878 -0.00473066 -0.01805363
v -0.20036878 -0.00683371 -0.01685955
v -0.20036878 -0.00894307 -0.01475362
v -0.20036878 -0.01104612 -0.01156216
v -0.20274030 -0.01185450 -0.00907413
v -0.20431287 -0.01229027 -0.00669030
v -0.20036878 -0.01409017 -0.00260871
v -0.20457919 -0.01302286 -0.00260871
v -0.20714095 -0.01205660 -0.00260871
v -0.20924617 -0.01035142 -0.00260871
v -0.20918276 -0.01028827 0.00159880
v -0.20688732 -0.01191134 0.00404342
v -0.20882766 -0.00966304 0.00578026
v -0.19194793 -0.00126347 0.01766899
v -0.18773752 -0.00126347 0.01769938
v -0.18352709 -0.00126347 0.01770372
v -0.17510626 -0.00126347 0.01769504
v -0.17090852 -0.00126347 0.01768635
v -0.16669811 -0.00126347 0.01767333
v -0.16248768 -0.00126347 0.01765596
v -0.15827726 -0.00126347 0.01763425
v -0.20199207 -0.00319600 0.01626214
v -0.19918935 -0.00361914 0.01645319
v -0.20639271 -0.00744631 0.01200686
v -0.20482015 -0.00581692 0.01373937
v -0.19615835 -0.00384018 0.01655306
v -0.20796529 -0.00858941 0.00920185
v -0.12461928 -0.00408648 0.01661385
v -0.08351696 -0.00679582 0.01532424
v -0.13304011 -0.00408017 0.01662254
v -0.14144827 -0.00406754 0.01662688
v -0.12040886 -0.00618322 0.01568464
v -0.12882969 -0.00624006 -0.01656863
v -0.14144827 -0.00640426 -0.01664678
v -0.16669811 -0.00670740 -0.01680310
v -0.17510626 -0.00680213 -0.01685086
v -0.18352709 -0.00689686 -0.01689428
v -0.19194793 -0.00698528 -0.01692902
v -0.19615835 -0.00700423 -0.01693771
v -0.14985642 -0.00650531 -0.01669889
v -0.08351696 -0.00809680 -0.01466243
v -0.08351696 -0.00890518 -0.01418914
v -0.19615835 -0.00906938 -0.01483178
v -0.19615835 -0.01117243 -0.01193124
v -0.19615835 -0.01221448 -0.00982966
v -0.20036878 -0.01203134 -0.00945623
v -0.20036878 -0.01311760 -0.00681622
v -0.19615835 -0.01455120 -0.00260871
v -0.19615835 -0.01465857 0.00159880
v -0.20036878 -0.01414702 0.00159880
v -0.20457919 -0.01299760 0.00159880
v -0.20709022 -0.01202502 0.00159880
v -0.20418605 -0.01223974 0.00558921
v -0.20532743 -0.01139979 0.00684843
v -0.19194793 -0.00396018 0.01660951
v -0.18773752 -0.00400438 0.01663122
v -0.18352709 -0.00401701 0.01663122
v -0.17090852 -0.00402965 0.01663122
v -0.20049559 -0.00520432 0.01526345
v -0.19615835 -0.00594323 0.01534595
v -0.20445238 -0.00969461 0.00997475
v -0.20357732 -0.00799576 0.01251055
v -0.19194793 -0.00606954 0.01543280
v -0.08351696 -0.00997881 0.01348753
v -0.12461928 -0.00619585 0.01567161
v -0.11619843 -0.00908201 -0.01438454
v -0.08351696 -0.01050931 -0.01284743
v -0.08351696 -0.01100823 -0.01242624
v -0.14985642 -0.00923359 -0.01459296
v -0.15406685 -0.00924622 -0.01461901
v -0.19194793 -0.00909465 -0.01482309
v -0.15827726 -0.00923990 -0.01464507
v -0.16248768 -0.00922727 -0.01467112
v -0.17090852 -0.00919569 -0.01472322
v -0.17931667 -0.00916412 -0.01476665
v -0.18352709 -0.00914517 -0.01478836
v -0.15406685 -0.01134926 -0.01254348
v -0.15827726 -0.01134926 -0.01250874
v -0.16248768 -0.01133032 -0.01246098
v -0.16669811 -0.01131769 -0.01240453
v -0.17510626 -0.01128611 -0.01228729
v -0.17931667 -0.01126716 -0.01223085
v -0.18352709 -0.01124822 -0.01216572
v -0.18773752 -0.01122296 -0.01210058
v -0.19194793 -0.01119769 -0.01203111
v -0.19194793 -0.01227764 -0.00992952
v -0.17931667 -0.01241026 -0.01012492
v -0.19615835 -0.01352810 -0.00681622
v -0.19194793 -0.01365441 -0.00681622
v -0.19194793 -0.01468383 -0.00260871
v -0.19194793 -0.01480382 0.00159880
v -0.19194793 -0.01381230 0.00580632
v -0.19615835 -0.01364178 0.00580632
v -0.20036878 -0.01313023 0.00580632
v -0.20252471 -0.01180398 0.00793830
v -0.18773752 -0.00610743 0.01547187
v -0.18352709 -0.00612006 0.01549359
v -0.17510626 -0.00612638 0.01553267
v -0.17090852 -0.00613269 0.01555003
v -0.16248768 -0.00614532 0.01557608
v -0.14985642 -0.00615796 0.01561516
v -0.13725053 -0.00617690 0.01564556
v -0.20036878 -0.00844415 0.01294042
v -0.19615835 -0.00875361 0.01324002
v -0.20036878 -0.01055352 0.01038291
v -0.19194793 -0.00884203 0.01333121
v -0.18773752 -0.00888624 0.01336595
v -0.08351696 -0.01112823 0.01259305
v -0.14144827 -0.00929043 0.01353095
v -0.08351696 -0.01264394 -0.01081966
v -0.11198802 -0.01116612 -0.01252177
v -0.11619843 -0.01118506 -0.01253914
v -0.12040886 -0.01121032 -0.01254782
v -0.12461928 -0.01122927 -0.01255216
v -0.13304011 -0.01126716 -0.01255651
v -0.14565869 -0.01131769 -0.01256085
v -0.14985642 -0.01133663 -0.01255651
v -0.08351696 -0.01314285 -0.01032031
v -0.11198802 -0.01301023 -0.01041584
v -0.08351696 -0.01474698 -0.00813623
v -0.08351696 -0.01524591 -0.00743715
v -0.14985642 -0.01271340 -0.01045058
v -0.15406685 -0.01266920 -0.01043755
v -0.15827726 -0.01262499 -0.01040716
v -0.16248768 -0.01258078 -0.01035505
v -0.17510626 -0.01245447 -0.01018571
v -0.16248768 -0.01422911 -0.00681622
v -0.17090852 -0.01406491 -0.00681622
v -0.14144827 -0.01462068 -0.00681622
v -0.14565869 -0.01454489 -0.00681622
v -0.14985642 -0.01446910 -0.00681622
v -0.10980671 -0.01599113 -0.00469727
v -0.11619843 -0.01594061 -0.00417622
v -0.17931667 -0.01493013 -0.00260871
v -0.13163241 -0.01601008 -0.00065041
v -0.17090852 -0.01524591 0.00159880
v -0.13160705 -0.01601008 0.00374815
v -0.18773752 -0.01392597 0.00580632
v -0.08529243 -0.01601639 0.00793830
v -0.19194793 -0.01231553 0.00883712
v -0.19615835 -0.01222711 0.00869817
v -0.20036878 -0.01198713 0.00827698
v -0.17931667 -0.00896202 0.01340937
v -0.17090852 -0.00903781 0.01344411
v -0.16669811 -0.00907570 0.01346147
v -0.16248768 -0.00911359 0.01347450
v -0.15406685 -0.00918306 0.01350055
v -0.14985642 -0.00922096 0.01350924
v -0.19615835 -0.01086297 0.01080410
v -0.19194793 -0.01094508 0.01094304
v -0.18773752 -0.01098928 0.01102554
v -0.18352709 -0.01102718 0.01110804
v -0.17510626 -0.01110928 0.01125568
v -0.17090852 -0.01114717 0.01132515
v -0.16248768 -0.01121664 0.01145541
v -0.15827726 -0.01125453 0.01151620
v -0.14985642 -0.01132400 0.01162910
v -0.14565869 -0.01136190 0.01168120
v -0.14144827 -0.01139347 0.01173331
v -0.13725053 -0.01142505 0.01177239
v -0.08406228 -0.01175346 0.01209371
v -0.08351696 -0.01240395 0.01149884
v -0.08351696 -0.01623743 -0.00533556
v -0.12040886 -0.01497434 -0.00681622
v -0.10699131 -0.01601639 -0.00477543
v -0.08351696 -0.01662899 -0.00322529
v -0.08351696 -0.01673635 -0.00260871
v -0.16669811 -0.01517012 -0.00260871
v -0.08351696 -0.01695739 0.00060446
v -0.08351696 -0.01702055 0.00159880
v -0.08351696 -0.01667951 0.00481197
v -0.08351696 -0.01655321 0.00589316
v -0.08351696 -0.01604797 0.00798172
v -0.08351696 -0.01367336 0.01028738
f 1 2 3
f 1 3 4
f 1 4 5
f 1 5 6
f 1 6 7
f 1 7 8
f 1 8 2
f 2 9 3
f 2 8 10
f 2 10 11
f 2 11 12
f 2 12 13
f 2 13 14
f 2 14 15
f 2 15 9
f 3 9 4
f 4 9 16
f 4 16 17
f 4 17 5
f 5 18 6
f 5 17 19
f 5 19 20
f 5 20 18
f 6 21 22
f 6 22 7
f 6 18 23
f 6 23 21
f 7 24 10
f 7 10 8
f 7 22 24
f 9 25 16
f 9 15 26
f 9 26 25
f 10 24 11
f 11 24 27
f 11 27 12
f 12 28 13
f 12 27 29
f 12 29 30
f 12 30 31
f 12 31 28
f 13 28 32
f 13 32 33
f 13 33 34
f 13 34 35
f 13 35 14
f 14 36 15
f 14 35 37
f 14 37 36
f 15 36 26
f 16 25 38
f 16 38 39
f 16 39 17
f 17 39 40
f 17 40 41
f 17 41 42
f 17 42 43
f 17 43 19
f 18 44 23
f 18 20 44
f 19 43 20
f 20 43 45
f 20 45 44
f 21 23 46
f 21 46 22
f 22 46 47
f 22 47 48
f 22 48 49
f 22 49 29
f 22 29 27
f 22 27 24
f 23 44 50
f 23 50 46
f 25 51 38
f 25 26 52
f 25 52 51
f 26 36 53
f 26 53 52
f 28 31 54
f 28 54 32
f 29 49 55
f 29 55 56
f 29 56 30
f 30 56 87
f 30 87 112
f 30 112 111
f 30 111 151
f 30 151 193
f 30 193 251
f 30 251 290
f 30 290 333
f 30 333 379
f 30 379 426
f 30 426 469
f 30 469 519
f 30 519 560
f 30 560 599
f 30 599 639
f 30 639 674
f 30 674 718
f 30 718 772
f 30 772 784
f 30 784 783
f 30 783 782
f 30 782 781
f 30 781 780
f 30 780 779
f 30 779 777
f 30 777 776
f 30 776 773
f 30 773 731
f 30 731 730
f 30 730 728
f 30 728 720
f 30 720 678
f 30 678 677
f 30 677 652
f 30 652 651
f 30 651 608
f 30 608 568
f 30 568 527
f 30 527 532
f 30 532 531
f 30 531 522
f 30 522 474
f 30 474 430
f 30 430 390
f 30 390 342
f 30 342 301
f 30 301 259
f 30 259 211
f 30 211 210
f 30 210 204
f 30 204 203
f 30 203 202
f 30 202 164
f 30 164 125
f 30 125 123
f 30 123 89
f 30 89 88
f 30 88 57
f 30 57 54
f 30 54 31
f 32 54 33
f 33 54 57
f 33 57 34
f 34 58 59
f 34 59 35
f 34 57 60
f 34 60 58
f 35 59 37
f 36 37 61
f 36 61 53
f 37 59 61
f 38 51 62
f 38 62 63
f 38 63 39
f 39 63 64
f 39 64 65
f 39 65 40
f 40 65 41
f 41 65 66
f 41 66 67
f 41 67 42
f 42 68 43
f 42 67 69
f 42 69 70
f 42 70 68
f 43 68 45
f 44 45 71
f 44 71 50
f 45 68 72
f 45 72 71
f 46 73 74
f 46 74 47
f 46 50 75
f 46 75 73
f 47 74 76
f 47 76 48
f 48 76 77
f 48 77 78
f 48 78 49
f 49 78 79
f 49 79 80
f 49 80 81
f 49 81 55
f 50 71 82
f 50 82 75
f 51 52 83
f 51 83 84
f 51 84 62
f 52 53 85
f 52 85 83
f 53 61 86
f 53 86 85
f 55 81 87
f 55 87 56
f 57 88 59
f 57 59 60
f 58 60 59
f 59 88 89
f 59 89 90
f 59 90 91
f 59 91 92
f 59 92 61
f 61 92 93
f 61 93 94
f 61 94 86
f 62 84 95
f 62 95 63
f 63 95 64
f 64 95 96
f 64 96 65
f 65 96 97
f 65 97 66
f 66 97 98
f 66 98 67
f 67 99 69
f 67 98 100
f 67 100 101
f 67 101 99
f 68 70 102
f 68 102 72
f 69 99 103
f 69 103 70
f 70 103 102
f 71 72 104
f 71 104 82
f 72 105 104
f 72 102 105
f 73 75 106
f 73 106 107
f 73 107 74
f 74 108 76
f 74 107 108
f 75 82 106
f 76 108 77
f 77 109 78
f 77 108 110
f 77 110 109
f 78 109 111
f 78 111 79
f 79 111 112
f 79 112 87
f 79 87 80
f 80 87 81
f 82 104 113
f 82 113 106
f 83 85 114
f 83 114 115
f 83 115 116
f 83 116 84
f 84 117 95
f 84 116 117
f 85 86 118
f 85 118 114
f 86 119 118
f 86 94 120
f 86 120 121
f 86 121 122
f 86 122 119
f 89 123 92
f 89 92 91
f 89 91 90
f 92 124 93
f 92 123 125
f 92 125 124
f 93 124 120
f 93 120 94
f 95 126 127
f 95 127 128
f 95 128 96
f 95 117 126
f 96 128 97
f 97 129 98
f 97 128 129
f 98 129 130
f 98 130 131
f 98 131 132
f 98 132 100
f 99 101 133
f 99 133 134
f 99 134 103
f 100 132 135
f 100 135 136
f 100 136 101
f 101 136 133
f 102 103 137
f 102 137 138
f 102 138 139
f 102 139 105
f 103 134 137
f 104 140 113
f 104 105 141
f 104 141 142
f 104 142 140
f 105 139 141
f 106 143 107
f 106 113 144
f 106 144 143
f 107 143 145
f 107 145 146
f 107 146 108
f 108 146 147
f 108 147 110
f 109 110 148
f 109 148 149
f 109 149 150
f 109 150 151
f 109 151 111
f 110 147 148
f 113 140 144
f 114 118 152
f 114 152 153
f 114 153 115
f 115 153 154
f 115 154 117
f 115 117 116
f 117 155 126
f 117 154 155
f 118 119 152
f 119 122 156
f 119 156 157
f 119 157 158
f 119 158 152
f 120 159 121
f 120 124 160
f 120 160 159
f 121 161 122
f 121 159 162
f 121 162 163
f 121 163 161
f 122 161 156
f 124 125 164
f 124 164 160
f 126 155 165
f 126 165 166
f 126 166 127
f 127 166 167
f 127 167 128
f 128 167 168
f 128 168 130
f 128 130 129
f 130 168 169
f 130 169 170
f 130 170 171
f 130 171 172
f 130 172 131
f 131 172 173
f 131 173 132
f 132 173 174
f 132 174 135
f 133 136 180
f 133 180 175
f 133 175 176
f 133 176 134
f 134 176 177
f 134 177 137
f 135 174 178
f 135 178 179
f 135 179 180
f 135 180 136
f 137 177 181
f 137 181 138
f 138 181 139
f 139 182 141
f 139 181 182
f 140 183 144
f 140 142 184
f 140 184 183
f 141 182 185
f 141 185 186
f 141 186 142
f 142 186 184
f 143 187 145
f 143 144 188
f 143 188 187
f 144 183 188
f 145 187 189
f 145 189 146
f 146 190 191
f 146 191 147
f 146 189 190
f 147 191 192
f 147 192 148
f 148 192 193
f 148 193 149
f 149 193 151
f 149 151 150
f 152 158 194
f 152 194 153
f 153 194 155
f 153 155 154
f 155 195 165
f 155 194 195
f 156 196 197
f 156 197 157
f 156 161 198
f 156 198 196
f 157 197 199
f 157 199 158
f 158 199 200
f 158 200 194
f 159 160 201
f 159 201 162
f 160 164 202
f 160 202 203
f 160 203 204
f 160 204 205
f 160 205 206
f 160 206 201
f 161 207 208
f 161 208 209
f 161 209 198
f 161 163 210
f 161 210 211
f 161 211 207
f 162 201 206
f 162 206 212
f 162 212 204
f 162 204 163
f 163 204 210
f 165 195 213
f 165 213 166
f 166 214 169
f 166 169 167
f 166 213 214
f 167 169 168
f 169 215 216
f 169 216 170
f 169 214 215
f 170 216 172
f 170 172 171
f 172 216 217
f 172 217 218
f 172 218 219
f 172 219 220
f 172 220 173
f 173 220 174
f 174 219 221
f 174 221 222
f 174 222 178
f 174 220 219
f 175 180 223
f 175 223 176
f 176 223 224
f 176 224 177
f 177 224 225
f 177 225 226
f 177 226 227
f 177 227 181
f 178 222 179
f 179 222 228
f 179 228 229
f 179 229 230
f 179 230 180
f 180 230 223
f 181 227 231
f 181 231 232
f 181 232 233
f 181 233 185
f 181 185 182
f 183 234 188
f 183 184 235
f 183 235 234
f 184 236 237
f 184 237 235
f 184 186 238
f 184 238 236
f 185 233 239
f 185 239 240
f 185 240 238
f 185 238 186
f 187 241 242
f 187 242 189
f 187 188 243
f 187 243 241
f 188 234 243
f 189 242 244
f 189 244 245
f 189 245 190
f 190 245 246
f 190 246 247
f 190 247 191
f 191 247 248
f 191 248 249
f 191 249 192
f 192 249 248
f 192 248 250
f 192 250 193
f 193 250 248
f 193 248 251
f 194 200 195
f 195 252 213
f 195 200 252
f 196 198 209
f 196 209 253
f 196 253 197
f 197 253 254
f 197 254 199
f 199 254 255
f 199 255 252
f 199 252 200
f 204 212 205
f 205 212 206
f 207 256 208
f 207 211 256
f 208 256 257
f 208 257 209
f 209 257 258
f 209 258 253
f 211 259 256
f 213 252 260
f 213 260 261
f 213 261 214
f 214 261 262
f 214 262 215
f 215 262 263
f 215 263 216
f 216 263 264
f 216 264 265
f 216 265 218
f 216 218 217
f 218 265 264
f 218 264 266
f 218 266 267
f 218 267 268
f 218 268 221
f 218 221 219
f 221 268 222
f 222 268 269
f 222 269 228
f 223 230 224
f 224 230 225
f 225 230 229
f 225 229 226
f 226 231 227
f 226 229 270
f 226 270 271
f 226 271 231
f 228 269 272
f 228 272 270
f 228 270 229
f 231 271 273
f 231 273 232
f 232 273 274
f 232 274 239
f 232 239 233
f 234 275 243
f 234 235 275
f 235 237 275
f 236 276 277
f 236 277 237
f 236 238 276
f 237 277 275
f 238 240 239
f 238 239 278
f 238 278 279
f 238 279 280
f 238 280 276
f 239 274 278
f 241 281 282
f 241 282 242
f 241 243 283
f 241 283 281
f 242 282 284
f 242 284 244
f 243 275 283
f 244 284 285
f 244 285 245
f 245 285 246
f 246 285 286
f 246 286 287
f 246 287 247
f 247 287 288
f 247 288 289
f 247 289 290
f 247 290 291
f 247 291 248
f 248 291 290
f 248 290 251
f 252 292 260
f 252 255 292
f 253 258 293
f 253 293 294
f 253 294 295
f 253 295 254
f 254 296 255
f 254 295 297
f 254 297 296
f 255 296 298
f 255 298 292
f 256 293 258
f 256 258 257
f 256 259 299
f 256 299 300
f 256 300 293
f 259 301 300
f 259 300 299
f 260 292 302
f 260 302 303
f 260 303 261
f 261 303 304
f 261 304 262
f 262 304 305
f 262 305 263
f 263 305 306
f 263 306 264
f 264 306 307
f 264 307 266
f 266 307 267
f 267 269 268
f 267 307 308
f 267 308 309
f 267 309 310
f 267 310 269
f 269 310 311
f 269 311 272
f 270 272 312
f 270 312 313
f 270 313 271
f 271 313 273
f 272 311 314
f 272 314 312
f 273 313 315
f 273 315 316
f 273 316 274
f 274 316 278
f 275 317 283
f 275 277 317
f 276 318 277
f 276 280 318
f 277 318 319
f 277 319 317
f 278 316 320
f 278 320 321
f 278 321 279
f 279 321 322
f 279 322 280
f 280 322 323
f 280 323 318
f 281 324 325
f 281 325 282
f 281 283 326
f 281 326 324
f 282 325 327
f 282 327 284
f 283 317 326
f 284 327 328
f 284 328 329
f 284 329 330
f 284 330 285
f 285 287 286
f 285 330 331
f 285 331 290
f 285 290 287
f 287 290 332
f 287 332 288
f 288 332 289
f 289 332 290
f 290 331 333
f 292 334 302
f 292 298 334
f 293 300 294
f 294 300 335
f 294 335 336
f 294 336 295
f 295 336 337
f 295 337 338
f 295 338 339
f 295 339 297
f 296 297 340
f 296 340 341
f 296 341 298
f 297 339 340
f 298 341 334
f 300 301 342
f 300 342 343
f 300 343 335
f 302 334 344
f 302 344 345
f 302 345 346
f 302 346 303
f 303 346 347
f 303 347 304
f 304 347 348
f 304 348 305
f 305 348 306
f 306 348 349
f 306 349 350
f 306 350 308
f 306 308 307
f 308 350 351
f 308 351 352
f 308 352 309
f 309 352 353
f 309 353 354
f 309 354 310
f 310 354 311
f 311 354 314
f 312 314 355
f 312 355 313
f 313 356 315
f 313 355 357
f 313 357 356
f 314 354 358
f 314 358 355
f 315 356 359
f 315 359 316
f 316 359 320
f 317 360 326
f 317 319 360
f 318 361 319
f 318 323 362
f 318 362 361
f 319 361 363
f 319 363 360
f 320 359 364
f 320 364 365
f 320 365 366
f 320 366 321
f 321 366 322
f 322 366 367
f 322 367 368
f 322 368 362
f 322 362 323
f 324 369 325
f 324 326 370
f 324 370 369
f 325 369 371
f 325 371 372
f 325 372 327
f 326 360 370
f 327 372 373
f 327 373 374
f 327 374 375
f 327 375 328
f 328 375 376
f 328 376 377
f 328 377 378
f 328 378 329
f 329 378 333
f 329 333 330
f 330 333 331
f 333 378 377
f 333 377 379
f 334 341 389
f 334 389 380
f 334 380 381
f 334 381 382
f 334 382 344
f 335 343 342
f 335 342 383
f 335 383 336
f 336 383 384
f 336 384 337
f 337 384 338
f 338 384 385
f 338 385 386
f 338 386 339
f 339 387 388
f 339 388 389
f 339 389 340
f 339 386 387
f 340 389 341
f 342 390 384
f 342 384 383
f 344 391 393
f 344 393 345
f 344 382 429
f 344 429 392
f 344 392 391
f 345 393 394
f 345 394 346
f 346 394 395
f 346 395 347
f 347 395 348
f 348 396 349
f 348 395 396
f 349 396 397
f 349 397 398
f 349 398 399
f 349 399 350
f 350 399 400
f 350 400 351
f 351 400 401
f 351 401 352
f 352 401 402
f 352 402 403
f 352 403 353
f 353 403 450
f 353 450 404
f 353 404 358
f 353 358 354
f 355 358 357
f 356 357 405
f 356 405 359
f 357 358 406
f 357 406 407
f 357 407 405
f 358 404 406
f 359 405 364
f 360 408 370
f 360 363 408
f 361 409 363
f 361 362 410
f 361 410 409
f 362 368 410
f 363 409 411
f 363 411 408
f 364 405 412
f 364 412 365
f 365 413 367
f 365 367 366
f 365 412 413
f 367 413 414
f 367 414 415
f 367 415 368
f 368 415 410
f 369 416 417
f 369 417 371
f 369 370 418
f 369 418 416
f 370 408 418
f 371 417 419
f 371 419 420
f 371 420 372
f 372 420 421
f 372 421 422
f 372 422 423
f 372 423 373
f 373 423 424
f 373 424 425
f 373 425 374
f 374 425 379
f 374 379 375
f 375 379 376
f 376 379 377
f 379 425 424
f 379 424 423
f 379 423 426
f 380 389 432
f 380 432 427
f 380 427 428
f 380 428 381
f 381 428 429
f 381 429 382
f 384 390 430
f 384 430 385
f 385 430 386
f 386 430 387
f 387 430 388
f 388 430 389
f 389 431 432
f 389 430 433
f 389 433 431
f 391 434 435
f 391 435 393
f 391 392 436
f 391 436 434
f 392 429 473
f 392 473 437
f 392 437 436
f 393 435 438
f 393 438 394
f 394 438 395
f 395 438 439
f 395 439 396
f 396 440 441
f 396 441 397
f 396 439 440
f 397 441 398
f 398 442 443
f 398 443 444
f 398 444 445
f 398 445 446
f 398 446 399
f 398 441 442
f 399 446 400
f 400 446 401
f 401 446 402
f 402 447 448
f 402 448 449
f 402 449 403
f 402 446 447
f 403 449 450
f 404 451 452
f 404 452 407
f 404 407 406
f 404 450 451
f 405 407 452
f 405 452 412
f 408 453 418
f 408 411 453
f 409 454 411
f 409 410 455
f 409 455 454
f 410 415 456
f 410 456 455
f 411 454 457
f 411 457 453
f 412 452 458
f 412 458 459
f 412 459 413
f 413 459 460
f 413 460 414
f 414 461 456
f 414 456 415
f 414 460 462
f 414 462 461
f 416 463 465
f 416 465 417
f 416 418 464
f 416 464 463
f 417 465 466
f 417 466 467
f 417 467 468
f 417 468 419
f 418 453 464
f 419 468 426
f 419 426 420
f 420 426 421
f 421 426 422
f 422 426 423
f 426 468 467
f 426 467 466
f 426 466 465
f 426 465 470
f 426 470 471
f 426 471 469
f 427 472 473
f 427 473 428
f 427 432 472
f 428 473 429
f 430 474 475
f 430 475 433
f 431 433 475
f 431 475 432
f 432 475 476
f 432 476 477
f 432 477 478
f 432 478 472
f 434 479 435
f 434 436 480
f 434 480 481
f 434 481 482
f 434 482 483
f 434 483 484
f 434 484 485
f 434 485 486
f 434 486 479
f 435 479 487
f 435 487 488
f 435 488 438
f 436 437 489
f 436 489 480
f 437 473 489
f 438 488 439
f 439 488 490
f 439 490 491
f 439 491 440
f 440 491 492
f 440 492 441
f 441 492 493
f 441 493 442
f 442 493 443
f 443 493 494
f 443 494 495
f 443 495 444
f 444 495 496
f 444 496 445
f 445 496 447
f 445 447 446
f 447 497 448
f 447 496 497
f 448 498 499
f 448 499 449
f 448 497 498
f 449 499 500
f 449 500 450
f 450 500 451
f 451 458 452
f 451 500 506
f 451 506 458
f 453 501 464
f 453 457 501
f 454 502 457
f 454 455 503
f 454 503 502
f 455 456 504
f 455 504 503
f 456 461 504
f 457 502 505
f 457 505 501
f 458 506 507
f 458 507 459
f 459 508 460
f 459 507 508
f 460 508 462
f 461 462 509
f 461 509 510
f 461 510 511
f 461 511 512
f 461 512 504
f 462 508 513
f 462 513 509
f 463 514 515
f 463 515 516
f 463 516 465
f 463 464 517
f 463 517 514
f 464 501 517
f 465 516 518
f 465 518 471
f 465 471 470
f 469 471 518
f 469 518 516
f 469 516 515
f 469 515 520
f 469 520 521
f 469 521 519
f 472 478 473
f 473 478 489
f 474 522 475
f 475 522 523
f 475 523 476
f 476 523 522
f 476 522 477
f 477 522 478
f 478 522 489
f 479 524 487
f 479 486 525
f 479 525 526
f 479 526 524
f 480 489 527
f 480 527 481
f 481 527 482
f 482 527 483
f 483 527 484
f 484 528 525
f 484 525 485
f 484 527 528
f 485 525 486
f 487 524 529
f 487 529 488
f 488 530 490
f 488 529 530
f 489 522 531
f 489 531 532
f 489 532 527
f 490 530 533
f 490 533 491
f 491 534 535
f 491 535 536
f 491 536 492
f 491 533 534
f 492 536 493
f 493 536 535
f 493 535 494
f 494 535 537
f 494 537 495
f 495 537 538
f 495 538 539
f 495 539 540
f 495 540 541
f 495 541 496
f 496 541 542
f 496 542 497
f 497 542 543
f 497 543 498
f 498 543 544
f 498 544 545
f 498 545 546
f 498 546 499
f 499 546 506
f 499 506 500
f 501 547 559
f 501 559 517
f 501 505 547
f 502 548 505
f 502 503 549
f 502 549 548
f 503 504 512
f 503 512 550
f 503 550 549
f 505 548 551
f 505 551 547
f 506 546 507
f 507 546 545
f 507 545 552
f 507 552 508
f 508 552 513
f 509 513 510
f 510 553 554
f 510 554 511
f 510 513 555
f 510 555 553
f 511 554 550
f 511 550 512
f 513 552 556
f 513 556 555
f 514 557 558
f 514 558 521
f 514 521 515
f 514 517 557
f 515 521 520
f 517 559 557
f 519 521 558
f 519 558 557
f 519 557 560
f 524 561 562
f 524 562 529
f 524 526 563
f 524 563 564
f 524 564 565
f 524 565 566
f 524 566 561
f 525 528 527
f 525 527 567
f 525 567 563
f 525 563 526
f 527 568 567
f 529 562 569
f 529 569 530
f 530 569 570
f 530 570 533
f 533 570 534
f 534 570 571
f 534 571 535
f 535 538 537
f 535 571 572
f 535 572 538
f 538 573 540
f 538 540 539
f 538 572 574
f 538 574 575
f 538 575 576
f 538 576 577
f 538 577 573
f 540 578 542
f 540 542 541
f 540 573 577
f 540 577 578
f 542 578 543
f 543 579 580
f 543 580 544
f 543 578 579
f 544 556 545
f 544 580 581
f 544 581 582
f 544 582 556
f 545 556 552
f 547 583 584
f 547 584 559
f 547 551 583
f 548 549 585
f 548 585 586
f 548 586 551
f 549 550 585
f 550 554 587
f 550 587 588
f 550 588 585
f 551 586 589
f 551 589 583
f 553 590 587
f 553 587 554
f 553 555 591
f 553 591 592
f 553 592 590
f 555 556 591
f 556 582 591
f 557 559 560
f 559 584 593
f 559 593 594
f 559 594 595
f 559 595 596
f 559 596 597
f 559 597 560
f 560 598 599
f 560 597 596
f 560 596 595
f 560 595 594
f 560 594 593
f 560 593 584
f 560 584 600
f 560 600 598
f 561 601 602
f 561 602 603
f 561 603 562
f 561 566 604
f 561 604 605
f 561 605 606
f 561 606 601
f 562 603 607
f 562 607 569
f 563 567 608
f 563 608 564
f 564 608 609
f 564 609 610
f 564 610 604
f 564 604 566
f 564 566 565
f 567 568 608
f 569 607 611
f 569 611 570
f 570 611 571
f 571 611 612
f 571 612 572
f 572 612 574
f 574 612 613
f 574 613 614
f 574 614 575
f 575 614 615
f 575 615 576
f 576 615 616
f 576 616 577
f 577 616 617
f 577 617 618
f 577 618 619
f 577 619 620
f 577 620 578
f 578 620 579
f 579 620 580
f 580 620 621
f 580 621 581
f 581 621 622
f 581 622 623
f 581 623 592
f 581 592 582
f 582 592 591
f 583 624 625
f 583 625 584
f 583 589 624
f 584 625 626
f 584 626 627
f 584 627 628
f 584 628 629
f 584 629 630
f 584 630 631
f 584 631 600
f 585 588 632
f 585 632 586
f 586 633 589
f 586 632 633
f 587 634 588
f 587 590 634
f 588 634 635
f 588 635 632
f 589 633 636
f 589 636 624
f 590 592 637
f 590 637 634
f 592 623 637
f 598 638 599
f 598 600 631
f 598 631 630
f 598 630 629
f 598 629 638
f 599 638 640
f 599 640 641
f 599 641 642
f 599 642 639
f 601 606 610
f 601 610 602
f 602 610 643
f 602 643 644
f 602 644 603
f 603 645 646
f 603 646 647
f 603 647 648
f 603 648 649
f 603 649 607
f 603 644 650
f 603 650 645
f 604 610 605
f 605 610 606
f 607 649 612
f 607 612 611
f 608 651 609
f 609 651 652
f 609 652 610
f 610 652 643
f 612 649 613
f 613 649 653
f 613 653 654
f 613 654 614
f 614 654 655
f 614 655 656
f 614 656 615
f 615 656 657
f 615 657 616
f 616 657 617
f 617 657 658
f 617 658 659
f 617 659 660
f 617 660 618
f 618 660 661
f 618 661 619
f 619 661 662
f 619 662 620
f 620 662 621
f 621 662 622
f 622 662 661
f 622 661 660
f 622 660 663
f 622 663 664
f 622 664 637
f 622 637 623
f 624 665 666
f 624 666 625
f 624 636 665
f 625 666 667
f 625 667 626
f 626 667 668
f 626 668 641
f 626 641 640
f 626 640 638
f 626 638 627
f 627 638 628
f 628 638 629
f 632 635 669
f 632 669 633
f 633 669 670
f 633 670 636
f 634 637 664
f 634 664 671
f 634 671 672
f 634 672 635
f 635 672 669
f 636 670 673
f 636 673 665
f 639 642 674
f 641 668 642
f 642 675 674
f 642 668 667
f 642 667 666
f 642 666 675
f 643 652 644
f 644 652 650
f 645 650 652
f 645 652 646
f 646 652 647
f 647 652 648
f 648 652 676
f 648 676 677
f 648 677 678
f 648 678 679
f 648 679 680
f 648 680 649
f 649 681 653
f 649 680 682
f 649 682 683
f 649 683 684
f 649 684 685
f 649 685 686
f 649 686 681
f 652 677 676
f 653 681 687
f 653 687 688
f 653 688 689
f 653 689 690
f 653 690 691
f 653 691 692
f 653 692 693
f 653 693 694
f 653 694 695
f 653 695 654
f 654 696 655
f 654 695 697
f 654 697 696
f 655 698 656
f 655 696 699
f 655 699 698
f 656 698 657
f 657 698 658
f 658 698 700
f 658 700 701
f 658 701 659
f 659 701 702
f 659 702 703
f 659 703 704
f 659 704 660
f 660 704 663
f 663 705 664
f 663 704 705
f 664 705 671
f 665 673 706
f 665 706 666
f 666 706 707
f 666 707 708
f 666 708 709
f 666 709 710
f 666 710 711
f 666 711 712
f 666 712 675
f 669 713 670
f 669 672 713
f 670 713 714
f 670 714 673
f 671 705 715
f 671 715 672
f 672 715 713
f 673 716 717
f 673 717 706
f 673 714 716
f 674 675 712
f 674 712 711
f 674 711 710
f 674 710 709
f 674 709 708
f 674 708 707
f 674 707 706
f 674 706 719
f 674 719 718
f 678 720 721
f 678 721 680
f 678 680 679
f 680 721 722
f 680 722 723
f 680 723 724
f 680 724 725
f 680 725 682
f 681 686 687
f 682 725 726
f 682 726 727
f 682 727 683
f 683 727 684
f 684 727 685
f 685 727 686
f 686 727 687
f 687 727 728
f 687 728 729
f 687 729 730
f 687 730 731
f 687 731 688
f 688 690 689
f 688 731 732
f 688 732 690
f 690 732 691
f 691 732 733
f 691 733 692
f 692 733 693
f 693 733 734
f 693 734 694
f 694 734 695
f 695 734 735
f 695 735 736
f 695 736 697
f 696 737 738
f 696 738 699
f 696 697 739
f 696 739 740
f 696 740 741
f 696 741 737
f 697 736 739
f 698 699 700
f 699 738 742
f 699 742 700
f 700 742 743
f 700 743 744
f 700 744 745
f 700 745 701
f 701 745 746
f 701 746 747
f 701 747 702
f 702 747 748
f 702 748 749
f 702 749 750
f 702 750 751
f 702 751 703
f 703 751 752
f 703 752 704
f 704 752 705
f 705 752 715
f 706 717 753
f 706 753 754
f 706 754 755
f 706 755 756
f 706 756 757
f 706 757 758
f 706 758 719
f 713 715 759
f 713 759 714
f 714 759 760
f 714 760 716
f 715 752 759
f 716 760 761
f 716 761 762
f 716 762 763
f 716 763 764
f 716 764 765
f 716 765 766
f 716 766 767
f 716 767 768
f 716 768 769
f 716 769 717
f 717 769 770
f 717 770 753
f 718 771 772
f 718 719 771
f 719 758 771
f 720 728 723
f 720 723 722
f 720 722 721
f 723 728 724
f 724 728 725
f 725 728 726
f 726 728 727
f 728 730 729
f 731 773 774
f 731 774 734
f 731 734 733
f 731 733 732
f 734 774 735
f 735 774 736
f 736 774 739
f 737 741 742
f 737 742 738
f 739 774 773
f 739 773 740
f 740 773 741
f 741 773 775
f 741 775 742
f 742 775 776
f 742 776 777
f 742 777 743
f 743 777 778
f 743 778 744
f 744 778 745
f 745 777 779
f 745 779 780
f 745 780 746
f 745 778 777
f 746 780 747
f 747 780 781
f 747 781 782
f 747 782 783
f 747 783 749
f 747 749 748
f 749 783 750
f 750 760 759
f 750 759 751
f 750 783 760
f 751 759 752
f 753 770 754
f 754 770 755
f 755 770 771
f 755 771 756
f 756 771 757
f 757 771 758
f 760 783 761
f 761 783 762
f 762 783 763
f 763 783 764
f 764 783 765
f 765 783 766
f 766 783 767
f 767 783 768
f 768 783 769
f 769 783 770
f 770 783 784
f 770 784 772
f 770 772 771
f 773 776 775

