# https://github.com/mikedh/trimesh
v 0.15736108 0.03926733 0.00159956
v 0.14894355 0.03906351 0.00159956
v 0.13816817 0.03872380 0.00372693
v 0.14052603 0.03875777 0.00383013
v 0.14474658 0.03881439 0.00399286
v 0.15736108 0.03898425 0.00443738
v 0.15736108 0.03915976 -0.00260756
v 0.14894355 0.03898425 -0.00260756
v 0.13632905 0.03875211 -0.00126208
v 0.13415982 0.03871814 -0.00057941
v 0.13415982 0.03871814 -0.00040874
v 0.14474658 0.03896160 0.00159956
v 0.12369097 0.03734799 0.00580668
v 0.13210849 0.03767071 0.00580668
v 0.13658841 0.03799343 0.00540184
v 0.14052603 0.03790850 0.00593369
v 0.14052603 0.03885402 0.00159956
v 0.13536233 0.03867851 0.00239733
v 0.02355305 0.03455106 -0.00004757
v -0.08351696 0.03046891 0.00034139
v 0.03296087 0.03451709 0.00373090
v 0.14474658 0.03796512 0.00609642
v 0.14894355 0.03802174 0.00625121
v 0.15316410 0.03807270 0.00639806
v 0.15736108 0.03808968 0.00655682
v 0.15736108 0.03887667 -0.00507230
v 0.14474658 0.03874645 -0.00479447
v 0.14236515 0.03871814 -0.00472700
v 0.13955931 0.03868983 -0.00424675
v 0.14474658 0.03889366 -0.00260756
v 0.14078539 0.03879174 -0.00275044
v 0.13632905 0.03865586 -0.00336564
v 0.13248575 0.03859358 -0.00223051
v 0.12369097 0.03825954 -0.00260756
v 0.11949399 0.03810667 -0.00260756
v 0.11107647 0.03779527 -0.00260756
v 0.06898884 0.03622695 -0.00260756
v -0.08351696 0.03054251 -0.00260756
v 0.13658841 0.03874645 0.00123441
v 0.11527345 0.03700828 0.00580668
v 0.07540218 0.03450011 0.00790230
v 0.07820803 0.03456238 0.00798168
v 0.09002086 0.03481150 0.00828729
v -0.08351696 0.03002162 0.00244892
v -0.06804946 0.03031038 0.00372297
v 0.11107647 0.03683842 0.00580668
v 0.10265894 0.03507761 0.00858894
v 0.10685591 0.03516820 0.00868419
v 0.11107647 0.03525879 0.00877548
v 0.11527345 0.03534371 0.00886280
v 0.11949399 0.03542864 0.00894615
v 0.12369097 0.03550790 0.00902553
v 0.12791153 0.03558717 0.00910094
v 0.13210849 0.03566643 0.00917238
v 0.14894355 0.03591555 0.00937480
v 0.15316410 0.03597217 0.00941052
v 0.15736108 0.03599482 0.00942242
v 0.13632905 0.03574004 0.00923588
v 0.14052603 0.03580232 0.00928748
v 0.15736108 0.03784056 -0.00717586
v 0.15316410 0.03786887 -0.00710045
v 0.14894355 0.03789718 -0.00700916
v 0.14474658 0.03790284 -0.00689803
v 0.13632905 0.03778961 -0.00681468
v 0.15316410 0.03883138 -0.00499292
v 0.14894355 0.03878608 -0.00490560
v 0.13210849 0.03768203 -0.00681468
v 0.12791153 0.03754615 -0.00681468
v 0.05215378 0.03501533 -0.00625902
v 0.04793322 0.03493040 -0.00604470
v 0.04373625 0.03485114 -0.00581450
v 0.03951570 0.03477187 -0.00558033
v 0.03534230 0.03469260 -0.00533028
v 0.03112175 0.03461334 -0.00507230
v 0.02784433 0.03455106 -0.00486591
v 0.02501492 0.03450011 -0.00450870
v 0.12791153 0.03841240 -0.00260756
v -0.08351696 0.03042927 -0.00435391
v -0.08351696 0.02845897 0.00580668
v -0.01355953 0.03032170 0.00794199
v -0.08351696 0.02663021 0.00858894
v -0.08351696 0.02615462 0.00908506
v -0.08351696 0.02460895 0.01069250
v -0.04883297 0.02535065 0.01148232
v 0.03112175 0.02921199 0.01117274
v 0.11107647 0.03304502 0.01088301
v 0.11527345 0.03313561 0.01096636
v 0.11949399 0.03322620 0.01104971
v 0.12369097 0.03331679 0.01112909
v 0.12791153 0.03339606 0.01120450
v 0.13210849 0.03346966 0.01127991
v 0.13632905 0.03353194 0.01134341
v 0.14052603 0.03358289 0.01139104
v 0.14474658 0.03362819 0.01143867
v 0.15316410 0.03369613 0.01151805
v 0.15736108 0.03371878 0.01153392
v 0.14894355 0.03366216 0.01147836
v 0.15736108 0.03574004 -0.01066856
v 0.15316410 0.03576835 -0.01065269
v 0.14894355 0.03579099 -0.01064078
v 0.14474658 0.03579665 -0.01061696
v 0.14052603 0.03577401 -0.01058124
v 0.13632905 0.03574004 -0.01052171
v 0.13210849 0.03568908 -0.01044233
v 0.12791153 0.03562680 -0.01035104
v 0.12369097 0.03555320 -0.01025976
v 0.06597079 0.03453407 -0.00896190
v 0.06316494 0.03448878 -0.00887855
v 0.06057131 0.03443783 -0.00876345
v 0.05635075 0.03509459 -0.00646541
v 0.05635075 0.03435290 -0.00856897
v -0.08351696 0.03037266 -0.00496117
v -0.08351696 0.02250842 0.01260158
v -0.03621847 0.02563374 0.01174428
v 0.03951570 0.02939317 0.01135135
v 0.04793322 0.02957435 0.01151805
v 0.06057131 0.02985177 0.01174825
v 0.06476828 0.02994236 0.01182366
v 0.08292373 0.03033303 0.01214911
v 0.11527345 0.03102943 0.01272859
v 0.11949399 0.03112001 0.01280400
v 0.12369097 0.03121060 0.01287544
v -0.01938342 0.02601874 0.01206180
v -0.01693125 0.02606969 0.01210942
v 0.12791153 0.03129553 0.01292306
v 0.13210849 0.03136913 0.01295482
v 0.13632905 0.03142575 0.01297863
v 0.14052603 0.03147671 0.01300244
v 0.14474658 0.03152200 0.01301435
v 0.14894355 0.03155597 0.01302229
v 0.15736108 0.03162392 0.01303420
v 0.15736108 0.03422268 -0.01277212
v 0.14474658 0.03414907 -0.01272449
v 0.15316410 0.03420003 -0.01276021
v 0.14894355 0.03417738 -0.01274434
v 0.14052603 0.03410944 -0.01268480
v 0.13632905 0.03405282 -0.01262924
v 0.13210849 0.03398488 -0.01254986
v -0.08351696 0.02748514 -0.01048599
v -0.04331560 0.03032170 -0.00895396
v -0.04612144 0.03027075 -0.00887061
v -0.04883297 0.03021979 -0.00875551
v -0.05305353 0.03014052 -0.00857294
v -0.08351696 0.02959133 -0.00706869
v 0.03534230 0.02720205 0.01301832
v 0.02692477 0.02702087 0.01287147
v -0.01096589 0.02619992 0.01221262
v -0.02358039 0.02592249 0.01198639
v -0.02780094 0.02582624 0.01190701
v -0.03199792 0.02572999 0.01182763
v -0.08351696 0.01977378 0.01435984
v 0.00586917 0.02398615 0.01426061
v 0.05215378 0.02756441 0.01329615
v 0.04793322 0.02747382 0.01322868
v 0.04373625 0.02738323 0.01316120
v 0.03951570 0.02729264 0.01308976
v 0.10685591 0.02819287 0.01443922
v 0.11527345 0.02819287 0.01466942
v 0.11949399 0.02819287 0.01478055
v 0.12369097 0.02819287 0.01488771
v 0.05635075 0.02765500 0.01335965
v 0.06476828 0.02783617 0.01348269
v 0.09424141 0.02819287 0.01408598
v 0.09843838 0.02819287 0.01420505
v 0.12791153 0.02819287 0.01495518
v 0.13210849 0.02819287 0.01499487
v 0.15736108 0.02818154 0.01501075
v 0.13632905 0.02819287 0.01501869
v 0.14052603 0.02819287 0.01503853
v 0.14474658 0.02819287 0.01505044
v 0.14894355 0.02819287 0.01504250
v 0.15736108 0.03212215 -0.01506222
v 0.15316410 0.03209950 -0.01501063
v 0.14052603 0.03200325 -0.01483996
v 0.14894355 0.03207119 -0.01495506
v 0.14474658 0.03204289 -0.01489950
v 0.13632905 0.03194663 -0.01478440
v 0.13210849 0.03187869 -0.01472486
v 0.12791153 0.03179943 -0.01466136
v 0.12369097 0.03171450 -0.01458992
v 0.11107647 0.03146538 -0.01434781
v 0.05316765 0.03033869 -0.01317299
v 0.04793322 0.03023677 -0.01306583
v -0.08351696 0.02556579 -0.01258955
v -0.08351696 0.02601874 -0.01209343
v -0.08351696 0.02798338 -0.00970807
v 0.01428669 0.02398615 0.01449875
v -0.08351696 0.01904341 0.01472895
v -0.05305353 0.01752605 0.01629273
v -0.05027126 0.01762230 0.01631654
v -0.05725050 0.01977378 0.01503456
v 0.08160334 0.02486373 0.01581645
v 0.09002086 0.02505057 0.01591171
v 0.10265894 0.02533366 0.01604268
v 0.11527345 0.02562807 0.01616572
v 0.12369097 0.02583190 0.01623716
v 0.12791153 0.02589418 0.01625701
v 0.15316410 0.02575830 0.01622129
v 0.15736108 0.02565638 0.01619747
v 0.14474658 0.02588852 0.01626098
v 0.14894355 0.02583756 0.01624510
v 0.13210849 0.02591683 0.01626495
v 0.13632905 0.02591116 0.01626495
v 0.14052603 0.02590550 0.01626098
v 0.15736108 0.02992538 -0.01716975
v 0.14474658 0.02970457 -0.01700306
v 0.14052603 0.02962530 -0.01694749
v 0.13210849 0.02943846 -0.01682842
v 0.01008972 0.02738323 -0.01439543
v 0.00586917 0.02729830 -0.01432002
v -0.00254836 0.02712845 -0.01416920
v -0.01096589 0.02696426 -0.01401044
v -0.08351696 0.02395785 -0.01406601
v -0.08351696 0.01654656 0.01597918
v -0.05725050 0.01738450 0.01625304
v -0.08351696 0.01444603 0.01660231
v 0.01008972 0.02106467 0.01602681
v -0.04463599 0.01985871 0.01530445
v -0.04885655 0.01937179 0.01545131
v -0.04746542 0.01770156 0.01634036
v 0.03951570 0.02180070 0.01630464
v 0.04189713 0.02186298 0.01632448
v 0.12369097 0.02372571 0.01696746
v 0.12791153 0.02379365 0.01699921
v 0.05215378 0.02208379 0.01641577
v 0.06898884 0.02246313 0.01655865
v 0.07740636 0.02266129 0.01662216
v 0.08160334 0.02275755 0.01665391
v 0.08582388 0.02285379 0.01668566
v 0.13210849 0.02381064 0.01701905
v 0.14894355 0.02373137 0.01693571
v 0.15316410 0.02365211 0.01689602
v 0.15736108 0.02356152 0.01684045
v 0.13632905 0.02380498 0.01701112
v 0.14052603 0.02379931 0.01698730
v 0.14474658 0.02378233 0.01695952
v 0.15736108 0.02781919 -0.01791195
v 0.14894355 0.02766632 -0.01795958
v 0.14474658 0.02759838 -0.01797943
v 0.14052603 0.02751911 -0.01797546
v 0.13632905 0.02742853 -0.01794767
v 0.13210849 0.02733227 -0.01791592
v 0.07523713 0.02609234 -0.01734042
v 0.05215378 0.02553182 -0.01708244
v 0.04793322 0.02543557 -0.01703084
v 0.04373625 0.02533932 -0.01697924
v 0.03534230 0.02514116 -0.01687208
v 0.02692477 0.02494866 -0.01675698
v -0.08351696 0.02345961 -0.01450260
v -0.04041544 0.01556707 0.01695952
v -0.08351696 0.01135469 0.01714209
v 0.00167219 0.01556707 0.01755090
v -0.01516286 0.01556707 0.01732070
v -0.01938342 0.01556707 0.01726116
v -0.04463599 0.01775252 0.01636814
v 0.11107647 0.01977378 0.01805893
v 0.11527345 0.01977378 0.01811846
v 0.12369097 0.01977378 0.01823753
v 0.07740636 0.01977378 0.01756677
v 0.12791153 0.01977378 0.01828913
v 0.06898884 0.01977378 0.01743977
v 0.07318581 0.01977378 0.01750327
v 0.13210849 0.01977378 0.01831294
v 0.13632905 0.01977378 0.01827325
v 0.15736108 0.01977378 0.01776919
v 0.14052603 0.01977378 0.01818593
v 0.14474658 0.01977378 0.01809465
v 0.14894355 0.01977378 0.01799542
v 0.15316410 0.01977378 0.01789223
v 0.15736108 0.02398615 -0.01886054
v 0.15316410 0.02398615 -0.01900739
v 0.14894355 0.02398615 -0.01909868
v 0.14474658 0.02398615 -0.01914631
v 0.14052603 0.02398615 -0.01916615
v 0.13632905 0.02398615 -0.01916218
v 0.13210849 0.02398615 -0.01913043
v 0.12791153 0.02398615 -0.01908280
v 0.12369097 0.02398615 -0.01902724
v 0.11949399 0.02398615 -0.01895579
v 0.11527345 0.02398615 -0.01888038
v 0.02270422 0.02274622 -0.01769366
v -0.01671905 0.02184600 -0.01732851
v -0.08351696 0.02005687 -0.01661013
v 0.01008972 0.01556707 0.01766203
v 0.00586917 0.01556707 0.01760646
v -0.08351696 0.00715364 0.01743977
v -0.01096589 0.01135469 0.01800733
v 0.11527345 0.01556707 0.01898767
v 0.10685591 0.01556707 0.01888447
v 0.10265894 0.01556707 0.01883288
v 0.07318581 0.01556707 0.01846376
v 0.05215378 0.01556707 0.01819784
v 0.04373625 0.01556707 0.01809068
v 0.11949399 0.01556707 0.01903530
v 0.12369097 0.01556707 0.01906705
v 0.12791153 0.01556707 0.01906705
v 0.13210849 0.01556707 0.01902339
v 0.13632905 0.01556707 0.01894798
v 0.15736108 0.01975113 0.01777316
v 0.15316410 0.01556707 0.01849155
v 0.14052603 0.01556707 0.01884082
v 0.14474658 0.01556707 0.01872968
v 0.15736108 0.01979643 -0.01918996
v 0.15316410 0.01977378 -0.01949161
v 0.14894355 0.01977378 -0.01972578
v 0.14474658 0.01977378 -0.01989644
v 0.14052603 0.01977378 -0.02005520
v 0.13632905 0.01977378 -0.02020205
v 0.13210849 0.01977378 -0.02026556
v 0.12791153 0.01977378 -0.02025365
v 0.12369097 0.01977378 -0.02023381
v 0.11949399 0.01977378 -0.02019809
v 0.11527345 0.01977378 -0.02015840
v 0.11107647 0.01977378 -0.02011077
v 0.10685591 0.01977378 -0.02005123
v 0.10265894 0.01977378 -0.01998773
v 0.09843838 0.01977378 -0.01992026
v 0.09424141 0.01977378 -0.01985278
v 0.06898884 0.01977378 -0.01943604
v 0.04793322 0.01977378 -0.01908677
v -0.08351696 0.01795634 -0.01742774
v -0.02780094 0.02152327 -0.01722135
v 0.03951570 0.01977378 -0.01894389
v -0.08351696 0.01844892 -0.01723723
v -0.03199792 0.02139872 -0.01718166
v 0.01850725 0.01135469 0.01833676
v 0.01008972 0.01135469 0.01824547
v 0.00586917 0.01135469 0.01819784
v -0.08351696 0.00294693 0.01730482
v -0.03621847 0.00715364 0.01792795
v 0.09002086 0.01135469 0.01909483
v 0.07318581 0.01135469 0.01892020
v 0.06898884 0.01135469 0.01887654
v 0.05635075 0.01135469 0.01874159
v 0.10685591 0.01135469 0.01926550
v 0.11527345 0.01135469 0.01934488
v 0.11949399 0.01135469 0.01936075
v 0.12369097 0.01135469 0.01933694
v 0.12791153 0.01135469 0.01926947
v 0.14474658 0.01135469 0.01890432
v 0.14894355 0.01135469 0.01881303
v 0.15316410 0.01135469 0.01871778
v 0.15736108 0.01556707 0.01836454
v 0.15736108 0.01135469 0.01860665
v 0.15736108 0.01977378 -0.01918996
v 0.14474658 0.01556707 -0.02011077
v 0.14052603 0.01556707 -0.02041241
v 0.13632905 0.01556707 -0.02068230
v 0.13210849 0.01556707 -0.02085297
v 0.12791153 0.01556707 -0.02089663
v 0.12369097 0.01556707 -0.02090060
v 0.11949399 0.01556707 -0.02089663
v 0.11527345 0.01556707 -0.02088869
v 0.11107647 0.01556707 -0.02087281
v 0.10685591 0.01556707 -0.02084503
v 0.10265894 0.01556707 -0.02080931
v 0.09843838 0.01556707 -0.02076962
v 0.09424141 0.01556707 -0.02072199
v 0.09002086 0.01556707 -0.02066643
v 0.08160334 0.01556707 -0.02055529
v 0.07740636 0.01556707 -0.02049973
v 0.06057131 0.01556707 -0.02025365
v 0.05635075 0.01556707 -0.02019015
v 0.03951570 0.01556707 -0.01993613
v -0.00254836 0.01556707 -0.01930110
v -0.00674533 0.01556707 -0.01923759
v -0.01096589 0.01556707 -0.01917012
v -0.01938342 0.01556707 -0.01903517
v -0.02358039 0.01556707 -0.01896770
v -0.08351696 0.01556707 -0.01800324
v -0.08351696 -0.00126545 0.01684045
v -0.07830611 -0.00126545 0.01690792
v -0.07408555 -0.00126545 0.01695555
v -0.06988859 -0.00126545 0.01699921
v -0.04883297 0.00294693 0.01765012
v 0.07740636 0.00715364 0.01907499
v 0.06476828 0.00715364 0.01894798
v 0.10265894 0.00715364 0.01931709
v 0.10685591 0.00715364 0.01935678
v 0.11107647 0.00715364 0.01939647
v 0.11527345 0.00715364 0.01942823
v 0.11949399 0.00715364 0.01943616
v 0.12369097 0.00715364 0.01937663
v 0.12791153 0.00715364 0.01928534
v 0.13210849 0.00715364 0.01919009
v 0.14894355 0.00715364 0.01878525
v 0.15316410 0.00715364 0.01868206
v 0.15736108 0.00713099 0.01857886
v 0.15736108 0.01133771 0.01860665
v 0.15736108 0.01556707 -0.01907090
v 0.15316410 0.01556707 -0.01943207
v 0.14894355 0.01556707 -0.01978531
v 0.14052603 0.01135469 -0.02036081
v 0.13632905 0.01135469 -0.02067436
v 0.13210849 0.01135469 -0.02090853
v 0.12791153 0.01135469 -0.02103554
v 0.12369097 0.01135469 -0.02108317
v 0.11949399 0.01135469 -0.02110301
v 0.11527345 0.01135469 -0.02111095
v 0.10685591 0.01135469 -0.02110301
v 0.10265894 0.01135469 -0.02109508
v 0.09843838 0.01135469 -0.02108317
v 0.09424141 0.01135469 -0.02106332
v 0.09002086 0.01135469 -0.02103951
v 0.08160334 0.01135469 -0.02098394
v 0.07740636 0.01135469 -0.02095219
v 0.07318581 0.01135469 -0.02091250
v 0.05635075 0.01135469 -0.02072199
v 0.05215378 0.01135469 -0.02067039
v 0.04373625 0.01135469 -0.02056323
v 0.02270422 0.01135469 -0.02028937
v 0.01428669 0.01135469 -0.02017824
v 0.01008972 0.01135469 -0.02012267
v -0.00674533 0.01135469 -0.01989247
v -0.01096589 0.01135469 -0.01983294
v -0.02358039 0.01135469 -0.01965037
v -0.08351696 0.01135469 -0.01877322
v -0.08351696 0.01235117 -0.01859462
v -0.08351696 -0.00379627 0.01643561
v -0.07830611 -0.00398877 0.01647530
v -0.07408555 -0.00411899 0.01650309
v -0.00254836 0.00294693 0.01809465
v -0.04041544 0.00294693 0.01773347
v -0.06988859 -0.00422656 0.01652690
v -0.06566803 -0.00126545 0.01703890
v 0.05635075 0.00294693 0.01865031
v 0.03951570 0.00294693 0.01849155
v 0.11527345 0.00294693 0.01915040
v 0.06476828 0.00294693 0.01872572
v 0.09843838 0.00294693 0.01901148
v 0.10265894 0.00294693 0.01904720
v 0.11949399 0.00294693 0.01917421
v 0.12369097 0.00294693 0.01913055
v 0.12791153 0.00294693 0.01903530
v 0.15736108 0.00294693 0.01819784
v 0.13210849 0.00294693 0.01892417
v 0.14474658 0.00294693 0.01858283
v 0.14894355 0.00294693 0.01846376
v 0.15316410 0.00294693 0.01833676
v 0.15736108 0.01135469 -0.01888038
v 0.14894355 0.01135469 -0.01963052
v 0.14474658 0.01135469 -0.02000361
v 0.14894355 0.00715364 -0.01938445
v 0.14474658 0.00715364 -0.01972578
v 0.14052603 0.00715364 -0.02005917
v 0.13632905 0.00715364 -0.02036478
v 0.13210849 0.00715364 -0.02062277
v 0.12791153 0.00715364 -0.02080534
v 0.12369097 0.00715364 -0.02088075
v 0.11949399 0.00715364 -0.02089663
v 0.11527345 0.00715364 -0.02090456
v 0.10685591 0.00715364 -0.02089266
v 0.09843838 0.00715364 -0.02087678
v 0.11107647 0.00715364 -0.02090060
v 0.08582388 0.00715364 -0.02084503
v 0.08160334 0.00715364 -0.02083312
v 0.07740636 0.00715364 -0.02081725
v 0.07318581 0.00715364 -0.02079343
v 0.06476828 0.00715364 -0.02074184
v 0.05635075 0.00715364 -0.02068627
v 0.05215378 0.00715364 -0.02065849
v 0.04793322 0.00715364 -0.02062674
v 0.04373625 0.00715364 -0.02059498
v 0.03951570 0.00715364 -0.02055529
v 0.03112175 0.00715364 -0.02046004
v 0.02270422 0.00715364 -0.02035685
v 0.01850725 0.00715364 -0.02030525
v 0.01008972 0.00715364 -0.02019809
v -0.08351696 0.00715364 -0.01898755
v -0.08351696 0.00815012 -0.01893992
v -0.08351696 -0.00590245 0.01582439
v -0.07830611 -0.00609496 0.01590774
v -0.07408555 -0.00622518 0.01595537
v -0.06988859 -0.00633275 0.01599109
v -0.06566803 -0.00642900 0.01602284
v -0.04463599 -0.00126545 0.01722544
v -0.04883297 -0.00126545 0.01718972
v -0.06147106 -0.00651959 0.01605062
v -0.05725050 -0.00660452 0.01607840
v -0.06566803 -0.00432281 0.01654674
v 0.01008972 -0.00126545 0.01768981
v 0.00586917 -0.00126545 0.01765409
v 0.11949399 -0.00126545 0.01854711
v 0.04793322 -0.00126545 0.01800733
v 0.06476828 -0.00126545 0.01814228
v 0.07318581 -0.00126545 0.01820578
v 0.09843838 -0.00126545 0.01839232
v 0.12369097 -0.00126545 0.01854711
v 0.12791153 -0.00126545 0.01847567
v 0.15736108 0.00292428 0.01819387
v 0.13210849 -0.00126545 0.01834866
v 0.13632905 -0.00126545 0.01820578
v 0.14474658 -0.00126545 0.01791207
v 0.15736108 0.00715364 -0.01866209
v 0.15316410 0.00715364 -0.01902724
v 0.15736108 0.00294693 -0.01836045
v 0.15316410 0.00294693 -0.01868987
v 0.14894355 0.00294693 -0.01899548
v 0.14474658 0.00294693 -0.01928522
v 0.14052603 0.00294693 -0.01955511
v 0.13210849 0.00294693 -0.02000758
v 0.13632905 0.00294693 -0.01980119
v 0.12791153 0.00294693 -0.02015046
v 0.12369097 0.00294693 -0.02019809
v 0.11949399 0.00294693 -0.02019809
v 0.11527345 0.00294693 -0.02019015
v 0.10265894 0.00294693 -0.02015840
v 0.08582388 0.00294693 -0.02011474
v 0.05635075 0.00294693 -0.02003536
v 0.04793322 0.00294693 -0.02001154
v 0.04373625 0.00294693 -0.01999567
v 0.03951570 0.00294693 -0.01997582
v 0.03534230 0.00294693 -0.01995201
v 0.03112175 0.00294693 -0.01992423
v 0.02692477 0.00294693 -0.01989247
v 0.02270422 0.00294693 -0.01985675
v 0.01428669 0.00294693 -0.01976944
v 0.00586917 0.00294693 -0.01967418
v -0.00254836 0.00294693 -0.01957496
v -0.03621847 0.00294693 -0.01916218
v -0.08351696 0.00294693 -0.01857477
v -0.08351696 0.00393774 -0.01867400
v -0.08351696 -0.00679702 0.01532430
v -0.07830611 -0.00968453 0.01389546
v -0.07408555 -0.00968453 0.01401453
v -0.06988859 -0.00968453 0.01410582
v -0.05305353 -0.00668378 0.01609825
v -0.05725050 -0.00450399 0.01658247
v -0.06566803 -0.00968453 0.01418123
v -0.06147106 -0.00968453 0.01425267
v 0.11949399 -0.00547216 0.01749533
v 0.12369097 -0.00547216 0.01751915
v -0.04883297 -0.00465686 0.01661819
v -0.04463599 -0.00472480 0.01663406
v -0.03621847 -0.00483804 0.01666581
v -0.01938342 -0.00504186 0.01672932
v -0.04041544 -0.00688761 0.01614985
v -0.03621847 -0.00694422 0.01616175
v 0.12791153 -0.00547216 0.01751121
v 0.13210849 -0.00547216 0.01743977
v 0.13632905 -0.00547216 0.01731276
v 0.15736108 -0.00128243 0.01742389
v 0.14894355 -0.00126545 0.01776125
v 0.15316410 -0.00126545 0.01759852
v 0.15736108 -0.00124280 -0.01790005
v 0.15316410 -0.00126545 -0.01815009
v 0.15736108 -0.00393215 -0.01748330
v 0.14052603 -0.00126545 -0.01872956
v 0.13632905 -0.00126545 -0.01887641
v 0.12791153 -0.00126545 -0.01905899
v 0.13210849 -0.00126545 -0.01898755
v 0.12369097 -0.00126545 -0.01907883
v 0.11949399 -0.00126545 -0.01907090
v 0.10685591 -0.00126545 -0.01904311
v 0.08160334 -0.00126545 -0.01898358
v 0.06057131 -0.00126545 -0.01893198
v 0.04793322 -0.00126545 -0.01890023
v 0.03534230 -0.00126545 -0.01886848
v 0.03112175 -0.00126545 -0.01885657
v 0.02692477 -0.00126545 -0.01884466
v 0.02270422 -0.00126545 -0.01882879
v 0.01850725 -0.00126545 -0.01880497
v 0.01428669 -0.00126545 -0.01877719
v -0.00254836 -0.00126545 -0.01861843
v -0.00674533 -0.00126545 -0.01857874
v -0.01096589 -0.00126545 -0.01853111
v -0.01938342 -0.00126545 -0.01843586
v -0.02358039 -0.00126545 -0.01838823
v -0.08351696 -0.00089177 -0.01778891
v -0.08351696 0.00001412 -0.01797943
v -0.08351696 -0.00997895 0.01348666
v -0.07830611 -0.01189829 0.01221659
v -0.07408555 -0.01198322 0.01228803
v -0.06988859 -0.01204550 0.01233962
v -0.06147106 -0.01214741 0.01242694
v -0.05725050 -0.00968453 0.01431618
v -0.04883297 -0.00675739 0.01611810
v -0.05725050 -0.01219271 0.01246663
v -0.01938342 -0.00714239 0.01621335
v -0.01516286 -0.00719334 0.01622526
v -0.01096589 -0.00723864 0.01623716
v 0.00586917 -0.00741982 0.01628479
v 0.01008972 -0.00746511 0.01629670
v 0.02098299 -0.00757268 0.01632845
v 0.12791153 -0.00809923 0.01660628
v 0.02692477 -0.00760099 0.01634433
v -0.04463599 -0.00682533 0.01613397
v -0.05305353 -0.00968453 0.01437174
v 0.13210849 -0.00809923 0.01659834
v 0.13632905 -0.00803695 0.01655865
v 0.14052603 -0.00789541 0.01648721
v 0.14474658 -0.00769724 0.01638799
v 0.14696295 -0.00758967 0.01633639
v 0.14052603 -0.00547216 0.01715003
v 0.15736108 -0.00447002 0.01663803
v 0.14474658 -0.00547216 0.01696746
v 0.15736108 -0.00602701 -0.01686811
v 0.15316410 -0.00419259 -0.01758253
v 0.14894355 -0.00435112 -0.01766588
v 0.12791153 -0.00466818 -0.01786829
v 0.14474658 -0.00444171 -0.01771747
v 0.13632905 -0.00456627 -0.01779685
v 0.13210849 -0.00462289 -0.01783654
v 0.12369097 -0.00467951 -0.01787623
v 0.11949399 -0.00467385 -0.01787226
v 0.10265894 -0.00463987 -0.01785639
v 0.07740636 -0.00458892 -0.01782860
v 0.05635075 -0.00454362 -0.01780479
v 0.03534230 -0.00449833 -0.01778098
v 0.02270422 -0.00447002 -0.01776510
v 0.01850725 -0.00445303 -0.01775716
v 0.01428669 -0.00443039 -0.01774526
v 0.00586917 -0.00437377 -0.01771350
v -0.00254836 -0.00431149 -0.01767778
v -0.00674533 -0.00427186 -0.01766191
v -0.01096589 -0.00422090 -0.01764206
v -0.04883297 -0.00362641 -0.01743171
v -0.05725050 -0.00349619 -0.01738408
v -0.06420616 -0.00338862 -0.01734439
v -0.06701200 -0.00333766 -0.01732851
v -0.08351696 -0.00299795 -0.01723723
v -0.08351696 -0.00249972 -0.01736820
v -0.03621847 -0.00126545 -0.01824138
v -0.08351696 -0.01044321 0.01312945
v -0.08125341 -0.01183035 0.01215705
v -0.07830611 -0.01400448 0.01021225
v -0.07408555 -0.01408941 0.01029957
v -0.06988859 -0.01415169 0.01035513
v -0.05725050 -0.01429323 0.01045039
v -0.05305353 -0.01222668 0.01249441
v -0.06147106 -0.01425360 0.01042261
v -0.04883297 -0.00968453 0.01441143
v -0.04463599 -0.00968453 0.01444319
v -0.03621847 -0.00968453 0.01450669
v 0.12791153 -0.01020542 0.01532827
v 0.13210849 -0.01020542 0.01534018
v -0.04883297 -0.01224932 0.01251823
v 0.13632905 -0.01014314 0.01533224
v 0.14052603 -0.01000159 0.01526079
v 0.15316410 -0.00968453 0.01457813
v 0.15736108 -0.00969586 0.01422886
v 0.14976879 -0.00730658 0.01625304
v 0.14474658 -0.00980343 0.01512188
v 0.15316410 -0.00697253 0.01614588
v 0.15736108 -0.00657621 0.01597918
v 0.15736108 -0.00995630 -0.01453832
v 0.15316410 -0.00629312 -0.01689986
v 0.14894355 -0.00645731 -0.01691177
v 0.14474658 -0.00654224 -0.01692368
v 0.14052603 -0.00661018 -0.01693558
v 0.13632905 -0.00667246 -0.01694749
v 0.13210849 -0.00672908 -0.01695940
v 0.12791153 -0.00676871 -0.01697130
v 0.12369097 -0.00678569 -0.01697130
v 0.05635075 -0.00664981 -0.01692368
v 0.03951570 -0.00661018 -0.01691177
v 0.03112175 -0.00659319 -0.01690383
v 0.02270422 -0.00657055 -0.01689589
v 0.01850725 -0.00655922 -0.01689192
v 0.01428669 -0.00653657 -0.01688796
v 0.00586917 -0.00647996 -0.01687605
v 0.00167219 -0.00645165 -0.01686811
v -0.00254836 -0.00641768 -0.01686017
v -0.00674533 -0.00637805 -0.01684826
v -0.01096589 -0.00632143 -0.01682842
v -0.01516286 -0.00625915 -0.01680461
v -0.08351696 -0.00488899 -0.01644343
v -0.01938342 -0.00619121 -0.01677682
v -0.08351696 -0.01112829 0.01259364
v -0.08351696 -0.01240219 0.01149820
v -0.08351696 -0.01367610 0.01028766
v -0.08351696 -0.01604839 0.00798168
v -0.08250309 -0.01606537 0.00800947
v -0.07408555 -0.01619560 0.00819204
v -0.07830611 -0.01613331 0.00810869
v -0.06988859 -0.01623523 0.00824760
v -0.05305353 -0.01433286 0.01046627
v -0.06147106 -0.01628052 0.00831905
v -0.04041544 -0.01229462 0.01255395
v 0.00586917 -0.01251543 0.01274049
v 0.02270422 -0.01259469 0.01280796
v 0.05215378 -0.01271359 0.01292703
v 0.07740636 -0.01280418 0.01302626
v 0.10685591 -0.01290609 0.01314136
v 0.11527345 -0.01293440 0.01317311
v 0.12791153 -0.01297403 0.01322074
v 0.13210849 -0.01298536 0.01323661
v 0.03534230 -0.01264565 0.01285956
v 0.13632905 -0.01298536 0.01322868
v 0.14052603 -0.01294006 0.01315723
v 0.14474658 -0.01282117 0.01301435
v 0.15316410 -0.01247013 0.01265714
v 0.15736108 -0.01226631 0.01247060
v 0.14894355 -0.01265697 0.01283575
v 0.15736108 -0.01007520 -0.01446688
v 0.15316410 -0.00968453 -0.01485980
v 0.14474658 -0.00968453 -0.01493125
v 0.14052603 -0.00968453 -0.01496697
v 0.13632905 -0.00968453 -0.01499872
v 0.13210849 -0.00968453 -0.01502253
v 0.12791153 -0.00968453 -0.01502650
v 0.12369097 -0.00968453 -0.01502650
v 0.09002086 -0.00968453 -0.01495506
v 0.06057131 -0.00968453 -0.01489156
v 0.01850725 -0.00965622 -0.01478836
v 0.00167219 -0.00961659 -0.01476455
v -0.00254836 -0.00960527 -0.01475661
v 0.05635075 -0.00968453 -0.01487965
v 0.04793322 -0.00968453 -0.01485584
v -0.00674533 -0.00959394 -0.01474471
v -0.01096589 -0.00958262 -0.01472486
v -0.01516286 -0.00957130 -0.01470105
v -0.01938342 -0.00954865 -0.01466929
v -0.02358039 -0.00951468 -0.01464151
v -0.03199792 -0.00943541 -0.01458198
v -0.04041544 -0.00935049 -0.01451847
v -0.05305353 -0.00922027 -0.01442322
v -0.06988859 -0.00904475 -0.01429621
v -0.08351696 -0.00890320 -0.01418905
v -0.08351696 -0.00809357 -0.01466533
v -0.08351696 -0.00547216 -0.01619338
v -0.08351696 -0.01655229 0.00589400
v -0.07830611 -0.01676178 0.00580668
v -0.07408555 -0.01689199 0.00580668
v -0.06988859 -0.01698825 0.00580668
v -0.06147106 -0.01711847 0.00580668
v -0.05725050 -0.01717509 0.00580668
v -0.05305353 -0.01722604 0.00580668
v -0.05725050 -0.01629751 0.00834286
v -0.04883297 -0.01435551 0.01048214
v -0.04883297 -0.01726001 0.00580668
v -0.04463599 -0.01728832 0.00580668
v -0.04463599 -0.01437816 0.01049405
v 0.02692477 -0.01471787 0.01070440
v 0.03112175 -0.01473485 0.01071631
v 0.04373625 -0.01478581 0.01074806
v 0.03534230 -0.01475184 0.01072822
v 0.12791153 -0.01508022 0.01096636
v 0.13210849 -0.01509154 0.01097826
v 0.13632905 -0.01509154 0.01098620
v 0.06057131 -0.01484809 0.01079172
v 0.09424141 -0.01496699 0.01087904
v 0.14052603 -0.01504625 0.01096239
v 0.14474658 -0.01492735 0.01088301
v 0.14894355 -0.01476316 0.01077585
v 0.15316410 -0.01457632 0.01067265
v 0.15736108 -0.01437250 0.01054565
v 0.15736108 -0.01029034 -0.01430415
v 0.15618215 -0.01182469 -0.01316505
v 0.15316410 -0.01185866 -0.01319283
v 0.14474658 -0.01191528 -0.01324046
v 0.14052603 -0.01194359 -0.01326031
v 0.13632905 -0.01196624 -0.01328412
v 0.13210849 -0.01197756 -0.01329206
v 0.12791153 -0.01197190 -0.01329206
v 0.12369097 -0.01196624 -0.01328809
v 0.06476828 -0.01186998 -0.01320474
v 0.11527345 -0.01195491 -0.01327618
v 0.02270422 -0.00966755 -0.01479233
v 0.06057131 -0.01186432 -0.01319680
v 0.04373625 -0.01182469 -0.01316108
v -0.00674533 -0.01170013 -0.01304995
v -0.01516286 -0.01167748 -0.01303011
v 0.03951570 -0.01181337 -0.01315314
v -0.01938342 -0.01165484 -0.01301026
v -0.02358039 -0.01162087 -0.01298248
v -0.02780094 -0.01158123 -0.01294676
v -0.03621847 -0.01149631 -0.01287532
v -0.04463599 -0.01141138 -0.01279990
v -0.06147106 -0.01123586 -0.01265305
v -0.07408555 -0.01110564 -0.01253398
v -0.08351696 -0.01051115 -0.01284753
v -0.08351696 -0.01667685 0.00481444
v -0.08250309 -0.01660891 0.00580668
v -0.08351696 -0.01701655 0.00159956
v -0.07830611 -0.01719773 0.00159956
v -0.07408555 -0.01731663 0.00159956
v -0.06988859 -0.01741288 0.00159956
v -0.06147106 -0.01758273 0.00159956
v -0.05725050 -0.01766766 0.00159956
v -0.05305353 -0.01774693 0.00159956
v -0.04883297 -0.01781487 0.00159956
v -0.04463599 -0.01787149 0.00159956
v -0.04041544 -0.01791112 0.00159956
v -0.05305353 -0.01631449 0.00836271
v -0.03621847 -0.01793943 0.00159956
v -0.03621847 -0.01733362 0.00580668
v 0.04373625 -0.01646170 0.00864450
v 0.11107647 -0.01655795 0.00881914
v 0.13210849 -0.01658626 0.00887470
v 0.13632905 -0.01659192 0.00888264
v -0.04883297 -0.01632015 0.00837858
v -0.04041544 -0.01633714 0.00840239
v 0.14052603 -0.01658626 0.00885883
v 0.14474658 -0.01654096 0.00877945
v 0.14894355 -0.01648435 0.00867229
v 0.15316410 -0.01642207 0.00856909
v 0.15736108 -0.01636545 0.00843812
v 0.15736108 -0.01330242 -0.01167668
v 0.15316410 -0.01396485 -0.01116865
v 0.14474658 -0.01622957 -0.00922385
v 0.14474658 -0.01402147 -0.01132741
v 0.14052603 -0.01404977 -0.01137901
v 0.13632905 -0.01407242 -0.01138695
v 0.13210849 -0.01408375 -0.01137901
v 0.12369097 -0.01407242 -0.01136313
v 0.11949399 -0.01406676 -0.01135519
v 0.10265894 -0.01403845 -0.01131947
v 0.08160334 -0.01400448 -0.01127185
v 0.05635075 -0.01395919 -0.01121628
v -0.00254836 -0.01389124 -0.01101386
v -0.02690496 -0.01599743 -0.00892618
v -0.02971080 -0.01599177 -0.00891824
v -0.03199792 -0.01387426 -0.01080748
v -0.03621847 -0.01383463 -0.01077176
v -0.05725050 -0.01128116 -0.01268877
v -0.04463599 -0.01373838 -0.01069634
v -0.06147106 -0.01354021 -0.01054949
v -0.08351696 -0.01100939 -0.01242682
v -0.08351696 -0.01695428 0.00060335
v -0.08351696 -0.01673913 -0.00260756
v -0.07408555 -0.01698258 -0.00260756
v -0.08250309 -0.01676744 -0.00260756
v -0.07830611 -0.01688067 -0.00260756
v -0.06147106 -0.01726001 -0.00260756
v -0.05305353 -0.01744119 -0.00260756
v -0.04883297 -0.01753178 -0.00260756
v -0.04463599 -0.01761104 -0.00260756
v -0.04041544 -0.01766766 -0.00260756
v -0.03621847 -0.01770729 -0.00260756
v -0.02780094 -0.01736192 0.00580668
v 0.07318581 -0.01769597 0.00580668
v 0.13210849 -0.01787715 0.00580668
v -0.03199792 -0.01795641 0.00159956
v -0.00254836 -0.01784884 -0.00260756
v 0.03951570 -0.01801869 -0.00260756
v 0.05635075 -0.01808663 -0.00260756
v 0.07318581 -0.01835840 0.00159956
v 0.13632905 -0.01857355 0.00159956
v 0.13632905 -0.01788847 0.00580668
v 0.14052603 -0.01787149 0.00580668
v 0.14474658 -0.01778090 0.00580668
v 0.15316410 -0.01751479 0.00580668
v 0.15736108 -0.01737891 0.00580668
v 0.15736108 -0.01604273 -0.00898174
v 0.15316410 -0.01610501 -0.00906509
v 0.14474658 -0.01728266 -0.00681468
v 0.14052603 -0.01736759 -0.00681468
v 0.14052603 -0.01626920 -0.00927148
v 0.13632905 -0.01628052 -0.00928339
v 0.13210849 -0.01627486 -0.00927545
v 0.11527345 -0.01624655 -0.00923973
v 0.08582388 -0.01619560 -0.00917622
v 0.02270422 -0.01608802 -0.00903731
v 0.01008972 -0.01606537 -0.00900953
v -0.01938342 -0.01601442 -0.00894205
v 0.13210849 -0.01737325 -0.00681468
v -0.00674533 -0.01685802 -0.00681468
v -0.02810746 -0.01662023 -0.00723539
v -0.03199792 -0.01676744 -0.00678293
v -0.03621847 -0.01675611 -0.00671149
v -0.03199792 -0.01598045 -0.00888649
v 0.11107647 -0.01729964 -0.00681468
v 0.09843838 -0.01725435 -0.00681468
v 0.03951570 -0.01703354 -0.00681468
v -0.06566803 -0.01348360 -0.01050980
v -0.08351696 -0.01264565 -0.01081938
v -0.06988859 -0.01341565 -0.01047011
v -0.07408555 -0.01333639 -0.01043042
v -0.08351696 -0.01663155 -0.00322672
v -0.08351696 -0.01623523 -0.00533425
v -0.08250309 -0.01625221 -0.00536600
v -0.07830611 -0.01630883 -0.00552873
v -0.06988859 -0.01641074 -0.00585419
v -0.04463599 -0.01669383 -0.00652891
v -0.04041544 -0.01673346 -0.00662417
v -0.06147106 -0.01650699 -0.00611614
v -0.05725050 -0.01655795 -0.00622330
v -0.04883297 -0.01665420 -0.00643366
v 0.06057131 -0.01810362 -0.00260756
v 0.08582388 -0.01819987 -0.00260756
v 0.10685591 -0.01827914 -0.00260756
v 0.13210849 -0.01836972 -0.00260756
v 0.13632905 -0.01838105 -0.00260756
v 0.14052603 -0.01836406 -0.00260756
v 0.14052603 -0.01855090 0.00159956
v 0.14474658 -0.01845465 0.00159956
v 0.15736108 -0.01738457 0.00578684
v 0.15736108 -0.01687501 -0.00682659
v 0.15316410 -0.01701655 -0.00681468
v 0.14894355 -0.01715244 -0.00681468
v 0.14474658 -0.01827347 -0.00260756
v 0.13632905 -0.01738457 -0.00681468
v 0.05215378 -0.01613898 -0.00910081
v -0.00674533 -0.01603707 -0.00896984
v -0.01096589 -0.01684104 -0.00681468
v -0.01938342 -0.01680707 -0.00681468
v -0.02358039 -0.01679008 -0.00681468
v -0.03621847 -0.01594081 -0.00881505
v -0.08351696 -0.01314389 -0.01031929
v -0.04041544 -0.01588986 -0.00872773
v -0.08351696 -0.01600309 -0.00583037
v -0.06988859 -0.01552184 -0.00795775
v -0.06566803 -0.01558978 -0.00810063
v -0.06566803 -0.01645604 -0.00599707
v -0.06147106 -0.01564074 -0.00821970
v -0.05725050 -0.01569169 -0.00833083
v -0.05305353 -0.01574265 -0.00843402
v -0.04883297 -0.01579361 -0.00853722
v 0.15316410 -0.01817156 0.00159956
v 0.15736108 -0.01802435 0.00159956
v 0.15736108 -0.01784318 -0.00260756
v 0.15316410 -0.01799038 -0.00260756
v -0.08351696 -0.01474617 -0.00814032
v -0.08351696 -0.01524441 -0.00743781
v -0.07830611 -0.01535199 -0.00763626
v 0.15736108 -0.01802435 0.00157575
f 1 2 3
f 1 3 4
f 1 4 5
f 1 5 6
f 1 6 25
f 1 25 57
f 1 57 96
f 1 96 131
f 1 131 167
f 1 167 199
f 1 199 233
f 1 233 265
f 1 265 299
f 1 299 343
f 1 343 344
f 1 344 389
f 1 389 388
f 1 388 435
f 1 435 490
f 1 490 542
f 1 542 595
f 1 595 645
f 1 645 641
f 1 641 693
f 1 693 747
f 1 747 798
f 1 798 844
f 1 844 888
f 1 888 911
f 1 911 917
f 1 917 912
f 1 912 889
f 1 889 845
f 1 845 799
f 1 799 748
f 1 748 695
f 1 695 646
f 1 646 597
f 1 597 547
f 1 547 545
f 1 545 496
f 1 496 494
f 1 494 440
f 1 440 390
f 1 390 345
f 1 345 303
f 1 303 270
f 1 270 237
f 1 237 205
f 1 205 172
f 1 172 132
f 1 132 98
f 1 98 60
f 1 60 26
f 1 26 7
f 1 7 8
f 1 8 9
f 1 9 10
f 1 10 11
f 1 11 2
f 2 12 3
f 2 11 12
f 3 13 14
f 3 14 15
f 3 15 16
f 3 16 4
f 3 12 17
f 3 17 18
f 3 18 19
f 3 19 20
f 3 20 21
f 3 21 13
f 4 16 22
f 4 22 5
f 5 22 23
f 5 23 6
f 6 24 25
f 6 23 24
f 7 26 27
f 7 27 28
f 7 28 29
f 7 29 8
f 8 30 9
f 8 29 30
f 9 31 32
f 9 32 33
f 9 33 10
f 9 30 31
f 10 33 34
f 10 34 35
f 10 35 36
f 10 36 37
f 10 37 38
f 10 38 11
f 11 18 39
f 11 39 17
f 11 17 12
f 11 38 19
f 11 19 18
f 13 40 41
f 13 41 14
f 13 21 40
f 14 16 15
f 14 41 42
f 14 42 16
f 16 42 43
f 16 43 22
f 17 39 18
f 19 38 20
f 20 38 78
f 20 78 112
f 20 112 144
f 20 144 186
f 20 186 139
f 20 139 185
f 20 185 184
f 20 184 213
f 20 213 249
f 20 249 283
f 20 283 324
f 20 324 321
f 20 321 370
f 20 370 418
f 20 418 417
f 20 417 470
f 20 470 469
f 20 469 522
f 20 522 521
f 20 521 570
f 20 570 569
f 20 569 622
f 20 622 621
f 20 621 667
f 20 667 721
f 20 721 720
f 20 720 719
f 20 719 772
f 20 772 819
f 20 819 867
f 20 867 900
f 20 900 914
f 20 914 915
f 20 915 902
f 20 902 871
f 20 871 870
f 20 870 821
f 20 821 820
f 20 820 775
f 20 775 773
f 20 773 722
f 20 722 672
f 20 672 671
f 20 671 670
f 20 670 669
f 20 669 624
f 20 624 571
f 20 571 523
f 20 523 471
f 20 471 419
f 20 419 371
f 20 371 329
f 20 329 286
f 20 286 251
f 20 251 216
f 20 216 214
f 20 214 188
f 20 188 151
f 20 151 113
f 20 113 83
f 20 83 82
f 20 82 81
f 20 81 79
f 20 79 44
f 20 44 21
f 21 44 45
f 21 45 41
f 21 41 46
f 21 46 40
f 22 47 23
f 22 43 47
f 23 47 48
f 23 48 49
f 23 49 24
f 24 49 50
f 24 50 51
f 24 51 52
f 24 52 53
f 24 53 54
f 24 54 25
f 25 55 56
f 25 56 57
f 25 54 58
f 25 58 59
f 25 59 55
f 26 60 61
f 26 61 62
f 26 62 63
f 26 63 64
f 26 64 65
f 26 65 27
f 27 65 66
f 27 66 64
f 27 64 28
f 28 64 67
f 28 67 68
f 28 68 69
f 28 69 70
f 28 70 71
f 28 71 72
f 28 72 73
f 28 73 74
f 28 74 75
f 28 75 29
f 29 32 30
f 29 75 76
f 29 76 32
f 30 32 31
f 32 76 35
f 32 35 34
f 32 34 77
f 32 77 33
f 33 77 34
f 35 76 36
f 36 76 37
f 37 76 38
f 38 76 78
f 40 46 41
f 41 45 79
f 41 79 80
f 41 80 81
f 41 81 42
f 42 81 43
f 43 81 82
f 43 82 83
f 43 83 47
f 44 79 45
f 47 83 48
f 48 83 84
f 48 84 85
f 48 85 49
f 49 86 87
f 49 87 88
f 49 88 50
f 49 85 86
f 50 88 89
f 50 89 51
f 51 89 52
f 52 89 90
f 52 90 53
f 53 90 54
f 54 91 58
f 54 90 91
f 55 59 92
f 55 92 93
f 55 93 94
f 55 94 56
f 56 95 96
f 56 96 57
f 56 94 97
f 56 97 95
f 58 91 92
f 58 92 59
f 60 98 99
f 60 99 100
f 60 100 101
f 60 101 61
f 61 101 62
f 62 101 102
f 62 102 63
f 63 102 103
f 63 103 64
f 64 103 104
f 64 104 67
f 64 66 65
f 67 104 105
f 67 105 106
f 67 106 107
f 67 107 108
f 67 108 68
f 68 108 109
f 68 109 110
f 68 110 69
f 69 110 109
f 69 109 111
f 69 111 112
f 69 112 70
f 70 112 71
f 71 112 72
f 72 112 73
f 73 112 74
f 74 112 75
f 75 112 76
f 76 112 78
f 79 81 80
f 83 113 84
f 84 113 114
f 84 114 85
f 85 114 115
f 85 115 86
f 86 115 87
f 87 115 116
f 87 116 88
f 88 116 89
f 89 117 118
f 89 118 119
f 89 119 120
f 89 120 121
f 89 121 122
f 89 122 90
f 89 116 123
f 89 123 124
f 89 124 117
f 90 122 91
f 91 122 125
f 91 125 92
f 92 125 126
f 92 126 93
f 93 126 94
f 94 126 127
f 94 127 97
f 95 97 127
f 95 127 128
f 95 128 129
f 95 129 130
f 95 130 96
f 96 130 131
f 98 132 99
f 99 132 100
f 100 132 101
f 101 133 102
f 101 132 134
f 101 134 135
f 101 135 133
f 102 133 136
f 102 136 103
f 103 137 104
f 103 136 137
f 104 138 105
f 104 137 138
f 105 138 106
f 106 138 107
f 107 138 139
f 107 139 140
f 107 140 108
f 108 140 141
f 108 141 142
f 108 142 143
f 108 143 109
f 109 143 144
f 109 144 111
f 111 144 112
f 113 145 146
f 113 146 147
f 113 147 124
f 113 124 123
f 113 123 148
f 113 148 149
f 113 149 150
f 113 150 114
f 113 151 152
f 113 152 153
f 113 153 154
f 113 154 155
f 113 155 156
f 113 156 145
f 114 150 115
f 115 150 149
f 115 149 148
f 115 148 116
f 116 148 123
f 117 124 118
f 118 124 119
f 119 124 120
f 120 124 121
f 121 124 147
f 121 147 146
f 121 146 145
f 121 145 156
f 121 156 122
f 122 157 158
f 122 158 159
f 122 159 160
f 122 160 125
f 122 156 155
f 122 155 154
f 122 154 153
f 122 153 161
f 122 161 162
f 122 162 163
f 122 163 164
f 122 164 157
f 125 160 126
f 126 160 165
f 126 165 127
f 127 165 128
f 128 165 129
f 129 165 166
f 129 166 130
f 130 166 131
f 131 166 168
f 131 168 169
f 131 169 170
f 131 170 171
f 131 171 167
f 132 172 134
f 133 135 172
f 133 172 173
f 133 173 136
f 134 172 135
f 136 174 177
f 136 177 137
f 136 173 175
f 136 175 176
f 136 176 174
f 137 177 178
f 137 178 179
f 137 179 138
f 138 179 180
f 138 180 181
f 138 181 182
f 138 182 183
f 138 183 184
f 138 184 185
f 138 185 139
f 139 186 143
f 139 143 142
f 139 142 141
f 139 141 140
f 143 186 144
f 151 187 152
f 151 188 189
f 151 189 190
f 151 190 191
f 151 191 192
f 151 192 187
f 152 187 161
f 152 161 153
f 157 164 187
f 157 187 192
f 157 192 158
f 158 192 159
f 159 192 160
f 160 192 193
f 160 193 194
f 160 194 195
f 160 195 196
f 160 196 165
f 161 187 162
f 162 164 163
f 162 187 164
f 165 196 197
f 165 197 166
f 166 197 168
f 167 198 199
f 167 171 200
f 167 200 201
f 167 201 198
f 168 197 202
f 168 202 169
f 169 202 170
f 170 202 203
f 170 203 204
f 170 204 171
f 171 204 200
f 172 205 173
f 173 205 175
f 174 176 205
f 174 205 177
f 175 205 176
f 177 205 178
f 178 205 206
f 178 206 207
f 178 207 179
f 179 207 208
f 179 208 180
f 180 208 209
f 180 209 210
f 180 210 211
f 180 211 212
f 180 212 184
f 180 184 181
f 181 184 182
f 182 184 183
f 184 212 213
f 188 214 215
f 188 215 189
f 189 215 216
f 189 216 190
f 190 217 218
f 190 218 219
f 190 219 191
f 190 216 220
f 190 220 193
f 190 193 192
f 190 192 217
f 191 219 218
f 191 218 192
f 192 218 217
f 193 220 194
f 194 220 195
f 195 220 221
f 195 221 222
f 195 222 196
f 196 223 224
f 196 224 197
f 196 222 225
f 196 225 226
f 196 226 227
f 196 227 228
f 196 228 229
f 196 229 223
f 197 224 230
f 197 230 202
f 198 201 231
f 198 231 199
f 199 231 232
f 199 232 233
f 200 204 230
f 200 230 234
f 200 234 235
f 200 235 201
f 201 235 236
f 201 236 231
f 202 230 203
f 203 230 204
f 205 237 238
f 205 238 239
f 205 239 240
f 205 240 241
f 205 241 242
f 205 242 243
f 205 243 206
f 206 243 207
f 207 243 244
f 207 244 245
f 207 245 246
f 207 246 247
f 207 247 248
f 207 248 208
f 208 248 249
f 208 249 209
f 209 249 210
f 210 249 213
f 210 213 211
f 211 213 212
f 214 216 215
f 216 250 220
f 216 251 252
f 216 252 253
f 216 253 254
f 216 254 250
f 220 250 254
f 220 254 255
f 220 255 226
f 220 226 225
f 220 225 222
f 220 222 221
f 223 256 257
f 223 257 258
f 223 258 224
f 223 229 259
f 223 259 256
f 224 258 260
f 224 260 230
f 226 261 227
f 226 255 261
f 227 261 262
f 227 262 228
f 228 262 259
f 228 259 229
f 230 260 263
f 230 263 234
f 231 236 264
f 231 264 232
f 232 264 233
f 233 264 266
f 233 266 267
f 233 267 268
f 233 268 269
f 233 269 265
f 234 263 235
f 235 263 236
f 236 263 264
f 237 270 271
f 237 271 272
f 237 272 273
f 237 273 274
f 237 274 238
f 238 274 239
f 239 274 275
f 239 275 240
f 240 275 276
f 240 276 277
f 240 277 278
f 240 278 241
f 241 278 242
f 242 278 279
f 242 279 280
f 242 280 281
f 242 281 282
f 242 282 243
f 243 282 244
f 244 282 245
f 245 282 246
f 246 282 283
f 246 283 247
f 247 283 248
f 248 283 249
f 251 284 285
f 251 285 252
f 251 286 287
f 251 287 288
f 251 288 289
f 251 289 290
f 251 290 291
f 251 291 292
f 251 292 293
f 251 293 284
f 252 285 258
f 252 258 253
f 253 258 255
f 253 255 254
f 255 258 257
f 255 257 256
f 255 256 259
f 255 259 262
f 255 262 261
f 258 293 292
f 258 292 291
f 258 291 290
f 258 290 289
f 258 289 288
f 258 288 260
f 258 285 284
f 258 284 293
f 260 288 294
f 260 294 295
f 260 295 263
f 263 295 296
f 263 296 264
f 264 296 297
f 264 297 298
f 264 298 266
f 265 269 299
f 266 298 267
f 267 298 268
f 268 298 269
f 269 300 299
f 269 298 301
f 269 301 302
f 269 302 300
f 270 303 304
f 270 304 305
f 270 305 306
f 270 306 307
f 270 307 308
f 270 308 271
f 271 308 272
f 272 308 309
f 272 309 273
f 273 309 274
f 274 309 275
f 275 309 310
f 275 310 311
f 275 311 276
f 276 311 312
f 276 312 313
f 276 313 314
f 276 314 277
f 277 314 278
f 278 314 315
f 278 315 316
f 278 316 317
f 278 317 318
f 278 318 319
f 278 319 320
f 278 320 282
f 278 282 279
f 279 282 280
f 280 282 281
f 282 321 322
f 282 322 283
f 282 320 323
f 282 323 321
f 283 322 325
f 283 325 324
f 286 326 327
f 286 327 328
f 286 328 287
f 286 329 330
f 286 330 331
f 286 331 332
f 286 332 333
f 286 333 334
f 286 334 326
f 287 328 288
f 288 328 327
f 288 327 294
f 294 334 333
f 294 333 332
f 294 332 331
f 294 331 335
f 294 335 336
f 294 336 295
f 294 327 326
f 294 326 334
f 295 336 337
f 295 337 296
f 296 337 338
f 296 338 297
f 297 338 339
f 297 339 298
f 298 340 341
f 298 341 342
f 298 342 301
f 298 339 340
f 299 300 343
f 300 344 343
f 300 302 344
f 301 342 302
f 302 342 344
f 303 345 346
f 303 346 304
f 304 346 347
f 304 347 348
f 304 348 305
f 305 348 306
f 306 348 349
f 306 349 307
f 307 349 308
f 308 349 309
f 309 349 350
f 309 350 351
f 309 351 352
f 309 352 353
f 309 353 310
f 310 353 354
f 310 354 311
f 311 354 355
f 311 355 356
f 311 356 312
f 312 356 357
f 312 357 313
f 313 357 358
f 313 358 314
f 314 358 359
f 314 359 360
f 314 360 361
f 314 361 315
f 315 361 362
f 315 362 363
f 315 363 364
f 315 364 365
f 315 365 366
f 315 366 316
f 316 366 367
f 316 367 317
f 317 367 368
f 317 368 369
f 317 369 318
f 318 369 370
f 318 370 321
f 318 321 319
f 319 321 320
f 320 321 323
f 321 324 325
f 321 325 322
f 329 371 372
f 329 372 373
f 329 373 374
f 329 374 375
f 329 375 376
f 329 376 377
f 329 377 330
f 330 377 335
f 330 335 331
f 335 378 379
f 335 379 336
f 335 377 376
f 335 376 378
f 336 379 380
f 336 380 381
f 336 381 337
f 337 382 338
f 337 381 382
f 338 383 339
f 338 382 383
f 339 383 384
f 339 384 340
f 340 384 341
f 341 384 342
f 342 384 385
f 342 385 386
f 342 386 387
f 342 387 388
f 342 388 389
f 342 389 344
f 345 390 391
f 345 391 392
f 345 392 346
f 346 393 394
f 346 394 347
f 346 392 393
f 347 394 348
f 348 394 395
f 348 395 349
f 349 395 396
f 349 396 397
f 349 397 350
f 350 397 398
f 350 398 399
f 350 399 351
f 351 399 400
f 351 400 352
f 352 400 353
f 353 400 401
f 353 401 402
f 353 402 354
f 354 402 403
f 354 403 404
f 354 404 355
f 355 404 405
f 355 405 406
f 355 406 356
f 356 406 407
f 356 407 357
f 357 407 408
f 357 408 358
f 358 408 409
f 358 409 410
f 358 410 411
f 358 411 359
f 359 411 412
f 359 412 360
f 360 412 413
f 360 413 361
f 361 413 414
f 361 414 415
f 361 415 416
f 361 416 362
f 362 416 417
f 362 417 363
f 363 417 364
f 364 417 365
f 365 417 366
f 366 417 418
f 366 418 367
f 367 418 368
f 368 418 369
f 369 418 370
f 371 419 420
f 371 420 372
f 372 420 421
f 372 421 373
f 373 421 374
f 374 422 423
f 374 423 375
f 374 421 424
f 374 424 425
f 374 425 426
f 374 426 427
f 374 427 422
f 375 423 376
f 376 423 378
f 378 423 422
f 378 422 379
f 379 422 427
f 379 427 426
f 379 426 380
f 380 428 381
f 380 426 429
f 380 429 430
f 380 430 431
f 380 431 428
f 381 428 432
f 381 432 382
f 382 432 433
f 382 433 383
f 383 433 384
f 384 433 434
f 384 434 385
f 385 434 386
f 386 388 387
f 386 434 388
f 388 434 436
f 388 436 437
f 388 437 438
f 388 438 439
f 388 439 435
f 390 440 441
f 390 441 442
f 390 442 391
f 391 442 393
f 391 393 392
f 393 442 495
f 393 495 443
f 393 443 444
f 393 444 445
f 393 445 394
f 394 446 447
f 394 447 395
f 394 445 446
f 395 447 448
f 395 448 396
f 396 448 449
f 396 449 397
f 397 449 398
f 398 449 450
f 398 450 451
f 398 451 399
f 399 451 400
f 400 452 453
f 400 453 401
f 400 451 454
f 400 454 452
f 401 453 455
f 401 455 456
f 401 456 402
f 402 456 457
f 402 457 403
f 403 457 458
f 403 458 404
f 404 458 459
f 404 459 460
f 404 460 405
f 405 460 461
f 405 461 462
f 405 462 463
f 405 463 406
f 406 463 464
f 406 464 407
f 407 464 408
f 408 464 465
f 408 465 466
f 408 466 467
f 408 467 409
f 409 467 468
f 409 468 410
f 410 468 469
f 410 469 411
f 411 469 412
f 412 469 413
f 413 469 414
f 414 469 415
f 415 469 470
f 415 470 416
f 416 470 417
f 419 471 472
f 419 472 473
f 419 473 420
f 420 473 474
f 420 474 421
f 421 474 475
f 421 475 424
f 424 476 477
f 424 477 425
f 424 475 478
f 424 478 479
f 424 479 480
f 424 480 481
f 424 481 482
f 424 482 476
f 425 477 429
f 425 429 426
f 428 483 432
f 428 431 484
f 428 484 485
f 428 485 486
f 428 486 487
f 428 487 483
f 429 477 476
f 429 476 482
f 429 482 430
f 430 482 481
f 430 481 431
f 431 481 484
f 432 483 488
f 432 488 433
f 433 488 489
f 433 489 434
f 434 489 436
f 435 439 491
f 435 491 492
f 435 492 493
f 435 493 490
f 436 489 437
f 437 489 438
f 438 489 439
f 439 489 491
f 440 494 441
f 441 494 442
f 442 494 495
f 443 495 496
f 443 496 444
f 444 496 445
f 445 496 497
f 445 497 446
f 446 497 498
f 446 498 499
f 446 499 500
f 446 500 447
f 447 501 448
f 447 500 502
f 447 502 501
f 448 503 449
f 448 501 503
f 449 503 504
f 449 504 450
f 450 504 451
f 451 504 505
f 451 505 454
f 452 454 505
f 452 505 506
f 452 506 453
f 453 506 507
f 453 507 455
f 455 507 508
f 455 508 509
f 455 509 456
f 456 509 510
f 456 510 511
f 456 511 457
f 457 511 512
f 457 512 458
f 458 512 513
f 458 513 459
f 459 513 514
f 459 514 460
f 460 514 461
f 461 514 462
f 462 514 515
f 462 515 463
f 463 515 516
f 463 516 464
f 464 516 517
f 464 517 518
f 464 518 465
f 465 518 519
f 465 519 520
f 465 520 466
f 466 520 467
f 467 520 521
f 467 521 468
f 468 521 522
f 468 522 469
f 471 523 472
f 472 523 524
f 472 524 473
f 473 525 474
f 473 524 525
f 474 525 526
f 474 526 475
f 475 526 478
f 478 526 479
f 479 527 528
f 479 528 480
f 479 526 529
f 479 529 530
f 479 530 527
f 480 528 484
f 480 484 481
f 483 531 532
f 483 532 488
f 483 487 533
f 483 533 534
f 483 534 535
f 483 535 536
f 483 536 537
f 483 537 538
f 483 538 531
f 484 528 485
f 485 528 533
f 485 533 486
f 486 533 487
f 488 532 539
f 488 539 489
f 489 539 540
f 489 540 541
f 489 541 491
f 490 493 543
f 490 543 544
f 490 544 542
f 491 541 492
f 492 541 493
f 493 541 543
f 494 496 495
f 496 545 497
f 497 545 498
f 498 545 499
f 499 545 500
f 500 545 546
f 500 546 502
f 501 502 547
f 501 547 548
f 501 548 549
f 501 549 503
f 502 546 547
f 503 550 504
f 503 549 551
f 503 551 550
f 504 552 505
f 504 550 552
f 505 552 506
f 506 552 553
f 506 553 554
f 506 554 555
f 506 555 556
f 506 556 557
f 506 557 507
f 507 557 558
f 507 558 508
f 508 558 509
f 509 558 559
f 509 559 510
f 510 559 560
f 510 560 561
f 510 561 511
f 511 561 512
f 512 561 562
f 512 562 513
f 513 562 563
f 513 563 514
f 514 563 515
f 515 563 516
f 516 563 564
f 516 564 565
f 516 565 517
f 517 565 566
f 517 566 567
f 517 567 518
f 518 567 568
f 518 568 569
f 518 569 519
f 519 569 570
f 519 570 520
f 520 570 521
f 523 571 524
f 524 572 573
f 524 573 525
f 524 571 572
f 525 573 574
f 525 574 526
f 526 574 575
f 526 575 529
f 527 530 576
f 527 576 577
f 527 577 528
f 528 577 533
f 529 575 578
f 529 578 530
f 530 578 576
f 531 538 579
f 531 579 580
f 531 580 581
f 531 581 582
f 531 582 583
f 531 583 584
f 531 584 532
f 532 585 539
f 532 584 586
f 532 586 585
f 533 577 587
f 533 587 534
f 534 587 537
f 534 537 535
f 535 537 536
f 537 587 588
f 537 588 538
f 538 588 579
f 539 585 589
f 539 589 590
f 539 590 540
f 540 590 591
f 540 591 541
f 541 591 592
f 541 592 593
f 541 593 594
f 541 594 544
f 541 544 543
f 542 544 594
f 542 594 596
f 542 596 595
f 545 547 546
f 547 597 598
f 547 598 548
f 548 598 549
f 549 598 599
f 549 599 551
f 550 600 552
f 550 551 601
f 550 601 602
f 550 602 603
f 550 603 600
f 551 599 601
f 552 600 604
f 552 604 605
f 552 605 606
f 552 606 607
f 552 607 608
f 552 608 609
f 552 609 553
f 553 609 610
f 553 610 554
f 554 610 555
f 555 610 556
f 556 610 557
f 557 610 558
f 558 610 559
f 559 610 560
f 560 610 611
f 560 611 561
f 561 611 612
f 561 612 562
f 562 612 613
f 562 613 563
f 563 613 614
f 563 614 615
f 563 615 616
f 563 616 564
f 564 616 565
f 565 616 617
f 565 617 618
f 565 618 619
f 565 619 620
f 565 620 621
f 565 621 566
f 566 621 567
f 567 621 568
f 568 621 622
f 568 622 623
f 568 623 569
f 569 623 622
f 571 624 625
f 571 625 572
f 572 625 626
f 572 626 627
f 572 627 573
f 573 627 628
f 573 628 574
f 574 628 575
f 575 628 578
f 576 578 588
f 576 588 577
f 577 588 587
f 578 629 630
f 578 630 588
f 578 628 631
f 578 631 629
f 579 588 580
f 580 588 632
f 580 632 581
f 581 632 582
f 582 632 583
f 583 632 584
f 584 632 633
f 584 633 634
f 584 634 635
f 584 635 585
f 584 585 586
f 585 635 636
f 585 636 589
f 588 630 637
f 588 637 632
f 589 636 638
f 589 638 590
f 590 638 639
f 590 639 591
f 591 639 592
f 592 639 593
f 593 640 641
f 593 641 642
f 593 642 595
f 593 595 596
f 593 596 594
f 593 639 643
f 593 643 640
f 595 642 644
f 595 644 645
f 597 646 647
f 597 647 599
f 597 599 598
f 599 647 601
f 600 603 648
f 600 648 649
f 600 649 650
f 600 650 651
f 600 651 652
f 600 652 653
f 600 653 604
f 601 647 648
f 601 648 602
f 602 648 603
f 604 653 654
f 604 654 605
f 605 654 655
f 605 655 656
f 605 656 606
f 606 656 657
f 606 657 607
f 607 657 608
f 608 657 609
f 609 657 658
f 609 658 659
f 609 659 610
f 610 659 660
f 610 660 611
f 611 660 661
f 611 661 662
f 611 662 612
f 612 662 663
f 612 663 613
f 613 663 664
f 613 664 614
f 614 664 615
f 615 664 616
f 616 664 665
f 616 665 666
f 616 666 617
f 617 666 618
f 618 666 619
f 619 666 620
f 620 667 621
f 620 666 668
f 620 668 667
f 624 669 625
f 625 669 670
f 625 670 671
f 625 671 626
f 626 671 672
f 626 672 673
f 626 673 627
f 627 674 628
f 627 673 675
f 627 675 674
f 628 676 631
f 628 674 676
f 629 677 630
f 629 631 676
f 629 676 678
f 629 678 677
f 630 677 637
f 632 637 679
f 632 679 633
f 633 679 634
f 634 679 680
f 634 680 681
f 634 681 635
f 635 682 683
f 635 683 684
f 635 684 685
f 635 685 686
f 635 686 687
f 635 687 636
f 635 681 688
f 635 688 682
f 636 687 689
f 636 689 638
f 637 677 679
f 638 689 690
f 638 690 639
f 639 690 691
f 639 691 643
f 640 692 693
f 640 693 641
f 640 643 692
f 641 645 644
f 641 644 642
f 643 691 694
f 643 694 692
f 646 695 647
f 647 696 648
f 647 695 696
f 648 696 649
f 649 696 650
f 650 696 651
f 651 696 652
f 652 696 653
f 653 696 697
f 653 697 698
f 653 698 699
f 653 699 700
f 653 700 654
f 654 700 701
f 654 701 702
f 654 702 655
f 655 703 704
f 655 704 656
f 655 702 703
f 656 704 657
f 657 704 658
f 658 704 659
f 659 705 706
f 659 706 707
f 659 707 660
f 659 704 708
f 659 708 709
f 659 709 705
f 660 707 710
f 660 710 661
f 661 710 662
f 662 710 711
f 662 711 663
f 663 711 712
f 663 712 664
f 664 712 713
f 664 713 714
f 664 714 715
f 664 715 665
f 665 715 716
f 665 716 717
f 665 717 718
f 665 718 719
f 665 719 666
f 666 719 720
f 666 720 721
f 666 721 668
f 667 668 721
f 672 722 723
f 672 723 724
f 672 724 673
f 673 724 675
f 674 725 726
f 674 726 676
f 674 675 725
f 675 724 725
f 676 726 727
f 676 727 728
f 676 728 678
f 677 678 729
f 677 729 730
f 677 730 679
f 678 728 731
f 678 731 732
f 678 732 729
f 679 730 680
f 680 730 681
f 681 730 733
f 681 733 688
f 682 688 733
f 682 733 734
f 682 734 683
f 683 734 684
f 684 734 685
f 685 734 735
f 685 735 686
f 686 736 687
f 686 735 737
f 686 737 736
f 687 738 739
f 687 739 740
f 687 740 689
f 687 736 741
f 687 741 742
f 687 742 738
f 689 740 743
f 689 743 690
f 690 743 744
f 690 744 691
f 691 744 745
f 691 745 746
f 691 746 747
f 691 747 694
f 692 694 747
f 692 747 693
f 695 748 696
f 696 748 749
f 696 749 750
f 696 750 751
f 696 751 752
f 696 752 753
f 696 753 697
f 697 753 698
f 698 753 699
f 699 753 700
f 700 754 701
f 700 753 754
f 701 754 702
f 702 754 755
f 702 755 756
f 702 756 703
f 703 756 704
f 704 757 708
f 704 756 758
f 704 758 757
f 705 709 759
f 705 759 760
f 705 760 706
f 706 760 761
f 706 761 764
f 706 764 707
f 707 762 763
f 707 763 710
f 707 764 762
f 708 757 709
f 709 757 760
f 709 760 759
f 710 763 711
f 711 763 712
f 712 763 765
f 712 765 713
f 713 765 766
f 713 766 714
f 714 766 715
f 715 766 716
f 716 766 717
f 717 766 718
f 718 766 767
f 718 767 719
f 719 767 768
f 719 768 769
f 719 769 770
f 719 770 771
f 719 771 772
f 722 773 774
f 722 774 723
f 723 774 773
f 723 773 775
f 723 775 776
f 723 776 724
f 724 777 778
f 724 778 725
f 724 776 777
f 725 778 779
f 725 779 780
f 725 780 781
f 725 781 782
f 725 782 726
f 726 782 783
f 726 783 727
f 727 783 728
f 728 783 784
f 728 784 731
f 729 732 785
f 729 785 730
f 730 785 733
f 731 784 786
f 731 786 732
f 732 786 787
f 732 787 785
f 733 785 734
f 734 785 735
f 735 785 737
f 736 737 785
f 736 785 741
f 738 742 785
f 738 785 739
f 739 788 789
f 739 789 790
f 739 790 791
f 739 791 740
f 739 785 792
f 739 792 793
f 739 793 788
f 740 791 794
f 740 794 743
f 741 785 742
f 743 794 795
f 743 795 796
f 743 796 797
f 743 797 798
f 743 798 744
f 744 798 745
f 745 798 746
f 746 798 747
f 748 799 749
f 749 799 800
f 749 800 801
f 749 801 802
f 749 802 750
f 750 802 803
f 750 803 751
f 751 803 752
f 752 803 753
f 753 803 804
f 753 804 754
f 754 804 805
f 754 805 755
f 755 805 756
f 756 805 758
f 757 758 805
f 757 805 806
f 757 806 807
f 757 807 760
f 760 807 808
f 760 808 809
f 760 809 810
f 760 810 761
f 761 810 764
f 762 811 812
f 762 812 813
f 762 813 763
f 762 764 811
f 763 813 765
f 764 810 811
f 765 813 766
f 766 813 814
f 766 814 815
f 766 815 767
f 767 815 768
f 768 815 769
f 769 815 816
f 769 816 770
f 770 816 815
f 770 815 771
f 771 815 817
f 771 817 818
f 771 818 819
f 771 819 772
f 775 820 776
f 776 820 821
f 776 821 777
f 777 822 778
f 777 821 823
f 777 823 824
f 777 824 822
f 778 822 825
f 778 825 826
f 778 826 827
f 778 827 779
f 779 827 780
f 780 827 828
f 780 828 781
f 781 828 782
f 782 828 783
f 783 828 829
f 783 829 830
f 783 830 784
f 784 830 786
f 785 793 792
f 785 787 831
f 785 831 832
f 785 832 833
f 785 833 793
f 786 834 787
f 786 830 835
f 786 835 836
f 786 836 837
f 786 837 880
f 786 880 834
f 787 834 838
f 787 838 839
f 787 839 831
f 788 840 789
f 788 793 840
f 789 840 790
f 790 840 791
f 791 840 794
f 793 833 840
f 794 840 841
f 794 841 795
f 795 841 842
f 795 842 796
f 796 842 797
f 797 842 798
f 798 843 844
f 798 842 843
f 799 845 846
f 799 846 800
f 800 846 801
f 801 846 847
f 801 847 848
f 801 848 849
f 801 849 802
f 802 849 803
f 803 849 804
f 804 849 850
f 804 850 805
f 805 850 851
f 805 851 806
f 806 851 807
f 807 851 852
f 807 852 808
f 808 852 809
f 809 852 853
f 809 853 854
f 809 854 810
f 810 854 855
f 810 855 856
f 810 856 812
f 810 812 811
f 812 856 857
f 812 857 813
f 813 858 859
f 813 859 860
f 813 860 861
f 813 861 862
f 813 862 815
f 813 815 814
f 813 857 863
f 813 863 864
f 813 864 865
f 813 865 858
f 815 862 817
f 817 862 818
f 818 866 819
f 818 862 866
f 819 866 868
f 819 868 869
f 819 869 867
f 821 870 823
f 822 824 871
f 822 871 872
f 822 872 825
f 823 870 824
f 824 870 871
f 825 872 826
f 826 872 827
f 827 872 873
f 827 873 874
f 827 874 828
f 828 875 876
f 828 876 829
f 828 874 877
f 828 877 878
f 828 878 879
f 828 879 875
f 829 876 861
f 829 861 830
f 830 861 860
f 830 860 835
f 831 839 832
f 832 839 833
f 833 839 840
f 834 880 838
f 835 860 836
f 836 860 837
f 837 860 880
f 838 880 881
f 838 881 882
f 838 882 883
f 838 883 839
f 839 883 884
f 839 884 885
f 839 885 886
f 839 886 841
f 839 841 840
f 841 886 842
f 842 887 843
f 842 886 887
f 843 888 844
f 843 887 888
f 845 889 890
f 845 890 891
f 845 891 847
f 845 847 846
f 847 891 892
f 847 892 885
f 847 885 848
f 848 885 884
f 848 884 893
f 848 893 849
f 849 893 850
f 850 893 851
f 851 893 852
f 852 893 857
f 852 857 894
f 852 894 854
f 852 854 853
f 854 895 856
f 854 856 855
f 854 894 857
f 854 857 895
f 856 895 857
f 857 893 884
f 857 884 883
f 857 883 863
f 858 860 896
f 858 896 859
f 858 865 881
f 858 881 880
f 858 880 860
f 859 896 897
f 859 897 898
f 859 898 860
f 860 898 897
f 860 897 896
f 861 876 862
f 862 876 899
f 862 899 868
f 862 868 866
f 863 883 864
f 864 883 882
f 864 882 865
f 865 882 881
f 867 869 900
f 868 899 869
f 869 899 901
f 869 901 900
f 871 902 903
f 871 903 904
f 871 904 872
f 872 904 873
f 873 904 874
f 874 904 905
f 874 905 877
f 875 879 899
f 875 899 876
f 877 905 904
f 877 904 906
f 877 906 907
f 877 907 878
f 878 907 908
f 878 908 909
f 878 909 879
f 879 909 901
f 879 901 899
f 885 892 886
f 886 892 887
f 887 892 913
f 887 913 910
f 887 910 888
f 888 910 911
f 889 912 913
f 889 913 892
f 889 892 890
f 890 892 891
f 900 901 909
f 900 909 908
f 900 908 907
f 900 907 906
f 900 906 904
f 900 904 903
f 900 903 914
f 902 915 916
f 902 916 903
f 903 916 914
f 910 913 917
f 910 917 911
f 912 917 913
f 914 916 915

