# Blender 4.4.0
# www.blender.org
mtllib decomposed_0.mtl
o decomposed_(1)
v -35.305599 31.388000 2.036068
v -35.305599 31.271200 -1.661262
v -38.999699 31.328300 2.036068
v -38.999699 30.373301 5.494778
v -35.305599 30.386200 5.424878
v -31.603100 30.326500 5.388728
v -27.900600 30.238300 5.287498
v -31.603100 31.258200 2.036068
v -27.900600 31.125900 -1.661262
v -35.305599 30.269501 -4.821112
v -38.999699 30.259100 -4.789773
v -38.999699 31.211500 -1.661262
v -27.900600 30.238300 -4.780132
v -42.702099 31.128401 2.036068
v -50.098701 30.048901 4.911498
v -46.396198 30.170799 5.152518
v -42.702099 30.277201 5.415237
v -38.999699 29.441601 7.343448
v -42.702099 29.400101 7.266318
v -31.603100 29.392300 7.239798
v -27.900600 29.340401 7.138567
v -27.900600 31.125900 2.036068
v -26.884701 30.204599 5.217597
v -26.884701 31.079100 -1.661262
v -26.884701 30.856001 -2.454242
v -26.884701 30.212400 -4.717473
v -31.603100 30.233101 -4.845212
v -31.603100 29.252199 -6.693872
v -35.305599 29.226200 -6.672183
v -38.999699 29.174299 -6.638443
v -42.702099 29.099001 -6.491412
v -42.702099 30.147499 -4.642752
v -46.396198 30.056601 -4.425822
v -46.396198 30.791100 -1.661262
v -27.900600 29.179501 -6.631212
v -46.396198 30.905300 2.036068
v -50.098701 29.104200 6.760158
v -50.098701 30.599001 2.036068
v -96.938103 25.979601 4.096828
v -33.651600 25.904400 11.293898
v -33.391399 25.904400 11.293898
v -46.396198 27.383600 9.189698
v -42.702099 27.552299 9.235488
v -98.180702 23.156099 8.898058
v -26.884701 27.453699 9.016158
v -26.884701 29.301500 7.066267
v -26.884701 29.553200 6.557698
v -26.884701 31.071400 2.036068
v -26.884701 31.079100 1.018938
v -26.884701 29.138000 -6.566133
v -27.900600 27.329100 -8.499152
v -31.603100 27.401800 -8.491922
v -38.999699 27.326500 -8.475052
v -42.702099 27.251301 -8.450952
v -46.396198 28.964100 -6.274492
v -46.396198 27.113701 -8.369002
v -53.801201 26.771200 -8.103872
v -98.180702 23.106800 -8.111102
v -98.180702 24.954599 -5.512852
v -100.044998 25.891399 -3.519572
v -50.098701 29.895700 -4.119722
v -103.856003 25.943300 0.001810
v -26.884701 28.631901 -7.110852
v -98.172302 25.120701 5.489958
v -103.856003 25.943300 0.363348
v -101.875000 25.546301 2.645858
v -101.875000 24.256500 5.733398
v -31.603100 20.340401 11.580698
v -98.180702 20.729601 10.746698
v -98.180702 18.881901 11.351699
v -95.796303 18.970100 11.363698
v -26.884701 20.524599 11.474598
v -26.884701 20.968399 11.419198
v -26.884701 21.552299 11.344498
v -26.884701 22.709700 11.158898
v -26.884701 23.833500 10.917898
v -101.875000 22.751301 8.247288
v -26.884701 27.287600 -8.467822
v -26.884701 26.651800 -8.976382
v -26.884701 24.946800 -10.318902
v -27.900600 24.977900 -10.350202
v -38.999699 24.931200 -10.323702
v -42.702099 24.866301 -10.302002
v -101.875000 22.914801 -7.956852
v -61.197800 22.530701 -11.160102
v -57.495300 24.464100 -9.834432
v -98.180702 20.607700 -9.962182
v -101.514000 24.796301 -4.994642
v -109.279999 22.925100 -4.804232
v -111.513000 22.605900 -4.011262
v -102.503998 25.564400 -2.463882
v -111.513000 22.605900 -2.410852
v -108.893997 23.114599 2.036068
v -105.282997 24.938999 1.770938
v -105.643997 23.148300 5.981648
v -63.590599 14.535001 11.399899
v -31.603100 17.773701 11.515599
v -26.884701 17.519400 11.493899
v -26.884701 18.259001 11.493899
v -95.687202 16.642300 11.356499
v -104.452003 22.387899 7.755598
v -106.920998 21.796200 7.377189
v -100.060997 18.531500 11.293899
v -97.878502 16.961500 11.346899
v -100.060997 18.407000 11.293899
v -26.884701 24.438101 -10.637002
v -26.884701 23.096399 -11.420402
v -27.900600 23.127600 -11.427602
v -38.999699 23.083500 -11.389002
v -101.823997 20.057501 -9.964592
v -104.947998 22.587799 -7.631462
v -50.098701 20.340401 -12.312201
v -98.180702 18.759899 -11.034701
v -100.547997 18.637899 -10.981701
v -105.938004 23.311800 -5.724952
v -107.416000 22.180300 -7.200032
v -108.314003 19.714899 -7.954442
v -108.927002 16.642300 -8.496741
v -110.782997 16.642300 -6.720391
v -111.739998 20.340401 -4.474031
v -112.654999 16.642300 -1.661261
v -111.983002 20.657000 -1.372032
v -111.731003 19.712299 2.036069
v -110.749001 21.562700 2.036068
v -111.042999 22.102501 0.052425
v -108.230003 22.709700 4.911498
v -62.180099 14.535001 11.399899
v -96.442802 14.734801 11.298699
v -94.662903 13.278901 10.831100
v -26.884701 15.669101 11.050399
v -51.937401 14.789301 11.284199
v -109.228996 20.384501 5.769548
v -107.751999 19.330799 7.873699
v -105.577003 16.642300 9.047489
v -98.911102 15.941601 11.127499
v -101.522003 16.961500 10.606899
v -26.884701 22.362000 -11.743402
v -26.884701 20.340401 -12.623102
v -27.900600 20.340399 -12.640002
v -103.016998 17.843800 -10.808201
v -105.938004 20.703699 -8.588332
v -72.288498 16.642300 -12.478501
v -98.180702 16.642300 -11.591501
v -101.823997 16.624100 -11.198601
v -105.408997 16.624100 -10.398401
v -108.532997 12.944199 -8.214741
v -104.057999 14.309199 -10.993801
v -105.408997 13.021999 -10.133301
v -111.605003 13.735700 -4.541521
v -111.806999 16.642300 -4.871721
v -112.209999 16.642300 2.036069
v -111.874001 13.310100 -1.661261
v -111.597000 13.958900 2.036069
v -111.328003 18.972700 4.159499
v -75.982597 9.427711 8.859499
v -72.288498 9.495181 8.830569
v -61.046700 13.157001 10.611699
v -97.878502 13.278901 10.577999
v -94.478203 9.645701 8.900469
v -26.884701 12.944201 9.553649
v -109.682999 16.642300 6.056368
v -107.835999 16.642300 7.926729
v -105.485001 13.058301 8.249699
v -107.634003 14.366301 7.753189
v -101.875000 12.944201 9.541599
v -26.884701 19.323097 -12.770102
v -104.057999 15.378399 -10.993801
v -72.288498 12.944199 -12.767701
v -26.884701 16.642298 -13.042500
v -94.478203 12.944199 -11.938601
v -98.180702 12.944199 -11.750601
v -107.785004 10.782399 -7.576031
v -110.446999 12.679400 -5.609261
v -101.865997 13.021999 -11.232401
v -103.100998 11.841199 -10.743101
v -110.841003 11.459700 -1.661261
v -111.244003 14.597300 4.036579
v -111.362000 16.642300 4.205288
v -110.353996 12.108500 2.036069
v -75.982597 7.577361 7.259089
v -72.288498 7.644831 7.198830
v -26.884701 10.733101 7.938779
v -101.875000 10.437201 8.170159
v -98.180702 9.925981 8.669089
v -94.478203 7.795351 6.907189
v -104.199997 10.862801 7.774879
v -106.660004 11.900901 7.003599
v -108.994003 13.250400 5.521289
v -72.288498 9.243449 -11.900001
v -75.982597 9.243449 -11.909701
v -26.884701 15.765099 -12.717101
v -90.784103 10.019399 -11.463801
v -94.478203 10.297099 -11.343301
v -98.180702 10.587699 -11.196201
v -100.632004 10.867999 -11.037201
v -108.515999 10.315300 -5.361001
v -105.577003 10.027199 -8.284641
v -100.792000 7.198470 -7.472391
v -105.577003 8.576500 -5.361001
v -108.986000 9.936360 -1.661261
v -108.507004 10.185500 2.036069
v -107.877998 10.696700 4.537909
v -72.288498 6.767671 5.347760
v -94.478203 6.827361 5.058519
v -26.884701 7.577361 3.219500
v -26.884701 7.945870 3.850989
v -26.884701 9.066980 5.733399
v -26.884701 9.541901 6.381749
v -101.975998 8.431170 5.596010
v -98.180702 8.078231 6.543240
v -98.180702 6.993451 4.694580
v -105.485001 10.060900 5.755089
v -72.288498 7.167319 -11.051601
v -75.982597 7.024589 -11.136001
v -26.884701 13.618899 -11.837401
v -78.719498 7.185489 -11.039601
v -94.478203 8.449329 -10.181501
v -98.180702 8.737399 -9.740441
v -101.942001 9.191549 -9.108951
v -98.180702 6.757289 -7.891770
v -98.180702 5.877530 -5.361001
v -101.462997 6.913000 -5.361001
v -103.319000 7.507289 -5.361001
v -105.359001 7.966630 -1.856491
v -103.973999 7.310060 0.722477
v -105.359001 8.228750 1.987859
v -103.267998 7.533240 3.188169
v -90.784103 5.893100 2.036070
v -72.288498 5.991720 2.036070
v -26.884701 7.130990 1.370839
v -26.884701 7.252960 1.876989
v -94.478203 5.937220 2.036070
v -100.800003 7.195870 4.267960
v -98.180702 6.313520 2.036070
v -75.982597 5.451920 -9.058330
v -26.884701 13.110199 -11.408301
v -26.884701 11.768499 -10.205601
v -26.884701 10.239999 -8.354541
v -94.478203 6.308330 -8.330440
v -94.478203 5.257289 -5.361001
v -98.180702 5.833410 -1.661260
v -102.202003 6.858500 -1.856490
v -103.973999 7.310060 -0.752599
v -103.646004 7.421649 -3.218291
v -101.975998 7.003830 1.987859
v -90.784103 5.337730 -1.661260
v -75.982597 4.878389 -5.361001
v -26.884701 7.130990 -0.583881
v -94.478203 5.454520 -1.661260
v -90.784103 5.085999 -5.361001
v -26.884701 9.798819 -7.489261
v -26.884701 8.828230 -5.361001
vn 0.0110 0.9925 0.1219
vn 0.0058 0.9800 -0.1991
vn -0.0405 0.9884 -0.1462
vn -0.0375 0.9847 0.1699
vn -0.0152 0.9418 0.3358
vn 0.0113 0.9256 0.3783
vn 0.0250 0.9337 0.3571
vn 0.0352 0.9537 0.2988
vn 0.0351 0.9913 0.1266
vn 0.0278 0.9945 -0.1013
vn 0.0013 0.9344 -0.3563
vn -0.0219 0.9151 -0.4026
vn 0.0158 0.9405 -0.3395
vn -0.0569 0.9976 0.0402
vn -0.0817 0.9505 0.2999
vn -0.0506 0.9482 0.3137
vn -0.0407 0.9465 0.3201
vn 0.0023 0.8011 0.5985
vn -0.0568 0.7820 0.6207
vn 0.0185 0.8059 0.5918
vn 0.0465 0.7933 0.6071
vn 0.0399 0.9900 0.1356
vn 0.9999 0.0108 0.0036
vn 0.4277 0.9039 0.0009
vn 0.8013 0.5971 -0.0384
vn 0.9386 0.3320 -0.0942
vn 0.8705 0.4564 -0.1842
vn 0.0063 0.8839 -0.4676
vn 0.0034 0.7868 -0.6171
vn -0.0129 0.7824 -0.6226
vn -0.0266 0.7705 -0.6369
vn -0.0578 0.7712 -0.6339
vn -0.0437 0.9272 -0.3720
vn -0.0711 0.8843 -0.4616
vn -0.0816 0.9905 -0.1103
vn 0.0359 0.7928 -0.6084
vn -0.0712 0.9948 0.0722
vn -0.0829 0.8665 0.4923
vn -0.0878 0.9923 0.0877
vn -0.0945 0.9557 0.2787
vn -0.0312 0.3672 0.9296
vn 0.0706 0.5217 0.8502
vn -0.0587 0.6849 0.7263
vn -0.0311 0.7192 0.6941
vn -0.0724 0.7284 0.6813
vn 0.3305 0.5591 0.7604
vn 0.5025 0.6575 0.5615
vn 0.0655 0.8966 0.4379
vn 0.2418 0.9499 0.1978
vn 0.5011 0.3562 0.7887
vn 0.6230 0.1438 0.7689
vn 0.6368 0.1140 0.7626
vn 0.6447 0.0960 0.7584
vn 0.3937 0.0455 0.9181
vn 0.8004 0.0039 0.5995
vn 0.2101 -0.1599 0.9645
vn 0.4203 -0.3542 0.8354
vn 0.2033 -0.5105 0.8355
vn 0.2476 -0.6539 0.7149
vn 0.3894 -0.7349 0.5552
vn 0.4055 -0.7732 0.4876
vn 0.4101 -0.7846 0.4649
vn 0.2566 -0.8941 0.3671
vn 0.4490 -0.8686 0.2097
vn 0.1210 -0.9826 0.1408
vn 0.3613 -0.9111 -0.1984
vn 0.4985 -0.8086 -0.3124
vn 0.5018 -0.7823 -0.3690
vn 0.3581 -0.7670 -0.5325
vn 0.5240 -0.6206 -0.5833
vn 0.5173 -0.5661 -0.6419
vn 0.4791 -0.3881 -0.7873
vn 0.3082 -0.3554 -0.8824
vn 0.1307 -0.0570 -0.9898
vn 0.3274 0.0992 -0.9397
vn 0.9899 0.0509 -0.1326
vn 0.9967 0.0326 -0.0746
vn 0.9858 0.0816 -0.1468
vn 0.9955 0.0483 -0.0812
vn 0.9754 0.1343 -0.1746
vn 0.9937 0.0697 -0.0882
vn 0.9921 0.0862 -0.0915
vn 0.9662 0.1840 -0.1806
vn 0.9843 0.1471 -0.0971
vn 0.0241 0.6699 -0.7420
vn -0.0027 0.6360 -0.7717
vn -0.0124 0.6586 -0.7524
vn -0.0322 0.6755 -0.7366
vn -0.0715 0.8280 -0.5561
vn -0.0498 0.6502 -0.7581
vn -0.0608 0.7433 -0.6662
vn -0.0577 0.6661 -0.7436
vn -0.0759 0.8469 -0.5263
vn -0.0973 0.9589 -0.2665
vn -0.0791 0.9634 -0.2560
vn -0.1083 0.9910 -0.0791
vn -0.0910 0.8685 0.4872
vn -0.1552 0.9732 0.1696
vn -0.2158 0.9060 0.3642
vn -0.1967 0.8754 0.4416
vn -0.0021 0.0138 0.9999
vn -0.0768 0.4987 0.8634
vn -0.0316 0.2769 0.9604
vn -0.0042 0.0346 0.9994
vn -0.2101 0.7442 0.6341
vn 0.0014 0.5709 -0.8210
vn -0.0068 0.5607 -0.8280
vn -0.0297 0.5691 -0.8217
vn -0.0816 0.7868 -0.6118
vn -0.0434 0.5077 -0.8604
vn -0.0533 0.6393 -0.7671
vn -0.0588 0.5619 -0.8251
vn -0.1767 0.8612 -0.4765
vn -0.2357 0.8795 -0.4135
vn -0.5981 0.6643 -0.4483
vn -0.2524 0.9241 -0.2869
vn -0.5997 0.7858 0.1513
vn -0.4517 0.8726 0.1860
vn -0.3581 0.8884 0.2873
vn -0.2585 0.8725 0.4147
vn -0.0026 -0.0548 0.9985
vn -0.0001 -0.0308 0.9995
vn -0.0029 -0.0144 0.9999
vn -0.2470 0.6513 0.7175
vn -0.3824 0.4771 0.7913
vn -0.3321 0.2871 0.8985
vn -0.0185 -0.0173 0.9997
vn -0.2005 -0.1006 0.9745
vn -0.0026 0.4565 -0.8897
vn -0.0145 0.4196 -0.9076
vn -0.1535 0.5230 -0.8384
vn -0.1905 0.7223 -0.6648
vn -0.0273 0.2781 -0.9602
vn -0.0350 0.2899 -0.9564
vn -0.0678 0.4595 -0.8856
vn -0.2205 0.8697 -0.4416
vn -0.3743 0.6329 -0.6778
vn -0.5080 0.3238 -0.7982
vn -0.5841 0.0791 -0.8078
vn -0.7711 -0.0068 -0.6367
vn -0.9335 0.0959 -0.3455
vn -0.9995 -0.0084 -0.0308
vn -0.9791 0.1947 0.0578
vn -0.9499 0.2549 0.1808
vn -0.7766 0.5285 0.3430
vn -0.6425 0.7141 0.2779
vn -0.5646 0.7324 0.3806
vn 0.0066 -0.4022 0.9155
vn -0.0208 -0.1624 0.9865
vn -0.0049 -0.4324 0.9017
vn 0.0223 -0.4119 0.9109
vn -0.6948 0.4160 0.5867
vn -0.5302 0.1715 0.8303
vn -0.3833 -0.0704 0.9209
vn -0.2280 -0.2303 0.9460
vn -0.3171 -0.1998 0.9271
vn -0.0122 0.2380 -0.9712
vn -0.2407 0.3338 -0.9114
vn -0.2900 0.4221 -0.8589
vn -0.0195 0.1193 -0.9927
vn -0.0389 0.1585 -0.9866
vn -0.1174 0.0887 -0.9891
vn -0.3969 0.2251 -0.8898
vn -0.6613 -0.2415 -0.7102
vn -0.3488 -0.0844 -0.9334
vn -0.4738 -0.2413 -0.8469
vn -0.8858 -0.2745 -0.3741
vn -0.9377 -0.0155 -0.3470
vn -0.9773 -0.0228 0.2108
vn -0.9438 -0.3303 0.0124
vn -0.9200 -0.3533 0.1697
vn -0.8074 0.2736 0.5227
vn 0.0007 -0.4930 0.8700
vn 0.0277 -0.5711 0.8204
vn 0.0233 -0.4927 0.8699
vn -0.1460 -0.4268 0.8925
vn -0.0234 -0.5931 0.8048
vn -0.7232 -0.0337 0.6899
vn -0.5885 -0.0335 0.8078
vn -0.3531 -0.2749 0.8943
vn -0.5937 -0.2611 0.7612
vn -0.2674 -0.3223 0.9081
vn -0.1631 0.0666 -0.9844
vn -0.0152 -0.0546 -0.9984
vn -0.0396 -0.0996 -0.9942
vn -0.0925 -0.0668 -0.9935
vn -0.5102 -0.6470 -0.5667
vn -0.7468 -0.5438 -0.3827
vn -0.1654 -0.1523 -0.9744
vn -0.3509 -0.4078 -0.8430
vn -0.7639 -0.6450 -0.0185
vn -0.7799 -0.3556 0.5151
vn -0.8462 -0.0312 0.5319
vn -0.7414 -0.6049 0.2906
vn -0.0093 -0.8027 0.5963
vn 0.0394 -0.8111 0.5836
vn -0.2077 -0.6206 0.7561
vn -0.1389 -0.6243 0.7687
vn -0.0456 -0.8052 0.5912
vn -0.3383 -0.6085 0.7178
vn -0.5397 -0.5363 0.6489
vn -0.6576 -0.4713 0.5877
vn 0.0224 -0.2936 -0.9557
vn -0.0344 -0.2313 -0.9723
vn -0.0455 -0.2767 -0.9599
vn -0.0562 -0.2912 -0.9550
vn -0.0857 -0.4681 -0.8795
vn -0.2054 -0.5055 -0.8381
vn -0.6173 -0.7477 -0.2445
vn -0.3482 -0.6406 -0.6843
vn -0.3398 -0.8361 -0.4308
vn -0.4561 -0.8540 -0.2502
vn -0.5299 -0.8480 -0.0113
vn -0.6033 -0.7709 0.2044
vn -0.5831 -0.6915 0.4264
vn 0.0188 -0.9567 0.2904
vn -0.0169 -0.9350 0.3544
vn -0.2807 -0.7875 0.5487
vn -0.1728 -0.7878 0.5912
vn -0.1011 -0.9276 0.3596
vn -0.4016 -0.7658 0.5023
vn 0.0693 -0.6318 -0.7721
vn -0.0390 -0.6049 -0.7953
vn -0.0846 -0.5820 -0.8088
vn -0.1023 -0.6126 -0.7837
vn -0.1699 -0.6576 -0.7340
vn -0.2498 -0.6677 -0.7013
vn -0.1857 -0.8294 -0.5269
vn -0.2339 -0.9641 -0.1255
vn -0.2998 -0.9456 -0.1262
vn -0.3750 -0.9091 -0.1816
vn -0.4470 -0.8914 -0.0742
vn -0.3510 -0.9338 0.0697
vn -0.4921 -0.8472 0.2002
vn -0.3757 -0.8520 0.3646
vn -0.0002 -0.9752 0.2211
vn 0.0198 -0.9860 0.1654
vn -0.0528 -0.9790 0.1969
vn -0.1967 -0.9123 0.3591
vn -0.1285 -0.9780 0.1643
vn 0.0586 -0.9341 -0.3522
vn -0.0850 -0.8183 -0.5684
vn -0.0870 -0.9720 -0.2181
vn -0.1777 -0.9826 0.0547
vn -0.2482 -0.9687 -0.0083
vn -0.3124 -0.9475 -0.0680
vn -0.3326 -0.9390 -0.0875
vn -0.1975 -0.9707 0.1367
vn -0.0025 -0.9918 0.1275
vn 0.0280 -0.9989 0.0372
vn -0.0688 -0.9932 0.0936
vn -0.0215 -0.9987 -0.0464
s 1
f 1//1 2//2 12//3
f 1//1 12//3 3//4
f 1//1 3//4 4//5
f 1//1 4//5 5//6
f 1//1 5//6 6//7
f 1//1 6//7 7//8
f 1//1 7//8 8//9
f 1//1 8//9 9//10
f 1//1 9//10 2//2
f 2//2 10//11 11//12
f 2//2 11//12 12//3
f 2//2 9//10 13//13
f 2//2 13//13 10//11
f 3//4 12//3 14//14
f 3//4 14//14 15//15
f 3//4 15//15 16//16
f 3//4 16//16 17//17
f 3//4 17//17 4//5
f 4//5 18//18 5//6
f 4//5 17//17 19//19
f 4//5 19//19 18//18
f 5//6 20//20 6//7
f 5//6 18//18 20//20
f 6//7 20//20 21//21
f 6//7 21//21 7//8
f 7//8 22//22 8//9
f 7//8 21//21 23//23
f 7//8 23//23 22//22
f 8//9 22//22 9//10
f 9//10 22//22 49//24
f 9//10 49//24 24//25
f 9//10 24//25 25//26
f 9//10 25//26 26//27
f 9//10 26//27 13//13
f 10//11 13//13 27//28
f 10//11 27//28 28//29
f 10//11 28//29 11//12
f 11//12 28//29 29//30
f 11//12 29//30 30//31
f 11//12 30//31 31//32
f 11//12 31//32 32//33
f 11//12 32//33 12//3
f 12//3 32//33 33//34
f 12//3 33//34 34//35
f 12//3 34//35 14//14
f 13//13 26//27 35//36
f 13//13 35//36 28//29
f 13//13 28//29 27//28
f 14//14 34//35 36//37
f 14//14 36//37 15//15
f 15//15 37//38 19//19
f 15//15 19//19 16//16
f 15//15 36//37 38//39
f 15//15 38//39 39//40
f 15//15 39//40 37//38
f 16//16 19//19 17//17
f 18//18 40//41 41//42
f 18//18 41//42 20//20
f 18//18 19//19 40//41
f 19//19 42//43 43//44
f 19//19 43//44 40//41
f 19//19 37//38 44//45
f 19//19 44//45 42//43
f 20//20 41//42 21//21
f 21//21 45//46 46//47
f 21//21 46//47 47//48
f 21//21 47//48 23//23
f 21//21 41//42 45//46
f 22//22 23//23 48//49
f 22//22 48//49 49//24
f 23//23 47//48 46//47
f 23//23 46//47 45//46
f 23//23 45//46 76//50
f 23//23 76//50 75//51
f 23//23 75//51 74//52
f 23//23 74//52 73//53
f 23//23 73//53 72//54
f 23//23 72//54 99//55
f 23//23 99//55 98//56
f 23//23 98//56 130//57
f 23//23 130//57 160//58
f 23//23 160//58 182//59
f 23//23 182//59 208//60
f 23//23 208//60 207//61
f 23//23 207//61 206//62
f 23//23 206//62 205//63
f 23//23 205//63 231//64
f 23//23 231//64 230//65
f 23//23 230//65 248//66
f 23//23 248//66 252//67
f 23//23 252//67 251//68
f 23//23 251//68 238//69
f 23//23 238//69 237//70
f 23//23 237//70 236//71
f 23//23 236//71 215//72
f 23//23 215//72 191//73
f 23//23 191//73 169//74
f 23//23 169//74 166//75
f 23//23 166//75 138//76
f 23//23 138//76 137//77
f 23//23 137//77 107//78
f 23//23 107//78 106//79
f 23//23 106//79 80//80
f 23//23 80//80 79//81
f 23//23 79//81 78//82
f 23//23 78//82 63//83
f 23//23 63//83 50//84
f 23//23 50//84 26//27
f 23//23 26//27 25//26
f 23//23 25//26 24//25
f 23//23 24//25 49//24
f 23//23 49//24 48//49
f 26//27 50//84 35//36
f 28//29 35//36 51//85
f 28//29 51//85 52//86
f 28//29 52//86 53//87
f 28//29 53//87 29//30
f 29//30 53//87 30//31
f 30//31 53//87 54//88
f 30//31 54//88 31//32
f 31//32 55//89 33//34
f 31//32 33//34 32//33
f 31//32 54//88 56//90
f 31//32 56//90 57//91
f 31//32 57//91 58//92
f 31//32 58//92 55//89
f 33//34 55//89 59//93
f 33//34 59//93 60//94
f 33//34 60//94 61//95
f 33//34 61//95 34//35
f 34//35 38//39 36//37
f 34//35 61//95 60//94
f 34//35 60//94 62//96
f 34//35 62//96 38//39
f 35//36 50//84 63//83
f 35//36 63//83 51//85
f 37//38 39//40 64//97
f 37//38 64//97 44//45
f 38//39 62//96 65//98
f 38//39 65//98 39//40
f 39//40 65//98 66//99
f 39//40 66//99 67//100
f 39//40 67//100 64//97
f 40//41 68//101 41//42
f 40//41 43//44 42//43
f 40//41 42//43 44//45
f 40//41 44//45 69//102
f 40//41 69//102 70//103
f 40//41 70//103 71//104
f 40//41 71//104 68//101
f 41//42 68//101 72//54
f 41//42 72//54 73//53
f 41//42 73//53 74//52
f 41//42 74//52 75//51
f 41//42 75//51 76//50
f 41//42 76//50 45//46
f 44//45 64//97 67//100
f 44//45 67//100 77//105
f 44//45 77//105 69//102
f 51//85 63//83 78//82
f 51//85 78//82 79//81
f 51//85 79//81 80//80
f 51//85 80//80 81//106
f 51//85 81//106 52//86
f 52//86 82//107 53//87
f 52//86 81//106 82//107
f 53//87 82//107 83//108
f 53//87 83//108 54//88
f 54//88 83//108 56//90
f 55//89 58//92 84//109
f 55//89 84//109 59//93
f 56//90 83//108 85//110
f 56//90 85//110 86//111
f 56//90 86//111 58//92
f 56//90 58//92 57//91
f 58//92 87//112 84//109
f 58//92 86//111 85//110
f 58//92 85//110 87//112
f 59//93 84//109 88//113
f 59//93 88//113 60//94
f 60//94 88//113 89//114
f 60//94 89//114 90//115
f 60//94 90//115 91//116
f 60//94 91//116 62//96
f 62//96 91//116 90//115
f 62//96 90//115 92//117
f 62//96 92//117 65//98
f 65//98 92//117 93//118
f 65//98 93//118 94//119
f 65//98 94//119 95//120
f 65//98 95//120 66//99
f 66//99 95//120 67//100
f 67//100 95//120 77//105
f 68//101 96//121 97//122
f 68//101 97//122 98//56
f 68//101 98//56 99//55
f 68//101 99//55 72//54
f 68//101 71//104 100//123
f 68//101 100//123 96//121
f 69//102 77//105 101//124
f 69//102 101//124 102//125
f 69//102 102//125 103//126
f 69//102 103//126 70//103
f 70//103 104//127 71//104
f 70//103 103//126 105//128
f 70//103 105//128 104//127
f 71//104 104//127 100//123
f 77//105 95//120 101//124
f 80//80 106//79 81//106
f 81//106 106//79 107//78
f 81//106 107//78 108//129
f 81//106 108//129 82//107
f 82//107 108//129 109//130
f 82//107 109//130 83//108
f 83//108 109//130 85//110
f 84//109 110//131 111//132
f 84//109 111//132 88//113
f 84//109 87//112 110//131
f 85//110 109//130 112//133
f 85//110 112//133 113//134
f 85//110 113//134 114//135
f 85//110 114//135 87//112
f 87//112 114//135 110//131
f 88//113 111//132 115//136
f 88//113 115//136 89//114
f 89//114 115//136 116//137
f 89//114 116//137 90//115
f 90//115 116//137 117//138
f 90//115 117//138 118//139
f 90//115 118//139 119//140
f 90//115 119//140 120//141
f 90//115 120//141 121//142
f 90//115 121//142 122//143
f 90//115 122//143 92//117
f 92//117 122//143 123//144
f 92//117 123//144 124//145
f 92//117 124//145 125//146
f 92//117 125//146 126//147
f 92//117 126//147 93//118
f 93//118 126//147 94//119
f 94//119 126//147 95//120
f 95//120 126//147 102//125
f 95//120 102//125 101//124
f 96//121 127//148 97//122
f 96//121 100//123 128//149
f 96//121 128//149 129//150
f 96//121 129//150 127//148
f 97//122 127//148 98//56
f 98//56 127//148 131//151
f 98//56 131//151 130//57
f 100//123 104//127 128//149
f 102//125 126//147 132//152
f 102//125 132//152 133//153
f 102//125 133//153 103//126
f 103//126 133//153 134//154
f 103//126 134//154 105//128
f 104//127 105//128 128//149
f 105//128 135//155 128//149
f 105//128 134//154 136//156
f 105//128 136//156 135//155
f 107//78 137//77 108//129
f 108//129 137//77 138//76
f 108//129 138//76 139//157
f 108//129 139//157 109//130
f 109//130 139//157 112//133
f 110//131 140//158 141//159
f 110//131 141//159 111//132
f 110//131 114//135 140//158
f 111//132 141//159 116//137
f 111//132 116//137 115//136
f 112//133 139//157 142//160
f 112//133 142//160 143//161
f 112//133 143//161 113//134
f 113//134 143//161 114//135
f 114//135 143//161 144//162
f 114//135 144//162 140//158
f 116//137 141//159 117//138
f 117//138 141//159 145//163
f 117//138 145//163 118//139
f 118//139 146//164 119//140
f 118//139 145//163 147//165
f 118//139 147//165 148//166
f 118//139 148//166 146//164
f 119//140 149//167 150//168
f 119//140 150//168 120//141
f 119//140 146//164 149//167
f 120//141 150//168 121//142
f 121//142 151//169 123//144
f 121//142 123//144 122//143
f 121//142 150//168 149//167
f 121//142 149//167 152//170
f 121//142 152//170 153//171
f 121//142 153//171 151//169
f 123//144 151//169 154//172
f 123//144 154//172 124//145
f 124//145 154//172 126//147
f 124//145 126//147 125//146
f 126//147 154//172 132//152
f 127//148 129//150 155//173
f 127//148 155//173 156//174
f 127//148 156//174 157//175
f 127//148 157//175 131//151
f 128//149 135//155 158//176
f 128//149 158//176 129//150
f 129//150 158//176 159//177
f 129//150 159//177 155//173
f 130//57 131//151 160//58
f 131//151 157//175 160//58
f 132//152 154//172 133//153
f 133//153 154//172 161//178
f 133//153 161//178 162//179
f 133//153 162//179 134//154
f 134//154 163//180 136//156
f 134//154 162//179 164//181
f 134//154 164//181 163//180
f 135//155 136//156 165//182
f 135//155 165//182 158//176
f 136//156 163//180 165//182
f 138//76 166//75 139//157
f 139//157 166//75 142//160
f 140//158 144//162 167//183
f 140//158 167//183 145//163
f 140//158 145//163 141//159
f 142//160 168//184 143//161
f 142//160 166//75 169//74
f 142//160 169//74 168//184
f 143//161 170//185 171//186
f 143//161 171//186 144//162
f 143//161 168//184 170//185
f 144//162 171//186 167//183
f 145//163 167//183 147//165
f 146//164 172//187 173//188
f 146//164 173//188 149//167
f 146//164 148//166 172//187
f 147//165 167//183 171//186
f 147//165 171//186 174//189
f 147//165 174//189 175//190
f 147//165 175//190 148//166
f 148//166 175//190 172//187
f 149//167 173//188 176//191
f 149//167 176//191 152//170
f 151//169 153//171 177//192
f 151//169 177//192 178//193
f 151//169 178//193 154//172
f 152//170 176//191 153//171
f 153//171 176//191 179//194
f 153//171 179//194 177//192
f 154//172 178//193 161//178
f 155//173 159//177 180//195
f 155//173 180//195 156//174
f 156//174 180//195 181//196
f 156//174 181//196 182//59
f 156//174 182//59 160//58
f 156//174 160//58 157//175
f 158//176 165//182 183//197
f 158//176 183//197 184//198
f 158//176 184//198 159//177
f 159//177 184//198 185//199
f 159//177 185//199 180//195
f 161//178 178//193 177//192
f 161//178 177//192 164//181
f 161//178 164//181 162//179
f 163//180 186//200 165//182
f 163//180 164//181 187//201
f 163//180 187//201 186//200
f 164//181 177//192 188//202
f 164//181 188//202 187//201
f 165//182 186//200 183//197
f 168//184 189//203 190//204
f 168//184 190//204 170//185
f 168//184 169//74 189//203
f 169//74 191//73 189//203
f 170//185 192//205 193//206
f 170//185 193//206 171//186
f 170//185 190//204 192//205
f 171//186 193//206 194//207
f 171//186 194//207 195//208
f 171//186 195//208 174//189
f 172//187 196//209 173//188
f 172//187 175//190 197//210
f 172//187 197//210 198//211
f 172//187 198//211 199//212
f 172//187 199//212 196//209
f 173//188 196//209 176//191
f 174//189 195//208 175//190
f 175//190 195//208 197//210
f 176//191 196//209 200//213
f 176//191 200//213 201//214
f 176//191 201//214 179//194
f 177//192 179//194 202//215
f 177//192 202//215 188//202
f 179//194 201//214 202//215
f 180//195 203//216 181//196
f 180//195 185//199 204//217
f 180//195 204//217 203//216
f 181//196 203//216 205//63
f 181//196 205//63 206//62
f 181//196 206//62 207//61
f 181//196 207//61 208//60
f 181//196 208//60 182//59
f 183//197 186//200 209//218
f 183//197 209//218 210//219
f 183//197 210//219 184//198
f 184//198 210//219 185//199
f 185//199 210//219 211//220
f 185//199 211//220 204//217
f 186//200 187//201 212//221
f 186//200 212//221 209//218
f 187//201 188//202 202//215
f 187//201 202//215 212//221
f 189//203 213//222 214//223
f 189//203 214//223 190//204
f 189//203 191//73 213//222
f 190//204 214//223 192//205
f 191//73 215//72 213//222
f 192//205 214//223 216//224
f 192//205 216//224 193//206
f 193//206 216//224 194//207
f 194//207 217//225 195//208
f 194//207 216//224 217//225
f 195//208 217//225 218//226
f 195//208 218//226 219//227
f 195//208 219//227 197//210
f 196//209 199//212 200//213
f 197//210 219//227 198//211
f 198//211 220//228 221//229
f 198//211 221//229 222//230
f 198//211 222//230 223//231
f 198//211 223//231 199//212
f 198//211 219//227 220//228
f 199//212 223//231 224//232
f 199//212 224//232 200//213
f 200//213 224//232 225//233
f 200//213 225//233 226//234
f 200//213 226//234 201//214
f 201//214 226//234 202//215
f 202//215 226//234 227//235
f 202//215 227//235 212//221
f 203//216 204//217 228//236
f 203//216 228//236 229//237
f 203//216 229//237 230//65
f 203//216 230//65 231//64
f 203//216 231//64 205//63
f 204//217 211//220 232//238
f 204//217 232//238 228//236
f 209//218 212//221 227//235
f 209//218 227//235 233//239
f 209//218 233//239 210//219
f 210//219 233//239 211//220
f 211//220 233//239 234//240
f 211//220 234//240 232//238
f 213//222 235//241 214//223
f 213//222 215//72 236//71
f 213//222 236//71 237//70
f 213//222 237//70 238//69
f 213//222 238//69 235//241
f 214//223 235//241 239//242
f 214//223 239//242 216//224
f 216//224 239//242 217//225
f 217//225 239//242 218//226
f 218//226 220//228 219//227
f 218//226 239//242 220//228
f 220//228 239//242 240//243
f 220//228 240//243 221//229
f 221//229 241//244 242//245
f 221//229 242//245 243//246
f 221//229 243//246 222//230
f 221//229 240//243 241//244
f 222//230 243//246 244//247
f 222//230 244//247 223//231
f 223//231 244//247 224//232
f 224//232 244//247 243//246
f 224//232 243//246 225//233
f 225//233 242//245 241//244
f 225//233 241//244 245//248
f 225//233 245//248 227//235
f 225//233 227//235 226//234
f 225//233 243//246 242//245
f 227//235 245//248 233//239
f 228//236 232//238 246//249
f 228//236 246//249 229//237
f 229//237 246//249 247//250
f 229//237 247//250 230//65
f 230//65 247//250 248//66
f 232//238 234//240 249//251
f 232//238 249//251 246//249
f 233//239 245//248 234//240
f 234//240 245//248 241//244
f 234//240 241//244 249//251
f 235//241 247//250 250//252
f 235//241 250//252 240//243
f 235//241 240//243 239//242
f 235//241 238//69 251//68
f 235//241 251//68 252//67
f 235//241 252//67 248//66
f 235//241 248//66 247//250
f 240//243 250//252 249//251
f 240//243 249//251 241//244
f 246//249 250//252 247//250
f 246//249 249//251 250//252
