# Blender 4.4.0
# www.blender.org
mtllib decomposed_2.mtl
o decomposed_(1).003
v 57.185600 20.327700 2.033239
v 65.733002 19.097700 -7.790112
v 60.886700 20.295799 2.033239
v 28.215700 20.084101 -1.712612
v 46.090500 20.108101 5.730329
v 60.886700 19.936399 5.730329
v 28.215700 19.337299 2.033239
v 42.389400 18.854099 7.943099
v 46.090500 19.081699 8.351518
v 73.467102 18.638500 11.408599
v 73.989899 18.638500 11.408599
v 72.131104 19.045799 9.418278
v 89.275703 15.204000 4.971409
v 49.791599 12.939701 13.142799
v 56.090199 0.803273 15.590300
v 94.163399 1.841591 12.807500
v 107.109001 3.694601 11.280500
v 104.112999 7.716101 7.900430
v 98.785698 10.779201 6.547169
v 88.205200 14.716801 7.437149
v 74.794899 18.957899 9.433518
v 75.267899 18.993900 5.730329
v 68.288902 19.361300 -5.357892
v 89.275703 15.204000 2.929319
v 70.189201 18.534599 -7.256732
v 99.806396 11.138600 3.560239
v 98.047096 11.705700 2.213069
v 96.395699 11.274399 -7.467031
v 68.288902 18.977900 -7.680381
v 68.288902 16.637699 -9.094611
v 94.163399 9.900569 -9.655421
v 94.163399 8.047569 -11.404901
v 90.462303 8.474879 -11.606101
v 71.965103 13.770299 -10.396101
v 60.886700 4.732919 -15.144700
v 71.965103 11.925299 -11.246401
v 68.288902 13.858199 -10.469201
v 49.791599 12.188899 -11.554301
v 94.163399 5.543609 -12.078500
v 63.724701 4.337559 -14.977000
v 60.886700 1.841589 -15.547000
v 38.688301 1.210609 -15.120300
v 31.294399 5.543609 -13.376900
v 28.215700 8.614649 -12.145501
v 28.215700 11.162499 -11.231201
v 28.215700 11.454099 -11.106201
v 27.593300 1.805649 -13.657300
v 28.215700 12.847799 -10.277201
v 49.791599 16.637699 -8.954401
v 52.355900 18.906000 -7.677341
v 49.791599 18.846100 -7.607232
v 53.492699 14.065799 -10.545401
v 28.215700 19.313400 -4.574582
v 28.215700 15.319799 -8.430161
v 28.215700 15.759099 -8.085751
v 28.215700 17.296600 -6.723351
v 28.215700 17.656000 -6.351501
v 28.215700 19.972300 -2.181991
v 27.593300 1.813640 -3.431630
v 27.593300 -5.350781 -14.349200
v 27.593300 -1.860421 -14.062700
v 27.593300 -9.268461 -13.962099
v 27.593300 -9.288421 -13.952899
v 27.593300 -13.058301 -11.892599
v 27.593300 -13.190101 -11.807199
v 27.593300 -16.584600 -8.905639
v 27.593300 -17.291500 -8.155849
v 27.593300 -18.980801 -5.967469
v 27.593300 -19.208401 -5.513329
v 27.593300 -20.242701 -1.660798
v 27.593300 -19.907301 2.033242
v 27.593300 -19.064600 4.791582
v 27.593300 -17.682899 6.641652
v 27.593300 -15.833799 8.394191
v 27.593300 -15.753999 8.449051
v 27.593300 -12.930499 10.329601
v 27.593300 -12.379399 10.661801
v 27.593300 -11.217299 11.353701
v 27.593300 -9.979309 11.765201
v 27.593300 -9.579949 11.881001
v 27.593300 -5.554459 12.685600
v 27.593300 -1.852439 13.033100
v 27.593300 1.813641 13.039200
v 28.215700 5.543609 -13.035500
v 35.817101 0.835219 -14.955700
v 38.688301 -1.852441 -15.358000
v 64.579498 -1.852441 -15.053200
v 70.587502 -3.909111 -14.654000
v 68.288902 -3.929081 -14.672200
v 68.288902 -1.852441 -14.882500
v 83.068398 -1.852441 -13.678600
v 79.367302 -9.252481 -12.892299
v 79.367302 -5.554461 -13.809700
v 75.666199 -9.252481 -13.065999
v 71.973396 -9.252481 -13.206199
v 83.068398 -5.554461 -13.584100
v 86.769501 -1.852441 -13.352500
v 86.769501 -5.554461 -13.218400
v 83.068398 -9.252481 -12.590499
v 86.769501 -9.252481 -12.172999
v 75.666199 -12.611101 -11.694499
v 89.350304 -11.233301 -10.984299
v 79.367302 -12.199701 -11.575599
v 83.068398 -11.836301 -11.368299
v 86.769501 -11.500801 -11.142799
v 73.218201 -14.699701 -10.847099
v 83.068398 -15.853801 -8.329579
v 83.068398 -13.685301 -10.176600
v 75.666199 -14.460101 -10.670399
v 70.761803 -14.871401 -10.962999
v 71.973396 -13.258001 -11.636499
v 69.716202 -14.871401 -10.962999
v 71.973396 -16.129400 -9.390249
v 48.762600 -18.629299 -7.393878
v 59.998699 -14.879401 -10.956899
v 51.301998 -14.867401 -10.950799
v 47.177601 -18.629299 -7.393878
v 38.771301 -19.308201 -5.635249
v 40.057598 -18.553499 -7.287209
v 28.340099 -18.361799 -6.942789
v 71.973396 -18.892900 -4.736119
v 64.579498 -19.847401 -1.660798
v 79.367302 -18.709200 -4.044249
v 75.666199 -18.837000 -4.388659
v 75.666199 -19.260300 -1.660799
v 60.886700 -20.470400 2.033242
v 60.886700 -19.915300 5.733381
v 64.579498 -20.242701 2.033242
v 79.367302 -19.060600 -1.660799
v 81.516602 -18.565399 -3.699839
v 82.056000 -18.685200 -1.660799
v 79.367302 -18.988701 2.033242
v 82.313301 -18.685200 2.033242
v 81.873398 -18.569401 4.212481
v 84.172096 -18.381701 2.033242
v 86.769501 -17.583000 5.733381
v 86.769501 -17.866600 2.033242
v 101.556999 -13.182100 2.033241
v 90.462303 -16.580601 5.733381
v 101.556999 -12.934500 -1.660799
v 86.769501 -17.527100 -1.660799
v 83.914902 -18.273899 -1.660799
v 94.968399 -14.468100 -5.360939
v 93.117798 -15.039100 -5.360939
v 92.412498 -14.831501 -7.253679
v 90.537003 -12.659001 -9.618839
v 97.864502 -13.341900 -5.360939
v 82.869301 -17.738800 -5.101869
v 91.815002 -10.921801 -10.847099
v 100.129997 -11.349101 -7.467029
v 97.864502 -11.932201 -7.997359
v 86.769501 -15.466401 -7.994319
v 93.856400 -13.098301 -8.417969
v 79.367302 -17.894501 -5.894319
v 86.769501 -13.345901 -9.841339
v 71.973396 -18.257900 -6.586189
v 75.666199 -16.205200 -8.823339
v 101.448997 -9.360311 -8.613039
v 104.445000 -8.206171 -8.311299
v 103.515999 -4.252561 -10.978200
v 101.556999 -6.496931 -10.618599
v 105.217003 -5.654291 -9.182990
v 106.917999 -7.060020 -6.964129
v 107.739998 -8.038440 -4.498390
v 105.282997 -9.352320 -5.385320
v 102.602997 -10.670200 -6.272259
v 103.656998 -11.269200 -3.806519
v 101.448997 -11.780400 -5.168919
v 104.154999 -11.808400 -1.660799
v 106.004997 -10.342700 -1.660799
v 104.212997 -11.976100 2.033241
v 109.773003 -6.381120 5.733380
v 107.921997 -7.986529 5.733380
v 108.263000 -8.377890 2.033241
v 103.732002 -11.492900 4.715391
v 108.204002 -8.493710 -1.660799
v 101.790001 -12.175800 5.861391
v 107.466003 -7.702980 8.055871
v 103.199997 -7.215769 11.253101
v 111.058998 -4.012949 7.903481
v 108.809998 -5.366759 8.689830
v 105.266998 -8.457759 8.839181
v 100.703003 -11.680599 8.342381
v 103.167000 -10.977699 7.181131
v 97.864502 -12.231699 9.000721
v 92.769302 -15.019199 7.824231
v 97.864502 -10.270799 10.850801
v 95.541000 -10.865899 11.180001
v 93.084602 -11.293199 11.411601
v 86.769501 -15.981599 8.753841
v 90.462303 -15.458499 8.257030
v 90.462303 -9.252479 12.661201
v 75.666199 -12.950499 13.194601
v 90.462303 -5.554459 13.304300
v 86.769501 -9.252479 12.969101
v 56.090199 -0.778172 15.590300
v 94.155098 -1.852439 13.087900
v 75.666199 -9.252479 13.685301
v 103.946999 -4.751749 11.423800
v 97.864502 -1.852439 12.585000
v 107.109001 3.690611 11.280500
v 111.358002 -1.852439 8.281420
v 106.204002 -1.852439 11.103800
v 106.726997 1.813641 11.240900
v 108.950996 -1.852439 9.951660
v 105.217003 -5.810039 10.698400
v 106.602997 1.222591 11.228700
v 111.291000 1.106781 8.193030
v 112.112999 -1.852440 5.733380
v 111.589996 1.813640 5.965020
v 111.383003 -4.532110 5.733380
v 111.997002 1.813640 2.060670
v 112.370003 -1.852440 2.033240
v 111.589996 -4.871560 2.033241
v 110.121002 -6.720570 2.033241
v 111.316002 -4.464220 -1.002460
v 111.656998 -2.183900 -2.005210
v 110.793999 -3.633560 -3.468200
v 110.195999 -5.638320 -2.005209
v 110.827003 -0.047354 -7.220150
v 111.856003 1.813640 -1.663850
v 110.345001 -2.758970 -5.360940
v 108.594002 -5.718191 -5.583439
v 107.739998 -4.592010 -7.585899
v 110.827003 0.032517 -7.220150
v 103.515999 -3.573661 -10.978200
v 100.461998 4.549219 -11.353100
v 94.155098 -1.852441 -12.587500
v 109.084000 1.494159 -7.960790
v 107.931000 4.465360 -7.863260
v 101.556999 8.007629 -7.972980
v 98.860397 7.013239 -10.636801
v 109.084000 4.912630 -5.266450
v 111.009003 3.958170 -3.974150
v 110.403999 2.500530 -6.439890
v 103.499001 7.424570 -7.262820
v 105.639999 6.869470 -5.357891
v 106.461998 7.192950 -1.660801
v 108.959999 5.791210 -1.660800
v 108.627998 6.298390 1.999720
v 111.183998 4.141880 -1.660800
v 107.042999 7.360680 0.747032
v 107.167000 7.432560 3.212780
v 99.806396 11.138600 4.081419
v 107.167000 7.432560 4.060090
v 106.578003 7.172980 6.525829
v 108.968002 5.603520 5.721189
v 111.067001 4.030060 4.919590
v 111.224998 4.193790 2.033240
v 111.988998 1.841590 2.033240
v 111.997002 1.813640 2.033240
v 111.856003 1.841590 -1.660800
v 111.797997 1.813640 -1.959490
v 111.125000 1.813640 -5.098820
v 111.141998 1.494160 -5.266450
v 110.751999 3.578790 7.385340
v 111.531998 2.145101 5.986360
v 111.457001 1.813640 6.687370
v 107.988998 4.453371 9.433520
v 101.250000 10.008400 5.483449
v 94.163399 1.813639 -12.352800
v 71.973396 -12.950499 13.359200
v 54.671101 -0.778172 15.590300
v 75.666199 -15.226799 11.786501
v 71.973396 -15.298699 11.783401
v 38.688301 -14.240399 11.036701
v 42.389400 -14.392200 11.173901
v 42.389400 -16.512699 9.323801
v 60.886700 -18.884899 8.037591
v 38.688301 -16.329000 9.189691
v 57.193901 -18.809000 7.927861
v 42.389400 -18.361799 7.181131
v 75.666199 -16.900101 9.433521
v 79.367302 -18.269899 6.559361
v 83.084999 -18.138100 5.559651
v 83.068398 -16.245199 9.159211
v 79.624603 -16.225201 9.780981
v 78.562401 -15.015199 11.551801
v 81.018700 -14.735600 11.244001
v 34.987202 -5.554459 13.298200
v 54.671101 0.803273 15.590300
v 34.987202 -1.852439 13.984000
v 31.286100 -1.852439 13.529900
v 31.261200 1.813641 13.606100
v 31.286100 1.813641 13.609100
v 34.987202 1.813641 13.938300
v 31.294399 5.543611 13.170200
v 31.294399 1.841591 13.609100
v 28.215700 1.841591 13.133700
v 28.215700 5.543611 12.746600
v 28.215700 8.834301 11.911499
v 28.215700 10.627401 11.067199
v 46.854000 15.515501 11.826099
v 28.215700 12.887701 9.662109
v 28.215700 15.200001 7.967479
v 49.791599 15.619301 11.947999
v 28.215700 15.515501 7.656599
v 28.215700 17.348499 5.486498
v 40.339699 18.578600 7.680979
v 28.215700 18.530600 3.950369
v 94.163399 1.813641 12.810600
v 97.839699 1.813641 12.457000
v 101.556999 -4.647921 -11.191600
v 90.537003 -9.512061 -11.493299
vn 0.0018 0.9974 -0.0719
vn 0.0023 0.9480 -0.3183
vn -0.6997 0.7138 -0.0308
vn 0.0561 0.9984 0.0005
vn -0.0291 0.9832 0.1802
vn 0.1197 0.3821 0.9163
vn 0.0206 0.9892 0.1451
vn -0.5282 0.8133 0.2442
vn -0.1441 0.8026 0.5788
vn -0.0620 0.7934 0.6055
vn -0.0491 0.7101 0.7024
vn -0.0363 0.2332 0.9718
vn 0.0242 0.9853 0.1693
vn 0.1510 0.9843 0.0914
vn 0.3451 0.8684 0.3561
vn 0.3201 0.9324 0.1679
vn 0.0539 0.1575 0.9860
vn 0.0735 0.1697 0.9827
vn 0.2261 0.3803 0.8968
vn 0.3523 0.7688 0.5338
vn 0.3600 0.8473 0.3905
vn 0.1829 0.9820 -0.0480
vn 0.2738 0.9521 -0.1359
vn 0.1706 0.9808 -0.0943
vn 0.4082 0.9088 -0.0862
vn 0.1840 0.7454 -0.6407
vn 0.3271 0.9098 -0.2555
vn 0.2613 0.9484 -0.1795
vn 0.3636 0.9261 -0.1010
vn 0.0731 0.4368 -0.8966
vn 0.0310 0.4673 -0.8835
vn 0.2061 0.6964 -0.6875
vn 0.1350 0.4435 -0.8861
vn 0.0039 0.3591 -0.9333
vn 0.0573 0.4084 -0.9110
vn 0.0550 0.4476 -0.8925
vn 0.0954 0.1284 -0.9871
vn 0.0255 0.4404 -0.8975
vn -0.0481 0.4427 -0.8954
vn -0.0143 0.4442 -0.8958
vn 0.0876 0.1373 -0.9867
vn 0.0533 0.0442 -0.9976
vn -0.0392 0.2011 -0.9788
vn -0.0560 0.3023 -0.9516
vn -0.0682 0.3301 -0.9415
vn -0.0720 0.3428 -0.9367
vn -0.9984 0.0175 -0.0545
vn -0.1509 0.5462 -0.8239
vn -0.0340 0.5095 -0.8598
vn -0.0185 0.8332 -0.5527
vn -0.0650 0.6367 -0.7683
vn -0.0081 0.4926 -0.8702
vn -0.4355 0.7955 -0.4214
vn -0.3497 0.6832 -0.6411
vn -0.2370 0.5843 -0.7762
vn -0.2833 0.6268 -0.7258
vn -0.3020 0.6433 -0.7035
vn -0.2855 0.9260 -0.2472
vn -0.9983 0.0356 0.0454
vn -0.9994 0.0340 -0.0000
vn -0.1452 -0.0034 -0.9894
vn 0.0029 -0.2701 -0.9628
vn -0.1442 0.0952 -0.9850
vn -0.1180 0.1226 -0.9854
vn -0.1068 -0.4742 -0.8739
vn -0.2323 -0.4687 -0.8522
vn -0.3449 -0.6067 -0.7162
vn -0.2041 -0.6568 -0.7259
vn -0.7927 -0.4570 -0.4035
vn -0.8833 -0.3980 -0.2478
vn -0.6970 -0.6743 -0.2438
vn -0.3287 -0.9381 -0.1088
vn -0.4356 -0.8873 0.1515
vn -0.5199 -0.7788 0.3511
vn -0.7805 -0.4712 0.4107
vn -0.7968 -0.4066 0.4470
vn -0.9357 -0.1956 0.2935
vn -0.9358 -0.1940 0.2945
vn -0.9357 -0.1811 0.3029
vn -0.9345 -0.1486 0.3234
vn -0.2854 -0.2907 0.9133
vn -0.2532 -0.2397 0.9372
vn -0.9320 -0.0582 0.3576
vn -0.9806 -0.0077 0.1957
vn -0.1408 0.2119 -0.9671
vn -0.0085 -0.1192 -0.9928
vn 0.0134 -0.1313 -0.9913
vn 0.0320 -0.1985 -0.9796
vn 0.0089 -0.1978 -0.9802
vn 0.0808 -0.0184 -0.9966
vn 0.0826 -0.0172 -0.9964
vn 0.0823 -0.1142 -0.9900
vn 0.0554 -0.2925 -0.9546
vn 0.0404 -0.3015 -0.9526
vn 0.0524 -0.2340 -0.9708
vn 0.0178 -0.3047 -0.9523
vn 0.0961 0.0552 -0.9938
vn 0.1284 -0.1702 -0.9770
vn 0.0904 -0.3534 -0.9311
vn 0.1376 -0.2917 -0.9466
vn 0.1085 -0.5004 -0.8590
vn 0.0691 -0.4152 -0.9071
vn 0.0855 -0.4406 -0.8936
vn 0.0981 -0.4599 -0.8826
vn 0.0947 -0.4547 -0.8856
vn 0.1004 -0.5509 -0.8285
vn 0.0241 -0.6031 -0.7973
vn 0.1178 -0.6439 -0.7560
vn 0.1030 -0.7484 -0.6553
vn 0.1192 -0.6054 -0.7869
vn 0.0195 -0.3743 -0.9271
vn -0.0001 -0.4730 -0.8811
vn -0.0006 -0.5828 -0.8126
vn 0.0422 -0.7821 -0.6217
vn 0.0219 -0.8494 -0.5273
vn -0.0113 -0.7276 -0.6859
vn -0.0092 -0.6010 -0.7992
vn 0.0107 -0.9693 -0.2456
vn -0.0241 -0.7908 -0.6116
vn -0.0375 -0.7910 -0.6106
vn 0.0221 -0.9627 -0.2698
vn 0.0200 -0.9816 -0.1901
vn 0.0653 -0.9709 -0.2305
vn 0.0468 -0.9690 -0.2425
vn 0.0527 -0.9905 -0.1268
vn 0.0041 -1.0000 0.0061
vn 0.0091 -0.9660 0.2582
vn 0.0775 -0.9929 0.0907
vn 0.0850 -0.9959 -0.0321
vn 0.0874 -0.9951 0.0459
vn 0.2227 -0.9494 -0.2216
vn 0.1743 -0.9838 -0.0431
vn 0.1287 -0.9914 0.0224
vn 0.0895 -0.9839 0.1545
vn 0.1782 -0.9829 0.0456
vn 0.1850 -0.9391 0.2894
vn 0.2836 -0.9585 -0.0307
vn 0.3162 -0.9333 0.1702
vn 0.3337 -0.9414 0.0499
vn 0.3104 -0.9440 -0.1119
vn 0.2839 -0.9505 -0.1267
vn 0.2374 -0.9663 -0.0997
vn 0.3057 -0.9380 -0.1634
vn 0.2648 -0.9457 -0.1887
vn 0.2468 -0.8383 -0.4861
vn 0.1560 -0.7804 -0.6055
vn 0.1680 -0.6511 -0.7402
vn 0.2068 -0.5057 -0.8376
vn 0.3746 -0.8675 -0.3272
vn 0.3828 -0.7956 -0.4695
vn 0.1616 -0.8834 -0.4398
vn 0.2388 -0.6371 -0.7328
vn 0.2825 -0.6191 -0.7328
vn 0.1133 -0.8681 -0.4832
vn 0.1422 -0.6373 -0.7574
vn 0.0514 -0.8568 -0.5131
vn 0.0774 -0.7941 -0.6028
vn 0.2774 -0.5637 -0.7780
vn 0.4525 -0.6119 -0.6487
vn 0.2965 -0.2068 -0.9324
vn 0.2606 -0.4732 -0.8415
vn 0.5705 -0.3500 -0.7430
vn 0.6689 -0.4681 -0.5775
vn 0.6813 -0.6467 -0.3428
vn 0.5242 -0.7441 -0.4142
vn 0.4688 -0.7697 -0.4333
vn 0.4739 -0.8110 -0.3430
vn 0.4017 -0.8382 -0.3688
vn 0.4742 -0.8577 -0.1988
vn 0.6285 -0.7679 -0.1235
vn 0.5927 -0.7981 0.1081
vn 0.6803 -0.7100 0.1820
vn 0.6631 -0.7451 0.0719
vn 0.6281 -0.7532 0.1952
vn 0.5661 -0.7049 0.4274
vn 0.7209 -0.6865 -0.0949
vn 0.5319 -0.8046 0.2641
vn 0.3657 -0.8931 0.2619
vn 0.2622 -0.3442 0.9015
vn 0.4986 -0.4456 0.7435
vn 0.4082 -0.6477 0.6433
vn 0.6826 -0.4179 0.5996
vn 0.3612 -0.7420 0.5649
vn 0.4854 -0.7948 0.3643
vn 0.2935 -0.6336 0.7158
vn 0.2566 -0.7011 0.6652
vn 0.3237 -0.8655 0.3822
vn 0.1987 -0.5618 0.8030
vn 0.1527 -0.5301 0.8341
vn 0.1653 -0.7495 0.6410
vn 0.1307 -0.2792 0.9513
vn 0.2223 -0.7683 0.6003
vn 0.0941 -0.3051 0.9476
vn 0.0781 -0.1708 0.9822
vn 0.0788 -0.0915 0.9927
vn 0.0530 -0.0725 0.9960
vn 0.0771 0.0266 0.9967
vn 0.0493 -0.1160 0.9920
vn 0.1511 -0.0560 0.9869
vn 0.1624 -0.0796 0.9835
vn 0.2767 -0.0485 0.9597
vn 0.7134 -0.0357 0.6999
vn 0.4665 -0.1638 0.8692
vn 0.2228 -0.0661 0.9726
vn 0.3573 -0.1317 0.9247
vn 0.4777 -0.3138 0.8206
vn 0.2259 -0.0686 0.9717
vn 0.9894 -0.0464 0.1376
vn 0.8202 0.1694 0.5465
vn 0.9826 0.1345 0.1285
vn 0.8586 -0.4924 0.1428
vn 0.9798 0.1811 0.0846
vn 0.8948 -0.4454 -0.0316
vn 0.9946 -0.0618 -0.0838
vn 0.7302 -0.6810 0.0548
vn 0.8889 -0.4014 -0.2208
vn 0.8374 -0.2514 -0.4854
vn 0.9671 -0.1653 -0.1935
vn 0.7890 -0.5732 -0.2212
vn 0.8243 -0.4420 -0.3538
vn 0.3023 0.0574 -0.9515
vn 0.9847 -0.0332 -0.1710
vn 0.6790 0.1674 -0.7148
vn 0.6116 -0.3665 -0.7011
vn 0.8035 -0.4339 -0.4076
vn 0.7795 -0.4525 -0.4331
vn 0.2693 0.1416 -0.9526
vn 0.4133 0.1227 -0.9023
vn 0.1418 -0.0113 -0.9898
vn 0.4837 0.5303 -0.6963
vn 0.3855 0.6888 -0.6140
vn 0.3351 0.6120 -0.7164
vn 0.4641 0.8063 -0.3667
vn 0.5076 0.8166 -0.2746
vn 0.7949 0.5329 -0.2902
vn 0.7413 0.4069 -0.5338
vn 0.4688 0.8582 -0.2092
vn 0.4609 0.8698 -0.1759
vn 0.5325 0.8343 -0.1426
vn 0.6089 0.7926 -0.0316
vn 0.8030 0.5940 -0.0493
vn 0.4459 0.8875 -0.1160
vn 0.4728 0.8806 -0.0327
vn 0.4062 0.8917 0.1999
vn 0.5535 0.8235 0.1241
vn 0.4712 0.8196 0.3258
vn 0.6113 0.7598 0.2215
vn 0.7972 0.5912 0.1225
vn 0.7654 0.6429 0.0296
vn 0.9511 0.3084 -0.0149
vn 0.9843 0.1727 -0.0361
vn 0.9803 0.1897 -0.0548
vn 0.9711 0.1236 -0.2040
vn 0.9559 0.1752 -0.2357
vn 0.9743 0.0851 -0.2086
vn 0.6904 0.5858 0.4245
vn 0.9491 0.2863 0.1317
vn 0.9378 0.2633 0.2262
vn 0.4910 0.7283 0.4780
vn 0.4023 0.8674 0.2929
vn 0.1130 0.0681 -0.9913
vn -0.0362 -0.2810 0.9590
vn -0.0533 -0.2271 0.9724
vn -0.0712 -0.4212 0.9042
vn 0.0559 -0.7405 0.6698
vn -0.0304 -0.6391 0.7686
vn -0.0370 -0.5989 0.7999
vn -0.0428 -0.6913 0.7213
vn 0.0145 -0.7848 0.6195
vn -0.0433 -0.8554 0.5162
vn -0.0770 -0.6813 0.7280
vn -0.0568 -0.7793 0.6241
vn 0.0713 -0.8405 0.5372
vn 0.0849 -0.9082 0.4099
vn 0.1054 -0.8261 0.5535
vn 0.1169 -0.9618 0.2476
vn 0.1350 -0.5822 0.8018
vn 0.0932 -0.8114 0.5770
vn 0.1744 -0.6528 0.7372
vn -0.0697 -0.1993 0.9774
vn -0.0837 -0.0782 0.9934
vn -0.0692 0.1284 0.9893
vn -0.1273 -0.0603 0.9900
vn -0.1360 -0.0145 0.9906
vn -0.0888 0.0123 0.9960
vn -0.0813 0.0689 0.9943
vn -0.0798 0.1819 0.9801
vn -0.1226 0.1122 0.9861
vn -0.1522 0.1023 0.9831
vn -0.1884 0.1529 0.9701
vn -0.1454 0.3193 0.9364
vn -0.1266 0.5751 0.8082
vn -0.2786 0.4660 0.8398
vn -0.0354 0.4226 0.9056
vn -0.3279 0.5301 0.7820
vn -0.2534 0.6128 0.7485
vn -0.5510 0.6280 0.5496
vn -0.6026 0.6191 0.5036
vn -0.1883 0.7618 0.6198
vn -0.6293 0.6731 0.3884
vn 0.0728 0.0753 0.9945
vn 0.1063 0.0750 0.9915
vn 0.1507 -0.2775 -0.9488
vn 0.1527 -0.2890 -0.9451
s 1
f 1//1 2//2 4//3
f 1//1 3//4 2//2
f 1//1 5//5 3//4
f 1//1 4//3 5//5
f 5//5 11//6 6//7
f 3//4 5//5 6//7
f 5//5 7//8 8//9
f 4//3 7//8 5//5
f 5//5 8//9 9//10
f 5//5 9//10 10//11
f 5//5 10//11 11//6
f 10//11 14//12 11//6
f 6//7 11//6 12//13
f 21//14 12//13 11//6
f 11//6 20//15 13//16
f 21//14 11//6 13//16
f 11//6 14//12 15//17
f 11//6 15//17 16//18
f 11//6 16//18 17//19
f 11//6 17//19 18//20
f 11//6 18//20 19//21
f 11//6 19//21 20//15
f 6//7 12//13 21//14
f 3//4 6//7 21//14
f 21//14 13//16 22//22
f 3//4 21//14 22//22
f 22//22 24//23 23//24
f 3//4 22//22 23//24
f 22//22 13//16 24//23
f 13//16 26//25 24//23
f 23//24 24//23 29//26
f 24//23 28//27 25//28
f 29//26 24//23 25//28
f 24//23 26//25 27//29
f 24//23 27//29 28//27
f 2//2 23//24 29//26
f 29//26 33//30 30//31
f 2//2 29//26 30//31
f 29//26 25//28 28//27
f 29//26 28//27 31//32
f 29//26 31//32 32//33
f 29//26 32//33 33//30
f 32//33 35//34 33//30
f 33//30 36//35 34//36
f 30//31 33//30 34//36
f 33//30 35//34 36//35
f 35//34 34//36 36//35
f 32//33 39//37 35//34
f 37//38 34//36 35//34
f 30//31 37//38 35//34
f 35//34 46//39 38//40
f 30//31 35//34 38//40
f 35//34 39//37 40//41
f 35//34 40//41 41//42
f 35//34 41//42 42//43
f 35//34 42//43 43//44
f 35//34 43//44 44//45
f 35//34 44//45 45//46
f 35//34 45//46 46//39
f 47//47 46//39 45//46
f 47//47 48//48 46//39
f 38//40 46//39 49//49
f 49//49 46//39 48//48
f 50//50 49//49 51//51
f 52//52 49//49 50//50
f 52//52 38//40 49//49
f 49//49 48//48 51//51
f 2//2 52//52 50//50
f 2//2 30//31 52//52
f 30//31 38//40 52//52
f 50//50 51//51 53//53
f 51//51 57//54 53//53
f 51//51 48//48 54//55
f 51//51 54//55 55//56
f 51//51 55//56 56//57
f 51//51 56//57 57//54
f 47//47 53//53 57//54
f 47//47 57//54 56//57
f 47//47 56//57 55//56
f 47//47 55//56 54//55
f 47//47 54//55 48//48
f 50//50 53//53 58//58
f 58//58 53//53 47//47
f 2//2 50//50 58//58
f 4//3 58//58 47//47
f 2//2 58//58 4//3
f 47//47 83//59 59//60
f 4//3 47//47 59//60
f 47//47 60//61 62//62
f 47//47 61//63 60//61
f 47//47 85//64 61//63
f 47//47 62//62 63//65
f 47//47 63//65 64//66
f 47//47 64//66 65//67
f 47//47 65//67 66//68
f 47//47 66//68 67//69
f 47//47 67//69 68//70
f 47//47 68//70 69//71
f 47//47 69//71 70//72
f 47//47 70//72 71//73
f 47//47 71//73 72//74
f 47//47 72//74 73//75
f 47//47 73//75 74//76
f 47//47 74//76 75//77
f 47//47 75//77 76//78
f 47//47 76//78 77//79
f 47//47 77//79 78//80
f 47//47 78//80 79//81
f 47//47 79//81 80//82
f 47//47 80//82 81//83
f 47//47 81//83 82//84
f 47//47 82//84 83//59
f 47//47 45//46 44//45
f 47//47 44//45 84//85
f 47//47 84//85 85//64
f 61//63 85//64 60//61
f 84//85 43//44 85//64
f 85//64 86//86 60//61
f 85//64 43//44 42//43
f 85//64 42//43 86//86
f 60//61 86//86 62//62
f 86//86 87//87 88//88
f 41//42 87//87 86//86
f 86//86 89//89 62//62
f 86//86 88//88 89//89
f 41//42 86//86 42//43
f 88//88 62//62 89//89
f 90//90 91//91 88//88
f 41//42 90//90 88//88
f 41//42 88//88 87//87
f 88//88 91//91 96//92
f 88//88 92//93 94//94
f 88//88 93//95 92//93
f 88//88 96//92 93//95
f 88//88 94//94 95//96
f 88//88 95//96 62//62
f 97//97 96//92 91//91
f 97//97 98//98 96//92
f 98//98 99//99 96//92
f 96//92 92//93 93//95
f 96//92 99//99 92//93
f 100//100 102//101 99//99
f 98//98 100//100 99//99
f 92//93 99//99 101//102
f 99//99 103//103 101//102
f 99//99 102//101 105//104
f 99//99 104//105 103//103
f 99//99 105//104 104//105
f 106//106 105//104 102//101
f 106//106 104//105 105//104
f 101//102 103//103 106//106
f 110//107 101//102 106//106
f 106//106 109//108 107//109
f 110//107 106//106 107//109
f 106//106 103//103 104//105
f 106//106 102//101 108//110
f 106//106 108//110 109//108
f 62//62 110//107 63//65
f 62//62 111//111 110//107
f 63//65 110//107 112//112
f 111//111 101//102 110//107
f 110//107 115//113 112//112
f 110//107 107//109 113//114
f 110//107 113//114 114//115
f 110//107 114//115 115//113
f 63//65 112//112 115//113
f 115//113 117//116 116//117
f 63//65 115//113 116//117
f 115//113 114//115 117//116
f 114//115 118//118 117//116
f 116//117 117//116 66//68
f 117//116 119//119 66//68
f 117//116 118//118 69//71
f 117//116 69//71 119//119
f 69//71 68//70 119//119
f 66//68 119//119 67//69
f 119//119 120//120 67//69
f 119//119 68//70 120//120
f 67//69 120//120 68//70
f 114//115 121//121 118//118
f 118//118 121//121 122//122
f 118//118 70//72 69//71
f 118//118 122//122 70//72
f 123//123 122//122 124//124
f 123//123 125//125 122//122
f 121//121 124//124 122//122
f 122//122 126//126 70//72
f 122//122 125//125 126//126
f 127//127 71//73 126//126
f 127//127 126//126 128//128
f 70//72 126//126 71//73
f 126//126 129//129 128//128
f 126//126 125//125 129//129
f 128//128 129//129 132//130
f 130//131 129//129 123//123
f 130//131 131//132 129//129
f 123//123 129//129 125//125
f 131//132 133//133 129//129
f 129//129 133//133 132//130
f 134//134 133//133 135//135
f 134//134 132//130 133//133
f 131//132 135//135 133//133
f 134//134 135//135 136//136
f 136//136 135//135 137//137
f 137//137 135//135 131//132
f 136//136 137//137 139//138
f 138//139 137//137 140//140
f 138//139 139//138 137//137
f 140//140 137//137 141//141
f 137//137 142//142 141//141
f 137//137 131//132 142//142
f 130//131 142//142 131//132
f 130//131 141//141 142//142
f 143//143 141//141 144//144
f 140//140 141//141 143//143
f 130//131 144//144 141//141
f 145//145 144//144 130//131
f 145//145 143//143 144//144
f 152//146 146//147 145//145
f 149//148 145//145 146//147
f 145//145 147//149 143//143
f 150//150 147//149 145//145
f 145//145 130//131 148//151
f 152//146 145//145 148//151
f 149//148 153//152 145//145
f 150//150 145//145 151//153
f 151//153 145//145 153//152
f 149//148 151//153 153//152
f 154//154 152//146 148//151
f 107//109 152//146 154//154
f 155//155 146//147 152//146
f 107//109 155//155 152//146
f 149//148 155//155 108//110
f 149//148 146//147 155//155
f 107//109 108//110 155//155
f 154//154 123//123 156//156
f 107//109 154//154 156//156
f 154//154 148//151 130//131
f 154//154 130//131 123//123
f 114//115 156//156 121//121
f 113//114 156//156 114//115
f 113//114 157//157 156//156
f 107//109 156//156 157//157
f 156//156 124//124 121//121
f 156//156 123//123 124//124
f 107//109 157//157 113//114
f 149//148 158//158 151//153
f 159//159 150//150 151//153
f 159//159 151//153 158//158
f 160//160 159//159 161//161
f 160//160 162//162 159//159
f 161//161 159//159 158//158
f 162//162 163//163 159//159
f 159//159 163//163 164//164
f 159//159 164//164 165//165
f 159//159 165//165 166//166
f 159//159 166//166 150//150
f 165//165 167//167 166//166
f 166//166 168//168 150//150
f 166//166 167//167 168//168
f 167//167 147//149 168//168
f 150//150 168//168 147//149
f 164//164 167//167 165//165
f 169//169 147//149 167//167
f 164//164 169//169 167//167
f 164//164 170//170 169//169
f 171//171 169//169 170//170
f 169//169 138//139 140//140
f 171//171 138//139 169//169
f 169//169 140//140 147//149
f 172//172 171//171 174//173
f 172//172 173//174 171//171
f 178//175 171//171 173//174
f 171//171 176//176 174//173
f 171//171 175//177 177//178
f 178//175 175//177 171//171
f 171//171 170//170 176//176
f 171//171 177//178 138//139
f 179//179 178//175 181//180
f 179//179 182//181 178//175
f 180//182 178//175 172//172
f 180//182 181//180 178//175
f 172//172 178//175 173//174
f 178//175 182//181 183//183
f 178//175 183//183 184//184
f 178//175 184//184 175//177
f 183//183 177//178 184//184
f 184//184 177//178 175//177
f 179//179 183//183 182//181
f 179//179 187//185 183//183
f 183//183 185//186 186//187
f 187//185 185//186 183//183
f 183//183 186//187 177//178
f 179//179 188//188 187//185
f 188//188 185//186 187//185
f 189//189 190//190 188//188
f 192//191 189//189 188//188
f 192//191 188//188 179//179
f 188//188 190//190 191//192
f 188//188 191//192 185//186
f 193//193 192//191 195//194
f 193//193 189//189 192//191
f 194//195 192//191 179//179
f 194//195 195//194 192//191
f 194//195 193//193 195//194
f 196//196 194//195 197//197
f 196//196 198//198 194//195
f 197//197 194//195 200//199
f 198//198 193//193 194//195
f 194//195 179//179 199//200
f 200//199 194//195 199//200
f 17//19 197//197 200//199
f 17//19 200//199 201//201
f 200//199 199//200 201//201
f 17//19 201//201 202//202
f 201//201 205//203 202//202
f 201//201 199//200 204//204
f 201//201 203//205 205//203
f 201//201 204//204 203//205
f 203//205 179//179 205//203
f 202//202 205//203 180//182
f 205//203 206//206 180//182
f 205//203 179//179 206//206
f 179//179 181//180 206//206
f 180//182 206//206 181//180
f 199//200 207//207 204//204
f 204//204 207//207 203//205
f 199//200 203//205 207//207
f 199//200 179//179 203//205
f 202//202 209//208 208//209
f 17//19 202//202 208//209
f 202//202 180//182 209//208
f 208//209 209//208 210//210
f 180//182 211//211 209//208
f 209//208 212//212 210//210
f 209//208 211//211 214//213
f 209//208 213//214 212//212
f 209//208 214//213 213//214
f 214//213 215//215 176//176
f 211//211 215//215 214//213
f 214//213 176//176 216//216
f 213//214 214//213 216//216
f 220//217 217//218 216//216
f 213//214 216//216 217//218
f 216//216 176//176 219//219
f 216//216 164//164 218//220
f 220//217 216//216 218//220
f 216//216 219//219 164//164
f 160//160 220//217 162//162
f 226//221 220//217 160//160
f 213//214 220//217 221//222
f 225//223 221//222 220//217
f 220//217 224//224 162//162
f 213//214 217//218 220//217
f 220//217 218//220 222//225
f 220//217 222//225 223//226
f 220//217 223//226 163//163
f 220//217 163//163 224//224
f 226//221 225//223 220//217
f 227//227 229//228 226//221
f 227//227 226//221 228//229
f 226//221 160//160 228//229
f 226//221 229//228 225//223
f 230//230 225//223 229//228
f 227//227 230//230 229//228
f 231//231 230//230 232//232
f 236//233 230//230 231//231
f 232//232 230//230 227//227
f 233//234 234//235 230//230
f 236//233 233//234 230//230
f 230//230 234//235 235//236
f 230//230 235//236 225//223
f 28//27 236//233 231//231
f 28//27 237//237 236//233
f 237//237 233//234 236//233
f 238//238 239//239 237//237
f 28//27 238//238 237//237
f 237//237 239//239 233//234
f 240//240 241//241 239//239
f 242//242 240//240 239//239
f 239//239 234//235 233//234
f 239//239 241//241 234//235
f 242//242 239//239 238//238
f 26//25 243//243 242//242
f 28//27 26//25 242//242
f 28//27 242//242 238//238
f 242//242 243//243 240//240
f 244//244 243//243 26//25
f 244//244 245//245 243//243
f 245//245 240//240 243//243
f 244//244 246//246 245//245
f 246//246 247//247 245//245
f 245//245 247//247 248//248
f 245//245 248//248 249//249
f 245//245 249//249 240//240
f 240//240 249//249 241//241
f 249//249 250//250 241//241
f 249//249 212//212 250//250
f 248//248 212//212 249//249
f 212//212 251//251 250//250
f 241//241 250//250 251//251
f 213//214 251//251 212//212
f 241//241 251//251 252//252
f 213//214 252//252 251//251
f 241//241 252//252 234//235
f 234//235 252//252 253//253
f 225//223 253//253 252//252
f 213//214 221//222 252//252
f 225//223 252//252 221//222
f 234//235 253//253 254//254
f 253//253 255//255 254//254
f 225//223 255//255 253//253
f 225//223 254//254 255//255
f 234//235 254//254 225//223
f 256//256 248//248 247//247
f 256//256 257//257 248//248
f 257//257 212//212 248//248
f 256//256 258//258 257//257
f 210//210 212//212 257//257
f 210//210 257//257 258//258
f 208//209 258//258 256//256
f 208//209 210//210 258//258
f 17//19 208//209 256//256
f 256//256 246//246 259//259
f 17//19 256//256 259//259
f 256//256 247//247 246//246
f 18//20 259//259 246//246
f 17//19 259//259 18//20
f 244//244 260//260 246//246
f 19//21 246//246 260//260
f 18//20 246//246 19//21
f 19//21 260//260 244//244
f 13//16 244//244 26//25
f 13//16 19//21 244//244
f 234//235 225//223 235//236
f 28//27 231//231 232//232
f 32//33 232//232 227//227
f 31//32 232//232 32//33
f 28//27 232//232 31//32
f 227//227 228//229 261//261
f 261//261 228//229 97//97
f 97//97 228//229 98//98
f 228//229 160//160 98//98
f 39//37 261//261 97//97
f 39//37 227//227 261//261
f 32//33 227//227 39//37
f 162//162 224//224 163//163
f 218//220 223//226 222//225
f 218//220 164//164 223//226
f 223//226 164//164 163//163
f 176//176 164//164 219//219
f 215//215 174//173 176//176
f 172//172 174//173 215//215
f 172//172 215//215 211//211
f 180//182 172//172 211//211
f 196//196 262//262 198//198
f 262//262 193//193 198//198
f 196//196 263//263 262//262
f 80//82 262//262 263//263
f 262//262 79//81 266//264
f 80//82 79//81 262//262
f 262//262 264//265 193//193
f 262//262 265//266 264//265
f 262//262 267//267 265//266
f 262//262 266//264 267//267
f 265//266 267//267 268//268
f 266//264 268//268 267//267
f 265//266 268//268 269//269
f 269//269 268//268 271//270
f 268//268 270//271 73//75
f 266//264 270//271 268//268
f 268//268 272//272 271//270
f 268//268 73//75 272//272
f 271//270 272//272 72//74
f 73//75 72//74 272//272
f 271//270 72//74 127//127
f 269//269 271//270 127//127
f 270//271 74//76 73//75
f 266//264 74//76 270//271
f 265//266 269//269 264//265
f 264//265 269//269 273//273
f 269//269 274//274 273//273
f 269//269 127//127 274//274
f 127//127 134//134 274//274
f 274//274 136//136 190//190
f 276//275 274//274 190//190
f 274//274 134//134 275//276
f 274//274 275//276 136//136
f 273//273 274//274 276//275
f 264//265 276//275 278//277
f 264//265 277//278 276//275
f 273//273 276//275 277//278
f 276//275 190//190 278//277
f 264//265 278//277 193//193
f 193//193 278//277 189//189
f 278//277 279//279 189//189
f 278//277 190//190 279//279
f 189//189 279//279 190//190
f 264//265 273//273 277//278
f 134//134 136//136 275//276
f 79//81 78//80 266//264
f 266//264 78//80 77//79
f 266//264 77//79 76//78
f 266//264 76//78 75//77
f 266//264 75//77 74//76
f 80//82 263//263 280//280
f 282//281 280//280 263//263
f 282//281 263//263 281//282
f 15//17 281//282 263//263
f 15//17 263//263 196//196
f 81//83 282//281 283//283
f 81//83 280//280 282//281
f 284//284 283//283 282//281
f 284//284 282//281 285//285
f 282//281 286//286 285//285
f 282//281 281//282 286//286
f 287//287 286//286 281//282
f 288//288 286//286 287//287
f 285//285 286//286 288//288
f 284//284 288//288 289//289
f 284//284 285//285 288//288
f 289//289 288//288 290//290
f 290//290 288//288 287//287
f 83//59 290//290 291//291
f 83//59 289//289 290//290
f 290//290 287//287 291//291
f 291//291 293//292 292//293
f 83//59 291//291 292//293
f 291//291 287//287 14//12
f 291//291 14//12 293//292
f 10//11 293//292 296//294
f 9//10 293//292 10//11
f 292//293 293//292 294//295
f 294//295 293//292 295//296
f 8//9 295//296 293//292
f 8//9 293//292 9//10
f 293//292 14//12 296//294
f 10//11 296//294 14//12
f 83//59 294//295 295//296
f 8//9 297//297 295//296
f 83//59 295//296 297//297
f 83//59 297//297 298//298
f 297//297 299//299 298//298
f 8//9 299//299 297//297
f 298//298 299//299 300//300
f 8//9 300//300 299//299
f 83//59 300//300 7//8
f 83//59 298//298 300//300
f 7//8 300//300 8//9
f 83//59 292//293 294//295
f 83//59 284//284 289//289
f 14//12 287//287 281//282
f 83//59 82//84 284//284
f 82//84 283//283 284//284
f 82//84 81//83 283//283
f 14//12 281//282 15//17
f 81//83 80//82 280//280
f 15//17 196//196 197//197
f 15//17 197//197 301//301
f 197//197 302//302 301//301
f 17//19 302//302 197//197
f 16//18 302//302 17//19
f 16//18 301//301 302//302
f 15//17 301//301 16//18
f 191//192 136//136 139//138
f 190//190 136//136 191//192
f 191//192 139//138 186//187
f 185//186 191//192 186//187
f 177//178 186//187 139//138
f 177//178 139//138 138//139
f 176//176 170//170 164//164
f 160//160 161//161 303//303
f 303//303 161//161 149//148
f 161//161 158//158 149//148
f 98//98 160//160 303//303
f 100//100 303//303 304//304
f 98//98 303//303 100//100
f 303//303 149//148 304//304
f 100//100 304//304 149//148
f 149//148 108//110 102//101
f 100//100 149//148 102//101
f 147//149 140//140 143//143
f 128//128 132//130 134//134
f 127//127 128//128 134//134
f 127//127 72//74 71//73
f 64//66 116//117 65//67
f 63//65 116//117 64//66
f 116//117 66//68 65//67
f 92//93 111//111 94//94
f 92//93 101//102 111//111
f 94//94 111//111 95//96
f 62//62 95//96 111//111
f 107//109 109//108 108//110
f 39//37 97//97 41//42
f 41//42 97//97 91//91
f 41//42 91//91 90//90
f 44//45 43//44 84//85
f 4//3 59//60 83//59
f 4//3 83//59 7//8
f 39//37 41//42 40//41
f 30//31 34//36 37//38
f 28//27 27//29 26//25
f 3//4 23//24 2//2
f 13//16 20//15 19//21
