# Blender 4.4.0
# www.blender.org
mtllib decomposed_4.mtl
o decomposed_(1).005
v -13.104500 -16.652699 13.070801
v -9.405100 -12.951399 12.677201
v -9.405100 -16.652699 13.037101
v -16.801901 -16.652699 12.897301
v -26.679300 -20.348900 12.426102
v -20.501400 -20.348900 12.389902
v -16.801901 -20.348900 12.345901
v -26.679300 -22.298201 11.900602
v -26.679300 -23.219601 11.636502
v -26.679300 -25.067699 10.953102
v -24.200800 -23.139200 11.608002
v -24.200800 -24.989799 10.929802
v -20.501400 -23.014601 11.566602
v -20.501400 -24.862700 10.880602
v -26.679300 -26.835300 9.762192
v -26.679300 -27.855400 9.065782
v -26.679300 -29.656799 7.654852
v -24.194700 -28.076000 8.822432
v -25.423800 -29.651600 7.649673
v -16.801901 -27.266199 8.835372
v -22.957500 -29.529600 7.447742
v -26.679300 -30.002001 6.678853
v -24.194700 -30.113600 6.023872
v -16.801901 -29.962999 4.840763
v -20.501400 -27.556900 9.032132
v -16.801901 -24.613501 10.683802
v -5.959190 -24.026899 9.795842
v -5.959190 -21.968599 11.193802
v -5.959190 -20.138599 11.859201
v -5.959190 -16.652699 12.863601
v -7.857590 -22.137300 11.258502
v -10.323900 -22.326799 11.354301
v -16.801901 -22.762800 11.494102
v -9.216480 -20.681101 11.859201
v -13.104500 -20.348900 12.167202
v -5.959190 -13.205799 12.661701
v -5.959190 -24.216400 9.650862
v -5.959190 -26.285101 8.017292
v -5.959190 -26.391500 7.849022
v -5.959190 -27.546499 5.733922
v -5.959190 -27.637400 5.482802
v -5.959190 -28.673000 2.047382
v -5.959190 -28.675600 1.747072
v -5.959190 -28.600300 -1.685758
v -5.959190 -27.032600 -5.636358
v -5.959190 -26.632900 -6.262868
v -5.959190 -24.745899 -8.525528
v -5.959190 -24.047600 -9.177918
v -5.959190 -23.492201 -9.687928
v -5.959190 -21.070499 -11.616598
v -5.959190 -20.663000 -11.831498
v -5.959190 -16.652702 -13.377099
v -5.959190 -12.943601 -12.786799
v -5.959190 -9.911941 -11.336999
v -5.959190 -9.704291 -11.080699
v -5.959190 -8.624521 -8.761119
v -5.959190 -5.636970 -1.662459
v -5.959190 -4.549410 2.034430
v -5.959190 -4.990660 5.733921
v -5.959190 -5.060740 5.907371
v -5.959190 -6.446800 8.537651
v -5.959190 -6.581769 8.664511
v -5.959190 -8.634899 10.388700
v -5.959190 -8.762079 10.489701
v -5.959190 -10.485600 11.641701
v -5.959190 -10.643899 11.714201
v -5.959190 -12.951399 12.638401
v -9.405100 -10.651699 11.592501
v -13.175500 -12.691799 12.226801
v -11.989000 -10.856699 11.463101
v -26.679300 -12.416699 10.660501
v -26.679300 -9.644589 8.809481
v -26.679300 -9.032029 8.019881
v -26.679300 -7.793920 6.246511
v -26.679300 -7.612229 5.635540
v -26.679300 -7.292970 4.395481
v -26.679300 -7.259220 3.556680
v -26.679300 -7.251440 2.011141
v -26.679300 -7.360450 0.092789
v -9.405100 -6.002950 -1.662459
v -26.679300 -8.219600 -1.533019
v -26.679300 -10.181900 -4.906299
v -26.679300 -10.563400 -5.517269
v -26.679300 -11.417401 -6.754749
v -26.679300 -12.081901 -7.536589
v -26.679300 -13.364101 -8.880199
v -20.501400 -14.280401 -11.241199
v -26.679300 -14.176501 -9.553309
v -24.965401 -15.401701 -10.798599
v -26.679300 -16.079100 -10.676899
v -20.501400 -16.652700 -11.751299
v -26.679300 -17.737700 -11.023799
v -26.679300 -20.219101 -11.158398
v -26.679300 -22.575899 -11.041898
v -16.801901 -16.652700 -12.191399
v -26.679300 -24.424000 -10.293698
v -26.679300 -27.346701 -8.442688
v -6.873910 -22.254101 -10.948698
v -13.104500 -26.669201 -7.997398
v -9.405100 -26.365499 -7.707448
v -12.806400 -28.724899 -5.136708
v -9.405100 -27.954000 -5.359348
v -6.709630 -26.066999 -7.396788
v -11.376500 -29.581499 -3.441008
v -16.801901 -30.469200 -1.662458
v -10.405000 -29.825500 -0.973820
v -12.806400 -30.012400 -1.988658
v -13.842800 -29.729401 -3.754258
v -16.801901 -29.903299 -4.051978
v -26.679300 -30.949400 -1.662458
v -26.679300 -30.386101 -3.798268
v -26.679300 -30.139500 -4.686248
v -26.679300 -29.194700 -6.537278
v -16.801901 -28.680799 -5.900418
v -26.679300 -31.022100 -0.440515
v -20.501400 -30.757299 2.034432
v -26.679300 -31.063601 2.034432
v -24.200800 -30.952000 2.034432
v -26.679300 -30.788401 3.349582
v -20.501400 -30.082399 5.301582
v -26.679300 -30.266701 5.829712
v -16.801901 -30.528900 2.034432
v -12.924000 -30.069500 2.220832
v -10.405000 -29.825500 1.110212
v -14.035500 -29.822901 4.369592
v -20.501400 -29.405001 7.152612
v -16.801901 -29.116899 6.691803
v -11.569200 -29.511400 3.574812
v -26.679300 -14.267399 11.509701
v -26.679300 -15.832500 12.037801
v -26.679300 -16.652700 12.301901
v -26.679300 -19.126400 12.413202
vn -0.0116 -0.0495 0.9987
vn -0.0523 0.2509 0.9666
vn -0.0553 0.0977 0.9937
vn 0.0264 -0.1050 0.9941
vn 0.0085 -0.2241 0.9745
vn -0.9976 -0.0086 0.0684
vn 0.0058 -0.2652 0.9642
vn 0.0001 -0.3028 0.9530
vn 0.0307 -0.2913 0.9561
vn -0.3098 -0.4375 0.8442
vn 0.0246 -0.4243 0.9052
vn 0.0214 -0.3228 0.9462
vn -0.1984 -0.5512 0.8104
vn 0.0301 -0.3339 0.9421
vn 0.0475 -0.4878 0.8717
vn -0.2085 -0.5662 0.7975
vn -0.9476 -0.2376 0.2137
vn 0.0638 -0.8019 0.5940
vn 0.0325 -0.5818 0.8127
vn 0.1048 -0.6354 0.7651
vn 0.1085 -0.7755 0.6220
vn 0.0687 -0.5953 0.8005
vn -0.8958 -0.4233 0.1355
vn 0.0737 -0.9601 0.2699
vn 0.0512 -0.9682 0.2450
vn 0.0929 -0.5591 0.8239
vn 0.1656 -0.5612 0.8109
vn 0.1793 -0.4961 0.8496
vn 0.0638 -0.2968 0.9528
vn 0.0495 -0.3433 0.9379
vn 0.9986 -0.0106 0.0515
vn 0.0694 -0.4452 0.8928
vn 0.0502 -0.3185 0.9466
vn 0.0426 -0.3399 0.9395
vn 0.0481 -0.2862 0.9570
vn 0.1427 0.2022 0.9689
vn 0.0501 0.0607 0.9969
vn 0.2994 -0.5904 0.7496
vn 0.2038 -0.6963 0.6882
vn 0.5902 -0.7066 0.3904
vn 0.4366 -0.7943 0.4225
vn 0.7755 -0.6031 0.1865
vn 0.7722 -0.6147 0.1611
vn 0.8973 -0.4414 -0.0055
vn 0.9303 -0.3576 -0.0821
vn 0.9428 -0.3026 -0.1396
vn 0.9908 -0.1117 -0.0759
vn 0.9922 -0.0884 -0.0877
vn 0.9876 -0.1067 -0.1150
vn 0.9858 -0.1109 -0.1263
vn 0.9071 -0.2131 -0.3631
vn 0.6388 -0.2860 -0.7143
vn 0.6642 -0.0968 -0.7412
vn 0.7647 0.1754 -0.6201
vn 0.3379 0.5912 -0.7323
vn 0.0568 0.8685 -0.4925
vn 0.5618 0.7581 -0.3313
vn 0.9749 0.2082 -0.0787
vn 0.2595 0.9636 -0.0637
vn 0.2192 0.9608 0.1699
vn 0.2262 0.8644 0.4490
vn 0.0527 0.8435 0.5345
vn 0.0688 0.6443 0.7616
vn -0.0040 0.6332 0.7739
vn 0.3278 0.5539 0.7654
vn 0.2728 0.4651 0.8422
vn 0.3324 0.3534 0.8744
vn -0.0613 0.4822 0.8739
vn -0.0956 0.5539 0.8270
vn -0.0918 0.4139 0.9057
vn -0.1833 0.6232 0.7603
vn -0.2220 0.4762 0.8508
vn -0.3982 0.7437 0.5370
vn -0.2752 0.8409 0.4661
vn -0.5338 0.8162 0.2209
vn -0.3065 0.9430 0.1296
vn -0.6020 0.7984 0.0139
vn -0.6136 0.7893 -0.0230
vn -0.2846 0.9001 -0.3298
vn -0.1071 0.9302 -0.3511
vn -0.7089 0.6142 -0.3467
vn -0.7134 0.6040 -0.3553
vn -0.7266 0.5712 -0.3818
vn -0.7032 0.5664 -0.4297
vn -0.7535 0.4848 -0.4441
vn -0.6261 0.5262 -0.5755
vn -0.9691 0.1407 -0.2025
vn -0.1620 0.4537 -0.8763
vn -0.9785 0.0549 -0.1988
vn -0.1860 0.3507 -0.9178
vn -0.1286 0.1605 -0.9786
vn -0.9695 0.0283 -0.2434
vn -0.7374 -0.0032 -0.6754
vn -0.1106 0.0936 -0.9894
vn -0.5118 -0.2419 -0.8244
vn -0.6279 -0.3747 -0.6821
vn -0.5599 -0.5012 -0.6597
vn 0.0552 -0.5786 -0.8137
vn 0.0747 -0.6971 -0.7131
vn 0.1304 -0.7334 -0.6672
vn 0.1179 -0.8179 -0.5632
vn 0.1624 -0.8248 -0.5416
vn 0.1870 -0.7845 -0.5913
vn 0.1999 -0.9191 -0.3395
vn 0.1722 -0.9839 -0.0487
vn 0.0953 -0.9293 -0.3569
vn 0.0686 -0.9932 -0.0944
vn 0.1142 -0.9832 -0.1422
vn 0.0607 -0.9244 -0.3766
vn -0.5859 -0.7932 -0.1659
vn -0.8068 -0.5707 -0.1528
vn -0.8406 -0.4966 -0.2161
vn -0.5936 -0.6425 -0.4846
vn 0.0861 -0.8085 -0.5821
vn -0.5380 -0.8425 -0.0262
vn 0.0557 -0.9963 0.0651
vn 0.0487 -0.9884 0.1436
vn -0.9703 -0.2414 0.0148
vn 0.0524 -0.9771 0.2062
vn -0.8474 -0.5196 0.1091
vn -0.9553 -0.2876 0.0680
vn 0.0911 -0.9942 0.0573
vn 0.1783 -0.9791 0.0975
vn 0.1287 -0.9811 0.1441
vn 0.1542 -0.9277 0.3400
vn 0.1217 -0.8421 0.5254
vn 0.1569 -0.8599 0.4858
vn 0.2088 -0.9429 0.2595
vn -0.1691 0.3581 0.9182
vn -0.1471 0.3118 0.9387
vn -0.0777 0.1604 0.9840
vn -0.0600 0.0336 0.9976
s 1
f 1//1 2//2 4//3
f 1//1 3//4 2//2
f 1//1 6//5 3//4
f 1//1 4//3 5//6
f 1//1 5//6 6//5
f 5//6 8//7 6//5
f 6//5 9//8 7//9
f 3//4 6//5 7//9
f 6//5 8//7 9//8
f 5//6 9//8 8//7
f 5//6 10//10 9//8
f 9//8 10//10 12//11
f 9//8 12//11 11//12
f 7//9 9//8 11//12
f 10//10 15//13 12//11
f 11//12 12//11 13//14
f 13//14 12//11 14//15
f 12//11 15//13 14//15
f 5//6 15//13 10//10
f 5//6 16//16 15//13
f 14//15 15//13 16//16
f 5//6 17//17 16//16
f 16//16 17//17 19//18
f 16//16 19//18 18//19
f 14//15 16//16 18//19
f 20//20 19//18 21//21
f 25//22 19//18 20//20
f 17//17 22//23 19//18
f 18//19 19//18 25//22
f 19//18 24//24 21//21
f 19//18 22//23 23//25
f 19//18 23//25 24//24
f 26//26 25//22 20//20
f 14//15 25//22 26//26
f 14//15 18//19 25//22
f 26//26 20//20 27//27
f 28//28 26//26 27//27
f 28//28 14//15 26//26
f 29//29 32//30 28//28
f 30//31 29//29 28//28
f 30//31 28//28 27//27
f 28//28 31//32 14//15
f 32//30 31//32 28//28
f 29//29 34//33 32//30
f 33//34 14//15 32//30
f 7//9 33//34 32//30
f 7//9 32//30 35//35
f 35//35 32//30 34//33
f 32//30 14//15 31//32
f 30//31 35//35 29//29
f 3//4 35//35 30//31
f 3//4 7//9 35//35
f 35//35 34//33 29//29
f 13//14 14//15 33//34
f 7//9 13//14 33//34
f 30//31 67//36 36//37
f 3//4 30//31 36//37
f 30//31 27//27 37//38
f 30//31 37//38 38//39
f 30//31 38//39 39//40
f 30//31 39//40 40//41
f 30//31 40//41 41//42
f 30//31 41//42 42//43
f 30//31 42//43 43//44
f 30//31 43//44 44//45
f 30//31 44//45 45//46
f 30//31 45//46 46//47
f 30//31 46//47 47//48
f 30//31 47//48 48//49
f 30//31 48//49 49//50
f 30//31 49//50 50//51
f 30//31 50//51 51//52
f 30//31 51//52 52//53
f 30//31 52//53 53//54
f 30//31 53//54 54//55
f 30//31 54//55 55//56
f 30//31 55//56 56//57
f 30//31 56//57 57//58
f 30//31 57//58 58//59
f 30//31 58//59 59//60
f 30//31 59//60 60//61
f 30//31 60//61 61//62
f 30//31 61//62 62//63
f 30//31 62//63 63//64
f 30//31 63//64 64//65
f 30//31 64//65 65//66
f 30//31 65//66 66//67
f 30//31 66//67 67//36
f 3//4 36//37 67//36
f 2//2 67//36 66//67
f 3//4 67//36 2//2
f 2//2 66//67 65//66
f 65//66 64//65 68//68
f 2//2 65//66 68//68
f 68//68 70//69 69//70
f 2//2 68//68 69//70
f 68//68 64//65 70//69
f 64//65 63//64 70//69
f 70//69 72//71 71//72
f 69//70 70//69 71//72
f 70//69 63//64 72//71
f 63//64 62//63 72//71
f 5//6 72//71 73//73
f 5//6 71//72 72//71
f 72//71 61//62 73//73
f 72//71 62//63 61//62
f 5//6 73//73 74//74
f 61//62 74//74 73//73
f 74//74 59//60 75//75
f 5//6 74//74 75//75
f 60//61 59//60 74//74
f 61//62 60//61 74//74
f 5//6 75//75 76//76
f 59//60 76//76 75//75
f 5//6 76//76 77//77
f 58//59 77//77 76//76
f 59//60 58//59 76//76
f 5//6 77//77 78//78
f 58//59 78//78 77//77
f 5//6 78//78 79//79
f 58//59 79//79 78//78
f 80//80 56//57 79//79
f 58//59 80//80 79//79
f 5//6 79//79 81//81
f 79//79 55//56 81//81
f 79//79 56//57 55//56
f 5//6 81//81 82//82
f 55//56 82//82 81//81
f 5//6 82//82 83//83
f 55//56 83//83 82//82
f 5//6 83//83 84//84
f 55//56 84//84 83//83
f 5//6 84//84 85//85
f 55//56 54//55 84//84
f 54//55 85//85 84//84
f 5//6 85//85 86//86
f 54//55 86//86 85//85
f 5//6 86//86 88//87
f 54//55 87//88 86//86
f 87//88 88//87 86//86
f 5//6 88//87 90//89
f 89//90 90//89 88//87
f 87//88 89//90 88//87
f 91//91 90//89 89//90
f 91//91 92//92 90//89
f 5//6 90//89 92//92
f 91//91 93//93 92//92
f 5//6 92//92 93//93
f 95//94 93//93 91//91
f 5//6 93//93 94//95
f 52//53 94//95 93//93
f 52//53 93//93 95//94
f 53//54 95//94 91//91
f 53//54 52//53 95//94
f 5//6 94//95 96//96
f 96//96 94//95 51//52
f 52//53 51//52 94//95
f 97//97 96//96 98//98
f 5//6 96//96 97//97
f 96//96 50//51 98//98
f 96//96 51//52 50//51
f 97//97 98//98 99//99
f 99//99 98//98 100//100
f 100//100 98//98 49//50
f 98//98 50//51 49//50
f 101//101 100//100 102//102
f 101//101 99//99 100//100
f 102//102 100//100 103//103
f 100//100 47//48 103//103
f 100//100 49//50 48//49
f 100//100 48//49 47//48
f 102//102 103//103 46//47
f 46//47 103//103 47//48
f 104//104 102//102 45//46
f 104//104 101//101 102//102
f 102//102 46//47 45//46
f 104//104 45//46 44//45
f 106//105 104//104 44//45
f 108//106 101//101 104//104
f 105//107 104//104 107//108
f 105//107 108//106 104//104
f 106//105 107//108 104//104
f 105//107 109//109 108//106
f 109//109 101//101 108//106
f 110//110 111//111 109//109
f 105//107 110//110 109//109
f 109//109 111//111 112//112
f 109//109 112//112 113//113
f 109//109 113//113 114//114
f 109//109 114//114 101//101
f 114//114 99//99 101//101
f 113//113 99//99 114//114
f 5//6 113//113 112//112
f 5//6 97//97 113//113
f 113//113 97//97 99//99
f 5//6 112//112 111//111
f 5//6 111//111 110//110
f 5//6 110//110 115//115
f 115//115 110//110 105//107
f 116//116 115//115 105//107
f 118//117 115//115 116//116
f 5//6 115//115 117//118
f 118//117 117//118 115//115
f 23//25 118//117 120//119
f 23//25 119//120 118//117
f 119//120 117//118 118//117
f 118//117 116//116 120//119
f 23//25 120//119 24//24
f 24//24 120//119 116//116
f 5//6 119//120 121//121
f 5//6 117//118 119//120
f 23//25 121//121 119//120
f 5//6 121//121 22//23
f 22//23 121//121 23//25
f 116//116 105//107 122//122
f 24//24 116//116 122//122
f 122//122 124//123 123//124
f 125//125 122//122 123//124
f 122//122 105//107 106//105
f 122//122 106//105 124//123
f 24//24 122//122 125//125
f 126//126 125//125 127//127
f 24//24 125//125 126//126
f 127//127 125//125 40//41
f 125//125 41//42 40//41
f 125//125 123//124 124//123
f 125//125 124//123 128//128
f 125//125 128//128 41//42
f 124//123 42//43 128//128
f 128//128 42//43 41//42
f 38//39 126//126 127//127
f 39//40 127//127 40//41
f 38//39 127//127 39//40
f 21//21 126//126 38//39
f 21//21 24//24 126//126
f 124//123 106//105 43//44
f 124//123 43//44 42//43
f 105//107 107//108 106//105
f 106//105 44//45 43//44
f 87//88 91//91 89//90
f 53//54 91//91 87//88
f 54//55 53//54 87//88
f 57//58 56//57 80//80
f 58//59 57//58 80//80
f 5//6 129//129 71//72
f 69//70 71//72 129//129
f 5//6 130//130 129//129
f 2//2 69//70 129//129
f 2//2 129//129 130//130
f 5//6 131//131 130//130
f 2//2 130//130 131//131
f 4//3 131//131 132//132
f 2//2 131//131 4//3
f 5//6 132//132 131//131
f 4//3 132//132 5//6
f 20//20 21//21 38//39
f 20//20 38//39 37//38
f 27//27 20//20 37//38
f 5//6 22//23 17//17
f 7//9 11//12 13//14
