# Blender 4.4.0
# www.blender.org
mtllib decomposed_5.mtl
o decomposed_(1).001
v -83.381699 -4.870510 2.036340
v -87.080002 -5.101900 -1.661810
v -83.381699 -5.104500 -1.661810
v -90.778397 -5.114900 -1.661810
v -87.080002 -4.888710 2.036340
v -87.080002 -5.549089 5.734480
v -72.286598 -5.013500 2.036340
v -72.286598 -5.231900 -1.661810
v -75.985001 -5.187700 -1.661810
v -87.080002 -6.420071 -5.233429
v -90.778397 -6.386271 -5.199999
v -83.381699 -6.425271 -5.025720
v -87.080002 -7.501650 -7.081309
v -72.286598 -6.589070 -4.619850
v -90.778397 -7.532850 -7.050270
v -72.286598 -8.034631 -6.467730
v -87.080002 -9.350201 -8.616429
v -83.381699 -9.560801 -8.609269
v -90.778397 -9.384001 -8.640309
v -26.679300 -11.417201 -6.754229
v -26.679300 -12.082701 -7.537309
v -26.679300 -13.364501 -8.879049
v -72.286598 -9.883191 -8.327549
v -26.679300 -14.175701 -9.552309
v -79.683296 -12.022901 -10.387899
v -26.679300 -16.078800 -10.676799
v -26.679300 -7.610839 5.636600
v -75.985001 -5.907879 5.734480
v -26.679300 -7.293650 4.397521
v -26.679300 -7.792840 6.245400
v -26.679300 -9.033009 8.019271
v -26.679300 -9.643999 8.809511
v -26.679300 -12.415499 10.659801
v -26.679300 -14.266699 11.512101
v -26.679300 -15.831800 12.037301
v -26.679300 -16.650801 12.302301
v -26.679300 -19.128599 12.412202
v -26.679300 -20.347900 12.426502
v -26.679300 -22.297899 11.901202
v -26.679300 -23.218300 11.636202
v -26.679300 -25.066799 10.951002
v -26.679300 -26.837400 9.762102
v -26.679300 -27.854000 9.067352
v -26.679300 -29.655701 7.653992
v -26.679300 -30.001499 6.679913
v -26.679300 -30.266701 5.829982
v -26.679300 -30.789301 3.349432
v -26.679300 -31.064899 2.036342
v -26.679300 -31.023300 -0.439440
v -26.679300 -30.950500 -1.661808
v -26.679300 -30.386299 -3.798568
v -26.679300 -30.139299 -4.686697
v -26.679300 -29.507500 -5.925777
v -26.679300 -29.195499 -6.536968
v -26.679300 -27.344400 -8.444538
v -26.679300 -24.424601 -10.292398
v -26.679300 -22.576099 -11.042098
v -26.679300 -20.217899 -11.156698
v -26.679300 -17.737600 -11.022999
v -26.679300 -10.564400 -5.515139
v -26.679300 -10.182200 -4.906349
v -26.679300 -8.219230 -1.535279
v -26.679300 -7.361250 0.095346
v -26.679300 -7.249450 2.010071
v -26.679300 -7.257249 3.557141
v -83.381699 -13.772701 -11.362000
v -83.381699 -16.650801 -11.951699
v -32.344501 -18.002800 -11.149499
v -94.476700 -16.650801 -11.720099
v -90.778397 -19.976200 -11.466998
v -87.080002 -20.041100 -11.509998
v -94.476700 -19.729200 -11.414498
v -46.398201 -20.347900 -11.407398
v -53.794899 -20.347900 -11.498098
v -98.175102 -14.131501 -11.180499
v -94.476700 -12.147701 -10.416599
v -94.476700 -13.998901 -11.213999
v -98.175102 -12.282901 -10.325799
v -100.973999 -14.396701 -11.068299
v -98.175102 -16.650801 -11.543399
v -101.428001 -16.650801 -11.151899
v -98.175102 -19.365200 -11.273698
v -100.948997 -18.910200 -11.073099
v -105.563004 -20.485701 -8.530478
v -98.175102 -21.213699 -10.378398
v -102.057999 -20.225700 -10.098998
v -103.277000 -16.650801 -10.827199
v -105.580002 -16.650801 -10.001099
v -105.781998 -12.672901 -8.628369
v -108.203003 -13.720701 -7.924069
v -108.135002 -19.344400 -7.859609
v -108.539001 -16.650801 -8.234439
v -110.388000 -16.650801 -6.221828
v -111.498001 -14.079500 -4.104169
v -111.498001 -19.037600 -4.065969
v -111.681999 -16.650801 -4.371559
v -112.547997 -16.650801 -1.661809
v -112.001999 -12.953700 2.036341
v -111.766998 -12.888700 -1.480369
v -112.278999 -16.650801 2.036341
v -111.817001 -19.516001 -1.661809
v -111.540001 -19.125999 2.036341
v -110.311996 -21.367100 -1.661808
v -110.371002 -20.974501 2.036342
v -111.136002 -18.514999 3.898541
v -108.077003 -22.719101 4.643422
v -108.522003 -23.010300 2.036342
v -108.462997 -22.960899 -1.661808
v -105.580002 -24.479200 2.036342
v -105.580002 -24.367399 -1.661808
v -105.419998 -23.163700 5.820432
v -100.234001 -25.937799 -0.083711
v -101.629997 -25.524401 1.873992
v -100.234001 -25.937799 0.534637
v -101.882004 -24.188101 5.734482
v -101.882004 -22.646299 8.019272
v -93.678200 -26.343399 4.550312
v -104.084000 -22.357700 7.735162
v -105.419998 -20.217899 8.315311
v -101.882004 -20.347900 9.492322
v -106.546997 -21.364500 7.109652
v -107.690002 -18.899799 7.763812
v -109.119003 -19.939800 5.505291
v -109.968002 -16.650801 6.257331
v -108.119003 -16.650801 8.021651
v -105.580002 -16.650801 9.518581
v -100.713997 -15.421099 11.430901
v -108.161003 -12.953699 8.052691
v -105.580002 -12.953699 9.542461
v -101.915001 -12.587099 10.996401
v -101.915001 -16.653400 10.908101
v -98.175102 -17.555599 11.025101
v -90.778397 -18.135401 11.180201
v -98.175102 -20.347900 9.807462
v -98.175102 -15.704499 11.516901
v -90.778397 -16.284201 11.727001
v -87.080002 -16.396000 11.805801
v -42.699799 -23.005100 11.540702
v -87.080002 -12.953699 12.393101
v -90.778397 -10.338199 11.746101
v -87.080002 -10.036599 11.870201
v -68.596703 -12.953699 12.242701
v -90.778397 -12.953699 12.192501
v -27.906500 -20.347900 12.438402
v -42.699799 -20.347900 12.080302
v -31.604799 -23.262501 11.655302
v -27.906500 -23.257299 11.650602
v -27.906500 -25.105801 10.963002
v -31.604799 -25.113600 10.951002
v -35.303200 -27.747400 9.222542
v -27.906500 -27.747400 9.186732
v -31.604799 -27.747400 9.208212
v -35.303200 -29.736300 7.732772
v -37.866798 -29.679100 7.673092
v -35.303200 -30.581301 5.734482
v -50.096500 -30.128901 5.077942
v -46.398201 -30.188700 5.393083
v -31.604799 -30.492901 5.734482
v -35.303200 -31.428900 2.036342
v -31.604799 -31.356100 2.036342
v -27.906500 -30.342100 5.734482
v -31.604799 -31.272900 -1.661808
v -27.906500 -30.217300 -4.851438
v -31.604799 -30.313499 -4.942158
v -35.303200 -31.306700 -1.661808
v -27.906500 -31.057100 -1.661808
v -42.699799 -31.114300 -1.661808
v -42.699799 -30.269300 -4.822788
v -35.303200 -30.321301 -4.877697
v -39.001499 -29.296900 -6.747067
v -39.001499 -27.445801 -8.506608
v -42.699799 -29.213699 -6.673048
v -42.699799 -27.362600 -8.475568
v -31.604799 -29.315100 -6.792428
v -27.906500 -27.422400 -8.485118
v -31.604799 -27.466600 -8.518548
v -27.906500 -29.273500 -6.701698
v -27.906500 -24.476601 -10.335398
v -46.398201 -24.635201 -10.256598
v -42.699799 -24.533800 -10.325798
v -46.398201 -22.786699 -11.173398
v -50.096500 -22.713900 -11.147099
v -27.906500 -22.628099 -11.056398
v -74.337502 -22.214701 -10.922698
v -90.778397 -21.824699 -10.717398
v -94.476700 -21.580299 -10.578898
v -94.476700 -23.480900 -8.728638
v -50.096500 -24.562401 -10.194498
v -50.096500 -27.066200 -8.344258
v -98.175102 -23.291100 -8.528098
v -101.882004 -22.927099 -8.093578
v -98.175102 -24.993999 -5.359958
v -50.096500 -28.914700 -6.126328
v -46.398201 -30.165300 -4.543458
v -50.096500 -29.980700 -4.276058
v -94.560799 -25.415199 -5.135538
v -46.398201 -30.895901 -1.661808
v -50.096500 -30.573500 -1.661808
v -52.845100 -29.809099 -3.948978
v -93.384003 -25.971600 -3.750818
v -98.175102 -25.747999 -2.523678
v -95.846802 -25.849400 -3.156348
v -101.882004 -24.377800 -5.359958
v -101.629997 -25.454201 -1.454098
v -105.563004 -23.176701 -5.433968
v -104.328003 -22.526699 -7.589828
v -106.791000 -21.809099 -6.716029
v -109.304001 -20.423300 -5.390998
v -108.000999 -22.651501 -4.249798
v -50.096500 -30.724300 2.036342
v -46.398201 -30.919300 2.036342
v -46.398201 -29.395700 7.240963
v -98.175102 -22.867300 8.215042
v -46.398201 -27.544600 8.876362
v -50.096500 -27.318399 8.742661
v -42.699799 -24.853600 10.857902
v -42.699799 -27.609600 9.007672
v -100.015999 -11.112999 11.282901
v -97.553101 -10.767200 11.430901
v -98.544899 -12.587099 11.557501
v -100.713997 -13.577699 11.430901
v -98.544899 -9.422999 10.349401
v -98.175102 -6.953060 8.267561
v -87.080002 -8.188029 10.504601
v -94.476700 -8.715819 10.179901
v -101.882004 -9.253999 9.552011
v -101.882004 -7.101260 7.969131
v -98.175102 -5.980680 5.734480
v -101.882004 -6.427869 5.734480
v -103.932999 -7.324850 7.685030
v -104.429001 -7.153250 5.734480
v -106.278000 -8.167230 5.734480
v -111.220001 -10.998600 4.044181
v -109.101997 -10.171800 5.459931
v -107.757004 -10.691799 7.804401
v -105.328003 -9.376199 8.303371
v -110.010002 -12.953699 6.367161
v -111.472000 -12.953700 4.516891
v -111.414001 -16.650801 4.409451
v -106.764999 -7.683640 2.036340
v -109.278999 -9.373600 2.036341
v -111.262001 -10.946600 2.036341
v -111.220001 -10.996000 -0.129073
v -109.420998 -10.026200 -1.480369
v -110.749001 -11.614700 -2.592909
v -108.278000 -10.470800 -4.572099
v -109.472000 -12.667700 -5.572439
v -107.143997 -11.256001 -7.038329
v -104.681000 -10.710001 -7.673389
v -103.681000 -7.418450 -3.473880
v -104.587997 -7.054460 -1.007650
v -105.723000 -7.878640 -2.007989
v -102.218002 -8.156830 -5.343249
v -101.218002 -7.093461 -4.099390
v -102.218002 -6.622870 -2.007989
v -98.175102 -5.783090 -1.661810
v -101.882004 -5.985880 2.036340
v -98.175102 -5.406100 2.036340
v -104.916000 -6.947860 2.036340
v -94.476700 -5.393100 -1.661810
v -94.476700 -5.172100 2.036340
v -90.778397 -4.987510 2.036340
v -90.778397 -5.588089 5.734480
v -87.080002 -6.747660 8.654331
v -90.778397 -6.734660 8.449011
v -98.175102 -6.810061 -4.586430
v -94.476700 -6.550070 -4.956480
v -98.175102 -7.925440 -6.436699
v -94.476700 -7.717441 -6.804359
v -98.175102 -9.773991 -8.477959
v -94.476700 -9.566001 -8.566299
v -101.882004 -10.184801 -8.189079
v -102.074997 -13.078501 -10.182599
v -83.381699 -10.130199 11.808101
v -68.596703 -10.694399 11.571801
v -90.778397 -12.145101 -10.488199
v -83.381699 -11.924101 -10.457199
v -79.683296 -13.874101 -11.297499
v -75.985001 -6.482471 -4.662829
vn 0.0076 0.9998 0.0172
vn -0.0014 0.9791 -0.2035
vn -0.0403 0.9884 -0.1464
vn 0.0073 0.9727 -0.2320
vn 0.0112 0.9768 -0.2139
vn -0.0147 0.9962 0.0855
vn 0.0163 0.9641 0.2649
vn 0.0393 0.9948 0.0941
vn 0.0448 0.9715 -0.2330
vn 0.0127 0.9206 -0.3904
vn 0.0286 0.8882 -0.4586
vn -0.0188 0.9176 -0.3971
vn 0.0427 0.7349 -0.6768
vn 0.0589 0.8579 -0.5104
vn 0.0542 0.7851 -0.6170
vn -0.0519 0.7473 -0.6624
vn -0.0210 0.5907 -0.8066
vn 0.0950 0.7868 -0.6099
vn 0.0209 0.6161 -0.7874
vn 0.0377 0.6249 -0.7798
vn 0.0392 0.6394 -0.7679
vn 0.1421 0.7297 -0.6688
vn 0.1236 0.6778 -0.7248
vn 0.1170 0.5854 -0.8022
vn 0.0341 0.5402 -0.8409
vn 0.1676 0.3930 -0.9041
vn 0.9545 0.2876 0.0791
vn 0.0427 0.9850 0.1675
vn 0.0324 0.9474 0.3184
vn 0.0354 0.8891 0.4563
vn 0.0553 0.9983 0.0184
vn 0.0407 0.8125 0.5815
vn 0.0489 0.6734 0.7376
vn 0.0847 0.5029 0.8602
vn 0.1031 0.3720 0.9225
vn 0.1105 0.3127 0.9434
vn 0.0611 0.1661 0.9842
vn 0.1043 0.0353 0.9939
vn 0.9903 -0.0221 0.1371
vn 0.9706 -0.0633 0.2321
vn 0.9936 -0.0367 0.1070
vn 0.9901 -0.0597 0.1274
vn 0.9862 -0.0924 0.1371
vn 0.9966 -0.0491 0.0656
vn 0.7343 -0.5583 0.3861
vn 0.9753 -0.2096 0.0702
vn 0.9628 -0.2630 0.0620
vn 0.9769 -0.2093 0.0441
vn 0.9787 -0.2049 0.0127
vn 0.9260 -0.3774 -0.0088
vn 0.9952 -0.0954 -0.0215
vn 0.9988 -0.0482 -0.0129
vn 0.9988 -0.0454 -0.0187
vn 0.9952 -0.0868 -0.0443
vn 0.9988 -0.0379 -0.0325
vn 0.9972 -0.0475 -0.0569
vn 0.9959 -0.0451 -0.0783
vn 0.9958 -0.0233 -0.0887
vn 0.3240 0.0068 -0.9460
vn 0.2289 0.1823 -0.9562
vn 0.1420 0.8230 -0.5500
vn 0.1322 0.8540 -0.5032
vn 0.1288 0.8637 -0.4872
vn 0.0681 0.9680 -0.2415
vn 0.0591 0.9979 -0.0249
vn 0.0113 0.2350 -0.9719
vn 0.0066 0.0483 -0.9988
vn 0.0174 0.0538 -0.9984
vn -0.0364 -0.1732 -0.9842
vn -0.0276 0.0236 -0.9993
vn -0.0278 0.2277 -0.9733
vn -0.0209 -0.2785 -0.9602
vn -0.0050 -0.1812 -0.9834
vn 0.0025 -0.1128 -0.9936
vn 0.0127 -0.0315 -0.9994
vn -0.0200 0.3928 -0.9194
vn -0.0253 0.4624 -0.8863
vn -0.0836 0.5481 -0.8322
vn -0.2289 0.2655 -0.9366
vn -0.0712 -0.0085 -0.9974
vn -0.1390 0.0003 -0.9903
vn -0.2494 -0.2785 -0.9275
vn -0.0839 -0.2795 -0.9565
vn -0.1515 -0.5681 -0.8089
vn -0.2540 -0.5361 -0.8050
vn -0.3737 -0.4232 -0.8254
vn -0.4056 -0.0182 -0.9139
vn -0.2671 -0.0005 -0.9637
vn -0.3499 0.3789 -0.8568
vn -0.6136 0.2899 -0.7344
vn -0.6179 -0.0164 -0.7861
vn -0.5953 -0.3643 -0.7162
vn -0.7676 -0.0114 -0.6408
vn -0.7991 -0.4220 -0.4282
vn -0.9037 -0.0033 -0.4281
vn -0.8427 0.2798 -0.4599
vn -0.9951 0.0209 -0.0969
vn -0.9811 0.1874 0.0481
vn -0.9786 -0.1043 0.1776
vn -0.9470 0.2851 -0.1483
vn -0.9076 -0.4196 0.0126
vn -0.7190 -0.6869 -0.1057
vn -0.7838 -0.5933 0.1834
vn -0.8997 -0.3970 0.1816
vn -0.6015 -0.7960 0.0676
vn -0.7912 -0.3835 0.4764
vn -0.5973 -0.6617 0.4531
vn -0.5118 -0.8558 -0.0756
vn -0.3238 -0.9363 0.1361
vn -0.2775 -0.8743 0.3983
vn -0.3178 -0.9342 -0.1623
vn -0.1093 -0.9910 -0.0774
vn -0.2013 -0.8943 0.3997
vn -0.1053 -0.9930 0.0541
vn -0.2019 -0.9458 0.2543
vn -0.3007 -0.6529 0.6952
vn -0.0928 -0.7672 0.6346
vn -0.0996 -0.9280 0.3589
vn -0.4885 -0.5152 0.7043
vn -0.3465 -0.3593 0.8665
vn -0.1622 -0.4343 0.8861
vn -0.6077 -0.3436 0.7160
vn -0.7016 -0.4069 0.5850
vn -0.7442 -0.1433 0.6524
vn -0.4121 -0.1085 0.9046
vn -0.6125 -0.0735 0.7870
vn -0.1653 -0.0785 0.9831
vn -0.2475 -0.3117 0.9174
vn -0.3658 0.1285 0.9218
vn -0.5636 0.0472 0.8247
vn -0.4290 0.1015 0.8976
vn -0.0674 -0.3363 0.9393
vn -0.0452 -0.1831 0.9821
vn -0.0556 -0.4634 0.8844
vn -0.0445 -0.3562 0.9334
vn -0.0363 -0.2472 0.9683
vn -0.0097 -0.0224 0.9997
vn -0.0298 -0.2630 0.9643
vn -0.0230 -0.1840 0.9827
vn -0.0535 0.1765 0.9828
vn -0.0672 0.0767 0.9948
vn -0.0083 0.3309 0.9436
vn 0.0123 0.1764 0.9842
vn -0.0163 -0.1496 0.9886
vn -0.0237 -0.1986 0.9798
vn -0.0122 -0.3057 0.9521
vn 0.0065 -0.2998 0.9540
vn 0.0049 -0.4983 0.8670
vn -0.0143 -0.4677 0.8838
vn -0.0198 -0.5598 0.8284
vn 0.0040 -0.5764 0.8172
vn 0.0116 -0.5962 0.8027
vn 0.0030 -0.7395 0.6731
vn -0.0464 -0.7970 0.6022
vn -0.0181 -0.9578 0.2869
vn -0.0714 -0.9560 0.2846
vn -0.0449 -0.9271 0.3721
vn -0.0287 -0.9939 0.1063
vn 0.0409 -0.9915 0.1239
vn 0.0305 -0.9632 0.2672
vn 0.0332 -0.9906 -0.1324
vn 0.0403 -0.9730 0.2271
vn 0.0570 -0.9469 -0.3165
vn 0.0640 -0.9784 -0.1965
vn 0.0102 -0.9245 -0.3810
vn -0.0117 -0.9811 -0.1931
vn -0.0417 -0.9950 -0.0906
vn -0.0246 -0.9382 -0.3452
vn -0.0076 -0.9319 -0.3627
vn -0.0133 -0.8059 -0.5919
vn -0.0082 -0.6270 -0.7789
vn 0.0037 -0.7511 -0.6602
vn -0.0304 -0.6102 -0.7917
vn -0.0581 -0.7811 -0.6217
vn 0.0506 -0.8095 -0.5850
vn 0.0292 -0.6147 -0.7882
vn 0.0019 -0.5616 -0.8274
vn 0.0074 -0.4588 -0.8885
vn 0.0005 -0.4922 -0.8705
vn -0.0154 -0.4985 -0.8668
vn 0.0018 -0.2394 -0.9709
vn -0.0163 -0.3952 -0.9184
vn 0.0105 -0.1498 -0.9887
vn -0.0186 -0.4120 -0.9110
vn -0.0384 -0.6066 -0.7941
vn -0.0553 -0.7278 -0.6836
vn -0.0820 -0.5771 -0.8126
vn -0.0278 -0.5727 -0.8193
vn -0.0497 -0.7085 -0.7040
vn -0.0826 -0.8557 -0.5108
vn -0.0934 -0.8925 -0.4412
vn -0.1866 -0.7580 -0.6250
vn -0.0743 -0.8560 -0.5115
vn -0.0834 -0.9092 -0.4079
vn -0.0717 -0.8896 -0.4512
vn -0.0711 -0.9875 -0.1410
vn -0.0936 -0.9670 -0.2369
vn -0.0915 -0.9483 -0.3038
vn -0.0938 -0.9873 -0.1282
vn -0.0926 -0.9710 -0.2202
vn -0.1045 -0.9777 -0.1823
vn -0.1102 -0.9605 -0.2554
vn -0.2180 -0.9205 -0.3244
vn -0.2034 -0.9544 -0.2186
vn -0.3109 -0.7200 -0.6204
vn -0.3243 -0.8752 -0.3591
vn -0.4954 -0.6523 -0.5736
vn -0.6313 -0.5834 -0.5110
vn -0.5543 -0.7614 -0.3363
vn -0.0908 -0.9945 0.0518
vn -0.0474 -0.9945 0.0934
vn -0.0796 -0.7790 0.6219
vn -0.0632 -0.5737 0.8166
vn -0.0692 -0.6605 0.7476
vn -0.0582 -0.5598 0.8266
vn -0.0495 -0.4715 0.8805
vn -0.0360 -0.5754 0.8171
vn -0.2371 0.3097 0.9208
vn -0.0752 0.3683 0.9267
vn -0.0813 0.0826 0.9933
vn -0.1134 0.0342 0.9930
vn -0.0949 0.6069 0.7891
vn -0.0609 0.8162 0.5746
vn -0.0802 0.6494 0.7562
vn -0.1208 0.8018 0.5852
vn 0.0181 0.6877 0.7258
vn -0.2303 0.5333 0.8140
vn -0.0705 0.9695 0.2348
vn -0.1702 0.9707 0.1699
vn -0.4356 0.7349 0.5198
vn -0.3486 0.9284 0.1290
vn -0.5207 0.8279 0.2085
vn -0.3522 0.4269 0.8329
vn -0.6871 0.6503 0.3241
vn -0.5736 0.6683 0.4737
vn -0.5128 0.4004 0.7595
vn -0.7217 0.1059 0.6841
vn -0.8956 0.0444 0.4425
vn -0.8722 -0.1058 0.4776
vn -0.5082 0.8612 -0.0024
vn -0.5873 0.8094 0.0005
vn -0.7959 0.6054 0.0004
vn -0.7288 0.6711 -0.1359
vn -0.5439 0.8068 -0.2307
vn -0.7130 0.5864 -0.3843
vn -0.6787 0.5192 -0.5195
vn -0.5289 0.7469 -0.4030
vn -0.4565 0.6799 -0.5739
vn -0.2880 0.6926 -0.6613
vn -0.3491 0.8276 -0.4396
vn -0.3294 0.9335 -0.1419
vn -0.4875 0.8344 -0.2570
vn -0.2061 0.9585 -0.1972
vn -0.2370 0.7927 -0.5617
vn -0.1780 0.8959 -0.4069
vn -0.1455 0.9693 -0.1982
vn -0.2221 0.9748 -0.0215
vn -0.1053 0.9943 0.0152
vn -0.3283 0.9443 0.0216
vn -0.0901 0.9694 -0.2283
vn -0.0551 0.9941 0.0939
vn -0.0357 0.9625 0.2688
vn -0.0382 0.9972 0.0637
vn 0.0318 0.8550 0.5177
vn -0.0334 0.8664 0.4982
vn -0.1179 0.9149 -0.3860
vn -0.0837 0.9029 -0.4216
vn -0.0927 0.7810 -0.6176
vn -0.1478 0.7978 -0.5846
vn -0.0942 0.6703 -0.7361
vn -0.0498 0.6184 -0.7843
vn -0.1850 0.6760 -0.7133
vn -0.2164 0.5219 -0.8251
vn 0.0354 0.4855 0.8735
vn 0.0291 0.4020 0.9152
vn -0.0134 0.5105 -0.8598
vn 0.0041 0.5247 -0.8513
vn 0.0287 0.4392 -0.8979
vn 0.0287 0.9085 -0.4169
s 1
f 1//1 2//2 4//3
f 1//1 3//4 2//2
f 1//1 9//5 3//4
f 1//1 4//3 5//6
f 1//1 5//6 6//7
f 1//1 6//7 7//8
f 1//1 7//8 8//9
f 1//1 8//9 9//5
f 8//9 10//10 9//5
f 3//4 9//5 10//10
f 8//9 12//11 10//10
f 3//4 10//10 11//12
f 10//10 13//13 11//12
f 10//10 12//11 13//13
f 14//14 13//13 12//11
f 14//14 16//15 13//13
f 11//12 13//13 15//16
f 13//13 19//17 15//16
f 13//13 16//15 20//18
f 13//13 17//19 19//17
f 13//13 18//20 17//19
f 13//13 23//21 18//20
f 13//13 20//18 21//22
f 13//13 21//22 22//23
f 13//13 22//23 23//21
f 22//23 24//24 23//21
f 18//20 23//21 24//24
f 25//25 24//24 26//26
f 18//20 24//24 25//25
f 27//27 26//26 24//24
f 27//27 24//24 22//23
f 7//8 27//27 29//28
f 7//8 28//29 27//27
f 28//29 30//30 27//27
f 27//27 65//31 29//28
f 27//27 30//30 31//32
f 27//27 31//32 32//33
f 27//27 32//33 33//34
f 27//27 33//34 34//35
f 27//27 34//35 35//36
f 27//27 35//36 36//37
f 27//27 36//37 37//38
f 27//27 37//38 38//39
f 27//27 38//39 39//40
f 27//27 39//40 40//41
f 27//27 40//41 41//42
f 27//27 41//42 42//43
f 27//27 42//43 43//44
f 27//27 43//44 44//45
f 27//27 44//45 45//46
f 27//27 45//46 46//47
f 27//27 46//47 47//48
f 27//27 47//48 48//49
f 27//27 48//49 49//50
f 27//27 49//50 50//51
f 27//27 50//51 51//52
f 27//27 51//52 52//53
f 27//27 52//53 53//54
f 27//27 53//54 54//55
f 27//27 54//55 55//56
f 27//27 55//56 56//57
f 27//27 56//57 57//58
f 27//27 57//58 58//59
f 27//27 58//59 59//60
f 27//27 59//60 26//26
f 27//27 22//23 21//22
f 27//27 21//22 20//18
f 27//27 20//18 60//61
f 27//27 60//61 61//62
f 27//27 61//62 62//63
f 27//27 62//63 63//64
f 27//27 63//64 64//65
f 27//27 64//65 65//31
f 7//8 29//28 65//31
f 7//8 65//31 64//65
f 7//8 64//65 63//64
f 7//8 63//64 8//9
f 8//9 63//64 14//14
f 63//64 62//63 14//14
f 14//14 62//63 61//62
f 14//14 61//62 60//61
f 14//14 60//61 20//18
f 26//26 59//60 66//66
f 66//66 59//60 67//67
f 59//60 58//59 68//68
f 59//60 68//68 67//67
f 67//67 68//68 58//59
f 67//67 72//69 69//70
f 75//71 67//67 69//70
f 67//67 70//72 72//69
f 67//67 71//73 70//72
f 67//67 74//74 71//73
f 67//67 58//59 73//75
f 67//67 73//75 74//74
f 66//66 67//67 75//71
f 66//66 75//71 77//76
f 76//77 75//71 78//78
f 76//77 77//76 75//71
f 78//78 75//71 79//79
f 75//71 80//80 79//79
f 75//71 69//70 80//80
f 79//79 80//80 81//81
f 69//70 72//69 80//80
f 80//80 83//82 81//81
f 80//80 72//69 82//83
f 80//80 82//83 83//82
f 82//83 85//84 83//82
f 83//82 86//85 84//86
f 88//87 83//82 84//86
f 83//82 85//84 86//85
f 81//81 83//82 87//88
f 87//88 83//82 88//87
f 79//79 88//87 89//89
f 79//79 87//88 88//87
f 89//89 88//87 90//90
f 88//87 92//91 90//90
f 88//87 84//86 91//92
f 88//87 91//92 92//91
f 91//92 93//93 92//91
f 90//90 92//91 93//93
f 91//92 95//94 93//93
f 93//93 96//95 94//96
f 90//90 93//93 94//96
f 93//93 95//94 96//95
f 97//97 96//95 95//94
f 97//97 94//96 96//95
f 98//98 97//97 100//99
f 98//98 99//100 97//97
f 99//100 94//96 97//97
f 97//97 101//101 100//99
f 97//97 95//94 101//101
f 95//94 103//102 101//101
f 101//101 104//103 102//104
f 100//99 101//101 102//104
f 101//101 103//102 104//103
f 103//102 107//105 104//103
f 102//104 104//103 105//106
f 105//106 104//103 106//107
f 104//103 107//105 106//107
f 103//102 108//108 107//105
f 108//108 109//109 107//105
f 106//107 107//105 109//109
f 106//107 109//109 111//110
f 108//108 110//111 109//109
f 110//111 112//112 109//109
f 109//109 115//113 111//110
f 109//109 112//112 114//114
f 109//109 113//115 115//113
f 109//109 114//114 113//115
f 118//116 111//110 115//113
f 116//117 115//113 117//118
f 118//116 115//113 116//117
f 115//113 113//115 117//118
f 106//107 118//116 121//119
f 106//107 111//110 118//116
f 119//120 121//119 118//116
f 119//120 118//116 120//121
f 120//121 118//116 116//117
f 122//122 121//119 119//120
f 122//122 106//107 121//119
f 105//106 123//123 122//122
f 124//124 105//106 122//122
f 126//125 122//122 119//120
f 122//122 123//123 106//107
f 124//124 122//122 125//126
f 125//126 122//122 126//125
f 127//127 126//125 131//128
f 130//129 126//125 127//127
f 128//130 126//125 129//131
f 128//130 125//126 126//125
f 129//131 126//125 130//129
f 126//125 119//120 131//128
f 131//128 120//121 132//132
f 127//127 131//128 132//132
f 131//128 119//120 120//121
f 127//127 132//132 135//133
f 132//132 134//134 133//135
f 136//136 132//132 133//135
f 132//132 120//121 134//134
f 135//133 132//132 136//136
f 139//137 135//133 136//136
f 136//136 138//138 137//139
f 139//137 136//136 137//139
f 136//136 133//135 138//138
f 140//140 143//141 139//137
f 141//142 140//140 139//137
f 141//142 139//137 142//143
f 139//137 36//37 142//143
f 139//137 143//141 127//127
f 139//137 127//127 135//133
f 139//137 137//139 144//144
f 139//137 144//144 37//38
f 139//137 37//38 36//37
f 137//139 145//145 144//144
f 144//144 38//39 37//38
f 144//144 145//145 138//138
f 144//144 138//138 146//146
f 144//144 146//146 147//147
f 144//144 147//147 39//40
f 144//144 39//40 38//39
f 146//146 148//148 147//147
f 147//147 40//41 39//40
f 147//147 148//148 41//42
f 147//147 41//42 40//41
f 149//149 150//150 148//148
f 146//146 149//149 148//148
f 148//148 42//43 41//42
f 148//148 150//150 152//151
f 148//148 151//152 42//43
f 148//148 152//151 151//152
f 150//150 153//153 152//151
f 151//152 152//151 153//153
f 150//150 154//154 153//153
f 154//154 155//155 153//153
f 151//152 153//153 44//45
f 153//153 155//155 44//45
f 156//156 155//155 157//157
f 156//156 159//158 155//155
f 154//154 157//157 155//155
f 155//155 160//159 158//160
f 44//45 155//155 158//160
f 155//155 159//158 160//159
f 159//158 162//161 160//159
f 158//160 160//159 161//162
f 160//159 46//47 161//162
f 160//159 162//161 49//50
f 160//159 47//48 46//47
f 160//159 48//49 47//48
f 160//159 49//50 48//49
f 163//163 166//164 162//161
f 164//165 163//163 162//161
f 164//165 162//161 165//166
f 159//158 165//166 162//161
f 162//161 166//164 49//50
f 163//163 50//51 166//164
f 49//50 166//164 50//51
f 167//167 165//166 159//158
f 168//168 165//166 167//167
f 168//168 169//169 165//166
f 164//165 165//166 169//169
f 170//170 169//169 168//168
f 170//170 164//165 169//169
f 171//171 174//172 170//170
f 173//173 171//171 170//170
f 172//174 170//170 168//168
f 173//173 170//170 172//174
f 170//170 174//172 164//165
f 177//175 164//165 174//172
f 175//176 174//172 176//177
f 175//176 177//175 174//172
f 176//177 174//172 171//171
f 55//56 177//175 175//176
f 55//56 54//55 177//175
f 54//55 53//54 177//175
f 177//175 53//54 163//163
f 177//175 163//163 164//165
f 178//178 176//177 180//179
f 178//178 175//176 176//177
f 179//180 176//177 171//171
f 179//180 180//179 176//177
f 181//181 178//178 180//179
f 181//181 180//179 179//180
f 181//181 179//180 182//182
f 71//73 181//181 182//182
f 183//183 178//178 181//181
f 71//73 74//74 181//181
f 74//74 183//183 181//181
f 58//59 183//183 73//75
f 58//59 57//58 183//183
f 57//58 178//178 183//183
f 73//75 183//183 74//74
f 184//184 182//182 179//180
f 71//73 182//182 184//184
f 71//73 184//184 70//72
f 70//72 184//184 185//185
f 184//184 179//180 185//185
f 185//185 187//186 186//187
f 72//69 185//185 186//187
f 185//185 179//180 188//188
f 185//185 189//189 187//186
f 185//185 188//188 173//173
f 185//185 173//173 189//189
f 70//72 185//185 72//69
f 187//186 189//189 172//174
f 173//173 172//174 189//189
f 179//180 173//173 188//188
f 186//187 187//186 190//190
f 187//186 172//174 190//190
f 190//190 192//191 191//192
f 85//84 190//190 191//192
f 190//190 172//174 193//193
f 190//190 195//194 192//191
f 190//190 193//193 194//195
f 190//190 194//195 195//194
f 186//187 190//190 85//84
f 194//195 197//196 195//194
f 195//194 200//197 196//198
f 192//191 195//194 196//198
f 195//194 197//196 198//199
f 195//194 198//199 199//200
f 195//194 199//200 200//197
f 192//191 196//198 200//197
f 201//201 200//197 198//199
f 201//201 202//202 200//197
f 192//191 200//197 202//202
f 200//197 199//200 198//199
f 192//191 202//202 201//201
f 203//203 201//201 204//204
f 203//203 192//191 201//201
f 204//204 201//201 112//112
f 201//201 198//199 112//112
f 203//203 204//204 110//111
f 110//111 204//204 112//112
f 191//192 192//191 203//203
f 206//205 191//192 203//203
f 205//206 203//203 110//111
f 206//205 203//203 205//206
f 84//86 206//205 207//207
f 84//86 86//85 206//205
f 86//85 191//192 206//205
f 206//205 205//206 207//207
f 84//86 207//207 91//92
f 91//92 207//207 208//208
f 207//207 209//209 208//208
f 207//207 205//206 209//209
f 95//94 209//209 103//102
f 95//94 208//208 209//209
f 209//209 108//108 103//102
f 209//209 205//206 110//111
f 209//209 110//111 108//108
f 91//92 208//208 95//94
f 210//210 198//199 197//196
f 112//112 198//199 210//210
f 210//210 211//211 156//156
f 117//118 210//210 156//156
f 210//210 197//196 167//167
f 210//210 167//167 211//211
f 117//118 114//114 210//210
f 112//112 210//210 114//114
f 167//167 159//158 211//211
f 156//156 211//211 159//158
f 194//195 167//167 197//196
f 172//174 194//195 193//193
f 194//195 168//168 167//167
f 172//174 168//168 194//195
f 85//84 191//192 86//85
f 82//83 186//187 85//84
f 72//69 186//187 82//83
f 179//180 171//171 173//173
f 56//57 175//176 178//178
f 57//58 56//57 178//178
f 56//57 55//56 175//176
f 53//54 52//53 163//163
f 163//163 52//53 51//52
f 163//163 51//52 50//51
f 158//160 161//162 46//47
f 45//46 158//160 46//47
f 44//45 158//160 45//46
f 154//154 156//156 157//157
f 117//118 156//156 212//212
f 212//212 156//156 154//154
f 116//117 212//212 213//213
f 116//117 117//118 212//212
f 213//213 212//212 215//214
f 214//215 212//212 154//154
f 214//215 215//214 212//212
f 213//213 215//214 214//215
f 216//216 213//213 214//215
f 216//216 214//215 217//217
f 214//215 154//154 217//217
f 216//216 217//217 150//150
f 217//217 154//154 150//150
f 216//216 150//150 149//149
f 146//146 216//216 149//149
f 134//134 213//213 216//216
f 133//135 216//216 138//138
f 133//135 134//134 216//216
f 138//138 216//216 146//146
f 120//121 116//117 213//213
f 120//121 213//213 134//134
f 151//152 43//44 42//43
f 151//152 44//45 43//44
f 137//139 138//138 145//145
f 218//218 143//141 219//219
f 218//218 220//220 143//141
f 219//219 143//141 140//140
f 220//220 221//221 143//141
f 143//141 221//221 127//127
f 130//129 127//127 221//221
f 218//218 221//221 220//220
f 218//218 130//129 221//221
f 222//222 218//218 219//219
f 222//222 219//219 141//142
f 141//142 219//219 140//140
f 223//223 222//222 225//224
f 223//223 227//225 222//222
f 224//226 222//222 141//142
f 224//226 225//224 222//222
f 222//222 226//227 218//218
f 227//225 226//227 222//222
f 228//228 227//225 223//223
f 228//228 229//229 227//225
f 229//229 230//230 227//225
f 227//225 230//230 226//227
f 231//231 232//232 230//230
f 229//229 231//231 230//230
f 230//230 236//233 226//227
f 230//230 232//232 233//234
f 230//230 233//234 234//235
f 230//230 234//235 235//236
f 230//230 235//236 236//233
f 235//236 218//218 236//233
f 226//227 236//233 218//218
f 233//234 235//236 234//235
f 235//236 237//237 128//130
f 233//234 237//237 235//236
f 235//236 128//130 129//131
f 235//236 129//131 130//129
f 235//236 130//129 218//218
f 238//238 124//124 237//237
f 233//234 238//238 237//237
f 237//237 125//126 128//130
f 237//237 124//124 125//126
f 98//98 100//99 238//238
f 233//234 98//98 238//238
f 238//238 100//99 239//239
f 238//238 239//239 124//124
f 100//99 105//106 239//239
f 239//239 105//106 124//124
f 240//240 233//234 232//232
f 240//240 241//241 233//234
f 233//234 241//241 242//242
f 233//234 242//242 98//98
f 243//243 242//242 241//241
f 243//243 98//98 242//242
f 244//244 245//245 243//243
f 240//240 244//244 243//243
f 240//240 243//243 241//241
f 243//243 245//245 99//100
f 243//243 99//100 98//98
f 245//245 94//96 99//100
f 247//246 94//96 245//245
f 246//247 245//245 244//244
f 246//247 247//246 245//245
f 248//248 247//246 246//247
f 248//248 90//90 247//246
f 90//90 94//96 247//246
f 249//249 248//248 250//250
f 249//249 89//89 248//248
f 89//89 90//90 248//248
f 250//250 248//248 246//247
f 251//251 250//250 252//252
f 255//253 250//250 251//251
f 253//254 249//249 250//250
f 250//250 246//247 252//252
f 253//254 250//250 254//255
f 254//255 250//250 255//253
f 256//256 255//253 257//257
f 256//256 254//255 255//253
f 257//257 255//253 251//251
f 258//258 257//257 229//229
f 258//258 256//256 257//257
f 257//257 231//231 229//229
f 257//257 251//251 259//259
f 257//257 259//259 231//231
f 251//251 240//240 259//259
f 259//259 240//240 231//231
f 260//260 256//256 258//258
f 4//3 260//260 258//258
f 258//258 228//228 261//261
f 4//3 258//258 261//261
f 258//258 229//229 228//228
f 261//261 263//262 262//263
f 4//3 261//261 262//263
f 261//261 228//228 263//262
f 5//6 263//262 6//7
f 5//6 262//263 263//262
f 6//7 263//262 264//264
f 263//262 265//265 264//264
f 263//262 228//228 223//223
f 263//262 223//223 265//265
f 223//223 224//226 265//265
f 264//264 265//265 224//226
f 6//7 264//264 28//29
f 264//264 30//30 28//29
f 264//264 224//226 32//33
f 264//264 32//33 31//32
f 264//264 31//32 30//30
f 4//3 262//263 5//6
f 260//260 266//266 256//256
f 267//267 266//266 260//260
f 4//3 267//267 260//260
f 11//12 15//16 267//267
f 4//3 11//12 267//267
f 267//267 15//16 269//268
f 267//267 268//269 266//266
f 267//267 269//268 268//269
f 15//16 270//270 269//268
f 269//268 270//270 268//269
f 15//16 271//271 270//270
f 271//271 78//78 270//270
f 268//269 270//270 272//272
f 270//270 78//78 272//272
f 268//269 272//272 253//254
f 272//272 249//249 253//254
f 272//272 78//78 273//273
f 272//272 273//273 249//249
f 273//273 89//89 249//249
f 273//273 79//79 89//89
f 78//78 79//79 273//273
f 15//16 19//17 271//271
f 19//17 78//78 271//271
f 268//269 254//255 266//266
f 268//269 253//254 254//255
f 266//266 254//255 256//256
f 251//251 252//252 240//240
f 252//252 244//244 240//240
f 252//252 246//247 244//244
f 231//231 240//240 232//232
f 223//223 225//224 224//226
f 224//226 275//274 32//33
f 224//226 141//142 274//275
f 224//226 274//275 275//274
f 275//274 34//35 33//34
f 32//33 275//274 33//34
f 275//274 36//37 35//36
f 274//275 36//37 275//274
f 275//274 35//36 34//35
f 141//142 36//37 274//275
f 141//142 142//143 36//37
f 105//106 106//107 123//123
f 117//118 113//115 114//114
f 100//99 102//104 105//106
f 79//79 81//81 87//88
f 19//17 76//77 78//78
f 76//77 66//66 77//76
f 19//17 276//276 76//77
f 276//276 66//66 76//77
f 277//277 66//66 276//276
f 19//17 277//277 276//276
f 25//25 278//278 277//277
f 17//19 25//25 277//277
f 17//19 277//277 19//17
f 277//277 278//278 66//66
f 25//25 26//26 278//278
f 278//278 26//26 66//66
f 6//7 28//29 7//8
f 18//20 25//25 17//19
f 14//14 20//18 16//15
f 8//9 14//14 279//279
f 14//14 12//11 279//279
f 8//9 279//279 12//11
f 3//4 11//12 2//2
f 2//2 11//12 4//3
