# Blender 4.4.0
# www.blender.org
mtllib decomposed_1.mtl
o decomposed_(1).002
v -26.884701 31.079599 -1.659912
v -26.884701 30.211700 -4.715703
v -26.884701 30.856199 -2.453262
v -26.884701 29.137501 -6.567782
v -26.884701 28.630501 -7.112192
v -26.884701 27.290001 -8.469102
v -26.884701 26.651199 -8.975212
v -26.884701 24.946800 -10.318402
v -26.884701 24.437000 -10.635802
v -26.884701 23.096399 -11.420902
v -26.884701 22.363100 -11.743802
v -26.884701 20.337999 -12.621902
v -26.884701 19.323898 -12.769702
v -26.884701 16.639997 -13.040501
v -26.884701 15.766299 -12.717701
v -26.884701 13.617999 -11.839501
v -26.884701 13.110999 -11.410001
v -26.884701 11.770399 -10.206301
v -26.884701 10.240799 -8.354201
v -26.884701 9.799679 -7.489721
v -26.884701 8.828630 -5.361331
v -26.884701 7.130020 -0.584771
v -26.884701 7.130020 1.371269
v -26.884701 7.579741 3.220609
v -26.884701 7.946391 3.849829
v -26.884701 9.066380 5.734739
v -26.884701 9.541881 6.380359
v -26.884701 10.733500 7.936989
v -26.884701 12.944801 9.553789
v -26.884701 15.668900 11.050200
v -26.884701 17.516500 11.493399
v -26.884701 18.261200 11.493399
v -26.884701 20.524200 11.474298
v -26.884701 20.968100 11.419598
v -26.884701 21.552500 11.345698
v -26.884701 22.709700 11.156898
v -26.884701 23.832600 10.916198
v -26.884701 27.453199 9.017598
v -26.884701 29.303699 7.067028
v -26.884701 29.555700 6.558187
v -26.884701 30.205999 5.214948
v -26.884701 31.070999 2.036048
v -26.884701 31.076799 1.021098
v -24.198799 30.953600 -1.659912
v -24.198799 30.145800 -4.548822
v -15.067700 29.584400 -3.495572
v -24.198799 29.028700 -6.398172
v -13.099100 28.341200 -5.361332
v -5.704720 26.221500 -7.582732
v -9.399220 26.439199 -7.785182
v -3.288460 26.029600 -7.383022
v 9.089460 21.546801 -10.359502
v 5.389570 21.787399 -10.649502
v -16.799000 26.848801 -8.173652
v -13.099100 26.651199 -7.976682
v -13.099100 24.445601 -9.826022
v 9.089460 19.696301 -11.462002
v 5.389570 19.939800 -11.549502
v -10.332300 22.486300 -11.125502
v -24.198799 24.860901 -10.236402
v -20.498899 27.017799 -8.283082
v -24.198799 20.337999 -12.578202
v -24.198799 23.013399 -11.399102
v 7.956840 7.980759 -14.810501
v 9.089460 16.639999 -12.496101
v 12.789400 16.639999 -12.192401
v 16.489201 12.944799 -12.920101
v 12.789400 12.944799 -13.218301
v 20.183701 12.944799 -12.195201
v 16.246500 16.700100 -11.590601
v 28.214600 8.616659 -12.145901
v 28.214600 5.545979 -13.037800
v 28.214600 20.085899 -1.711892
v 28.214600 1.842259 -13.708000
v 28.214600 1.816479 -13.708000
v 7.956840 7.003979 -14.810501
v 28.214600 1.816481 8.456770
v 5.389570 7.035489 -14.791301
v 27.583500 1.816481 13.039100
v 23.883600 1.816481 13.118400
v 20.183701 1.816481 12.910500
v 20.156799 1.816481 12.905000
v 16.462299 1.816481 12.100700
v 14.051400 1.816481 11.496200
v 12.174500 1.816481 10.618000
v 2.444760 1.816481 5.778510
v 2.407000 1.816481 5.718320
v 2.876230 1.816480 -3.572170
v 3.086570 1.816480 -5.437930
v 3.485690 1.816480 -6.805790
v 5.233160 1.816479 -8.750880
v 5.432720 1.816479 -8.961530
v 8.010770 1.816479 -9.981960
v 11.068800 1.816479 -10.841000
v 13.641500 1.816479 -11.418200
v 15.890600 1.816479 -11.858700
v 20.210699 1.816479 -12.652000
v 23.883600 1.816479 -13.303100
v 27.610500 1.816479 -13.661500
v 5.389570 5.187929 -13.245700
v 3.226800 7.310479 -14.651801
v 2.924770 3.612479 -11.059800
v 5.389570 3.360409 -11.396300
v 1.840690 5.563169 -12.742300
v 20.183701 1.847991 12.918700
v -13.099100 16.639999 12.363400
v 23.883600 1.847991 13.121200
v 28.214600 1.847991 13.137600
v 28.214600 5.545981 12.749100
v 28.214600 1.822211 13.134800
v -5.704720 16.639999 12.349699
v -13.099100 19.636200 11.714998
v -2.004820 18.759701 11.397699
v 9.089460 17.633900 11.099499
v -20.498899 24.038799 10.620698
v -24.198799 27.350100 8.943728
v -24.198799 24.038799 10.765698
v -20.498899 27.175400 8.834298
v -16.799000 24.038799 10.358098
v -16.799000 26.914700 8.651008
v 5.389570 20.337999 9.947738
v 5.389570 22.961800 8.257068
v 9.299800 20.644501 9.135228
v 28.214600 15.204901 7.969819
v 28.214600 12.893301 9.663219
v 8.210330 22.609501 7.947928
v 1.689680 26.433500 4.763558
v 4.283920 26.158501 4.342258
v 1.689680 25.058599 6.612898
v 28.214600 18.530500 3.951049
v 28.214600 15.520001 7.657939
v 28.214600 17.347500 5.485778
v 28.214600 19.338301 2.036049
v 19.223700 22.437599 0.624415
v 4.909550 26.321800 2.036048
v 1.689680 27.060801 2.036048
v 4.974270 26.267401 -1.659912
v 16.489201 23.285500 -1.659912
v 4.370210 26.086901 -3.998942
v -5.704720 28.412800 -1.659912
v 1.689680 26.952000 -1.659912
v -5.704720 27.335800 -5.361332
v 18.554899 22.268600 -3.695282
v 16.489201 22.615200 -4.554292
v 9.089460 24.428400 -5.361332
v 5.519010 25.290600 -5.282002
v 9.089460 22.993299 -8.510142
v 12.136700 22.586500 -7.869982
v 20.183701 19.447100 -8.274872
v 13.134500 23.188101 -5.714242
v 14.601500 22.174101 -7.183322
v 28.214600 19.315399 -4.576181
v 22.799601 18.974501 -7.746881
v 20.183701 17.261600 -10.124201
v 28.214600 17.656799 -6.351661
v 28.214600 17.295900 -6.726451
v 28.214600 15.763399 -8.086101
v 28.214600 15.325199 -8.430801
v 14.855000 18.596399 -10.986001
v 12.789400 19.008900 -11.185702
v 22.217100 14.906999 -10.969501
v 20.183701 15.413999 -11.256801
v 28.214600 11.458200 -11.109101
v 28.214600 11.168899 -11.234901
v 28.214600 12.850299 -10.277401
v 28.214600 19.974199 -2.182431
v -11.184400 29.598700 0.123779
v -16.799000 30.268999 2.036048
v -13.099100 29.770599 -0.773536
v -11.184400 29.598700 0.318014
v -12.322500 29.475500 2.785628
v -2.004820 27.759701 2.036048
v -14.787200 29.601601 3.912748
v -16.799000 29.804899 4.306688
v -20.498899 30.670000 2.036048
v -20.498899 30.019800 4.771758
v -20.498899 29.023001 6.621108
v -16.799000 28.765200 6.156028
v -24.198799 29.200500 6.875527
v -24.198799 30.927799 2.036048
v 28.214600 10.627501 11.069399
v 28.214600 8.837231 11.911999
v -26.383101 22.085300 11.271798
v 5.389570 7.992219 -14.791301
v -24.198799 16.639997 -13.114401
vn -0.9998 0.0188 -0.0030
vn -0.0933 0.9187 -0.3838
vn -0.0528 0.7997 -0.5981
vn 0.0406 0.9611 -0.2731
vn 0.0898 0.9001 -0.4263
vn -0.1478 0.7108 -0.6877
vn -0.1420 0.6499 -0.7467
vn -0.7312 0.4226 -0.5354
vn -0.3450 0.5280 -0.7760
vn -0.2198 0.5111 -0.8309
vn -0.6172 0.3414 -0.7089
vn -0.9052 0.1697 -0.3896
vn -0.2082 0.1823 -0.9609
vn -0.3677 0.1075 -0.9237
vn -0.4411 -0.0665 -0.8950
vn -0.5694 -0.3036 -0.7640
vn -0.5928 -0.3558 -0.7225
vn -0.4610 -0.5857 -0.6667
vn -0.5454 -0.6086 -0.5764
vn -0.5289 -0.7166 -0.4547
vn -0.6752 -0.6671 -0.3147
vn -0.6795 -0.6843 -0.2646
vn -0.4108 -0.9061 -0.1014
vn -0.7105 -0.6988 0.0827
vn -0.4319 -0.8264 0.3613
vn -0.6146 -0.6790 0.4015
vn -0.6132 -0.6682 0.4213
vn -0.6071 -0.6336 0.4796
vn -0.5421 -0.5631 0.6237
vn -0.4776 -0.4661 0.7447
vn -0.4650 -0.3450 0.8153
vn -0.2222 -0.1493 0.9635
vn -0.7108 0.0045 0.7034
vn -0.7029 0.0194 0.7110
vn -0.6604 0.0932 0.7451
vn -0.7412 0.0952 0.6645
vn -0.3167 0.1898 0.9293
vn -0.5811 0.2325 0.7799
vn -0.7155 0.3652 0.5956
vn -0.3318 0.7411 0.5837
vn -0.2802 0.8630 0.4204
vn -0.1605 0.9359 0.3135
vn -0.0278 0.9827 0.1832
vn 0.0470 0.9989 0.0023
vn 0.0930 0.9905 -0.1014
vn 0.1350 0.9457 -0.2957
vn 0.1084 0.8748 -0.4722
vn 0.0852 0.8185 -0.5681
vn 0.0981 0.8040 -0.5865
vn 0.0786 0.7237 -0.6857
vn 0.1489 0.8649 -0.4794
vn 0.0641 0.6105 -0.7894
vn 0.1835 0.7056 -0.6844
vn 0.0594 0.6614 -0.7477
vn 0.0531 0.6169 -0.7852
vn 0.0761 0.7174 -0.6925
vn 0.0921 0.4014 -0.9113
vn 0.0505 0.6092 -0.7914
vn 0.0394 0.3592 -0.9324
vn 0.0403 0.4559 -0.8891
vn 0.0508 0.6585 -0.7509
vn 0.0317 0.2950 -0.9550
vn 0.0324 0.4453 -0.8948
vn 0.0385 0.2703 -0.9620
vn 0.0555 0.2154 -0.9750
vn 0.1182 0.3335 -0.9353
vn 0.1229 0.2395 -0.9631
vn 0.0691 0.2492 -0.9660
vn 0.1836 0.3353 -0.9241
vn 0.5597 0.2547 -0.7886
vn 0.1788 0.3596 -0.9158
vn 0.3263 0.1881 -0.9264
vn 0.9804 0.1967 -0.0045
vn 0.4689 0.1562 -0.8693
vn 0.3352 -0.9417 -0.0298
vn 0.9994 -0.0344 0.0001
vn 0.0263 -0.0916 -0.9954
vn -0.0823 -0.3785 -0.9219
vn 0.0002 -1.0000 0.0002
vn -0.0793 -0.5231 -0.8486
vn -0.0001 -1.0000 0.0024
vn -0.1198 -0.7916 0.5991
vn -0.0654 -0.9515 0.3005
vn -0.1154 -0.8688 0.4816
vn -0.1576 -0.9005 0.4052
vn -0.0638 -0.9895 0.1295
vn -0.0807 -0.9869 0.1401
vn -0.1054 -0.9944 -0.0040
vn -0.0974 -0.9952 -0.0059
vn -0.1004 -0.9948 -0.0189
vn -0.1130 -0.9909 -0.0732
vn -0.1212 -0.9866 -0.1095
vn -0.2257 -0.9011 -0.3701
vn -0.0984 -0.9504 -0.2951
vn -0.1143 -0.8920 -0.4374
vn -0.1100 -0.8463 -0.5213
vn -0.1274 -0.7293 -0.6722
vn -0.1214 -0.7303 -0.6722
vn -0.1094 -0.6292 -0.7695
vn -0.1343 -0.6739 -0.7265
vn -0.2043 -0.6687 -0.7149
vn -0.1787 -0.5013 -0.8466
vn -0.2171 -0.7789 -0.5884
vn -0.1421 -0.7203 -0.6790
vn -0.0779 -0.1465 0.9861
vn -0.0358 -0.0065 0.9993
vn -0.0272 -0.0170 0.9995
vn 0.1678 0.0727 0.9831
vn 0.9992 -0.0391 0.0016
vn 0.2558 0.1901 0.9479
vn 0.0364 0.1905 0.9810
vn 0.0348 0.2916 0.9559
vn 0.0534 0.3752 0.9254
vn 0.1034 0.3616 0.9266
vn 0.0571 0.3340 0.9408
vn 0.0490 0.5990 0.7993
vn 0.0308 0.3742 0.9268
vn 0.0694 0.6362 0.7684
vn 0.0910 0.4867 0.8688
vn 0.1249 0.6693 0.7324
vn 0.1071 0.5194 0.8478
vn 0.1309 0.6336 0.7625
vn 0.1948 0.5569 0.8074
vn 0.2502 0.7560 0.6049
vn 0.3501 0.5163 0.7816
vn 0.3533 0.5675 0.7438
vn 0.1513 0.8175 0.5556
vn 0.2510 0.9038 0.3467
vn 0.1509 0.7765 0.6118
vn 0.3024 0.8187 0.4881
vn 0.3733 0.7201 0.5849
vn 0.3801 0.7004 0.6041
vn 0.2998 0.9162 0.2660
vn 0.2828 0.9438 0.1712
vn 0.2577 0.9650 0.0484
vn 0.2017 0.9794 0.0102
vn 0.2381 0.9696 -0.0556
vn 0.2564 0.9647 -0.0605
vn 0.2084 0.9452 -0.2514
vn 0.1719 0.9689 -0.1782
vn 0.1973 0.9785 -0.0601
vn 0.1555 0.9170 -0.3674
vn 0.2581 0.9385 -0.2295
vn 0.2590 0.9298 -0.2615
vn 0.2386 0.9144 -0.3269
vn 0.1861 0.8898 -0.4167
vn 0.2519 0.8128 -0.5252
vn 0.1732 0.8469 -0.5027
vn 0.2927 0.6888 -0.6632
vn 0.2583 0.6977 -0.6682
vn 0.2552 0.9055 -0.3390
vn 0.2572 0.8934 -0.3684
vn 0.2997 0.8543 -0.4246
vn 0.4407 0.5447 -0.7135
vn 0.2864 0.5702 -0.7700
vn 0.2510 0.5851 -0.7711
vn 0.5229 0.6213 -0.5835
vn 0.5642 0.5577 -0.6088
vn 0.5783 0.5337 -0.6171
vn 0.1566 0.4377 -0.8854
vn 0.2602 0.5017 -0.8250
vn 0.2173 0.4198 -0.8812
vn 0.5779 0.3914 -0.7161
vn 0.4542 0.3116 -0.8346
vn 0.5111 0.4876 -0.7078
vn 0.2619 0.9318 -0.2514
vn 0.1607 0.9861 -0.0423
vn 0.1195 0.9917 0.0481
vn 0.1691 0.9798 0.1067
vn 0.1346 0.9797 -0.1483
vn 0.1669 0.9688 0.1834
vn 0.1758 0.9721 0.1552
vn 0.1577 0.9533 0.2576
vn 0.1339 0.9083 0.3962
vn 0.0874 0.9901 0.1094
vn 0.0664 0.9397 0.3354
vn 0.1010 0.8196 0.5639
vn 0.1421 0.8242 0.5483
vn 0.0758 0.8168 0.5719
vn 0.0623 0.9922 0.1082
vn 0.4640 0.4295 0.7747
vn 0.5119 0.2696 0.8156
vn -0.0155 0.1610 0.9868
vn -0.0250 0.0997 -0.9947
vn -0.0271 0.1004 -0.9946
s 1
f 1//1 2//2 4//3
f 1//1 3//4 2//2
f 1//1 45//5 3//4
f 1//1 4//3 5//6
f 1//1 5//6 6//7
f 1//1 6//7 7//8
f 1//1 7//8 8//9
f 1//1 8//9 9//10
f 1//1 9//10 10//11
f 1//1 10//11 11//12
f 1//1 11//12 12//13
f 1//1 12//13 13//14
f 1//1 13//14 14//15
f 1//1 14//15 15//16
f 1//1 15//16 16//17
f 1//1 16//17 17//18
f 1//1 17//18 18//19
f 1//1 18//19 19//20
f 1//1 19//20 20//21
f 1//1 20//21 21//22
f 1//1 21//22 22//23
f 1//1 22//23 23//24
f 1//1 23//24 24//25
f 1//1 24//25 25//26
f 1//1 25//26 26//27
f 1//1 26//27 27//28
f 1//1 27//28 28//29
f 1//1 28//29 29//30
f 1//1 29//30 30//31
f 1//1 30//31 31//32
f 1//1 31//32 32//33
f 1//1 32//33 33//34
f 1//1 33//34 34//35
f 1//1 34//35 35//36
f 1//1 35//36 36//37
f 1//1 36//37 37//38
f 1//1 37//38 38//39
f 1//1 38//39 39//40
f 1//1 39//40 40//41
f 1//1 40//41 41//42
f 1//1 41//42 42//43
f 1//1 42//43 43//44
f 1//1 43//44 44//45
f 1//1 44//45 45//5
f 3//4 45//5 2//2
f 44//45 46//46 45//5
f 45//5 4//3 2//2
f 45//5 46//46 48//47
f 45//5 47//48 4//3
f 45//5 49//49 47//48
f 45//5 48//47 49//49
f 47//48 49//49 50//50
f 48//47 51//51 49//49
f 49//49 53//52 50//50
f 49//49 51//51 52//53
f 49//49 52//53 53//52
f 54//54 53//52 56//55
f 54//54 55//56 53//52
f 50//50 53//52 55//56
f 52//53 57//57 53//52
f 53//52 60//58 56//55
f 53//52 57//57 58//59
f 53//52 58//59 59//60
f 53//52 59//60 60//58
f 54//54 56//55 60//58
f 54//54 60//58 61//61
f 60//58 6//7 61//61
f 60//58 59//60 8//9
f 60//58 7//8 6//7
f 60//58 8//9 7//8
f 54//54 61//61 5//6
f 5//6 61//61 6//7
f 58//59 62//62 59//60
f 59//60 9//10 8//9
f 59//60 62//62 63//63
f 59//60 63//63 9//10
f 62//62 10//11 63//63
f 63//63 10//11 9//10
f 58//59 65//64 62//62
f 62//62 64//65 12//13
f 65//64 64//65 62//62
f 62//62 11//12 10//11
f 62//62 12//13 11//12
f 57//57 65//64 58//59
f 66//66 67//67 65//64
f 57//57 66//66 65//64
f 65//64 67//67 68//68
f 65//64 68//68 64//65
f 67//67 64//65 68//68
f 69//69 71//70 67//67
f 70//71 69//69 67//67
f 70//71 67//67 66//66
f 67//67 71//70 72//72
f 67//67 72//72 64//65
f 73//73 72//72 71//70
f 73//73 74//74 72//72
f 64//65 72//72 74//74
f 73//73 75//75 74//74
f 64//65 74//74 75//75
f 73//73 77//76 75//75
f 76//77 75//75 78//78
f 64//65 75//75 76//77
f 75//75 77//76 79//79
f 75//75 99//80 78//78
f 75//75 79//79 80//81
f 75//75 80//81 81//82
f 75//75 81//82 82//83
f 75//75 82//83 83//84
f 75//75 83//84 84//85
f 75//75 84//85 85//86
f 75//75 85//86 86//87
f 75//75 86//87 87//88
f 75//75 87//88 88//89
f 75//75 88//89 89//90
f 75//75 89//90 90//91
f 75//75 90//91 91//92
f 75//75 91//92 92//93
f 75//75 92//93 93//94
f 75//75 93//94 94//95
f 75//75 94//95 95//96
f 75//75 95//96 96//97
f 75//75 96//97 97//98
f 75//75 97//98 98//99
f 75//75 98//99 99//80
f 78//78 99//80 98//99
f 100//100 98//99 97//98
f 78//78 98//99 100//100
f 100//100 104//101 101//102
f 78//78 100//100 101//102
f 100//100 102//103 104//101
f 100//100 103//104 102//103
f 100//100 96//97 103//104
f 100//100 97//98 96//97
f 102//103 18//19 104//101
f 101//102 104//101 17//18
f 104//101 18//19 17//18
f 103//104 94//95 102//103
f 103//104 96//97 95//96
f 103//104 95//96 94//95
f 102//103 94//95 93//94
f 102//103 93//94 92//93
f 102//103 92//93 19//20
f 102//103 19//20 18//19
f 14//15 101//102 15//16
f 78//78 101//102 14//15
f 101//102 16//17 15//16
f 101//102 17//18 16//17
f 92//93 91//92 22//23
f 92//93 20//21 19//20
f 92//93 22//23 21//22
f 92//93 21//22 20//21
f 91//92 90//91 22//23
f 22//23 90//91 89//90
f 22//23 89//90 88//89
f 22//23 88//89 87//88
f 23//24 87//88 86//87
f 22//23 87//88 23//24
f 85//86 24//25 86//87
f 23//24 86//87 24//25
f 84//85 24//25 85//86
f 27//28 26//27 84//85
f 28//29 27//28 84//85
f 84//85 26//27 25//26
f 84//85 25//26 24//25
f 28//29 84//85 83//84
f 29//30 83//84 82//83
f 29//30 28//29 83//84
f 81//82 29//30 82//83
f 105//105 81//82 80//81
f 30//31 29//30 81//82
f 105//105 30//31 81//82
f 106//106 105//105 107//107
f 106//106 31//32 105//105
f 31//32 30//31 105//105
f 105//105 80//81 107//107
f 106//106 107//107 108//108
f 108//108 107//107 80//81
f 73//73 108//108 110//109
f 73//73 109//110 108//108
f 111//111 106//106 108//108
f 111//111 108//108 109//110
f 108//108 80//81 110//109
f 37//38 111//111 112//112
f 37//38 36//37 111//111
f 36//37 106//106 111//111
f 115//113 112//112 111//111
f 111//111 114//114 113//115
f 115//113 111//111 113//115
f 111//111 109//110 114//114
f 38//39 115//113 116//116
f 38//39 117//117 115//113
f 116//116 115//113 118//118
f 117//117 112//112 115//113
f 118//118 115//113 119//119
f 115//113 114//114 119//119
f 115//113 113//115 114//114
f 118//118 119//119 120//120
f 120//120 119//119 121//121
f 119//119 114//114 121//121
f 120//120 121//121 122//122
f 121//121 123//123 122//122
f 121//121 114//114 123//123
f 126//124 122//122 123//123
f 123//123 125//125 124//126
f 126//124 123//123 124//126
f 123//123 114//114 125//125
f 127//127 126//124 128//128
f 127//127 129//129 126//124
f 128//128 126//124 130//130
f 129//129 122//122 126//124
f 126//124 132//131 130//130
f 126//124 124//126 131//132
f 126//124 131//132 132//131
f 73//73 130//130 132//131
f 73//73 132//131 131//132
f 73//73 131//132 124//126
f 73//73 133//133 130//130
f 128//128 130//130 133//133
f 73//73 134//134 133//133
f 128//128 133//133 134//134
f 135//135 134//134 73//73
f 128//128 134//134 135//135
f 136//136 135//135 137//137
f 136//136 128//128 135//135
f 135//135 138//138 137//137
f 135//135 73//73 138//138
f 139//139 138//138 73//73
f 139//139 137//137 138//138
f 140//140 141//141 139//139
f 46//46 140//140 139//139
f 141//141 137//137 139//139
f 139//139 51//51 142//142
f 46//46 139//139 142//142
f 139//139 73//73 143//143
f 139//139 143//143 144//144
f 139//139 144//144 145//145
f 139//139 145//145 146//146
f 139//139 146//146 51//51
f 145//145 148//147 146//146
f 146//146 148//147 147//148
f 51//51 146//146 147//148
f 148//147 153//149 149//150
f 52//53 148//147 149//150
f 148//147 150//151 151//152
f 145//145 150//151 148//147
f 148//147 151//152 152//153
f 148//147 152//153 153//149
f 52//53 147//148 148//147
f 153//149 158//154 154//155
f 159//156 153//149 154//155
f 153//149 155//157 156//158
f 152//153 155//157 153//149
f 153//149 156//158 157//159
f 153//149 157//159 158//154
f 149//150 153//149 159//156
f 52//53 159//156 160//160
f 52//53 149//150 159//156
f 159//156 70//71 160//160
f 159//156 154//155 161//161
f 159//156 161//161 162//162
f 159//156 162//162 70//71
f 161//161 163//163 162//162
f 162//162 164//164 70//71
f 162//162 163//163 164//164
f 73//73 164//164 163//163
f 73//73 71//70 164//164
f 164//164 71//70 69//69
f 70//71 164//164 69//69
f 73//73 163//163 165//165
f 161//161 165//165 163//163
f 154//155 158//154 165//165
f 73//73 165//165 158//154
f 154//155 165//165 161//161
f 52//53 160//160 57//57
f 160//160 66//66 57//57
f 160//160 70//71 66//66
f 73//73 158//154 157//159
f 73//73 157//159 156//158
f 73//73 156//158 155//157
f 73//73 155//157 152//153
f 73//73 152//153 166//166
f 144//144 166//166 152//153
f 144//144 152//153 150//151
f 152//153 151//152 150//151
f 73//73 166//166 143//143
f 143//143 166//166 144//144
f 144//144 150//151 145//145
f 51//51 147//148 52//53
f 46//46 142//142 51//51
f 167//167 141//141 140//140
f 136//136 137//137 141//141
f 167//167 136//136 141//141
f 168//168 170//169 167//167
f 44//45 168//168 167//167
f 167//167 140//140 169//170
f 44//45 167//167 169//170
f 167//167 170//169 136//136
f 171//171 172//172 170//169
f 168//168 171//171 170//169
f 170//169 172//172 136//136
f 171//171 128//128 172//172
f 136//136 172//172 128//128
f 173//173 128//128 171//171
f 168//168 173//173 171//171
f 168//168 174//174 173//173
f 174//174 128//128 173//173
f 175//175 174//174 168//168
f 175//175 176//176 174//174
f 176//176 177//177 174//174
f 174//174 177//177 178//178
f 174//174 178//178 127//127
f 174//174 127//127 128//128
f 177//177 120//120 178//178
f 178//178 120//120 127//127
f 179//179 118//118 177//177
f 176//176 179//179 177//177
f 177//177 118//118 120//120
f 39//40 118//118 179//179
f 176//176 39//40 179//179
f 42//43 176//176 180//180
f 42//43 41//42 176//176
f 180//180 176//176 175//175
f 41//42 40//41 176//176
f 176//176 40//41 39//40
f 44//45 42//43 180//180
f 44//45 180//180 175//175
f 44//45 175//175 168//168
f 44//45 169//170 46//46
f 169//170 140//140 46//46
f 127//127 120//120 129//129
f 120//120 122//122 129//129
f 114//114 181//181 125//125
f 73//73 125//125 181//181
f 73//73 124//126 125//125
f 73//73 181//181 182//182
f 114//114 182//182 181//181
f 73//73 182//182 109//110
f 114//114 109//110 182//182
f 39//40 116//116 118//118
f 38//39 37//38 117//117
f 37//38 112//112 117//117
f 39//40 38//39 116//116
f 80//81 79//79 110//109
f 73//73 110//109 77//76
f 110//109 79//79 77//76
f 35//36 106//106 183//183
f 36//37 183//183 106//106
f 106//106 34//35 33//34
f 35//36 34//35 106//106
f 106//106 33//34 32//33
f 106//106 32//33 31//32
f 36//37 35//36 183//183
f 64//65 76//77 78//78
f 184//184 78//78 14//15
f 64//65 78//78 184//184
f 12//13 184//184 13//14
f 64//65 184//184 12//13
f 184//184 185//185 13//14
f 184//184 14//15 185//185
f 13//14 185//185 14//15
f 47//48 55//56 54//54
f 47//48 50//50 55//56
f 47//48 54//54 4//3
f 4//3 54//54 5//6
f 46//46 51//51 48//47
f 43//44 42//43 44//45
