# Blender 4.4.0
# www.blender.org
mtllib decomposed_3.mtl
o decomposed_(1).004
v 27.590000 1.813491 13.039700
v 27.590000 -5.555969 12.688200
v 27.590000 -1.854819 13.034000
v 27.590000 -9.582449 11.882301
v 27.590000 -9.985399 11.765100
v 27.590000 -11.221099 11.356501
v 27.590000 -12.385199 10.662101
v 27.590000 -12.934399 10.330601
v 27.590000 -15.838599 8.395941
v 27.590000 -17.686199 6.641322
v 27.590000 -19.065100 4.792401
v 27.590000 -19.906900 2.034731
v 27.590000 -20.244101 -1.660248
v 27.590000 -19.211399 -5.515269
v 27.590000 -18.981600 -5.966779
v 27.590000 -17.292200 -8.155769
v 27.590000 -16.584801 -8.907339
v 27.590000 -13.194101 -11.810699
v 27.590000 -13.065701 -11.896499
v 27.590000 -9.292931 -13.954000
v 27.590000 -9.269051 -13.965399
v 27.590000 -5.353001 -14.351200
v 27.590000 -1.860791 -14.065500
v 27.590000 1.807519 -13.659700
v 27.590000 1.813490 -3.432020
v 27.583401 1.813489 -13.659700
v 23.885300 1.813489 -13.302500
v 20.187201 1.813489 -12.648000
v 15.888000 1.813489 -11.859300
v 13.644800 1.813489 -11.419200
v 11.073200 1.813489 -10.839100
v 8.015530 1.813489 -9.981830
v 5.437350 1.813489 -8.961640
v 5.237010 1.813489 -8.750170
v 3.489760 1.813490 -6.806940
v 3.089070 1.813490 -5.438110
v 2.882160 1.813490 -3.572040
v 2.409220 1.813491 5.718290
v 2.445350 1.813491 5.778300
v 12.173500 1.813491 10.619200
v 14.052100 1.813491 11.496500
v 16.466101 1.813491 12.099500
v 20.154301 1.813491 12.905400
v 20.183901 1.813491 12.911100
v 23.885300 1.813491 13.119700
v -5.955910 -16.647497 12.862501
v -5.955910 -13.205999 12.662501
v -5.955910 -12.952299 12.636701
v -5.955910 -10.642099 11.713701
v -5.955910 -10.486799 11.639400
v -5.955910 -8.761639 10.490601
v -5.955910 -8.636269 10.387701
v 3.381380 0.195735 7.784390
v -5.955910 -6.582729 8.664561
v -5.955910 -6.448420 8.538821
v -5.955910 -5.060490 5.906890
v -5.955910 -4.991839 5.735430
v -5.955910 -4.550090 2.034730
v -5.955910 -5.636550 -1.660249
v -5.955910 -8.624331 -8.761599
v -3.909780 -7.349831 -11.027699
v -5.955910 -9.910781 -11.339199
v -0.553223 -6.869281 -14.816999
v -5.955910 -9.704831 -11.081999
v 1.693240 -6.478271 -15.005599
v 1.693240 -9.254131 -15.445699
v 5.394660 -9.254131 -16.074400
v -0.750281 -12.952301 -14.862799
v -5.955910 -16.647501 -13.376799
v -5.955910 -12.946301 -12.788099
v -5.955910 -20.662001 -11.830798
v -0.802830 -15.247601 -14.871299
v 1.693240 -15.459501 -15.019899
v 1.693240 -12.952301 -15.459999
v 5.394660 -12.952301 -15.608599
v 23.885300 -8.570611 -15.031399
v 5.394660 -15.143101 -14.834199
v 20.187201 -17.719000 -10.499099
v 1.693240 -17.310102 -13.796799
v 5.394660 -16.993702 -13.568199
v 23.885300 -10.421201 -14.331199
v 27.563700 -9.272031 -13.971199
v 26.319000 -8.048271 -14.814199
v 26.319000 -6.451401 -14.814199
v 23.970699 -5.353001 -15.011400
v 22.794901 -3.520341 -14.717000
v 5.394660 -19.509899 -11.719298
v 9.092790 -23.231899 -8.190058
v -4.405720 -22.148399 -10.870598
v 5.394660 -21.360500 -10.253298
v -5.955910 -21.067900 -11.616398
v -5.955910 -24.046801 -9.175958
v -5.955910 -24.745199 -8.524408
v -5.955910 -23.491600 -9.687489
v -5.955910 -26.631599 -6.261118
v -2.004890 -25.691401 -6.961258
v -4.241500 -25.816799 -7.106998
v 5.394660 -25.285500 -6.123958
v -5.955910 -27.031601 -5.638148
v 1.693240 -26.619699 -4.755128
v -5.955910 -28.601601 -1.683118
v -5.955910 -28.673201 1.748962
v 1.693240 -27.556900 -1.660248
v 5.394660 -26.309200 -4.275028
v 7.746220 -26.037600 -3.877818
v 9.023820 -25.127300 -5.209498
v 12.787600 -22.796101 -7.824278
v 15.434800 -22.467800 -7.507068
v 20.187201 -19.900900 -8.650148
v 17.901300 -22.047001 -6.864099
v 23.885300 -19.101000 -7.910008
v 19.044201 -22.545401 -4.397908
v 16.594101 -22.927500 -5.523838
v 23.885300 -17.134001 -9.758929
v 5.394660 -26.819599 -1.660248
v 9.851460 -25.610800 -1.660248
v 7.752790 -26.031700 0.805929
v 1.693240 -27.288300 2.034732
v 9.027100 -25.452600 2.037592
v 9.092790 -24.225901 5.735432
v 6.396370 -25.766001 3.272112
v 1.693240 -26.354000 4.929562
v -1.696160 -26.771900 6.084072
v -0.254351 -25.873501 7.552922
v -5.955910 -27.637501 5.483962
v -5.955910 -28.673201 2.049022
v -2.004890 -28.016500 2.034732
v -5.955910 -27.547899 5.735432
v -5.955910 -26.392799 7.847262
v -2.720870 -26.079399 7.792962
v -5.703020 -24.046801 9.756192
v -5.703020 -26.270399 8.004432
v -1.696160 -24.404900 8.930322
v -5.703020 -21.945499 11.185002
v 9.092790 -20.348600 9.924802
v 9.092790 -22.793200 8.218761
v 11.667700 -22.482700 7.875842
v 12.856600 -20.575500 8.901752
v 12.856600 -23.058800 5.852602
v 9.092790 -17.930901 11.139301
v 7.030240 -18.369699 11.259301
v 5.637700 -20.127701 10.564902
v 4.563730 -18.748800 11.390801
v -5.703020 -20.094900 11.859402
v -5.703020 -16.647497 12.851101
v -5.955910 -20.136700 11.859402
v -5.955910 -20.336700 11.788002
v -5.955910 -21.966400 11.193602
v -5.955910 -22.076799 11.122202
v -5.955910 -24.025900 9.796202
v -5.955910 -24.213900 9.650462
v -5.955910 -26.285400 8.018722
v 5.394660 -6.105171 -15.300000
vn 0.6707 0.7417 0.0091
vn 0.0753 -0.1465 0.9863
vn 0.0955 -0.2310 0.9683
vn 0.0209 -0.0480 0.9986
vn -0.0194 0.0228 0.9996
vn 0.1791 -0.2967 0.9380
vn 0.2372 -0.4177 0.8771
vn 0.4261 -0.4648 0.7761
vn 0.4015 -0.4979 0.7687
vn 0.5081 -0.5221 0.6850
vn 0.6773 -0.5481 0.4908
vn 0.5612 -0.7656 0.3146
vn 0.7536 -0.6474 0.1142
vn 0.7390 -0.6735 -0.0177
vn 0.9069 -0.4012 -0.1286
vn 0.9500 -0.2598 -0.1734
vn 0.9922 -0.0968 -0.0789
vn 0.9725 -0.1572 -0.1717
vn 0.9725 -0.1497 -0.1786
vn 0.9186 -0.2053 -0.3378
vn 0.9924 -0.0590 -0.1082
vn 0.9990 -0.0045 -0.0440
vn 0.9985 -0.0006 -0.0548
vn 0.9989 0.0045 -0.0468
vn 0.9696 0.0290 -0.2429
vn 0.6726 0.7400 -0.0002
vn -0.0094 0.6272 -0.7788
vn -0.0436 0.9474 -0.3170
vn -0.0443 0.9684 -0.2455
vn -0.0459 0.9686 -0.2442
vn -0.0642 0.9510 -0.3025
vn -0.0613 0.9688 -0.2402
vn -0.0754 0.9711 -0.2265
vn -0.0929 0.9734 -0.2096
vn -0.1591 0.9767 -0.1438
vn -0.4770 0.8463 -0.2374
vn -0.1759 0.9839 -0.0330
vn -0.1829 0.9831 -0.0112
vn -0.2377 0.9713 0.0042
vn -0.3058 0.8668 0.3938
vn -0.2624 0.7891 0.5555
vn -0.2765 0.5793 0.7668
vn -0.2070 0.4119 0.8874
vn -0.1939 0.4163 0.8883
vn -0.0581 0.1022 0.9931
vn -0.9193 -0.0094 0.3934
vn -0.0494 0.0675 0.9965
vn -0.2240 0.3356 0.9150
vn -0.2523 0.3665 0.8956
vn -0.4072 0.4980 0.7656
vn -0.3675 0.5599 0.7426
vn -0.5959 0.5159 0.6155
vn -0.3556 0.6014 0.7155
vn -0.5005 0.5715 0.6503
vn -0.8348 0.4820 0.2661
vn -0.8393 0.4825 0.2504
vn -0.9010 0.4302 0.0567
vn -0.8087 0.5864 -0.0463
vn -0.9135 0.3808 -0.1429
vn -0.6617 0.6695 -0.3375
vn -0.9936 0.1037 -0.0448
vn -0.9681 0.1440 -0.2051
vn -0.9942 0.0959 -0.0479
vn -0.4185 0.5119 -0.7502
vn -0.1427 0.5188 -0.8429
vn 0.0056 0.0872 -0.9962
vn -0.2117 0.0243 -0.9770
vn -0.2740 0.0144 -0.9616
vn -0.9400 -0.0169 -0.3408
vn -0.9834 0.0525 -0.1735
vn -0.9458 -0.1277 -0.2985
vn -0.1802 -0.2211 -0.9585
vn -0.0009 -0.4358 -0.9000
vn -0.1125 -0.0828 -0.9902
vn 0.0598 -0.2035 -0.9772
vn 0.0817 -0.1675 -0.9825
vn 0.1358 -0.4720 -0.8711
vn 0.1595 -0.4872 -0.8586
vn 0.0843 -0.5803 -0.8100
vn 0.1576 -0.5666 -0.8088
vn 0.1312 -0.5757 -0.8071
vn 0.2692 -0.2137 -0.9391
vn 0.2123 -0.3995 -0.8918
vn 0.1547 0.0764 -0.9850
vn 0.0567 0.0853 -0.9947
vn 0.0195 0.1758 -0.9842
vn 0.1219 -0.6010 -0.7899
vn 0.1162 -0.6761 -0.7276
vn 0.0762 -0.6287 -0.7739
vn 0.1026 -0.6289 -0.7707
vn -0.9403 -0.1865 -0.2847
vn -0.9975 -0.0448 -0.0546
vn -0.9973 -0.0496 -0.0535
vn -0.6129 -0.5671 -0.5502
vn -0.9892 -0.1168 -0.0885
vn 0.0993 -0.7828 -0.6142
vn 0.0692 -0.7663 -0.6388
vn 0.1287 -0.8335 -0.5374
vn -0.7557 -0.5826 -0.2992
vn -0.7298 -0.6628 -0.1677
vn 0.1065 -0.9078 -0.4057
vn -0.8254 -0.5644 -0.0109
vn 0.1608 -0.9850 -0.0622
vn 0.1380 -0.9305 -0.3394
vn 0.2636 -0.9464 -0.1868
vn 0.1751 -0.8587 -0.4816
vn 0.1622 -0.7279 -0.6663
vn 0.2247 -0.8385 -0.4964
vn 0.2332 -0.6777 -0.6974
vn 0.2867 -0.8588 -0.4245
vn 0.2993 -0.7572 -0.5805
vn 0.3026 -0.9261 -0.2254
vn 0.2679 -0.9127 -0.3086
vn 0.2544 -0.6275 -0.7359
vn 0.2841 -0.9588 0.0008
vn 0.2264 -0.9737 0.0267
vn 0.2773 -0.9556 0.0997
vn 0.2691 -0.9252 0.2676
vn 0.2122 -0.9585 0.1902
vn 0.2521 -0.9078 0.3353
vn 0.2323 -0.9249 0.3009
vn 0.2240 -0.9222 0.3152
vn 0.1877 -0.9320 0.3101
vn 0.1907 -0.8106 0.5537
vn -0.5507 -0.7461 0.3741
vn -0.8751 -0.4629 0.1413
vn -0.4719 -0.8637 0.1771
vn 0.1757 -0.9687 0.1751
vn 0.1083 -0.7329 0.6716
vn -0.8731 -0.4269 0.2355
vn 0.1062 -0.5909 0.7997
vn 0.1315 -0.5685 0.8121
vn 0.0939 -0.6345 0.7672
vn 0.1186 -0.4874 0.8651
vn 0.1570 -0.5141 0.8432
vn 0.1475 -0.5903 0.7936
vn 0.2481 -0.7498 0.6134
vn 0.1998 -0.5429 0.8157
vn 0.2654 -0.8789 0.3964
vn 0.1492 -0.4412 0.8849
vn 0.1156 -0.3760 0.9194
vn 0.1247 -0.4622 0.8780
vn 0.0848 -0.2760 0.9574
vn 0.0818 -0.2990 0.9507
vn 0.0769 -0.2343 0.9691
vn 0.0191 -0.2781 0.9604
vn -0.3985 -0.3138 0.8618
vn -0.7907 -0.2188 0.5718
vn -0.9506 -0.1745 0.2568
vn -0.9883 -0.0866 0.1255
vn -0.9931 -0.0728 0.0924
vn -0.9780 -0.1310 0.1623
vn -0.0572 0.3314 -0.9418
s 1
f 1//1 2//2 4//3
f 1//1 3//4 2//2
f 1//1 45//5 3//4
f 1//1 4//3 5//6
f 1//1 5//6 6//7
f 1//1 6//7 7//8
f 1//1 7//8 8//9
f 1//1 8//9 9//10
f 1//1 9//10 10//11
f 1//1 10//11 11//12
f 1//1 11//12 12//13
f 1//1 12//13 13//14
f 1//1 13//14 14//15
f 1//1 14//15 15//16
f 1//1 15//16 16//17
f 1//1 16//17 17//18
f 1//1 17//18 18//19
f 1//1 18//19 19//20
f 1//1 19//20 20//21
f 1//1 20//21 21//22
f 1//1 21//22 22//23
f 1//1 22//23 23//24
f 1//1 23//24 24//25
f 1//1 24//25 25//26
f 1//1 25//26 26//27
f 1//1 26//27 27//28
f 1//1 27//28 28//29
f 1//1 28//29 29//30
f 1//1 29//30 30//31
f 1//1 30//31 31//32
f 1//1 31//32 32//33
f 1//1 32//33 33//34
f 1//1 33//34 34//35
f 1//1 34//35 35//36
f 1//1 35//36 36//37
f 1//1 36//37 37//38
f 1//1 37//38 38//39
f 1//1 38//39 39//40
f 1//1 39//40 40//41
f 1//1 40//41 41//42
f 1//1 41//42 42//43
f 1//1 42//43 43//44
f 1//1 43//44 44//45
f 1//1 44//45 45//5
f 3//4 45//5 46//46
f 45//5 44//45 47//47
f 45//5 47//47 46//46
f 46//46 47//47 48//48
f 44//45 48//48 47//47
f 43//44 42//43 48//48
f 44//45 43//44 48//48
f 46//46 48//48 49//49
f 48//48 42//43 49//49
f 49//49 41//42 50//50
f 46//46 49//49 50//50
f 42//43 41//42 49//49
f 41//42 51//51 50//50
f 46//46 50//50 51//51
f 46//46 51//51 52//52
f 40//41 53//53 51//51
f 41//42 40//41 51//51
f 51//51 53//53 52//52
f 40//41 39//40 53//53
f 39//40 54//54 53//53
f 53//53 54//54 52//52
f 46//46 52//52 54//54
f 46//46 54//54 55//55
f 39//40 55//55 54//54
f 46//46 55//55 56//56
f 39//40 56//56 55//55
f 46//46 56//56 57//57
f 57//57 56//56 38//39
f 38//39 56//56 39//40
f 46//46 57//57 58//58
f 58//58 57//57 38//39
f 35//36 59//59 58//58
f 46//46 58//58 59//59
f 58//58 37//38 36//37
f 35//36 58//58 36//37
f 58//58 38//39 37//38
f 61//60 60//61 59//59
f 46//46 59//59 60//61
f 35//36 61//60 59//59
f 62//62 64//63 61//60
f 63//64 62//62 61//60
f 63//64 61//60 35//36
f 61//60 64//63 60//61
f 46//46 64//63 62//62
f 46//46 60//61 64//63
f 65//65 63//64 30//31
f 67//66 63//64 65//65
f 66//67 68//68 63//64
f 67//66 66//67 63//64
f 63//64 31//32 30//31
f 63//64 68//68 69//69
f 63//64 34//35 33//34
f 63//64 35//36 34//35
f 63//64 33//34 32//33
f 63//64 32//33 31//32
f 63//64 69//69 70//70
f 63//64 70//70 62//62
f 46//46 70//70 69//69
f 46//46 62//62 70//70
f 46//46 69//69 71//71
f 72//72 71//71 69//69
f 72//72 69//69 68//68
f 73//73 71//71 72//72
f 74//74 73//73 72//72
f 74//74 72//72 66//67
f 66//67 72//72 68//68
f 75//75 73//73 74//74
f 67//66 75//75 74//74
f 67//66 74//74 66//67
f 76//76 77//77 75//75
f 67//66 76//76 75//75
f 75//75 77//77 73//73
f 76//76 81//78 77//77
f 77//77 79//79 73//73
f 77//77 78//80 80//81
f 81//78 78//80 77//77
f 77//77 80//81 79//79
f 83//82 81//78 76//76
f 81//78 82//83 20//21
f 83//82 82//83 81//78
f 81//78 20//21 19//20
f 81//78 19//20 78//80
f 84//84 83//82 76//76
f 84//84 22//23 83//82
f 22//23 21//22 83//82
f 83//82 21//22 82//83
f 23//24 22//23 84//84
f 24//25 23//24 84//84
f 24//25 84//84 85//85
f 84//84 76//76 85//85
f 24//25 85//85 26//27
f 26//27 85//85 86//86
f 85//85 67//66 86//86
f 85//85 76//76 67//66
f 26//27 86//86 67//66
f 21//22 20//21 82//83
f 78//80 87//87 80//81
f 80//81 87//87 79//79
f 78//80 88//88 87//87
f 79//79 87//87 89//89
f 88//88 90//90 87//87
f 89//89 87//87 90//90
f 89//89 90//90 88//88
f 73//73 89//89 91//91
f 73//73 79//79 89//89
f 89//89 94//92 91//91
f 89//89 92//93 94//92
f 89//89 93//94 92//93
f 89//89 88//88 93//94
f 46//46 94//92 92//93
f 46//46 91//91 94//92
f 46//46 93//94 95//95
f 46//46 92//93 93//94
f 88//88 96//96 93//94
f 93//94 97//97 95//95
f 93//94 96//96 97//97
f 96//96 95//95 97//97
f 88//88 98//98 96//96
f 98//98 99//99 96//96
f 96//96 99//99 95//95
f 46//46 99//99 101//100
f 46//46 95//95 99//99
f 100//101 101//100 99//99
f 98//98 100//101 99//99
f 102//102 101//100 103//103
f 46//46 101//100 102//102
f 104//104 103//103 101//100
f 104//104 101//100 100//101
f 105//105 103//103 104//104
f 106//106 105//105 104//104
f 98//98 104//104 100//101
f 106//106 104//104 98//98
f 107//107 106//106 98//98
f 107//107 108//108 106//106
f 108//108 105//105 106//106
f 109//109 108//108 107//107
f 109//109 110//110 108//108
f 110//110 105//105 108//108
f 111//111 15//16 110//110
f 109//109 111//111 110//110
f 110//110 15//16 14//15
f 110//110 14//15 112//112
f 110//110 112//112 113//113
f 110//110 113//113 105//105
f 112//112 105//105 113//113
f 112//112 13//14 105//105
f 14//15 13//14 112//112
f 17//18 16//17 111//111
f 109//109 17//18 111//111
f 111//111 16//17 15//16
f 78//80 109//109 107//107
f 78//80 114//114 109//109
f 114//114 17//18 109//109
f 18//19 17//18 114//114
f 78//80 18//19 114//114
f 78//80 107//107 88//88
f 107//107 98//98 88//88
f 105//105 13//14 116//115
f 105//105 115//116 103//103
f 105//105 116//115 115//116
f 117//117 115//116 116//115
f 117//117 116//115 13//14
f 12//13 117//117 13//14
f 119//118 117//117 12//13
f 118//119 115//116 117//117
f 119//118 118//119 117//117
f 120//120 121//121 119//118
f 120//120 119//118 11//12
f 11//12 119//118 12//13
f 119//118 121//121 118//119
f 120//120 122//122 121//121
f 122//122 118//119 121//121
f 123//123 118//119 122//122
f 120//120 123//123 122//122
f 124//124 123//123 120//120
f 124//124 128//125 123//123
f 123//123 125//126 126//127
f 128//125 125//126 123//123
f 123//123 126//127 127//128
f 123//123 127//128 118//119
f 130//129 128//125 124//124
f 46//46 128//125 129//130
f 46//46 125//126 128//125
f 130//129 129//130 128//125
f 131//131 130//129 133//132
f 131//131 132//133 130//129
f 132//133 129//130 130//129
f 133//132 130//129 124//124
f 134//134 133//132 135//135
f 134//134 131//131 133//132
f 135//135 133//132 136//136
f 133//132 124//124 136//136
f 136//136 124//124 137//137
f 135//135 136//136 137//137
f 137//137 9//10 138//138
f 135//135 137//137 138//138
f 137//137 124//124 120//120
f 137//137 120//120 139//139
f 137//137 139//139 11//12
f 137//137 11//12 10//11
f 137//137 10//11 9//10
f 120//120 11//12 139//139
f 8//9 138//138 9//10
f 135//135 138//138 8//9
f 6//7 135//135 7//8
f 6//7 140//140 135//135
f 7//8 135//135 8//9
f 141//141 135//135 140//140
f 141//141 142//142 135//135
f 134//134 135//135 142//142
f 141//141 134//134 142//142
f 6//7 141//141 140//140
f 5//6 141//141 6//7
f 5//6 143//143 141//141
f 143//143 134//134 141//141
f 4//3 143//143 5//6
f 143//143 144//144 134//134
f 145//145 144//144 143//143
f 4//3 145//145 143//143
f 2//2 145//145 4//3
f 2//2 46//46 145//145
f 46//46 146//146 145//145
f 145//145 146//146 144//144
f 146//146 147//147 144//144
f 46//46 147//147 146//146
f 46//46 148//148 147//147
f 144//144 147//147 134//134
f 147//147 148//148 134//134
f 46//46 149//149 148//148
f 134//134 148//148 149//149
f 46//46 150//150 149//149
f 134//134 149//149 131//131
f 149//149 150//150 131//131
f 46//46 151//151 150//150
f 131//131 150//150 151//151
f 46//46 152//152 151//151
f 131//131 151//151 152//152
f 46//46 129//130 152//152
f 152//152 129//130 132//133
f 131//131 152//152 132//133
f 126//127 103//103 127//128
f 127//128 103//103 118//119
f 46//46 126//127 125//126
f 46//46 102//102 126//127
f 126//127 102//102 103//103
f 118//119 103//103 115//116
f 46//46 71//71 91//91
f 73//73 91//91 71//71
f 19//20 18//19 78//80
f 26//27 67//66 153//153
f 67//66 65//65 153//153
f 26//27 153//153 27//28
f 27//28 153//153 65//65
f 28//29 65//65 29//30
f 27//28 65//65 28//29
f 65//65 30//31 29//30
f 3//4 46//46 2//2
f 25//26 24//25 26//27
