# https://github.com/mikedh/trimesh
v 0.02960449 -0.09848493 0.13845227
v 0.03198883 -0.09831773 0.13845227
v 0.03198883 -0.09832609 0.14083113
v 0.03198883 -0.09776597 0.19804158
v 0.02960449 -0.09785793 0.19804158
v 0.02722015 -0.09840968 0.13845227
v 0.02722015 -0.09840968 0.13604985
v 0.02960449 -0.09829265 0.09556210
v 0.03198883 -0.09817561 0.10031982
v 0.03437318 -0.09783285 0.14083113
v 0.03437318 -0.09736469 0.20282286
v 0.03198883 -0.09773253 0.20042044
v 0.03198883 -0.09769073 0.20282286
v 0.02960449 -0.09780776 0.20042044
v 0.02722015 -0.09764057 0.20042044
v 0.02722015 -0.09768237 0.19804158
v 0.01769105 -0.09729781 0.17420585
v 0.02483580 -0.09824248 0.13604985
v 0.02483580 -0.09823413 0.13367099
v 0.02722015 -0.09820069 0.09318323
v 0.02722015 -0.09703865 0.02165251
v 0.02979491 -0.09687981 0.01920298
v 0.03198883 -0.09815053 0.09794096
v 0.03437318 -0.09766565 0.10031982
v 0.03620283 -0.09713061 0.14320999
v 0.03622767 -0.09712225 0.14558885
v 0.03599586 -0.09694669 0.20282286
v 0.03597102 -0.09693832 0.20520172
v 0.03602897 -0.09704701 0.10031982
v 0.03437318 -0.09733125 0.20520172
v 0.03198883 -0.09723929 0.21711958
v 0.02960449 -0.09728109 0.21711958
v 0.02722015 -0.09735633 0.20995944
v 0.01938824 -0.09674605 0.20995944
v 0.01531498 -0.09708881 0.17420585
v 0.02245146 -0.09799169 0.13367099
v 0.02483580 -0.09794989 0.09318323
v 0.02483580 -0.09791645 0.09078082
v 0.02493515 -0.09692161 0.02403137
v 0.02515040 -0.09689653 0.02165251
v 0.02546500 -0.09685473 0.01927365
v 0.02722015 -0.09696341 0.01927365
v 0.02912431 -0.09683801 0.01757782
v 0.03071387 -0.09677113 0.01835507
v 0.03085461 -0.09679621 0.01993313
v 0.03178186 -0.09653705 0.01920298
v 0.03437318 -0.09567597 0.01927365
v 0.03741984 -0.09647017 0.14799127
v 0.03718803 -0.09644509 0.20282286
v 0.03716319 -0.09644509 0.20520172
v 0.03584684 -0.09688817 0.20758058
v 0.03616144 -0.09478145 0.01927365
v 0.03722115 -0.09627789 0.10031982
v 0.03437318 -0.09723929 0.20758058
v 0.03376054 -0.09692161 0.21949844
v 0.03198883 -0.09715568 0.21949844
v 0.02960449 -0.09717241 0.21949844
v 0.02712080 -0.09692161 0.21949844
v 0.02017474 -0.09666245 0.21224409
v 0.01769105 -0.09636149 0.21233831
v 0.01769105 -0.09651197 0.20995944
v 0.01352672 -0.09687145 0.17420585
v -0.00614412 -0.09460590 0.13367099
v 0.02365191 -0.09677949 0.02532679
v 0.02374298 -0.09677113 0.02403137
v 0.02395823 -0.09673769 0.02165251
v 0.02427283 -0.09669589 0.01927365
v 0.02579616 -0.09681293 0.01783691
v 0.02722015 -0.09684637 0.01753072
v 0.02722015 -0.09670425 0.01632951
v 0.02979491 -0.09669589 0.01682413
v 0.03198883 -0.09633641 0.01689478
v 0.03437318 -0.09555057 0.01689478
v 0.03607865 -0.09473129 0.01689478
v 0.03741984 -0.09645345 0.14558885
v 0.03899285 -0.09527469 0.14799127
v 0.04040855 -0.09446377 0.20282286
v 0.03914187 -0.09532485 0.20282286
v 0.03914187 -0.09532485 0.20520172
v 0.03882727 -0.09497373 0.21711958
v 0.03872792 -0.09491521 0.21949844
v 0.03703901 -0.09639493 0.20758058
v 0.03675752 -0.09594349 0.21949844
v 0.03495271 -0.09662065 0.21949844
v 0.03727082 -0.09386185 0.01689478
v 0.03735361 -0.09390366 0.01927365
v 0.03869480 -0.09508241 0.10031982
v 0.03879415 -0.09514093 0.11464010
v 0.03346249 -0.09684637 0.22107650
v 0.03198883 -0.09692997 0.22150045
v 0.02960449 -0.09692997 0.22147690
v 0.02784935 -0.09684637 0.22107650
v 0.02625978 -0.09675441 0.22027570
v -0.00614412 -0.09279177 0.21233831
v -0.00614412 -0.09297569 0.20995944
v 0.01769105 -0.09613577 0.21474072
v 0.01293064 -0.09527469 0.21711958
v -0.00614412 -0.09309273 0.20758058
v 0.00100891 -0.09480653 0.18136600
v -0.00745220 -0.09443033 0.13539037
v -0.00744392 -0.09442197 0.13367099
v -0.01091281 -0.09256605 0.07886296
v -0.01329716 -0.09065162 0.01927365
v -0.00736113 -0.09440525 0.13239912
v 0.02245146 -0.09623609 0.01689478
v 0.02493515 -0.09660393 0.01698900
v 0.02483580 -0.09614413 0.01451592
v 0.02722015 -0.09631969 0.01451592
v 0.02960449 -0.09626117 0.01451592
v 0.03198883 -0.09587661 0.01451592
v 0.03453048 -0.09498209 0.01439816
v 0.03584684 -0.09457245 0.01510475
v 0.04019330 -0.09424641 0.15037013
v 0.04150138 -0.09320141 0.20282286
v 0.04040855 -0.09446377 0.20520172
v 0.04036716 -0.09443033 0.20682688
v 0.03936540 -0.09506569 0.20760414
v 0.04001944 -0.09415445 0.21711958
v 0.03992009 -0.09406249 0.21949844
v 0.03847955 -0.09474802 0.22187731
v 0.03675752 -0.09564254 0.22187731
v 0.03430695 -0.09649525 0.22187731
v 0.03853750 -0.09266637 0.01689478
v 0.03669129 -0.09371973 0.01439816
v 0.03830569 -0.09240722 0.01451592
v 0.03857890 -0.09270817 0.01927365
v 0.03988698 -0.09387021 0.10031982
v 0.04001116 -0.09404577 0.11701896
v 0.04008567 -0.09414610 0.13129213
v 0.04018502 -0.09422969 0.14799127
v 0.03437318 -0.09592677 0.22425616
v 0.03198883 -0.09671261 0.22267811
v 0.02960449 -0.09670425 0.22267811
v 0.02712080 -0.09661229 0.22187731
v 0.02483580 -0.09631133 0.22187731
v 0.00100891 -0.09305930 0.22187731
v -0.00873544 -0.09227345 0.21250318
v -0.00614412 -0.09255769 0.21474072
v -0.00775852 -0.09209790 0.21660141
v -0.00821387 -0.09219821 0.21474072
v -0.00852847 -0.09248246 0.20995944
v -0.00852847 -0.09254097 0.20758058
v -0.01293288 -0.09239885 0.14799127
v -0.00863609 -0.09407921 0.13367099
v -0.00994417 -0.09208953 0.20995944
v -0.01251065 -0.09217313 0.07886296
v -0.01585536 -0.08994938 0.01950917
v -0.01527583 -0.08992430 0.01689478
v -0.01329716 -0.09045934 0.01689478
v -0.01091281 -0.09085225 0.01689478
v 0.02007539 -0.09549205 0.01451592
v 0.02245146 -0.09585153 0.01451592
v 0.02245146 -0.09517437 0.01211351
v 0.02483580 -0.09541681 0.01211351
v 0.02722015 -0.09553385 0.01211351
v 0.02960449 -0.09543353 0.01211351
v 0.03204679 -0.09494029 0.01197219
v 0.03384332 -0.09468949 0.01267878
v 0.03543289 -0.09433001 0.01352669
v 0.04111226 -0.09296733 0.13367099
v 0.04261904 -0.09183038 0.20282286
v 0.04146826 -0.09320141 0.20520172
v 0.04253625 -0.09175514 0.21233831
v 0.04250313 -0.09171334 0.21474072
v 0.04126129 -0.09295897 0.21711958
v 0.04116194 -0.09287537 0.21949844
v 0.04095496 -0.09266637 0.22187731
v 0.03967172 -0.09386185 0.22187731
v 0.03818979 -0.09455574 0.22354957
v 0.03687343 -0.09498209 0.22430327
v 0.03972968 -0.09096929 0.01689478
v 0.03977107 -0.09104453 0.01927365
v 0.03806560 -0.09213969 0.01310274
v 0.03958065 -0.09060981 0.01465724
v 0.04064864 -0.09243230 0.08602309
v 0.04084734 -0.09270817 0.10269868
v 0.04097980 -0.09285865 0.11701896
v 0.04110399 -0.09295061 0.13129213
v 0.03615316 -0.09468949 0.22609331
v 0.03446425 -0.09496538 0.22679990
v 0.03198883 -0.09545861 0.22665858
v 0.03198883 -0.09629461 0.22425616
v 0.02960449 -0.09626117 0.22425616
v 0.02722015 -0.09601873 0.22425616
v 0.02483580 -0.09570941 0.22425616
v 0.00100891 -0.09260785 0.22425616
v -0.00130092 -0.09224837 0.22430327
v -0.00310574 -0.09211461 0.22354957
v -0.00137543 -0.09264966 0.22187731
v -0.00940604 -0.09195577 0.21474072
v -0.00967096 -0.09200593 0.21339819
v -0.00852847 -0.09162137 0.21949844
v -0.00854503 -0.09187217 0.21728445
v -0.00469530 -0.09196413 0.22263100
v -0.00984482 -0.09205609 0.21179658
v -0.01412506 -0.09181365 0.14799127
v -0.01414161 -0.09183038 0.14558885
v -0.01294944 -0.09239885 0.14558885
v -0.01091281 -0.09321813 0.13367099
v -0.01113634 -0.09165481 0.20995944
v -0.01329716 -0.09065162 0.20995944
v -0.01254377 -0.09218149 0.08126537
v -0.01373594 -0.09170497 0.08126537
v -0.01687367 -0.08963170 0.02047485
v -0.01676605 -0.08958154 0.01887324
v -0.01646800 -0.08946450 0.01689478
v -0.01486188 -0.08977381 0.01512830
v -0.01339650 -0.08998281 0.01439816
v -0.01091281 -0.09045098 0.01451592
v 0.01596902 -0.09449721 0.01298497
v 0.01769105 -0.09464769 0.01253746
v 0.01995948 -0.09478981 0.01192508
v 0.01909019 -0.09437181 0.01100651
v 0.02067976 -0.09447213 0.01077098
v 0.02245146 -0.09457245 0.01058255
v 0.02483580 -0.09468949 0.01039413
v 0.02722015 -0.09473129 0.01034703
v 0.02960449 -0.09465605 0.01048835
v 0.03128512 -0.09452229 0.01072387
v 0.03287468 -0.09430493 0.01110072
v 0.03453048 -0.09401233 0.01197219
v 0.03595446 -0.09231526 0.01053545
v 0.03675752 -0.09270817 0.01223127
v 0.04434106 -0.08843621 0.21233831
v 0.04329791 -0.09056802 0.21233831
v 0.04229616 -0.09122846 0.13129213
v 0.04290880 -0.09004134 0.13129213
v 0.04325652 -0.09051786 0.21474072
v 0.04245346 -0.09162973 0.21711958
v 0.04235411 -0.09147090 0.21949844
v 0.04214714 -0.09116157 0.22187731
v 0.04058241 -0.09228181 0.22425616
v 0.03904252 -0.09358597 0.22430327
v 0.03774272 -0.09427985 0.22512763
v 0.04035888 -0.08968186 0.01555226
v 0.04040855 -0.08978218 0.01689478
v 0.04044167 -0.08984906 0.01927365
v 0.04083906 -0.09043426 0.04548823
v 0.03754403 -0.09158794 0.01150113
v 0.03822290 -0.08999954 0.01058255
v 0.03857890 -0.09080209 0.01223127
v 0.04019330 -0.08928894 0.01397420
v 0.04160072 -0.09081882 0.08602309
v 0.04198156 -0.09081882 0.10269868
v 0.04217197 -0.09097766 0.11701896
v 0.03687343 -0.09395382 0.22679990
v 0.03531698 -0.09431330 0.22767136
v 0.03372742 -0.09455574 0.22809532
v 0.03198883 -0.09468113 0.22830729
v 0.02960449 -0.09464769 0.22826019
v 0.02960449 -0.09540010 0.22665858
v 0.02007539 -0.09453901 0.22581067
v -0.00046475 -0.09205609 0.22555158
v -0.00205431 -0.09193905 0.22512763
v -0.00384257 -0.09181365 0.22430327
v -0.00614412 -0.09138730 0.22425616
v -0.01091281 -0.09108634 0.21949844
v -0.01091281 -0.09131205 0.21711958
v -0.01091281 -0.09149598 0.21474072
v -0.00852847 -0.09132877 0.22187731
v -0.00852847 -0.09091078 0.22425616
v -0.01074723 -0.09169661 0.21250318
v -0.01568150 -0.09079374 0.14558885
v -0.01472942 -0.08981561 0.20995944
v -0.01709720 -0.08980726 0.08126537
v -0.01568150 -0.09069342 0.08126537
v -0.01329716 -0.09057638 0.21233831
v -0.01782576 -0.08903813 0.02141698
v -0.01782576 -0.08897962 0.01950917
v -0.01806584 -0.08849474 0.01689478
v -0.01811552 -0.08786774 0.01465724
v -0.01566494 -0.08923041 0.01439816
v -0.01426579 -0.08957317 0.01352669
v -0.01267623 -0.08976545 0.01289076
v -0.01091281 -0.08990757 0.01241970
v 0.01769105 -0.09426313 0.01133626
v -0.01091281 -0.08952301 0.01124204
v -0.01091281 -0.08885422 0.00973465
v 0.01531498 -0.09317633 0.00973465
v 0.01769105 -0.09356089 0.00973465
v 0.01995948 -0.09392874 0.00987597
v 0.02245146 -0.09392874 0.00938135
v 0.02483580 -0.09398725 0.00921648
v 0.02722015 -0.09397890 0.00916937
v 0.02960449 -0.09387857 0.00928713
v 0.03204679 -0.09369465 0.00985241
v 0.03338798 -0.09213133 0.00843923
v 0.03425727 -0.09269145 0.00973465
v 0.03673269 -0.09077701 0.00975820
v 0.03497754 -0.09156286 0.00895739
v 0.04492887 -0.08605362 0.21233831
v 0.04487920 -0.08605362 0.21474072
v 0.04424172 -0.08843621 0.21474072
v 0.04349661 -0.08843621 0.13129213
v 0.04415893 -0.08605362 0.11701896
v 0.04511929 -0.08253407 0.11558222
v 0.04279290 -0.08978218 0.11701896
v 0.04332275 -0.08843621 0.11701896
v 0.04318201 -0.09043426 0.21711958
v 0.04308266 -0.09027542 0.21949844
v 0.04290880 -0.08996609 0.22187731
v 0.04277634 -0.08972366 0.22326693
v 0.04184909 -0.09063489 0.22413840
v 0.04035060 -0.09203101 0.22548093
v 0.03908392 -0.09258277 0.22642305
v 0.03825602 -0.09227345 0.22816598
v 0.04088045 -0.08843621 0.01689478
v 0.04062380 -0.08846966 0.01465724
v 0.04256108 -0.08671406 0.04789065
v 0.04184081 -0.08843621 0.04548823
v 0.03750263 -0.08896290 0.00898094
v 0.03856234 -0.08827738 0.00975820
v 0.04020986 -0.08681438 0.01124204
v 0.03986214 -0.08846966 0.01206640
v 0.04049962 -0.08770054 0.01282010
v 0.04266043 -0.08947285 0.10269868
v 0.03661678 -0.09264966 0.22899034
v 0.03572265 -0.09210625 0.23030931
v 0.03446425 -0.09367793 0.22894323
v 0.03198883 -0.09384513 0.22950851
v 0.02960449 -0.09383677 0.22943784
v 0.01875903 -0.09203101 0.23023865
v 0.01717775 -0.09192233 0.23009733
v 0.01784835 -0.09257441 0.22920231
v -0.00375978 -0.09017509 0.22868415
v 0.00339326 -0.09177185 0.22731806
v 0.02007539 -0.09404577 0.22701188
v -0.00130092 -0.09157121 0.22647016
v 0.00100891 -0.09214805 0.22578712
v -0.00375978 -0.09115322 0.22665858
v -0.01091281 -0.09078537 0.22187731
v -0.01281698 -0.09004134 0.22187731
v -0.01309018 -0.09019182 0.21949844
v -0.01329716 -0.09044261 0.21474072
v -0.00614412 -0.09067670 0.22665858
v -0.01049059 -0.08988249 0.22602264
v -0.01113634 -0.09017509 0.22449170
v -0.01703097 -0.08978218 0.14558885
v -0.01703925 -0.08978218 0.14320999
v -0.01467147 -0.08977381 0.21233831
v -0.01592159 -0.08876226 0.20995944
v -0.01978787 -0.08770890 0.02165251
v -0.01458868 -0.08970694 0.21474072
v -0.01972992 -0.08765874 0.01927365
v -0.01950638 -0.08747482 0.01689478
v -0.01932425 -0.08730762 0.01555226
v -0.01736213 -0.08761693 0.01258457
v -0.01588020 -0.08816870 0.01192508
v -0.01339650 -0.08930565 0.01211351
v -0.01341306 -0.08806838 0.00956977
v -0.01270107 -0.08751662 0.00820369
v -0.01091281 -0.08775906 0.00787395
v 0.01531498 -0.09231526 0.00813303
v 0.01769105 -0.09250754 0.00789751
v 0.02007539 -0.09264130 0.00775619
v 0.02245146 -0.09273325 0.00768552
v 0.02483580 -0.09279177 0.00768552
v 0.02722015 -0.09279177 0.00770908
v 0.02960449 -0.09268309 0.00785039
v 0.03198883 -0.09239885 0.00815659
v 0.03591307 -0.08997446 0.00829791
v 0.03192260 -0.09066834 0.00688472
v 0.03267599 -0.08926386 0.00629590
v 0.03425727 -0.09079374 0.00794461
v 0.04639425 -0.07889746 0.17658472
v 0.05403574 -0.04315014 0.12413199
v 0.05399435 -0.04315014 0.14083113
v 0.05770333 -0.02408099 0.15274899
v 0.05815039 -0.02169839 0.15512786
v 0.05928462 -0.01511908 0.17182699
v 0.05951643 -0.01393196 0.17182699
v 0.04500338 -0.08347038 0.22201862
v 0.04463083 -0.08605362 0.21949844
v 0.05948331 -0.01372296 0.17420585
v 0.04408442 -0.08843621 0.21711958
v 0.04449837 -0.08605362 0.22187731
v 0.04290880 -0.08776742 0.08364423
v 0.04290880 -0.08551858 0.04789065
v 0.04344693 -0.08367102 0.05026951
v 0.04408442 -0.08128842 0.05264837
v 0.04390228 -0.08843621 0.21949844
v 0.04362907 -0.08843621 0.22187731
v 0.04317373 -0.08848637 0.22413840
v 0.04251969 -0.08930565 0.22484499
v 0.04080594 -0.09072685 0.22642305
v 0.04051618 -0.08987414 0.22809532
v 0.03984558 -0.09146253 0.22708254
v 0.04218025 -0.08848637 0.22677635
v 0.03904252 -0.09069342 0.22891968
v 0.03823946 -0.08992430 0.23045063
v 0.03731222 -0.09152105 0.22974403
v 0.04130268 -0.08605362 0.01451592
v 0.04153449 -0.08605362 0.01689478
v 0.04285913 -0.08536810 0.04548823
v 0.04252797 -0.08656358 0.04548823
v 0.04245346 -0.08896290 0.08364423
v 0.03802421 -0.08737449 0.00848633
v 0.03957237 -0.08602854 0.00987597
v 0.04042511 -0.08522598 0.01074743
v 0.04070660 -0.08602854 0.01206640
v 0.03661678 -0.09076030 0.23080393
v 0.03513485 -0.08937254 0.23245264
v 0.03435662 -0.09068505 0.23184026
v 0.03437318 -0.09237377 0.23056839
v 0.03198883 -0.09265801 0.23082748
v 0.02960449 -0.09264130 0.23085103
v 0.01634157 -0.08965678 0.23264106
v 0.00577760 -0.09000789 0.23066261
v -0.00375978 -0.08934746 0.22988535
v -0.00614412 -0.08991594 0.22828374
v 0.00100891 -0.09162973 0.22698832
v -0.01246926 -0.08984906 0.22383221
v -0.01400914 -0.08928894 0.22187731
v -0.01428235 -0.08948122 0.21949844
v -0.01443137 -0.08958990 0.21787328
v -0.01349585 -0.09017509 0.21709603
v -0.01452244 -0.08965678 0.21627167
v -0.00848707 -0.09008314 0.22675279
v -0.01208015 -0.08962334 0.22543382
v -0.00924873 -0.08949793 0.22760070
v -0.01113634 -0.08928057 0.22675279
v -0.01814863 -0.08843621 0.14558885
v -0.01819831 -0.08843621 0.14320999
v -0.02205631 -0.08537646 0.02165251
v -0.02098005 -0.08657194 0.02165251
v -0.01722139 -0.08762530 0.20758058
v -0.01586364 -0.08867865 0.21233831
v -0.01715516 -0.08756677 0.20995944
v -0.01578085 -0.08859506 0.21474072
v -0.02092209 -0.08646326 0.01927365
v -0.02086414 -0.08594494 0.01675346
v -0.02180794 -0.08507550 0.01743650
v -0.02159269 -0.08479126 0.01585845
v -0.01999484 -0.08611214 0.01465724
v -0.01895170 -0.08694814 0.01395065
v -0.01681572 -0.08719894 0.01098296
v -0.01522616 -0.08767546 0.01025281
v -0.01429063 -0.08713206 0.00867475
v -0.01333855 -0.08609542 0.00730868
v -0.01239475 -0.08505878 0.00603681
v -0.01091281 -0.08659702 0.00669629
v -0.00852847 -0.08693978 0.00643721
v 0.01531498 -0.09123681 0.00693183
v 0.01769105 -0.09139566 0.00669629
v 0.02007539 -0.09149598 0.00657853
v 0.02245146 -0.09155449 0.00650787
v 0.02483580 -0.09154613 0.00648432
v 0.02722015 -0.09144582 0.00653142
v 0.02960449 -0.09120338 0.00664919
v 0.03672441 -0.08827738 0.00799171
v 0.03436490 -0.08845294 0.00667274
v 0.03108643 -0.08976545 0.00608391
v 0.03192260 -0.08845294 0.00580128
v 0.03356184 -0.08766709 0.00601326
v 0.05398607 -0.04315014 0.12175313
v 0.05467323 -0.03972254 0.11939782
v 0.05495471 -0.03838494 0.11939782
v 0.05770333 -0.02408099 0.15037013
v 0.05814212 -0.02169839 0.15274899
v 0.05963233 -0.01307924 0.17182699
v 0.05918527 -0.01454224 0.11939782
v 0.05941708 -0.01340528 0.13218715
v 0.05946675 -0.01307924 0.13338835
v 0.04899385 -0.05982832 0.22425616
v 0.04480469 -0.08367102 0.22425616
v 0.05956610 -0.01307924 0.17420585
v 0.05950814 -0.01307924 0.17519508
v 0.05943364 -0.01347216 0.17559549
v 0.04938296 -0.05744573 0.22425616
v 0.04420860 -0.08605362 0.22425616
v 0.04338898 -0.08367102 0.04789065
v 0.04402646 -0.08128842 0.05026951
v 0.04298331 -0.08771726 0.22606976
v 0.04215542 -0.08619574 0.22913166
v 0.04093013 -0.08828574 0.22894323
v 0.04044167 -0.08739122 0.23033286
v 0.03982902 -0.08897962 0.22967338
v 0.04262732 -0.08709026 0.22767136
v 0.03688999 -0.08851982 0.23212290
v 0.03907564 -0.08828574 0.23085103
v 0.03777584 -0.08706518 0.23252330
v 0.04178286 -0.08367102 0.01451592
v 0.04122817 -0.08367102 0.01211351
v 0.04393539 -0.08128842 0.04789065
v 0.04198984 -0.08367102 0.01689478
v 0.05268627 -0.04076754 0.06456623
v 0.05280217 -0.04076754 0.06694510
v 0.03659194 -0.08594494 0.00695538
v 0.03723770 -0.08367102 0.00662564
v 0.03828086 -0.08605362 0.00822725
v 0.03987042 -0.08367102 0.00924003
v 0.04059069 -0.08367102 0.01044123
v 0.03618628 -0.08778413 0.23290015
v 0.03435662 -0.08851982 0.23320634
v 0.03354528 -0.08980726 0.23273528
v 0.03198883 -0.09121173 0.23202868
v 0.02960449 -0.09130369 0.23202868
v 0.01769105 -0.08970694 0.23268817
v 0.01769105 -0.08843621 0.23372451
v 0.01531498 -0.08691470 0.23478439
v 0.01544744 -0.08861178 0.23339477
v 0.00577760 -0.08760858 0.23287660
v -0.00137543 -0.08696485 0.23240554
v 0.00577760 -0.08879570 0.23186381
v -0.00375978 -0.08815198 0.23101590
v -0.00614412 -0.08781758 0.23070971
v -0.00614412 -0.08901306 0.22948495
v -0.01328060 -0.08908829 0.22449170
v -0.01499435 -0.08776742 0.22425616
v -0.01530895 -0.08809346 0.22187731
v -0.01553248 -0.08829409 0.21949844
v -0.01684884 -0.08720729 0.21808525
v -0.01693991 -0.08732434 0.21650720
v -0.01259344 -0.08760022 0.22821309
v -0.01334683 -0.08806002 0.22663503
v -0.01469630 -0.08745810 0.22583422
v -0.01091281 -0.08800986 0.22866060
v -0.01922490 -0.08719894 0.14320999
v -0.02204803 -0.08535138 0.02403137
v -0.02313258 -0.08367102 0.02165251
v -0.02197352 -0.08527614 0.01927365
v -0.01844668 -0.08612886 0.20520172
v -0.01700614 -0.08739957 0.21474072
v -0.01854603 -0.08582790 0.20743926
v -0.02295044 -0.08367102 0.01927365
v -0.02234607 -0.08386330 0.01675346
v -0.02203975 -0.08316942 0.01451592
v -0.02132776 -0.08436490 0.01451592
v -0.01967197 -0.08535974 0.01260812
v -0.01827282 -0.08627934 0.01180732
v -0.01918351 -0.08477454 0.01103007
v -0.01742009 -0.08542662 0.00973465
v -0.01687367 -0.08485814 0.00853344
v -0.01588020 -0.08667226 0.00956977
v -0.01568150 -0.08536810 0.00813303
v -0.01323092 -0.08352890 0.00584839
v -0.01091281 -0.08367102 0.00514180
v -0.00852847 -0.08367102 0.00457652
v -0.01091281 -0.08540990 0.00582483
v -0.01398431 -0.08423114 0.00639010
v -0.00852847 -0.08575266 0.00554219
v 0.01129140 -0.08972366 0.00608391
v 0.01293064 -0.08985741 0.00598971
v 0.01531498 -0.09004134 0.00584839
v 0.01769105 -0.09020017 0.00577773
v 0.02007539 -0.09030886 0.00573062
v 0.02245146 -0.09036737 0.00573062
v 0.02483580 -0.09035066 0.00575417
v 0.02722015 -0.09025033 0.00582483
v 0.02960449 -0.09000789 0.00596615
v 0.03515140 -0.08666390 0.00631945
v 0.02960449 -0.08843621 0.00528311
v 0.02960449 -0.08605362 0.00455297
v 0.03198883 -0.08605362 0.00511824
v 0.03436490 -0.08594494 0.00584839
v 0.05465667 -0.03963058 0.11798464
v 0.05105531 -0.05030629 0.07172637
v 0.05485536 -0.03852706 0.11711317
v 0.05533554 -0.03600234 0.11701896
v 0.05878787 -0.01692484 0.11939782
v 0.05810900 -0.01454224 0.08602309
v 0.05929289 -0.01307924 0.11765489
v 0.05934257 -0.01307924 0.11939782
v 0.04909320 -0.05744573 0.22665858
v 0.04429967 -0.08367102 0.22665858
v 0.05709069 -0.01307924 0.21189079
v 0.05705757 -0.01352232 0.21160815
v 0.05049234 -0.05030629 0.22425616
v 0.05008667 -0.05285609 0.22435038
v 0.04999560 -0.05217057 0.22611686
v 0.04342210 -0.08619574 0.22677635
v 0.05224749 -0.04430382 0.07085491
v 0.04303299 -0.08550186 0.22842506
v 0.04256108 -0.08434818 0.23000312
v 0.04088873 -0.08605362 0.23075682
v 0.03920810 -0.08618738 0.23202868
v 0.03845471 -0.08547678 0.23290015
v 0.03688999 -0.08618738 0.23334766
v 0.04161728 -0.08128842 0.01211351
v 0.05003700 -0.03101979 0.01456303
v 0.04993765 -0.03284227 0.01541094
v 0.04980519 -0.03443066 0.01609398
v 0.05044267 -0.03122879 0.01689478
v 0.04993765 -0.03520814 0.01767204
v 0.04980519 -0.03679654 0.01880258
v 0.04987970 -0.03723126 0.02038064
v 0.04913459 -0.05030629 0.03594923
v 0.04933329 -0.05030629 0.03835165
v 0.04891934 -0.05268889 0.03835165
v 0.05312506 -0.03838494 0.06456623
v 0.05324924 -0.03838494 0.06694510
v 0.03568126 -0.08507550 0.00610747
v 0.03767649 -0.08180674 0.00631945
v 0.03867825 -0.08367102 0.00780329
v 0.04016018 -0.08128842 0.00883963
v 0.04030092 -0.07986722 0.00860410
v 0.04078938 -0.08128842 0.01001729
v 0.04924222 -0.02646359 0.00973465
v 0.03437318 -0.08600346 0.23447821
v 0.03198883 -0.08676422 0.23476084
v 0.03198883 -0.08843621 0.23384227
v 0.03198883 -0.09001626 0.23287660
v 0.02960449 -0.09011658 0.23294725
v 0.01769105 -0.08701501 0.23485506
v -0.00137543 -0.08576938 0.23318279
v 0.01531498 -0.08571922 0.23546744
v -0.00375978 -0.08665554 0.23221711
v -0.00794894 -0.08747482 0.23042707
v -0.00625175 -0.08597838 0.23200513
v -0.00953850 -0.08715713 0.23016799
v -0.01630243 -0.08599510 0.22442104
v -0.01650112 -0.08669734 0.22187731
v -0.01672465 -0.08704010 0.21949844
v -0.01745320 -0.08584462 0.21949844
v -0.01750287 -0.08627098 0.21721379
v -0.01785059 -0.08605362 0.21474072
v -0.01926630 -0.08488322 0.20654424
v -0.01091281 -0.08678094 0.22986180
v -0.01238647 -0.08511730 0.23040352
v -0.01328060 -0.08603690 0.22903744
v -0.01418301 -0.08694814 0.22743583
v -0.01683228 -0.08479126 0.22533961
v -0.01529239 -0.08611214 0.22663503
v -0.01933253 -0.08498354 0.20282286
v -0.02142711 -0.08444014 0.10031982
v -0.02310774 -0.08367102 0.02403137
v -0.02389424 -0.08206590 0.02403137
v -0.02390252 -0.08209935 0.02165251
v -0.01929941 -0.08493338 0.20520172
v -0.02381146 -0.08184018 0.01927365
v -0.02362104 -0.08117974 0.01691833
v -0.02287593 -0.08128842 0.01451592
v -0.02175827 -0.08267618 0.01310274
v -0.02049159 -0.08372118 0.01206640
v -0.01972164 -0.08317778 0.01037058
v -0.01859570 -0.08385494 0.00964043
v -0.01901792 -0.08199902 0.00876897
v -0.01728762 -0.08367102 0.00822725
v -0.01550764 -0.08352890 0.00700249
v -0.01459695 -0.08264274 0.00610747
v -0.01329716 -0.08128842 0.00540087
v -0.01091281 -0.08128842 0.00467073
v -0.00852847 -0.08128842 0.00412901
v -0.00522516 -0.08256750 0.00375216
v -0.00606961 -0.08348710 0.00419967
v 0.01293064 -0.08843621 0.00497692
v 0.01054629 -0.08638802 0.00405835
v 0.01531498 -0.08843621 0.00476494
v 0.01769105 -0.08843621 0.00464718
v 0.02007539 -0.08843621 0.00460007
v 0.02245146 -0.08843621 0.00462362
v 0.02483580 -0.08843621 0.00474139
v 0.02722015 -0.08843621 0.00492981
v 0.02722015 -0.08605362 0.00417612
v 0.03198883 -0.08367102 0.00462362
v 0.02943063 -0.08349546 0.00405835
v 0.03323068 -0.07775215 0.00377571
v 0.03416621 -0.07868847 0.00417612
v 0.03437318 -0.08128842 0.00478849
v 0.03437318 -0.08367102 0.00530667
v 0.05801793 -0.01454224 0.08364423
v 0.05821662 -0.01307924 0.08456280
v 0.04945747 -0.05507148 0.22665858
v 0.05014463 -0.05043169 0.22679990
v 0.04984658 -0.05130949 0.22769492
v 0.04849711 -0.05744573 0.22903744
v 0.04761126 -0.05914280 0.23045063
v 0.04324824 -0.08359579 0.22913166
v 0.05700789 -0.01307924 0.21313911
v 0.05699962 -0.01307924 0.21325687
v 0.05622967 -0.01307924 0.22187731
v 0.05698306 -0.01307924 0.21346885
v 0.04279290 -0.08275978 0.23030931
v 0.04148482 -0.08351218 0.23136919
v 0.04004428 -0.08427294 0.23240554
v 0.03920810 -0.08355398 0.23313568
v 0.03664990 -0.08362086 0.23443110
v 0.03515968 -0.08438162 0.23485506
v 0.04987142 -0.02526811 0.01093585
v 0.04978863 -0.02646359 0.01121849
v 0.04960649 -0.02884619 0.01178377
v 0.04987970 -0.03009183 0.01329116
v 0.05034332 -0.02884619 0.01451592
v 0.05077383 -0.02884619 0.01689478
v 0.05068276 -0.03122879 0.01927365
v 0.05033504 -0.03361138 0.01927365
v 0.05399435 -0.02408099 0.04310937
v 0.05482225 -0.02419803 0.05262482
v 0.05468150 -0.02548547 0.05340207
v 0.05473946 -0.02581987 0.05502723
v 0.05503750 -0.02408099 0.05502723
v 0.05516996 -0.02408099 0.05740609
v 0.03604553 -0.08367102 0.00591904
v 0.03683204 -0.08112122 0.00573062
v 0.03675752 -0.07889746 0.00518890
v 0.03798281 -0.08021835 0.00613103
v 0.03878587 -0.08112122 0.00721446
v 0.03952270 -0.07900614 0.00752065
v 0.03960549 -0.07651487 0.00700249
v 0.03984558 -0.07413227 0.00669629
v 0.04055757 -0.07651487 0.00818014
v 0.04813283 -0.02646359 0.00759132
v 0.04791758 -0.02884619 0.00787395
v 0.04963961 -0.02169839 0.00916937
v 0.04957338 -0.02431507 0.00980530
v 0.03357012 -0.08516746 0.23511414
v 0.03198883 -0.08556874 0.23530257
v 0.02960449 -0.08585298 0.23549099
v 0.02960449 -0.08704846 0.23490216
v 0.02960449 -0.08843621 0.23405425
v 0.01769105 -0.08581954 0.23553809
v 0.00339326 -0.08418098 0.23466663
v -0.00117674 -0.08344530 0.23443110
v -0.00375978 -0.08367102 0.23391293
v -0.00375978 -0.08546842 0.23297081
v 0.01769105 -0.08367102 0.23657443
v 0.01531498 -0.08367102 0.23643311
v 0.00100891 -0.08267618 0.23509058
v -0.00553148 -0.08513402 0.23278238
v -0.00866093 -0.08623754 0.23106301
v -0.00712104 -0.08474110 0.23254685
v -0.01091281 -0.08558546 0.23070971
v -0.01705581 -0.08516746 0.22373800
v -0.01725451 -0.08550186 0.22187731
v -0.01845496 -0.08367102 0.21949844
v -0.01886063 -0.08348710 0.21702537
v -0.01891030 -0.08392182 0.21474072
v -0.01919178 -0.08471602 0.20812230
v -0.01962229 -0.08382150 0.20743926
v -0.01983755 -0.08367102 0.20520172
v -0.01078863 -0.08352890 0.23188737
v -0.01150890 -0.08168971 0.23235843
v -0.01323092 -0.08349546 0.23068616
v -0.01454728 -0.08258422 0.23028576
v -0.01397603 -0.08417262 0.22983825
v -0.01486188 -0.08535974 0.22826019
v -0.01656735 -0.08386330 0.22684700
v -0.01718827 -0.08319450 0.22616396
v -0.01746148 -0.08386330 0.22442104
v -0.01992034 -0.08367102 0.20282286
v -0.02198180 -0.08324466 0.10031982
v -0.02425024 -0.08087043 0.02403137
v -0.02426679 -0.08091222 0.02165251
v -0.02359620 -0.08137202 0.05502723
v -0.02405154 -0.08017654 0.05502723
v -0.02406810 -0.08022670 0.05264837
v -0.02419229 -0.08065307 0.01927365
v -0.02409294 -0.08031866 0.01774269
v -0.02391908 -0.07954119 0.01614108
v -0.02361276 -0.07881386 0.01465724
v -0.02256961 -0.07889746 0.01211351
v -0.02197352 -0.08106271 0.01223127
v -0.02131120 -0.08171479 0.01150113
v -0.02165064 -0.08012638 0.01091230
v -0.02035084 -0.08106271 0.00985241
v -0.01939876 -0.08041063 0.00841567
v -0.01815691 -0.08123826 0.00782684
v -0.01608717 -0.08128842 0.00655498
v -0.01651768 -0.07935726 0.00629590
v -0.01689023 -0.07776887 0.00615458
v -0.01329716 -0.07889746 0.00509468
v -0.01329716 -0.07651487 0.00481205
v -0.01091281 -0.07889746 0.00443520
v -0.01091281 -0.07651487 0.00422322
v -0.01174899 -0.06988539 0.00382282
v -0.00727006 -0.07996755 0.00377571
v -0.00688923 -0.08128842 0.00384638
v -0.00569706 -0.08128842 0.00368150
v -0.00375978 -0.08128842 0.00344597
v -0.00375978 -0.08275143 0.00365795
v 0.01293064 -0.08662210 0.00396414
v 0.01531498 -0.08682274 0.00386993
v 0.01769105 -0.08687290 0.00384638
v 0.02007539 -0.08681438 0.00384638
v 0.02245146 -0.08663882 0.00386993
v 0.02497654 -0.08599510 0.00391703
v 0.02586239 -0.08477454 0.00379926
v 0.02722015 -0.08428130 0.00386993
v 0.02851994 -0.08258422 0.00375216
v 0.03486164 -0.07651487 0.00391703
v 0.03366947 -0.07651487 0.00365795
v 0.05536866 -0.02169839 0.05502723
v 0.05808416 -0.01307924 0.08218394
v 0.05817523 -0.01307924 0.08364423
v 0.05582400 -0.01307924 0.22425616
v 0.04996249 -0.04972109 0.22811887
v 0.04887794 -0.05507148 0.22903744
v 0.04779340 -0.05744573 0.23075682
v 0.04704001 -0.05744573 0.23195803
v 0.04584784 -0.05744573 0.23337121
v 0.04041683 -0.08268454 0.23266461
v 0.03727082 -0.08128842 0.23466663
v 0.03577233 -0.08279322 0.23509058
v 0.03437318 -0.08362086 0.23534967
v 0.04997077 -0.02367971 0.01065322
v 0.05161828 -0.01307924 0.01211351
v 0.05025225 -0.02431507 0.01187797
v 0.05012807 -0.02646359 0.01239614
v 0.04997077 -0.02884619 0.01298497
v 0.05064964 -0.02646359 0.01451592
v 0.05275251 -0.01307924 0.01682413
v 0.05307538 -0.01307924 0.01927365
v 0.05407714 -0.02169839 0.04073050
v 0.05376254 -0.02408099 0.04073050
v 0.05497127 -0.01307924 0.03839875
v 0.05430067 -0.02169839 0.04310937
v 0.05518652 -0.02169839 0.05264837
v 0.03675752 -0.07651487 0.00476494
v 0.03815667 -0.07889746 0.00598971
v 0.04005256 -0.07174967 0.00646077
v 0.04728010 -0.02646359 0.00639010
v 0.04073971 -0.07413227 0.00789751
v 0.04815767 -0.02391379 0.00716736
v 0.04998733 -0.01454224 0.00832146
v 0.04982175 -0.01768560 0.00865120
v 0.04974724 -0.01930744 0.00883963
v 0.05074899 -0.01307924 0.00973465
v 0.05059997 -0.01454224 0.00973465
v 0.05007839 -0.02169839 0.01034703
v 0.03094568 -0.08024343 0.23742234
v 0.03198883 -0.08367102 0.23603271
v 0.02960449 -0.08367102 0.23645667
v 0.02722015 -0.08367102 0.23657443
v 0.02722015 -0.08586970 0.23553809
v -0.00025777 -0.08250062 0.23499638
v -0.00184733 -0.08219130 0.23490216
v -0.00375978 -0.08168971 0.23473729
v -0.00625175 -0.08383822 0.23322989
v 0.02722015 -0.08211606 0.23723392
v 0.02007539 -0.08208262 0.23723392
v 0.01769105 -0.08201574 0.23723392
v 0.01531498 -0.08178166 0.23716326
v 0.01178814 -0.08007622 0.23737523
v 0.00339326 -0.08128842 0.23589139
v -0.00852847 -0.08311090 0.23292370
v -0.00852847 -0.08429802 0.23231132
v -0.01806584 -0.08367102 0.22187731
v -0.01919178 -0.08190707 0.21777906
v -0.01928286 -0.08256750 0.21617746
v -0.02049986 -0.08128842 0.20520172
v -0.02062405 -0.08128842 0.20282286
v -0.00991934 -0.08264274 0.23268817
v -0.01078863 -0.08105434 0.23285304
v -0.01210498 -0.08010130 0.23261751
v -0.01474597 -0.08128842 0.23045063
v -0.01610373 -0.08140546 0.22889612
v -0.01682400 -0.08227490 0.22776557
v -0.01519304 -0.08349546 0.22903744
v -0.01827282 -0.08128842 0.22425616
v -0.01741180 -0.08140546 0.22684700
v -0.02069028 -0.08128842 0.20042044
v -0.02466418 -0.07889746 0.02403137
v -0.02468902 -0.07889746 0.02165251
v -0.02422540 -0.07889746 0.05502723
v -0.02454828 -0.07889746 0.01927365
v -0.02420884 -0.07881386 0.01691833
v -0.02406810 -0.07795279 0.01555226
v -0.02290904 -0.07651487 0.01211351
v -0.02200664 -0.07651487 0.01037058
v -0.02180794 -0.07889746 0.01067677
v -0.02086414 -0.07889746 0.00947556
v -0.01967197 -0.07889746 0.00820369
v -0.01783403 -0.07869683 0.00690827
v -0.01703925 -0.07651487 0.00608391
v -0.01568150 -0.07651487 0.00558930
v -0.01823143 -0.07651487 0.00674340
v -0.01329716 -0.07413227 0.00460007
v -0.01212982 -0.06829699 0.00377571
v -0.01568150 -0.07413227 0.00535377
v -0.01091281 -0.05982832 0.00299846
v -0.00852847 -0.05982832 0.00266872
v -0.00375978 -0.07889746 0.00330465
v -0.00137543 -0.08128842 0.00325755
v -0.00852847 -0.05744573 0.00252740
v -0.00137543 -0.08296879 0.00356374
v 0.00100891 -0.08313599 0.00349307
v 0.00339326 -0.08331990 0.00344597
v 0.01054629 -0.08367102 0.00328110
v 0.01293064 -0.08367102 0.00325755
v 0.01531498 -0.08367102 0.00328110
v 0.02245146 -0.08544334 0.00368150
v 0.02427283 -0.08515910 0.00372861
v 0.02497654 -0.08385494 0.00358729
v 0.02722015 -0.08309418 0.00368150
v 0.02722015 -0.08128842 0.00346952
v 0.03198883 -0.07413227 0.00313978
v 0.03198883 -0.07651487 0.00342242
v 0.03449736 -0.07395671 0.00354019
v 0.03536666 -0.07464223 0.00382282
v 0.05516996 -0.01307924 0.04073050
v 0.05523619 -0.01307924 0.04164908
v 0.05560875 -0.01307924 0.22493921
v 0.04956510 -0.05043169 0.22896678
v 0.05505406 -0.01307924 0.22649371
v 0.04798381 -0.05507148 0.23108656
v 0.04727182 -0.05507148 0.23228777
v 0.04607965 -0.05507148 0.23358319
v 0.04482952 -0.05507148 0.23478439
v 0.04457288 -0.05744573 0.23457242
v 0.04304954 -0.05982832 0.23523190
v 0.04152621 -0.05982832 0.23617403
v 0.04016846 -0.05804764 0.23730458
v 0.03536666 -0.07234323 0.23728102
v 0.03449736 -0.07162427 0.23784629
v 0.03381021 -0.07413227 0.23768142
v 0.03306510 -0.07747626 0.23732813
v 0.03141759 -0.07889746 0.23761077
v 0.05213158 -0.01307924 0.01395065
v 0.05226405 -0.01307924 0.01446881
v 0.05241307 -0.01307924 0.01505764
v 0.05235511 -0.01399048 0.01529317
v 0.05504578 -0.01307924 0.03927021
v 0.03886866 -0.07174967 0.00551864
v 0.03841332 -0.07651487 0.00582483
v 0.03801593 -0.06127460 0.00375216
v 0.03982902 -0.05507148 0.00410546
v 0.04023469 -0.06936707 0.00627234
v 0.04589751 -0.02884619 0.00540087
v 0.04741256 -0.02459095 0.00624879
v 0.04953198 -0.01307924 0.00747355
v 0.05006184 -0.01307924 0.00820369
v 0.02960449 -0.07651487 0.23860000
v 0.02960449 -0.07889746 0.23805828
v 0.02960449 -0.08061126 0.23756366
v 0.02960449 -0.08180674 0.23713971
v 0.02722015 -0.08092058 0.23768142
v 0.00100891 -0.08128842 0.23558520
v -0.00117674 -0.08135530 0.23527901
v -0.00592059 -0.08106271 0.23445465
v -0.00375978 -0.08049422 0.23511414
v -0.00498506 -0.08011803 0.23499638
v 0.02483580 -0.08089551 0.23768142
v 0.02007539 -0.08089551 0.23765787
v 0.01769105 -0.08082862 0.23761077
v 0.01531498 -0.08059454 0.23751655
v 0.01337770 -0.08031866 0.23744590
v 0.01054629 -0.07864667 0.23763432
v 0.01054629 -0.07983379 0.23730458
v -0.00852847 -0.08128842 0.23363029
v -0.01867849 -0.08128842 0.22187731
v -0.01935736 -0.08117974 0.21702537
v -0.01928286 -0.08031866 0.21848566
v -0.02030944 -0.08128842 0.20758058
v -0.02061577 -0.07889746 0.20520172
v -0.02076479 -0.07889746 0.20282286
v -0.02088898 -0.07889746 0.20042044
v -0.02095521 -0.07889746 0.19804158
v -0.00852847 -0.07889746 0.23424267
v -0.01091281 -0.07889746 0.23330055
v -0.01222917 -0.07889746 0.23268817
v -0.01342134 -0.07889746 0.23186381
v -0.01499435 -0.07889746 0.23068616
v -0.01618651 -0.07889746 0.22934363
v -0.01698957 -0.08068650 0.22802466
v -0.01777608 -0.07889746 0.22665858
v -0.01848807 -0.07889746 0.22425616
v -0.02492912 -0.07651487 0.02165251
v -0.02420884 -0.07651487 0.05980851
v -0.02425852 -0.07651487 0.05740609
v -0.02488772 -0.07651487 0.02403137
v -0.02478009 -0.07651487 0.01927365
v -0.02442410 -0.07651487 0.01689478
v -0.02410950 -0.07651487 0.01541094
v -0.02372867 -0.07651487 0.01423329
v -0.02286765 -0.07413227 0.01211351
v -0.02199836 -0.07413227 0.01034703
v -0.02118702 -0.07413227 0.00914581
v -0.02112907 -0.07651487 0.00916937
v -0.01993689 -0.07651487 0.00794461
v -0.01727106 -0.07413227 0.00596615
v -0.01846324 -0.07413227 0.00664919
v -0.01329716 -0.07174967 0.00441165
v -0.01246098 -0.06459352 0.00363439
v -0.01568150 -0.07174967 0.00521245
v -0.01265139 -0.06221092 0.00354019
v -0.01091281 -0.05744573 0.00288070
v -0.00852847 -0.05507148 0.00240964
v -0.00137543 -0.07889746 0.00311623
v 0.00100891 -0.08128842 0.00313978
v -0.00614412 -0.04553273 0.00175015
v 0.00339326 -0.08128842 0.00304557
v 0.00577760 -0.08128842 0.00297491
v 0.00816195 -0.08128842 0.00292780
v 0.01054629 -0.08128842 0.00290425
v 0.02245146 -0.08367102 0.00344597
v 0.01293064 -0.08128842 0.00292780
v 0.01531498 -0.08128842 0.00297491
v 0.02483580 -0.08128842 0.00328110
v 0.03437318 -0.07174967 0.00330465
v 0.03198883 -0.07174967 0.00292780
v 0.03437318 -0.06936707 0.00311623
v 0.03570609 -0.07174967 0.00370506
v 0.03863685 -0.05507148 0.00342242
v 0.04962305 -0.04791533 0.22955561
v 0.05454904 -0.01307924 0.22767136
v 0.04814939 -0.05268889 0.23132209
v 0.04741256 -0.05268889 0.23249974
v 0.04622867 -0.05268889 0.23370096
v 0.04747879 -0.05135965 0.23259396
v 0.04497027 -0.05268889 0.23490216
v 0.04363735 -0.05507148 0.23558520
v 0.04338070 -0.05744573 0.23544388
v 0.04131924 -0.05732868 0.23673930
v 0.04038371 -0.05645924 0.23739879
v 0.03914187 -0.05507148 0.23822315
v 0.03928261 -0.05732868 0.23784629
v 0.03675752 -0.05744573 0.23907106
v 0.03675752 -0.05982832 0.23869421
v 0.03867825 -0.05982832 0.23775209
v 0.03437318 -0.06936707 0.23827025
v 0.03198883 -0.07174967 0.23888264
v 0.03198883 -0.07413227 0.23841157
v 0.03215441 -0.07661519 0.23784629
v 0.04032576 -0.06812980 0.00617813
v 0.04450664 -0.02884619 0.00419967
v 0.04004428 -0.05268889 0.00396414
v 0.04608793 -0.02646359 0.00525956
v 0.04470534 -0.02646359 0.00405835
v 0.04749535 -0.02300255 0.00615458
v 0.04756986 -0.02169839 0.00608391
v 0.04916771 -0.01307924 0.00702604
v 0.02722015 -0.07651487 0.23883552
v 0.02722015 -0.07889746 0.23831736
v 0.02960449 -0.07174967 0.23940080
v 0.00816195 -0.07933218 0.23716326
v -0.00137543 -0.07889746 0.23593850
v 0.00590179 -0.07872191 0.23702194
v -0.00375978 -0.07889746 0.23551454
v -0.00546525 -0.07889746 0.23513769
v -0.00665742 -0.07889746 0.23480795
v 0.02007539 -0.07889746 0.23822315
v 0.02483580 -0.07889746 0.23829381
v 0.01769105 -0.07889746 0.23808183
v 0.01531498 -0.07889746 0.23791696
v 0.01272366 -0.07913155 0.23768142
v 0.01054629 -0.07651487 0.23810538
v 0.00816195 -0.07813670 0.23749300
v -0.01884407 -0.07889746 0.22187731
v -0.01928286 -0.07954954 0.21848566
v -0.01970508 -0.07889746 0.21474072
v -0.02042535 -0.07889746 0.20758058
v -0.02051642 -0.07651487 0.20282286
v -0.02067372 -0.07651487 0.20042044
v -0.01981271 -0.07651487 0.21233831
v -0.02076479 -0.07651487 0.19804158
v -0.02403498 -0.07281139 0.06117459
v -0.02413433 -0.07413227 0.05980851
v -0.00718727 -0.07735923 0.23494927
v -0.00836289 -0.07653995 0.23461952
v -0.01091281 -0.07651487 0.23353609
v -0.01236163 -0.07651487 0.23278238
v -0.01355381 -0.07651487 0.23195803
v -0.01506885 -0.07651487 0.23075682
v -0.01626103 -0.07651487 0.22936719
v -0.01708065 -0.07889746 0.22816598
v -0.01707237 -0.07651487 0.22816598
v -0.01772641 -0.07651487 0.22665858
v -0.01838872 -0.07651487 0.22425616
v -0.02494567 -0.07413227 0.02165251
v -0.02477181 -0.07413227 0.01927365
v -0.02430819 -0.07393999 0.01665926
v -0.02409294 -0.07460043 0.01545804
v -0.02251993 -0.07174967 0.01211351
v -0.02183278 -0.07174967 0.01058255
v -0.02375350 -0.07393999 0.01461013
v -0.01737041 -0.05030629 0.00777974
v -0.02110423 -0.07174967 0.00940490
v -0.01975476 -0.06936707 0.00794461
v -0.01991205 -0.07174967 0.00785039
v -0.01999484 -0.07413227 0.00782684
v -0.01737869 -0.07174967 0.00587194
v -0.01857086 -0.07174967 0.00664919
v -0.01273419 -0.05982832 0.00346952
v -0.01091281 -0.05507148 0.00281004
v -0.00852847 -0.05030629 0.00222121
v 0.00100891 -0.07889746 0.00299846
v -0.00614412 -0.04315014 0.00165594
v 0.00100891 -0.03361138 0.00099645
v 0.00577760 -0.07889746 0.00281004
v 0.01054629 -0.07889746 0.00271583
v 0.01293064 -0.07889746 0.00271583
v 0.01531498 -0.07889746 0.00278648
v 0.02483580 -0.07889746 0.00309267
v 0.03198883 -0.06936707 0.00276293
v 0.03437318 -0.06698448 0.00297491
v 0.03675752 -0.04791533 0.00224477
v 0.03675752 -0.05030629 0.00240964
v 0.03914187 -0.04315014 0.00266872
v 0.03914187 -0.04791533 0.00304557
v 0.03930745 -0.05011401 0.00330465
v 0.04034232 -0.04919441 0.00377571
v 0.05448281 -0.01307924 0.22776557
v 0.04818251 -0.05045677 0.23165183
v 0.04753675 -0.04977125 0.23266461
v 0.05294292 -0.01307924 0.22974403
v 0.05242134 -0.01307924 0.23037997
v 0.05353073 -0.01307924 0.22899034
v 0.04502822 -0.05030629 0.23494927
v 0.04209746 -0.04791533 0.23697483
v 0.04377809 -0.05268889 0.23567941
v 0.05201567 -0.01307924 0.23075682
v 0.05013635 -0.01307924 0.23242909
v 0.04170007 -0.05507148 0.23678641
v 0.04050790 -0.05507148 0.23749300
v 0.03914187 -0.05268889 0.23845868
v 0.03711352 -0.05268889 0.23944791
v 0.03661678 -0.05523033 0.23940080
v 0.03532526 -0.05744573 0.23968344
v 0.03437318 -0.06698448 0.23864710
v 0.03339626 -0.06162572 0.23984831
v 0.03198883 -0.06936707 0.23923593
v 0.03059797 -0.06802112 0.23975410
v 0.04310750 -0.03122879 0.00356374
v 0.04288397 -0.03361138 0.00368150
v 0.04649360 -0.02391379 0.00535377
v 0.04485436 -0.02408099 0.00396414
v 0.04352145 -0.02646359 0.00332820
v 0.04767749 -0.01930744 0.00598971
v 0.04497027 -0.02169839 0.00386993
v 0.04797553 -0.01307924 0.00582483
v 0.02483580 -0.07651487 0.23883552
v 0.02722015 -0.07413227 0.23921238
v 0.02972867 -0.06941723 0.23968344
v 0.02722015 -0.07174967 0.23951857
v 0.00677936 -0.07781066 0.23739879
v -0.00137543 -0.07651487 0.23638600
v -0.00375978 -0.07651487 0.23593850
v -0.00629314 -0.07653995 0.23530257
v 0.02245146 -0.07651487 0.23876487
v 0.02007539 -0.07651487 0.23864710
v 0.01293064 -0.07651487 0.23824670
v 0.00816195 -0.07413227 0.23819959
v 0.00816195 -0.07651487 0.23782274
v 0.01293064 -0.07413227 0.23862355
v 0.01054629 -0.07413227 0.23845868
v -0.01871161 -0.07651487 0.22187731
v -0.01924146 -0.07796115 0.21822657
v -0.01939876 -0.07881386 0.21730801
v -0.01956434 -0.07651487 0.21474072
v -0.01920007 -0.06844747 0.20089150
v -0.01925802 -0.06815488 0.19928989
v -0.01946499 -0.07439143 0.21233831
v -0.01591331 -0.01930744 0.07648410
v -0.01601266 -0.01930744 0.07410523
v -0.01934909 -0.07485959 0.21474072
v -0.02391908 -0.07151559 0.05980851
v -0.02473042 -0.07174967 0.02165251
v -0.00746048 -0.07576246 0.23504348
v -0.00878511 -0.07413227 0.23459597
v -0.01091281 -0.07413227 0.23355964
v -0.01232852 -0.07413227 0.23275883
v -0.00614412 -0.05744573 0.23598561
v -0.01352068 -0.07413227 0.23186381
v -0.01496123 -0.07413227 0.23068616
v -0.01626930 -0.07401523 0.22891968
v -0.01698130 -0.07473419 0.22804821
v -0.01732074 -0.07401523 0.22682345
v -0.01802445 -0.07413227 0.22425616
v -0.02453173 -0.07174967 0.01927365
v -0.02401843 -0.07301203 0.01571713
v -0.02419229 -0.07174967 0.01736584
v -0.02339750 -0.07174967 0.01451592
v -0.01795822 -0.04791533 0.00973465
v -0.01831422 -0.05030629 0.00973465
v -0.01718827 -0.04791533 0.00801527
v -0.01636038 -0.04791533 0.00683761
v -0.01650112 -0.05030629 0.00657853
v -0.01717172 -0.06221092 0.00591904
v -0.01856258 -0.06936707 0.00674340
v -0.01737041 -0.06936707 0.00584839
v -0.01276730 -0.05507148 0.00339887
v -0.01274246 -0.05744573 0.00342242
v -0.01727106 -0.06459352 0.00587194
v -0.01732901 -0.06698448 0.00584839
v -0.01091281 -0.05030629 0.00271583
v -0.00852847 -0.04315014 0.00200923
v -0.00614412 -0.04076754 0.00163238
v -0.00137543 -0.03361138 0.00116132
v 0.00100891 -0.03122879 0.00094935
v 0.00339326 -0.03122879 0.00085512
v 0.00339326 -0.03361138 0.00094935
v 0.01054629 -0.07651487 0.00262161
v 0.03198883 -0.06698448 0.00262161
v 0.01293064 -0.07651487 0.00262161
v 0.02960449 -0.04791533 0.00160883
v 0.03198883 -0.05030629 0.00177370
v 0.03437318 -0.06459352 0.00283359
v 0.03675752 -0.04553273 0.00210345
v 0.04152621 -0.02646359 0.00252740
v 0.03914187 -0.03838494 0.00238608
v 0.04386916 -0.04791533 0.23579718
v 0.04988798 -0.01307924 0.23261751
v 0.04090529 -0.04791533 0.23772853
v 0.04199811 -0.05030629 0.23692773
v 0.04186565 -0.05268889 0.23685707
v 0.04080594 -0.05030629 0.23768142
v 0.04067348 -0.05268889 0.23758722
v 0.03914187 -0.05030629 0.23864710
v 0.03731222 -0.05030629 0.23954212
v 0.03573093 -0.05454481 0.23982476
v 0.03552396 -0.05612485 0.23975410
v 0.03372742 -0.05982832 0.23996608
v 0.03491959 -0.05982832 0.23949501
v 0.03217097 -0.06233632 0.24008383
v 0.03272566 -0.06459352 0.23965989
v 0.03193088 -0.06712659 0.23954212
v 0.03198883 -0.05982832 0.24041359
v 0.02960449 -0.05982832 0.24079043
v 0.02960449 -0.06221092 0.24053136
v 0.04366219 -0.02408099 0.00325755
v 0.04377809 -0.02169839 0.00318689
v 0.04510273 -0.01812032 0.00377571
v 0.04629490 -0.01307924 0.00495337
v 0.02483580 -0.07413227 0.23916527
v 0.02722015 -0.06221092 0.24062556
v 0.02483580 -0.07174967 0.23944791
v 0.00518979 -0.07713351 0.23728102
v 0.00590179 -0.07640619 0.23751655
v -0.00137543 -0.07413227 0.23669219
v 0.00437018 -0.07554510 0.23742234
v 0.00124072 -0.07390655 0.23713971
v -0.00375978 -0.07413227 0.23622113
v -0.00614412 -0.07413227 0.23556165
v 0.01293064 -0.07174967 0.23892974
v 0.01054629 -0.07174967 0.23878842
v 0.00816195 -0.07174967 0.23850578
v -0.01833077 -0.07413227 0.22187731
v -0.01926630 -0.07527759 0.21598903
v -0.01344618 -0.04076754 0.20995944
v -0.00972064 -0.01574608 0.19196488
v -0.01538345 -0.01692484 0.07648410
v -0.01245270 -0.01307924 0.12424976
v -0.01546624 -0.01692484 0.07410523
v -0.01446449 -0.01307924 0.05311943
v -0.01429891 -0.01307924 0.04310937
v -0.01689851 -0.02514271 0.05980851
v -0.01696474 -0.06287136 0.21646009
v -0.02425852 -0.06916643 0.02160540
v -0.02419229 -0.06985195 0.01927365
v -0.00279114 -0.05982832 0.23746945
v -0.00759294 -0.07413227 0.23509058
v -0.00398331 -0.05982832 0.23699839
v -0.00408266 -0.05744573 0.23702194
v -0.00614412 -0.05982832 0.23598561
v -0.00760950 -0.05982832 0.23518480
v -0.00754327 -0.05744573 0.23513769
v 0.00154705 -0.01454224 0.23534967
v 0.00035487 -0.01454224 0.23466663
v -0.00741908 -0.05599945 0.23504348
v -0.00873544 -0.05744573 0.23414846
v -0.01025877 -0.05982832 0.23311213
v -0.01006836 -0.05744573 0.23297081
v -0.01126053 -0.05744573 0.23162828
v -0.01226228 -0.05744573 0.23042707
v -0.00740253 -0.02254275 0.22795400
v -0.01683228 -0.07314579 0.22774202
v -0.01212982 -0.05613320 0.23026220
v -0.00733629 -0.03003331 0.23023865
v -0.00724523 -0.02095436 0.22762426
v -0.00769229 -0.02173184 0.22675279
v -0.00751015 -0.01930744 0.22595199
v -0.00736941 -0.01798656 0.22555158
v -0.00678988 -0.01307924 0.22420906
v -0.00825526 -0.01930744 0.22187731
v -0.01602094 -0.05982832 0.21949844
v -0.02407638 -0.07034519 0.01788401
v -0.01830593 -0.04553273 0.01211351
v -0.01871161 -0.04791533 0.01211351
v -0.01290804 -0.01930744 0.00973465
v -0.01217121 -0.01776084 0.00839212
v -0.01686539 -0.04437906 0.00855699
v -0.01701441 -0.04596745 0.00829791
v -0.01232024 -0.01930744 0.00813303
v -0.00990277 -0.01307924 0.00591904
v -0.01464663 -0.04121898 0.00598971
v -0.01481220 -0.04315014 0.00580128
v -0.01500262 -0.04553273 0.00563641
v -0.01516820 -0.04791533 0.00551864
v -0.01376078 -0.04553273 0.00445875
v -0.01385185 -0.04791533 0.00431743
v -0.01256860 -0.04553273 0.00346952
v -0.01272591 -0.05030629 0.00337531
v -0.01275902 -0.05268889 0.00337531
v -0.01265967 -0.04791533 0.00342242
v -0.01091281 -0.04791533 0.00273938
v -0.00852847 -0.04076754 0.00203278
v -0.00614412 -0.03600234 0.00163238
v -0.00137543 -0.03122879 0.00118488
v -0.00433103 -0.03361138 0.00146752
v 0.00100891 -0.02884619 0.00097289
v 0.00339326 -0.02884619 0.00085512
v 0.02007539 -0.01307924 0.00040762
v 0.02245146 -0.01307924 0.00038407
v 0.02960449 -0.04553273 0.00151462
v 0.03437318 -0.05030629 0.00200923
v 0.03198883 -0.04791533 0.00167949
v 0.03437318 -0.04553273 0.00179726
v 0.03437318 -0.04791533 0.00189147
v 0.03914187 -0.03361138 0.00215055
v 0.03914187 -0.03600234 0.00226832
v 0.03675752 -0.04076754 0.00191502
v 0.04152621 -0.02408099 0.00240964
v 0.04962305 -0.01307924 0.23278238
v 0.03914187 -0.04791533 0.23874132
v 0.03737017 -0.04791533 0.23958922
v 0.03612004 -0.05030629 0.23994252
v 0.03592135 -0.05268889 0.23987186
v 0.03413309 -0.05744573 0.24006029
v 0.03198883 -0.05744573 0.24055490
v 0.02960449 -0.05744573 0.24088464
v 0.02722015 -0.05744573 0.24100241
v 0.02722015 -0.05982832 0.24088464
v 0.04411753 -0.01907336 0.00328110
v 0.04152621 -0.02169839 0.00231542
v 0.04152621 -0.01930744 0.00224477
v 0.04396023 -0.01716728 0.00337531
v 0.04152621 -0.01307924 0.00271583
v 0.04323996 -0.01307924 0.00351663
v 0.02483580 -0.05982832 0.24079043
v 0.00577760 -0.07174967 0.23812893
v 0.00577760 -0.06936707 0.23841157
v 0.00577760 -0.06698448 0.23867065
v 0.00100891 -0.05982832 0.23850578
v -0.00137543 -0.05982832 0.23791696
v 0.01293064 -0.06936707 0.23918883
v 0.01054629 -0.06936707 0.23907106
v 0.00816195 -0.06936707 0.23878842
v -0.00733629 -0.01307924 0.21954554
v -0.00741081 -0.01307924 0.21867408
v -0.00751015 -0.01307924 0.21711958
v -0.00906660 -0.01307924 0.19095210
v -0.01429891 -0.01307924 0.07648410
v -0.01432375 -0.01307924 0.07483538
v -0.01480393 -0.01467600 0.07410523
v -0.01446449 -0.01307924 0.05422643
v -0.01424096 -0.01307924 0.04190816
v -0.01494467 -0.01692484 0.04073050
v -0.01503574 -0.01692484 0.04310937
v -0.00727834 -0.01307924 0.22011082
v -0.00709620 -0.01307924 0.22187731
v -0.01289977 -0.01307924 0.01689478
v -0.01285009 -0.01307924 0.01597621
v -0.01275075 -0.01307924 0.01451592
v -0.02401015 -0.06823848 0.02078104
v -0.01262656 -0.01307924 0.01357380
v -0.00137543 -0.05744573 0.23801117
v -0.00289049 -0.05744573 0.23751655
v -0.00275802 -0.05576536 0.23744590
v 0.00339326 -0.01454224 0.23617403
v 0.00339326 -0.01307924 0.23600916
v 0.00172090 -0.01307924 0.23525545
v 0.00125728 -0.01307924 0.23499638
v 0.00052873 -0.01307924 0.23454887
v -0.00111050 -0.01307924 0.23337121
v -0.00230268 -0.01307924 0.23235843
v -0.00337894 -0.01307924 0.23115722
v -0.00486088 -0.01307924 0.22917876
v -0.00530794 -0.01307924 0.22844861
v -0.00457112 -0.01307924 0.22964983
v -0.00564738 -0.01307924 0.22771847
v -0.00611928 -0.01307924 0.22665858
v -0.00638421 -0.01307924 0.22571646
v -0.00693890 -0.01307924 0.22307851
v -0.01238647 -0.01307924 0.01213706
v -0.01914211 -0.04791533 0.01392710
v -0.01226228 -0.01307924 0.01157178
v -0.01214638 -0.01307924 0.01105362
v -0.01212154 -0.01322136 0.01086519
v -0.01175727 -0.01307924 0.00971109
v -0.01205531 -0.01307924 0.01072387
v -0.01202219 -0.01617244 0.00881607
v -0.01073895 -0.01307924 0.00735578
v -0.00947227 -0.01307924 0.00547154
v -0.00889274 -0.01454224 0.00460007
v -0.01215466 -0.03937142 0.00372861
v -0.01362004 -0.04315014 0.00462362
v -0.01226228 -0.04076754 0.00365795
v -0.01242786 -0.04315014 0.00354019
v -0.01091281 -0.04315014 0.00281004
v -0.01091281 -0.04553273 0.00276293
v -0.00852847 -0.03838494 0.00207989
v -0.00614412 -0.03361138 0.00167949
v -0.00096148 -0.02169839 0.00130265
v 0.00100891 -0.02408099 0.00104355
v 0.00339326 -0.02646359 0.00087868
v 0.00339326 -0.02169839 0.00097289
v 0.00339326 -0.01307924 0.00118488
v 0.02722015 -0.01307924 0.00054894
v 0.03004328 -0.04119390 0.00139685
v 0.03198883 -0.04315014 0.00153817
v 0.03437318 -0.04315014 0.00172660
v 0.03914187 -0.02646359 0.00193857
v 0.03675752 -0.03838494 0.00184436
v 0.04878687 -0.01307924 0.23325345
v 0.04799209 -0.01307924 0.23367740
v 0.04631146 -0.01307924 0.23454887
v 0.03617799 -0.04791533 0.23994252
v 0.04569054 -0.01307924 0.23483150
v 0.04520208 -0.01307924 0.23504348
v 0.04298331 -0.01307924 0.23586784
v 0.04152621 -0.01307924 0.23633890
v 0.04062380 -0.01307924 0.23662154
v 0.03856234 -0.01307924 0.23723392
v 0.03437318 -0.05030629 0.24029582
v 0.03437318 -0.05268889 0.24022516
v 0.03198883 -0.05507148 0.24057846
v 0.03437318 -0.04791533 0.24027226
v 0.03198883 -0.04791533 0.24050780
v 0.02722015 -0.03838494 0.24043713
v 0.02483580 -0.05507148 0.24088464
v 0.02483580 -0.05744573 0.24093175
v 0.02960449 -0.04553273 0.24055490
v 0.04152621 -0.01692484 0.00238608
v 0.03797453 -0.01359756 0.00137329
v 0.03802421 -0.01307924 0.00137329
v 0.03914187 -0.01307924 0.00175015
v 0.04016018 -0.01307924 0.00215055
v 0.01531498 -0.05507148 0.24039003
v 0.01054629 -0.06698448 0.23928303
v 0.00577760 -0.06459352 0.23888264
v 0.00816195 -0.06698448 0.23904751
v 0.00339326 -0.05744573 0.23907106
v 0.00100891 -0.05744573 0.23867065
v -0.01433203 -0.01307924 0.07410523
v 0.00100891 -0.05507148 0.23860000
v 0.00685387 -0.01524448 0.23742234
v 0.00594318 -0.01449208 0.23706905
v 0.00584383 -0.01307924 0.23690417
v 0.00485036 -0.01307924 0.23655087
v -0.00876028 -0.01307924 0.00474139
v -0.00756811 -0.01307924 0.00361084
v -0.00770057 -0.01454224 0.00351663
v -0.00789099 -0.01692484 0.00339887
v -0.00805656 -0.01930744 0.00328110
v -0.01091281 -0.04076754 0.00295136
v -0.00852847 -0.03600234 0.00222121
v -0.00614412 -0.01930744 0.00238608
v -0.00614412 -0.02169839 0.00224477
v -0.00614412 -0.02646359 0.00200923
v -0.00130092 -0.01307924 0.00153817
v -0.00215366 -0.02169839 0.00144396
v -0.00375978 -0.01454224 0.00196213
v -0.00375978 -0.01930744 0.00177370
v -0.00070484 -0.01930744 0.00132619
v 0.00100891 -0.02169839 0.00109066
v -0.00119330 -0.01448372 0.00149106
v 0.00109998 -0.01307924 0.00130265
v 0.02960449 -0.01307924 0.00066671
v 0.03053173 -0.01307924 0.00073737
v 0.03291608 -0.01307924 0.00092579
v 0.03437318 -0.01307924 0.00104355
v 0.03679892 -0.01307924 0.00125553
v 0.03437318 -0.04553273 0.24017806
v 0.03594618 -0.04553273 0.23987186
v 0.03785035 -0.01307924 0.23742234
v 0.03198883 -0.04553273 0.24043713
v 0.02245146 -0.01307924 0.23937725
v 0.02007539 -0.01692484 0.23947146
v 0.01769105 -0.01930744 0.23949501
v 0.02960449 -0.04076754 0.24041359
v 0.02960449 -0.03838494 0.24031937
v 0.02483580 -0.01307924 0.23935370
v 0.02391683 -0.01307924 0.23937725
v 0.02245146 -0.05507148 0.24079043
v 0.01769105 -0.05268889 0.24055490
v 0.01531498 -0.05268889 0.24043713
v 0.03753575 -0.01307924 0.00132619
v 0.01293064 -0.05268889 0.24024872
v 0.01293064 -0.05507148 0.24017806
v 0.00816195 -0.06459352 0.23921238
v 0.00577760 -0.05744573 0.23933014
v 0.00577760 -0.05507148 0.23942435
v 0.00339326 -0.05507148 0.23911816
v 0.00816195 -0.01692484 0.23779919
v 0.00797981 -0.01449208 0.23761077
v 0.00706912 -0.01365608 0.23735168
v 0.00680419 -0.01307924 0.23721036
v -0.00614412 -0.01307924 0.00292780
v -0.00614412 -0.01454224 0.00278648
v -0.00614412 -0.01692484 0.00257451
v -0.00375978 -0.01307924 0.00203278
v -0.00003424 -0.01307924 0.00139685
v -0.00028261 -0.01523612 0.00137329
v 0.03198883 -0.04315014 0.24031937
v 0.03437318 -0.01307924 0.23822315
v 0.03345421 -0.01307924 0.23838802
v 0.03198883 -0.01307924 0.23862355
v 0.02960449 -0.01307924 0.23892974
v 0.03689827 -0.01307924 0.23765787
v 0.03595446 -0.01307924 0.23786985
v 0.02153249 -0.01307924 0.23935370
v 0.01769105 -0.01692484 0.23937725
v 0.01531498 -0.01930744 0.23928303
v 0.02722015 -0.01307924 0.23918883
v 0.02630118 -0.01307924 0.23925948
v 0.00909747 -0.05105033 0.23980120
v 0.00895673 -0.05268889 0.23982476
v 0.00908919 -0.05439433 0.23980120
v 0.01293064 -0.01930744 0.23888264
v 0.01054629 -0.01692484 0.23829381
v 0.01054629 -0.01454224 0.23810538
v 0.00833580 -0.01307924 0.23756366
v 0.00764037 -0.01307924 0.23742234
v 0.00718503 -0.01307924 0.23732813
v 0.02007539 -0.01307924 0.23923593
v 0.01914815 -0.01307924 0.23914171
v 0.01769105 -0.01454224 0.23911816
v 0.01531498 -0.01692484 0.23907106
v 0.01054629 -0.01307924 0.23796406
v 0.01677208 -0.01307924 0.23883552
f 1 2 3
f 1 3 4
f 1 4 5
f 1 5 6
f 1 6 7
f 1 7 8
f 1 8 9
f 1 9 2
f 2 10 3
f 2 9 10
f 3 10 11
f 3 11 4
f 4 11 30
f 4 30 12
f 4 12 5
f 5 12 13
f 5 13 14
f 5 14 15
f 5 15 16
f 5 16 17
f 5 17 6
f 6 17 18
f 6 18 7
f 7 18 19
f 7 19 20
f 7 20 8
f 8 20 21
f 8 21 22
f 8 22 23
f 8 23 9
f 9 23 24
f 9 24 10
f 10 25 26
f 10 26 27
f 10 27 28
f 10 28 11
f 10 24 29
f 10 29 25
f 11 28 30
f 12 30 13
f 13 30 31
f 13 31 32
f 13 32 14
f 14 32 33
f 14 33 15
f 15 33 34
f 15 34 35
f 15 35 17
f 15 17 16
f 17 35 18
f 18 36 19
f 18 35 36
f 19 36 20
f 20 37 38
f 20 38 39
f 20 39 21
f 20 36 37
f 21 39 40
f 21 40 41
f 21 41 42
f 21 42 22
f 22 42 43
f 22 43 44
f 22 44 45
f 22 45 23
f 23 45 24
f 24 45 46
f 24 46 47
f 24 47 29
f 25 48 26
f 25 29 48
f 26 48 49
f 26 49 50
f 26 50 27
f 27 50 28
f 28 50 82
f 28 82 51
f 28 51 30
f 29 47 52
f 29 52 53
f 29 53 48
f 30 51 54
f 30 54 55
f 30 55 31
f 31 55 56
f 31 56 32
f 32 56 57
f 32 57 34
f 32 34 33
f 34 57 58
f 34 58 59
f 34 59 60
f 34 60 61
f 34 61 62
f 34 62 35
f 35 62 63
f 35 63 36
f 36 63 37
f 37 63 38
f 38 64 39
f 38 63 64
f 39 64 65
f 39 65 40
f 40 65 66
f 40 66 67
f 40 67 41
f 41 67 68
f 41 68 42
f 42 68 69
f 42 69 43
f 43 69 70
f 43 70 71
f 43 71 44
f 44 46 45
f 44 71 72
f 44 72 46
f 46 72 73
f 46 73 47
f 47 73 74
f 47 74 52
f 48 53 75
f 48 75 76
f 48 76 77
f 48 77 78
f 48 78 79
f 48 79 49
f 49 79 50
f 50 79 80
f 50 80 81
f 50 81 82
f 51 82 83
f 51 83 84
f 51 84 55
f 51 55 54
f 52 74 85
f 52 85 86
f 52 86 53
f 53 86 87
f 53 87 88
f 53 88 76
f 53 76 75
f 55 84 89
f 55 89 56
f 56 89 90
f 56 90 57
f 57 90 91
f 57 91 92
f 57 92 58
f 58 92 93
f 58 93 60
f 58 60 59
f 60 94 95
f 60 95 61
f 60 93 96
f 60 96 97
f 60 97 94
f 61 95 98
f 61 98 62
f 62 99 100
f 62 100 63
f 62 98 99
f 63 100 101
f 63 101 65
f 63 65 64
f 65 102 103
f 65 103 66
f 65 101 104
f 65 104 102
f 66 103 67
f 67 103 105
f 67 105 68
f 68 105 106
f 68 106 70
f 68 70 69
f 70 107 108
f 70 108 109
f 70 109 71
f 70 106 107
f 71 109 110
f 71 110 72
f 72 110 73
f 73 110 111
f 73 111 112
f 73 112 74
f 74 112 85
f 76 113 77
f 76 88 113
f 77 114 115
f 77 115 79
f 77 79 78
f 77 113 114
f 79 115 116
f 79 116 117
f 79 117 80
f 80 117 116
f 80 116 118
f 80 118 81
f 81 119 120
f 81 120 83
f 81 83 82
f 81 118 119
f 83 120 121
f 83 121 84
f 84 121 122
f 84 122 89
f 85 123 86
f 85 112 124
f 85 124 125
f 85 125 123
f 86 123 126
f 86 126 87
f 87 127 128
f 87 128 129
f 87 129 130
f 87 130 88
f 87 126 127
f 88 130 113
f 89 122 131
f 89 131 132
f 89 132 90
f 90 132 91
f 91 132 133
f 91 133 92
f 92 133 134
f 92 134 135
f 92 135 93
f 93 135 136
f 93 136 97
f 93 97 96
f 94 137 95
f 94 97 136
f 94 136 138
f 94 138 139
f 94 139 140
f 94 140 137
f 95 137 141
f 95 141 98
f 98 141 142
f 98 142 100
f 98 100 99
f 100 143 144
f 100 144 101
f 100 142 145
f 100 145 143
f 101 144 146
f 101 146 102
f 101 102 104
f 102 146 103
f 103 147 148
f 103 148 149
f 103 149 150
f 103 150 105
f 103 146 147
f 105 150 151
f 105 151 152
f 105 152 106
f 106 152 107
f 107 152 153
f 107 153 154
f 107 154 108
f 108 154 155
f 108 155 109
f 109 155 156
f 109 156 110
f 110 156 157
f 110 157 158
f 110 158 111
f 111 158 159
f 111 159 112
f 112 159 124
f 113 130 178
f 113 178 160
f 113 160 114
f 114 161 162
f 114 162 115
f 114 160 161
f 115 162 163
f 115 163 164
f 115 164 165
f 115 165 116
f 116 165 118
f 118 165 166
f 118 166 119
f 119 166 167
f 119 167 168
f 119 168 120
f 120 168 169
f 120 169 121
f 121 169 170
f 121 170 131
f 121 131 122
f 123 171 172
f 123 172 126
f 123 125 171
f 124 159 173
f 124 173 125
f 125 174 171
f 125 173 174
f 126 172 175
f 126 175 127
f 127 175 176
f 127 176 177
f 127 177 128
f 128 177 178
f 128 178 129
f 129 178 130
f 131 170 179
f 131 179 180
f 131 180 181
f 131 181 182
f 131 182 132
f 132 182 133
f 133 182 183
f 133 183 184
f 133 184 134
f 134 184 185
f 134 185 186
f 134 186 135
f 135 186 136
f 136 186 187
f 136 187 188
f 136 188 189
f 136 189 139
f 136 139 138
f 137 140 190
f 137 190 191
f 137 191 141
f 139 192 193
f 139 193 140
f 139 189 194
f 139 194 192
f 140 193 190
f 141 191 195
f 141 195 145
f 141 145 142
f 143 196 197
f 143 197 198
f 143 198 199
f 143 199 144
f 143 145 200
f 143 200 201
f 143 201 196
f 144 199 202
f 144 202 146
f 145 195 200
f 146 202 203
f 146 203 204
f 146 204 147
f 147 204 205
f 147 205 148
f 148 205 206
f 148 206 207
f 148 207 149
f 149 207 208
f 149 208 209
f 149 209 150
f 150 209 151
f 151 209 210
f 151 210 152
f 152 210 211
f 152 211 212
f 152 212 153
f 153 212 213
f 153 213 214
f 153 214 154
f 154 214 215
f 154 215 216
f 154 216 155
f 155 216 217
f 155 217 156
f 156 217 218
f 156 218 219
f 156 219 157
f 157 219 220
f 157 220 158
f 158 220 221
f 158 221 159
f 159 221 222
f 159 222 223
f 159 223 173
f 160 178 161
f 161 224 225
f 161 225 163
f 161 163 162
f 161 178 226
f 161 226 227
f 161 227 224
f 163 225 164
f 164 225 228
f 164 228 229
f 164 229 165
f 165 229 166
f 166 230 167
f 166 229 230
f 167 231 232
f 167 232 168
f 167 230 231
f 168 232 233
f 168 233 169
f 169 233 234
f 169 234 170
f 170 234 179
f 171 174 235
f 171 235 236
f 171 236 172
f 172 236 237
f 172 237 238
f 172 238 175
f 173 223 239
f 173 239 240
f 173 240 241
f 173 241 242
f 173 242 174
f 174 242 235
f 175 243 244
f 175 244 176
f 175 238 243
f 176 244 245
f 176 245 226
f 176 226 177
f 177 226 178
f 179 234 246
f 179 246 247
f 179 247 180
f 180 247 248
f 180 248 181
f 181 183 182
f 181 248 249
f 181 249 250
f 181 250 251
f 181 251 183
f 183 251 184
f 184 252 253
f 184 253 185
f 184 251 252
f 185 253 186
f 186 253 254
f 186 254 187
f 187 254 188
f 188 254 255
f 188 255 256
f 188 256 194
f 188 194 189
f 190 193 257
f 190 257 258
f 190 258 191
f 191 258 259
f 191 259 195
f 192 260 257
f 192 257 193
f 192 194 260
f 194 256 261
f 194 261 260
f 195 259 262
f 195 262 200
f 196 263 197
f 196 201 264
f 196 264 263
f 197 263 265
f 197 265 266
f 197 266 203
f 197 203 198
f 198 203 199
f 199 203 202
f 200 262 267
f 200 267 201
f 201 267 264
f 203 266 204
f 204 268 269
f 204 269 205
f 204 266 265
f 204 265 268
f 205 269 270
f 205 270 206
f 206 270 271
f 206 271 272
f 206 272 207
f 207 272 273
f 207 273 208
f 208 273 274
f 208 274 209
f 209 274 210
f 210 274 211
f 211 274 275
f 211 275 276
f 211 276 213
f 211 213 212
f 213 276 277
f 213 277 278
f 213 278 279
f 213 279 280
f 213 280 214
f 214 280 281
f 214 281 215
f 215 281 282
f 215 282 216
f 216 282 283
f 216 283 217
f 217 283 284
f 217 284 218
f 218 284 285
f 218 285 219
f 219 285 286
f 219 286 220
f 220 286 287
f 220 287 288
f 220 288 221
f 221 288 222
f 222 289 239
f 222 239 223
f 222 288 287
f 222 287 290
f 222 290 289
f 224 291 292
f 224 292 293
f 224 293 228
f 224 228 225
f 224 227 294
f 224 294 295
f 224 295 296
f 224 296 291
f 226 245 297
f 226 297 227
f 227 297 298
f 227 298 294
f 228 293 299
f 228 299 229
f 229 299 300
f 229 300 230
f 230 300 301
f 230 301 231
f 231 301 302
f 231 302 303
f 231 303 232
f 232 303 304
f 232 304 233
f 233 304 234
f 234 304 305
f 234 305 306
f 234 306 246
f 235 307 236
f 235 242 308
f 235 308 307
f 236 307 309
f 236 309 310
f 236 310 237
f 237 310 238
f 238 310 243
f 239 289 240
f 240 289 311
f 240 311 312
f 240 312 313
f 240 313 314
f 240 314 241
f 241 314 242
f 242 314 315
f 242 315 308
f 243 316 244
f 243 310 316
f 244 316 297
f 244 297 245
f 246 306 247
f 247 306 317
f 247 317 318
f 247 318 319
f 247 319 248
f 248 319 320
f 248 320 249
f 249 321 250
f 249 320 321
f 250 321 322
f 250 322 323
f 250 323 324
f 250 324 325
f 250 325 326
f 250 326 327
f 250 327 251
f 251 327 328
f 251 328 329
f 251 329 252
f 252 329 253
f 253 329 328
f 253 328 330
f 253 330 254
f 254 256 255
f 254 330 256
f 256 330 335
f 256 335 261
f 257 260 331
f 257 331 332
f 257 332 333
f 257 333 258
f 258 333 259
f 259 333 334
f 259 334 262
f 260 261 331
f 261 335 336
f 261 336 337
f 261 337 331
f 262 334 267
f 263 264 338
f 263 338 339
f 263 339 265
f 264 267 340
f 264 340 341
f 264 341 338
f 265 342 268
f 265 339 342
f 267 334 343
f 267 343 340
f 268 342 269
f 269 342 344
f 269 344 270
f 270 344 345
f 270 345 346
f 270 346 271
f 271 346 347
f 271 347 272
f 272 347 348
f 272 348 273
f 273 348 349
f 273 349 274
f 274 349 277
f 274 277 275
f 275 277 276
f 277 349 278
f 278 350 351
f 278 351 352
f 278 352 353
f 278 353 279
f 278 349 350
f 279 353 280
f 280 353 354
f 280 354 281
f 281 354 282
f 282 354 355
f 282 355 283
f 283 355 356
f 283 356 357
f 283 357 284
f 284 357 358
f 284 358 285
f 285 358 359
f 285 359 360
f 285 360 286
f 286 360 287
f 287 361 290
f 287 360 362
f 287 362 363
f 287 363 364
f 287 364 361
f 289 290 361
f 289 361 311
f 291 365 366
f 291 366 367
f 291 367 368
f 291 368 369
f 291 369 370
f 291 370 371
f 291 371 292
f 291 296 365
f 292 372 373
f 292 373 293
f 292 371 374
f 292 374 372
f 293 375 299
f 293 373 376
f 293 376 375
f 294 298 295
f 295 298 377
f 295 377 309
f 295 309 378
f 295 378 296
f 296 378 379
f 296 379 380
f 296 380 366
f 296 366 365
f 297 316 298
f 298 316 377
f 299 375 300
f 300 381 382
f 300 382 301
f 300 375 381
f 301 382 302
f 302 383 384
f 302 384 303
f 302 382 383
f 303 384 304
f 304 385 386
f 304 386 387
f 304 387 306
f 304 306 305
f 304 384 388
f 304 388 385
f 306 386 389
f 306 389 390
f 306 390 391
f 306 391 318
f 306 318 317
f 306 387 386
f 307 308 392
f 307 392 393
f 307 393 394
f 307 394 395
f 307 395 309
f 308 315 392
f 309 395 378
f 309 377 316
f 309 316 396
f 309 396 310
f 310 396 316
f 311 361 397
f 311 397 312
f 312 398 313
f 312 397 398
f 313 398 399
f 313 399 400
f 313 400 315
f 313 315 314
f 315 400 392
f 318 391 390
f 318 390 401
f 318 401 402
f 318 402 403
f 318 403 404
f 318 404 319
f 319 404 320
f 320 404 405
f 320 405 406
f 320 406 321
f 321 406 322
f 322 406 407
f 322 407 408
f 322 408 409
f 322 409 325
f 322 325 323
f 323 325 324
f 325 410 330
f 325 330 411
f 325 411 326
f 325 409 410
f 326 411 327
f 327 411 328
f 328 411 330
f 330 410 335
f 331 337 412
f 331 412 332
f 332 412 413
f 332 413 414
f 332 414 333
f 333 414 415
f 333 415 416
f 333 416 334
f 334 416 417
f 334 417 343
f 335 410 418
f 335 418 336
f 336 419 337
f 336 418 420
f 336 420 421
f 336 421 419
f 337 419 412
f 338 422 423
f 338 423 424
f 338 424 425
f 338 425 342
f 338 342 339
f 338 341 426
f 338 426 422
f 340 427 341
f 340 343 427
f 341 427 428
f 341 428 426
f 342 425 344
f 343 417 429
f 343 429 427
f 344 425 430
f 344 430 345
f 345 431 346
f 345 430 432
f 345 432 431
f 346 431 433
f 346 433 434
f 346 434 435
f 346 435 347
f 347 436 348
f 347 435 436
f 348 436 437
f 348 437 349
f 349 437 350
f 350 438 351
f 350 437 438
f 351 439 440
f 351 440 441
f 351 441 352
f 351 438 439
f 352 441 442
f 352 442 353
f 353 442 354
f 354 443 444
f 354 444 355
f 354 442 443
f 355 444 445
f 355 445 356
f 356 445 446
f 356 446 357
f 357 446 447
f 357 447 358
f 358 447 448
f 358 448 359
f 359 448 449
f 359 449 360
f 360 449 362
f 361 450 397
f 361 364 363
f 361 363 451
f 361 451 450
f 362 449 452
f 362 452 363
f 363 452 453
f 363 453 454
f 363 454 451
f 366 368 367
f 366 380 455
f 366 455 456
f 366 456 457
f 366 457 368
f 368 457 458
f 368 458 369
f 369 371 370
f 369 458 459
f 369 459 371
f 371 460 374
f 371 459 461
f 371 461 462
f 371 462 463
f 371 463 460
f 372 464 465
f 372 465 376
f 372 376 373
f 372 374 464
f 374 460 466
f 374 466 467
f 374 467 468
f 374 468 469
f 374 469 464
f 375 376 381
f 376 382 381
f 376 465 470
f 376 470 382
f 378 395 394
f 378 394 471
f 378 471 379
f 379 471 472
f 379 472 380
f 380 456 455
f 380 472 456
f 382 470 383
f 383 470 473
f 383 473 384
f 384 473 388
f 385 388 386
f 386 474 475
f 386 475 476
f 386 476 477
f 386 477 389
f 386 388 478
f 386 478 474
f 388 473 478
f 389 477 390
f 390 479 401
f 390 477 476
f 390 476 480
f 390 480 481
f 390 481 479
f 392 482 393
f 392 400 483
f 392 483 482
f 393 484 471
f 393 471 394
f 393 482 485
f 393 485 486
f 393 486 487
f 393 487 484
f 397 450 488
f 397 488 489
f 397 489 490
f 397 490 398
f 398 490 491
f 398 491 399
f 399 491 492
f 399 492 483
f 399 483 400
f 401 479 402
f 402 479 493
f 402 493 494
f 402 494 495
f 402 495 403
f 403 495 404
f 404 495 496
f 404 496 405
f 405 496 497
f 405 497 406
f 406 497 498
f 406 498 407
f 407 498 499
f 407 499 500
f 407 500 501
f 407 501 502
f 407 502 503
f 407 503 504
f 407 504 409
f 407 409 408
f 409 504 505
f 409 505 506
f 409 506 507
f 409 507 410
f 410 420 418
f 410 507 420
f 412 419 508
f 412 508 413
f 413 508 509
f 413 509 510
f 413 510 414
f 414 510 511
f 414 511 415
f 415 511 512
f 415 512 513
f 415 513 417
f 415 417 416
f 417 513 429
f 419 421 514
f 419 514 515
f 419 515 516
f 419 516 508
f 420 517 514
f 420 514 421
f 420 507 517
f 422 518 423
f 422 426 518
f 423 518 424
f 424 519 520
f 424 520 521
f 424 521 430
f 424 430 425
f 424 518 519
f 426 428 522
f 426 522 518
f 427 429 523
f 427 523 428
f 428 524 522
f 428 523 524
f 429 513 523
f 430 521 432
f 431 432 433
f 432 521 525
f 432 525 526
f 432 526 433
f 433 526 527
f 433 527 528
f 433 528 529
f 433 529 434
f 434 529 435
f 435 529 530
f 435 530 436
f 436 530 531
f 436 531 532
f 436 532 533
f 436 533 534
f 436 534 438
f 436 438 437
f 438 534 533
f 438 533 535
f 438 535 439
f 439 535 440
f 440 536 537
f 440 537 538
f 440 538 539
f 440 539 441
f 440 535 540
f 440 540 536
f 441 539 541
f 441 541 442
f 442 542 444
f 442 444 443
f 442 541 542
f 444 542 543
f 444 543 544
f 444 544 445
f 445 544 545
f 445 545 546
f 445 546 446
f 446 546 547
f 446 547 447
f 447 547 548
f 447 548 448
f 448 548 549
f 448 549 449
f 449 549 550
f 449 550 452
f 450 451 551
f 450 551 488
f 451 454 551
f 452 550 552
f 452 552 453
f 453 552 553
f 453 553 554
f 453 554 454
f 454 554 555
f 454 555 551
f 456 472 556
f 456 556 457
f 457 556 557
f 457 557 558
f 457 558 559
f 457 559 560
f 457 560 458
f 458 560 459
f 459 560 461
f 460 463 563
f 460 563 562
f 460 562 662
f 460 662 784
f 460 784 783
f 460 783 891
f 460 891 890
f 460 890 912
f 460 912 805
f 460 805 802
f 460 802 801
f 460 801 910
f 460 910 909
f 460 909 908
f 460 908 796
f 460 796 817
f 460 817 921
f 460 921 920
f 460 920 1021
f 460 1021 1120
f 460 1120 1213
f 460 1213 1318
f 460 1318 1317
f 460 1317 1417
f 460 1417 1416
f 460 1416 1415
f 460 1415 1467
f 460 1467 1452
f 460 1452 1451
f 460 1451 1450
f 460 1450 1449
f 460 1449 1448
f 460 1448 1388
f 460 1388 1293
f 460 1293 1292
f 460 1292 1387
f 460 1387 1447
f 460 1447 1482
f 460 1482 1440
f 460 1440 1481
f 460 1481 1478
f 460 1478 1431
f 460 1431 1430
f 460 1430 1373
f 460 1373 1274
f 460 1274 1372
f 460 1372 1369
f 460 1369 1370
f 460 1370 1367
f 460 1367 1366
f 460 1366 1364
f 460 1364 1345
f 460 1345 1343
f 460 1343 1342
f 460 1342 1341
f 460 1341 1336
f 460 1336 1235
f 460 1235 1234
f 460 1234 1335
f 460 1335 1424
f 460 1424 1333
f 460 1333 1332
f 460 1332 1232
f 460 1232 1331
f 460 1331 1330
f 460 1330 1329
f 460 1329 1328
f 460 1328 1339
f 460 1339 1340
f 460 1340 1363
f 460 1363 1263
f 460 1263 1362
f 460 1362 1361
f 460 1361 1360
f 460 1360 1358
f 460 1358 1357
f 460 1357 1359
f 460 1359 1356
f 460 1356 1355
f 460 1355 1354
f 460 1354 1353
f 460 1353 1352
f 460 1352 1351
f 460 1351 1350
f 460 1350 1429
f 460 1429 1428
f 460 1428 1477
f 460 1477 1504
f 460 1504 1503
f 460 1503 1502
f 460 1502 1509
f 460 1509 1510
f 460 1510 1506
f 460 1506 1505
f 460 1505 1491
f 460 1491 1457
f 460 1457 1463
f 460 1463 1462
f 460 1462 1495
f 460 1495 1494
f 460 1494 1488
f 460 1488 1487
f 460 1487 1486
f 460 1486 1485
f 460 1485 1490
f 460 1490 1489
f 460 1489 1455
f 460 1455 1403
f 460 1403 1402
f 460 1402 1401
f 460 1401 1400
f 460 1400 1399
f 460 1399 1398
f 460 1398 1396
f 460 1396 1395
f 460 1395 1394
f 460 1394 1303
f 460 1303 1192
f 460 1192 1102
f 460 1102 1101
f 460 1101 1096
f 460 1096 1095
f 460 1095 1097
f 460 1097 1092
f 460 1092 995
f 460 995 894
f 460 894 892
f 460 892 785
f 460 785 671
f 460 671 672
f 460 672 670
f 460 670 669
f 460 669 566
f 460 566 467
f 460 467 466
f 461 560 561
f 461 561 562
f 461 562 563
f 461 563 463
f 461 463 462
f 464 469 564
f 464 564 465
f 465 564 565
f 465 565 470
f 467 566 567
f 467 567 468
f 468 567 469
f 469 567 568
f 469 568 569
f 469 569 570
f 469 570 564
f 470 565 571
f 470 571 473
f 471 484 472
f 472 484 572
f 472 572 557
f 472 557 556
f 473 571 478
f 474 478 573
f 474 573 574
f 474 574 476
f 474 476 475
f 476 574 575
f 476 575 576
f 476 576 480
f 478 571 573
f 479 481 493
f 480 576 481
f 481 577 578
f 481 578 493
f 481 576 577
f 482 483 579
f 482 579 580
f 482 580 581
f 482 581 582
f 482 582 583
f 482 583 584
f 482 584 585
f 482 585 586
f 482 586 587
f 482 587 485
f 483 492 579
f 484 487 572
f 485 587 588
f 485 588 589
f 485 589 590
f 485 590 486
f 486 590 591
f 486 591 487
f 487 591 559
f 487 559 558
f 487 558 572
f 488 551 592
f 488 592 489
f 489 592 593
f 489 593 490
f 490 594 491
f 490 593 594
f 491 594 595
f 491 595 492
f 492 595 596
f 492 596 597
f 492 597 598
f 492 598 579
f 493 578 599
f 493 599 494
f 494 599 600
f 494 600 495
f 495 600 601
f 495 601 602
f 495 602 496
f 496 602 603
f 496 603 497
f 497 603 604
f 497 604 499
f 497 499 498
f 499 604 500
f 500 605 503
f 500 503 502
f 500 502 501
f 500 604 711
f 500 711 606
f 500 606 605
f 503 607 505
f 503 505 504
f 503 605 607
f 505 607 506
f 506 608 507
f 506 607 609
f 506 609 608
f 507 608 610
f 507 610 517
f 508 516 509
f 509 516 611
f 509 611 612
f 509 612 510
f 510 612 613
f 510 613 512
f 510 512 511
f 512 613 614
f 512 614 615
f 512 615 513
f 513 615 616
f 513 616 617
f 513 617 523
f 514 517 618
f 514 618 619
f 514 619 620
f 514 620 621
f 514 621 515
f 515 621 516
f 516 622 611
f 516 621 623
f 516 623 622
f 517 610 618
f 518 522 624
f 518 624 625
f 518 625 626
f 518 626 519
f 519 626 520
f 520 626 627
f 520 627 628
f 520 628 525
f 520 525 521
f 522 524 617
f 522 617 629
f 522 629 624
f 523 617 524
f 525 628 630
f 525 630 526
f 526 630 631
f 526 631 527
f 527 631 632
f 527 632 633
f 527 633 528
f 528 633 529
f 529 633 634
f 529 634 531
f 529 531 530
f 531 635 636
f 531 636 533
f 531 533 532
f 531 634 635
f 533 636 637
f 533 637 638
f 533 638 639
f 533 639 540
f 533 540 535
f 536 540 640
f 536 640 641
f 536 641 537
f 537 641 642
f 537 642 538
f 538 541 539
f 538 642 643
f 538 643 644
f 538 644 645
f 538 645 541
f 540 639 640
f 541 646 543
f 541 543 542
f 541 645 647
f 541 647 646
f 543 646 544
f 544 646 648
f 544 648 545
f 545 648 649
f 545 649 546
f 546 649 650
f 546 650 547
f 547 650 651
f 547 651 548
f 548 651 652
f 548 652 549
f 549 652 653
f 549 653 550
f 550 653 552
f 551 555 592
f 552 653 654
f 552 654 553
f 553 655 554
f 553 654 656
f 553 656 657
f 553 657 655
f 554 655 658
f 554 658 659
f 554 659 660
f 554 660 555
f 555 660 592
f 557 572 558
f 559 591 561
f 559 561 560
f 561 591 661
f 561 661 662
f 561 662 562
f 564 570 663
f 564 663 664
f 564 664 665
f 564 665 666
f 564 666 565
f 565 666 667
f 565 667 668
f 565 668 573
f 565 573 571
f 566 669 567
f 567 669 670
f 567 670 568
f 568 671 570
f 568 570 569
f 568 670 672
f 568 672 671
f 570 671 664
f 570 664 663
f 573 668 574
f 574 673 674
f 574 674 675
f 574 675 575
f 574 668 673
f 575 675 576
f 576 675 577
f 577 676 677
f 577 677 678
f 577 678 578
f 577 675 676
f 578 678 599
f 579 598 679
f 579 679 680
f 579 680 681
f 579 681 682
f 579 682 580
f 580 683 581
f 580 682 683
f 581 583 582
f 581 683 583
f 583 683 684
f 583 684 685
f 583 685 686
f 583 686 584
f 584 686 585
f 585 686 687
f 585 687 586
f 586 687 688
f 586 688 587
f 587 688 689
f 587 689 588
f 588 689 690
f 588 690 589
f 589 690 590
f 590 690 691
f 590 691 692
f 590 692 591
f 591 692 661
f 592 660 693
f 592 693 593
f 593 693 694
f 593 694 695
f 593 695 696
f 593 696 594
f 594 697 596
f 594 596 595
f 594 696 697
f 596 697 698
f 596 698 699
f 596 699 700
f 596 700 701
f 596 701 702
f 596 702 703
f 596 703 598
f 596 598 597
f 598 703 702
f 598 702 704
f 598 704 705
f 598 705 679
f 599 678 706
f 599 706 600
f 600 706 707
f 600 707 708
f 600 708 709
f 600 709 601
f 601 709 710
f 601 710 602
f 602 710 603
f 603 710 604
f 604 710 709
f 604 709 711
f 605 606 712
f 605 712 713
f 605 713 714
f 605 714 715
f 605 715 607
f 606 711 716
f 606 716 717
f 606 717 718
f 606 718 713
f 606 713 712
f 607 715 719
f 607 719 609
f 608 609 610
f 609 720 610
f 609 719 721
f 609 721 720
f 610 720 722
f 610 722 618
f 611 622 723
f 611 723 612
f 612 723 724
f 612 724 613
f 613 724 614
f 614 724 725
f 614 725 726
f 614 726 727
f 614 727 615
f 615 727 728
f 615 728 617
f 615 617 616
f 617 728 729
f 617 729 730
f 617 730 629
f 618 722 619
f 619 722 731
f 619 731 732
f 619 732 733
f 619 733 734
f 619 734 735
f 619 735 620
f 620 736 621
f 620 735 736
f 621 736 623
f 622 623 736
f 622 736 737
f 622 737 738
f 622 738 739
f 622 739 723
f 624 629 740
f 624 740 741
f 624 741 625
f 625 741 627
f 625 627 626
f 627 742 743
f 627 743 628
f 627 741 740
f 627 740 744
f 627 744 745
f 627 745 746
f 627 746 742
f 628 743 747
f 628 747 630
f 629 730 740
f 630 747 748
f 630 748 631
f 631 748 749
f 631 749 632
f 632 749 750
f 632 750 751
f 632 751 752
f 632 752 633
f 633 752 753
f 633 753 634
f 634 753 635
f 635 753 754
f 635 754 755
f 635 755 637
f 635 637 636
f 637 756 757
f 637 757 638
f 637 755 756
f 638 757 639
f 639 757 640
f 640 757 758
f 640 758 759
f 640 759 760
f 640 760 641
f 641 761 642
f 641 760 761
f 642 762 763
f 642 763 643
f 642 761 762
f 643 764 765
f 643 765 766
f 643 766 767
f 643 767 644
f 643 763 764
f 644 767 768
f 644 768 769
f 644 769 770
f 644 770 645
f 645 770 647
f 646 647 771
f 646 771 648
f 647 770 771
f 648 771 772
f 648 772 649
f 649 772 773
f 649 773 650
f 650 773 651
f 651 773 774
f 651 774 775
f 651 775 652
f 652 775 653
f 653 775 776
f 653 776 654
f 654 776 777
f 654 777 778
f 654 778 779
f 654 779 656
f 655 657 780
f 655 780 658
f 656 779 657
f 657 779 781
f 657 781 780
f 658 780 659
f 659 780 660
f 660 780 693
f 661 692 691
f 661 691 782
f 661 782 783
f 661 783 784
f 661 784 662
f 664 671 785
f 664 785 665
f 665 785 786
f 665 786 787
f 665 787 666
f 666 787 788
f 666 788 667
f 667 788 673
f 667 673 668
f 673 788 789
f 673 789 790
f 673 790 791
f 673 791 674
f 674 791 675
f 675 791 676
f 676 791 792
f 676 792 793
f 676 793 677
f 677 793 678
f 678 793 794
f 678 794 706
f 679 705 795
f 679 795 796
f 679 796 797
f 679 797 798
f 679 798 799
f 679 799 680
f 680 799 682
f 680 682 681
f 682 799 683
f 683 800 684
f 683 799 800
f 684 800 801
f 684 801 802
f 684 802 803
f 684 803 804
f 684 804 685
f 685 804 687
f 685 687 686
f 687 804 803
f 687 803 805
f 687 805 806
f 687 806 807
f 687 807 688
f 688 807 691
f 688 691 689
f 689 691 690
f 691 807 782
f 693 695 694
f 693 780 695
f 695 808 809
f 695 809 696
f 695 780 808
f 696 809 697
f 697 699 698
f 697 809 699
f 699 809 700
f 700 809 810
f 700 810 811
f 700 811 812
f 700 812 701
f 701 812 702
f 702 813 814
f 702 814 815
f 702 815 816
f 702 816 704
f 702 812 811
f 702 811 813
f 704 816 817
f 704 817 818
f 704 818 819
f 704 819 795
f 704 795 705
f 706 794 820
f 706 820 821
f 706 821 707
f 707 821 822
f 707 822 708
f 708 822 823
f 708 823 824
f 708 824 709
f 709 824 711
f 711 824 716
f 713 718 825
f 713 825 826
f 713 826 714
f 714 826 827
f 714 827 828
f 714 828 719
f 714 719 715
f 716 824 823
f 716 823 829
f 716 829 830
f 716 830 831
f 716 831 717
f 717 831 832
f 717 832 718
f 718 832 833
f 718 833 834
f 718 834 825
f 719 828 721
f 720 721 722
f 721 828 835
f 721 835 836
f 721 836 722
f 722 836 731
f 723 739 837
f 723 837 724
f 724 837 725
f 725 837 838
f 725 838 839
f 725 839 726
f 726 839 727
f 727 839 729
f 727 729 728
f 729 839 840
f 729 840 730
f 730 840 841
f 730 841 740
f 731 836 842
f 731 842 732
f 732 734 733
f 732 842 843
f 732 843 844
f 732 844 734
f 734 844 845
f 734 845 846
f 734 846 847
f 734 847 848
f 734 848 736
f 734 736 735
f 736 848 847
f 736 847 737
f 737 847 738
f 738 849 739
f 738 847 850
f 738 850 849
f 739 849 837
f 740 841 851
f 740 851 745
f 740 745 744
f 742 852 743
f 742 746 852
f 743 852 853
f 743 853 747
f 745 854 852
f 745 852 746
f 745 851 854
f 747 853 855
f 747 855 748
f 748 856 749
f 748 855 856
f 749 857 750
f 749 856 857
f 750 857 858
f 750 858 751
f 751 858 859
f 751 859 860
f 751 860 754
f 751 754 752
f 752 754 753
f 754 860 861
f 754 861 756
f 754 756 755
f 756 861 862
f 756 862 863
f 756 863 757
f 757 863 758
f 758 863 759
f 759 863 760
f 760 864 865
f 760 865 761
f 760 863 866
f 760 866 864
f 761 865 762
f 762 867 868
f 762 868 765
f 762 765 763
f 762 865 869
f 762 869 867
f 763 765 764
f 765 868 766
f 766 769 768
f 766 768 767
f 766 868 870
f 766 870 871
f 766 871 769
f 769 872 978
f 769 978 873
f 769 873 770
f 769 871 874
f 769 874 872
f 770 873 875
f 770 875 771
f 771 875 772
f 772 875 876
f 772 876 877
f 772 877 878
f 772 878 773
f 773 878 879
f 773 879 774
f 774 879 880
f 774 880 881
f 774 881 775
f 775 881 882
f 775 882 776
f 776 882 777
f 777 882 883
f 777 883 884
f 777 884 778
f 778 884 779
f 779 884 885
f 779 885 886
f 779 886 887
f 779 887 781
f 780 781 888
f 780 888 889
f 780 889 808
f 781 887 886
f 781 886 888
f 782 807 890
f 782 890 891
f 782 891 783
f 785 892 786
f 786 893 787
f 786 892 894
f 786 894 893
f 787 893 788
f 788 895 896
f 788 896 789
f 788 893 895
f 789 896 790
f 790 897 898
f 790 898 899
f 790 899 791
f 790 896 897
f 791 899 900
f 791 900 901
f 791 901 902
f 791 902 792
f 792 902 903
f 792 903 904
f 792 904 793
f 793 904 905
f 793 905 906
f 793 906 907
f 793 907 820
f 793 820 794
f 795 819 796
f 796 819 818
f 796 818 817
f 796 908 797
f 797 908 798
f 798 908 909
f 798 909 910
f 798 910 800
f 798 800 799
f 800 910 911
f 800 911 801
f 801 911 910
f 802 805 803
f 805 912 807
f 805 807 806
f 807 912 890
f 808 913 914
f 808 914 809
f 808 889 915
f 808 915 916
f 808 916 913
f 809 914 810
f 810 917 918
f 810 918 811
f 810 914 913
f 810 913 917
f 811 918 919
f 811 919 813
f 813 920 921
f 813 921 814
f 813 919 920
f 814 816 815
f 814 921 817
f 814 817 816
f 820 907 922
f 820 922 923
f 820 923 924
f 820 924 821
f 821 924 925
f 821 925 822
f 822 925 926
f 822 926 829
f 822 829 823
f 825 834 826
f 826 834 927
f 826 927 928
f 826 928 827
f 827 929 828
f 827 928 930
f 827 930 931
f 827 931 929
f 828 929 835
f 829 926 830
f 830 926 932
f 830 932 933
f 830 933 831
f 831 933 934
f 831 934 832
f 832 934 935
f 832 935 936
f 832 936 833
f 833 936 937
f 833 937 938
f 833 938 834
f 834 938 927
f 835 842 836
f 835 929 939
f 835 939 842
f 837 849 940
f 837 940 838
f 838 941 839
f 838 940 942
f 838 942 941
f 839 941 943
f 839 943 840
f 840 943 1041
f 840 1041 944
f 840 944 945
f 840 945 841
f 841 945 946
f 841 946 947
f 841 947 851
f 842 939 843
f 843 939 844
f 844 939 948
f 844 948 949
f 844 949 950
f 844 950 951
f 844 951 845
f 845 951 952
f 845 952 953
f 845 953 846
f 846 953 954
f 846 954 847
f 847 954 850
f 849 850 955
f 849 955 956
f 849 956 940
f 850 954 955
f 851 947 854
f 852 957 853
f 852 854 957
f 853 957 855
f 854 958 959
f 854 959 960
f 854 960 957
f 854 947 958
f 855 957 961
f 855 961 856
f 856 961 962
f 856 962 857
f 857 962 963
f 857 963 964
f 857 964 858
f 858 965 966
f 858 966 859
f 858 964 965
f 859 966 967
f 859 967 968
f 859 968 860
f 860 968 861
f 861 968 862
f 862 969 866
f 862 866 863
f 862 968 969
f 864 970 869
f 864 869 865
f 864 866 970
f 866 969 971
f 866 971 970
f 867 869 972
f 867 972 868
f 868 973 870
f 868 972 869
f 868 869 973
f 869 974 975
f 869 975 973
f 869 970 974
f 870 976 977
f 870 977 874
f 870 874 871
f 870 973 975
f 870 975 976
f 872 874 978
f 873 978 1076
f 873 1076 979
f 873 979 875
f 874 977 980
f 874 980 978
f 875 979 876
f 876 979 981
f 876 981 877
f 877 981 878
f 878 981 982
f 878 982 983
f 878 983 984
f 878 984 879
f 879 984 986
f 879 986 880
f 880 985 881
f 880 986 987
f 880 987 985
f 881 985 883
f 881 883 882
f 883 985 988
f 883 988 885
f 883 885 884
f 885 988 886
f 886 989 888
f 886 988 990
f 886 990 989
f 888 989 889
f 889 989 991
f 889 991 992
f 889 992 993
f 889 993 915
f 893 894 994
f 893 994 895
f 894 995 994
f 895 996 896
f 895 994 996
f 896 996 997
f 896 997 897
f 897 998 898
f 897 997 999
f 897 999 998
f 898 998 1000
f 898 1000 1001
f 898 1001 1002
f 898 1002 899
f 899 1002 900
f 900 1002 1003
f 900 1003 901
f 901 1003 902
f 902 1003 1004
f 902 1004 1005
f 902 1005 1006
f 902 1006 1007
f 902 1007 1008
f 902 1008 1009
f 902 1009 904
f 902 904 903
f 904 1009 1008
f 904 1008 1010
f 904 1010 1011
f 904 1011 905
f 905 1011 906
f 906 1011 1012
f 906 1012 1013
f 906 1013 907
f 907 1013 1012
f 907 1012 922
f 913 1014 917
f 913 916 1015
f 913 1015 1014
f 915 993 1016
f 915 1016 916
f 916 1016 1015
f 917 1014 1015
f 917 1015 918
f 918 1017 919
f 918 1015 1018
f 918 1018 1017
f 919 1017 1019
f 919 1019 1020
f 919 1020 920
f 920 1020 1021
f 922 1022 1023
f 922 1023 923
f 922 1012 1011
f 922 1011 1024
f 922 1024 1022
f 923 1023 924
f 924 1023 926
f 924 926 925
f 926 1023 932
f 927 938 1025
f 927 1025 928
f 928 1026 930
f 928 1025 1027
f 928 1027 1026
f 929 931 939
f 930 1026 931
f 931 1026 1028
f 931 1028 1029
f 931 1029 1030
f 931 1030 939
f 932 1023 933
f 933 1031 934
f 933 1023 1032
f 933 1032 1031
f 934 1031 1033
f 934 1033 935
f 935 1033 1034
f 935 1034 1035
f 935 1035 936
f 936 1035 937
f 937 1035 1034
f 937 1034 1036
f 937 1036 1037
f 937 1037 1025
f 937 1025 938
f 939 1030 948
f 940 956 942
f 941 942 943
f 942 956 1038
f 942 1038 1039
f 942 1039 1040
f 942 1040 1041
f 942 1041 943
f 944 1042 1043
f 944 1043 945
f 944 1041 1044
f 944 1044 1042
f 945 1043 946
f 946 1043 1045
f 946 1045 947
f 947 1045 1046
f 947 1046 1047
f 947 1047 958
f 948 1030 1048
f 948 1048 1049
f 948 1049 949
f 949 1049 1050
f 949 1050 950
f 950 1050 1051
f 950 1051 1052
f 950 1052 951
f 951 1052 952
f 952 1052 1053
f 952 1053 953
f 953 1054 1055
f 953 1055 954
f 953 1053 1054
f 954 1055 955
f 955 1055 1056
f 955 1056 1057
f 955 1057 956
f 956 1057 1058
f 956 1058 1038
f 957 960 1059
f 957 1059 961
f 958 1047 1059
f 958 1059 959
f 959 1059 960
f 961 1059 1060
f 961 1060 962
f 962 1061 1062
f 962 1062 963
f 962 1060 1061
f 963 1062 964
f 964 1062 965
f 965 1063 1064
f 965 1064 966
f 965 1062 1065
f 965 1065 1063
f 966 1064 1066
f 966 1066 1067
f 966 1067 967
f 967 1067 1068
f 967 1068 1069
f 967 1069 1070
f 967 1070 968
f 968 1070 969
f 969 1070 971
f 970 971 1071
f 970 1071 974
f 971 1072 1071
f 971 1070 1072
f 974 1071 975
f 975 1073 976
f 975 1071 1073
f 976 1073 1074
f 976 1074 1075
f 976 1075 977
f 977 1075 1077
f 977 1077 980
f 978 980 1076
f 979 1076 1079
f 979 1079 981
f 980 1077 1078
f 980 1078 1079
f 980 1079 1076
f 981 1079 982
f 982 1079 1080
f 982 1080 983
f 983 1080 984
f 984 1080 1081
f 984 1081 986
f 985 987 988
f 986 1081 987
f 987 1081 1082
f 987 1082 1083
f 987 1083 988
f 988 1083 990
f 989 990 991
f 990 1084 991
f 990 1083 1084
f 991 1084 1183
f 991 1183 1085
f 991 1085 1188
f 991 1188 1086
f 991 1086 1087
f 991 1087 992
f 992 1087 1088
f 992 1088 993
f 993 1089 1090
f 993 1090 1091
f 993 1091 1016
f 993 1088 1089
f 994 995 996
f 995 1092 999
f 995 999 997
f 995 997 1093
f 995 1093 996
f 996 1093 997
f 998 999 1094
f 998 1094 1000
f 999 1095 1096
f 999 1096 1094
f 999 1092 1097
f 999 1097 1095
f 1000 1098 1099
f 1000 1099 1100
f 1000 1100 1001
f 1000 1094 1096
f 1000 1096 1101
f 1000 1101 1102
f 1000 1102 1098
f 1001 1100 1103
f 1001 1103 1003
f 1001 1003 1002
f 1003 1103 1104
f 1003 1104 1004
f 1004 1104 1005
f 1005 1104 1105
f 1005 1105 1106
f 1005 1106 1107
f 1005 1107 1007
f 1005 1007 1006
f 1007 1107 1108
f 1007 1108 1109
f 1007 1109 1010
f 1007 1010 1008
f 1010 1109 1011
f 1011 1109 1110
f 1011 1110 1111
f 1011 1111 1112
f 1011 1112 1024
f 1015 1016 1018
f 1016 1091 1113
f 1016 1113 1114
f 1016 1114 1018
f 1017 1115 1019
f 1017 1018 1115
f 1018 1116 1115
f 1018 1114 1113
f 1018 1113 1117
f 1018 1117 1116
f 1019 1115 1020
f 1020 1118 1021
f 1020 1115 1116
f 1020 1116 1119
f 1020 1119 1118
f 1021 1118 1120
f 1022 1121 1023
f 1022 1024 1122
f 1022 1122 1121
f 1023 1121 1032
f 1024 1112 1123
f 1024 1123 1124
f 1024 1124 1122
f 1025 1037 1125
f 1025 1125 1027
f 1026 1126 1028
f 1026 1027 1125
f 1026 1125 1126
f 1028 1126 1127
f 1028 1127 1029
f 1029 1127 1128
f 1029 1128 1048
f 1029 1048 1030
f 1031 1032 1121
f 1031 1121 1129
f 1031 1129 1130
f 1031 1130 1131
f 1031 1131 1036
f 1031 1036 1033
f 1033 1036 1034
f 1036 1132 1133
f 1036 1133 1125
f 1036 1125 1037
f 1036 1131 1134
f 1036 1134 1135
f 1036 1135 1132
f 1038 1136 1137
f 1038 1137 1138
f 1038 1138 1039
f 1038 1058 1136
f 1039 1138 1040
f 1040 1138 1137
f 1040 1137 1139
f 1040 1139 1044
f 1040 1044 1041
f 1042 1140 1141
f 1042 1141 1043
f 1042 1044 1142
f 1042 1142 1140
f 1043 1141 1143
f 1043 1143 1144
f 1043 1144 1045
f 1044 1139 1145
f 1044 1145 1142
f 1045 1144 1146
f 1045 1146 1046
f 1046 1146 1147
f 1046 1147 1059
f 1046 1059 1047
f 1048 1128 1148
f 1048 1148 1049
f 1049 1149 1050
f 1049 1148 1149
f 1050 1149 1150
f 1050 1150 1051
f 1051 1151 1052
f 1051 1150 1152
f 1051 1152 1151
f 1052 1153 1053
f 1052 1151 1153
f 1053 1153 1154
f 1053 1154 1054
f 1054 1155 1156
f 1054 1156 1056
f 1054 1056 1055
f 1054 1154 1155
f 1056 1156 1057
f 1057 1156 1157
f 1057 1157 1058
f 1058 1157 1158
f 1058 1158 1136
f 1059 1147 1060
f 1060 1147 1159
f 1060 1159 1061
f 1061 1160 1062
f 1061 1159 1161
f 1061 1161 1160
f 1062 1160 1065
f 1063 1065 1162
f 1063 1162 1163
f 1063 1163 1164
f 1063 1164 1064
f 1064 1164 1165
f 1064 1165 1066
f 1065 1160 1162
f 1066 1165 1166
f 1066 1166 1167
f 1066 1167 1067
f 1067 1167 1068
f 1068 1167 1168
f 1068 1168 1069
f 1069 1169 1072
f 1069 1072 1070
f 1069 1168 1169
f 1071 1072 1170
f 1071 1170 1283
f 1071 1283 1171
f 1071 1171 1172
f 1071 1172 1073
f 1072 1173 1174
f 1072 1174 1170
f 1072 1169 1173
f 1073 1172 1074
f 1074 1172 1175
f 1074 1175 1176
f 1074 1176 1075
f 1075 1176 1077
f 1077 1176 1177
f 1077 1177 1178
f 1077 1178 1179
f 1077 1179 1078
f 1078 1179 1180
f 1078 1180 1181
f 1078 1181 1080
f 1078 1080 1079
f 1080 1182 1184
f 1080 1184 1081
f 1080 1181 1180
f 1080 1180 1182
f 1081 1183 1082
f 1081 1184 1294
f 1081 1294 1185
f 1081 1185 1186
f 1081 1186 1183
f 1082 1183 1083
f 1083 1183 1084
f 1085 1183 1187
f 1085 1187 1188
f 1086 1188 1190
f 1086 1190 1088
f 1086 1088 1087
f 1088 1189 1117
f 1088 1117 1089
f 1088 1190 1189
f 1089 1117 1090
f 1090 1117 1091
f 1091 1117 1113
f 1098 1191 1099
f 1098 1102 1192
f 1098 1192 1191
f 1099 1193 1196
f 1099 1196 1194
f 1099 1194 1100
f 1099 1191 1192
f 1099 1192 1193
f 1100 1195 1103
f 1100 1194 1196
f 1100 1196 1195
f 1103 1195 1196
f 1103 1196 1197
f 1103 1197 1104
f 1104 1197 1198
f 1104 1198 1105
f 1105 1198 1199
f 1105 1199 1106
f 1106 1199 1200
f 1106 1200 1107
f 1107 1200 1201
f 1107 1201 1108
f 1108 1201 1202
f 1108 1202 1110
f 1108 1110 1203
f 1108 1203 1109
f 1109 1203 1110
f 1110 1202 1204
f 1110 1204 1205
f 1110 1205 1111
f 1111 1205 1206
f 1111 1206 1112
f 1112 1206 1204
f 1112 1204 1207
f 1112 1207 1208
f 1112 1208 1209
f 1112 1209 1123
f 1116 1117 1119
f 1117 1210 1119
f 1117 1189 1210
f 1118 1119 1120
f 1119 1210 1211
f 1119 1211 1212
f 1119 1212 1120
f 1120 1212 1213
f 1121 1122 1214
f 1121 1214 1129
f 1122 1124 1214
f 1123 1209 1124
f 1124 1209 1215
f 1124 1215 1216
f 1124 1216 1214
f 1125 1217 1126
f 1125 1133 1218
f 1125 1218 1217
f 1126 1219 1127
f 1126 1217 1218
f 1126 1218 1220
f 1126 1220 1221
f 1126 1221 1219
f 1127 1219 1222
f 1127 1222 1128
f 1128 1222 1223
f 1128 1223 1148
f 1129 1214 1224
f 1129 1224 1134
f 1129 1134 1130
f 1130 1134 1131
f 1132 1220 1218
f 1132 1218 1133
f 1132 1135 1225
f 1132 1225 1226
f 1132 1226 1220
f 1134 1224 1225
f 1134 1225 1135
f 1136 1158 1227
f 1136 1227 1228
f 1136 1228 1139
f 1136 1139 1137
f 1139 1228 1145
f 1140 1142 1229
f 1140 1229 1141
f 1141 1229 1230
f 1141 1230 1143
f 1142 1145 1229
f 1143 1231 1144
f 1143 1230 1232
f 1143 1232 1231
f 1144 1231 1233
f 1144 1233 1234
f 1144 1234 1235
f 1144 1235 1236
f 1144 1236 1147
f 1144 1147 1146
f 1145 1228 1227
f 1145 1227 1237
f 1145 1237 1229
f 1147 1238 1239
f 1147 1239 1159
f 1147 1236 1238
f 1148 1223 1240
f 1148 1240 1241
f 1148 1241 1149
f 1149 1241 1242
f 1149 1242 1243
f 1149 1243 1150
f 1150 1243 1244
f 1150 1244 1152
f 1151 1152 1245
f 1151 1245 1246
f 1151 1246 1153
f 1152 1247 1248
f 1152 1248 1249
f 1152 1249 1246
f 1152 1246 1245
f 1152 1244 1243
f 1152 1243 1247
f 1153 1246 1154
f 1154 1246 1250
f 1154 1250 1251
f 1154 1251 1252
f 1154 1252 1253
f 1154 1253 1254
f 1154 1254 1155
f 1155 1254 1156
f 1156 1255 1256
f 1156 1256 1157
f 1156 1254 1257
f 1156 1257 1258
f 1156 1258 1255
f 1157 1256 1259
f 1157 1259 1260
f 1157 1260 1261
f 1157 1261 1158
f 1158 1261 1262
f 1158 1262 1263
f 1158 1263 1264
f 1158 1264 1265
f 1158 1265 1227
f 1159 1239 1266
f 1159 1266 1161
f 1160 1267 1268
f 1160 1268 1163
f 1160 1163 1162
f 1160 1161 1266
f 1160 1266 1267
f 1163 1268 1267
f 1163 1267 1269
f 1163 1269 1270
f 1163 1270 1271
f 1163 1271 1272
f 1163 1272 1165
f 1163 1165 1164
f 1165 1272 1273
f 1165 1273 1274
f 1165 1274 1166
f 1166 1274 1275
f 1166 1275 1276
f 1166 1276 1167
f 1167 1276 1277
f 1167 1277 1278
f 1167 1278 1168
f 1168 1173 1169
f 1168 1278 1279
f 1168 1279 1280
f 1168 1280 1281
f 1168 1281 1173
f 1170 1174 1282
f 1170 1282 1283
f 1171 1283 1175
f 1171 1175 1172
f 1173 1281 1284
f 1173 1284 1282
f 1173 1282 1174
f 1175 1283 1282
f 1175 1282 1285
f 1175 1285 1176
f 1176 1285 1380
f 1176 1380 1286
f 1176 1286 1287
f 1176 1287 1177
f 1177 1287 1178
f 1178 1288 1290
f 1178 1290 1179
f 1178 1287 1289
f 1178 1289 1288
f 1179 1290 1385
f 1179 1385 1291
f 1179 1291 1180
f 1180 1291 1292
f 1180 1292 1293
f 1180 1293 1294
f 1180 1294 1184
f 1180 1184 1182
f 1183 1186 1295
f 1183 1295 1187
f 1185 1294 1186
f 1186 1294 1296
f 1186 1296 1297
f 1186 1297 1298
f 1186 1298 1295
f 1187 1295 1188
f 1188 1299 1300
f 1188 1300 1190
f 1188 1295 1298
f 1188 1298 1297
f 1188 1297 1301
f 1188 1301 1299
f 1189 1302 1210
f 1189 1190 1300
f 1189 1300 1302
f 1192 1303 1193
f 1193 1304 1198
f 1193 1198 1196
f 1193 1303 1304
f 1196 1198 1197
f 1198 1304 1199
f 1199 1305 1306
f 1199 1306 1307
f 1199 1307 1200
f 1199 1304 1305
f 1200 1307 1308
f 1200 1308 1201
f 1201 1308 1202
f 1202 1308 1207
f 1202 1207 1204
f 1204 1206 1205
f 1207 1308 1309
f 1207 1309 1208
f 1208 1310 1311
f 1208 1311 1312
f 1208 1312 1215
f 1208 1215 1209
f 1208 1309 1310
f 1210 1302 1211
f 1211 1313 1212
f 1211 1302 1314
f 1211 1314 1315
f 1211 1315 1313
f 1212 1313 1316
f 1212 1316 1317
f 1212 1317 1318
f 1212 1318 1213
f 1214 1216 1224
f 1215 1312 1319
f 1215 1319 1216
f 1216 1319 1224
f 1219 1221 1320
f 1219 1320 1321
f 1219 1321 1322
f 1219 1322 1323
f 1219 1323 1222
f 1220 1226 1221
f 1221 1226 1320
f 1222 1324 1223
f 1222 1323 1324
f 1223 1324 1240
f 1224 1319 1325
f 1224 1325 1326
f 1224 1326 1225
f 1225 1326 1327
f 1225 1327 1226
f 1226 1327 1321
f 1226 1321 1320
f 1227 1265 1237
f 1229 1237 1328
f 1229 1328 1329
f 1229 1329 1230
f 1230 1329 1330
f 1230 1330 1331
f 1230 1331 1232
f 1231 1332 1233
f 1231 1232 1332
f 1233 1332 1333
f 1233 1333 1334
f 1233 1334 1335
f 1233 1335 1234
f 1235 1336 1337
f 1235 1337 1238
f 1235 1238 1338
f 1235 1338 1236
f 1236 1338 1238
f 1237 1339 1328
f 1237 1265 1264
f 1237 1264 1340
f 1237 1340 1339
f 1238 1341 1342
f 1238 1342 1343
f 1238 1343 1344
f 1238 1344 1239
f 1238 1337 1341
f 1239 1344 1343
f 1239 1343 1345
f 1239 1345 1266
f 1240 1324 1346
f 1240 1346 1347
f 1240 1347 1241
f 1241 1347 1242
f 1242 1347 1243
f 1243 1347 1348
f 1243 1348 1349
f 1243 1349 1247
f 1246 1249 1250
f 1247 1349 1350
f 1247 1350 1351
f 1247 1351 1352
f 1247 1352 1248
f 1248 1353 1354
f 1248 1354 1249
f 1248 1352 1353
f 1249 1354 1355
f 1249 1355 1250
f 1250 1355 1252
f 1250 1252 1251
f 1252 1355 1356
f 1252 1356 1253
f 1253 1356 1258
f 1253 1258 1254
f 1254 1258 1257
f 1255 1357 1358
f 1255 1358 1259
f 1255 1259 1256
f 1255 1258 1359
f 1255 1359 1357
f 1258 1356 1359
f 1259 1358 1360
f 1259 1360 1361
f 1259 1361 1260
f 1260 1361 1261
f 1261 1362 1262
f 1261 1361 1362
f 1262 1362 1263
f 1263 1363 1264
f 1264 1363 1340
f 1266 1345 1364
f 1266 1364 1365
f 1266 1365 1267
f 1267 1365 1366
f 1267 1366 1367
f 1267 1367 1368
f 1267 1368 1269
f 1269 1369 1270
f 1269 1368 1370
f 1269 1370 1369
f 1270 1369 1371
f 1270 1371 1372
f 1270 1372 1273
f 1270 1273 1271
f 1271 1273 1272
f 1273 1372 1274
f 1274 1373 1374
f 1274 1374 1276
f 1274 1276 1275
f 1276 1374 1375
f 1276 1375 1277
f 1277 1376 1279
f 1277 1279 1278
f 1277 1375 1376
f 1279 1376 1375
f 1279 1375 1377
f 1279 1377 1378
f 1279 1378 1280
f 1280 1378 1281
f 1281 1378 1379
f 1281 1379 1284
f 1282 1284 1379
f 1282 1379 1380
f 1282 1380 1285
f 1286 1380 1379
f 1286 1379 1381
f 1286 1381 1382
f 1286 1382 1287
f 1287 1382 1383
f 1287 1383 1289
f 1288 1384 1290
f 1288 1289 1384
f 1289 1383 1384
f 1290 1384 1385
f 1291 1385 1292
f 1292 1385 1386
f 1292 1386 1387
f 1293 1388 1389
f 1293 1389 1294
f 1294 1389 1296
f 1296 1389 1390
f 1296 1390 1391
f 1296 1391 1297
f 1297 1391 1393
f 1297 1393 1301
f 1299 1314 1302
f 1299 1302 1300
f 1299 1301 1393
f 1299 1393 1392
f 1299 1392 1314
f 1303 1394 1304
f 1304 1394 1395
f 1304 1395 1396
f 1304 1396 1305
f 1305 1397 1306
f 1305 1396 1398
f 1305 1398 1399
f 1305 1399 1400
f 1305 1400 1401
f 1305 1401 1402
f 1305 1402 1403
f 1305 1403 1397
f 1306 1397 1404
f 1306 1404 1405
f 1306 1405 1309
f 1306 1309 1308
f 1306 1308 1307
f 1309 1405 1404
f 1309 1404 1406
f 1309 1406 1310
f 1310 1406 1404
f 1310 1404 1407
f 1310 1407 1408
f 1310 1408 1311
f 1311 1409 1410
f 1311 1410 1411
f 1311 1411 1312
f 1311 1408 1412
f 1311 1412 1460
f 1311 1460 1409
f 1312 1411 1319
f 1313 1413 1316
f 1313 1315 1413
f 1314 1392 1315
f 1315 1392 1414
f 1315 1414 1415
f 1315 1415 1416
f 1315 1416 1413
f 1316 1413 1317
f 1317 1413 1417
f 1319 1411 1418
f 1319 1418 1419
f 1319 1419 1326
f 1319 1326 1325
f 1321 1327 1421
f 1321 1421 1322
f 1322 1420 1323
f 1322 1421 1420
f 1323 1420 1422
f 1323 1422 1423
f 1323 1423 1324
f 1324 1423 1346
f 1326 1419 1421
f 1326 1421 1327
f 1333 1424 1334
f 1334 1424 1335
f 1336 1341 1337
f 1346 1348 1347
f 1346 1423 1425
f 1346 1425 1348
f 1348 1426 1427
f 1348 1427 1349
f 1348 1425 1426
f 1349 1428 1429
f 1349 1429 1350
f 1349 1427 1428
f 1364 1366 1365
f 1367 1370 1368
f 1369 1372 1371
f 1373 1430 1374
f 1374 1430 1431
f 1374 1431 1375
f 1375 1431 1432
f 1375 1432 1433
f 1375 1433 1377
f 1377 1433 1434
f 1377 1434 1378
f 1378 1434 1435
f 1378 1435 1379
f 1379 1435 1436
f 1379 1436 1381
f 1381 1436 1437
f 1381 1437 1438
f 1381 1438 1439
f 1381 1439 1382
f 1382 1440 1441
f 1382 1441 1383
f 1382 1439 1442
f 1382 1442 1443
f 1382 1443 1440
f 1383 1444 1445
f 1383 1445 1384
f 1383 1441 1446
f 1383 1446 1444
f 1384 1445 1386
f 1384 1386 1385
f 1386 1445 1387
f 1387 1445 1447
f 1388 1448 1390
f 1388 1390 1389
f 1390 1448 1449
f 1390 1449 1450
f 1390 1450 1391
f 1391 1450 1451
f 1391 1451 1452
f 1391 1452 1414
f 1391 1414 1393
f 1392 1393 1414
f 1397 1453 1407
f 1397 1407 1404
f 1397 1403 1454
f 1397 1454 1453
f 1403 1455 1454
f 1407 1453 1456
f 1407 1456 1408
f 1408 1456 1460
f 1408 1460 1412
f 1409 1457 1458
f 1409 1458 1459
f 1409 1459 1410
f 1409 1460 1461
f 1409 1461 1462
f 1409 1462 1463
f 1409 1463 1457
f 1410 1464 1411
f 1410 1459 1465
f 1410 1465 1464
f 1411 1464 1465
f 1411 1465 1466
f 1411 1466 1418
f 1413 1416 1417
f 1414 1452 1467
f 1414 1467 1415
f 1418 1466 1468
f 1418 1468 1469
f 1418 1469 1470
f 1418 1470 1419
f 1419 1470 1421
f 1420 1421 1422
f 1421 1470 1422
f 1422 1470 1471
f 1422 1471 1472
f 1422 1472 1473
f 1422 1473 1423
f 1423 1473 1425
f 1425 1473 1426
f 1426 1474 1475
f 1426 1475 1476
f 1426 1476 1427
f 1426 1473 1474
f 1427 1476 1428
f 1428 1476 1477
f 1431 1478 1432
f 1432 1478 1479
f 1432 1479 1480
f 1432 1480 1433
f 1433 1480 1434
f 1434 1480 1437
f 1434 1437 1435
f 1435 1437 1436
f 1437 1480 1481
f 1437 1481 1438
f 1438 1481 1439
f 1439 1481 1442
f 1440 1482 1446
f 1440 1446 1441
f 1440 1443 1442
f 1440 1442 1481
f 1444 1446 1483
f 1444 1483 1445
f 1445 1483 1482
f 1445 1482 1447
f 1446 1482 1483
f 1453 1484 1456
f 1453 1454 1485
f 1453 1485 1486
f 1453 1486 1487
f 1453 1487 1488
f 1453 1488 1484
f 1454 1455 1489
f 1454 1489 1490
f 1454 1490 1485
f 1456 1484 1461
f 1456 1461 1460
f 1457 1491 1458
f 1458 1491 1459
f 1459 1468 1466
f 1459 1466 1465
f 1459 1491 1492
f 1459 1492 1493
f 1459 1493 1468
f 1461 1484 1488
f 1461 1488 1494
f 1461 1494 1495
f 1461 1495 1462
f 1468 1493 1496
f 1468 1496 1497
f 1468 1497 1498
f 1468 1498 1469
f 1469 1498 1471
f 1469 1471 1470
f 1471 1498 1472
f 1472 1498 1497
f 1472 1497 1473
f 1473 1493 1499
f 1473 1499 1500
f 1473 1500 1474
f 1473 1497 1496
f 1473 1496 1493
f 1474 1500 1475
f 1475 1500 1501
f 1475 1501 1502
f 1475 1502 1503
f 1475 1503 1504
f 1475 1504 1476
f 1476 1504 1477
f 1478 1481 1479
f 1479 1481 1480
f 1491 1505 1492
f 1492 1505 1506
f 1492 1506 1507
f 1492 1507 1508
f 1492 1508 1493
f 1493 1508 1501
f 1493 1501 1500
f 1493 1500 1499
f 1501 1509 1502
f 1501 1508 1509
f 1506 1510 1507
f 1507 1510 1508
f 1508 1510 1509

