# https://github.com/mikedh/trimesh
v 0.02007667 -0.01307094 0.00039294
v 0.02007667 -0.00738304 0.00022899
v 0.02246016 -0.00738304 0.00018214
v 0.02246016 -0.00976615 0.00025241
v 0.02246016 -0.01214925 0.00034610
v 0.02246016 -0.01307094 0.00039294
v 0.00339227 -0.01307094 0.00118930
v 0.02007667 -0.00499994 0.00018214
v 0.02246016 -0.00499994 0.00013529
v 0.02722713 -0.00499994 0.00018214
v 0.02484364 -0.01214925 0.00041637
v 0.02339108 -0.01307094 0.00041637
v 0.02722713 -0.00738304 0.00027584
v 0.00109706 -0.01307094 0.00130641
v 0.02007667 -0.00261684 0.00022899
v 0.02246016 -0.00261684 0.00011188
v 0.00128967 -0.01214925 0.00130641
v 0.02722713 -0.00261684 0.00015873
v 0.02961061 -0.00261684 0.00022899
v 0.02961061 -0.00499994 0.00027584
v 0.02722713 -0.01214925 0.00051005
v 0.02484364 -0.01307094 0.00046320
v -0.00003449 -0.01307094 0.00140009
v 0.02007667 -0.00023373 0.00029926
v 0.00194774 -0.00793938 0.00137666
v 0.02722713 -0.00023373 0.00015873
v 0.02246016 -0.00023373 0.00018214
v 0.02722713 0.00453248 0.00025241
v 0.00044702 -0.00976615 0.00144693
v 0.02961061 -0.00023373 0.00022899
v 0.03676107 0.00692389 0.00065060
v 0.03199410 -0.00261684 0.00039294
v 0.03199410 -0.00499994 0.00046320
v 0.03199410 -0.00738304 0.00055690
v 0.02961061 -0.01214925 0.00062716
v 0.02722713 -0.01307094 0.00055690
v -0.00130247 -0.01307094 0.00154062
v -0.00137470 -0.00976615 0.00163431
v 0.02246016 0.00453248 0.00036952
v 0.01530970 0.05220286 0.00264145
v 0.01530970 0.05459428 0.00273514
v 0.00108904 -0.00724188 0.00147036
v 0.02961061 0.00453248 0.00027584
v 0.02961061 0.00692389 0.00034610
v 0.01769319 0.05459428 0.00261804
v 0.02722713 0.05459428 0.00243066
v 0.02961061 0.05459428 0.00240724
v 0.03199410 0.00692389 0.00041637
v 0.03676107 -0.00023373 0.00076769
v 0.03914456 0.01407320 0.00088481
v 0.03914456 0.01169010 0.00086138
v 0.03914456 0.00692389 0.00086138
v 0.03437759 -0.00261684 0.00060373
v 0.03437759 -0.00499994 0.00067401
v 0.03676107 -0.01214925 0.00121272
v 0.03680120 -0.01307094 0.00125955
v 0.03199410 -0.01307094 0.00083796
v 0.02961061 -0.01307094 0.00067401
v -0.00375819 -0.01307094 0.00203249
v 0.00100879 -0.00499994 0.00156404
v -0.00375819 -0.00499994 0.00233697
v -0.00137470 -0.00499994 0.00182168
v 0.01769319 0.05697738 0.00280541
v 0.00339227 0.02122251 0.00243066
v 0.01292621 0.05220286 0.00287567
v 0.01292621 0.05459428 0.00301621
v 0.01530970 0.05697738 0.00294595
v 0.03676107 0.01407320 0.00081454
v 0.03199410 0.05220286 0.00233697
v 0.02246016 0.05697738 0.00271172
v 0.02722713 0.05697738 0.00271172
v 0.03199410 0.05459428 0.00245408
v 0.03914456 0.00453248 0.00090822
v 0.03676107 -0.00499994 0.00090822
v 0.04152804 0.01407320 0.00111902
v 0.03437759 0.05220286 0.00243066
v 0.04629501 0.03552114 0.00221986
v 0.04152804 0.01169010 0.00111902
v 0.04152804 0.00930699 0.00114245
v 0.03676107 -0.00738304 0.00100191
v 0.03802103 -0.01307094 0.00137666
v 0.03753952 -0.01307094 0.00132983
v -0.00614167 -0.01307094 0.00292252
v -0.00588486 -0.00499994 0.00322701
v -0.00573238 -0.00261684 0.00332069
v -0.00375819 -0.00261684 0.00250092
v 0.00100879 0.02360562 0.00299279
v 0.01769319 0.05936048 0.00310990
v 0.00622517 0.04743666 0.00355491
v 0.00815924 0.04981976 0.00336754
v 0.00804689 0.05225269 0.00357834
v 0.01054273 0.05459428 0.00339096
v 0.01292621 0.05697738 0.00325043
v 0.01530970 0.05936048 0.00325043
v 0.02007667 0.05936048 0.00308648
v 0.02246016 0.05936048 0.00308648
v 0.02961061 0.05697738 0.00275857
v 0.03199410 0.05697738 0.00282883
v 0.03437759 0.05459428 0.00254777
v 0.04152804 0.00692389 0.00118930
v 0.04166447 0.00476498 0.00125955
v 0.04112678 0.00214937 0.00125955
v 0.03914456 -0.00261684 0.00111902
v 0.03881552 -0.00738304 0.00125955
v 0.04629501 0.03313803 0.00214959
v 0.04867850 0.03552114 0.00247750
v 0.04308493 0.01407320 0.00132983
v 0.03676107 0.05220286 0.00254777
v 0.03914456 0.05459428 0.00278199
v 0.04867850 0.04505355 0.00285226
v 0.04306888 0.01169010 0.00132983
v 0.04295653 0.00930699 0.00135325
v 0.04281208 0.00692389 0.00137666
v 0.04001128 -0.00738304 0.00144693
v 0.04152804 -0.00738304 0.00172799
v 0.04391153 -0.00738304 0.00247750
v 0.03914456 -0.01307094 0.00175142
v -0.00696827 -0.01307094 0.00332069
v -0.00757016 -0.01307094 0.00362518
v -0.00549163 -0.00023373 0.00346122
v -0.00044378 0.02598872 0.00364860
v -0.00708062 -0.00499994 0.00397651
v -0.00692814 -0.00261684 0.00411704
v 0.00100879 0.02598872 0.00320359
v 0.00679496 0.05148046 0.00371887
v 0.00655420 0.04981976 0.00364860
v 0.01530970 0.06089663 0.00360176
v 0.01769319 0.06102118 0.00353150
v 0.02007667 0.06102949 0.00350807
v 0.00717214 0.05307473 0.00381256
v 0.00885744 0.05459428 0.00367203
v 0.01059891 0.05680301 0.00362518
v 0.01142550 0.05860487 0.00371887
v 0.01287806 0.05938539 0.00357834
v 0.01364046 0.06071396 0.00369545
v 0.02246016 0.06096306 0.00355491
v 0.02484364 0.05936048 0.00315674
v 0.03437759 0.05697738 0.00294595
v 0.04272380 0.00570327 0.00140009
v 0.04254724 0.00411730 0.00142351
v 0.04042056 -0.00416128 0.00137666
v 0.03930506 -0.00497503 0.00123613
v 0.05106199 0.04505355 0.00310990
v 0.05106199 0.04267045 0.00306305
v 0.04867850 0.03313803 0.00245408
v 0.04629501 0.02122251 0.00191537
v 0.04629501 0.01883941 0.00189195
v 0.04428069 0.01407320 0.00154062
v 0.03676107 0.05697738 0.00308648
v 0.04152804 0.05459428 0.00294595
v 0.04867850 0.04743666 0.00301621
v 0.04426464 0.01169010 0.00154062
v 0.04415228 0.00930699 0.00158746
v 0.04399980 0.00692389 0.00163431
v 0.04177682 -0.00261684 0.00156404
v 0.04367880 0.00476498 0.00165773
v 0.04391153 0.00214937 0.00184511
v 0.04629501 0.00692389 0.00229013
v 0.04629501 0.00453248 0.00250092
v 0.04829329 0.00692389 0.00325043
v 0.04572523 -0.00738304 0.00339096
v 0.04545237 -0.00917660 0.00355491
v 0.04405598 -0.00989070 0.00310990
v 0.04152804 -0.01307094 0.00273514
v 0.04016376 -0.01307094 0.00214959
v 0.04629501 0.00930699 0.00212618
v -0.00876591 -0.01307094 0.00472602
v -0.00163953 0.02598872 0.00442153
v -0.00026722 0.02748335 0.00374229
v 0.00535845 0.04981976 0.00404678
v -0.00990549 -0.01307094 0.00592054
v -0.00801154 -0.00261684 0.00531157
v -0.00782696 -0.00023373 0.00552236
v -0.00668738 -0.00023373 0.00432784
v -0.00303592 0.02598872 0.00561605
v 0.00591219 0.05225269 0.00414047
v 0.01530970 0.06209233 0.00428100
v 0.01769319 0.06221689 0.00423415
v 0.02007667 0.06221689 0.00425758
v 0.00766168 0.05459428 0.00392967
v 0.00928277 0.05589792 0.00376572
v 0.00577576 0.05459428 0.00456206
v 0.00983651 0.05748390 0.00388282
v 0.01205147 0.06019914 0.00383598
v 0.01054273 0.06174359 0.00481971
v 0.01287806 0.06160243 0.00430442
v 0.01292621 0.06384437 0.00556921
v 0.02484364 0.06085511 0.00360176
v 0.02246016 0.06215876 0.00432784
v 0.02722713 0.06071396 0.00367203
v 0.02722713 0.05936048 0.00327385
v 0.05106199 0.04743666 0.00327385
v 0.05266703 0.04743666 0.00360176
v 0.05280345 0.04505355 0.00350807
v 0.05106199 0.04028734 0.00306305
v 0.05280345 0.04267045 0.00350807
v 0.04629501 0.01407320 0.00193880
v 0.03437759 0.05882906 0.00353150
v 0.03914456 0.05833915 0.00369545
v 0.03914456 0.05697738 0.00325043
v 0.04391153 0.05651238 0.00353150
v 0.04391153 0.05459428 0.00315674
v 0.04867850 0.04981976 0.00322701
v 0.04629501 0.01169010 0.00200906
v 0.04846985 0.00930699 0.00313332
v 0.04807661 0.00453248 0.00339096
v 0.04966560 0.00930699 0.00395309
v 0.04692098 -0.00738304 0.00414047
v 0.04797228 -0.01307094 0.00582685
v 0.04216203 -0.01307094 0.00301621
v 0.04629501 -0.01307094 0.00496024
v 0.05249850 0.03552114 0.00362518
v 0.04859825 0.01169010 0.00306305
v 0.00165080 0.04981976 0.00580343
v 0.00339227 0.04981976 0.00488997
v -0.00973696 -0.01085390 0.00613134
v -0.01074012 -0.01307094 0.00734928
v -0.00949620 -0.00738304 0.00659978
v -0.00887024 -0.00023373 0.00734928
v -0.00024315 0.05366428 0.00845012
v 0.00046307 0.04981976 0.00685742
v 0.00339227 0.05220286 0.00521788
v 0.01530970 0.06395231 0.00545210
v 0.01769319 0.06393571 0.00542867
v 0.02007667 0.06384437 0.00545210
v 0.00577576 0.05697738 0.00503050
v 0.00835185 0.05680301 0.00414047
v 0.00326387 0.05450294 0.00568632
v 0.00396206 0.05697738 0.00585027
v 0.01059891 0.05938539 0.00402336
v 0.00815924 0.05936048 0.00472602
v 0.00811109 0.06181832 0.00559263
v 0.00887349 0.06322161 0.00599081
v 0.01054273 0.06355375 0.00578001
v 0.01292621 0.06503177 0.00636556
v 0.02246016 0.06371152 0.00552236
v 0.02484364 0.06205082 0.00444495
v 0.03914456 0.06151940 0.00538183
v 0.02881612 0.06059771 0.00374229
v 0.05117434 0.04992771 0.00355491
v 0.05245034 0.04919700 0.00369545
v 0.05332509 0.04992771 0.00418731
v 0.05385476 0.04743666 0.00416389
v 0.05399921 0.04505355 0.00414047
v 0.05273123 0.04028734 0.00353150
v 0.05399921 0.04267045 0.00416389
v 0.04205771 0.05799871 0.00383598
v 0.04136754 0.05711023 0.00348465
v 0.03040511 0.06045654 0.00381256
v 0.03437759 0.06002476 0.00397651
v 0.03914456 0.05953485 0.00418731
v 0.04391153 0.05770809 0.00395309
v 0.04629501 0.05607230 0.00367203
v 0.04629501 0.05459428 0.00343781
v 0.04754695 0.05582319 0.00376572
v 0.05262690 0.03790424 0.00357834
v 0.05228182 0.03181778 0.00376572
v 0.04948102 0.00692389 0.00411704
v 0.05701669 0.04389107 0.00615476
v 0.04823711 -0.00976615 0.00554579
v 0.04924829 -0.01214925 0.00692768
v 0.04916804 -0.01307094 0.00702137
v 0.05391896 0.04028734 0.00425758
v 0.00193168 0.05220286 0.00599081
v -0.01175128 -0.01307094 0.00971490
v -0.00968078 -0.00172006 0.00866091
v -0.00928755 -0.00255041 0.00748981
v -0.00061231 0.05451124 0.00962122
v -0.00006659 0.05525855 0.00875460
v 0.00141005 0.05697738 0.00772404
v 0.00103286 0.05445311 0.00737271
v 0.00073593 0.05220286 0.00709164
v 0.00213231 0.05364767 0.00610791
v 0.01530970 0.06513971 0.00629529
v 0.01769319 0.06513142 0.00631872
v 0.00437135 0.05850522 0.00606107
v 0.00571958 0.05932727 0.00568632
v 0.00238110 0.05524195 0.00627187
v 0.00277433 0.05697738 0.00652951
v 0.00648198 0.06107931 0.00594396
v 0.00728450 0.06267358 0.00629529
v 0.00794256 0.06425955 0.00720875
v 0.01054273 0.06474946 0.00659978
v 0.01054273 0.06595346 0.00777088
v 0.01292621 0.06612783 0.00756008
v 0.02484364 0.06354544 0.00561605
v 0.02007667 0.06504008 0.00643582
v 0.04152804 0.06138654 0.00552236
v 0.05204106 0.05079127 0.00381256
v 0.05344547 0.05220286 0.00463233
v 0.05555610 0.05220286 0.00566290
v 0.05602959 0.04979486 0.00559263
v 0.05706484 0.04898111 0.00613134
v 0.05582896 0.04743666 0.00531157
v 0.05710497 0.04743666 0.00610791
v 0.05708892 0.04547703 0.00610791
v 0.04136754 0.05913629 0.00425758
v 0.04391153 0.05936048 0.00465575
v 0.04391153 0.06120386 0.00568632
v 0.04629501 0.05726800 0.00411704
v 0.04926434 0.05459428 0.00390625
v 0.05117434 0.05239384 0.00390625
v 0.04847787 0.05676149 0.00432784
v 0.05106199 0.05697738 0.00503050
v 0.05106199 0.05459428 0.00430442
v 0.05066072 0.00692389 0.00531157
v 0.05787539 0.04482936 0.00711506
v 0.05785933 0.04267045 0.00744297
v 0.04953720 -0.01307094 0.00746640
v -0.00957646 -0.00023373 0.00901225
v -0.01205625 -0.01307094 0.01072205
v -0.00980919 0.00151831 0.01062836
v -0.00943201 0.00224902 0.00978518
v -0.00141483 0.05459428 0.01212737
v -0.00041970 0.05697738 0.01041757
v 0.00021429 0.05697738 0.00922304
v 0.00182736 0.05885397 0.00814563
v 0.01530970 0.06616105 0.00748981
v 0.01769319 0.06611953 0.00751324
v 0.00489299 0.06009950 0.00631872
v 0.00332005 0.05947674 0.00723218
v 0.00571958 0.06181832 0.00674031
v 0.00445963 0.06306385 0.00842670
v 0.00577576 0.06361187 0.00795826
v 0.00701164 0.06528918 0.00856723
v 0.00860063 0.06565453 0.00814563
v 0.01292621 0.06731523 0.00931673
v 0.01035012 0.06724880 0.00983202
v 0.03914456 0.06270680 0.00643582
v 0.02246016 0.06489892 0.00659978
v 0.04152804 0.06257394 0.00659978
v 0.02007667 0.06600328 0.00763035
v 0.05344547 0.05459428 0.00512419
v 0.05511471 0.05459428 0.00589712
v 0.05674383 0.05220286 0.00631872
v 0.05695249 0.05056707 0.00620160
v 0.05793958 0.04979486 0.00713849
v 0.05932795 0.04981976 0.00868434
v 0.05821244 0.04743666 0.00734928
v 0.05932795 0.04743666 0.00870776
v 0.04629501 0.05936048 0.00503050
v 0.04629501 0.06095475 0.00587370
v 0.04391153 0.06239956 0.00678715
v 0.04874270 0.05950994 0.00559263
v 0.05106199 0.05882906 0.00582685
v 0.05253862 0.05839728 0.00603765
v 0.05338127 0.05686944 0.00578001
v 0.05923164 0.04505355 0.00894198
v 0.05005883 -0.01307094 0.00821590
v -0.01214452 -0.01307094 0.01104996
v -0.01157473 -0.00738304 0.01212737
v -0.01120558 -0.00499994 0.01212737
v -0.00968078 0.00310428 0.01112023
v -0.01000982 0.00224902 0.01198684
v -0.01200007 -0.00738304 0.01390745
v -0.01212045 -0.00611261 0.01561726
v -0.00135865 0.05697738 0.01449300
v -0.00095739 0.05697738 0.01212737
v -0.00022709 0.05828102 0.01083917
v 0.00096866 0.05936048 0.00971490
v 0.00226874 0.06043994 0.00861407
v 0.01530970 0.06735675 0.00929331
v 0.01769319 0.06730693 0.00943384
v 0.00394601 0.06174359 0.00798167
v 0.00264593 0.06196778 0.00955095
v 0.00221257 0.06291438 0.01095627
v 0.00403429 0.06396892 0.00997255
v 0.00457198 0.06533070 0.01090943
v 0.00577576 0.06479927 0.00915278
v 0.00577576 0.06570436 0.01034730
v 0.00795059 0.06629391 0.00952753
v 0.00942723 0.06768889 0.01095627
v 0.01101622 0.06781344 0.01069863
v 0.01292621 0.06789648 0.01051126
v 0.02246016 0.06584552 0.00779430
v 0.04391153 0.06331295 0.00798167
v 0.05477766 0.05600587 0.00608449
v 0.05631047 0.05459428 0.00664662
v 0.05769080 0.05459428 0.00784114
v 0.05800379 0.05220286 0.00751324
v 0.05919955 0.05220286 0.00887172
v 0.05988971 0.05220286 0.01006624
v 0.05996996 0.04981976 0.00987886
v 0.05991378 0.04743666 0.00990228
v 0.04798833 0.06072225 0.00603765
v 0.04629501 0.06214215 0.00702137
v 0.04629501 0.06314687 0.00821590
v 0.04957732 0.06041503 0.00624845
v 0.05106199 0.06002476 0.00648267
v 0.05354178 0.05943522 0.00725559
v 0.05412761 0.05759184 0.00638898
v 0.05074900 -0.01307094 0.00973833
v 0.05976130 0.04505355 0.01013650
v -0.01226490 -0.01307094 0.01156525
v -0.01208834 -0.00868669 0.01339217
v -0.01082839 -0.00261684 0.01212737
v -0.01220070 -0.00738304 0.01510197
v -0.01275444 -0.01307094 0.01449300
v -0.01259393 -0.00976615 0.01688204
v -0.01232910 -0.00738304 0.01688204
v -0.01423910 -0.01307094 0.04192019
v -0.01429528 -0.01307094 0.04311471
v -0.01302729 0.00214937 0.06695832
v -0.01219268 0.00376025 0.05264747
v -0.00140680 0.05697738 0.01688204
v -0.00093331 0.05936048 0.01688204
v -0.00078886 0.05936048 0.01449300
v -0.00038760 0.05919441 0.01233817
v -0.00019499 0.06057279 0.01327505
v 0.00010996 0.05987530 0.01168235
v 0.00169895 0.06132841 0.01020677
v 0.01530970 0.06789648 0.01046441
v 0.01769319 0.06783005 0.01062836
v 0.02006062 0.06726541 0.00990228
v 0.04629501 0.06397723 0.00973833
v 0.00096866 0.06174359 0.01210395
v 0.00182736 0.06341259 0.01254897
v 0.00285458 0.06417651 0.01189316
v 0.00420282 0.06564623 0.01212737
v 0.00592824 0.06683363 0.01226790
v 0.00682706 0.06777193 0.01315795
v 0.00815924 0.06747300 0.01142472
v 0.00815924 0.06798781 0.01261924
v 0.00815924 0.06866040 0.01449300
v 0.01054273 0.06919183 0.01449300
v 0.01035012 0.06820371 0.01189316
v 0.01292621 0.06854415 0.01212737
v 0.05583698 0.05697738 0.00730244
v 0.05732967 0.05636292 0.00821590
v 0.05888656 0.05459428 0.00931673
v 0.05964895 0.05459428 0.01051126
v 0.06087681 0.05220286 0.01212737
v 0.06100521 0.04981976 0.01212737
v 0.06086878 0.04743666 0.01212737
v 0.04871863 0.06177680 0.00732586
v 0.05106199 0.06139484 0.00767719
v 0.04785993 0.06301402 0.00842670
v 0.05294791 0.06097136 0.00809879
v 0.05453690 0.06047315 0.00861407
v 0.05529929 0.05888719 0.00798167
v 0.06053172 0.04505355 0.01212737
v 0.05161573 -0.01307094 0.01212737
v -0.01238528 -0.01307094 0.01212737
v -0.01262604 -0.01307094 0.01357954
v -0.01233713 -0.00959177 0.01430563
v -0.01285074 -0.01307094 0.01596858
v -0.01447183 -0.01307094 0.05311591
v -0.01335633 -0.00023373 0.06695832
v -0.01257788 -0.00261684 0.11940023
v -0.01086852 0.01407320 0.08124576
v -0.01045120 0.01645630 0.08124576
v -0.00039562 0.06105440 0.01688204
v -0.00127037 0.05936048 0.05742557
v -0.00029932 0.06081359 0.01449300
v 0.00030257 0.06200099 0.01449300
v 0.01530970 0.06851924 0.01212737
v 0.01925810 0.06774702 0.01081574
v 0.01769319 0.06834487 0.01212737
v 0.04391153 0.06508160 0.01163551
v 0.04637527 0.06499856 0.01222106
v 0.04867850 0.06457508 0.01212737
v 0.04866245 0.06347902 0.00959780
v 0.00149832 0.06386928 0.01449300
v 0.00243727 0.06506499 0.01449300
v 0.00363303 0.06614444 0.01449300
v 0.00522202 0.06734015 0.01449300
v 0.00640975 0.06800442 0.01449300
v 0.00815924 0.06932468 0.01688204
v 0.00957168 0.07005539 0.01831079
v 0.01043840 0.06986441 0.01690547
v 0.01292621 0.06937450 0.01449300
v 0.01116067 0.07017164 0.01772524
v 0.05688828 0.05794889 0.00868434
v 0.05821244 0.05692756 0.00976175
v 0.05945635 0.05589792 0.01083917
v 0.06041937 0.05459428 0.01212737
v 0.06158303 0.05220286 0.01397772
v 0.06163118 0.04981976 0.01386060
v 0.06155093 0.04743666 0.01418851
v 0.04944892 0.06283965 0.00870776
v 0.05106199 0.06258224 0.00912935
v 0.05350165 0.06181832 0.00969149
v 0.05529127 0.06106270 0.01020677
v 0.05688026 0.06039012 0.01116707
v 0.05609379 0.05964280 0.00945727
v 0.06179169 0.04622435 0.01568752
v 0.05213736 -0.01307094 0.01395429
v -0.01447183 -0.01307094 0.05377173
v -0.01433540 -0.01307094 0.07410204
v -0.01432738 -0.01307094 0.07482812
v -0.01430331 -0.01307094 0.07649109
v -0.01282667 -0.00499994 0.11940023
v -0.01210439 0.00097028 0.11586351
v -0.00751398 -0.01307094 0.21711690
v -0.00252230 0.02917726 0.21992754
v -0.00257045 0.02956753 0.21833485
v 0.00087236 0.05459428 0.20280605
v -0.01037898 0.01645630 0.08363481
v -0.01036293 0.01407320 0.09794566
v -0.00414339 0.04505355 0.11701118
v -0.00423970 0.04505355 0.11225651
v -0.00427982 0.04505355 0.10986747
v 0.00014207 0.06224180 0.01688204
v -0.00056415 0.06139484 0.05742557
v -0.00169571 0.05697738 0.07888013
v -0.00142285 0.05697738 0.10986747
v -0.00073268 0.05936048 0.10986747
v -0.00050798 0.06133671 0.06932395
v 0.00147425 0.06435088 0.01676494
v 0.01530970 0.06928316 0.01449300
v 0.02006062 0.06802933 0.01198684
v 0.04563695 0.06538882 0.01308768
v 0.01769319 0.06903406 0.01449300
v 0.04722594 0.06528088 0.01350927
v 0.05106199 0.06398553 0.01212737
v 0.05106199 0.06325482 0.01032388
v 0.04877480 0.06514803 0.01437589
v 0.05106199 0.06463321 0.01449300
v 0.00222059 0.06529748 0.01587490
v 0.00477261 0.06758094 0.01634334
v 0.00565538 0.06822032 0.01704600
v 0.00826357 0.06976477 0.01917740
v 0.00912227 0.07016333 0.01990349
v 0.01043840 0.07030450 0.01917740
v 0.01292621 0.06992253 0.01641361
v 0.01292621 0.07019655 0.01758471
v 0.01292621 0.07047056 0.01927109
v 0.05749820 0.05880415 0.01027704
v 0.05908719 0.05748390 0.01158867
v 0.05972920 0.05680301 0.01226790
v 0.06050765 0.05697738 0.01449300
v 0.06137437 0.05451124 0.01461011
v 0.06185588 0.05366428 0.01547672
v 0.06194417 0.05220286 0.01517224
v 0.06197626 0.04981976 0.01505512
v 0.06187193 0.04743666 0.01538303
v 0.05246639 0.06303063 0.01074548
v 0.05406341 0.06265697 0.01156525
v 0.05581291 0.06176019 0.01215080
v 0.05732967 0.06085511 0.01273635
v 0.05821244 0.05933557 0.01217422
v 0.06211269 0.04743666 0.01688204
v 0.06187193 0.04585899 0.01688204
v 0.05464925 -0.00386236 0.02039535
v 0.05322879 -0.01214925 0.01927109
v 0.05275530 -0.01307094 0.01683520
v 0.05241022 -0.01307094 0.01505512
v 0.05226577 -0.01307094 0.01446958
v -0.01285074 -0.00738304 0.11940023
v -0.01245751 -0.01307094 0.12424859
v -0.00906284 -0.01307094 0.19095451
v -0.00740965 -0.01307094 0.21866276
v -0.00738558 -0.01295469 0.21880329
v -0.00733742 -0.01307094 0.21955279
v -0.00261861 0.02759130 0.22086442
v 0.00151438 0.04743666 0.22664967
v 0.00150635 0.04981976 0.22426062
v 0.00176316 0.05220286 0.22187157
v 0.00224467 0.05556578 0.21999781
v 0.00247740 0.05675318 0.21931857
v 0.00149832 0.05697738 0.20280605
v -0.00045180 0.05916120 0.13605329
v -0.00092529 0.05697738 0.13605329
v -0.00362978 0.04743666 0.11701118
v -0.00269886 0.05158841 0.11701118
v -0.00242600 0.05277581 0.11701118
v -0.00243403 0.05281732 0.11462214
v 0.00130572 0.06412669 0.01927109
v -0.00001041 0.06257394 0.05503652
v 0.00092051 0.06412669 0.05503652
v -0.00000239 0.06252411 0.06932395
v -0.00001844 0.06259054 0.05742557
v -0.00200869 0.05459428 0.11225651
v -0.00013079 0.06035690 0.13605329
v 0.00039085 0.06174359 0.13605329
v 0.00214837 0.06538052 0.01746759
v 0.01460348 0.07014673 0.01779550
v 0.01535785 0.06987271 0.01695231
v 0.04637527 0.06556319 0.01437589
v 0.04804451 0.06543034 0.01510197
v 0.05334114 0.06325482 0.01226790
v 0.05344547 0.06385268 0.01449300
v 0.04968165 0.06528088 0.01688204
v 0.05106199 0.06494043 0.01688204
v 0.05344547 0.06420142 0.01688204
v 0.00455593 0.06773041 0.01793603
v 0.00577576 0.06859397 0.01927109
v 0.00771786 0.06978968 0.02166014
v 0.00890559 0.07025467 0.02166014
v 0.01054273 0.07059512 0.02166014
v 0.01535785 0.07026298 0.01924767
v 0.01292621 0.07073628 0.02166014
v 0.05947240 0.05827273 0.01315795
v 0.05970513 0.05862147 0.01449300
v 0.06122992 0.05675318 0.01709285
v 0.06165525 0.05525025 0.01641361
v 0.06196021 0.05451124 0.01709285
v 0.06228925 0.05220286 0.01688204
v 0.06232937 0.04981976 0.01688204
v 0.05473753 0.06299742 0.01315795
v 0.05622219 0.06239126 0.01449300
v 0.05769080 0.06119555 0.01449300
v 0.05887854 0.05981718 0.01449300
v 0.06254605 0.04981976 0.01927109
v 0.06229727 0.04743666 0.01927109
v 0.05567648 -0.00976615 0.04072566
v 0.05497829 -0.01307094 0.03840688
v 0.05496223 -0.00261684 0.02166014
v 0.05471345 -0.00425262 0.02166014
v 0.05307631 -0.01307094 0.01927109
v -0.00709667 -0.01307094 0.22187157
v -0.00693616 -0.01307094 0.22306609
v -0.00678369 -0.01307094 0.22419035
v -0.00665528 -0.01214925 0.22426062
v -0.00639045 -0.01307094 0.22571278
v -0.00602932 -0.01214925 0.22664967
v -0.00573238 -0.00976615 0.22664967
v 0.00192366 0.04983637 0.22667308
v 0.00210824 0.04905584 0.22803156
v 0.00210021 0.05138913 0.22592358
v 0.00200391 0.05219457 0.22412009
v 0.00217244 0.05353973 0.22325347
v 0.00233295 0.05512570 0.22187157
v 0.00279038 0.05697738 0.22187157
v 0.00324782 0.05936048 0.21950595
v 0.00214837 0.05833085 0.20706886
v 0.00209219 0.05847201 0.20519510
v 0.00220454 0.06053128 0.19154005
v 0.00092853 0.06412669 0.06932395
v 0.00193971 0.06563793 0.06932395
v 0.00193971 0.06564623 0.05503652
v 0.00151438 0.06408517 0.13368766
v 0.00258173 0.06151109 0.19081397
v 0.00379353 0.06412669 0.19088423
v 0.00153042 0.06402705 0.13605329
v 0.00445963 0.06782175 0.02166014
v 0.00448370 0.06778854 0.01927109
v 0.00301509 0.06681702 0.05264747
v 0.01619247 0.07004708 0.01842790
v 0.04629501 0.06587043 0.01688204
v 0.04848589 0.06550507 0.01688204
v 0.05503446 0.06316348 0.01449300
v 0.02484364 0.07044565 0.05025843
v 0.05106199 0.06589534 0.08841290
v 0.05302013 0.06551338 0.09080194
v 0.05344547 0.06427616 0.01927109
v 0.05421589 0.06520614 0.09080194
v 0.05537152 0.06335446 0.01688204
v 0.05547585 0.06340429 0.01927109
v 0.00577576 0.06871022 0.02166014
v 0.00759748 0.06981459 0.02404918
v 0.00878521 0.07030450 0.02404918
v 0.01054273 0.07071967 0.02404918
v 0.01292621 0.07103520 0.02641480
v 0.01292621 0.07090234 0.02404918
v 0.01530970 0.07052869 0.02166014
v 0.01530970 0.07089404 0.02641480
v 0.01530970 0.07072797 0.02404918
v 0.06000207 0.05903665 0.01688204
v 0.06133425 0.05714345 0.01927109
v 0.06179971 0.05581488 0.01800631
v 0.06220097 0.05459428 0.01927109
v 0.06254605 0.05220286 0.01927109
v 0.05656728 0.06264037 0.01688204
v 0.05797168 0.06145297 0.01688204
v 0.05916744 0.06023235 0.01688204
v 0.06394243 0.04981976 0.05025843
v 0.06379798 0.04743666 0.05025843
v 0.06458445 0.03075493 0.10508938
v 0.05952858 -0.00224318 0.08124576
v 0.05945635 -0.00179479 0.07888013
v 0.05773896 -0.00499994 0.05979119
v 0.05548388 -0.01214925 0.04311471
v 0.05531535 -0.01214925 0.04072566
v 0.05517089 -0.01307094 0.04072566
v -0.00611759 -0.01307094 0.22664967
v -0.00565213 -0.01307094 0.22772708
v -0.00526692 -0.01214925 0.22840631
v -0.00512247 -0.00976615 0.22814868
v 0.00199589 0.04743666 0.22828921
v 0.00227677 0.05064181 0.22749286
v 0.00272618 0.04743666 0.22946031
v 0.00283853 0.04983637 0.22892160
v 0.00453988 0.05354803 0.23028008
v 0.00349660 0.05220286 0.22903871
v 0.00413059 0.05443651 0.22908555
v 0.00250147 0.05219457 0.22667308
v 0.00323979 0.05697738 0.22426062
v 0.00254160 0.05443651 0.22412009
v 0.00352068 0.05936048 0.22187157
v 0.00412257 0.06160243 0.21950595
v 0.00247740 0.05921932 0.20774810
v 0.00425900 0.06133671 0.22187157
v 0.00251753 0.05965941 0.20519510
v 0.00347252 0.06174359 0.20758414
v 0.00222862 0.06527257 0.13368766
v 0.00306324 0.06683363 0.06932395
v 0.00301509 0.06684193 0.05503652
v 0.00335215 0.06650980 0.13368766
v 0.00450778 0.06776362 0.13368766
v 0.00437135 0.06329634 0.20997318
v 0.00451580 0.06542204 0.19088423
v 0.00226874 0.06522275 0.13605329
v 0.00420282 0.06803764 0.05264747
v 0.00577576 0.06915031 0.05264747
v 0.01769319 0.07107672 0.03597099
v 0.01769319 0.07120128 0.03833662
v 0.01769319 0.07131752 0.04072566
v 0.02246016 0.07080271 0.04786938
v 0.02857536 0.07012182 0.08363481
v 0.04272380 0.06770550 0.12771505
v 0.04391955 0.06746470 0.12890957
v 0.05428812 0.06525597 0.15036414
v 0.05582896 0.06460829 0.09080194
v 0.05582896 0.06473284 0.10747842
v 0.05582896 0.06480758 0.15036414
v 0.05667160 0.06271509 0.01927109
v 0.05793156 0.06352884 0.09080194
v 0.00713202 0.07000556 0.05025843
v 0.00838395 0.07054530 0.04786938
v 0.00831975 0.07055360 0.05025843
v 0.01054273 0.07125109 0.04550375
v 0.01292621 0.07159984 0.04311471
v 0.01530970 0.07101029 0.02880385
v 0.01530970 0.07164135 0.04311471
v 0.01530970 0.07155832 0.04072566
v 0.06014652 0.05921102 0.01927109
v 0.06185588 0.05594774 0.01927109
v 0.06138240 0.05729291 0.02166014
v 0.06192811 0.05609721 0.02166014
v 0.06231332 0.05459428 0.02166014
v 0.06525857 0.05220286 0.08363481
v 0.06539500 0.04981976 0.08363481
v 0.05809206 0.06151940 0.01927109
v 0.05928782 0.06040672 0.01927109
v 0.06525857 0.04743666 0.08363481
v 0.06484126 0.03313803 0.10508938
v 0.06464866 0.03075493 0.10747842
v 0.06282693 0.01407320 0.11462214
v 0.06338870 0.02122251 0.10508938
v 0.05821244 -0.01307094 0.08457169
v 0.05818034 -0.01307094 0.08363481
v 0.05808404 -0.01307094 0.08218264
v -0.00530705 -0.01307094 0.22845316
v -0.00453663 -0.01214925 0.22960084
v 0.00317559 0.05459428 0.22664967
v 0.00435530 0.05642105 0.22831263
v -0.00334087 -0.01214925 0.23109985
v -0.00229760 -0.01307094 0.23236463
v 0.00413059 0.04981976 0.23058456
v 0.00439542 0.05220286 0.23039719
v 0.00479668 0.05513400 0.22990532
v 0.00577576 0.05220286 0.23135749
v 0.00566341 0.05443651 0.23091247
v 0.00636962 0.05697738 0.23070168
v 0.00402626 0.05711854 0.22679020
v 0.00436332 0.05879584 0.22608754
v 0.00409849 0.05949333 0.22437773
v 0.00443555 0.06094645 0.22365164
v 0.00465223 0.06278983 0.21950595
v 0.00360093 0.06174359 0.20997318
v 0.00474853 0.06253242 0.22187157
v 0.00564735 0.06660944 0.19088423
v 0.00683508 0.06780514 0.19088423
v 0.00577576 0.06863549 0.13368766
v 0.00577576 0.06904236 0.07171300
v 0.00540660 0.06412669 0.21950595
v 0.00653815 0.06586212 0.21950595
v 0.00646593 0.06594515 0.21711690
v 0.00754933 0.06714086 0.21711690
v 0.00717214 0.06998065 0.07171300
v 0.00711597 0.07001388 0.05264747
v 0.01769319 0.07139225 0.04311471
v 0.01769319 0.07153341 0.06932395
v 0.02722713 0.07032941 0.08363481
v 0.02007667 0.07125109 0.13129862
v 0.04272380 0.06770550 0.13010409
v 0.04273182 0.06770550 0.12890957
v 0.05582896 0.06458338 0.21711690
v 0.05582896 0.06480758 0.15275319
v 0.05821244 0.06375303 0.12652053
v 0.05964895 0.06308045 0.12890957
v 0.05811614 0.06361187 0.10508938
v 0.05821244 0.06393571 0.15275319
v 0.05911929 0.06272340 0.09080194
v 0.06221702 0.06096306 0.11701118
v 0.05961685 0.06307215 0.12652053
v 0.05950450 0.06298911 0.11701118
v 0.00831172 0.07055360 0.05264747
v 0.01054273 0.07133413 0.06932395
v 0.01054273 0.07125939 0.04786938
v 0.01292621 0.07164135 0.04550375
v 0.01530970 0.07174100 0.06932395
v 0.06427949 0.05832254 0.11462214
v 0.06370168 0.05724309 0.08363481
v 0.06430357 0.05604738 0.08363481
v 0.06476903 0.05459428 0.08363481
v 0.06485731 0.05459428 0.08602385
v 0.06533883 0.05220286 0.08602385
v 0.06546723 0.04981976 0.08602385
v 0.06341278 0.05957637 0.11701118
v 0.06605306 0.04743666 0.11225651
v 0.06541105 0.04267045 0.10033471
v 0.06490546 0.03313803 0.10747842
v 0.06498572 0.03075493 0.12652053
v 0.06313991 0.00930699 0.15514224
v 0.05934400 -0.01307094 0.11940023
v 0.05929584 -0.01307094 0.11764358
v 0.06243370 0.00453248 0.15036414
v 0.06237752 0.00453248 0.14797510
v 0.06206454 0.00214937 0.14797510
v -0.00456873 -0.01307094 0.22964768
v -0.00384646 -0.01307094 0.23058456
v -0.00338100 -0.01307094 0.23117012
v 0.00509362 0.05711854 0.22908555
v 0.00464420 0.05800701 0.22768023
v 0.00391391 0.04743666 0.23067825
v -0.00110987 -0.01307094 0.23337178
v 0.00052727 -0.01307094 0.23456631
v 0.00675483 0.05857995 0.23042061
v 0.00752525 0.05220286 0.23238806
v 0.00769378 0.05459428 0.23224753
v 0.00827962 0.05697738 0.23198989
v 0.00464420 0.06038181 0.22524434
v 0.00494916 0.06174359 0.22437773
v 0.00563933 0.06412669 0.22187157
v 0.00625727 0.06426785 0.22428404
v 0.00873706 0.06818710 0.21711690
v 0.01054273 0.06931638 0.21711690
v 0.00815924 0.06861888 0.19088423
v 0.00769378 0.06975646 0.13368766
v 0.00762958 0.06977307 0.13129862
v 0.00763761 0.06704952 0.21950595
v 0.00666656 0.06568775 0.22187157
v 0.00883336 0.06811237 0.21950595
v 0.00835987 0.07057021 0.07171300
v 0.02484364 0.07064494 0.08363481
v 0.01769319 0.07160815 0.12890957
v 0.02722713 0.06943263 0.21472786
v 0.02961061 0.06949075 0.16467500
v 0.05217749 0.06530579 0.20997318
v 0.05344547 0.06506499 0.21233881
v 0.05344547 0.06504008 0.21472786
v 0.02722713 0.06939111 0.21711690
v 0.05582896 0.06444222 0.21950595
v 0.05821244 0.06372812 0.21950595
v 0.05821244 0.06385268 0.21711690
v 0.05821244 0.06388588 0.20041700
v 0.05980946 0.06318009 0.15275319
v 0.06084471 0.06225010 0.12890957
v 0.06100521 0.06238295 0.15275319
v 0.05991378 0.06321330 0.20041700
v 0.05985761 0.06318839 0.16706404
v 0.06069223 0.06215876 0.11701118
v 0.06234542 0.06107931 0.13129862
v 0.06382206 0.06017423 0.16942967
v 0.06354118 0.05980057 0.13368766
v 0.01292621 0.07171609 0.06932395
v 0.01054273 0.07096877 0.12890957
v 0.01292621 0.07153341 0.12890957
v 0.01530970 0.07173270 0.12890957
v 0.06431962 0.05838067 0.11701118
v 0.06494559 0.05697738 0.11462214
v 0.06434370 0.05613873 0.08602385
v 0.06577218 0.05459428 0.11462214
v 0.06656668 0.05342348 0.13471823
v 0.06613332 0.05220286 0.11462214
v 0.06660681 0.05154689 0.13129862
v 0.06671113 0.04981976 0.13368766
v 0.06452828 0.05864638 0.13605329
v 0.06658273 0.04837496 0.13174364
v 0.06661483 0.04816736 0.13368766
v 0.06742538 0.04981976 0.17181871
v 0.06734512 0.04743666 0.18135147
v 0.06501782 0.03075493 0.12890957
v 0.06500177 0.02598872 0.16228595
v 0.06484126 0.02598872 0.15036414
v 0.06427949 0.01914664 0.15989690
v 0.06317202 0.00930699 0.15750786
v 0.06183983 0.00067965 0.14797510
v 0.05945635 -0.01307094 0.13195443
v 0.06287509 0.00692389 0.15989690
v 0.00616899 0.05936879 0.22913240
v 0.00658630 0.06134502 0.22840631
v 0.00605664 0.06197608 0.22688388
v 0.00490101 0.05949333 0.22679020
v 0.00697151 0.06293099 0.22784419
v 0.00125757 -0.01307094 0.23498790
v 0.00806294 0.05936879 0.23098274
v 0.00879324 0.06133671 0.23060799
v 0.00720424 0.06017423 0.22997559
v 0.00172303 -0.01307094 0.23524554
v 0.00838395 0.03535507 0.23442577
v 0.00933092 0.03444999 0.23501132
v 0.00888151 0.05459428 0.23280966
v 0.00915437 0.05618024 0.23271597
v 0.00964391 0.05776621 0.23250517
v 0.00656223 0.06356205 0.22625149
v 0.00682706 0.06548847 0.22351111
v 0.00709992 0.06515632 0.22510381
v 0.01054273 0.06915861 0.21950595
v 0.01194714 0.07002217 0.21711690
v 0.00881731 0.07032110 0.13129862
v 0.00880928 0.07034601 0.12890957
v 0.00788639 0.06687515 0.22187157
v 0.00908214 0.06791309 0.22187157
v 0.01769319 0.07057021 0.21472786
v 0.02484364 0.06973986 0.21472786
v 0.02484364 0.06970664 0.21711690
v 0.02484364 0.06959869 0.21950595
v 0.02722713 0.06924995 0.21950595
v 0.02722713 0.06890120 0.22187157
v 0.05582896 0.06406857 0.22187157
v 0.05967303 0.06309706 0.21950595
v 0.05830072 0.06332955 0.22182472
v 0.05952858 0.06300572 0.22100495
v 0.05978538 0.06315519 0.21711690
v 0.06104534 0.06247429 0.16942967
v 0.06105336 0.06245769 0.16706404
v 0.06263433 0.06128690 0.16942967
v 0.06107744 0.06249921 0.20280605
v 0.06110954 0.06249921 0.20041700
v 0.06383008 0.06019914 0.17181871
v 0.06483324 0.05900343 0.17181871
v 0.06455235 0.05867130 0.13844233
v 0.01314290 0.07034601 0.21711690
v 0.01292621 0.07109333 0.16228595
v 0.01530970 0.07066985 0.21472786
v 0.06602899 0.05710194 0.17181871
v 0.06542710 0.05697738 0.13605329
v 0.06659878 0.05586471 0.16985126
v 0.06626975 0.05464409 0.13605329
v 0.06700004 0.05459428 0.17181871
v 0.06741735 0.05220286 0.17181871
v 0.06663891 0.05230251 0.13382820
v 0.06751365 0.04981976 0.18135147
v 0.06735315 0.04743666 0.18374052
v 0.06318807 0.00930699 0.15989690
v 0.06288311 0.00692389 0.16228595
v 0.05962488 -0.01307094 0.17181871
v 0.05946437 -0.01307094 0.13340660
v 0.00787836 0.06213385 0.22931977
v 0.00935500 0.06293099 0.23023323
v 0.00866483 0.06412669 0.22852343
v 0.00922660 0.06542204 0.22796130
v 0.00745303 0.06426785 0.22688388
v 0.01047853 0.05946842 0.23227095
v 0.00267803 -0.01307094 0.23569056
v 0.00339227 -0.01307094 0.23599505
v 0.00485286 -0.01307094 0.23655718
v 0.00583996 -0.01307094 0.23690851
v 0.00680298 -0.01307094 0.23721299
v 0.00718819 -0.01307094 0.23733011
v 0.01054273 0.03313803 0.23543292
v 0.01040630 0.03535507 0.23524554
v 0.01100017 0.03790424 0.23522213
v 0.00951550 0.03604426 0.23494106
v 0.01054273 0.05459428 0.23341863
v 0.01047853 0.05697738 0.23297361
v 0.01123290 0.05874602 0.23278623
v 0.00819937 0.06648488 0.22416693
v 0.00929080 0.06774702 0.22320663
v 0.00876113 0.06582891 0.22664967
v 0.01223605 0.06993914 0.21950595
v 0.01054273 0.06875174 0.22187157
v 0.01343180 0.07027128 0.21950595
v 0.01530970 0.07062833 0.21711690
v 0.01769319 0.07049547 0.21711690
v 0.01769319 0.07033771 0.21950595
v 0.01894512 0.07009691 0.22072389
v 0.02484364 0.06928316 0.22187157
v 0.02484364 0.06868531 0.22426062
v 0.05576475 0.06332125 0.22435431
v 0.05755438 0.06314687 0.22360480
v 0.06086878 0.06230823 0.21950595
v 0.06097312 0.06240787 0.21711690
v 0.05914337 0.06282304 0.22259765
v 0.06043542 0.06218367 0.22182472
v 0.06098917 0.06244938 0.21472786
v 0.06264235 0.06130350 0.20280605
v 0.06263433 0.06127029 0.21233881
v 0.06383008 0.06018253 0.21233881
v 0.06480916 0.05899513 0.20997318
v 0.06661483 0.05591453 0.17181871
v 0.06596479 0.05697738 0.20997318
v 0.06739328 0.05220286 0.18135147
v 0.06652655 0.05563221 0.20997318
v 0.06678336 0.05443651 0.20997318
v 0.06748958 0.04981976 0.18374052
v 0.06525054 0.02837182 0.17420776
v 0.06317202 0.00930699 0.16228595
v 0.06725685 0.04981976 0.20041700
v 0.06705622 0.04743666 0.20280605
v 0.06256210 0.00930699 0.18374052
v 0.06221702 0.00692389 0.18374052
v 0.05956870 -0.01307094 0.17420776
v 0.05959278 -0.01307094 0.17322403
v 0.06417517 0.02478471 0.19929274
v 0.01031000 0.06421803 0.22969453
v 0.01031000 0.06197608 0.23112327
v 0.01094399 0.06348732 0.23058456
v 0.01054273 0.06580400 0.22838290
v 0.01055075 0.06700800 0.22662624
v 0.00975626 0.06748131 0.22479932
v 0.01209159 0.06034029 0.23255201
v 0.00764563 -0.01307094 0.23742379
v 0.01551836 0.02345615 0.23721299
v 0.01292621 0.02598872 0.23651034
v 0.01292621 0.02837182 0.23636981
v 0.01292621 0.04028734 0.23550319
v 0.01405777 0.04882334 0.23501132
v 0.01292621 0.05459428 0.23405102
v 0.01292621 0.05697738 0.23360600
v 0.01055075 0.06812898 0.22412009
v 0.01299042 0.06973986 0.22184815
v 0.01382504 0.07016333 0.22102838
v 0.01530970 0.07047056 0.21950595
v 0.01769319 0.07016333 0.22107523
v 0.02246016 0.06953227 0.22187157
v 0.01769319 0.06993914 0.22226975
v 0.02007667 0.06922504 0.22426062
v 0.02246016 0.06896763 0.22426062
v 0.02484364 0.06799613 0.22604069
v 0.02666536 0.06783836 0.22573621
v 0.05492211 0.06299742 0.22554883
v 0.05651110 0.06282304 0.22519750
v 0.05830072 0.06248260 0.22435431
v 0.06239357 0.06112082 0.21950595
v 0.06252198 0.06121216 0.21711690
v 0.06214479 0.06088832 0.22187157
v 0.06260223 0.06126198 0.21472786
v 0.06057185 0.06118725 0.22414351
v 0.06191206 0.06066413 0.22327689
v 0.06378996 0.06011610 0.21472786
v 0.06479311 0.05898683 0.21233881
v 0.06590861 0.05697738 0.21233881
v 0.06719264 0.05220286 0.20041700
v 0.06647841 0.05541632 0.21233881
v 0.06672718 0.05422061 0.21233881
v 0.06704017 0.05220286 0.20997318
v 0.06721672 0.04981976 0.20280605
v 0.06696794 0.04981976 0.20997318
v 0.06686361 0.04981976 0.21233881
v 0.06666298 0.04786014 0.21233881
v 0.06429555 0.02590568 0.20022963
v 0.06247382 0.00930699 0.18612957
v 0.06251395 0.01883941 0.21472786
v 0.05951253 -0.01307094 0.17519148
v 0.01238853 0.06507329 0.23002244
v 0.01290214 0.06161903 0.23215384
v 0.01307869 0.06421803 0.23079536
v 0.01307869 0.06614444 0.22915582
v 0.01292621 0.06750622 0.22751628
v 0.01134525 0.06789648 0.22582990
v 0.01290214 0.05946842 0.23295019
v 0.01368058 0.06073886 0.23269254
v 0.00833580 -0.01307094 0.23756432
v 0.01530970 0.02598872 0.23702562
v 0.01054273 -0.01307094 0.23796250
v 0.01769319 -0.00023373 0.23852463
v 0.01645730 0.02256768 0.23737695
v 0.01530970 0.02837182 0.23686167
v 0.01530970 0.04267045 0.23585452
v 0.01530970 0.04505355 0.23566714
v 0.01530970 0.04743666 0.23543292
v 0.01455533 0.05040931 0.23491764
v 0.01530970 0.05459428 0.23442577
v 0.01533378 0.05218626 0.23482395
v 0.01530970 0.05697738 0.23391049
v 0.01292621 0.06902575 0.22426062
v 0.01530970 0.06942432 0.22426062
v 0.01530970 0.06995575 0.22248054
v 0.01530970 0.07021315 0.22128602
v 0.01769319 0.06943263 0.22426062
v 0.02246016 0.06815389 0.22634517
v 0.02484364 0.06735675 0.22723522
v 0.05576475 0.06205082 0.22646229
v 0.03327813 0.06533900 0.22786761
v 0.02722713 0.06593686 0.22859369
v 0.03199410 0.06447544 0.22922608
v 0.05704076 0.06056449 0.22784419
v 0.05798773 0.06112912 0.22660282
v 0.05976130 0.06081359 0.22575963
v 0.06358933 0.05981718 0.21950595
v 0.06370971 0.05999985 0.21711690
v 0.06346092 0.05926084 0.22196526
v 0.06135029 0.06011610 0.22486959
v 0.06410294 0.05801532 0.22283187
v 0.06246580 0.05933557 0.22414351
v 0.06472891 0.05892870 0.21472786
v 0.06574008 0.05697738 0.21472786
v 0.06552340 0.05697738 0.21711690
v 0.06592466 0.05459428 0.21950595
v 0.06640617 0.05460257 0.21489181
v 0.06663891 0.05381375 0.21418915
v 0.06693584 0.05220286 0.21233881
v 0.06667101 0.04975334 0.21484496
v 0.06654260 0.04891468 0.21573500
v 0.06660681 0.04825870 0.21414231
v 0.06650248 0.04667274 0.21233881
v 0.06644630 0.04745326 0.21484496
v 0.06232937 0.01883941 0.21711690
v 0.06196824 0.01643970 0.21690610
v 0.06212072 0.01645630 0.21472786
v 0.05704076 -0.01101997 0.21849880
v 0.05700063 -0.01307094 0.21325227
v 0.01397752 0.06536391 0.23025666
v 0.01530970 0.06210064 0.23227095
v 0.01530970 0.06412669 0.23119354
v 0.01426642 0.06768889 0.22782077
v 0.01292621 0.06815389 0.22632176
v 0.01530970 0.05936048 0.23325467
v 0.02246016 0.05697738 0.23454289
v 0.02007667 0.05936048 0.23358259
v 0.01530970 0.06091324 0.23273939
v 0.01769319 0.04505355 0.23599505
v 0.01769319 -0.01307094 0.23896965
v 0.01915377 -0.01307094 0.23915702
v 0.02007667 0.00214937 0.23868858
v 0.02007667 0.01407320 0.23822014
v 0.02007667 0.01645630 0.23807961
v 0.01769319 0.04743666 0.23578425
v 0.01533378 0.04969521 0.23515185
v 0.01769319 0.05459428 0.23465999
v 0.01614432 0.05138082 0.23505817
v 0.01769319 0.05304982 0.23494106
v 0.01989209 0.05457767 0.23487079
v 0.02007667 0.05697738 0.23435551
v 0.01515722 0.06827014 0.22688388
v 0.01769319 0.06843620 0.22664967
v 0.01992419 0.06817880 0.22681362
v 0.02062239 0.06762246 0.22772708
v 0.02246016 0.06751452 0.22753970
v 0.03552519 0.06292268 0.23020981
v 0.05582896 0.06072225 0.22798472
v 0.02484364 0.06616105 0.22880449
v 0.02722713 0.06489892 0.22978822
v 0.02961061 0.06469133 0.22950715
v 0.03393620 0.06309706 0.23037377
v 0.04521161 0.06058110 0.23025666
v 0.04611846 0.05947674 0.23081878
v 0.04867850 0.05884567 0.23067825
v 0.05106199 0.05845540 0.23042061
v 0.05243430 0.05823121 0.23025666
v 0.05582896 0.05936048 0.22880449
v 0.05798773 0.05922763 0.22817209
v 0.05957672 0.05834745 0.22793787
v 0.05862975 0.05993342 0.22735232
v 0.06207257 0.05853013 0.22575963
v 0.06045950 0.05923593 0.22655598
v 0.06448815 0.05862147 0.21950595
v 0.06462458 0.05880415 0.21711690
v 0.06432765 0.05839728 0.22123918
v 0.06471286 0.05712684 0.22196526
v 0.06375786 0.05712684 0.22437773
v 0.06445605 0.05642935 0.22367507
v 0.06525857 0.05697738 0.21950595
v 0.06614135 0.05220286 0.21950595
v 0.06654260 0.05309134 0.21578185
v 0.06549933 0.05459428 0.22187157
v 0.06668705 0.05226099 0.21489181
v 0.06658273 0.05149707 0.21615660
v 0.06658273 0.05050065 0.21615660
v 0.06643828 0.04975334 0.21702321
v 0.06618949 0.04743666 0.21711690
v 0.06188799 0.01722853 0.21875645
v 0.05697656 -0.01066292 0.22009149
v 0.05647900 -0.01214925 0.22187157
v 0.05674383 -0.01194997 0.21938884
v 0.05623022 -0.01307094 0.22187157
v 0.01530970 0.06545525 0.23032692
v 0.01515722 0.06685024 0.22885133
v 0.01769319 0.06223349 0.23231779
v 0.02246016 0.05936048 0.23372312
v 0.02007667 0.06113744 0.23287992
v 0.01769319 0.06412669 0.23128722
v 0.01585541 0.06775532 0.22791445
v 0.02484364 0.05697738 0.23458973
v 0.02246016 0.05534989 0.23491764
v 0.02484364 0.05557409 0.23496448
v 0.02246016 0.01407320 0.23840752
v 0.02246016 0.01645630 0.23824357
v 0.02007667 0.04505355 0.23604190
v 0.02153726 -0.01307094 0.23934440
v 0.02484364 0.05220286 0.23543292
v 0.02246016 0.05220286 0.23536266
v 0.02246016 0.05415419 0.23510501
v 0.01769319 0.04981976 0.23545635
v 0.02007667 0.04743666 0.23583109
v 0.02055818 0.05376393 0.23505817
v 0.01769319 0.06775532 0.22791445
v 0.01903340 0.06771380 0.22786761
v 0.03914456 0.06131180 0.23084221
v 0.02228360 0.06612783 0.22922608
v 0.02295772 0.06523105 0.23013954
v 0.02484364 0.06508990 0.22999901
v 0.03199410 0.06328804 0.23056114
v 0.03458624 0.06197608 0.23117012
v 0.03676107 0.06158582 0.23107643
v 0.03302133 0.06051467 0.23259885
v 0.03437759 0.06032369 0.23248175
v 0.04391153 0.05936048 0.23133407
v 0.04216203 0.05798210 0.23252859
v 0.04391153 0.05764996 0.23236463
v 0.05402329 0.05781603 0.23009270
v 0.04648762 0.05691095 0.23222410
v 0.04867850 0.05697738 0.23170882
v 0.04741854 0.05574016 0.23259885
v 0.05589316 0.05700229 0.22988190
v 0.05821244 0.05697738 0.22906213
v 0.06005021 0.05697738 0.22821894
v 0.06124597 0.05697738 0.22742259
v 0.06251395 0.05697738 0.22622807
v 0.06406282 0.05522534 0.22524434
v 0.06461655 0.05449463 0.22437773
v 0.06606109 0.04981976 0.21950595
v 0.06644630 0.05226099 0.21702321
v 0.06567588 0.05220286 0.22187157
v 0.06483324 0.05220286 0.22426062
v 0.06580429 0.04743666 0.21950595
v 0.06525857 0.04743666 0.22187157
v 0.06172748 0.01883941 0.22039599
v 0.06100521 0.01645630 0.22187157
v 0.05645493 -0.00976615 0.22426062
v 0.05698458 -0.00827982 0.22283187
v 0.05688828 -0.00983257 0.22196526
v 0.05606971 -0.01214925 0.22426062
v 0.05607774 -0.01307094 0.22280845
v 0.01769319 0.06549677 0.23037377
v 0.01769319 0.06669247 0.22910898
v 0.02007667 0.06232484 0.23231779
v 0.02246016 0.06116234 0.23292676
v 0.02484364 0.05936048 0.23374654
v 0.02007667 0.06412669 0.23119354
v 0.02246016 0.06234975 0.23227095
v 0.02722713 0.05697738 0.23454289
v 0.02722713 0.05556578 0.23496448
v 0.02484364 0.05438669 0.23515185
v 0.02722713 0.05437008 0.23517528
v 0.02484364 0.01407320 0.23833725
v 0.03199410 0.04505355 0.23604190
v 0.02246016 -0.01214925 0.23934440
v 0.02392074 -0.01307094 0.23939124
v 0.02484364 -0.00976615 0.23927413
v 0.02961061 0.04267045 0.23625269
v 0.02961061 0.04505355 0.23606531
v 0.02722713 0.05220286 0.23545635
v 0.02246016 -0.01307094 0.23936783
v 0.02007667 0.06540543 0.23030350
v 0.01992419 0.06677550 0.22880449
v 0.02136873 0.06533070 0.23023323
v 0.02484364 0.06390250 0.23100616
v 0.02722713 0.06370321 0.23088905
v 0.03213053 0.06156091 0.23191962
v 0.04057304 0.05823121 0.23264570
v 0.02961061 0.06198439 0.23191962
v 0.02722713 0.06215876 0.23208357
v 0.02961061 0.06078868 0.23276281
v 0.02961061 0.05936048 0.23348890
v 0.03213053 0.05957637 0.23313756
v 0.03437759 0.05913629 0.23309072
v 0.04143174 0.05916120 0.23191962
v 0.04143174 0.05710194 0.23302045
v 0.04391153 0.05646256 0.23290335
v 0.04582955 0.05608060 0.23273939
v 0.04867850 0.05530837 0.23245832
v 0.05097371 0.05446972 0.23217726
v 0.05513879 0.05623007 0.23039719
v 0.04391153 0.05459428 0.23358259
v 0.04648762 0.05480186 0.23306730
v 0.04867850 0.05411267 0.23283308
v 0.05672778 0.05536650 0.23013954
v 0.05810811 0.05457767 0.22976479
v 0.06077248 0.05464409 0.22845316
v 0.06167933 0.05546615 0.22777392
v 0.06298744 0.05455276 0.22664967
v 0.06421530 0.05363937 0.22552540
v 0.06552340 0.04981976 0.22187157
v 0.06423135 0.05220286 0.22552540
v 0.06420727 0.05067502 0.22550199
v 0.06460853 0.04985298 0.22444800
v 0.06456038 0.04743666 0.22400298
v 0.06439185 0.04505355 0.22360480
v 0.06029900 0.01645630 0.22426062
v 0.06135029 0.01883941 0.22187157
v 0.05788341 -0.00023373 0.22426062
v 0.05715311 -0.00215184 0.22573621
v 0.05560425 -0.00976615 0.22664967
v 0.05514682 -0.01218246 0.22679020
v 0.05505051 -0.01307094 0.22650913
v 0.05561228 -0.01307094 0.22493986
v 0.05582093 -0.01307094 0.22426062
v 0.02484364 0.06109592 0.23292676
v 0.02722713 0.05936048 0.23365285
v 0.02484364 0.06229161 0.23220068
v 0.02961061 0.05697738 0.23444920
v 0.02961061 0.05420401 0.23512844
v 0.02961061 0.05539141 0.23491764
v 0.02722713 -0.01214925 0.23920387
v 0.02722713 -0.00976615 0.23911018
v 0.04152804 0.04505355 0.23547976
v 0.03914456 0.04505355 0.23569056
v 0.03914456 0.04743666 0.23555003
v 0.03676107 0.04743666 0.23566714
v 0.03199410 0.04981976 0.23557345
v 0.02484364 -0.01307094 0.23934440
v 0.02484364 -0.01214925 0.23934440
v 0.03199410 0.05220286 0.23531581
v 0.02722713 0.06096306 0.23285650
v 0.03199410 0.05697738 0.23426182
v 0.03437759 0.05697738 0.23398076
v 0.03914456 0.05697738 0.23337178
v 0.04152804 0.05459428 0.23393391
v 0.05011501 0.05359786 0.23266913
v 0.05344547 0.05459428 0.23142776
v 0.04391153 0.05220286 0.23423840
v 0.04629501 0.05220286 0.23384022
v 0.05724139 0.05378053 0.23030350
v 0.05322879 0.05200358 0.23213042
v 0.05582896 0.05220286 0.23117012
v 0.05875815 0.05220286 0.22995217
v 0.06059593 0.05220286 0.22894502
v 0.06191206 0.05388017 0.22793787
v 0.06200836 0.05220286 0.22803156
v 0.06320412 0.05220286 0.22671993
v 0.06201639 0.04981976 0.22805499
v 0.06413504 0.04908075 0.22536145
v 0.06338068 0.04985298 0.22643886
v 0.06192811 0.04743666 0.22798472
v 0.06299546 0.04743666 0.22664967
v 0.06404677 0.04743666 0.22517408
v 0.05964093 0.01645630 0.22587674
v 0.05664753 -0.00281612 0.22657940
v 0.05473753 -0.01141024 0.22798472
v 0.05456097 -0.01299621 0.22768023
v 0.05455295 -0.01307094 0.22765681
v 0.03199410 0.05505927 0.23484737
v 0.03199410 0.05386356 0.23508159
v 0.02630423 -0.01307094 0.23925071
v 0.02722713 -0.01307094 0.23918045
v 0.02961061 -0.01307094 0.23892281
v 0.02961061 -0.01214925 0.23892281
v 0.04364670 0.04505355 0.23517528
v 0.04337384 0.04743666 0.23510501
v 0.04152804 0.04743666 0.23536266
v 0.03199410 -0.01214925 0.23859490
v 0.03934519 0.05004396 0.23522213
v 0.03676107 0.04981976 0.23543292
v 0.03676107 0.05182090 0.23515185
v 0.03914456 0.05459428 0.23421498
v 0.03676107 0.05300830 0.23491764
v 0.04152804 0.05220286 0.23456631
v 0.04867850 0.05220286 0.23332494
v 0.05097371 0.05200358 0.23278623
v 0.05170400 0.05266786 0.23245832
v 0.04152804 0.05055878 0.23491764
v 0.04381523 0.04972012 0.23475368
v 0.04629501 0.04981976 0.23428524
v 0.05757043 0.05220286 0.23046745
v 0.05228984 0.05107359 0.23262228
v 0.05366215 0.04981976 0.23229437
v 0.05582896 0.04981976 0.23147460
v 0.05787539 0.04981976 0.23060799
v 0.05906311 0.04981976 0.23006928
v 0.06059593 0.04981976 0.22908555
v 0.06059593 0.04743666 0.22899186
v 0.05435232 -0.00499994 0.22985848
v 0.05894273 0.01645630 0.22707126
v 0.06183983 0.04592542 0.22789103
v 0.05173610 -0.00499994 0.23224753
v 0.05315656 -0.00499994 0.23105300
v 0.05444862 -0.00261684 0.23002244
v 0.05519496 -0.00499994 0.22866396
v 0.05667963 -0.00023373 0.22718837
v 0.05484988 -0.00976615 0.22817209
v 0.05419182 -0.00738304 0.22960084
v 0.05399118 -0.00976615 0.22936662
v 0.05386278 -0.01218246 0.22887476
v 0.05448072 -0.01307094 0.22777392
v 0.03373557 0.05357294 0.23503475
v 0.03532456 0.05329893 0.23498790
v 0.03676107 0.05459428 0.23447262
v 0.03199410 -0.01307094 0.23861831
v 0.04483443 0.04505355 0.23494106
v 0.04456959 0.04743666 0.23489422
v 0.03345469 -0.01307094 0.23838410
v 0.03437759 -0.01307094 0.23822014
v 0.04152804 0.02360562 0.23606531
v 0.04295653 0.04885656 0.23503475
v 0.04152804 0.04937138 0.23510501
v 0.04028414 0.05098226 0.23498790
v 0.03869515 0.05138913 0.23505817
v 0.03934519 0.05219457 0.23482395
v 0.04629501 0.04743666 0.23451946
v 0.04867850 0.04981976 0.23369969
v 0.05106199 0.04981976 0.23309072
v 0.05247442 0.04981976 0.23269254
v 0.05267505 0.04743666 0.23276281
v 0.05387081 0.04743666 0.23234122
v 0.05582896 0.04743666 0.23156829
v 0.05789946 0.04743666 0.23065483
v 0.05909521 0.04743666 0.23006928
v 0.05537152 -0.00261684 0.22882791
v 0.05299606 -0.00738304 0.23093590
v 0.05279543 -0.00976615 0.23074852
v 0.05159165 -0.00738304 0.23213042
v 0.05054035 -0.00499994 0.23299703
v 0.05040392 -0.00738304 0.23292676
v 0.05253862 -0.01214925 0.23051430
v 0.05353375 -0.01307094 0.22899186
v 0.05241825 -0.01307094 0.23039719
v 0.05293988 -0.01307094 0.22974137
v 0.04391153 0.02360562 0.23557345
v 0.04629501 0.04505355 0.23458973
v 0.03595855 -0.01307094 0.23786881
v 0.04152804 0.02122251 0.23611216
v 0.04867850 0.04743666 0.23391049
v 0.05106199 0.04743666 0.23325467
v 0.05270715 0.04505355 0.23276281
v 0.05106199 0.04505355 0.23327809
v 0.04867850 0.02837182 0.23416813
v 0.05389488 0.04505355 0.23234122
v 0.05582896 0.04267045 0.23154486
v 0.05582896 0.04028734 0.23149802
v 0.04867850 -0.00499994 0.23395733
v 0.05139102 -0.00976615 0.23194304
v 0.05013909 -0.01307094 0.23241148
v 0.05052430 -0.01307094 0.23208357
v 0.05020329 -0.00976615 0.23283308
v 0.05001871 -0.01173407 0.23271597
v 0.04867850 -0.00738304 0.23384022
v 0.04867850 -0.00976615 0.23365285
v 0.04391153 -0.00023373 0.23576083
v 0.04553262 0.02360562 0.23512844
v 0.04550052 0.02598872 0.23510501
v 0.03689750 -0.01307094 0.23765801
v 0.03785250 -0.01307094 0.23742379
v 0.04152804 -0.00738304 0.23644007
v 0.04656787 0.02837182 0.23477711
v 0.04668825 0.02598872 0.23477711
v 0.04867850 0.03075493 0.23414471
v 0.04867850 0.02598872 0.23416813
v 0.04567707 -0.00261684 0.23519870
v 0.04566102 0.00214937 0.23519870
v 0.04567707 -0.00023373 0.23519870
v 0.05384673 0.04267045 0.23234122
v 0.04686480 -0.00261684 0.23475368
v 0.04682468 -0.00499994 0.23475368
v 0.04672838 -0.00738304 0.23470684
v 0.04989031 -0.01307094 0.23262228
v 0.04891123 -0.01237345 0.23327809
v 0.04961745 -0.01307094 0.23278623
v 0.04660800 -0.00976615 0.23463658
v 0.04646354 -0.01214925 0.23454289
v 0.04631909 -0.01307094 0.23454289
v 0.04391153 -0.00499994 0.23576083
v 0.03903220 -0.01307094 0.23709589
v 0.04062922 -0.01307094 0.23662745
v 0.04562892 -0.00499994 0.23517528
v 0.04553262 -0.00738304 0.23515185
v 0.04541224 -0.00976615 0.23512844
v 0.04879085 -0.01307094 0.23325467
v 0.04798833 -0.01307094 0.23367627
v 0.04520359 -0.01307094 0.23503475
v 0.04568510 -0.01307094 0.23482395
v 0.04391153 -0.00738304 0.23571399
v 0.04152804 -0.01307094 0.23634638
v 0.04391153 -0.00976615 0.23564372
v 0.04298863 -0.01307094 0.23585452
f 1 2 3
f 1 3 4
f 1 4 5
f 1 5 6
f 1 6 12
f 1 12 22
f 1 22 36
f 1 36 58
f 1 58 57
f 1 57 56
f 1 56 82
f 1 82 81
f 1 81 117
f 1 117 165
f 1 165 164
f 1 164 210
f 1 210 211
f 1 211 209
f 1 209 262
f 1 262 309
f 1 309 349
f 1 349 392
f 1 392 442
f 1 442 487
f 1 487 548
f 1 548 547
f 1 547 546
f 1 546 610
f 1 610 607
f 1 607 675
f 1 675 743
f 1 743 742
f 1 742 741
f 1 741 808
f 1 808 807
f 1 807 881
f 1 881 941
f 1 941 940
f 1 940 997
f 1 997 996
f 1 996 1048
f 1 1048 1106
f 1 1106 1170
f 1 1170 1228
f 1 1228 1292
f 1 1292 1291
f 1 1291 1290
f 1 1290 1336
f 1 1336 1379
f 1 1379 1410
f 1 1410 1412
f 1 1412 1411
f 1 1411 1428
f 1 1428 1427
f 1 1427 1450
f 1 1450 1452
f 1 1452 1462
f 1 1462 1463
f 1 1463 1455
f 1 1455 1465
f 1 1465 1464
f 1 1464 1469
f 1 1469 1467
f 1 1467 1458
f 1 1458 1457
f 1 1457 1437
f 1 1437 1436
f 1 1436 1415
f 1 1415 1387
f 1 1387 1386
f 1 1386 1383
f 1 1383 1341
f 1 1341 1340
f 1 1340 1339
f 1 1339 1306
f 1 1306 1243
f 1 1243 1248
f 1 1248 1184
f 1 1184 1118
f 1 1118 1117
f 1 1117 1059
f 1 1059 1057
f 1 1057 1006
f 1 1006 953
f 1 953 952
f 1 952 951
f 1 951 950
f 1 950 949
f 1 949 948
f 1 948 892
f 1 892 888
f 1 888 819
f 1 819 818
f 1 818 749
f 1 749 814
f 1 814 813
f 1 813 812
f 1 812 744
f 1 744 677
f 1 677 676
f 1 676 615
f 1 615 613
f 1 613 612
f 1 612 611
f 1 611 554
f 1 554 552
f 1 552 494
f 1 494 551
f 1 551 550
f 1 550 491
f 1 491 490
f 1 490 489
f 1 489 488
f 1 488 447
f 1 447 402
f 1 402 401
f 1 401 446
f 1 446 398
f 1 398 444
f 1 444 443
f 1 443 394
f 1 394 350
f 1 350 311
f 1 311 265
f 1 265 217
f 1 217 171
f 1 171 167
f 1 167 119
f 1 119 118
f 1 118 83
f 1 83 59
f 1 59 37
f 1 37 23
f 1 23 14
f 1 14 7
f 1 7 2
f 2 8 9
f 2 9 3
f 2 7 8
f 3 9 10
f 3 10 4
f 4 10 13
f 4 13 5
f 5 11 12
f 5 12 6
f 5 13 11
f 7 14 8
f 8 15 16
f 8 16 9
f 8 14 17
f 8 17 15
f 9 16 18
f 9 18 10
f 10 18 19
f 10 19 20
f 10 20 13
f 11 13 21
f 11 21 36
f 11 36 22
f 11 22 12
f 13 20 35
f 13 35 21
f 14 23 17
f 15 24 27
f 15 27 16
f 15 17 25
f 15 25 24
f 16 26 18
f 16 27 28
f 16 28 26
f 17 23 29
f 17 29 25
f 18 26 30
f 18 30 19
f 19 30 31
f 19 31 32
f 19 32 20
f 20 32 33
f 20 33 34
f 20 34 35
f 21 35 58
f 21 58 36
f 23 37 38
f 23 38 29
f 24 39 27
f 24 25 40
f 24 40 41
f 24 41 39
f 25 29 42
f 25 42 40
f 26 28 43
f 26 43 30
f 27 39 28
f 28 44 43
f 28 39 45
f 28 45 46
f 28 46 47
f 28 47 44
f 29 38 42
f 30 43 48
f 30 48 31
f 31 49 32
f 31 48 50
f 31 50 51
f 31 51 52
f 31 52 49
f 32 49 53
f 32 53 54
f 32 54 33
f 33 54 34
f 34 54 80
f 34 80 55
f 34 55 56
f 34 56 57
f 34 57 35
f 35 57 58
f 37 59 38
f 38 60 42
f 38 59 61
f 38 61 62
f 38 62 60
f 39 41 45
f 40 42 60
f 40 60 41
f 41 63 45
f 41 60 64
f 41 64 65
f 41 65 66
f 41 66 67
f 41 67 63
f 43 44 48
f 44 68 50
f 44 50 48
f 44 47 69
f 44 69 68
f 45 63 70
f 45 70 46
f 46 70 47
f 47 70 71
f 47 71 97
f 47 97 72
f 47 72 69
f 49 52 73
f 49 73 103
f 49 103 74
f 49 74 54
f 49 54 53
f 50 75 51
f 50 68 69
f 50 69 76
f 50 76 77
f 50 77 105
f 50 105 75
f 51 75 78
f 51 78 52
f 52 78 79
f 52 79 73
f 54 74 80
f 55 80 81
f 55 81 82
f 55 82 56
f 59 83 61
f 60 62 64
f 61 83 84
f 61 84 85
f 61 85 86
f 61 86 87
f 61 87 62
f 62 87 64
f 63 67 94
f 63 94 88
f 63 88 70
f 64 87 89
f 64 89 90
f 64 90 65
f 65 90 66
f 66 90 91
f 66 91 92
f 66 92 93
f 66 93 67
f 67 93 94
f 69 72 99
f 69 99 76
f 70 88 95
f 70 95 96
f 70 96 71
f 71 96 97
f 72 97 98
f 72 98 99
f 73 79 100
f 73 100 101
f 73 101 102
f 73 102 103
f 74 103 104
f 74 104 81
f 74 81 80
f 75 105 106
f 75 106 107
f 75 107 78
f 76 99 109
f 76 109 108
f 76 108 77
f 77 108 109
f 77 109 110
f 77 110 143
f 77 143 106
f 77 106 105
f 78 107 111
f 78 111 79
f 79 111 112
f 79 112 113
f 79 113 100
f 81 114 115
f 81 115 116
f 81 116 117
f 81 104 114
f 83 118 84
f 84 118 119
f 84 119 85
f 85 120 121
f 85 121 86
f 85 119 122
f 85 122 123
f 85 123 120
f 86 121 87
f 87 121 124
f 87 124 125
f 87 125 126
f 87 126 89
f 88 94 127
f 88 127 128
f 88 128 129
f 88 129 95
f 89 126 90
f 90 126 125
f 90 125 91
f 91 125 130
f 91 130 131
f 91 131 92
f 92 131 93
f 93 131 132
f 93 132 133
f 93 133 134
f 93 134 94
f 94 134 135
f 94 135 127
f 95 129 96
f 96 129 136
f 96 136 137
f 96 137 98
f 96 98 97
f 98 137 191
f 98 191 138
f 98 138 109
f 98 109 99
f 100 113 101
f 101 113 139
f 101 139 140
f 101 140 102
f 102 140 141
f 102 141 103
f 103 141 142
f 103 142 104
f 104 142 141
f 104 141 114
f 106 143 144
f 106 144 145
f 106 145 147
f 106 147 146
f 106 146 107
f 107 146 147
f 107 147 148
f 107 148 152
f 107 152 111
f 109 138 149
f 109 149 200
f 109 200 150
f 109 150 110
f 110 150 151
f 110 151 192
f 110 192 143
f 111 152 112
f 112 152 113
f 113 152 153
f 113 153 154
f 113 154 139
f 114 141 115
f 115 141 155
f 115 155 140
f 115 140 156
f 115 156 157
f 115 157 116
f 116 158 159
f 116 159 160
f 116 160 161
f 116 161 162
f 116 162 163
f 116 163 164
f 116 164 165
f 116 165 117
f 116 157 166
f 116 166 158
f 119 167 122
f 120 123 168
f 120 168 121
f 121 125 124
f 121 168 169
f 121 169 170
f 121 170 125
f 122 167 171
f 122 171 123
f 123 171 172
f 123 172 173
f 123 173 174
f 123 174 175
f 123 175 168
f 125 170 176
f 125 176 130
f 127 135 177
f 127 177 128
f 128 177 178
f 128 178 129
f 129 178 179
f 129 179 136
f 130 180 181
f 130 181 131
f 130 176 182
f 130 182 180
f 131 181 132
f 132 181 183
f 132 183 133
f 133 183 184
f 133 184 134
f 134 184 135
f 135 184 185
f 135 185 186
f 135 186 187
f 135 187 177
f 136 188 137
f 136 179 189
f 136 189 188
f 137 188 190
f 137 190 191
f 138 191 190
f 138 190 149
f 139 154 140
f 140 154 156
f 140 155 141
f 143 192 193
f 143 193 194
f 143 194 144
f 144 194 196
f 144 196 195
f 144 195 145
f 145 195 196
f 145 196 147
f 147 196 197
f 147 197 152
f 147 152 148
f 149 190 198
f 149 198 199
f 149 199 200
f 150 200 201
f 150 201 202
f 150 202 151
f 151 202 203
f 151 203 192
f 152 197 204
f 152 204 153
f 153 204 154
f 154 204 157
f 154 157 156
f 157 204 166
f 158 205 160
f 158 160 159
f 158 166 205
f 160 206 161
f 160 205 207
f 160 207 206
f 161 206 208
f 161 208 209
f 161 209 162
f 162 210 164
f 162 164 163
f 162 209 211
f 162 211 210
f 166 204 212
f 166 212 213
f 166 213 205
f 168 175 214
f 168 214 169
f 169 214 215
f 169 215 170
f 170 215 176
f 171 216 173
f 171 173 172
f 171 217 216
f 173 175 174
f 173 216 218
f 173 218 219
f 173 219 220
f 173 220 175
f 175 220 221
f 175 221 214
f 176 215 222
f 176 222 182
f 177 187 223
f 177 223 178
f 178 223 224
f 178 224 179
f 179 224 225
f 179 225 189
f 180 183 181
f 180 182 226
f 180 226 227
f 180 227 183
f 182 222 228
f 182 228 229
f 182 229 226
f 183 227 230
f 183 230 184
f 184 230 231
f 184 231 185
f 185 231 232
f 185 232 233
f 185 233 234
f 185 234 186
f 186 234 187
f 187 234 235
f 187 235 223
f 188 189 190
f 189 225 236
f 189 236 237
f 189 237 190
f 190 237 238
f 190 238 239
f 190 239 198
f 192 203 240
f 192 240 241
f 192 241 193
f 193 241 242
f 193 242 243
f 193 243 194
f 194 243 244
f 194 244 196
f 196 245 197
f 196 244 246
f 196 246 245
f 197 245 204
f 198 239 199
f 199 247 248
f 199 248 200
f 199 239 249
f 199 249 250
f 199 250 251
f 199 251 247
f 200 248 201
f 201 248 247
f 201 247 252
f 201 252 253
f 201 253 202
f 202 254 203
f 202 253 255
f 202 255 254
f 203 254 240
f 204 245 256
f 204 256 212
f 205 213 212
f 205 212 257
f 205 257 207
f 206 207 258
f 206 258 208
f 207 257 259
f 207 259 258
f 208 258 260
f 208 260 209
f 209 260 261
f 209 261 262
f 212 256 246
f 212 246 263
f 212 263 259
f 212 259 257
f 214 221 264
f 214 264 222
f 214 222 215
f 216 217 218
f 217 265 266
f 217 266 267
f 217 267 218
f 218 267 219
f 219 267 266
f 219 266 268
f 219 268 220
f 220 268 269
f 220 269 270
f 220 270 271
f 220 271 272
f 220 272 221
f 221 272 264
f 222 264 273
f 222 273 228
f 223 235 274
f 223 274 224
f 224 274 275
f 224 275 225
f 225 275 236
f 226 231 227
f 226 229 276
f 226 276 277
f 226 277 231
f 227 231 230
f 228 273 278
f 228 278 229
f 229 278 279
f 229 279 276
f 231 277 280
f 231 280 232
f 232 280 281
f 232 281 233
f 233 281 282
f 233 282 283
f 233 283 234
f 234 283 235
f 235 283 284
f 235 284 285
f 235 285 274
f 236 286 237
f 236 275 287
f 236 287 286
f 237 286 238
f 238 286 288
f 238 288 239
f 239 288 249
f 240 255 289
f 240 289 241
f 240 254 255
f 241 289 290
f 241 290 242
f 242 290 291
f 242 291 292
f 242 292 243
f 243 292 293
f 243 293 294
f 243 294 244
f 244 294 295
f 244 295 296
f 244 296 246
f 245 246 256
f 246 296 259
f 246 259 263
f 247 251 297
f 247 297 298
f 247 298 252
f 249 288 251
f 249 251 250
f 251 288 299
f 251 299 298
f 251 298 297
f 252 298 300
f 252 300 253
f 253 300 255
f 255 301 302
f 255 302 289
f 255 300 303
f 255 303 304
f 255 304 305
f 255 305 301
f 258 259 306
f 258 306 261
f 258 261 260
f 259 296 307
f 259 307 308
f 259 308 261
f 259 261 306
f 261 308 309
f 261 309 262
f 264 272 273
f 265 310 266
f 265 311 312
f 265 312 310
f 266 310 268
f 268 310 313
f 268 313 314
f 268 314 315
f 268 315 269
f 269 315 316
f 269 316 270
f 270 279 278
f 270 278 271
f 270 316 317
f 270 317 279
f 271 278 273
f 271 273 272
f 274 285 318
f 274 318 275
f 275 318 319
f 275 319 287
f 276 320 277
f 276 279 320
f 277 320 280
f 279 317 321
f 279 321 320
f 280 320 281
f 281 320 322
f 281 322 323
f 281 323 324
f 281 324 325
f 281 325 282
f 282 325 326
f 282 326 283
f 283 326 284
f 284 327 285
f 284 326 328
f 284 328 327
f 285 327 318
f 286 287 329
f 286 329 288
f 287 330 331
f 287 331 329
f 287 319 332
f 287 332 330
f 288 329 331
f 288 331 299
f 289 302 305
f 289 305 333
f 289 333 290
f 290 333 334
f 290 334 291
f 291 334 335
f 291 335 336
f 291 336 292
f 292 336 293
f 293 295 294
f 293 336 337
f 293 337 295
f 295 337 338
f 295 338 339
f 295 339 296
f 296 339 340
f 296 340 307
f 298 341 300
f 298 299 342
f 298 342 341
f 299 331 343
f 299 343 342
f 300 341 303
f 301 305 302
f 303 341 344
f 303 344 345
f 303 345 304
f 304 345 346
f 304 346 347
f 304 347 305
f 305 347 333
f 307 340 348
f 307 348 308
f 308 348 349
f 308 349 309
f 310 312 313
f 311 350 351
f 311 351 312
f 312 351 352
f 312 352 353
f 312 353 314
f 312 314 313
f 314 353 354
f 314 354 355
f 314 355 356
f 314 356 357
f 314 357 358
f 314 358 315
f 315 358 359
f 315 359 316
f 316 360 317
f 316 359 360
f 317 360 361
f 317 361 321
f 318 327 362
f 318 362 319
f 319 362 363
f 319 363 332
f 320 321 364
f 320 364 322
f 321 361 364
f 322 364 323
f 323 361 365
f 323 365 366
f 323 366 367
f 323 367 368
f 323 368 369
f 323 369 325
f 323 325 324
f 323 364 361
f 325 369 368
f 325 368 370
f 325 370 371
f 325 371 326
f 326 371 372
f 326 372 328
f 327 328 373
f 327 373 374
f 327 374 362
f 328 372 373
f 330 332 375
f 330 375 331
f 331 375 376
f 331 376 343
f 332 363 375
f 333 347 377
f 333 377 334
f 334 377 378
f 334 378 335
f 335 378 379
f 335 379 380
f 335 380 336
f 336 380 337
f 337 380 338
f 338 340 339
f 338 380 381
f 338 381 382
f 338 382 383
f 338 383 340
f 340 383 384
f 340 384 348
f 341 342 385
f 341 385 344
f 342 343 386
f 342 386 385
f 343 376 387
f 343 387 386
f 344 385 388
f 344 388 345
f 345 388 389
f 345 389 346
f 346 389 390
f 346 390 391
f 346 391 347
f 347 391 377
f 348 392 349
f 348 384 393
f 348 393 392
f 350 394 395
f 350 395 351
f 351 395 352
f 352 396 353
f 352 395 396
f 353 396 355
f 353 355 354
f 355 395 356
f 355 396 395
f 356 395 397
f 356 397 398
f 356 398 399
f 356 399 400
f 356 400 401
f 356 401 402
f 356 402 403
f 356 403 404
f 356 404 357
f 357 405 406
f 357 406 407
f 357 407 358
f 357 404 403
f 357 403 405
f 358 407 408
f 358 408 359
f 359 408 409
f 359 409 410
f 359 410 360
f 360 410 411
f 360 411 361
f 361 411 366
f 361 366 365
f 362 374 412
f 362 412 363
f 363 412 413
f 363 413 414
f 363 414 415
f 363 415 375
f 366 368 367
f 366 411 410
f 366 410 416
f 366 416 417
f 366 417 418
f 366 418 368
f 368 418 419
f 368 419 420
f 368 420 370
f 370 420 421
f 370 421 422
f 370 422 371
f 371 422 372
f 372 422 423
f 372 423 424
f 372 424 425
f 372 425 426
f 372 426 373
f 373 426 427
f 373 427 374
f 374 427 412
f 375 415 376
f 376 415 387
f 377 391 428
f 377 428 378
f 378 428 429
f 378 429 379
f 379 429 430
f 379 430 381
f 379 381 380
f 381 430 431
f 381 431 382
f 382 431 432
f 382 432 383
f 383 432 433
f 383 433 384
f 384 433 434
f 384 434 393
f 385 386 435
f 385 435 436
f 385 436 388
f 386 387 437
f 386 437 435
f 387 415 437
f 388 436 389
f 389 436 438
f 389 438 390
f 390 438 439
f 390 439 440
f 390 440 391
f 391 440 428
f 392 393 441
f 392 441 442
f 393 434 441
f 394 443 395
f 395 444 445
f 395 445 397
f 395 443 444
f 397 445 398
f 398 445 444
f 398 446 399
f 399 446 401
f 399 401 400
f 402 447 448
f 402 448 403
f 403 448 449
f 403 449 450
f 403 450 451
f 403 451 405
f 405 451 406
f 406 452 407
f 406 451 453
f 406 453 452
f 407 454 409
f 407 409 408
f 407 452 454
f 409 454 455
f 409 455 417
f 409 417 416
f 409 416 410
f 412 427 456
f 412 456 413
f 413 457 414
f 413 456 458
f 413 458 457
f 414 457 459
f 414 459 415
f 415 459 460
f 415 460 461
f 415 461 462
f 415 462 437
f 417 455 463
f 417 463 464
f 417 464 418
f 418 464 419
f 419 464 465
f 419 465 466
f 419 466 420
f 420 466 421
f 421 466 467
f 421 467 424
f 421 424 423
f 421 423 422
f 424 467 468
f 424 468 469
f 424 469 470
f 424 470 425
f 425 471 427
f 425 427 426
f 425 470 472
f 425 472 471
f 427 471 456
f 428 440 473
f 428 473 429
f 429 473 474
f 429 474 475
f 429 475 430
f 430 475 431
f 431 475 476
f 431 476 432
f 432 476 477
f 432 477 433
f 433 477 478
f 433 478 434
f 434 478 479
f 434 479 441
f 435 437 480
f 435 480 436
f 436 480 481
f 436 481 438
f 437 462 480
f 438 481 482
f 438 482 439
f 439 473 440
f 439 482 483
f 439 483 484
f 439 484 485
f 439 485 473
f 441 479 442
f 442 479 486
f 442 486 487
f 447 488 448
f 448 488 489
f 448 489 490
f 448 490 491
f 448 491 492
f 448 492 449
f 449 493 450
f 449 492 494
f 449 494 495
f 449 495 496
f 449 496 497
f 449 497 493
f 450 498 451
f 450 493 499
f 450 499 498
f 451 498 500
f 451 500 501
f 451 501 502
f 451 502 453
f 452 503 454
f 452 453 504
f 452 504 503
f 453 502 505
f 453 505 506
f 453 506 507
f 453 507 508
f 453 508 504
f 454 503 455
f 455 503 509
f 455 509 463
f 456 471 510
f 456 510 458
f 457 458 511
f 457 511 512
f 457 512 460
f 457 460 459
f 458 510 513
f 458 513 512
f 458 512 511
f 460 512 514
f 460 514 461
f 461 515 516
f 461 516 462
f 461 514 517
f 461 517 518
f 461 518 515
f 462 516 480
f 463 509 519
f 463 519 464
f 464 519 465
f 465 519 520
f 465 520 466
f 466 520 467
f 467 520 521
f 467 521 468
f 468 521 522
f 468 522 469
f 469 522 523
f 469 523 524
f 469 524 472
f 469 472 470
f 471 472 525
f 471 525 510
f 472 526 525
f 472 524 527
f 472 527 526
f 473 485 528
f 473 528 474
f 474 528 529
f 474 529 475
f 475 529 530
f 475 530 476
f 476 530 531
f 476 531 532
f 476 532 477
f 477 532 533
f 477 533 534
f 477 534 478
f 478 534 535
f 478 535 479
f 479 535 536
f 479 536 486
f 480 516 481
f 481 516 537
f 481 537 482
f 482 537 538
f 482 538 483
f 483 538 539
f 483 539 484
f 484 528 485
f 484 539 540
f 484 540 541
f 484 541 528
f 486 536 542
f 486 542 543
f 486 543 544
f 486 544 545
f 486 545 546
f 486 546 547
f 486 547 548
f 486 548 487
f 491 549 492
f 491 550 549
f 492 549 551
f 492 551 494
f 493 500 499
f 493 497 500
f 494 552 495
f 495 552 553
f 495 553 554
f 495 554 555
f 495 555 556
f 495 556 557
f 495 557 496
f 496 557 558
f 496 558 497
f 497 558 559
f 497 559 560
f 497 560 561
f 497 561 562
f 497 562 563
f 497 563 500
f 498 499 500
f 500 564 501
f 500 563 564
f 501 564 502
f 502 564 565
f 502 565 566
f 502 566 567
f 502 567 505
f 503 568 509
f 503 504 569
f 503 569 570
f 503 570 568
f 504 508 571
f 504 571 572
f 504 572 569
f 505 567 566
f 505 566 573
f 505 573 506
f 506 573 566
f 506 566 562
f 506 562 574
f 506 574 507
f 507 574 508
f 508 574 575
f 508 575 571
f 509 568 570
f 509 570 576
f 509 576 519
f 510 525 577
f 510 577 578
f 510 578 513
f 512 513 578
f 512 578 577
f 512 577 579
f 512 579 514
f 514 579 580
f 514 580 517
f 515 581 537
f 515 537 516
f 515 518 582
f 515 582 581
f 517 580 518
f 518 580 583
f 518 583 584
f 518 584 585
f 518 585 582
f 519 576 586
f 519 586 520
f 520 586 521
f 521 586 587
f 521 587 522
f 522 587 588
f 522 588 589
f 522 589 523
f 523 589 590
f 523 590 524
f 524 590 527
f 525 526 577
f 526 527 577
f 527 591 577
f 527 590 592
f 527 592 591
f 528 541 593
f 528 593 529
f 529 593 530
f 530 593 531
f 531 593 594
f 531 594 595
f 531 595 596
f 531 596 532
f 532 596 533
f 533 596 597
f 533 597 598
f 533 598 534
f 534 598 535
f 535 598 599
f 535 599 536
f 536 599 542
f 537 581 600
f 537 600 538
f 538 600 539
f 539 600 540
f 540 600 601
f 540 601 602
f 540 602 603
f 540 603 593
f 540 593 541
f 542 599 604
f 542 604 605
f 542 605 606
f 542 606 607
f 542 607 608
f 542 608 609
f 542 609 544
f 542 544 543
f 544 609 545
f 545 609 607
f 545 607 610
f 545 610 546
f 549 550 551
f 552 554 553
f 554 611 555
f 555 611 612
f 555 612 613
f 555 613 614
f 555 614 615
f 555 615 616
f 555 616 617
f 555 617 556
f 556 618 557
f 556 617 619
f 556 619 618
f 557 618 620
f 557 620 621
f 557 621 622
f 557 622 623
f 557 623 559
f 557 559 558
f 559 623 624
f 559 624 560
f 560 624 625
f 560 625 626
f 560 626 561
f 561 626 627
f 561 627 628
f 561 628 574
f 561 574 562
f 562 566 565
f 562 565 564
f 562 564 563
f 569 572 570
f 570 572 629
f 570 629 630
f 570 630 631
f 570 631 576
f 571 629 572
f 571 575 632
f 571 632 629
f 574 628 575
f 575 628 633
f 575 633 634
f 575 634 635
f 575 635 632
f 576 636 637
f 576 637 586
f 576 631 638
f 576 638 636
f 577 591 639
f 577 639 579
f 579 639 591
f 579 591 580
f 580 591 640
f 580 640 641
f 580 641 583
f 581 582 600
f 582 642 600
f 582 585 642
f 583 641 643
f 583 643 644
f 583 644 645
f 583 645 584
f 584 646 585
f 584 645 647
f 584 647 646
f 585 648 642
f 585 646 649
f 585 649 648
f 586 637 587
f 587 637 650
f 587 650 588
f 588 650 651
f 588 651 652
f 588 652 589
f 589 652 653
f 589 653 590
f 590 653 654
f 590 654 655
f 590 655 592
f 591 592 656
f 591 656 640
f 592 655 657
f 592 657 658
f 592 658 656
f 593 603 594
f 594 603 659
f 594 659 595
f 595 659 660
f 595 660 661
f 595 661 596
f 596 661 597
f 597 661 662
f 597 662 598
f 598 662 663
f 598 663 599
f 599 663 604
f 600 642 601
f 601 642 664
f 601 664 602
f 602 664 665
f 602 665 666
f 602 666 603
f 603 666 659
f 604 663 667
f 604 667 668
f 604 668 605
f 605 668 669
f 605 669 670
f 605 670 671
f 605 671 672
f 605 672 606
f 606 673 674
f 606 674 607
f 606 672 673
f 607 674 675
f 607 609 608
f 613 615 614
f 615 676 616
f 616 676 677
f 616 677 678
f 616 678 679
f 616 679 680
f 616 680 617
f 617 680 619
f 618 619 681
f 618 681 620
f 619 680 682
f 619 682 683
f 619 683 684
f 619 684 685
f 619 685 686
f 619 686 681
f 620 681 687
f 620 687 688
f 620 688 689
f 620 689 622
f 620 622 621
f 622 689 624
f 622 624 623
f 624 689 688
f 624 688 690
f 624 690 625
f 625 691 692
f 625 692 626
f 625 690 693
f 625 693 691
f 626 692 627
f 627 692 694
f 627 694 628
f 628 694 695
f 628 695 633
f 629 632 696
f 629 696 630
f 630 697 698
f 630 698 631
f 630 696 699
f 630 699 700
f 630 700 697
f 631 698 638
f 632 635 696
f 633 695 634
f 634 695 701
f 634 701 702
f 634 702 635
f 635 703 696
f 635 702 703
f 636 650 637
f 636 638 704
f 636 704 705
f 636 705 650
f 638 698 704
f 640 656 658
f 640 658 657
f 640 657 706
f 640 706 707
f 640 707 708
f 640 708 709
f 640 709 641
f 641 709 643
f 642 648 664
f 643 710 644
f 643 709 710
f 644 710 711
f 644 711 645
f 645 711 712
f 645 712 713
f 645 713 647
f 646 647 714
f 646 714 649
f 647 715 714
f 647 713 716
f 647 716 715
f 648 649 717
f 648 717 664
f 649 714 718
f 649 718 717
f 650 705 719
f 650 719 651
f 651 720 652
f 651 719 721
f 651 721 720
f 652 720 722
f 652 722 653
f 653 722 723
f 653 723 654
f 654 724 657
f 654 657 655
f 654 723 725
f 654 725 726
f 654 726 724
f 657 724 708
f 657 708 707
f 657 707 706
f 659 666 727
f 659 727 660
f 660 728 661
f 660 727 729
f 660 729 730
f 660 730 728
f 661 728 662
f 662 728 731
f 662 731 663
f 663 731 732
f 663 732 733
f 663 733 667
f 664 717 734
f 664 734 665
f 665 734 735
f 665 735 666
f 666 735 727
f 667 733 736
f 667 736 668
f 668 736 737
f 668 737 669
f 669 737 804
f 669 804 738
f 669 738 739
f 669 739 740
f 669 740 670
f 670 740 739
f 670 739 741
f 670 741 742
f 670 742 671
f 671 742 672
f 672 742 743
f 672 743 673
f 673 675 674
f 673 743 675
f 677 744 678
f 678 680 679
f 678 744 745
f 678 745 680
f 680 745 682
f 681 746 687
f 681 686 747
f 681 747 746
f 682 745 748
f 682 748 749
f 682 749 750
f 682 750 751
f 682 751 684
f 682 684 683
f 684 752 686
f 684 686 685
f 684 751 753
f 684 753 754
f 684 754 755
f 684 755 752
f 686 752 747
f 687 746 688
f 688 746 756
f 688 756 757
f 688 757 758
f 688 758 690
f 690 758 759
f 690 759 693
f 691 760 761
f 691 761 692
f 691 693 762
f 691 762 760
f 692 761 695
f 692 695 694
f 693 759 762
f 695 761 701
f 696 703 699
f 697 704 698
f 697 700 704
f 699 703 702
f 699 702 700
f 700 702 763
f 700 763 764
f 700 764 765
f 700 765 766
f 700 766 704
f 701 761 760
f 701 760 767
f 701 767 702
f 702 767 768
f 702 768 769
f 702 769 770
f 702 770 763
f 704 766 705
f 705 766 771
f 705 771 772
f 705 772 719
f 708 724 726
f 708 726 725
f 708 725 773
f 708 773 709
f 709 773 774
f 709 774 775
f 709 775 710
f 710 775 776
f 710 776 777
f 710 777 778
f 710 778 711
f 711 778 712
f 712 778 777
f 712 777 713
f 713 777 779
f 713 779 780
f 713 780 716
f 714 715 781
f 714 781 782
f 714 782 783
f 714 783 718
f 715 716 784
f 715 784 781
f 716 780 784
f 717 718 785
f 717 785 786
f 717 786 734
f 718 783 787
f 718 787 788
f 718 788 785
f 719 772 721
f 720 721 722
f 721 772 789
f 721 789 790
f 721 790 791
f 721 791 722
f 722 791 792
f 722 792 723
f 723 792 725
f 725 792 793
f 725 793 774
f 725 774 773
f 727 735 794
f 727 794 729
f 728 730 731
f 729 794 795
f 729 795 796
f 729 796 730
f 730 796 797
f 730 797 731
f 731 797 732
f 732 797 798
f 732 798 799
f 732 799 733
f 733 799 800
f 733 800 736
f 734 786 735
f 735 786 801
f 735 801 794
f 736 800 802
f 736 802 803
f 736 803 737
f 737 803 804
f 738 804 805
f 738 805 806
f 738 806 739
f 739 807 808
f 739 808 741
f 739 806 809
f 739 809 810
f 739 810 811
f 739 811 807
f 744 812 745
f 745 812 813
f 745 813 814
f 745 814 748
f 746 747 756
f 747 752 815
f 747 815 816
f 747 816 756
f 748 814 749
f 749 817 750
f 749 818 817
f 750 817 819
f 750 819 753
f 750 753 751
f 752 755 820
f 752 820 815
f 753 821 822
f 753 822 754
f 753 819 821
f 754 822 755
f 755 822 823
f 755 823 820
f 756 816 757
f 757 824 758
f 757 816 824
f 758 824 759
f 759 824 825
f 759 825 762
f 760 762 826
f 760 826 767
f 762 825 827
f 762 827 826
f 763 770 764
f 764 770 828
f 764 828 829
f 764 829 830
f 764 830 765
f 765 830 831
f 765 831 832
f 765 832 771
f 765 771 766
f 767 826 768
f 768 833 770
f 768 770 769
f 768 826 834
f 768 834 833
f 770 833 835
f 770 835 828
f 771 836 772
f 771 832 836
f 772 836 789
f 774 837 775
f 774 793 838
f 774 838 837
f 775 837 838
f 775 838 776
f 776 838 839
f 776 839 840
f 776 840 777
f 777 840 839
f 777 839 841
f 777 841 842
f 777 842 779
f 779 842 843
f 779 843 844
f 779 844 911
f 779 911 845
f 779 845 846
f 779 846 847
f 779 847 780
f 780 847 848
f 780 848 784
f 781 784 849
f 781 849 782
f 782 850 787
f 782 787 783
f 782 849 851
f 782 851 850
f 784 848 852
f 784 852 853
f 784 853 849
f 785 788 854
f 785 854 786
f 786 854 850
f 786 850 855
f 786 855 856
f 786 856 857
f 786 857 801
f 787 850 854
f 787 854 788
f 789 836 790
f 790 858 792
f 790 792 791
f 790 836 859
f 790 859 860
f 790 860 858
f 792 858 793
f 793 858 861
f 793 861 838
f 794 801 862
f 794 862 863
f 794 863 864
f 794 864 796
f 794 796 795
f 796 864 863
f 796 863 865
f 796 865 798
f 796 798 797
f 798 865 799
f 799 865 866
f 799 866 867
f 799 867 800
f 800 867 868
f 800 868 869
f 800 869 802
f 801 857 870
f 801 870 862
f 802 804 803
f 802 869 871
f 802 871 872
f 802 872 804
f 804 872 873
f 804 873 805
f 805 873 874
f 805 874 875
f 805 875 876
f 805 876 877
f 805 877 878
f 805 878 806
f 806 878 879
f 806 879 809
f 807 811 880
f 807 880 881
f 809 811 810
f 809 879 882
f 809 882 811
f 811 882 880
f 815 820 883
f 815 883 884
f 815 884 816
f 816 885 886
f 816 886 824
f 816 884 887
f 816 887 885
f 817 818 819
f 819 888 821
f 820 823 889
f 820 889 890
f 820 890 891
f 820 891 884
f 820 884 883
f 821 888 892
f 821 892 893
f 821 893 894
f 821 894 822
f 822 894 895
f 822 895 896
f 822 896 823
f 823 896 897
f 823 897 889
f 824 886 885
f 824 885 825
f 825 885 898
f 825 898 827
f 826 827 899
f 826 899 834
f 827 898 900
f 827 900 899
f 828 835 829
f 829 835 901
f 829 901 902
f 829 902 831
f 829 831 830
f 831 903 832
f 831 902 903
f 832 903 904
f 832 904 836
f 833 834 905
f 833 905 835
f 834 899 905
f 835 905 906
f 835 906 901
f 836 904 859
f 838 861 907
f 838 907 908
f 838 908 839
f 839 908 909
f 839 909 844
f 839 844 843
f 839 843 841
f 841 843 842
f 844 909 910
f 844 910 911
f 845 911 912
f 845 912 913
f 845 913 846
f 846 914 847
f 846 913 915
f 846 915 916
f 846 916 914
f 847 914 917
f 847 917 852
f 847 852 848
f 849 853 918
f 849 918 919
f 849 919 851
f 850 851 920
f 850 920 855
f 851 919 920
f 852 917 921
f 852 921 922
f 852 922 853
f 853 922 918
f 855 920 923
f 855 923 856
f 856 923 924
f 856 924 857
f 857 924 925
f 857 925 870
f 858 860 861
f 859 904 903
f 859 903 902
f 859 902 926
f 859 926 927
f 859 927 860
f 860 927 928
f 860 928 861
f 861 928 907
f 862 870 929
f 862 929 930
f 862 930 863
f 863 930 931
f 863 931 932
f 863 932 865
f 865 932 866
f 866 932 933
f 866 933 934
f 866 934 935
f 866 935 867
f 867 935 868
f 868 935 869
f 869 935 934
f 869 934 873
f 869 873 872
f 869 872 871
f 870 925 929
f 873 934 936
f 873 936 874
f 874 936 937
f 874 937 878
f 874 878 876
f 874 876 875
f 876 878 877
f 878 937 938
f 878 938 879
f 879 938 882
f 880 882 939
f 880 939 940
f 880 940 941
f 880 941 881
f 882 938 939
f 884 891 887
f 885 887 898
f 887 891 942
f 887 942 943
f 887 943 944
f 887 944 945
f 887 945 946
f 887 946 900
f 887 900 898
f 889 897 890
f 890 897 947
f 890 947 943
f 890 943 891
f 891 943 942
f 892 948 894
f 892 894 893
f 894 948 949
f 894 949 950
f 894 950 951
f 894 951 952
f 894 952 953
f 894 953 954
f 894 954 955
f 894 955 956
f 894 956 957
f 894 957 895
f 895 957 958
f 895 958 896
f 896 958 959
f 896 959 897
f 897 959 960
f 897 960 947
f 899 961 962
f 899 962 905
f 899 900 961
f 900 946 945
f 900 945 963
f 900 963 961
f 901 964 902
f 901 906 965
f 901 965 964
f 902 964 966
f 902 966 926
f 905 962 906
f 906 962 965
f 907 928 967
f 907 967 968
f 907 968 909
f 907 909 908
f 909 968 910
f 910 968 969
f 910 969 970
f 910 970 971
f 910 971 911
f 911 971 912
f 912 971 972
f 912 972 913
f 913 972 973
f 913 973 974
f 913 974 915
f 914 975 976
f 914 976 917
f 914 916 975
f 915 974 977
f 915 977 916
f 916 977 978
f 916 978 975
f 917 976 979
f 917 979 921
f 918 920 919
f 918 922 920
f 920 922 980
f 920 980 923
f 921 979 922
f 922 979 981
f 922 981 980
f 923 980 982
f 923 982 924
f 924 929 925
f 924 982 983
f 924 983 929
f 926 966 967
f 926 967 928
f 926 928 927
f 929 984 930
f 929 983 985
f 929 985 984
f 930 984 931
f 931 984 933
f 931 933 932
f 933 986 934
f 933 984 987
f 933 987 988
f 933 988 986
f 934 986 936
f 936 986 989
f 936 989 937
f 937 990 991
f 937 991 938
f 937 989 992
f 937 992 993
f 937 993 990
f 938 991 939
f 939 994 995
f 939 995 996
f 939 996 997
f 939 997 940
f 939 991 993
f 939 993 998
f 939 998 994
f 943 999 945
f 943 945 944
f 943 947 1000
f 943 1000 1001
f 943 1001 999
f 945 999 1002
f 945 1002 1003
f 945 1003 1004
f 945 1004 963
f 947 960 1005
f 947 1005 1000
f 953 1006 1007
f 953 1007 1008
f 953 1008 1009
f 953 1009 954
f 954 956 955
f 954 1009 956
f 956 1010 1011
f 956 1011 958
f 956 958 957
f 956 1009 1010
f 958 1012 959
f 958 1011 1012
f 959 1012 1013
f 959 1013 960
f 960 1013 1005
f 961 963 1004
f 961 1004 962
f 962 1004 1014
f 962 1014 965
f 964 965 1015
f 964 1015 1016
f 964 1016 966
f 965 1014 1015
f 966 1017 967
f 966 1016 1017
f 967 1017 969
f 967 969 968
f 969 1017 1018
f 969 1018 970
f 970 1018 1019
f 970 1019 971
f 971 1019 1020
f 971 1020 1021
f 971 1021 1022
f 971 1022 972
f 972 1022 1023
f 972 1023 1024
f 972 1024 973
f 973 1024 1025
f 973 1025 1026
f 973 1026 974
f 974 1026 1027
f 974 1027 977
f 975 1028 1029
f 975 1029 976
f 975 978 1030
f 975 1030 1028
f 976 1029 1031
f 976 1031 979
f 977 1027 1032
f 977 1032 1033
f 977 1033 978
f 978 1033 1030
f 979 1031 981
f 980 981 982
f 981 1031 982
f 982 1031 1034
f 982 1034 1035
f 982 1035 983
f 983 1035 985
f 984 985 987
f 985 1035 1036
f 985 1036 987
f 986 988 1037
f 986 1037 989
f 987 1036 1038
f 987 1038 988
f 988 1038 1039
f 988 1039 1040
f 988 1040 1037
f 989 1037 992
f 990 993 991
f 992 1037 1040
f 992 1040 1041
f 992 1041 993
f 993 1041 1042
f 993 1042 1043
f 993 1043 1044
f 993 1044 1045
f 993 1045 998
f 994 1046 995
f 994 998 1046
f 995 1046 996
f 996 1046 1047
f 996 1047 1048
f 998 1045 1047
f 998 1047 1046
f 999 1001 1049
f 999 1049 1002
f 1000 1005 1001
f 1001 1005 1050
f 1001 1050 1051
f 1001 1051 1049
f 1002 1049 1052
f 1002 1052 1053
f 1002 1053 1003
f 1003 1053 1054
f 1003 1054 1004
f 1004 1054 1014
f 1005 1013 1055
f 1005 1055 1056
f 1005 1056 1050
f 1006 1057 1007
f 1007 1058 1008
f 1007 1057 1059
f 1007 1059 1060
f 1007 1060 1061
f 1007 1061 1058
f 1008 1058 1009
f 1009 1058 1062
f 1009 1062 1063
f 1009 1063 1010
f 1010 1064 1011
f 1010 1063 1064
f 1011 1064 1065
f 1011 1065 1066
f 1011 1066 1012
f 1012 1067 1013
f 1012 1066 1068
f 1012 1068 1067
f 1013 1067 1069
f 1013 1069 1055
f 1014 1054 1070
f 1014 1070 1015
f 1015 1070 1016
f 1016 1070 1071
f 1016 1071 1072
f 1016 1072 1073
f 1016 1073 1017
f 1017 1073 1018
f 1018 1073 1020
f 1018 1020 1019
f 1020 1073 1072
f 1020 1072 1074
f 1020 1074 1021
f 1021 1074 1075
f 1021 1075 1022
f 1022 1075 1023
f 1023 1075 1133
f 1023 1133 1076
f 1023 1076 1025
f 1023 1025 1024
f 1025 1077 1026
f 1025 1076 1078
f 1025 1078 1079
f 1025 1079 1080
f 1025 1080 1077
f 1026 1077 1081
f 1026 1081 1082
f 1026 1082 1083
f 1026 1083 1027
f 1027 1083 1032
f 1028 1084 1085
f 1028 1085 1029
f 1028 1030 1084
f 1029 1085 1034
f 1029 1034 1031
f 1030 1033 1086
f 1030 1086 1084
f 1032 1083 1087
f 1032 1087 1033
f 1033 1088 1086
f 1033 1087 1089
f 1033 1089 1088
f 1034 1090 1035
f 1034 1085 1090
f 1035 1090 1036
f 1036 1090 1091
f 1036 1091 1038
f 1038 1091 1092
f 1038 1092 1093
f 1038 1093 1094
f 1038 1094 1095
f 1038 1095 1039
f 1039 1096 1040
f 1039 1095 1096
f 1040 1096 1043
f 1040 1043 1042
f 1040 1042 1041
f 1043 1096 1097
f 1043 1097 1098
f 1043 1098 1099
f 1043 1099 1044
f 1044 1099 1100
f 1044 1100 1045
f 1045 1100 1047
f 1047 1100 1099
f 1047 1099 1101
f 1047 1101 1102
f 1047 1102 1103
f 1047 1103 1104
f 1047 1104 1048
f 1048 1104 1105
f 1048 1105 1106
f 1049 1107 1052
f 1049 1051 1107
f 1050 1056 1108
f 1050 1108 1109
f 1050 1109 1051
f 1051 1109 1107
f 1052 1107 1110
f 1052 1110 1053
f 1053 1111 1054
f 1053 1110 1111
f 1054 1111 1070
f 1055 1069 1056
f 1056 1069 1112
f 1056 1112 1113
f 1056 1113 1114
f 1056 1114 1115
f 1056 1115 1108
f 1058 1061 1116
f 1058 1116 1062
f 1059 1117 1060
f 1060 1117 1118
f 1060 1118 1119
f 1060 1119 1120
f 1060 1120 1061
f 1061 1120 1121
f 1061 1121 1116
f 1062 1116 1063
f 1063 1116 1064
f 1064 1122 1065
f 1064 1116 1122
f 1065 1122 1123
f 1065 1123 1066
f 1066 1123 1068
f 1067 1124 1069
f 1067 1068 1125
f 1067 1125 1126
f 1067 1126 1124
f 1068 1123 1125
f 1069 1124 1127
f 1069 1127 1128
f 1069 1128 1112
f 1070 1111 1071
f 1071 1074 1072
f 1071 1111 1129
f 1071 1129 1130
f 1071 1130 1074
f 1074 1130 1131
f 1074 1131 1075
f 1075 1131 1132
f 1075 1132 1133
f 1076 1133 1079
f 1076 1079 1078
f 1077 1080 1134
f 1077 1134 1135
f 1077 1135 1081
f 1079 1136 1137
f 1079 1137 1138
f 1079 1138 1080
f 1079 1133 1136
f 1080 1138 1139
f 1080 1139 1134
f 1081 1135 1140
f 1081 1140 1141
f 1081 1141 1142
f 1081 1142 1143
f 1081 1143 1144
f 1081 1144 1145
f 1081 1145 1146
f 1081 1146 1147
f 1081 1147 1148
f 1081 1148 1083
f 1081 1083 1082
f 1083 1149 1087
f 1083 1148 1150
f 1083 1150 1149
f 1084 1151 1152
f 1084 1152 1085
f 1084 1086 1153
f 1084 1153 1151
f 1085 1152 1090
f 1086 1088 1153
f 1087 1149 1089
f 1088 1154 1153
f 1088 1089 1149
f 1088 1149 1155
f 1088 1155 1156
f 1088 1156 1154
f 1090 1152 1091
f 1091 1152 1092
f 1092 1152 1151
f 1092 1151 1157
f 1092 1157 1093
f 1093 1158 1159
f 1093 1159 1095
f 1093 1095 1094
f 1093 1157 1160
f 1093 1160 1158
f 1095 1159 1096
f 1096 1159 1161
f 1096 1161 1162
f 1096 1162 1163
f 1096 1163 1097
f 1097 1163 1098
f 1098 1101 1099
f 1098 1163 1164
f 1098 1164 1165
f 1098 1165 1101
f 1101 1165 1102
f 1102 1165 1166
f 1102 1166 1103
f 1103 1166 1167
f 1103 1167 1105
f 1103 1105 1104
f 1105 1167 1168
f 1105 1168 1169
f 1105 1169 1106
f 1106 1169 1168
f 1106 1168 1170
f 1107 1171 1172
f 1107 1172 1110
f 1107 1109 1171
f 1108 1173 1109
f 1108 1115 1174
f 1108 1174 1175
f 1108 1175 1173
f 1109 1173 1176
f 1109 1176 1171
f 1110 1172 1177
f 1110 1177 1129
f 1110 1129 1111
f 1112 1128 1113
f 1113 1178 1174
f 1113 1174 1114
f 1113 1128 1179
f 1113 1179 1180
f 1113 1180 1178
f 1114 1174 1115
f 1116 1121 1181
f 1116 1181 1182
f 1116 1182 1183
f 1116 1183 1189
f 1116 1189 1122
f 1118 1184 1119
f 1119 1184 1181
f 1119 1181 1120
f 1120 1181 1121
f 1122 1185 1186
f 1122 1186 1187
f 1122 1187 1188
f 1122 1188 1125
f 1122 1125 1123
f 1122 1189 1185
f 1124 1126 1127
f 1125 1188 1126
f 1126 1188 1190
f 1126 1190 1127
f 1127 1190 1179
f 1127 1179 1128
f 1129 1177 1130
f 1130 1177 1191
f 1130 1191 1192
f 1130 1192 1131
f 1131 1192 1132
f 1132 1192 1136
f 1132 1136 1133
f 1134 1140 1135
f 1134 1139 1193
f 1134 1193 1140
f 1136 1192 1194
f 1136 1194 1195
f 1136 1195 1196
f 1136 1196 1137
f 1137 1196 1197
f 1137 1197 1139
f 1137 1139 1138
f 1139 1197 1198
f 1139 1198 1199
f 1139 1199 1193
f 1140 1193 1200
f 1140 1200 1201
f 1140 1201 1202
f 1140 1202 1141
f 1141 1202 1203
f 1141 1203 1142
f 1142 1203 1143
f 1143 1203 1204
f 1143 1204 1144
f 1144 1205 1145
f 1144 1204 1206
f 1144 1206 1207
f 1144 1207 1208
f 1144 1208 1205
f 1145 1205 1209
f 1145 1209 1146
f 1146 1209 1210
f 1146 1210 1147
f 1147 1210 1211
f 1147 1211 1212
f 1147 1212 1149
f 1147 1149 1150
f 1147 1150 1148
f 1149 1212 1213
f 1149 1213 1155
f 1151 1153 1157
f 1153 1154 1157
f 1154 1156 1160
f 1154 1160 1157
f 1155 1213 1214
f 1155 1214 1156
f 1156 1214 1215
f 1156 1215 1160
f 1158 1216 1164
f 1158 1164 1163
f 1158 1163 1162
f 1158 1162 1217
f 1158 1217 1159
f 1158 1160 1218
f 1158 1218 1216
f 1159 1217 1161
f 1160 1215 1219
f 1160 1219 1218
f 1161 1217 1162
f 1164 1216 1165
f 1165 1216 1220
f 1165 1220 1166
f 1166 1220 1221
f 1166 1221 1222
f 1166 1222 1223
f 1166 1223 1224
f 1166 1224 1225
f 1166 1225 1226
f 1166 1226 1167
f 1167 1226 1168
f 1168 1226 1227
f 1168 1227 1228
f 1168 1228 1170
f 1171 1176 1229
f 1171 1229 1172
f 1172 1229 1230
f 1172 1230 1177
f 1173 1231 1176
f 1173 1175 1232
f 1173 1232 1231
f 1174 1178 1233
f 1174 1233 1232
f 1174 1232 1175
f 1176 1234 1229
f 1176 1231 1235
f 1176 1235 1234
f 1177 1230 1191
f 1178 1236 1233
f 1178 1180 1237
f 1178 1237 1236
f 1179 1190 1187
f 1179 1187 1238
f 1179 1238 1180
f 1180 1238 1239
f 1180 1239 1237
f 1181 1240 1241
f 1181 1241 1182
f 1181 1184 1242
f 1181 1242 1243
f 1181 1243 1244
f 1181 1244 1240
f 1182 1245 1183
f 1182 1241 1245
f 1183 1245 1246
f 1183 1246 1247
f 1183 1247 1189
f 1184 1248 1242
f 1185 1189 1247
f 1185 1247 1238
f 1185 1238 1186
f 1186 1238 1187
f 1187 1190 1188
f 1191 1230 1192
f 1192 1230 1249
f 1192 1249 1250
f 1192 1250 1194
f 1193 1199 1200
f 1194 1251 1195
f 1194 1250 1251
f 1195 1251 1252
f 1195 1252 1253
f 1195 1253 1196
f 1196 1253 1197
f 1197 1253 1254
f 1197 1254 1198
f 1198 1254 1200
f 1198 1200 1199
f 1200 1255 1203
f 1200 1203 1201
f 1200 1254 1256
f 1200 1256 1257
f 1200 1257 1258
f 1200 1258 1259
f 1200 1259 1260
f 1200 1260 1261
f 1200 1261 1255
f 1201 1203 1262
f 1201 1262 1202
f 1202 1262 1203
f 1203 1255 1263
f 1203 1263 1264
f 1203 1264 1265
f 1203 1265 1204
f 1204 1265 1208
f 1204 1208 1206
f 1205 1208 1266
f 1205 1266 1267
f 1205 1267 1268
f 1205 1268 1209
f 1206 1208 1207
f 1208 1265 1269
f 1208 1269 1270
f 1208 1270 1271
f 1208 1271 1266
f 1209 1268 1272
f 1209 1272 1210
f 1210 1272 1273
f 1210 1273 1211
f 1211 1274 1275
f 1211 1275 1212
f 1211 1273 1274
f 1212 1275 1213
f 1213 1275 1214
f 1214 1275 1276
f 1214 1276 1277
f 1214 1277 1215
f 1215 1277 1219
f 1216 1218 1278
f 1216 1278 1220
f 1218 1219 1278
f 1219 1277 1279
f 1219 1279 1280
f 1219 1280 1281
f 1219 1281 1278
f 1220 1278 1221
f 1221 1278 1282
f 1221 1282 1283
f 1221 1283 1284
f 1221 1284 1285
f 1221 1285 1222
f 1222 1285 1223
f 1223 1285 1286
f 1223 1286 1224
f 1224 1286 1287
f 1224 1287 1288
f 1224 1288 1227
f 1224 1227 1225
f 1225 1227 1226
f 1227 1288 1289
f 1227 1289 1290
f 1227 1290 1291
f 1227 1291 1292
f 1227 1292 1228
f 1229 1234 1249
f 1229 1249 1230
f 1231 1232 1235
f 1232 1233 1293
f 1232 1293 1235
f 1233 1294 1293
f 1233 1236 1296
f 1233 1296 1294
f 1234 1235 1295
f 1234 1295 1249
f 1235 1293 1295
f 1236 1237 1296
f 1237 1297 1298
f 1237 1298 1296
f 1237 1239 1297
f 1238 1247 1239
f 1239 1247 1297
f 1240 1244 1299
f 1240 1299 1300
f 1240 1300 1301
f 1240 1301 1302
f 1240 1302 1303
f 1240 1303 1304
f 1240 1304 1241
f 1241 1246 1245
f 1241 1304 1348
f 1241 1348 1305
f 1241 1305 1247
f 1241 1247 1246
f 1242 1248 1243
f 1243 1306 1307
f 1243 1307 1244
f 1244 1307 1299
f 1247 1305 1348
f 1247 1348 1308
f 1247 1308 1297
f 1249 1251 1250
f 1249 1295 1252
f 1249 1252 1251
f 1252 1295 1257
f 1252 1257 1253
f 1253 1257 1256
f 1253 1256 1254
f 1255 1261 1263
f 1257 1295 1309
f 1257 1309 1258
f 1258 1309 1259
f 1259 1309 1294
f 1259 1294 1296
f 1259 1296 1310
f 1259 1310 1260
f 1260 1310 1261
f 1261 1310 1311
f 1261 1311 1312
f 1261 1312 1263
f 1263 1312 1313
f 1263 1313 1264
f 1264 1313 1269
f 1264 1269 1265
f 1266 1271 1314
f 1266 1314 1267
f 1267 1315 1268
f 1267 1314 1315
f 1268 1315 1272
f 1269 1313 1316
f 1269 1316 1317
f 1269 1317 1270
f 1270 1317 1271
f 1271 1317 1314
f 1272 1318 1273
f 1272 1315 1319
f 1272 1319 1320
f 1272 1320 1318
f 1273 1318 1321
f 1273 1321 1274
f 1274 1322 1323
f 1274 1323 1275
f 1274 1321 1322
f 1275 1323 1276
f 1276 1323 1277
f 1277 1323 1324
f 1277 1324 1325
f 1277 1325 1279
f 1278 1281 1282
f 1279 1325 1326
f 1279 1326 1280
f 1280 1327 1281
f 1280 1326 1328
f 1280 1328 1329
f 1280 1329 1330
f 1280 1330 1327
f 1281 1327 1282
f 1282 1284 1283
f 1282 1327 1331
f 1282 1331 1332
f 1282 1332 1284
f 1284 1286 1285
f 1284 1332 1287
f 1284 1287 1286
f 1287 1332 1333
f 1287 1333 1334
f 1287 1334 1288
f 1288 1334 1289
f 1289 1334 1335
f 1289 1335 1336
f 1289 1336 1290
f 1293 1309 1295
f 1293 1294 1309
f 1296 1298 1337
f 1296 1337 1310
f 1297 1338 1298
f 1297 1308 1338
f 1298 1338 1337
f 1299 1307 1306
f 1299 1306 1339
f 1299 1339 1340
f 1299 1340 1341
f 1299 1341 1342
f 1299 1342 1301
f 1299 1301 1300
f 1301 1343 1344
f 1301 1344 1345
f 1301 1345 1302
f 1301 1342 1346
f 1301 1346 1343
f 1302 1345 1303
f 1303 1345 1347
f 1303 1347 1348
f 1303 1348 1304
f 1308 1348 1349
f 1308 1349 1338
f 1310 1350 1313
f 1310 1313 1311
f 1310 1337 1350
f 1311 1313 1312
f 1313 1350 1351
f 1313 1351 1352
f 1313 1352 1316
f 1314 1317 1353
f 1314 1353 1354
f 1314 1354 1355
f 1314 1355 1315
f 1315 1355 1319
f 1316 1352 1356
f 1316 1356 1357
f 1316 1357 1317
f 1317 1357 1358
f 1317 1358 1353
f 1318 1320 1359
f 1318 1359 1321
f 1319 1355 1360
f 1319 1360 1320
f 1320 1360 1361
f 1320 1361 1362
f 1320 1362 1359
f 1321 1359 1363
f 1321 1363 1364
f 1321 1364 1322
f 1322 1324 1323
f 1322 1364 1365
f 1322 1365 1324
f 1324 1365 1326
f 1324 1326 1325
f 1326 1365 1366
f 1326 1366 1329
f 1326 1329 1328
f 1327 1330 1367
f 1327 1367 1368
f 1327 1368 1331
f 1329 1369 1330
f 1329 1366 1370
f 1329 1370 1371
f 1329 1371 1372
f 1329 1372 1367
f 1329 1367 1369
f 1330 1369 1367
f 1331 1368 1332
f 1332 1368 1373
f 1332 1373 1374
f 1332 1374 1333
f 1333 1374 1334
f 1334 1375 1376
f 1334 1376 1377
f 1334 1377 1378
f 1334 1378 1379
f 1334 1379 1335
f 1334 1374 1375
f 1335 1379 1336
f 1337 1338 1380
f 1337 1380 1381
f 1337 1381 1351
f 1337 1351 1382
f 1337 1382 1350
f 1338 1349 1380
f 1341 1383 1342
f 1342 1383 1346
f 1343 1384 1385
f 1343 1385 1344
f 1343 1346 1386
f 1343 1386 1387
f 1343 1387 1388
f 1343 1388 1384
f 1344 1385 1389
f 1344 1389 1345
f 1345 1389 1390
f 1345 1390 1347
f 1346 1383 1386
f 1347 1390 1391
f 1347 1391 1392
f 1347 1392 1349
f 1347 1349 1348
f 1349 1392 1351
f 1349 1351 1381
f 1349 1381 1380
f 1350 1382 1351
f 1351 1392 1391
f 1351 1391 1393
f 1351 1393 1352
f 1352 1393 1391
f 1352 1391 1356
f 1353 1358 1360
f 1353 1360 1354
f 1354 1360 1355
f 1356 1391 1389
f 1356 1389 1357
f 1357 1389 1358
f 1358 1394 1395
f 1358 1395 1360
f 1358 1389 1385
f 1358 1385 1394
f 1359 1362 1363
f 1360 1395 1396
f 1360 1396 1397
f 1360 1397 1361
f 1361 1397 1398
f 1361 1398 1399
f 1361 1399 1362
f 1362 1400 1363
f 1362 1399 1400
f 1363 1400 1401
f 1363 1401 1364
f 1364 1402 1365
f 1364 1401 1402
f 1365 1402 1366
f 1366 1402 1370
f 1367 1376 1373
f 1367 1373 1403
f 1367 1403 1368
f 1367 1372 1371
f 1367 1371 1404
f 1367 1404 1405
f 1367 1405 1376
f 1368 1403 1373
f 1370 1406 1371
f 1370 1402 1407
f 1370 1407 1408
f 1370 1408 1406
f 1371 1406 1404
f 1373 1376 1375
f 1373 1375 1374
f 1376 1405 1377
f 1377 1405 1409
f 1377 1409 1378
f 1378 1410 1379
f 1378 1409 1411
f 1378 1411 1412
f 1378 1412 1410
f 1384 1388 1413
f 1384 1413 1414
f 1384 1414 1394
f 1384 1394 1385
f 1387 1415 1413
f 1387 1413 1416
f 1387 1416 1388
f 1388 1416 1413
f 1389 1391 1390
f 1394 1414 1417
f 1394 1417 1396
f 1394 1396 1395
f 1396 1417 1418
f 1396 1418 1397
f 1397 1418 1398
f 1398 1419 1399
f 1398 1418 1420
f 1398 1420 1421
f 1398 1421 1419
f 1399 1422 1400
f 1399 1419 1422
f 1400 1423 1401
f 1400 1422 1423
f 1401 1423 1424
f 1401 1424 1425
f 1401 1425 1402
f 1402 1425 1407
f 1404 1406 1426
f 1404 1426 1405
f 1405 1426 1427
f 1405 1427 1428
f 1405 1428 1409
f 1406 1408 1429
f 1406 1429 1430
f 1406 1430 1426
f 1407 1425 1431
f 1407 1431 1408
f 1408 1431 1432
f 1408 1432 1429
f 1409 1428 1411
f 1413 1433 1434
f 1413 1434 1435
f 1413 1435 1417
f 1413 1417 1414
f 1413 1415 1436
f 1413 1436 1437
f 1413 1437 1438
f 1413 1438 1433
f 1417 1435 1439
f 1417 1439 1418
f 1418 1439 1440
f 1418 1440 1441
f 1418 1441 1421
f 1418 1421 1420
f 1419 1421 1442
f 1419 1442 1443
f 1419 1443 1422
f 1421 1441 1440
f 1421 1440 1433
f 1421 1433 1444
f 1421 1444 1445
f 1421 1445 1443
f 1421 1443 1442
f 1422 1446 1423
f 1422 1443 1447
f 1422 1447 1448
f 1422 1448 1446
f 1423 1446 1448
f 1423 1448 1425
f 1423 1425 1424
f 1425 1448 1449
f 1425 1449 1431
f 1426 1430 1450
f 1426 1450 1427
f 1429 1432 1451
f 1429 1451 1430
f 1430 1451 1452
f 1430 1452 1450
f 1431 1449 1453
f 1431 1453 1454
f 1431 1454 1455
f 1431 1455 1432
f 1432 1455 1451
f 1433 1456 1443
f 1433 1443 1445
f 1433 1445 1444
f 1433 1440 1434
f 1433 1438 1456
f 1434 1440 1435
f 1435 1440 1439
f 1437 1457 1438
f 1438 1457 1458
f 1438 1458 1456
f 1443 1456 1459
f 1443 1459 1448
f 1443 1448 1447
f 1448 1459 1460
f 1448 1460 1461
f 1448 1461 1449
f 1449 1461 1453
f 1451 1462 1452
f 1451 1455 1463
f 1451 1463 1462
f 1453 1461 1464
f 1453 1464 1465
f 1453 1465 1454
f 1454 1465 1455
f 1456 1466 1459
f 1456 1458 1466
f 1458 1467 1466
f 1459 1466 1460
f 1460 1466 1461
f 1461 1466 1468
f 1461 1468 1469
f 1461 1469 1464
f 1466 1467 1468
f 1467 1469 1468

