# https://github.com/mikedh/trimesh
v 0.00392245 -0.02431222 0.03412680
v 0.00440455 -0.02431222 0.03403415
v 0.00243512 -0.02431222 0.03402952
v 0.00549867 -0.03251214 0.03412680
v 0.00549867 -0.03096216 0.03412217
v 0.00704755 -0.03251214 0.03394614
v 0.00549867 -0.02431222 0.03382106
v 0.00394980 -0.03096216 0.03403415
v 0.00085889 -0.02431222 0.03339950
v -0.00078572 -0.07584928 0.03267221
v -0.00000616 -0.07669927 0.03278339
v 0.00704755 -0.03560587 0.03392298
v 0.00704755 -0.03405588 0.03396004
v 0.00085889 -0.07584928 0.03286677
v 0.00190515 -0.07703051 0.03283435
v 0.00859301 -0.03560587 0.03365892
v 0.00859301 -0.03405588 0.03362186
v 0.00704755 -0.03096216 0.03385812
v 0.00704755 -0.02431222 0.03339950
v 0.00015796 -0.02431222 0.03306597
v -0.00223886 -0.07584928 0.03208852
v -0.00223886 -0.07739927 0.03203293
v -0.00059083 -0.07729301 0.03262588
v -0.00068999 -0.07894925 0.03240353
v 0.00085889 -0.07776176 0.03271853
v 0.00085889 -0.07698677 0.03282508
v 0.00859301 -0.03715586 0.03363576
v 0.00332752 -0.07399929 0.03284361
v 0.00085889 -0.07894925 0.03249618
v 0.00335145 -0.08293047 0.03125931
v 0.00438403 -0.08245547 0.03116203
v 0.00241118 -0.07748676 0.03263515
v 0.00294457 -0.07584928 0.03272780
v 0.01029232 -0.03721836 0.03307060
v 0.01011795 -0.03560587 0.03313546
v 0.01000511 -0.03405588 0.03308913
v 0.00859301 -0.03251214 0.03350605
v 0.00816561 -0.02431222 0.03295016
v -0.00015318 -0.02431222 0.03290846
v -0.00338769 -0.05263697 0.03145387
v -0.00331247 -0.07584928 0.03141681
v -0.00327828 -0.07739927 0.03139828
v -0.00317571 -0.07894925 0.03132879
v -0.00223886 -0.07894925 0.03186616
v -0.00234827 -0.08048674 0.03158821
v -0.00068999 -0.08049299 0.03209315
v 0.00859301 -0.03869959 0.03355238
v 0.01023762 -0.03855584 0.03304744
v 0.00651074 -0.07862425 0.03130563
v 0.00672957 -0.07739927 0.03137975
v 0.00750230 -0.07739927 0.03112497
v 0.00859301 -0.07739927 0.03076363
v 0.00085889 -0.08049299 0.03204683
v 0.00273258 -0.08293047 0.03125931
v 0.00229151 -0.08350546 0.03101842
v 0.00390193 -0.08350546 0.03094893
v 0.00540978 -0.08198047 0.03098136
v 0.00516702 -0.08049299 0.03136122
v 0.00549867 -0.08359296 0.03051348
v 0.00394980 -0.07894925 0.03196344
v 0.00563202 -0.07906175 0.03149556
v 0.00394980 -0.07739927 0.03222286
v 0.01091803 -0.03794335 0.03277412
v 0.01091803 -0.03777460 0.03277412
v 0.01091119 -0.03674336 0.03276949
v 0.01089067 -0.03560587 0.03276486
v 0.01078126 -0.03405588 0.03270927
v 0.00839469 -0.02431222 0.03283898
v -0.00092591 -0.02431222 0.03245912
v -0.00218073 -0.02431222 0.03166696
v -0.00291927 -0.02431222 0.03116203
v -0.00375696 -0.02431222 0.03056907
v -0.00416042 -0.05418071 0.03093967
v -0.00408520 -0.07584928 0.03092577
v -0.00405443 -0.07739927 0.03090261
v -0.00394843 -0.07894925 0.03084702
v -0.00307997 -0.07996799 0.03126857
v -0.00293637 -0.08099923 0.03118056
v -0.00263890 -0.08204297 0.03108791
v -0.00186275 -0.08204297 0.03142144
v -0.00155503 -0.08288672 0.03125468
v 0.01014188 -0.07739927 0.03021237
v 0.01114027 -0.07739927 0.02980008
v 0.00859301 -0.07894925 0.03056444
v 0.00623721 -0.07965550 0.03121762
v 0.00703387 -0.07906175 0.03106011
v -0.00057032 -0.08347421 0.03101842
v 0.00394980 -0.08479920 0.03015215
v 0.00085889 -0.08359296 0.03096746
v -0.00068999 -0.08484295 0.03019847
v 0.00549867 -0.08468045 0.02996685
v 0.00704755 -0.08204297 0.03040230
v 0.00948540 -0.08142423 0.02973059
v 0.00704755 -0.08049299 0.03080069
v 0.00594316 -0.08049299 0.03114349
v 0.00641501 -0.08448670 0.02977692
v 0.01095222 -0.08439921 0.02814629
v 0.01153689 -0.03855584 0.03237573
v 0.01153689 -0.03721836 0.03244985
v 0.01191300 -0.07739927 0.02936000
v 0.01400210 -0.07801801 0.02812313
v 0.01169075 -0.03560587 0.03232941
v 0.01169075 -0.03405588 0.03219043
v 0.00894176 -0.02431222 0.03255640
v -0.00532977 -0.02431222 0.02945265
v -0.00555885 -0.02431222 0.02928588
v -0.00628371 -0.02431222 0.02873925
v -0.00508017 -0.05573070 0.03018458
v -0.00515198 -0.07584928 0.03015215
v -0.00513488 -0.07739927 0.03012899
v -0.00509385 -0.07894925 0.03007340
v -0.00497418 -0.08049299 0.02996685
v -0.00367148 -0.08048674 0.03080996
v -0.00378773 -0.08204297 0.03043473
v -0.00388005 -0.08348671 0.03008729
v -0.00342872 -0.08466170 0.02997148
v -0.00213970 -0.08347421 0.03090724
v 0.01104112 -0.07846176 0.02974912
v 0.00859301 -0.08049299 0.03026333
v 0.01022052 -0.07896800 0.02997148
v -0.00223886 -0.08484920 0.03015215
v 0.00394980 -0.08556794 0.02916543
v 0.01169075 -0.08627419 0.02690016
v -0.00068999 -0.08561794 0.02910521
v 0.01264812 -0.08613044 0.02673339
v 0.01005640 -0.08198047 0.02929978
v 0.01052141 -0.08049299 0.02949434
v 0.01078810 -0.07949299 0.02962405
v 0.00974868 -0.08049299 0.02983714
v 0.01118472 -0.08359296 0.02828990
v 0.01282933 -0.03869959 0.03154189
v 0.01413203 -0.07584928 0.02819262
v 0.01286694 -0.03715586 0.03160211
v 0.01304816 -0.07894925 0.02847056
v 0.01382430 -0.07894925 0.02800732
v 0.01440898 -0.08049299 0.02699744
v 0.01462439 -0.07894925 0.02723370
v 0.01564671 -0.07695552 0.02669633
v 0.01573219 -0.07584928 0.02682141
v 0.01490475 -0.07584928 0.02759966
v 0.01279514 -0.03560587 0.03156505
v 0.01270624 -0.03405588 0.03148167
v 0.01103086 -0.02431222 0.03131490
v 0.01014188 -0.02431222 0.03187079
v -0.00654699 -0.02431222 0.02851226
v -0.00816767 -0.02786844 0.02705766
v -0.00592812 -0.07584928 0.02949434
v -0.00591103 -0.07739927 0.02948044
v -0.00586658 -0.07894925 0.02945265
v -0.00575033 -0.08049299 0.02935536
v -0.00473484 -0.08204297 0.02979545
v -0.00446131 -0.08393046 0.02954066
v -0.00597257 -0.08414921 0.02796562
v -0.00493999 -0.08456170 0.02850762
v -0.00540841 -0.08483045 0.02741436
v -0.00388005 -0.08489295 0.02897550
v -0.00217732 -0.08560544 0.02882263
v 0.01169075 -0.08049299 0.02885969
v 0.01161211 -0.07896800 0.02929514
v 0.00394980 -0.08605544 0.02839181
v 0.01169075 -0.08678669 0.02580690
v -0.00161999 -0.08596169 0.02825284
v -0.00068999 -0.08601169 0.02833159
v 0.00085889 -0.08604294 0.02835939
v 0.00240093 -0.08606169 0.02838718
v 0.01293874 -0.08631794 0.02580690
v 0.01394397 -0.08580544 0.02472290
v 0.01424486 -0.08477420 0.02536218
v 0.01385166 -0.08391796 0.02639522
v 0.01286694 -0.08513670 0.02690016
v 0.01196087 -0.08359296 0.02786371
v 0.01173178 -0.08193672 0.02845667
v 0.01545524 -0.05573070 0.02802121
v 0.01363967 -0.03715586 0.03061540
v 0.01269940 -0.08049299 0.02826673
v 0.01403287 -0.08288672 0.02660368
v 0.01416622 -0.08204297 0.02674266
v 0.01227201 -0.08238047 0.02801658
v 0.01539711 -0.07894925 0.02633036
v 0.01600572 -0.07744301 0.02591808
v 0.01634422 -0.07584928 0.02580690
v 0.01570484 -0.08049299 0.02526490
v 0.01632028 -0.08049299 0.02425965
v 0.01679896 -0.05881817 0.02595513
v 0.01605017 -0.05727443 0.02721053
v 0.01530821 -0.02941217 0.02780349
v 0.01522957 -0.02786844 0.02772010
v 0.01424828 -0.02431222 0.02841034
v 0.01350974 -0.02431222 0.02918396
v 0.01273701 -0.02431222 0.02990663
v 0.01180359 -0.02431222 0.03068025
v 0.01125652 -0.02431222 0.03112960
v -0.00709405 -0.02431222 0.02796099
v -0.00732314 -0.02431222 0.02769694
v -0.00894381 -0.02786844 0.02613580
v -0.00895749 -0.02941217 0.02620066
v -0.00664614 -0.07584928 0.02872072
v -0.00661537 -0.07739927 0.02870682
v -0.00658118 -0.07894925 0.02867439
v -0.00649228 -0.08049299 0.02858174
v -0.00634184 -0.08204297 0.02840571
v -0.00551099 -0.08204297 0.02917933
v -0.00621191 -0.08311172 0.02824821
v -0.00736075 -0.08386796 0.02608484
v -0.00766505 -0.08437420 0.02505181
v -0.00632816 -0.08452420 0.02693259
v -0.00766505 -0.08283672 0.02659441
v -0.00527165 -0.08556794 0.02576057
v -0.00425958 -0.08582419 0.02624698
v 0.00240093 -0.08641793 0.02735877
v 0.00394980 -0.08640544 0.02735877
v 0.01014188 -0.08678669 0.02580690
v 0.00549867 -0.08807417 0.00723535
v 0.00704755 -0.08804917 0.00723535
v 0.00859301 -0.08784293 0.00723535
v 0.01003589 -0.08758043 0.00878259
v 0.01323963 -0.08697418 0.01033446
v 0.01478508 -0.08668668 0.01033446
v 0.01700753 -0.08588669 0.01806605
v -0.00322699 -0.08596794 0.02675192
v -0.00217732 -0.08608044 0.02730318
v -0.00068999 -0.08629294 0.02735877
v 0.00085889 -0.08636794 0.02735877
v 0.01744176 -0.08485545 0.01926586
v 0.01439872 -0.08347421 0.02584859
v 0.01579373 -0.08316796 0.02382883
v 0.01543472 -0.08241797 0.02485724
v 0.01600914 -0.05263697 0.02720127
v 0.01587237 -0.02941217 0.02702987
v 0.01518171 -0.08049299 0.02603852
v 0.01559542 -0.08138048 0.02508423
v 0.01670665 -0.07891175 0.02414384
v 0.01714088 -0.07836801 0.02355089
v 0.01682632 -0.07739927 0.02443569
v 0.01694599 -0.07584928 0.02456076
v 0.01594076 -0.08195547 0.02431061
v 0.01694941 -0.08049299 0.02306448
v 0.01705198 -0.07939924 0.02332853
v 0.01716823 -0.05881817 0.02518152
v 0.01682290 -0.05727443 0.02598756
v 0.01583818 -0.02786844 0.02694648
v 0.01566381 -0.02431222 0.02671023
v 0.01521248 -0.02431222 0.02725686
v 0.01502442 -0.02431222 0.02748385
v 0.01447736 -0.02431222 0.02813703
v -0.00773685 -0.02431222 0.02715031
v -0.00939514 -0.02941217 0.02542704
v -0.00846513 -0.02431222 0.02606632
v -0.00958661 -0.02431222 0.02429208
v -0.00929940 -0.02631845 0.02520468
v -0.01209969 -0.02431222 0.02003484
v -0.01403834 -0.07275555 0.01763986
v -0.01355282 -0.07275555 0.01841348
v -0.00923102 -0.07991174 0.02508423
v -0.00799671 -0.07894925 0.02700207
v -0.00741887 -0.07584928 0.02778959
v -0.00739152 -0.07739927 0.02780349
v -0.00735733 -0.07894925 0.02777569
v -0.00726501 -0.08049299 0.02766451
v -0.00711799 -0.08204297 0.02746995
v -0.00791123 -0.08049299 0.02688626
v -0.00788388 -0.08344921 0.02566329
v -0.01079357 -0.08439921 0.01892769
v -0.00688206 -0.08518045 0.02425965
v -0.00686155 -0.08469920 0.02566329
v -0.00930282 -0.08297422 0.02367133
v -0.00775053 -0.08204297 0.02669633
v -0.00837281 -0.08204297 0.02580690
v -0.00904981 -0.08204297 0.02473680
v -0.00950113 -0.08204297 0.02396317
v -0.00577084 -0.08580544 0.02425965
v -0.00471432 -0.08595544 0.02521394
v -0.00376038 -0.08608044 0.02576057
v 0.00240093 -0.08668043 0.02580690
v 0.00394980 -0.08806167 0.00568810
v 0.00549867 -0.08815542 0.00568810
v 0.00085889 -0.08661794 0.02580690
v -0.00068999 -0.08665544 0.02425965
v -0.00223886 -0.08657418 0.02425965
v 0.00704755 -0.08808042 0.00568810
v 0.00859301 -0.08783667 0.00568810
v 0.01008717 -0.08758668 0.00723535
v 0.01080861 -0.08744292 0.00878259
v 0.01169075 -0.08728043 0.00878259
v 0.01323963 -0.08699293 0.00878259
v 0.01478508 -0.08666793 0.00878259
v 0.01633396 -0.08628044 0.01033446
v 0.01633396 -0.08627419 0.01187707
v 0.01731525 -0.08599919 0.01187707
v 0.01803670 -0.08566795 0.01342432
v 0.01895303 -0.08486170 0.01497156
v 0.01876497 -0.08458045 0.01651880
v 0.01792728 -0.08496170 0.01791318
v -0.00223886 -0.08638669 0.02580690
v -0.00068999 -0.08654294 0.02580690
v 0.01865898 -0.08436795 0.01729706
v 0.01678187 -0.08198047 0.02262439
v 0.01653569 -0.02941217 0.02580690
v 0.01646731 -0.02786844 0.02580690
v 0.01721268 -0.04953700 0.02520004
v 0.01747937 -0.07739927 0.02271241
v 0.01717507 -0.07739927 0.02366207
v 0.01720584 -0.07584928 0.02378714
v 0.01723320 -0.07429929 0.02384736
v 0.01743834 -0.06036816 0.02425965
v 0.01747595 -0.05881817 0.02425965
v 0.01718191 -0.05727443 0.02521394
v 0.01624164 -0.02431222 0.02580690
v 0.01583476 -0.02431222 0.02645544
v -0.01239373 -0.02431222 0.01948821
v -0.01251340 -0.02431222 0.01926122
v -0.01477346 -0.06346813 0.01342432
v -0.01402809 -0.07429929 0.01762596
v -0.01284164 -0.02431222 0.01806605
v -0.01493074 -0.02431222 0.01029740
v -0.01518718 -0.02431222 0.00919488
v -0.01526924 -0.02431222 0.00878259
v -0.01353915 -0.07429929 0.01839958
v -0.01400757 -0.07584928 0.01758890
v -0.00956952 -0.08045549 0.02437547
v -0.00915580 -0.08094299 0.02496842
v -0.00876260 -0.08045549 0.02568182
v -0.01090982 -0.08449295 0.01806605
v -0.00718979 -0.08578044 0.02116517
v -0.00681368 -0.08563669 0.02274484
v -0.01079699 -0.08291797 0.02050273
v -0.01095427 -0.08349921 0.01951138
v -0.01224671 -0.08258047 0.01714419
v -0.01242109 -0.08299922 0.01611115
v -0.01014051 -0.08204297 0.02271241
v -0.01394261 -0.07689927 0.01746846
v -0.00602044 -0.08589294 0.02328683
v -0.00499811 -0.08602419 0.02425965
v -0.00378773 -0.08632418 0.02425965
v -0.00188669 -0.08755542 0.00378416
v -0.00068999 -0.08769293 0.00259362
v 0.00394980 -0.08802417 0.00414086
v 0.00549867 -0.08801793 0.00414086
v -0.00378773 -0.08641169 0.02271241
v 0.00704755 -0.08790543 0.00414086
v 0.00868190 -0.08764917 0.00405747
v 0.00961191 -0.08753043 0.00451609
v 0.00989570 -0.08757417 0.00568810
v 0.01085990 -0.08744918 0.00723535
v 0.01169075 -0.08728043 0.00723535
v 0.01478508 -0.08655544 0.00723535
v 0.01639550 -0.08616169 0.00887524
v 0.01323963 -0.08694918 0.00723535
v 0.01723661 -0.08597419 0.01033446
v 0.01808798 -0.08559919 0.01187707
v 0.01902483 -0.08489295 0.01342432
v 0.01937016 -0.08359296 0.01342432
v 0.01917869 -0.08359296 0.01497156
v 0.01863847 -0.07739927 0.01872849
v 0.01840596 -0.07739927 0.01961792
v 0.01795806 -0.07739927 0.02116517
v 0.01700069 -0.02941217 0.02476459
v 0.01761272 -0.04799327 0.02425965
v 0.01691180 -0.02431222 0.02438010
v 0.01644679 -0.02431222 0.02539461
v 0.01760246 -0.07429929 0.02271241
v 0.01764349 -0.07275555 0.02271241
v 0.01812217 -0.07275555 0.02116517
v 0.01816320 -0.04799327 0.02271241
v -0.01483843 -0.06346813 0.01187707
v -0.01413066 -0.07584928 0.01651880
v -0.01521453 -0.02431222 0.00723535
v -0.01456489 -0.07429929 0.00568810
v -0.01247237 -0.08447420 0.00832861
v -0.00918657 -0.08591169 0.01259974
v -0.00997981 -0.08513045 0.01651880
v -0.00625294 -0.08594294 0.02225380
v -0.01061920 -0.08204297 0.02160988
v -0.01376139 -0.07793051 0.01693573
v -0.01388448 -0.07830551 0.01590269
v -0.01339212 -0.08049299 0.01497156
v -0.01361437 -0.08049299 0.01342432
v -0.01355624 -0.08204297 0.00878259
v -0.01283480 -0.08368671 0.00881965
v -0.01397338 -0.07740551 0.01645858
v -0.00857454 -0.08607419 0.01200215
v -0.00641706 -0.08597419 0.02116517
v -0.00194823 -0.08756168 0.00259362
v -0.00688206 -0.08638669 0.01187707
v -0.00688206 -0.08644294 0.01033446
v -0.00843094 -0.08616169 0.01033446
v 0.00394980 -0.08778042 0.00259362
v -0.00168496 -0.08749917 0.00169492
v -0.00068999 -0.08753043 0.00159300
v 0.00549867 -0.08773668 0.00259362
v 0.00646629 -0.08749917 0.00171345
v 0.00700994 -0.08759918 0.00257509
v 0.00822032 -0.08753667 0.00308002
v 0.00925290 -0.08743668 0.00348305
v 0.01323963 -0.08648044 0.00259362
v 0.01323963 -0.08683668 0.00568810
v 0.01323963 -0.08667419 0.00414086
v 0.01444659 -0.08613044 0.00259362
v 0.01714772 -0.08593669 0.00945430
v 0.01800934 -0.08547419 0.01033446
v 0.01898722 -0.08482420 0.01187707
v 0.01938726 -0.08359296 0.01187707
v 0.01961634 -0.08049299 0.00878259
v 0.01957531 -0.08049299 0.01033446
v 0.01961976 -0.07894925 0.01033446
v 0.01954454 -0.07739927 0.01187707
v 0.01941803 -0.07739927 0.01342432
v 0.01927785 -0.07584928 0.01497156
v 0.01911031 -0.07429929 0.01651880
v 0.01908979 -0.07584928 0.01651880
v 0.01887097 -0.07429929 0.01806605
v 0.01865214 -0.07647427 0.01881651
v 0.01849486 -0.07591803 0.01948821
v 0.01848802 -0.07429929 0.01973374
v 0.01808114 -0.07429929 0.02116517
v 0.01787258 -0.03096216 0.02271241
v 0.01731525 -0.02941217 0.02399097
v 0.01816662 -0.04644328 0.02271241
v 0.01698018 -0.02431222 0.02415311
v 0.01779052 -0.02941217 0.02271241
v 0.01844699 -0.03104341 0.02102619
v 0.01850512 -0.04799327 0.02127635
v 0.01851880 -0.04644328 0.02130877
v 0.01868633 -0.07429929 0.01896011
v -0.01456489 -0.07429929 0.00723535
v -0.01441103 -0.07584928 0.00723535
v -0.01507777 -0.02431222 0.00572053
v -0.01418537 -0.07429929 0.00443734
v -0.01413750 -0.07584928 0.00446976
v -0.01442813 -0.07584928 0.00568810
v -0.01467431 -0.02431222 0.00259362
v -0.01445890 -0.02431222 0.00149572
v -0.01435291 -0.02431222 0.00104174
v -0.01247237 -0.08447420 0.00750403
v -0.00929598 -0.08595544 0.01033446
v -0.00927205 -0.08594919 0.01156670
v -0.01385713 -0.07978049 0.01133508
v -0.01376823 -0.08070548 0.01033446
v -0.01379217 -0.08069924 0.00878259
v -0.01417853 -0.07739927 0.00568810
v -0.01390158 -0.07834300 0.00482646
v -0.01338529 -0.08204297 0.00723535
v -0.01277668 -0.08374296 0.00708711
v -0.01387081 -0.07993049 0.01033446
v -0.00272096 -0.08740542 0.00259362
v 0.00394980 -0.08754293 0.00154668
v 0.00549867 -0.08752418 0.00161153
v -0.00221835 -0.08719293 0.00112512
v -0.00068999 -0.08728043 0.00081475
v 0.00085889 -0.08729918 0.00081475
v 0.00240093 -0.08731168 0.00080548
v 0.00394980 -0.08731168 0.00077306
v 0.00549867 -0.08726168 0.00083791
v 0.01234723 -0.08590544 -0.00124670
v 0.01169075 -0.08651168 0.00104174
v 0.01329434 -0.08616794 0.00099078
v 0.01423802 -0.08602419 0.00147256
v 0.01521932 -0.08571794 0.00259362
v 0.01610830 -0.08480545 0.00104174
v 0.01719558 -0.08444920 0.00302443
v 0.01878207 -0.08453670 0.00911149
v 0.01890516 -0.08469920 0.01033446
v 0.01926075 -0.08359296 0.01033446
v 0.01950009 -0.08049299 0.00723535
v 0.01966079 -0.07894925 0.00878259
v 0.01962660 -0.07739927 0.01033446
v 0.01942145 -0.07584928 0.01342432
v 0.01924365 -0.03560587 0.01651880
v 0.01909663 -0.03560587 0.01806605
v 0.01882994 -0.04644328 0.01961792
v 0.01868975 -0.04644328 0.02053515
v 0.01866924 -0.07544303 0.01888599
v 0.01868291 -0.04799327 0.02050273
v 0.01866582 -0.03161840 0.02041934
v 0.01714430 -0.02431222 0.02360184
v 0.01827604 -0.02941217 0.02116517
v -0.01411699 -0.02431222 0.00026812
v -0.01398706 -0.02431222 -0.00007468
v -0.01377507 -0.02431222 -0.00062132
v -0.01368275 -0.02431222 -0.00084831
v -0.01331348 -0.02431222 -0.00171921
v -0.01315279 -0.02476846 -0.00205275
v -0.01247921 -0.02941217 -0.00316917
v -0.01358360 -0.07584928 0.00369614
v -0.01401783 -0.07739927 0.00463653
v -0.01244844 -0.03096216 -0.00309505
v -0.01207575 -0.02941217 -0.00394279
v -0.01140218 -0.02941217 -0.00514723
v -0.01085512 -0.02941217 -0.00606446
v -0.01183299 -0.04953700 -0.00213150
v -0.01229800 -0.08435545 0.00647099
v -0.01167913 -0.08478045 0.00708711
v -0.00997981 -0.08550544 0.00723535
v -0.00925837 -0.08593669 0.00938481
v -0.01346393 -0.07739927 0.00386291
v -0.01090982 -0.08018674 0.00161617
v -0.01073887 -0.08122423 0.00183852
v -0.01214414 -0.08077424 0.00358033
v -0.01250657 -0.08175548 0.00461337
v -0.01228774 -0.08278672 0.00494228
v -0.00378773 -0.08666168 0.00104174
v -0.00805483 -0.08603669 0.00568810
v -0.00786336 -0.08598669 0.00440491
v -0.00765137 -0.08591169 0.00337650
v -0.00378773 -0.08613669 -0.00015344
v -0.00231750 -0.08633669 -0.00063521
v -0.00068999 -0.08665544 -0.00050550
v 0.00085889 -0.08672418 -0.00050550
v 0.00240093 -0.08671793 -0.00050550
v 0.00394980 -0.08669918 -0.00050550
v 0.01131807 -0.08593669 -0.00132082
v 0.01329434 -0.08574919 -0.00063985
v 0.01281224 -0.08602419 -0.00021366
v 0.01177623 -0.08536169 -0.00192304
v 0.01392346 -0.08435545 -0.00281710
v 0.01478508 -0.08464920 -0.00178870
v 0.01563645 -0.08444295 -0.00145053
v 0.01478508 -0.08517420 -0.00050550
v 0.01476799 -0.08561170 0.00099078
v 0.01582109 -0.08459920 -0.00050550
v 0.01705198 -0.08427420 0.00199139
v 0.01750673 -0.08369296 0.00254266
v 0.01863163 -0.08429920 0.00807845
v 0.01870685 -0.08293047 0.00630422
v 0.01888123 -0.08204297 0.00574832
v 0.01919579 -0.08204297 0.00723535
v 0.01875814 -0.08153048 0.00455315
v 0.01917527 -0.08049299 0.00568810
v 0.01954112 -0.07894925 0.00723535
v 0.01929836 -0.03405588 0.01497156
v 0.01930520 -0.03560587 0.01497156
v 0.01923340 -0.03405588 0.01651880
v 0.01909663 -0.03405588 0.01806605
v 0.01884362 -0.03405588 0.01956697
v 0.01879917 -0.03261215 0.01976616
v 0.01876497 -0.03104341 0.01967815
v 0.01862821 -0.03058716 0.02023867
v 0.01740073 -0.02431222 0.02271241
v 0.01783155 -0.02431222 0.02116517
v -0.01316646 -0.02431222 -0.00205275
v -0.01073887 -0.07648052 0.00028665
v -0.01106027 -0.04953700 -0.00320160
v -0.01274249 -0.02431222 -0.00282174
v -0.01256127 -0.02431222 -0.00314138
v -0.01084828 -0.02786844 -0.00605520
v -0.01014393 -0.02941217 -0.00683808
v -0.00954900 -0.05108699 -0.00477200
v -0.01040379 -0.04953700 -0.00397522
v -0.00905322 -0.08421171 0.00203309
v -0.00802064 -0.08468045 0.00140770
v -0.00849590 -0.08498045 0.00256582
v -0.00732655 -0.08576170 0.00259362
v -0.00948746 -0.08317421 0.00138917
v -0.00882756 -0.08578044 0.00568810
v -0.01269120 -0.07739927 0.00290862
v -0.01046533 -0.07894925 0.00062019
v -0.01108078 -0.07894925 0.00139381
v -0.00948404 -0.08049299 -0.00007005
v -0.00931650 -0.08159923 0.00012914
v -0.00911477 -0.08263047 0.00036077
v -0.00618798 -0.08594294 0.00173661
v -0.00467671 -0.08596169 0.00018473
v -0.00288508 -0.08588669 -0.00124206
v -0.00185592 -0.08597419 -0.00136251
v -0.00068999 -0.08606169 -0.00147832
v 0.00085889 -0.08611169 -0.00153854
v 0.00240093 -0.08609919 -0.00150612
v 0.00394980 -0.08608044 -0.00148295
v 0.00394980 -0.08542420 -0.00225658
v 0.00549867 -0.08541169 -0.00220099
v 0.00859301 -0.08458045 -0.00301630
v 0.01014188 -0.08454295 -0.00296534
v 0.01446710 -0.08332421 -0.00306726
v 0.01490475 -0.08374296 -0.00257622
v 0.01014188 -0.08359296 -0.00354440
v 0.01014188 -0.08239297 -0.00417905
v 0.01169075 -0.08218672 -0.00410030
v 0.01250793 -0.08129298 -0.00438288
v 0.01310970 -0.08189922 -0.00402618
v 0.01729816 -0.08324296 0.00135675
v 0.01691521 -0.08369296 0.00092130
v 0.01549969 -0.08259297 -0.00275688
v 0.01579031 -0.08359296 -0.00174237
v 0.01708617 -0.08270547 0.00032371
v 0.01810166 -0.08204297 0.00259362
v 0.01849144 -0.08204297 0.00408064
v 0.01793412 -0.08359296 0.00414086
v 0.01859402 -0.08049299 0.00358033
v 0.01881284 -0.08049299 0.00435395
v 0.01921630 -0.07894925 0.00568810
v 0.01921972 -0.07739927 0.00568810
v 0.01919921 -0.07584928 0.00568810
v 0.01846409 -0.04799327 0.00414086
v 0.01862821 -0.04644328 0.00517853
v 0.01847777 -0.03405588 0.00568810
v 0.01855299 -0.03096216 0.00723535
v 0.01849828 -0.02941217 0.00723535
v 0.01837861 -0.02431222 0.00878259
v 0.01915476 -0.03096216 0.01497156
v 0.01911715 -0.03096216 0.01651880
v 0.01918895 -0.03251214 0.01651880
v 0.01906244 -0.03251214 0.01806605
v 0.01898038 -0.03096216 0.01806605
v 0.01872052 -0.02978717 0.01920563
v 0.01815295 -0.02431222 0.01961792
v 0.01792728 -0.02431222 0.02071118
v -0.01024993 -0.07591803 -0.00037579
v -0.00935753 -0.07584928 -0.00144126
v -0.00927205 -0.07695552 -0.00134861
v -0.00978150 -0.07744301 -0.00063058
v -0.01064997 -0.07739927 0.00039783
v -0.01209285 -0.02431222 -0.00368801
v -0.01077648 -0.02698094 -0.00595328
v -0.00927889 -0.02683094 -0.00753759
v -0.01012342 -0.02786844 -0.00682882
v -0.00937121 -0.02941217 -0.00760244
v -0.00930624 -0.03054966 -0.00756075
v -0.00557937 -0.04334955 -0.01001132
v -0.00621533 -0.04489329 -0.00914505
v -0.00883782 -0.05108699 -0.00554563
v -0.00856771 -0.08371796 0.00088424
v -0.00755222 -0.08425545 0.00037466
v -0.00651963 -0.08468670 -0.00015807
v -0.00687181 -0.08519920 0.00105564
v -0.00570930 -0.08571794 0.00070357
v -0.00969261 -0.07894925 -0.00032020
v -0.00903613 -0.07894925 -0.00109383
v -0.00881388 -0.08049299 -0.00084367
v -0.00783601 -0.08154298 -0.00141810
v -0.00746674 -0.08257422 -0.00111236
v -0.00596915 -0.08425545 -0.00119111
v -0.00532293 -0.08514295 -0.00050087
v -0.00378773 -0.08565544 -0.00092706
v -0.00068999 -0.08540545 -0.00225194
v -0.00493999 -0.08456170 -0.00148295
v -0.00378773 -0.08488045 -0.00177017
v -0.00280986 -0.08422421 -0.00276151
v -0.00178069 -0.08447420 -0.00290512
v -0.00068999 -0.08463045 -0.00302556
v 0.00085889 -0.08548669 -0.00231216
v 0.00704755 -0.08461170 -0.00303946
v 0.00859301 -0.08359296 -0.00362315
v 0.01490475 -0.08206172 -0.00326182
v 0.00859301 -0.08248672 -0.00421148
v 0.00859301 -0.08171173 -0.00459134
v 0.01014188 -0.08161798 -0.00453575
v 0.01169075 -0.08141173 -0.00443847
v 0.01341401 -0.08049299 -0.00420684
v 0.01014188 -0.08049299 -0.00488782
v 0.00704755 -0.05727443 -0.00962219
v 0.00820322 -0.05727443 -0.00927476
v 0.01560568 -0.08156173 -0.00289122
v 0.01593392 -0.08206172 -0.00216856
v 0.01681948 -0.08213047 -0.00044528
v 0.01718191 -0.08166798 0.00010598
v 0.01743151 -0.08213047 0.00092130
v 0.01766401 -0.08049299 0.00104174
v 0.01824868 -0.08049299 0.00259362
v 0.01827945 -0.07894925 0.00259362
v 0.01860769 -0.07894925 0.00353864
v 0.01886071 -0.07584928 0.00421961
v 0.01882994 -0.07894925 0.00431226
v 0.01885045 -0.07429929 0.00419182
v 0.01848802 -0.04953700 0.00414086
v 0.01778026 -0.02476846 0.00259362
v 0.01798541 -0.02431222 0.00414086
v 0.01843332 -0.03251214 0.00568810
v 0.01838203 -0.03096216 0.00568810
v 0.01808114 -0.02431222 0.00523412
v 0.01821449 -0.02431222 0.00678136
v 0.01825210 -0.02431222 0.00723535
v 0.01849486 -0.02431222 0.01033446
v 0.01856666 -0.02431222 0.01187707
v 0.01904193 -0.02941217 0.01497156
v 0.01860086 -0.02431222 0.01497156
v 0.01854957 -0.02431222 0.01606482
v 0.01852563 -0.02431222 0.01651880
v 0.01835468 -0.02431222 0.01806605
v -0.00480664 -0.04334955 -0.01074325
v -0.00469723 -0.04454954 -0.01065987
v -0.00856087 -0.07744301 -0.00180723
v -0.00826340 -0.07894925 -0.00175164
v -0.00916264 -0.07798676 -0.00123280
v -0.01065339 -0.02431222 -0.00534643
v -0.00996614 -0.02638720 -0.00667131
v -0.00935069 -0.02786844 -0.00758391
v -0.00988750 -0.02431222 -0.00616638
v -0.00966183 -0.02431222 -0.00640726
v -0.00893355 -0.02431222 -0.00718089
v -0.00816083 -0.02431222 -0.00797304
v -0.00732655 -0.02431222 -0.00874666
v -0.00736417 -0.02476846 -0.00878835
v -0.00843094 -0.02786844 -0.00825099
v -0.00843094 -0.02941217 -0.00827415
v -0.00804116 -0.08049299 -0.00158024
v -0.00588025 -0.08083049 -0.00271056
v -0.00535029 -0.08214297 -0.00255769
v -0.00692309 -0.08204922 -0.00173311
v -0.00643758 -0.08322421 -0.00149222
v -0.00675214 -0.08038674 -0.00238165
v -0.00540841 -0.08368046 -0.00182112
v -0.00388689 -0.08366171 -0.00258085
v 0.00085889 -0.08471170 -0.00309968
v -0.00446815 -0.08271797 -0.00279394
v -0.00343556 -0.08319296 -0.00296071
v -0.00227305 -0.08366171 -0.00310432
v -0.00068999 -0.08359296 -0.00348418
v 0.00085889 -0.08359296 -0.00367874
v 0.00704755 -0.08359296 -0.00364168
v 0.00940676 -0.02878718 -0.01214689
v 0.01478508 -0.08049299 -0.00349808
v 0.00240093 -0.08359296 -0.00367874
v 0.00704755 -0.08168673 -0.00458207
v 0.00704755 -0.08049299 -0.00503605
v 0.00859301 -0.08049299 -0.00504995
v 0.00867848 -0.02934967 -0.01244337
v 0.00859301 -0.07894925 -0.00539275
v 0.00085889 -0.03869959 -0.01272131
v 0.00240093 -0.03869959 -0.01267962
v 0.00394980 -0.03869959 -0.01253601
v 0.00491058 -0.03988083 -0.01219784
v 0.00704755 -0.02941217 -0.01296683
v 0.00704755 -0.07564928 -0.00605983
v 0.00549867 -0.05727443 -0.00958977
v 0.01613907 -0.08049299 -0.00205275
v 0.01686393 -0.08049299 -0.00078345
v 0.01105821 -0.02941217 -0.01070619
v 0.01111634 -0.02786844 -0.01076178
v 0.01188906 -0.02786844 -0.00993720
v 0.01258999 -0.02786844 -0.00916358
v 0.01337639 -0.02476846 -0.00824635
v 0.01398158 -0.02476846 -0.00741714
v 0.01723661 -0.08049299 -0.00000983
v 0.01727081 -0.07894925 -0.00007468
v 0.01771871 -0.07894925 0.00104174
v 0.01774949 -0.07739927 0.00104174
v 0.01830681 -0.07739927 0.00259362
v 0.01863163 -0.07584928 0.00344599
v 0.01864189 -0.07429929 0.00341819
v 0.01863505 -0.07275555 0.00344599
v 0.01740415 -0.02476846 0.00104174
v 0.01765717 -0.02431222 0.00213963
v 0.01776658 -0.02431222 0.00259362
v 0.01858376 -0.02431222 0.01297034
v 0.01860086 -0.02431222 0.01451758
v -0.00748384 -0.02941217 -0.00891806
v -0.00747700 -0.02786844 -0.00891343
v -0.00479296 -0.04179957 -0.01073862
v -0.00180463 -0.03560587 -0.01232292
v -0.00175676 -0.03715586 -0.01228586
v -0.00068999 -0.03715586 -0.01271205
v -0.00378773 -0.04334955 -0.01106289
v -0.00389031 -0.04499329 -0.01079421
v -0.00447498 -0.04558078 -0.01054405
v -0.00533661 -0.07894925 -0.00341932
v -0.00632474 -0.07894925 -0.00294681
v -0.00709747 -0.07894925 -0.00252526
v -0.00736417 -0.07739927 -0.00265960
v -0.00743939 -0.02631845 -0.00888100
v -0.00655383 -0.02431222 -0.00929329
v -0.00484767 -0.08168673 -0.00296534
v -0.00614695 -0.07979924 -0.00284490
v -0.00535029 -0.08038674 -0.00308579
v -0.00388689 -0.08214297 -0.00316917
v -0.00223886 -0.08204297 -0.00366484
v -0.00008138 -0.08136798 -0.00441067
v 0.00085889 -0.08226797 -0.00417905
v 0.00240093 -0.08159298 -0.00450332
v 0.00859301 -0.02786844 -0.01257307
v 0.00940676 -0.02786844 -0.01214226
v 0.01017949 -0.02786844 -0.01153540
v 0.00394980 -0.08049299 -0.00490171
v 0.00704755 -0.07894925 -0.00540665
v 0.00085889 -0.04024958 -0.01243410
v -0.00009847 -0.04128707 -0.01217468
v -0.00043355 -0.04024958 -0.01228586
v 0.00085889 -0.03715586 -0.01294830
v 0.00240093 -0.03715586 -0.01289272
v 0.00549867 -0.02941217 -0.01304095
v 0.00704755 -0.02786844 -0.01302242
v 0.00394980 -0.07894925 -0.00525378
v 0.00240093 -0.07894925 -0.00513797
v 0.00085889 -0.08049299 -0.00470715
v -0.00068999 -0.04644328 -0.01113238
v 0.01688102 -0.07894925 -0.00084831
v 0.01398500 -0.02431222 -0.00742641
v 0.01445343 -0.02431222 -0.00665278
v 0.01105821 -0.02431222 -0.01070156
v 0.01160528 -0.02431222 -0.01017809
v 0.01240194 -0.02431222 -0.00941373
v 0.01263786 -0.02431222 -0.00918674
v 0.01263444 -0.02476846 -0.00918674
v 0.01338323 -0.02431222 -0.00824635
v 0.01729132 -0.07739927 -0.00009321
v 0.01775974 -0.07584928 0.00104174
v 0.01834100 -0.07429929 0.00259362
v 0.01832732 -0.07584928 0.00259362
v 0.01647756 -0.02431222 -0.00205275
v 0.01680238 -0.02431222 -0.00105677
v 0.01693573 -0.02431222 -0.00062595
v 0.01708959 -0.02431222 -0.00007932
v 0.01732551 -0.02431222 0.00079159
v 0.01739048 -0.02431222 0.00104174
v -0.00153452 -0.02431222 -0.01216542
v -0.00071734 -0.02431222 -0.01248969
v -0.00068999 -0.03560587 -0.01274911
v -0.00223886 -0.04489329 -0.01115091
v -0.00235511 -0.04655578 -0.01080347
v -0.00164735 -0.07993674 -0.00442920
v -0.00378773 -0.07894925 -0.00400301
v -0.00378773 -0.08049299 -0.00366948
v -0.00658802 -0.02476846 -0.00929792
v -0.00219441 -0.08046799 -0.00413736
v -0.00111396 -0.08096798 -0.00429949
v -0.00063528 -0.08046799 -0.00451722
v 0.00085889 -0.08149923 -0.00445700
v 0.00937941 -0.02701844 -0.01212373
v 0.00704755 -0.02431222 -0.01283249
v 0.00851436 -0.02431222 -0.01240167
v 0.00923922 -0.02431222 -0.01204497
v 0.01076758 -0.02431222 -0.01093781
v 0.00240093 -0.08049299 -0.00481833
v 0.00085889 -0.03560587 -0.01297610
v 0.00349505 -0.02431222 -0.01318919
v 0.00549867 -0.02786844 -0.01307801
v 0.00240093 -0.03560587 -0.01294830
v 0.00394980 -0.02431222 -0.01317530
v 0.00504393 -0.02431222 -0.01308265
v 0.00659280 -0.02431222 -0.01290198
v -0.00068999 -0.07894925 -0.00480906
v 0.01527060 -0.02431222 -0.00506848
v 0.01552362 -0.02431222 -0.00449869
v 0.01556807 -0.02431222 -0.00439677
v 0.01775632 -0.07429929 0.00104174
v 0.01584844 -0.02431222 -0.00370190
v 0.00040414 -0.02431222 -0.01280470
v 0.00085889 -0.02431222 -0.01290198
v 0.00194960 -0.02431222 -0.01311044
v 0.01010085 -0.02431222 -0.01144275
v 0.00240093 -0.02431222 -0.01314750
f 1 2 7
f 1 7 19
f 1 19 38
f 1 38 68
f 1 68 104
f 1 104 144
f 1 144 143
f 1 143 192
f 1 192 191
f 1 191 190
f 1 190 189
f 1 189 188
f 1 188 245
f 1 245 244
f 1 244 243
f 1 243 242
f 1 242 309
f 1 309 308
f 1 308 360
f 1 360 359
f 1 359 419
f 1 419 475
f 1 475 538
f 1 538 539
f 1 539 606
f 1 606 605
f 1 605 678
f 1 678 677
f 1 677 676
f 1 676 675
f 1 675 745
f 1 745 744
f 1 744 673
f 1 673 672
f 1 672 598
f 1 598 671
f 1 671 670
f 1 670 669
f 1 669 666
f 1 666 743
f 1 743 742
f 1 742 803
f 1 803 802
f 1 802 801
f 1 801 800
f 1 800 799
f 1 799 798
f 1 798 835
f 1 835 833
f 1 833 832
f 1 832 831
f 1 831 787
f 1 787 786
f 1 786 793
f 1 793 791
f 1 791 790
f 1 790 789
f 1 789 788
f 1 788 821
f 1 821 839
f 1 839 820
f 1 820 819
f 1 819 818
f 1 818 829
f 1 829 828
f 1 828 827
f 1 827 824
f 1 824 840
f 1 840 838
f 1 838 837
f 1 837 836
f 1 836 805
f 1 805 804
f 1 804 760
f 1 760 691
f 1 691 690
f 1 690 689
f 1 689 688
f 1 688 687
f 1 687 684
f 1 684 612
f 1 612 544
f 1 544 543
f 1 543 540
f 1 540 481
f 1 481 480
f 1 480 479
f 1 479 478
f 1 478 477
f 1 477 433
f 1 433 432
f 1 432 431
f 1 431 427
f 1 427 367
f 1 367 317
f 1 317 316
f 1 316 315
f 1 315 314
f 1 314 311
f 1 311 310
f 1 310 251
f 1 251 249
f 1 249 248
f 1 248 246
f 1 246 194
f 1 194 193
f 1 193 145
f 1 145 107
f 1 107 106
f 1 106 105
f 1 105 72
f 1 72 71
f 1 71 70
f 1 70 69
f 1 69 39
f 1 39 20
f 1 20 9
f 1 9 3
f 1 3 4
f 1 4 5
f 1 5 6
f 1 6 2
f 2 6 7
f 3 8 4
f 3 9 10
f 3 10 11
f 3 11 8
f 4 12 13
f 4 13 5
f 4 8 11
f 4 11 14
f 4 14 15
f 4 15 12
f 5 13 6
f 6 13 16
f 6 16 17
f 6 17 18
f 6 18 7
f 7 18 19
f 9 20 21
f 9 21 10
f 10 21 22
f 10 22 23
f 10 23 11
f 11 23 24
f 11 24 25
f 11 25 26
f 11 26 14
f 12 27 13
f 12 15 28
f 12 28 27
f 13 27 16
f 14 26 15
f 15 26 25
f 15 25 29
f 15 29 30
f 15 30 31
f 15 31 32
f 15 32 33
f 15 33 28
f 16 27 34
f 16 34 35
f 16 35 17
f 17 36 37
f 17 37 19
f 17 19 18
f 17 35 36
f 19 37 36
f 19 36 38
f 20 39 40
f 20 40 21
f 21 41 42
f 21 42 22
f 21 40 41
f 22 42 43
f 22 43 44
f 22 44 23
f 23 44 24
f 24 44 45
f 24 45 46
f 24 46 29
f 24 29 25
f 27 47 48
f 27 48 34
f 27 28 47
f 28 33 49
f 28 49 50
f 28 50 51
f 28 51 52
f 28 52 48
f 28 48 47
f 29 46 53
f 29 53 30
f 30 53 46
f 30 46 54
f 30 54 55
f 30 55 56
f 30 56 31
f 31 57 58
f 31 58 32
f 31 56 59
f 31 59 57
f 32 60 61
f 32 61 62
f 32 62 33
f 32 58 60
f 33 62 49
f 34 48 63
f 34 63 64
f 34 64 65
f 34 65 35
f 35 65 66
f 35 66 36
f 36 66 67
f 36 67 68
f 36 68 38
f 39 69 40
f 40 69 70
f 40 70 71
f 40 71 72
f 40 72 73
f 40 73 74
f 40 74 41
f 41 74 42
f 42 75 76
f 42 76 43
f 42 74 75
f 43 76 77
f 43 77 44
f 44 77 45
f 45 77 78
f 45 78 79
f 45 79 80
f 45 80 46
f 46 80 81
f 46 81 54
f 48 52 82
f 48 82 83
f 48 83 63
f 49 84 52
f 49 52 51
f 49 51 50
f 49 62 61
f 49 61 85
f 49 85 86
f 49 86 84
f 52 84 82
f 54 81 87
f 54 87 55
f 55 88 56
f 55 87 89
f 55 89 90
f 55 90 88
f 56 88 91
f 56 91 59
f 57 59 92
f 57 92 93
f 57 93 94
f 57 94 95
f 57 95 58
f 58 95 85
f 58 85 61
f 58 61 60
f 59 91 96
f 59 96 97
f 59 97 93
f 59 93 92
f 63 98 99
f 63 99 64
f 63 83 100
f 63 100 101
f 63 101 98
f 64 99 65
f 65 99 66
f 66 99 102
f 66 102 67
f 67 102 103
f 67 103 104
f 67 104 68
f 72 105 73
f 73 105 106
f 73 106 107
f 73 107 108
f 73 108 109
f 73 109 74
f 74 109 110
f 74 110 75
f 75 110 111
f 75 111 76
f 76 111 112
f 76 112 77
f 77 112 113
f 77 113 78
f 78 114 115
f 78 115 79
f 78 113 114
f 79 115 116
f 79 116 117
f 79 117 80
f 80 117 81
f 81 117 87
f 82 84 118
f 82 118 83
f 83 118 101
f 83 101 100
f 84 86 94
f 84 94 119
f 84 119 120
f 84 120 118
f 85 95 94
f 85 94 86
f 87 117 121
f 87 121 90
f 87 90 89
f 88 90 122
f 88 122 123
f 88 123 91
f 90 121 124
f 90 124 122
f 91 123 125
f 91 125 96
f 93 126 127
f 93 127 128
f 93 128 129
f 93 129 119
f 93 119 94
f 93 97 130
f 93 130 126
f 96 125 97
f 97 125 130
f 98 131 99
f 98 101 132
f 98 132 131
f 99 131 133
f 99 133 102
f 101 118 134
f 101 134 135
f 101 135 136
f 101 136 137
f 101 137 138
f 101 138 139
f 101 139 140
f 101 140 132
f 102 133 141
f 102 141 103
f 103 141 142
f 103 142 143
f 103 143 144
f 103 144 104
f 107 145 108
f 108 145 146
f 108 146 147
f 108 147 109
f 109 147 148
f 109 148 110
f 110 148 149
f 110 149 111
f 111 149 150
f 111 150 112
f 112 150 151
f 112 151 115
f 112 115 114
f 112 114 113
f 115 152 116
f 115 151 152
f 116 152 153
f 116 153 154
f 116 154 155
f 116 155 156
f 116 156 157
f 116 157 121
f 116 121 117
f 118 120 129
f 118 129 128
f 118 128 158
f 118 158 159
f 118 159 134
f 119 129 120
f 121 157 124
f 122 124 160
f 122 160 123
f 123 161 125
f 123 160 161
f 124 157 162
f 124 162 163
f 124 163 164
f 124 164 165
f 124 165 160
f 125 161 166
f 125 166 167
f 125 167 168
f 125 168 169
f 125 169 170
f 125 170 171
f 125 171 130
f 126 130 127
f 127 130 172
f 127 172 128
f 128 172 158
f 130 171 172
f 131 132 140
f 131 140 133
f 133 140 139
f 133 139 173
f 133 173 174
f 133 174 141
f 134 159 158
f 134 158 172
f 134 172 175
f 134 175 135
f 135 176 177
f 135 177 136
f 135 175 178
f 135 178 170
f 135 170 176
f 136 177 179
f 136 179 138
f 136 138 137
f 138 180 181
f 138 181 139
f 138 179 182
f 138 182 183
f 138 183 180
f 139 181 184
f 139 184 185
f 139 185 173
f 141 174 186
f 141 186 187
f 141 187 142
f 142 187 188
f 142 188 189
f 142 189 190
f 142 190 191
f 142 191 192
f 142 192 143
f 145 193 146
f 146 193 194
f 146 194 195
f 146 195 196
f 146 196 197
f 146 197 147
f 147 197 148
f 148 198 199
f 148 199 149
f 148 197 198
f 149 199 200
f 149 200 150
f 150 200 201
f 150 201 202
f 150 202 151
f 151 202 152
f 152 202 203
f 152 203 153
f 153 204 205
f 153 205 206
f 153 206 154
f 153 203 207
f 153 207 204
f 154 206 155
f 155 208 156
f 155 206 208
f 156 208 209
f 156 209 157
f 157 209 162
f 160 165 210
f 160 210 211
f 160 211 161
f 161 211 210
f 161 210 212
f 161 212 213
f 161 213 214
f 161 214 215
f 161 215 216
f 161 216 217
f 161 217 218
f 161 218 219
f 161 219 166
f 162 209 220
f 162 220 221
f 162 221 222
f 162 222 163
f 163 222 223
f 163 223 210
f 163 210 164
f 164 210 165
f 166 219 224
f 166 224 167
f 167 224 168
f 168 225 169
f 168 224 226
f 168 226 227
f 168 227 225
f 169 225 176
f 169 176 170
f 170 178 171
f 171 178 172
f 172 178 175
f 173 185 174
f 174 228 229
f 174 229 186
f 174 185 228
f 176 230 179
f 176 179 177
f 176 225 230
f 179 230 231
f 179 231 182
f 180 232 233
f 180 233 234
f 180 234 181
f 180 183 232
f 181 234 235
f 181 235 184
f 182 231 236
f 182 236 183
f 183 236 237
f 183 237 238
f 183 238 232
f 184 239 240
f 184 240 185
f 184 235 239
f 185 240 228
f 186 229 241
f 186 241 187
f 187 241 242
f 187 242 243
f 187 243 244
f 187 244 245
f 187 245 188
f 194 246 195
f 195 247 196
f 195 246 248
f 195 248 249
f 195 249 250
f 195 250 251
f 195 251 247
f 196 247 252
f 196 252 253
f 196 253 254
f 196 254 255
f 196 255 256
f 196 256 197
f 197 256 257
f 197 257 198
f 198 257 258
f 198 258 199
f 199 258 200
f 200 259 201
f 200 258 259
f 201 260 207
f 201 207 203
f 201 203 202
f 201 259 261
f 201 261 260
f 204 262 205
f 204 207 262
f 205 263 264
f 205 264 265
f 205 265 206
f 205 262 266
f 205 266 263
f 206 265 208
f 207 266 262
f 207 260 267
f 207 267 268
f 207 268 269
f 207 269 270
f 207 270 266
f 208 265 264
f 208 264 271
f 208 271 272
f 208 272 209
f 209 272 273
f 209 273 220
f 210 223 274
f 210 274 212
f 212 274 213
f 213 275 276
f 213 276 214
f 213 274 277
f 213 277 278
f 213 278 279
f 213 279 275
f 214 276 280
f 214 280 215
f 215 280 281
f 215 281 282
f 215 282 216
f 216 282 344
f 216 344 283
f 216 283 217
f 217 283 284
f 217 284 285
f 217 285 218
f 218 286 287
f 218 287 288
f 218 288 219
f 218 285 286
f 219 289 290
f 219 290 291
f 219 291 292
f 219 292 293
f 219 293 224
f 219 288 289
f 220 273 221
f 221 273 294
f 221 294 222
f 222 294 295
f 222 295 277
f 222 277 223
f 223 277 274
f 224 293 296
f 224 296 226
f 225 227 231
f 225 231 230
f 226 297 236
f 226 236 227
f 226 296 297
f 227 236 231
f 228 240 229
f 229 298 299
f 229 299 241
f 229 240 300
f 229 300 298
f 232 238 233
f 233 301 302
f 233 302 235
f 233 235 234
f 233 238 296
f 233 296 301
f 235 302 303
f 235 303 304
f 235 304 239
f 236 297 237
f 237 297 296
f 237 296 238
f 239 304 305
f 239 305 306
f 239 306 307
f 239 307 240
f 240 307 300
f 241 299 308
f 241 308 309
f 241 309 242
f 247 251 310
f 247 310 311
f 247 311 252
f 249 251 250
f 252 312 313
f 252 313 253
f 252 311 314
f 252 314 315
f 252 315 316
f 252 316 317
f 252 317 312
f 253 313 318
f 253 318 254
f 254 318 313
f 254 313 319
f 254 319 320
f 254 320 321
f 254 321 322
f 254 322 255
f 255 322 261
f 255 261 258
f 255 258 257
f 255 257 256
f 258 261 259
f 260 261 267
f 261 322 267
f 263 323 324
f 263 324 325
f 263 325 264
f 263 266 326
f 263 326 327
f 263 327 328
f 263 328 329
f 263 329 323
f 264 325 271
f 266 270 330
f 266 330 326
f 267 322 268
f 268 322 321
f 268 321 269
f 269 321 270
f 270 321 320
f 270 320 331
f 270 331 330
f 271 332 272
f 271 325 332
f 272 332 333
f 272 333 334
f 272 334 273
f 273 334 294
f 275 335 336
f 275 336 337
f 275 337 276
f 275 279 335
f 276 337 338
f 276 338 280
f 277 295 278
f 278 295 279
f 279 295 294
f 279 294 334
f 279 334 339
f 279 339 335
f 280 338 340
f 280 340 341
f 280 341 281
f 281 341 342
f 281 342 343
f 281 343 344
f 281 344 282
f 283 344 284
f 284 344 285
f 285 344 345
f 285 345 286
f 286 346 347
f 286 347 287
f 286 345 348
f 286 348 396
f 286 396 346
f 287 347 349
f 287 349 289
f 287 289 288
f 289 349 350
f 289 350 290
f 290 350 351
f 290 351 291
f 291 351 352
f 291 352 353
f 291 353 292
f 292 353 296
f 292 296 293
f 296 353 354
f 296 354 355
f 296 355 356
f 296 356 301
f 298 357 299
f 298 300 358
f 298 358 357
f 299 357 359
f 299 359 360
f 299 360 308
f 300 307 358
f 301 303 302
f 301 356 415
f 301 415 361
f 301 361 303
f 303 361 304
f 304 361 362
f 304 362 305
f 305 362 306
f 306 362 363
f 306 363 364
f 306 364 307
f 307 364 358
f 312 365 366
f 312 366 319
f 312 319 313
f 312 317 365
f 317 367 368
f 317 368 365
f 319 366 331
f 319 331 320
f 323 369 370
f 323 370 371
f 323 371 324
f 323 329 369
f 324 371 370
f 324 370 372
f 324 372 332
f 324 332 325
f 326 330 373
f 326 373 331
f 326 331 328
f 326 328 327
f 328 331 329
f 329 331 374
f 329 374 375
f 329 375 376
f 329 376 377
f 329 377 378
f 329 378 379
f 329 379 369
f 330 331 373
f 331 366 380
f 331 380 375
f 331 375 374
f 332 372 334
f 332 334 333
f 334 381 339
f 334 372 382
f 334 382 381
f 335 383 336
f 335 339 384
f 335 384 385
f 335 385 386
f 335 386 383
f 336 387 337
f 336 383 388
f 336 388 389
f 336 389 387
f 337 387 338
f 338 387 390
f 338 390 340
f 339 381 384
f 340 390 391
f 340 391 392
f 340 392 393
f 340 393 341
f 341 393 394
f 341 394 395
f 341 395 342
f 342 396 343
f 342 395 397
f 342 397 396
f 343 396 348
f 343 348 345
f 343 345 344
f 346 396 397
f 346 397 398
f 346 398 347
f 347 398 399
f 347 399 349
f 349 399 350
f 350 400 401
f 350 401 351
f 350 399 400
f 351 401 402
f 351 402 352
f 352 402 403
f 352 403 404
f 352 404 405
f 352 405 406
f 352 406 407
f 352 407 408
f 352 408 409
f 352 409 410
f 352 410 353
f 353 410 411
f 353 411 412
f 353 412 354
f 354 412 355
f 355 412 413
f 355 413 414
f 355 414 415
f 355 415 356
f 357 416 417
f 357 417 359
f 357 358 416
f 358 364 418
f 358 418 416
f 359 417 416
f 359 416 420
f 359 420 421
f 359 421 419
f 361 415 363
f 361 363 362
f 363 415 414
f 363 414 364
f 364 422 423
f 364 423 418
f 364 414 424
f 364 424 422
f 365 368 425
f 365 425 366
f 366 425 426
f 366 426 380
f 367 427 368
f 368 428 429
f 368 429 430
f 368 430 425
f 368 427 431
f 368 431 432
f 368 432 433
f 368 433 428
f 369 379 434
f 369 434 435
f 369 435 436
f 369 436 370
f 370 436 381
f 370 381 382
f 370 382 372
f 375 380 437
f 375 437 438
f 375 438 377
f 375 377 376
f 377 438 378
f 378 438 439
f 378 439 440
f 378 440 441
f 378 441 442
f 378 442 443
f 378 443 434
f 378 434 379
f 380 426 444
f 380 444 437
f 381 386 384
f 381 436 386
f 383 386 445
f 383 445 388
f 384 386 385
f 386 436 435
f 386 435 445
f 387 446 447
f 387 447 390
f 387 389 446
f 388 445 448
f 388 448 449
f 388 449 389
f 389 449 450
f 389 450 451
f 389 451 452
f 389 452 446
f 390 447 391
f 391 393 392
f 391 447 453
f 391 453 454
f 391 454 393
f 393 455 394
f 393 454 455
f 394 455 395
f 395 455 456
f 395 456 457
f 395 457 398
f 395 398 397
f 398 457 458
f 398 458 399
f 399 458 459
f 399 459 460
f 399 460 400
f 400 460 461
f 400 461 462
f 400 462 401
f 401 462 402
f 402 462 463
f 402 463 464
f 402 464 403
f 403 464 465
f 403 465 405
f 403 405 404
f 405 465 466
f 405 466 406
f 406 467 407
f 406 466 468
f 406 468 467
f 407 467 468
f 407 468 408
f 408 468 469
f 408 469 409
f 409 411 410
f 409 469 470
f 409 470 471
f 409 471 411
f 411 424 472
f 411 472 412
f 411 471 473
f 411 473 424
f 412 472 414
f 412 414 413
f 414 472 424
f 416 474 421
f 416 421 420
f 416 418 474
f 418 423 474
f 419 421 476
f 419 476 475
f 421 474 476
f 422 424 423
f 423 424 473
f 423 473 471
f 423 471 474
f 425 430 426
f 426 430 444
f 428 433 477
f 428 477 478
f 428 478 479
f 428 479 480
f 428 480 481
f 428 481 482
f 428 482 483
f 428 483 429
f 429 484 495
f 429 495 485
f 429 485 430
f 429 483 486
f 429 486 487
f 429 487 488
f 429 488 489
f 429 489 490
f 429 490 484
f 430 485 441
f 430 441 440
f 430 440 439
f 430 439 444
f 434 491 492
f 434 492 493
f 434 493 494
f 434 494 435
f 434 443 491
f 435 494 445
f 437 444 438
f 438 444 439
f 441 485 495
f 441 495 496
f 441 496 497
f 441 497 498
f 441 498 499
f 441 499 500
f 441 500 443
f 441 443 442
f 443 500 491
f 445 501 448
f 445 494 502
f 445 502 503
f 445 503 504
f 445 504 501
f 446 452 447
f 447 452 453
f 448 501 505
f 448 505 506
f 448 506 507
f 448 507 449
f 449 507 508
f 449 508 450
f 450 508 451
f 451 508 452
f 452 508 509
f 452 509 510
f 452 510 511
f 452 511 453
f 453 511 454
f 454 512 457
f 454 457 513
f 454 513 455
f 454 511 514
f 454 514 515
f 454 515 516
f 454 516 517
f 454 517 512
f 455 513 456
f 456 513 457
f 457 512 518
f 457 518 519
f 457 519 458
f 458 519 459
f 459 520 521
f 459 521 460
f 459 519 520
f 460 521 461
f 461 463 462
f 461 521 522
f 461 522 523
f 461 523 524
f 461 524 525
f 461 525 526
f 461 526 463
f 463 526 464
f 464 526 527
f 464 527 528
f 464 528 590
f 464 590 529
f 464 529 465
f 465 529 530
f 465 530 466
f 466 530 531
f 466 531 468
f 468 531 530
f 468 530 532
f 468 532 533
f 468 533 469
f 469 533 471
f 469 471 470
f 471 533 534
f 471 534 474
f 474 534 535
f 474 535 536
f 474 536 537
f 474 537 476
f 475 476 538
f 476 539 538
f 476 537 539
f 481 540 482
f 482 540 483
f 483 540 487
f 483 487 486
f 484 541 495
f 484 490 542
f 484 542 541
f 487 540 543
f 487 543 488
f 488 543 544
f 488 544 489
f 489 544 545
f 489 545 546
f 489 546 620
f 489 620 547
f 489 547 548
f 489 548 542
f 489 542 490
f 491 549 550
f 491 550 551
f 491 551 552
f 491 552 504
f 491 504 492
f 491 500 553
f 491 553 549
f 492 504 554
f 492 554 493
f 493 554 494
f 494 554 502
f 495 541 555
f 495 555 556
f 495 556 557
f 495 557 496
f 496 557 558
f 496 558 559
f 496 559 497
f 497 559 560
f 497 560 499
f 497 499 498
f 499 560 500
f 500 560 553
f 501 504 561
f 501 561 562
f 501 562 505
f 502 554 503
f 503 554 504
f 504 552 561
f 505 562 563
f 505 563 506
f 506 563 564
f 506 564 507
f 507 564 565
f 507 565 566
f 507 566 508
f 508 566 509
f 509 566 510
f 510 566 567
f 510 567 568
f 510 568 511
f 511 569 570
f 511 570 571
f 511 571 572
f 511 572 514
f 511 568 569
f 512 517 518
f 514 572 515
f 515 573 574
f 515 574 517
f 515 517 516
f 515 572 575
f 515 575 576
f 515 576 577
f 515 577 578
f 515 578 579
f 515 579 573
f 517 580 581
f 517 581 521
f 517 521 520
f 517 520 519
f 517 519 518
f 517 574 582
f 517 582 583
f 517 583 584
f 517 584 580
f 521 581 580
f 521 580 522
f 522 580 585
f 522 585 586
f 522 586 587
f 522 587 523
f 523 587 524
f 524 586 525
f 524 587 586
f 525 586 527
f 525 527 526
f 527 586 585
f 527 585 588
f 527 588 589
f 527 589 528
f 528 589 590
f 529 590 591
f 529 591 592
f 529 592 593
f 529 593 594
f 529 594 595
f 529 595 596
f 529 596 530
f 530 596 597
f 530 597 598
f 530 598 599
f 530 599 600
f 530 600 601
f 530 601 532
f 532 601 602
f 532 602 533
f 533 602 535
f 533 535 534
f 535 602 536
f 536 603 604
f 536 604 605
f 536 605 537
f 536 602 603
f 537 605 606
f 537 606 539
f 541 607 608
f 541 608 609
f 541 609 610
f 541 610 611
f 541 611 555
f 541 542 607
f 542 548 547
f 542 547 607
f 544 612 613
f 544 613 545
f 545 613 614
f 545 614 615
f 545 615 546
f 546 616 617
f 546 617 618
f 546 618 619
f 546 619 620
f 546 615 616
f 547 620 608
f 547 608 607
f 549 553 621
f 549 621 550
f 550 621 622
f 550 622 623
f 550 623 624
f 550 624 552
f 550 552 551
f 552 624 625
f 552 625 561
f 553 560 621
f 555 611 556
f 556 611 626
f 556 626 558
f 556 558 557
f 558 626 627
f 558 627 628
f 558 628 559
f 559 629 560
f 559 628 629
f 560 629 630
f 560 630 631
f 560 631 622
f 560 622 621
f 561 625 562
f 562 625 632
f 562 632 633
f 562 633 563
f 563 634 564
f 563 633 631
f 563 631 635
f 563 635 636
f 563 636 637
f 563 637 638
f 563 638 639
f 563 639 634
f 564 634 565
f 565 634 640
f 565 640 566
f 566 640 568
f 566 568 567
f 568 640 569
f 569 640 571
f 569 571 570
f 571 641 642
f 571 642 572
f 571 640 641
f 572 642 575
f 573 579 643
f 573 643 582
f 573 582 574
f 575 642 644
f 575 644 576
f 576 644 645
f 576 645 646
f 576 646 577
f 577 646 647
f 577 647 578
f 578 648 579
f 578 647 649
f 578 649 650
f 578 650 651
f 578 651 648
f 579 648 643
f 580 584 585
f 582 643 652
f 582 652 653
f 582 653 584
f 582 584 583
f 584 653 654
f 584 654 655
f 584 655 656
f 584 656 585
f 585 656 655
f 585 655 657
f 585 657 658
f 585 658 588
f 588 658 659
f 588 659 660
f 588 660 661
f 588 661 662
f 588 662 589
f 589 662 590
f 590 662 661
f 590 661 591
f 591 661 663
f 591 663 592
f 592 663 664
f 592 664 593
f 593 664 665
f 593 665 594
f 594 665 595
f 595 665 666
f 595 666 667
f 595 667 596
f 596 667 668
f 596 668 666
f 596 666 597
f 597 666 669
f 597 669 670
f 597 670 671
f 597 671 598
f 598 672 599
f 599 672 673
f 599 673 674
f 599 674 600
f 600 603 602
f 600 602 601
f 600 674 675
f 600 675 676
f 600 676 677
f 600 677 603
f 603 677 678
f 603 678 605
f 603 605 604
f 608 620 619
f 608 619 618
f 608 618 679
f 608 679 680
f 608 680 609
f 609 681 682
f 609 682 683
f 609 683 610
f 609 680 681
f 610 683 611
f 611 683 626
f 612 684 613
f 613 685 614
f 613 684 685
f 614 686 615
f 614 685 684
f 614 684 687
f 614 687 688
f 614 688 689
f 614 689 690
f 614 690 691
f 614 691 692
f 614 692 686
f 615 686 616
f 616 686 693
f 616 693 694
f 616 694 679
f 616 679 618
f 616 618 617
f 622 631 623
f 623 631 632
f 623 632 625
f 623 625 624
f 626 683 627
f 627 695 628
f 627 683 695
f 628 695 629
f 629 696 697
f 629 697 698
f 629 698 699
f 629 699 630
f 629 695 700
f 629 700 696
f 630 699 631
f 631 701 702
f 631 702 637
f 631 637 635
f 631 633 632
f 631 699 701
f 634 639 703
f 634 703 640
f 635 637 636
f 637 702 704
f 637 704 705
f 637 705 706
f 637 706 638
f 638 706 707
f 638 707 639
f 639 707 708
f 639 708 703
f 640 703 641
f 641 703 642
f 642 703 709
f 642 709 644
f 643 648 710
f 643 710 711
f 643 711 652
f 644 709 712
f 644 712 645
f 645 713 714
f 645 714 715
f 645 715 646
f 645 712 708
f 645 708 713
f 646 715 647
f 647 715 649
f 648 651 716
f 648 716 710
f 649 715 717
f 649 717 650
f 650 718 719
f 650 719 720
f 650 720 721
f 650 721 722
f 650 722 651
f 650 717 723
f 650 723 724
f 650 724 718
f 651 722 716
f 652 725 726
f 652 726 653
f 652 711 710
f 652 710 727
f 652 727 728
f 652 728 729
f 652 729 730
f 652 730 731
f 652 731 732
f 652 732 725
f 653 726 655
f 653 655 654
f 655 726 733
f 655 733 657
f 657 733 734
f 657 734 735
f 657 735 658
f 658 735 659
f 659 735 736
f 659 736 737
f 659 737 738
f 659 738 660
f 660 738 661
f 661 738 739
f 661 739 663
f 663 739 740
f 663 740 741
f 663 741 665
f 663 665 664
f 665 741 742
f 665 742 743
f 665 743 666
f 666 668 667
f 673 744 674
f 674 744 745
f 674 745 675
f 679 694 746
f 679 746 747
f 679 747 748
f 679 748 749
f 679 749 750
f 679 750 751
f 679 751 680
f 680 751 752
f 680 752 753
f 680 753 754
f 680 754 755
f 680 755 756
f 680 756 757
f 680 757 758
f 680 758 682
f 680 682 681
f 682 757 695
f 682 695 683
f 682 758 757
f 686 692 759
f 686 759 693
f 691 760 692
f 692 760 759
f 693 759 747
f 693 747 694
f 694 747 746
f 695 757 700
f 696 761 697
f 696 700 762
f 696 762 763
f 696 763 761
f 697 704 699
f 697 699 698
f 697 761 704
f 699 704 701
f 700 757 756
f 700 756 762
f 701 704 702
f 703 708 712
f 703 712 709
f 704 761 764
f 704 764 705
f 705 764 765
f 705 765 706
f 706 765 766
f 706 766 707
f 707 766 708
f 708 766 767
f 708 767 768
f 708 768 713
f 710 716 769
f 710 769 770
f 710 770 771
f 710 771 728
f 710 728 727
f 713 768 714
f 714 772 773
f 714 773 715
f 714 768 772
f 715 773 717
f 716 722 769
f 717 773 723
f 718 774 775
f 718 775 776
f 718 776 751
f 718 751 777
f 718 777 719
f 718 724 774
f 719 777 778
f 719 778 720
f 720 778 722
f 720 722 721
f 722 778 779
f 722 779 780
f 722 780 769
f 723 773 781
f 723 781 724
f 724 781 782
f 724 782 783
f 724 783 784
f 724 784 775
f 724 775 774
f 725 785 726
f 725 732 786
f 725 786 787
f 725 787 785
f 726 785 734
f 726 734 733
f 728 771 788
f 728 788 789
f 728 789 790
f 728 790 791
f 728 791 792
f 728 792 729
f 729 792 730
f 730 792 731
f 731 792 793
f 731 793 786
f 731 786 732
f 734 785 794
f 734 794 736
f 734 736 735
f 736 794 795
f 736 795 796
f 736 796 739
f 736 739 797
f 736 797 737
f 737 797 738
f 738 797 739
f 739 796 798
f 739 798 799
f 739 799 800
f 739 800 740
f 740 800 801
f 740 801 741
f 741 801 802
f 741 802 803
f 741 803 742
f 747 759 804
f 747 804 749
f 747 749 748
f 749 804 805
f 749 805 806
f 749 806 751
f 749 751 750
f 751 806 777
f 751 776 753
f 751 753 752
f 753 776 807
f 753 807 808
f 753 808 809
f 753 809 754
f 754 809 810
f 754 810 755
f 755 810 811
f 755 811 763
f 755 763 762
f 755 762 756
f 759 760 812
f 759 812 804
f 760 804 812
f 761 763 811
f 761 811 764
f 764 811 813
f 764 813 814
f 764 814 765
f 765 814 766
f 766 814 815
f 766 815 783
f 766 783 816
f 766 816 767
f 767 816 768
f 768 816 772
f 769 817 770
f 769 780 818
f 769 818 819
f 769 819 820
f 769 820 817
f 770 817 821
f 770 821 771
f 771 821 788
f 772 816 822
f 772 822 781
f 772 781 773
f 775 784 807
f 775 807 776
f 777 806 823
f 777 823 824
f 777 824 825
f 777 825 779
f 777 779 826
f 777 826 778
f 778 826 779
f 779 825 780
f 780 825 827
f 780 827 828
f 780 828 829
f 780 829 818
f 781 822 783
f 781 783 782
f 783 822 816
f 783 815 830
f 783 830 784
f 784 830 807
f 785 787 794
f 787 831 794
f 791 793 792
f 794 831 832
f 794 832 833
f 794 833 795
f 795 834 796
f 795 833 835
f 795 835 798
f 795 798 834
f 796 834 798
f 805 836 806
f 806 836 837
f 806 837 838
f 806 838 823
f 807 830 809
f 807 809 808
f 809 830 815
f 809 815 814
f 809 814 813
f 809 813 811
f 809 811 810
f 817 820 839
f 817 839 821
f 823 838 840
f 823 840 824
f 824 827 825

