# https://github.com/mikedh/trimesh
v 0.01919531 0.00616479 0.01652141
v 0.01916622 0.00616479 0.01807029
v 0.01859895 -0.02431221 0.01497253
v 0.01871532 -0.01857242 0.01497253
v 0.01911531 0.00154968 0.01497253
v 0.01908622 0.00154968 0.01342365
v 0.01914804 0.00616479 0.01497253
v 0.01905350 0.00616479 0.01961917
v 0.01866441 -0.01652590 0.01736511
v 0.01864986 -0.01755811 0.01719511
v 0.01868623 -0.01857242 0.01613104
v 0.01859895 -0.02431221 0.01451920
v 0.01854805 -0.02431221 0.01606808
v 0.01870441 -0.01857242 0.01342365
v 0.01906440 0.00000137 0.01342365
v 0.01871895 0.00616479 0.01068477
v 0.01885350 0.00616479 0.01190625
v 0.01901713 0.00616479 0.01345513
v 0.01849350 -0.02431221 0.01032588
v 0.01837714 -0.02431221 0.00878330
v 0.01825350 -0.02431221 0.00723442
v 0.01798442 -0.02431221 0.00414295
v 0.01870441 0.00616479 0.02363619
v 0.01852623 -0.02431221 0.01652141
v 0.01858805 -0.02431221 0.01342365
v 0.01856623 -0.02431221 0.01187477
v 0.01861350 0.00616479 0.00989144
v 0.01776624 -0.02431221 0.00259407
v 0.01863896 0.00616479 0.02425952
v 0.01835532 -0.02431221 0.01807029
v 0.01746442 -0.01237917 0.00104519
v 0.01724624 -0.01083085 -0.00030221
v 0.01820987 0.00616479 0.00726590
v 0.01765715 -0.02431221 0.00214074
v 0.01725715 -0.01237917 -0.00027703
v 0.01859168 0.00616479 0.02456803
v 0.01815169 -0.02431221 0.01961287
v 0.01821350 -0.02431221 0.01915954
v 0.01705715 -0.01083085 -0.00107665
v 0.01702806 -0.00928254 -0.00092554
v 0.01725351 0.00616479 0.00281444
v 0.01757351 0.00616479 0.00414295
v 0.01758078 0.00616479 0.00417443
v 0.01792623 0.00616479 0.00569183
v 0.01739170 -0.02431221 0.00104519
v 0.01700625 -0.01857242 -0.00083110
v 0.01704261 -0.01237917 -0.00105147
v 0.01783169 -0.02431221 0.02116176
v 0.01792623 -0.02431221 0.02070842
v 0.01831169 0.00616479 0.02573914
v 0.01656625 -0.02012073 -0.00205257
v 0.01670443 -0.01083085 -0.00205257
v 0.01668625 -0.00928254 -0.00205257
v 0.01594807 -0.00309525 -0.00360145
v 0.01630807 -0.00154694 -0.00205257
v 0.01706443 0.00616479 0.00203370
v 0.01708988 -0.02431221 -0.00008184
v 0.01693352 -0.02431221 -0.00062962
v 0.01680261 -0.02431221 -0.00105147
v 0.01647898 -0.02431221 -0.00205257
v 0.01653716 -0.02166904 -0.00205257
v 0.01787169 0.00616479 0.02735728
v 0.01740260 -0.02431221 0.02271064
v 0.01584626 -0.02431221 -0.00370219
v 0.01590444 -0.02321736 -0.00360145
v 0.01609716 -0.01083085 -0.00360145
v 0.01611534 -0.00928254 -0.00360145
v 0.01608989 -0.00774019 -0.00360145
v 0.01565353 -0.00619188 -0.00452071
v 0.01559171 -0.00309525 -0.00441997
v 0.01557353 -0.00224204 -0.00438849
v 0.01582807 -0.00165434 -0.00368330
v 0.01706079 0.00616479 0.00202111
v 0.01740260 0.00616479 0.02886209
v 0.01691170 -0.02431221 0.02437915
v 0.01698079 -0.02431221 0.02415248
v 0.01714442 -0.02431221 0.02360471
v 0.01573353 -0.02431221 -0.00398552
v 0.01557717 -0.02321736 -0.00441997
v 0.01567899 -0.01083085 -0.00458997
v 0.01568262 -0.00928254 -0.00458997
v 0.01567535 -0.00774019 -0.00456478
v 0.00659544 -0.01083085 -0.02012285
v 0.01403900 0.00402281 -0.00595626
v 0.01570444 0.00154968 -0.00311664
v 0.01580262 0.00000137 -0.00331182
v 0.01669352 0.00616479 0.00104519
v 0.01739533 0.00616479 0.02888098
v 0.01709352 0.00616479 0.02961134
v 0.01644625 -0.02431221 0.02539284
v 0.01556990 -0.02431221 -0.00439478
v 0.01552626 -0.02431221 -0.00449552
v 0.01523899 -0.02321736 -0.00519441
v 0.01446445 -0.02321736 -0.00666773
v 0.01523535 -0.01083085 -0.00536441
v 0.00650454 -0.01192273 -0.02007878
v 0.00474819 -0.01319061 -0.02142618
v 0.00475546 -0.01237917 -0.02142618
v 0.00474092 -0.01158562 -0.02141358
v 0.00369366 0.00000137 -0.02021729
v 0.00646817 -0.00959578 -0.01999063
v 0.00751543 0.00616479 -0.01481510
v 0.00810088 0.00616479 -0.01404066
v 0.01268993 0.00616479 -0.00772551
v 0.01445354 -0.02431221 -0.00664884
v 0.01398446 -0.02431221 -0.00742329
v 0.01331537 0.00616479 -0.00667403
v 0.01386446 0.00616479 -0.00555959
v 0.01562080 0.00260576 -0.00295923
v 0.01666443 0.00616479 0.03041726
v 0.01624262 -0.02431221 0.02580840
v 0.01527172 -0.02431221 -0.00506848
v 0.01380991 -0.02431221 -0.00766254
v 0.01338083 -0.02431221 -0.00824180
v 0.01263538 -0.02431221 -0.00918624
v 0.00381002 -0.01379622 -0.02164025
v 0.00394820 -0.01237917 -0.02186062
v 0.01160630 -0.02431221 -0.01018105
v 0.01105722 -0.02431221 -0.01070364
v 0.01076631 -0.02431221 -0.01093660
v 0.01010086 -0.02431221 -0.01144030
v 0.00923905 -0.02431221 -0.01204474
v 0.00240276 -0.00154694 -0.02095396
v 0.00349002 0.00154968 -0.02007248
v 0.00446819 0.00000137 -0.01960026
v 0.00607909 0.00616479 -0.01655287
v 0.00673726 0.00616479 -0.01579102
v 0.01547172 0.00616479 0.03261466
v 0.01583535 -0.02431221 0.02645062
v 0.01496627 0.00616479 0.03344577
v 0.01490081 0.00616479 0.03355280
v 0.00252640 -0.01396029 -0.02175358
v 0.00240276 -0.01237917 -0.02209358
v 0.00319912 -0.01471804 -0.02141988
v 0.00851542 -0.02431221 -0.01240363
v 0.00240276 0.00000137 -0.02070840
v 0.00085369 -0.00309525 -0.02131284
v 0.00085369 -0.00154694 -0.02114284
v 0.00331911 0.00262962 -0.01995285
v 0.00426456 0.00154968 -0.01941137
v 0.00475546 0.00395419 -0.01834101
v 0.00529364 0.00616479 -0.01722657
v 0.01566444 -0.02431221 0.02670876
v 0.01421718 0.00616479 0.03462946
v 0.00312275 -0.01471804 -0.02141988
v 0.00209004 -0.01449728 -0.02127507
v -0.00168083 -0.01482842 -0.01993396
v -0.00221537 -0.01398714 -0.02028026
v 0.00134459 -0.01346507 -0.02162136
v -0.00109902 -0.01083085 -0.02134433
v -0.00094993 -0.00928254 -0.02133803
v -0.00053903 -0.00473903 -0.02130655
v -0.00069175 -0.00309525 -0.02121210
v -0.00223719 -0.01237917 -0.02094766
v 0.00704635 -0.02431221 -0.01283178
v 0.00659181 -0.02431221 -0.01290103
v 0.00504273 -0.02431221 -0.01308363
v 0.00394820 -0.02431221 -0.01317177
v 0.00349729 -0.02431221 -0.01319066
v 0.00085369 0.00000137 -0.02084692
v -0.00063721 0.00616479 -0.01973878
v 0.00240276 0.00154968 -0.02036841
v -0.00069175 -0.00154694 -0.02106099
v -0.00211356 0.00616479 -0.01973878
v -0.00196810 0.00616479 -0.01974507
v -0.00078266 0.00616479 -0.01974507
v 0.00087914 0.00616479 -0.01953100
v 0.00239912 0.00616479 -0.01913434
v 0.00356275 0.00616479 -0.01858656
v 0.00433365 0.00616479 -0.01800101
v 0.01521354 -0.02431221 0.02725654
v 0.01367901 0.00616479 0.03542279
v 0.01290447 0.00616479 0.03637982
v 0.00240276 -0.02431221 -0.01314659
v 0.00194822 -0.02431221 -0.01310881
v -0.00008812 -0.01788627 -0.01837878
v -0.00271355 -0.01454203 -0.01973248
v -0.00335718 -0.01350982 -0.02011655
v -0.00223719 -0.01083085 -0.02099803
v -0.00223719 -0.00309525 -0.02086581
v -0.00223719 -0.00154694 -0.02079655
v -0.00355354 -0.01237917 -0.02032433
v -0.00375718 0.00616479 -0.01951211
v 0.01502445 -0.02431221 0.02748320
v 0.01215902 0.00616479 0.03715426
v 0.01351174 -0.02431221 0.02918319
v 0.01424991 -0.02431221 0.02840875
v 0.00085369 -0.02431221 -0.01290103
v -0.00184083 -0.01657065 -0.01855508
v 0.00040278 -0.02431221 -0.01280029
v -0.00071721 -0.02431221 -0.01249178
v -0.00153538 -0.02431221 -0.01216437
v -0.00655351 -0.02431221 -0.00929328
v -0.00471353 -0.01351877 -0.01861804
v -0.00432808 -0.01237917 -0.01959396
v -0.00732805 -0.02431221 -0.00874550
v -0.00816077 -0.02431221 -0.00797106
v -0.00893530 -0.02431221 -0.00717773
v -0.00988802 -0.02431221 -0.00616403
v -0.01065528 -0.02431221 -0.00534552
v -0.00473898 -0.00619188 -0.01992137
v -0.00378627 -0.00154694 -0.02026766
v -0.00450989 0.00057117 -0.01983952
v -0.00378627 0.00616479 -0.01950582
v -0.00551352 -0.00619188 -0.01939248
v 0.01138085 0.00616479 0.03781538
v 0.01273720 -0.02431221 0.02990726
v -0.00486625 -0.01237917 -0.01881952
v -0.01209163 -0.02431221 -0.00368960
v -0.01256072 -0.02431221 -0.00314183
v -0.00617897 -0.00728972 -0.01847323
v -0.00625897 -0.00619188 -0.01861804
v -0.00536079 -0.00154694 -0.01937989
v -0.00459353 -0.00046103 -0.01987100
v -0.00520080 0.00003419 -0.01943656
v -0.00544443 0.00616479 -0.01875027
v -0.00630988 -0.00464357 -0.01866841
v -0.00633533 -0.00154694 -0.01860545
v -0.00633169 0.00000137 -0.01856767
v 0.01119176 0.00464631 0.03763908
v 0.01032995 0.00616479 0.03857093
v 0.00631545 0.00067559 0.04054166
v 0.00799907 0.00000137 0.03911241
v 0.01180630 -0.02431221 0.03068171
v -0.01274254 -0.02431221 -0.00282072
v -0.01316799 -0.02431221 -0.00205257
v -0.01473161 -0.01547579 -0.00050369
v -0.01427343 -0.01237917 -0.00187628
v -0.01416070 -0.00154694 -0.00334960
v -0.00629169 0.00154968 -0.01849841
v -0.00624079 0.00309800 -0.01843545
v -0.00616442 0.00464631 -0.01835990
v -0.00610988 0.00543687 -0.01830953
v -0.00561170 0.00616479 -0.01858656
v -0.01420070 0.00154968 -0.00341256
v -0.01419343 0.00000137 -0.00339368
v -0.00781168 0.00616479 -0.01548250
v -0.00739714 0.00616479 -0.01627583
v -0.00671351 0.00464631 -0.01753508
v 0.01103176 -0.02431221 0.03131763
v 0.01031177 0.00616479 0.03858352
v 0.00786816 -0.00092941 0.03900537
v 0.00955905 0.00616479 0.03908722
v 0.00856270 0.00616479 0.03959722
v 0.00722089 0.00616479 0.04023943
v 0.00644999 0.00616479 0.04059832
v 0.00549727 0.00154968 0.04091943
v 0.00394820 0.00154968 0.04153017
v 0.00394820 0.00000137 0.04137276
v 0.00549364 0.00009684 0.04074943
v 0.00816634 -0.02431221 0.03294836
v 0.00839543 -0.02431221 0.03283503
v 0.00894087 -0.02431221 0.03255170
v 0.01014086 -0.02431221 0.03187170
v -0.01331344 -0.02431221 -0.00171887
v -0.01368071 -0.02431221 -0.00084999
v -0.01377525 -0.02431221 -0.00062332
v -0.01398616 -0.02431221 -0.00007554
v -0.01411707 -0.02431221 0.00027075
v -0.01479342 -0.02012073 0.00104519
v -0.01552796 -0.01392748 0.00154260
v -0.01480797 -0.01392748 -0.00050369
v -0.01484070 0.00000137 -0.00205257
v -0.00656078 0.00616479 -0.01762953
v -0.01487342 0.00154968 -0.00205257
v -0.01416434 0.00309800 -0.00336849
v -0.01405161 0.00464631 -0.00321108
v -0.01202618 0.00616479 -0.00688181
v 0.00643545 0.00616479 0.04060462
v 0.00245003 0.00154968 0.04193943
v 0.00227549 0.00013562 0.04185128
v 0.00546818 0.00616479 0.04096980
v 0.00549727 -0.02431221 0.03381724
v 0.00704635 -0.02431221 0.03339540
v -0.01435343 -0.02431221 0.00104519
v -0.01445888 -0.02431221 0.00149852
v -0.01482251 -0.02321736 0.00259407
v -0.01573887 -0.01392748 0.00259407
v -0.01552796 0.00154968 -0.00016999
v -0.01529524 0.00154968 -0.00094443
v -0.01480070 0.00309800 -0.00205257
v -0.01453524 0.00464631 -0.00205257
v -0.01392798 0.00572625 -0.00300331
v -0.01284435 0.00616479 -0.00515033
v 0.00164277 0.00234622 0.04206535
v 0.00167550 0.00154968 0.04207165
v 0.00167550 0.00073824 0.04207165
v 0.00394820 0.00616479 0.04136017
v 0.00391911 0.00616479 0.04136647
v 0.00085369 -0.00031485 0.04197091
v 0.00392274 -0.02431221 0.03412576
v -0.01467342 -0.02431221 0.00259407
v -0.01507706 -0.02431221 0.00572331
v -0.01525160 -0.02310399 0.00581146
v -0.01540433 -0.02251032 0.00640961
v -0.01545523 -0.02166904 0.00607591
v -0.01538978 -0.02080390 0.00497406
v -0.01616068 0.00616479 0.00411147
v -0.01570614 0.00154968 0.00104519
v -0.01552432 -0.02022216 0.00556591
v -0.01566251 -0.01857242 0.00569183
v -0.01584068 -0.01392748 0.00414295
v -0.01795339 0.00616479 0.01961287
v -0.01548796 0.00309800 -0.00003777
v -0.01525887 0.00309800 -0.00081221
v -0.01415343 0.00616479 -0.00212813
v -0.01411343 0.00616479 -0.00223516
v -0.01542978 0.00396314 0.00015112
v -0.01549887 0.00616479 0.00156148
v -0.01360434 0.00616479 -0.00348812
v 0.00085369 0.00257294 0.04209683
v -0.00069175 0.00154968 0.04222905
v 0.00085369 0.00154968 0.04214091
v 0.00240276 0.00616479 0.04156795
v 0.00085369 0.00616479 0.04168128
v 0.00085369 0.00045781 0.04210313
v -0.00069175 -0.00056843 0.04203387
v 0.00243549 -0.02431221 0.03402503
v -0.01521524 -0.02431221 0.00723442
v -0.01526615 -0.02431221 0.00878330
v -0.01551705 -0.02166904 0.00723442
v -0.01565523 -0.02012073 0.00723442
v -0.01584432 0.00616479 0.00256259
v -0.01575341 -0.01702410 0.00569183
v -0.01759339 0.00309800 0.02271064
v -0.01789157 0.00616479 0.02116176
v -0.01551705 -0.02166904 0.00878330
v -0.01541887 -0.02267142 0.00960811
v -0.00069175 0.00292795 0.04214720
v -0.00223719 0.00277282 0.04212202
v -0.00223719 0.00154968 0.04216609
v -0.00223719 0.00049361 0.04210313
v -0.00069175 0.00020722 0.04214091
v -0.00069175 0.00616479 0.04174425
v -0.00223719 -0.00028204 0.04193313
v 0.00136641 -0.02431221 0.03360317
v -0.00363354 0.00015352 0.04166239
v -0.00543352 -0.00010603 0.04093203
v -0.00601170 -0.00069075 0.04047869
v -0.01518615 -0.02431221 0.00919885
v -0.01740794 0.00616479 0.02887468
v -0.01746976 0.00309800 0.02425952
v -0.01758612 0.00616479 0.02732580
v -0.00223719 0.00464631 0.04192684
v -0.00223719 0.00616479 0.04176313
v -0.00381899 0.00616479 0.04166869
v -0.00533534 0.00616479 0.04155535
v -0.00303718 0.00242975 0.04207165
v -0.00303355 0.00154968 0.04207165
v -0.00301536 0.00077105 0.04206535
v 0.00085369 -0.02431221 0.03339540
v -0.00646260 0.00033848 0.04069907
v -0.00773532 -0.00243595 0.03901166
v -0.01493160 -0.02431221 0.01028811
v -0.01708794 0.00616479 0.03041097
v -0.01711704 0.00616479 0.03028504
v -0.00688442 0.00616479 0.04126573
v -0.00688442 0.00464631 0.04122795
v -0.00688442 0.00309800 0.04107684
v -0.00533534 0.00154968 0.04137276
v -0.00693896 0.00158250 0.04080610
v 0.00015915 -0.02431221 0.03306169
v -0.00749532 0.00109026 0.04042202
v -0.00801895 -0.00154694 0.03918166
v -0.00909894 -0.00053860 0.03889203
v -0.00879349 -0.00154694 0.03864018
v -0.00840804 -0.00303559 0.03818685
v -0.00628442 -0.02431221 0.02873616
v -0.00555716 -0.02431221 0.02928394
v -0.00533170 -0.02431221 0.02944764
v -0.00375718 -0.02431221 0.03056837
v -0.00292082 -0.02431221 0.03116022
v -0.00218265 -0.02431221 0.03166392
v -0.00092811 -0.02431221 0.03245725
v -0.00015358 -0.02431221 0.03290429
v -0.01284072 -0.02431221 0.01807029
v -0.01251345 -0.02431221 0.01926028
v -0.01684431 0.00572625 0.03080763
v -0.01659340 0.00616479 0.03180244
v -0.00690987 0.00616479 0.04125943
v -0.00817531 0.00464631 0.04075573
v -0.00794622 0.00309800 0.04066758
v -0.00774259 0.00212247 0.04057314
v -0.00931348 0.00049361 0.03904315
v -0.01058619 0.00309800 0.03882278
v -0.01029165 0.00154968 0.03853944
v -0.00998256 -0.00001056 0.03821833
v -0.01064801 -0.00051473 0.03729279
v -0.00962257 -0.00154694 0.03787204
v -0.00934984 -0.00260302 0.03758241
v -0.00908439 -0.00363522 0.03729279
v -0.00654987 -0.02431221 0.02850950
v -0.01239345 -0.02431221 0.01948695
v -0.01387707 0.00225672 0.03437132
v -0.01536069 0.00397508 0.03270910
v -0.01653522 0.00616479 0.03194096
v -0.00826622 0.00616479 0.04076202
v -0.00902257 0.00616479 0.04042202
v -0.00894985 0.00464631 0.04036536
v -0.00872076 0.00309800 0.04018907
v -0.00981166 0.00309800 0.03941462
v -0.01073892 0.00402878 0.03895500
v -0.01134982 0.00309800 0.03804834
v -0.01105892 0.00154968 0.03776500
v -0.01085528 0.00051748 0.03754464
v -0.01105528 -0.00154694 0.03624131
v -0.01083710 -0.00251948 0.03597057
v -0.01039711 -0.00154694 0.03701575
v -0.01247708 0.00154968 0.03608390
v -0.01231345 0.00074420 0.03588872
v -0.00997893 -0.00307736 0.03663167
v -0.00709532 -0.02431221 0.02796172
v -0.01209891 -0.02431221 0.02003472
v -0.01326253 0.00166305 0.03496946
v -0.01352798 0.00309800 0.03537872
v -0.01401889 0.00309800 0.03460428
v -0.01525887 0.00580382 0.03406910
v -0.01561523 0.00616479 0.03367243
v -0.01570614 0.00616479 0.03350873
v -0.00958621 -0.02431221 0.02429100
v -0.00998256 0.00616479 0.03971684
v -0.01012438 0.00458366 0.03947759
v -0.01085165 0.00616479 0.03903685
v -0.01162618 0.00616479 0.03840723
v -0.01164800 0.00616479 0.03838833
v -0.01252072 0.00616479 0.03762019
v -0.01238981 0.00502518 0.03751945
v -0.01227345 0.00399298 0.03738723
v -0.01212436 0.00309800 0.03720464
v -0.01183345 0.00154968 0.03685834
v -0.00773895 -0.02431221 0.02714950
v -0.00732077 -0.02431221 0.02769728
v -0.01275708 0.00309800 0.03643020
v -0.00846258 -0.02431221 0.02606655
v -0.01371707 0.00429727 0.03568094
v -0.01475706 0.00616479 0.03499465
v -0.01490251 0.00616479 0.03477428
v -0.01327708 0.00616479 0.03678279
v -0.01397525 0.00616479 0.03600835
v -0.01387707 0.00532948 0.03590131
f 1 2 3
f 1 3 4
f 1 4 5
f 1 5 6
f 1 6 7
f 1 7 18
f 1 18 17
f 1 17 16
f 1 16 27
f 1 27 33
f 1 33 44
f 1 44 43
f 1 43 42
f 1 42 41
f 1 41 56
f 1 56 73
f 1 73 87
f 1 87 108
f 1 108 107
f 1 107 104
f 1 104 103
f 1 103 102
f 1 102 127
f 1 127 126
f 1 126 142
f 1 142 170
f 1 170 169
f 1 169 168
f 1 168 167
f 1 167 161
f 1 161 166
f 1 166 165
f 1 165 164
f 1 164 183
f 1 183 204
f 1 204 216
f 1 216 234
f 1 234 264
f 1 264 238
f 1 238 237
f 1 237 268
f 1 268 284
f 1 284 310
f 1 310 307
f 1 307 306
f 1 306 309
f 1 309 323
f 1 323 298
f 1 298 303
f 1 303 326
f 1 326 343
f 1 343 341
f 1 341 356
f 1 356 355
f 1 355 379
f 1 379 396
f 1 396 419
f 1 419 418
f 1 418 437
f 1 437 436
f 1 436 439
f 1 439 438
f 1 438 426
f 1 426 425
f 1 425 424
f 1 424 423
f 1 423 421
f 1 421 398
f 1 398 397
f 1 397 380
f 1 380 357
f 1 357 347
f 1 347 346
f 1 346 345
f 1 345 334
f 1 334 315
f 1 315 314
f 1 314 289
f 1 289 288
f 1 288 272
f 1 272 269
f 1 269 246
f 1 246 245
f 1 245 244
f 1 244 243
f 1 243 241
f 1 241 221
f 1 221 206
f 1 206 185
f 1 185 173
f 1 173 172
f 1 172 144
f 1 144 131
f 1 131 130
f 1 130 128
f 1 128 110
f 1 110 89
f 1 89 88
f 1 88 74
f 1 74 62
f 1 62 50
f 1 50 36
f 1 36 29
f 1 29 23
f 1 23 8
f 1 8 2
f 2 8 9
f 2 9 10
f 2 10 11
f 2 11 3
f 3 12 4
f 3 11 13
f 3 13 24
f 3 24 30
f 3 30 38
f 3 38 37
f 3 37 49
f 3 49 48
f 3 48 63
f 3 63 77
f 3 77 76
f 3 76 75
f 3 75 90
f 3 90 111
f 3 111 129
f 3 129 143
f 3 143 171
f 3 171 184
f 3 184 187
f 3 187 186
f 3 186 207
f 3 207 224
f 3 224 240
f 3 240 254
f 3 254 253
f 3 253 252
f 3 252 251
f 3 251 274
f 3 274 273
f 3 273 291
f 3 291 318
f 3 318 336
f 3 336 351
f 3 351 362
f 3 362 375
f 3 375 374
f 3 374 373
f 3 373 372
f 3 372 371
f 3 371 370
f 3 370 369
f 3 369 368
f 3 368 392
f 3 392 412
f 3 412 432
f 3 432 431
f 3 431 434
f 3 434 420
f 3 420 413
f 3 413 393
f 3 393 377
f 3 377 376
f 3 376 354
f 3 354 340
f 3 340 320
f 3 320 319
f 3 319 293
f 3 293 292
f 3 292 276
f 3 276 275
f 3 275 259
f 3 259 258
f 3 258 257
f 3 257 256
f 3 256 255
f 3 255 226
f 3 226 225
f 3 225 210
f 3 210 209
f 3 209 200
f 3 200 199
f 3 199 198
f 3 198 197
f 3 197 196
f 3 196 193
f 3 193 192
f 3 192 191
f 3 191 190
f 3 190 188
f 3 188 175
f 3 175 174
f 3 174 159
f 3 159 158
f 3 158 157
f 3 157 156
f 3 156 155
f 3 155 135
f 3 135 122
f 3 122 121
f 3 121 120
f 3 120 119
f 3 119 118
f 3 118 115
f 3 115 114
f 3 114 113
f 3 113 106
f 3 106 105
f 3 105 112
f 3 112 92
f 3 92 91
f 3 91 78
f 3 78 64
f 3 64 60
f 3 60 59
f 3 59 58
f 3 58 57
f 3 57 45
f 3 45 34
f 3 34 28
f 3 28 22
f 3 22 21
f 3 21 20
f 3 20 19
f 3 19 26
f 3 26 25
f 3 25 12
f 4 12 5
f 5 12 14
f 5 14 15
f 5 15 6
f 6 16 17
f 6 17 18
f 6 18 7
f 6 15 19
f 6 19 20
f 6 20 21
f 6 21 22
f 6 22 16
f 8 23 9
f 9 24 10
f 9 23 24
f 10 24 11
f 11 24 13
f 12 25 14
f 14 25 26
f 14 26 15
f 15 26 19
f 16 22 27
f 22 28 27
f 23 29 24
f 24 29 30
f 27 28 31
f 27 31 32
f 27 32 33
f 28 34 35
f 28 35 32
f 28 32 31
f 29 36 37
f 29 37 38
f 29 38 30
f 32 35 39
f 32 39 40
f 32 40 41
f 32 41 42
f 32 42 43
f 32 43 44
f 32 44 33
f 34 45 35
f 35 46 47
f 35 47 39
f 35 45 46
f 36 48 49
f 36 49 37
f 36 50 48
f 39 51 52
f 39 52 53
f 39 53 54
f 39 54 40
f 39 47 51
f 40 54 55
f 40 55 56
f 40 56 41
f 45 57 46
f 46 58 59
f 46 59 60
f 46 60 61
f 46 61 51
f 46 51 47
f 46 57 58
f 48 50 62
f 48 62 63
f 51 61 64
f 51 64 65
f 51 65 66
f 51 66 52
f 52 66 67
f 52 67 53
f 53 67 68
f 53 68 54
f 54 68 69
f 54 69 70
f 54 70 71
f 54 71 72
f 54 72 73
f 54 73 56
f 54 56 55
f 60 64 61
f 62 74 75
f 62 75 76
f 62 76 77
f 62 77 63
f 64 78 65
f 65 78 91
f 65 91 79
f 65 79 66
f 66 79 80
f 66 80 67
f 67 80 81
f 67 81 82
f 67 82 68
f 68 82 69
f 69 82 83
f 69 83 70
f 70 83 71
f 71 84 85
f 71 85 86
f 71 86 72
f 71 83 84
f 72 86 73
f 73 86 85
f 73 85 87
f 74 88 75
f 75 88 89
f 75 89 90
f 79 91 92
f 79 92 93
f 79 93 80
f 80 93 94
f 80 94 81
f 81 94 95
f 81 95 83
f 81 83 82
f 83 96 97
f 83 97 98
f 83 98 99
f 83 99 100
f 83 100 101
f 83 101 102
f 83 102 103
f 83 103 104
f 83 104 84
f 83 95 94
f 83 94 105
f 83 105 106
f 83 106 96
f 84 104 107
f 84 107 108
f 84 108 109
f 84 109 85
f 85 109 87
f 87 109 108
f 89 110 111
f 89 111 90
f 92 112 93
f 93 112 105
f 93 105 94
f 96 106 113
f 96 113 114
f 96 114 115
f 96 115 97
f 97 116 117
f 97 117 98
f 97 115 118
f 97 118 119
f 97 119 120
f 97 120 121
f 97 121 122
f 97 122 116
f 98 117 99
f 99 117 100
f 100 123 124
f 100 124 101
f 100 117 123
f 101 124 125
f 101 125 126
f 101 126 127
f 101 127 102
f 110 128 111
f 111 128 130
f 111 130 131
f 111 131 129
f 116 132 133
f 116 133 117
f 116 122 134
f 116 134 132
f 117 133 123
f 122 135 134
f 123 136 124
f 123 133 137
f 123 137 138
f 123 138 136
f 124 136 139
f 124 139 140
f 124 140 125
f 125 140 126
f 126 141 142
f 126 140 141
f 129 131 144
f 129 144 143
f 132 134 145
f 132 145 146
f 132 146 147
f 132 147 148
f 132 148 149
f 132 149 133
f 133 150 151
f 133 151 152
f 133 152 153
f 133 153 137
f 133 149 154
f 133 154 150
f 134 135 155
f 134 155 156
f 134 156 157
f 134 157 158
f 134 158 159
f 134 159 145
f 136 138 160
f 136 160 161
f 136 161 162
f 136 162 139
f 137 153 163
f 137 163 138
f 138 163 164
f 138 164 165
f 138 165 166
f 138 166 161
f 138 161 160
f 139 162 167
f 139 167 168
f 139 168 169
f 139 169 170
f 139 170 142
f 139 142 141
f 139 141 140
f 143 144 172
f 143 172 173
f 143 173 171
f 145 159 174
f 145 174 175
f 145 175 176
f 145 176 146
f 146 176 147
f 147 177 148
f 147 176 177
f 148 178 154
f 148 154 149
f 148 177 178
f 150 179 180
f 150 180 151
f 150 154 179
f 151 180 152
f 152 180 153
f 153 180 181
f 153 181 163
f 154 178 182
f 154 182 179
f 161 167 162
f 163 181 183
f 163 183 164
f 171 173 184
f 173 185 186
f 173 186 187
f 173 187 184
f 175 188 176
f 176 189 177
f 176 188 190
f 176 190 191
f 176 191 192
f 176 192 189
f 177 189 193
f 177 193 178
f 178 194 195
f 178 195 182
f 178 193 196
f 178 196 197
f 178 197 198
f 178 198 199
f 178 199 200
f 178 200 194
f 179 201 202
f 179 202 180
f 179 182 201
f 180 202 181
f 181 202 203
f 181 203 204
f 181 204 183
f 182 195 205
f 182 205 201
f 185 206 207
f 185 207 186
f 189 192 193
f 194 208 195
f 194 200 209
f 194 209 210
f 194 210 208
f 195 208 211
f 195 211 212
f 195 212 205
f 201 205 213
f 201 213 214
f 201 214 202
f 202 214 203
f 203 214 215
f 203 215 216
f 203 216 204
f 205 217 218
f 205 218 219
f 205 219 213
f 205 212 217
f 206 220 207
f 206 221 222
f 206 222 223
f 206 223 220
f 207 220 224
f 208 210 211
f 210 225 212
f 210 212 211
f 212 225 226
f 212 226 227
f 212 227 228
f 212 228 229
f 212 229 217
f 213 215 214
f 213 219 215
f 215 219 230
f 215 230 231
f 215 231 216
f 216 231 232
f 216 232 233
f 216 233 234
f 217 235 218
f 217 229 236
f 217 236 235
f 218 235 219
f 219 235 237
f 219 237 238
f 219 238 239
f 219 239 230
f 220 223 240
f 220 240 224
f 221 241 222
f 222 242 223
f 222 241 243
f 222 243 244
f 222 244 245
f 222 245 246
f 222 246 247
f 222 247 248
f 222 248 249
f 222 249 250
f 222 250 251
f 222 251 252
f 222 252 253
f 222 253 254
f 222 254 240
f 222 240 242
f 223 242 240
f 226 255 227
f 227 255 256
f 227 256 257
f 227 257 258
f 227 258 259
f 227 259 260
f 227 260 261
f 227 261 262
f 227 262 263
f 227 263 228
f 228 263 229
f 229 263 236
f 230 239 231
f 231 239 264
f 231 264 232
f 232 264 233
f 233 264 234
f 235 236 265
f 235 265 266
f 235 266 237
f 236 263 265
f 237 266 267
f 237 267 268
f 238 264 239
f 246 269 247
f 247 269 248
f 248 270 271
f 248 271 249
f 248 269 272
f 248 272 270
f 249 271 273
f 249 273 274
f 249 274 251
f 249 251 250
f 259 275 260
f 260 275 276
f 260 276 277
f 260 277 261
f 261 277 278
f 261 278 279
f 261 279 280
f 261 280 262
f 262 280 263
f 263 280 265
f 265 280 281
f 265 281 266
f 266 281 267
f 267 281 282
f 267 282 283
f 267 283 284
f 267 284 268
f 270 285 286
f 270 286 287
f 270 287 271
f 270 272 288
f 270 288 289
f 270 289 285
f 271 287 290
f 271 290 291
f 271 291 273
f 276 292 277
f 277 292 293
f 277 293 294
f 277 294 295
f 277 295 296
f 277 296 297
f 277 297 278
f 278 298 299
f 278 299 279
f 278 297 296
f 278 296 300
f 278 300 301
f 278 301 302
f 278 302 303
f 278 303 298
f 279 299 298
f 279 298 304
f 279 304 305
f 279 305 280
f 280 305 281
f 281 305 282
f 282 306 307
f 282 307 283
f 282 305 308
f 282 308 309
f 282 309 306
f 283 307 310
f 283 310 284
f 285 311 312
f 285 312 313
f 285 313 286
f 285 289 314
f 285 314 315
f 285 315 311
f 286 313 287
f 287 313 312
f 287 312 316
f 287 316 290
f 290 316 317
f 290 317 291
f 291 317 318
f 293 319 295
f 293 295 294
f 295 319 320
f 295 320 321
f 295 321 322
f 295 322 296
f 296 322 301
f 296 301 300
f 298 323 304
f 301 322 303
f 301 303 324
f 301 324 302
f 302 324 303
f 303 325 326
f 303 322 327
f 303 327 328
f 303 328 325
f 304 323 308
f 304 308 305
f 308 323 309
f 311 329 312
f 311 315 329
f 312 329 330
f 312 330 331
f 312 331 332
f 312 332 333
f 312 333 316
f 315 334 329
f 316 333 317
f 317 333 332
f 317 332 335
f 317 335 318
f 318 335 337
f 318 337 338
f 318 338 339
f 318 339 336
f 320 340 341
f 320 341 328
f 320 328 327
f 320 327 321
f 321 327 322
f 325 342 343
f 325 343 326
f 325 328 342
f 328 341 343
f 328 343 342
f 329 344 330
f 329 334 345
f 329 345 344
f 330 344 346
f 330 346 347
f 330 347 348
f 330 348 331
f 331 348 349
f 331 349 350
f 331 350 332
f 332 350 335
f 335 350 337
f 336 339 351
f 337 350 352
f 337 352 338
f 338 352 339
f 339 352 353
f 339 353 351
f 340 354 355
f 340 355 356
f 340 356 341
f 344 345 346
f 347 357 348
f 348 357 349
f 349 357 350
f 350 357 358
f 350 358 359
f 350 359 360
f 350 360 361
f 350 361 352
f 351 353 362
f 352 361 363
f 352 363 353
f 353 363 364
f 353 364 365
f 353 365 366
f 353 366 367
f 353 367 368
f 353 368 369
f 353 369 370
f 353 370 371
f 353 371 372
f 353 372 373
f 353 373 374
f 353 374 375
f 353 375 362
f 354 376 355
f 355 376 377
f 355 377 378
f 355 378 379
f 357 380 358
f 358 380 381
f 358 381 359
f 359 361 360
f 359 381 382
f 359 382 361
f 361 382 383
f 361 383 363
f 363 365 364
f 363 383 365
f 365 384 385
f 365 385 386
f 365 386 387
f 365 387 388
f 365 388 389
f 365 389 390
f 365 390 391
f 365 391 366
f 365 383 384
f 366 391 367
f 367 391 368
f 368 391 392
f 377 393 394
f 377 394 395
f 377 395 396
f 377 396 379
f 377 379 378
f 380 397 381
f 381 397 398
f 381 398 399
f 381 399 382
f 382 399 400
f 382 400 383
f 383 400 384
f 384 400 401
f 384 401 385
f 385 401 402
f 385 402 403
f 385 403 404
f 385 404 386
f 386 404 387
f 387 404 405
f 387 405 388
f 388 406 407
f 388 407 408
f 388 408 389
f 388 405 409
f 388 409 410
f 388 410 406
f 389 408 411
f 389 411 390
f 390 411 412
f 390 412 391
f 391 412 392
f 393 413 394
f 394 414 415
f 394 415 416
f 394 416 417
f 394 417 418
f 394 418 419
f 394 419 395
f 394 413 420
f 394 420 414
f 395 419 396
f 398 421 399
f 399 421 422
f 399 422 402
f 399 402 401
f 399 401 400
f 402 422 421
f 402 421 423
f 402 423 424
f 402 424 425
f 402 425 426
f 402 426 427
f 402 427 428
f 402 428 403
f 403 428 429
f 403 429 404
f 404 429 430
f 404 430 405
f 405 430 409
f 406 410 407
f 407 411 408
f 407 410 431
f 407 431 432
f 407 432 412
f 407 412 411
f 409 430 429
f 409 429 433
f 409 433 415
f 409 415 410
f 410 415 414
f 410 414 420
f 410 420 434
f 410 434 431
f 415 433 435
f 415 435 417
f 415 417 416
f 417 435 436
f 417 436 437
f 417 437 418
f 426 438 427
f 427 438 439
f 427 439 428
f 428 433 429
f 428 439 440
f 428 440 433
f 433 440 435
f 435 440 436
f 436 440 439

