# https://github.com/mikedh/trimesh
v -0.02318460 0.04454835 -0.04788061
v -0.02283302 0.04499714 -0.04843725
v -0.02292401 0.04334601 -0.04867667
v -0.02318046 0.04334601 -0.04790157
v -0.02318460 0.04454835 -0.04735690
v -0.02282888 0.05108638 -0.04539969
v -0.02237389 0.05263779 -0.04694691
v -0.02184032 0.05263779 -0.04806616
v -0.02215054 0.04334601 -0.04974804
v -0.02293229 0.04189988 -0.04838937
v -0.02171623 0.03716257 -0.05098402
v -0.02167487 0.03561118 -0.05094511
v -0.02318046 0.04334601 -0.04732996
v -0.02315151 0.04248166 -0.04780281
v -0.02184446 0.03870844 -0.02350830
v -0.02183205 0.04024875 -0.02350830
v -0.02182791 0.04047592 -0.02350830
v -0.02180310 0.04180015 -0.02350830
v -0.02111648 0.05108638 -0.02350830
v -0.02263448 0.05263779 -0.04539969
v -0.02174105 0.04334601 -0.02350830
v -0.02173278 0.04350115 -0.02350830
v -0.02164178 0.04489741 -0.02350830
v -0.02153424 0.04642665 -0.02350830
v -0.02138947 0.04821630 -0.02350830
v -0.02226222 0.05418364 -0.04539969
v -0.02191891 0.05418364 -0.04694391
v -0.02172451 0.05367390 -0.04788959
v -0.02121989 0.05263779 -0.04884126
v -0.02044641 0.05263779 -0.04961936
v -0.02056223 0.05108638 -0.04979892
v -0.02017756 0.03716257 -0.05249831
v -0.02095517 0.03716257 -0.05175912
v -0.02027683 0.03561118 -0.05257612
v -0.02105030 0.03561118 -0.05172022
v -0.02007829 0.03317881 -0.05239357
v -0.02159629 0.03482440 -0.05082840
v -0.02315151 0.04248166 -0.04756639
v -0.02184446 0.03561118 -0.05004432
v -0.02249385 0.03870844 -0.04849711
v -0.02262620 0.03870844 -0.04694691
v -0.02267998 0.03870844 -0.04539969
v -0.02173692 0.03716257 -0.02350830
v -0.02218363 0.05418364 -0.04385248
v -0.02057050 0.05264886 -0.02350830
v -0.02008656 0.05968003 -0.03527548
v -0.02038023 0.05882676 -0.03611343
v -0.02177828 0.05577937 -0.04393627
v -0.02160869 0.05653291 -0.04450788
v -0.02160869 0.05653291 -0.04466649
v -0.02177828 0.05567410 -0.04527101
v -0.02169969 0.05512556 -0.04642318
v -0.02144324 0.05470447 -0.04745566
v -0.02013206 0.05664372 -0.04783872
v -0.02038851 0.05572950 -0.04811105
v -0.02083108 0.05421689 -0.04852404
v -0.02021892 0.05372376 -0.04940089
v -0.01916418 0.05254359 -0.05039147
v -0.01952817 0.05108638 -0.05057103
v -0.01926759 0.03716257 -0.05298312
v -0.01926759 0.03561118 -0.05314473
v -0.01926759 0.03406532 -0.05298911
v -0.02016929 0.03406532 -0.05246838
v -0.01929241 0.03260257 -0.05265093
v -0.01879192 0.03130605 -0.05250729
v -0.01982184 0.03214823 -0.05219007
v -0.02039264 0.03260257 -0.05163941
v -0.02172451 0.03434790 -0.04849711
v -0.02023960 0.03141132 -0.05115759
v -0.02100480 0.03251392 -0.05004432
v -0.02086417 0.03096806 -0.04849711
v -0.02114544 0.03096806 -0.04694691
v -0.02236976 0.03716257 -0.04075507
v -0.02174519 0.03716257 -0.02372976
v -0.02177828 0.03394343 -0.04702770
v -0.02198923 0.03561118 -0.04849711
v -0.02224567 0.03716257 -0.04849711
v -0.02212159 0.03561118 -0.04694691
v -0.02218777 0.03561118 -0.04539969
v -0.02244008 0.03716257 -0.04539969
v -0.02203059 0.03406532 -0.04230228
v -0.02201818 0.03406532 -0.04075507
v -0.02220017 0.03561118 -0.04075507
v -0.02196027 0.03406532 -0.03920786
v -0.02155079 0.03207620 -0.03456622
v -0.02097171 0.03096806 -0.02350830
v -0.02045055 0.05284279 -0.02350830
v -0.01276130 0.06165806 -0.02350830
v -0.01222773 0.06417908 -0.02775191
v -0.01870506 0.06139210 -0.03642467
v -0.01879192 0.06153617 -0.03766364
v -0.02013206 0.05975760 -0.03611343
v -0.02007829 0.05344119 -0.02350830
v -0.02015688 0.05977422 -0.03766364
v -0.02012792 0.05972989 -0.03920786
v -0.02009070 0.05968557 -0.04075507
v -0.02006588 0.05964678 -0.04164389
v -0.01881260 0.06155833 -0.04230228
v -0.01862234 0.06130346 -0.04385248
v -0.01850239 0.06116494 -0.04464554
v -0.01923863 0.05720887 -0.04818287
v -0.01932136 0.05583478 -0.04894002
v -0.01987148 0.05475987 -0.04915849
v -0.01861820 0.05976868 -0.04639625
v -0.01822526 0.05935313 -0.04742872
v -0.01870093 0.05832255 -0.04789558
v -0.01932136 0.05421689 -0.04967323
v -0.01858098 0.05197290 -0.05085533
v -0.01769582 0.05420026 -0.05047227
v -0.01716225 0.05369606 -0.05092117
v -0.01875470 0.05108638 -0.05092716
v -0.01772064 0.03716257 -0.05342305
v -0.01772064 0.05108638 -0.05132219
v -0.01772064 0.03561118 -0.05357567
v -0.01772064 0.03406532 -0.05355173
v -0.01772064 0.03251392 -0.05330334
v -0.01843621 0.03027547 -0.05233072
v -0.01784059 0.03086279 -0.05278860
v -0.01703403 0.02853569 -0.05240853
v -0.01935445 0.03084616 -0.05174416
v -0.02163765 0.03307353 -0.04656684
v -0.01882088 0.02942220 -0.05123840
v -0.01853548 0.02858002 -0.05090022
v -0.01991698 0.03038075 -0.05052015
v -0.02013620 0.03005384 -0.04949067
v -0.02040505 0.03092374 -0.05002038
v -0.02032233 0.02972694 -0.04849711
v -0.02048778 0.02928369 -0.04706960
v -0.02078972 0.02942220 -0.04539969
v -0.02126125 0.03096806 -0.04539969
v -0.02151356 0.03209283 -0.04539969
v -0.02168315 0.03286853 -0.04539969
v -0.02191891 0.03406532 -0.04539969
v -0.02198095 0.03406532 -0.04385248
v -0.02176173 0.03254716 -0.04230228
v -0.02175760 0.03253054 -0.04075507
v -0.02156733 0.03190444 -0.03611343
v -0.02076490 0.02942220 -0.02350830
v -0.02116198 0.03096806 -0.02837438
v -0.01197128 0.06232295 -0.02350830
v -0.01119367 0.06451153 -0.02716535
v -0.01163625 0.06462788 -0.02831154
v -0.01241800 0.06435085 -0.02878438
v -0.01179756 0.06242822 -0.02350830
v -0.01714570 0.06281607 -0.03674189
v -0.01804740 0.06231187 -0.03766364
v -0.01809290 0.06238944 -0.03920786
v -0.01814667 0.06245038 -0.04075507
v -0.01886224 0.06167468 -0.04075507
v -0.01963571 0.06045573 -0.04075507
v -0.01807222 0.06233403 -0.04230228
v -0.01706712 0.06281053 -0.04482510
v -0.01843207 0.05642209 -0.04923331
v -0.01674449 0.06241714 -0.04585757
v -0.01571043 0.06298783 -0.04659975
v -0.01530922 0.06256120 -0.04763222
v -0.01783645 0.05583478 -0.04977498
v -0.01769582 0.05254359 -0.05104985
v -0.01671967 0.05473217 -0.05073563
v -0.01616955 0.05263779 -0.05151372
v -0.01619024 0.05420026 -0.05109774
v -0.01616955 0.03716257 -0.05354874
v -0.01616955 0.03561118 -0.05370735
v -0.01462261 0.05263779 -0.05175313
v -0.01307566 0.05263779 -0.05189678
v -0.01616955 0.03406532 -0.05377019
v -0.01514377 0.03251392 -0.05388391
v -0.01415108 0.03096806 -0.05397070
v -0.01616955 0.03251392 -0.05371034
v -0.01492869 0.03096806 -0.05378815
v -0.01389463 0.03015358 -0.05392881
v -0.01616955 0.03096806 -0.05343501
v -0.01813013 0.02942220 -0.05201350
v -0.01607029 0.02795946 -0.05253123
v -0.01549121 0.02705078 -0.05239955
v -0.01652113 0.02750512 -0.05212422
v -0.01714984 0.02682361 -0.05109176
v -0.01616955 0.02942220 -0.05298013
v -0.01819217 0.02753836 -0.05004432
v -0.01865543 0.02691780 -0.04805120
v -0.01973498 0.02785418 -0.04706960
v -0.02002452 0.02867421 -0.04766515
v -0.02016929 0.02835839 -0.04663267
v -0.02026442 0.02819217 -0.04539969
v -0.02033474 0.02809243 -0.04385248
v -0.02090140 0.02942220 -0.04385248
v -0.02134811 0.03096806 -0.04385248
v -0.02172865 0.03266906 -0.04385248
v -0.02158388 0.03177700 -0.04230228
v -0.02158388 0.03176039 -0.04075507
v -0.02158388 0.03177700 -0.03920786
v -0.02157560 0.03183241 -0.03766364
v -0.02076904 0.02942220 -0.02372976
v -0.02037196 0.02787080 -0.02350830
v -0.00955986 0.06451153 -0.02527697
v -0.00843067 0.06509885 -0.02527697
v -0.01008930 0.06486613 -0.02671944
v -0.00841413 0.06561967 -0.02676433
v -0.01159075 0.06254458 -0.02350830
v -0.00997762 0.06528168 -0.02837438
v -0.01248831 0.06591333 -0.04075507
v -0.01727393 0.06287702 -0.03766364
v -0.01729874 0.06293242 -0.04230228
v -0.01715811 0.06288810 -0.04385248
v -0.01253795 0.06594657 -0.04230228
v -0.01616955 0.06354744 -0.04385248
v -0.01498659 0.06402949 -0.04539969
v -0.01620678 0.06320946 -0.04536378
v -0.01427516 0.06304878 -0.04795843
v -0.01739801 0.05693184 -0.04951162
v -0.01399804 0.06432314 -0.04637829
v -0.01465156 0.06353636 -0.04700376
v -0.01347687 0.06407935 -0.04741077
v -0.01619024 0.05574612 -0.05055607
v -0.01568975 0.05524192 -0.05091818
v -0.01462261 0.05418364 -0.05148379
v -0.01460606 0.05574612 -0.05104387
v -0.01462261 0.03561118 -0.05376121
v -0.01418417 0.03352233 -0.05394377
v -0.01437030 0.03251392 -0.05398267
v -0.01307566 0.05418364 -0.05169029
v 0.01014098 0.05263779 -0.05198357
v 0.01169207 0.05108638 -0.05218707
v 0.01014098 0.04024875 -0.05351582
v 0.01014098 0.03870844 -0.05370436
v 0.00754343 0.03648661 -0.05392881
v -0.01307566 0.03096806 -0.05405749
v -0.01307566 0.03000952 -0.05396771
v -0.01307566 0.02923382 -0.05372531
v -0.01307566 0.02787080 -0.05324947
v -0.01462261 0.02787080 -0.05294422
v -0.01449438 0.02954964 -0.05354575
v -0.01462261 0.02684023 -0.05252524
v -0.01307566 0.02575979 -0.05218109
v -0.01477565 0.02596480 -0.05162145
v -0.01607029 0.02659644 -0.05160350
v -0.01741456 0.02650779 -0.05004432
v -0.01539194 0.02555479 -0.05081344
v -0.01515204 0.02411420 -0.04905075
v -0.01694303 0.02554924 -0.04926323
v -0.01863475 0.02536640 -0.04495379
v -0.01889946 0.02665739 -0.04694691
v -0.01986321 0.02741646 -0.04539969
v -0.01857270 0.02390366 -0.04039894
v -0.01913109 0.02477355 -0.03920786
v -0.02039264 0.02797054 -0.04230228
v -0.02097999 0.02942220 -0.04230228
v -0.02139361 0.03096806 -0.04230228
v -0.02139361 0.03096806 -0.04075507
v -0.02138534 0.03096806 -0.03920786
v -0.02086417 0.02942220 -0.02992159
v -0.02099653 0.02942220 -0.03920786
v -0.02012379 0.02687348 -0.03146881
v -0.02007415 0.02700645 -0.02350830
v -0.00923724 0.06427328 -0.02445997
v -0.00809564 0.06439517 -0.02350830
v -0.01019684 0.06329811 -0.02350830
v -0.00710708 0.06483289 -0.02350830
v -0.00688373 0.06503790 -0.02372976
v -0.00690854 0.06562521 -0.02526201
v -0.00744212 0.06576373 -0.02621068
v -0.00788883 0.06585792 -0.02724315
v -0.01152871 0.06627348 -0.04075507
v -0.01152871 0.06633442 -0.04230228
v -0.01237663 0.06584130 -0.04325694
v -0.01244282 0.06430098 -0.04776690
v -0.01300534 0.06352528 -0.04809609
v -0.01307566 0.06189077 -0.04893404
v -0.01420485 0.05991828 -0.04943680
v -0.01468051 0.05889879 -0.04972710
v -0.01626469 0.05738063 -0.04980191
v -0.01175206 0.06556980 -0.04539969
v -0.01075524 0.06579698 -0.04617479
v -0.01300534 0.06451153 -0.04691698
v -0.01460606 0.05722549 -0.05050519
v -0.01510654 0.05627249 -0.05073563
v -0.01407662 0.05667142 -0.05088227
v -0.01295157 0.05722549 -0.05096307
v -0.01307566 0.05572950 -0.05134314
v -0.01235595 0.05808984 -0.05083439
v -0.01307566 0.03365531 -0.05396771
v -0.01307566 0.03251392 -0.05405749
v 0.00859403 0.05418364 -0.05172022
v 0.00394905 0.06192401 -0.05026577
v 0.01169207 0.05263779 -0.05195364
v 0.01323902 0.05108638 -0.05216313
v 0.01014098 0.05418364 -0.05170226
v 0.01407454 0.04893659 -0.05238459
v 0.01169207 0.04024875 -0.05346793
v 0.01169207 0.03870844 -0.05360560
v 0.01002103 0.03704622 -0.05383903
v 0.00942542 0.03645891 -0.05391983
v 0.00859403 0.03651431 -0.05392881
v 0.00859403 0.03561118 -0.05400063
v 0.00703468 0.03570537 -0.05398567
v 0.00549600 0.03138916 -0.05394377
v 0.00394905 0.02942220 -0.05380910
v -0.01197542 0.02998736 -0.05397370
v 0.00704708 0.03406532 -0.05407844
v 0.00240210 0.02787080 -0.05358764
v 0.00085515 0.02632494 -0.05315370
v -0.00069593 0.02632494 -0.05313275
v -0.01152871 0.02787080 -0.05331531
v -0.01307566 0.02653549 -0.05266291
v -0.00997762 0.02541627 -0.05245342
v -0.01109027 0.02547722 -0.05242050
v -0.01212019 0.02561020 -0.05232473
v -0.01197542 0.02408096 -0.05071767
v -0.01307566 0.02504504 -0.05140598
v -0.01435789 0.02531099 -0.05112767
v -0.01475497 0.02471260 -0.05011614
v -0.01411799 0.02389257 -0.04941586
v -0.01372091 0.02250740 -0.04759631
v -0.01555326 0.02387041 -0.04801828
v -0.01649632 0.02281768 -0.04385248
v -0.01733183 0.02359337 -0.04385248
v -0.01810944 0.02439678 -0.04385248
v -0.01835762 0.02417515 -0.04230228
v -0.01846930 0.02403109 -0.04143141
v -0.01875470 0.02517248 -0.04385248
v -0.01793159 0.02332188 -0.04085083
v -0.01703403 0.02235779 -0.04075507
v -0.01717466 0.02219157 -0.03920786
v -0.01657904 0.02126073 -0.03766364
v -0.01729874 0.02203089 -0.03766364
v -0.01740215 0.02191454 -0.03611343
v -0.01863061 0.02381500 -0.03920786
v -0.01865543 0.02375406 -0.03766364
v -0.01865956 0.02369865 -0.03611343
v -0.01915591 0.02477355 -0.03766364
v -0.01976807 0.02616981 -0.03920786
v -0.02007829 0.02701199 -0.04033609
v -0.02010724 0.02694551 -0.03920786
v -0.02036783 0.02773783 -0.04081193
v -0.02100480 0.02942220 -0.04075507
v -0.02048778 0.02787080 -0.03920786
v -0.02012792 0.02689010 -0.03301901
v -0.01982598 0.02609778 -0.03146881
v -0.01983425 0.02613656 -0.02992159
v -0.01979289 0.02623075 -0.02350830
v -0.00688373 0.06492708 -0.02350830
v -0.00535746 0.06545899 -0.02350830
v -0.00533678 0.06557534 -0.02376268
v -0.00585381 0.06575819 -0.02473530
v -0.00334312 0.06744811 -0.03183990
v -0.00383119 0.06753122 -0.03307288
v -0.00533678 0.06775285 -0.03920786
v -0.00771097 0.06735391 -0.04147630
v -0.01154939 0.06601860 -0.04380460
v -0.00771097 0.06735391 -0.04157207
v -0.00997762 0.06673336 -0.04230228
v -0.01152871 0.06438409 -0.04782076
v -0.01152871 0.06346987 -0.04838338
v -0.01152871 0.06230078 -0.04905973
v -0.00307013 0.06735945 -0.04619275
v -0.01255863 0.06134779 -0.04937097
v -0.01307566 0.06041140 -0.04961936
v -0.00378569 0.06788582 -0.04385248
v -0.00477011 0.06743148 -0.04484006
v -0.00366574 0.06754230 -0.04537276
v -0.01295157 0.05869378 -0.05040643
v -0.01338587 0.05770754 -0.05068475
v -0.01152871 0.06152508 -0.04944578
v 0.00275782 0.06437301 -0.04938294
v 0.00394905 0.06346987 -0.04984381
v 0.01169207 0.06037816 -0.04990067
v 0.01014098 0.05572950 -0.05132518
v 0.01323902 0.05263779 -0.05182196
v 0.01478596 0.05108638 -0.05177109
v 0.01536917 0.04683112 -0.05229780
v 0.01558012 0.04579501 -0.05238159
v 0.01478596 0.04334601 -0.05280955
v 0.01323902 0.04180015 -0.05316268
v 0.01323902 0.04024875 -0.05325845
v 0.01169207 0.03716257 -0.05357268
v 0.00950400 0.03406532 -0.05394976
v 0.00953296 0.03561118 -0.05394976
v 0.00859403 0.03406532 -0.05403056
v 0.00696436 0.03248622 -0.05398866
v 0.00549600 0.03061346 -0.05386297
v 0.00549600 0.02942220 -0.05370735
v 0.00394905 0.02787080 -0.05351582
v 0.00240210 0.02632494 -0.05312378
v 0.00240210 0.02500072 -0.05258809
v 0.00240210 0.02422502 -0.05226488
v -0.00069593 0.02506166 -0.05259108
v 0.00085515 0.02424718 -0.05224991
v -0.00069593 0.02428596 -0.05221700
v -0.00223874 0.02336066 -0.05140299
v -0.00378569 0.02346040 -0.05134613
v -0.00533678 0.02355459 -0.05127431
v -0.00688373 0.02365986 -0.05118153
v -0.00843067 0.02375960 -0.05108278
v -0.00997762 0.02387041 -0.05096606
v -0.01094550 0.02395352 -0.05087029
v -0.01153285 0.02477909 -0.05159751
v -0.01076351 0.02244645 -0.04927520
v -0.01307566 0.02426934 -0.05046628
v -0.01307566 0.02367649 -0.04969118
v -0.01179756 0.02264591 -0.04899688
v -0.01315425 0.02284538 -0.04848513
v -0.01406835 0.02228577 -0.04656384
v -0.01269099 0.02229685 -0.04796441
v -0.01212019 0.02096708 -0.04600421
v -0.01239318 0.01929378 -0.04166484
v -0.01547467 0.02240212 -0.04473233
v -0.01678585 0.02256834 -0.04260155
v -0.01572284 0.02225806 -0.04385248
v -0.01746006 0.02314458 -0.04217359
v -0.01695544 0.02244645 -0.04157207
v -0.01671967 0.02113884 -0.03611343
v -0.01580557 0.02057923 -0.03766364
v -0.01594620 0.02043517 -0.03611343
v -0.01747247 0.02184251 -0.03456622
v -0.01824594 0.02288416 -0.03456622
v -0.01827903 0.02286200 -0.03301901
v -0.01865956 0.02365986 -0.03456622
v -0.01923450 0.02477355 -0.03146881
v -0.02012379 0.02692334 -0.03766364
v -0.01924277 0.02477355 -0.02992159
v -0.01922209 0.02477355 -0.02350830
v -0.00470393 0.06565846 -0.02350830
v -0.00390564 0.06579143 -0.02350830
v -0.00482389 0.06582468 -0.02430435
v -0.00223874 0.06748135 -0.03165734
v -0.00223874 0.06768082 -0.03301901
v -0.00350029 0.06584130 -0.02350830
v -0.00378569 0.06767527 -0.03456622
v -0.00378569 0.06801880 -0.04075507
v -0.00533678 0.06781933 -0.04075507
v -0.00533678 0.06775285 -0.04230228
v -0.00997762 0.06447828 -0.04791054
v -0.00997762 0.06346987 -0.04855397
v -0.00208984 0.06759216 -0.04555531
v -0.00250760 0.06735945 -0.04619275
v 0.00138873 0.06586346 -0.04781179
v -0.00378569 0.06801326 -0.04230228
v -0.00223874 0.06797447 -0.04385248
v 0.00394905 0.06433977 -0.04935601
v 0.00188094 0.06586346 -0.04781179
v 0.00472253 0.06424557 -0.04926922
v 0.01169207 0.06151401 -0.04950564
v 0.01270131 0.06133670 -0.04941286
v 0.01493487 0.05278184 -0.05126832
v 0.01555117 0.05339686 -0.05081643
v 0.01574970 0.05236629 -0.05097205
v 0.01563803 0.04489741 -0.05243546
v 0.01589861 0.05108638 -0.05110672
v 0.01667209 0.05108638 -0.05046329
v 0.01752828 0.05108638 -0.04968819
v 0.01573730 0.04334601 -0.05252225
v 0.01478596 0.04180015 -0.05286042
v 0.01323902 0.03870844 -0.05318662
v 0.01169207 0.03561118 -0.05340509
v 0.01027748 0.03406532 -0.05371333
v 0.00938405 0.03325638 -0.05391983
v 0.00859403 0.03303475 -0.05396172
v 0.00704708 0.02942220 -0.05351881
v 0.00549600 0.02787080 -0.05334823
v 0.00394905 0.02632494 -0.05299809
v 0.00394905 0.02511707 -0.05253721
v 0.00394905 0.02434137 -0.05220503
v 0.00394905 0.02333850 -0.05143292
v 0.00234006 0.02308363 -0.05136109
v 0.00091720 0.02308363 -0.05134912
v -0.00069593 0.02328309 -0.05144190
v -0.00069593 0.02250740 -0.05076555
v -0.00223874 0.02258497 -0.05068475
v -0.00223874 0.02180373 -0.04991264
v -0.00223874 0.02102803 -0.04913156
v -0.00378569 0.02113330 -0.04900586
v -0.00688373 0.02213617 -0.04959542
v -0.00533678 0.02124411 -0.04886521
v -0.00688373 0.02136601 -0.04870660
v -0.00688373 0.02075099 -0.04793149
v -0.00800051 0.02084518 -0.04780580
v -0.00903043 0.02093383 -0.04767113
v -0.00997762 0.02105573 -0.04744967
v -0.01137980 0.02215279 -0.04848513
v -0.01157421 0.02126073 -0.04691399
v -0.01109027 0.02079532 -0.04637530
v -0.01032093 0.01948771 -0.04433430
v -0.01095377 0.01925500 -0.04330183
v -0.01149148 0.01906107 -0.04223045
v -0.01152871 0.01850146 -0.04075507
v -0.01262894 0.01911648 -0.04075507
v -0.01312529 0.01892810 -0.03915399
v -0.01392358 0.01929378 -0.03860334
v -0.01557807 0.02076761 -0.03920786
v -0.01678999 0.02107235 -0.03456622
v -0.01539608 0.01936027 -0.03067874
v -0.01545399 0.01930486 -0.02964627
v -0.01483355 0.01980353 -0.03766364
v -0.01499073 0.01965947 -0.03611343
v -0.01405181 0.01762603 -0.02527697
v -0.01684790 0.02101140 -0.03301901
v -0.01705884 0.02076761 -0.02682717
v -0.01750556 0.02178156 -0.03301901
v -0.01709193 0.02071221 -0.02527697
v -0.01829144 0.02285092 -0.03146881
v -0.01866370 0.02363216 -0.03301901
v -0.01710848 0.02066788 -0.02350830
v -0.01867611 0.02362108 -0.03146881
v -0.01869679 0.02361554 -0.02350830
v -0.00111783 0.06742594 -0.03186683
v -0.00256964 0.06583022 -0.02350830
v -0.00069593 0.06780825 -0.04230228
v -0.00223874 0.06802988 -0.04230228
v -0.00094410 0.06746472 -0.03301901
v -0.00069593 0.06757000 -0.04526203
v -0.00148181 0.06734283 -0.04617180
v -0.00069593 0.06781933 -0.04385248
v 0.00085515 0.06747027 -0.04497773
v 0.00085515 0.06716553 -0.04574983
v 0.00239797 0.06619037 -0.04702172
v 0.00291499 0.06572495 -0.04759033
v 0.01142321 0.06308756 -0.04808412
v 0.01245313 0.06268864 -0.04768011
v 0.01322661 0.06160265 -0.04840733
v 0.01406626 0.06120372 -0.04783273
v 0.01368987 0.06037816 -0.04887419
v 0.01734215 0.05231088 -0.04952359
v 0.01800395 0.05108638 -0.04849711
v 0.01817767 0.04954052 -0.04849711
v 0.01756551 0.04954052 -0.04971812
v 0.01716429 0.04334601 -0.05089125
v 0.01713948 0.04428793 -0.05086132
v 0.01651077 0.04334601 -0.05166635
v 0.01716843 0.04180015 -0.05089723
v 0.01646527 0.04180015 -0.05167233
v 0.01569180 0.04180015 -0.05248335
v 0.01483560 0.04035957 -0.05268086
v 0.01266822 0.03251392 -0.05249233
v 0.01169207 0.03251392 -0.05295319
v 0.01169207 0.03406532 -0.05318363
v 0.00999621 0.03265244 -0.05361457
v 0.01014098 0.03096806 -0.05326144
v 0.00859403 0.02942220 -0.05327341
v 0.00859403 0.03096806 -0.05359961
v 0.00704708 0.02787080 -0.05311779
v 0.00640597 0.02548830 -0.05239057
v 0.00549600 0.02632494 -0.05281254
v 0.00549600 0.02533870 -0.05244744
v 0.00549600 0.02456300 -0.05208233
v 0.00549600 0.02351026 -0.05131022
v 0.00394905 0.02256280 -0.05069672
v 0.00281159 0.02246861 -0.05079847
v 0.00178167 0.02244645 -0.05082541
v 0.00147559 0.02244645 -0.05082541
v 0.00044567 0.02246861 -0.05080146
v -0.00069593 0.02174278 -0.04999045
v -0.00069593 0.02096708 -0.04919440
v -0.00223874 0.02045179 -0.04835645
v -0.00378569 0.02052382 -0.04823375
v -0.00533678 0.02062910 -0.04809310
v -0.00601098 0.01936581 -0.04615684
v -0.00688373 0.02005840 -0.04694691
v -0.00843067 0.01961514 -0.04569896
v -0.00688373 0.01943784 -0.04603414
v -0.00997762 0.02061801 -0.04667457
v -0.00987422 0.01982569 -0.04527400
v -0.00929101 0.01933257 -0.04467547
v -0.00987422 0.01912756 -0.04383153
v -0.00997762 0.01849592 -0.04230228
v -0.01007689 0.01796401 -0.04081193
v -0.01065597 0.01783103 -0.03987223
v -0.01151630 0.01805266 -0.03929764
v -0.01209124 0.01789752 -0.03766364
v -0.01229805 0.01780887 -0.03687357
v -0.01406008 0.01919405 -0.03766364
v -0.01550362 0.01925500 -0.02837438
v -0.01421726 0.01908878 -0.03611343
v -0.01307566 0.01691128 -0.02527697
v -0.01248004 0.01628518 -0.02350830
v -0.01409730 0.01757616 -0.02372976
v -0.01482528 0.01836848 -0.02527697
v -0.01638464 0.01994205 -0.02527697
v -0.01645909 0.01989218 -0.02350830
v -0.01702162 0.02055707 -0.02350830
v -0.01767928 0.02168183 -0.02350830
v -0.01776200 0.02183697 -0.02350830
v -0.00063802 0.06722647 -0.03139998
v -0.00017063 0.06728189 -0.03301901
v -0.00186648 0.06573602 -0.02350830
v -0.00113437 0.06561967 -0.02350830
v -0.00077866 0.06555873 -0.02350830
v 0.00063180 0.06529277 -0.02350830
v 0.00085515 0.06524844 -0.02350830
v 0.00085515 0.06758108 -0.04385248
v 0.00168240 0.06736500 -0.04284994
v 0.00094615 0.06749797 -0.04232323
v 0.00174858 0.06738716 -0.04476226
v 0.00231938 0.06699377 -0.04532787
v 0.01184097 0.06320946 -0.04707858
v 0.01012030 0.06399624 -0.04691399
v 0.01255240 0.06276620 -0.04665063
v 0.01313561 0.06218997 -0.04707858
v 0.01416553 0.06129238 -0.04694691
v 0.01515823 0.06028951 -0.04543860
v 0.01478596 0.06037816 -0.04694691
v 0.01431443 0.06037816 -0.04810208
v 0.01647355 0.05728090 -0.04539969
v 0.01552635 0.05951935 -0.04598027
v 0.01586966 0.05893203 -0.04543860
v 0.01704021 0.05612843 -0.04385248
v 0.01822730 0.05263779 -0.02682717
v 0.01844653 0.05108638 -0.02682717
v 0.01862438 0.05003365 -0.02527697
v 0.01874847 0.04934660 -0.02372976
v 0.01822730 0.04954052 -0.04694691
v 0.01906696 0.04180015 -0.02350830
v 0.01858716 0.04180015 -0.03766364
v 0.01857888 0.04024875 -0.03766364
v 0.01856648 0.03870844 -0.03766364
v 0.01793363 0.04180015 -0.04849711
v 0.01755724 0.04180015 -0.05004432
v 0.01757378 0.04334601 -0.05004432
v 0.01714775 0.04024875 -0.05086730
v 0.01712293 0.03943427 -0.05083139
v 0.01558839 0.04094689 -0.05238758
v 0.01253172 0.03161632 -0.05240853
v 0.01169620 0.03104563 -0.05264495
v 0.01118331 0.02979897 -0.05251926
v 0.01023612 0.02933909 -0.05277064
v 0.00978113 0.02822541 -0.05254919
v 0.00866849 0.02777107 -0.05271977
v 0.00820109 0.02677374 -0.05248035
v 0.00744003 0.02574317 -0.05229182
v 0.00697263 0.02628062 -0.05257612
v 0.00697263 0.02489544 -0.05189379
v 0.00704708 0.02378176 -0.05105584
v 0.00549600 0.02274011 -0.05048424
v 0.00394905 0.02185913 -0.04992461
v 0.00240210 0.02096708 -0.04918841
v 0.00234006 0.02188130 -0.05018797
v 0.00085515 0.02095600 -0.04920637
v -0.00069593 0.02044071 -0.04841930
v -0.00223874 0.01968163 -0.04717435
v -0.00378569 0.01974812 -0.04710551
v -0.00498106 0.01931041 -0.04624662
v -0.00543191 0.01895580 -0.04554334
v -0.00688373 0.01900012 -0.04525904
v -0.00843067 0.01919959 -0.04492386
v -0.00843067 0.01871755 -0.04385248
v -0.00846790 0.01806928 -0.04227235
v -0.00900561 0.01785874 -0.04136856
v -0.00790124 0.01616882 -0.03715189
v -0.00986595 0.01660100 -0.03602066
v -0.01099100 0.01771468 -0.03883976
v -0.00842240 0.01606355 -0.03602066
v -0.00893529 0.01636275 -0.03647555
v -0.00927033 0.01623531 -0.03544308
v -0.01030439 0.01642923 -0.03456622
v -0.00668105 0.01240668 -0.02350830
v -0.00695818 0.01257844 -0.02350830
v -0.01078832 0.01623531 -0.03239354
v -0.01229391 0.01626301 -0.02446596
v -0.01567321 0.01909432 -0.02372976
v -0.01226082 0.01613558 -0.02350830
v -0.01396908 0.01746535 -0.02350830
v -0.01409730 0.01757616 -0.02350830
v -0.01420898 0.01767590 -0.02350830
v -0.01568148 0.01908878 -0.02350830
v 0.00085515 0.06646740 -0.02992159
v 0.00085515 0.06674443 -0.03146881
v 0.00241451 0.06476640 -0.02350830
v 0.00085515 0.06689403 -0.03301901
v 0.00634393 0.06581914 -0.04451386
v 0.00176099 0.06739270 -0.04385248
v 0.00634393 0.06581914 -0.04470839
v 0.00959086 0.06433423 -0.04637530
v 0.01169207 0.06330919 -0.04539969
v 0.00970254 0.06442288 -0.04539969
v 0.01047602 0.06401286 -0.04539969
v 0.01255654 0.06276620 -0.04539969
v 0.01437648 0.06142535 -0.04385248
v 0.01431030 0.06140319 -0.04539969
v 0.01514995 0.06057763 -0.04385248
v 0.01561735 0.05971881 -0.04494780
v 0.01666795 0.05728090 -0.04385248
v 0.01773096 0.05418364 -0.02682717
v 0.01873192 0.04946296 -0.02350830
v 0.01819422 0.05263779 -0.02527697
v 0.01845066 0.05108638 -0.02350830
v 0.01847548 0.05095341 -0.02350830
v 0.01862438 0.05012784 -0.02350830
v 0.01874847 0.04935214 -0.02350830
v 0.01877329 0.04915268 -0.02350830
v 0.01888083 0.04798913 -0.02372976
v 0.01890151 0.04776750 -0.02350830
v 0.01895528 0.04644327 -0.02350830
v 0.01896355 0.04622164 -0.02350830
v 0.01900905 0.04489741 -0.02350830
v 0.01904628 0.04334601 -0.02350830
v 0.01907110 0.04024875 -0.02350830
v 0.01890978 0.04024875 -0.02837438
v 0.01895114 0.03870844 -0.02682717
v 0.01892633 0.03716257 -0.02682717
v 0.01866988 0.03624282 -0.03259704
v 0.01850857 0.03716257 -0.03766364
v 0.01782195 0.04024875 -0.04849711
v 0.01746210 0.04024875 -0.05004432
v 0.01557185 0.03481331 -0.05082541
v 0.01726770 0.03883033 -0.05002337
v 0.01718911 0.03453628 -0.04797638
v 0.01702780 0.03561118 -0.04904477
v 0.01584484 0.03251392 -0.04959542
v 0.01434753 0.03251392 -0.05113665
v 0.01414071 0.03140578 -0.05094810
v 0.01323488 0.03099577 -0.05158255
v 0.01293294 0.02942220 -0.05118752
v 0.01264754 0.02831960 -0.05094511
v 0.01221737 0.03058575 -0.05221401
v 0.01081519 0.02876840 -0.05231576
v 0.01023612 0.02777107 -0.05215714
v 0.00923515 0.02719484 -0.05232174
v 0.00866849 0.02628062 -0.05211225
v 0.00846167 0.02480125 -0.05122942
v 0.00715049 0.02292295 -0.05001738
v 0.00669964 0.02227468 -0.04948469
v 0.00786192 0.02397014 -0.05085234
v 0.00549600 0.02207522 -0.04971213
v 0.00394905 0.02108897 -0.04902083
v 0.00394905 0.02057369 -0.04824572
v 0.00240210 0.02045733 -0.04841631
v 0.00085515 0.02044625 -0.04843426
v -0.00069593 0.01967055 -0.04715938
v -0.00223874 0.01922729 -0.04639924
v -0.00378569 0.01926054 -0.04633041
v -0.00378569 0.01873971 -0.04539969
v -0.00378569 0.01805820 -0.04406197
v -0.00539468 0.01806375 -0.04375672
v -0.00688373 0.01833524 -0.04385248
v -0.00797569 0.01772576 -0.04173666
v -0.00723117 0.01634612 -0.03818436
v -0.00678446 0.01609125 -0.03766663
v -0.00688373 0.01567016 -0.03611343
v -0.00531196 0.01188585 -0.02350830
v -0.00553118 0.01193572 -0.02350830
v 0.00919792 0.06418463 -0.04075507
v 0.00859403 0.06481627 -0.04385248
v 0.00718358 0.06287702 -0.02350830
v 0.00744830 0.06277175 -0.02350830
v 0.00772129 0.06266093 -0.02350830
v 0.00787433 0.06272188 -0.02434026
v 0.00906970 0.06257228 -0.02682717
v 0.01147285 0.06301553 -0.04075507
v 0.01224632 0.06256120 -0.04075507
v 0.01250277 0.06272188 -0.04440613
v 0.00955364 0.06436747 -0.04385248
v 0.01310666 0.06227862 -0.04387343
v 0.01426894 0.06134224 -0.04230228
v 0.01551394 0.05800673 -0.02653988
v 0.01596479 0.05704265 -0.02350830
v 0.01563389 0.05975206 -0.04261052
v 0.01565871 0.05980192 -0.04385248
v 0.01606406 0.05882676 -0.04385248
v 0.01723461 0.05517543 -0.02682717
v 0.01764410 0.05418364 -0.02527697
v 0.01811563 0.05263779 -0.02350830
v 0.01816940 0.05241061 -0.02350830
v 0.01888496 0.04798913 -0.02350830
v 0.01905455 0.03870844 -0.02350830
v 0.01900078 0.03870844 -0.02527697
v 0.01898010 0.03716257 -0.02527697
v 0.01891806 0.03561118 -0.02527697
v 0.01886015 0.03561118 -0.02682717
v 0.01872365 0.03397667 -0.02680622
v 0.01862438 0.03367193 -0.02837438
v 0.01859543 0.03568321 -0.03307288
v 0.01836380 0.03561118 -0.03766364
v 0.01809081 0.03406532 -0.03920786
v 0.01823144 0.03561118 -0.03920786
v 0.01746210 0.03561118 -0.04694691
v 0.01763169 0.03870844 -0.04849711
v 0.01727184 0.03561118 -0.04827266
v 0.01566698 0.03149997 -0.04938593
v 0.01512100 0.03251392 -0.05037052
v 0.01393804 0.03037521 -0.05074759
v 0.01725116 0.03422600 -0.04694691
v 0.01706503 0.03345030 -0.04694691
v 0.01677135 0.03251392 -0.04694691
v 0.01641150 0.03251392 -0.04849711
v 0.01687062 0.03403762 -0.04849411
v 0.01235386 0.02728903 -0.05065782
v 0.01177893 0.02783202 -0.05133117
v 0.01370641 0.02942220 -0.05046329
v 0.01132394 0.02670172 -0.05107978
v 0.01020303 0.02624183 -0.05138204
v 0.00973150 0.02533316 -0.05102591
v 0.00773370 0.02249632 -0.04922133
v 0.00704295 0.02167629 -0.04849112
v 0.00635220 0.02087843 -0.04776390
v 0.00549600 0.02129952 -0.04871557
v 0.01076142 0.02567114 -0.05067877
v 0.00549600 0.02076761 -0.04794346
v 0.00383324 0.01978137 -0.04681223
v 0.00323762 0.01934365 -0.04620771
v 0.00240210 0.01968163 -0.04704566
v 0.00085515 0.01967055 -0.04711150
v -0.00069593 0.01923838 -0.04638727
v -0.00223874 0.01866768 -0.04539969
v -0.00223874 0.01802496 -0.04413978
v -0.00378569 0.01771468 -0.04328986
v -0.00491488 0.01776455 -0.04317913
v -0.00594894 0.01783103 -0.04302650
v -0.00688373 0.01791415 -0.04280804
v -0.00688373 0.01761495 -0.04203294
v -0.00688373 0.01714953 -0.04075507
v -0.00620125 0.01624085 -0.03848961
v -0.00378569 0.01165868 -0.02350830
v 0.01014098 0.06373029 -0.04075507
v 0.00849476 0.06230078 -0.02350830
v 0.01014098 0.06176888 -0.02527697
v 0.01014098 0.06202929 -0.02682717
v 0.01014098 0.06354190 -0.03920786
v 0.01133221 0.06293797 -0.03920786
v 0.01124949 0.06138657 -0.02682717
v 0.01281712 0.05986287 -0.02350830
v 0.01292880 0.05978530 -0.02350830
v 0.01359060 0.05927002 -0.02350830
v 0.01453779 0.05849432 -0.02350830
v 0.01531127 0.05781835 -0.02350830
v 0.01674654 0.05574058 -0.02350830
v 0.01674654 0.05577383 -0.02372976
v 0.01752001 0.05420026 -0.02350830
v 0.01761928 0.05396201 -0.02350830
v 0.01901732 0.03716257 -0.02372976
v 0.01901732 0.03716257 -0.02350830
v 0.01894701 0.03561118 -0.02372976
v 0.01893460 0.03538955 -0.02350830
v 0.01883119 0.03406532 -0.02372976
v 0.01878983 0.03406532 -0.02527697
v 0.01868643 0.03302367 -0.02527697
v 0.01866575 0.03320651 -0.02627951
v 0.01864506 0.03340597 -0.02731199
v 0.01850857 0.03251392 -0.02837438
v 0.01843412 0.03251392 -0.02992159
v 0.01819422 0.03406532 -0.03766364
v 0.01833485 0.03251392 -0.03146881
v 0.01781368 0.03251392 -0.03920786
v 0.01586138 0.03120077 -0.04849711
v 0.01545190 0.03042507 -0.04849711
v 0.01407454 0.02854677 -0.04938593
v 0.01435993 0.02942220 -0.04969118
v 0.01763169 0.03251392 -0.04075507
v 0.01711052 0.03019236 -0.03998595
v 0.01675067 0.02957180 -0.04060244
v 0.01265581 0.02689564 -0.04962535
v 0.01175825 0.02628616 -0.05015205
v 0.00830863 0.02210292 -0.04818886
v 0.00738212 0.02107235 -0.04730602
v 0.00693954 0.02071775 -0.04685413
v 0.00608748 0.01941014 -0.04444802
v 0.00554150 0.01962069 -0.04539072
v 0.00427168 0.01947109 -0.04589947
v 0.01116263 0.02529991 -0.04964629
v 0.01099718 0.02392582 -0.04782974
v 0.00934269 0.02247415 -0.04767712
v 0.00383324 0.01913310 -0.04539072
v 0.00226147 0.01815240 -0.04370584
v 0.00240210 0.01887823 -0.04539969
v 0.00085515 0.01877296 -0.04539969
v -0.00069593 0.01804158 -0.04410985
v -0.00069593 0.01869539 -0.04539969
v -0.00223874 0.01768144 -0.04336468
v -0.00223874 0.01721602 -0.04230228
v -0.00378569 0.01729913 -0.04230228
v -0.00539468 0.01752630 -0.04242797
v -0.00533678 0.01689465 -0.04075507
v -0.00533678 0.01619098 -0.03865421
v -0.00223874 0.01145922 -0.02350830
v -0.00533678 0.01644032 -0.03942632
v 0.00988040 0.06158049 -0.02350830
v 0.01012857 0.06144751 -0.02350830
v 0.01094341 0.06116494 -0.02443304
v 0.01106750 0.06124805 -0.02527697
v 0.01158039 0.06063303 -0.02350830
v 0.01707330 0.05509232 -0.02350830
v 0.01900905 0.03693541 -0.02350830
v 0.01894701 0.03561118 -0.02350830
v 0.01883533 0.03406532 -0.02350830
v 0.01881465 0.03381599 -0.02350830
v 0.01871124 0.03269676 -0.02350830
v 0.01863679 0.03193215 -0.02350830
v 0.01863265 0.03197093 -0.02372976
v 0.01860370 0.03224797 -0.02527697
v 0.01858302 0.03261919 -0.02680622
v 0.01862438 0.03183795 -0.02350830
v 0.01847961 0.03096806 -0.02372976
v 0.01832244 0.03096806 -0.02682717
v 0.01824385 0.03096806 -0.02837438
v 0.01815285 0.03096806 -0.02992159
v 0.01774750 0.02942220 -0.02992159
v 0.01596065 0.02804257 -0.04075507
v 0.01484801 0.02942220 -0.04849711
v 0.01372296 0.02448543 -0.04075507
v 0.01357819 0.02487328 -0.04227534
v 0.01275094 0.02359892 -0.04230228
v 0.01282539 0.02501180 -0.04539969
v 0.01230423 0.02423610 -0.04539969
v 0.01208087 0.02477355 -0.04705165
v 0.01744556 0.02787080 -0.02837438
v 0.01729252 0.02779324 -0.02984379
v 0.01712293 0.02706740 -0.02927817
v 0.01688717 0.02932801 -0.03920786
v 0.01123708 0.02367649 -0.04694691
v 0.00860644 0.02166521 -0.04697683
v 0.00787433 0.02086735 -0.04627355
v 0.00704708 0.02016922 -0.04539969
v 0.00652178 0.01925500 -0.04341555
v 0.00003204 0.01157557 -0.02350830
v 0.00328726 0.01777009 -0.04166783
v 0.00394905 0.01860674 -0.04385248
v 0.00505756 0.01925500 -0.04486699
v 0.00703881 0.01963177 -0.04390036
v 0.01015753 0.02282876 -0.04707559
v 0.01067869 0.02261267 -0.04578275
v 0.00268337 0.01791969 -0.04270030
v 0.00165345 0.01780333 -0.04309234
v 0.00085515 0.01808591 -0.04396620
v -0.00069593 0.01769806 -0.04333475
v -0.00069593 0.01728250 -0.04230228
v -0.00223874 0.01663424 -0.04075507
v -0.00378569 0.01670627 -0.04075507
v -0.00378569 0.01634612 -0.03969267
v -0.00091929 0.01143151 -0.02350830
v 0.01849202 0.03098468 -0.02350830
v 0.01844653 0.03074643 -0.02350830
v 0.01816940 0.02942220 -0.02350830
v 0.01815699 0.02942220 -0.02372976
v 0.01811563 0.02919503 -0.02350830
v 0.01806186 0.02942220 -0.02527697
v 0.01777646 0.02787080 -0.02372976
v 0.01767305 0.02787080 -0.02527697
v 0.01756551 0.02787080 -0.02682717
v 0.01605992 0.02772675 -0.03932457
v 0.01565871 0.02693997 -0.03888764
v 0.01386772 0.02422502 -0.03920786
v 0.01287089 0.02315566 -0.04067426
v 0.01235800 0.02259051 -0.04113813
v 0.01219255 0.02282322 -0.04230228
v 0.01115436 0.02221928 -0.04385248
v 0.01144389 0.02317228 -0.04531889
v 0.01716843 0.02696767 -0.02837438
v 0.01706089 0.02722808 -0.03031064
v 0.01686235 0.02603683 -0.02682717
v 0.01677135 0.02619751 -0.02837438
v 0.01672999 0.02646346 -0.02984379
v 0.01097650 0.02240212 -0.04475028
v 0.00949987 0.02082302 -0.04329884
v 0.00811837 0.02070112 -0.04539969
v 0.01015753 0.02206414 -0.04531889
v 0.01006653 0.02140479 -0.04382854
v 0.00758479 0.01946554 -0.04230228
v 0.00088411 0.01186923 -0.02350830
v 0.00069384 0.01179166 -0.02350830
v -0.00069593 0.01143151 -0.02350830
v 0.00240210 0.01726588 -0.04075507
v 0.00864780 0.02047949 -0.04382854
v 0.00226147 0.01768144 -0.04223345
v 0.00085515 0.01696669 -0.04075507
v 0.00085515 0.01744873 -0.04230228
v 0.00085515 0.01775901 -0.04319409
v -0.00069593 0.01675614 -0.04075507
v -0.00223874 0.01632396 -0.03972259
v 0.01778887 0.02787080 -0.02350830
v 0.01771855 0.02764363 -0.02350830
v 0.01729252 0.02666293 -0.02527697
v 0.01723875 0.02681253 -0.02682717
v 0.01641564 0.02632494 -0.03146881
v 0.01577452 0.02522788 -0.03146881
v 0.01557598 0.02398122 -0.02769206
v 0.01249449 0.02241874 -0.04010566
v 0.01141908 0.02197549 -0.04230228
v 0.01045947 0.02120533 -0.04230228
v 0.01694508 0.02589277 -0.02527697
v 0.01616747 0.02477355 -0.02682717
v 0.01589447 0.02503950 -0.02992159
v 0.00968600 0.02071221 -0.04230228
v 0.00859403 0.02004178 -0.04230228
v 0.00777506 0.01938243 -0.04139849
v 0.00332034 0.01307710 -0.02350830
v 0.00244346 0.01258952 -0.02350830
v 0.01734629 0.02648008 -0.02350830
v 0.01734629 0.02651887 -0.02372976
v 0.01702780 0.02572101 -0.02350830
v 0.01591929 0.02469044 -0.02827263
v 0.01563803 0.02390920 -0.02682717
v 0.01440957 0.02205306 -0.02350830
v 0.01360714 0.02128290 -0.02350830
v 0.01201883 0.01978137 -0.02350830
v 0.01190715 0.01967609 -0.02350830
v 0.01124536 0.01906107 -0.02350830
v 0.01048843 0.01839619 -0.02350830
v 0.01025266 0.01819118 -0.02350830
v 0.00958673 0.01762603 -0.02350830
v 0.01084828 0.02095046 -0.03959391
v 0.01177893 0.02193116 -0.04067426
v 0.01507136 0.02277335 -0.02350830
v 0.01069524 0.02105019 -0.04075507
v 0.01632878 0.02477355 -0.02527697
v 0.00992176 0.02056261 -0.04075507
v 0.00418895 0.01369212 -0.02350830
v 0.01647355 0.02479571 -0.02350830
v 0.01571662 0.02379284 -0.02527697
v 0.01518304 0.02291187 -0.02350830
v 0.01635359 0.02460178 -0.02350830
v 0.01577039 0.02368203 -0.02350830
f 1 2 3
f 1 3 4
f 1 4 13
f 1 13 5
f 1 5 6
f 1 6 7
f 1 7 8
f 1 8 2
f 2 9 3
f 2 8 9
f 3 10 4
f 3 9 11
f 3 11 12
f 3 12 10
f 4 10 14
f 4 14 38
f 4 38 13
f 5 13 15
f 5 15 16
f 5 16 17
f 5 17 18
f 5 18 6
f 6 19 20
f 6 20 7
f 6 18 21
f 6 21 22
f 6 22 23
f 6 23 24
f 6 24 25
f 6 25 19
f 7 20 26
f 7 26 27
f 7 27 28
f 7 28 8
f 8 28 29
f 8 29 9
f 9 29 30
f 9 30 31
f 9 31 32
f 9 32 33
f 9 33 11
f 10 12 14
f 11 33 34
f 11 34 35
f 11 35 12
f 12 35 36
f 12 36 37
f 12 37 14
f 13 38 15
f 14 37 39
f 14 39 40
f 14 40 41
f 14 41 42
f 14 42 38
f 15 43 86
f 15 86 138
f 15 138 194
f 15 194 254
f 15 254 340
f 15 340 421
f 15 421 504
f 15 504 581
f 15 581 580
f 15 580 502
f 15 502 579
f 15 579 578
f 15 578 663
f 15 663 662
f 15 662 661
f 15 661 660
f 15 660 574
f 15 574 659
f 15 659 655
f 15 655 654
f 15 654 739
f 15 739 738
f 15 738 811
f 15 811 872
f 15 872 927
f 15 927 958
f 15 958 912
f 15 912 957
f 15 957 956
f 15 956 984
f 15 984 983
f 15 983 1004
f 15 1004 997
f 15 997 996
f 15 996 995
f 15 995 994
f 15 994 993
f 15 993 992
f 15 992 991
f 15 991 990
f 15 990 1000
f 15 1000 1007
f 15 1007 1009
f 15 1009 1008
f 15 1008 1005
f 15 1005 987
f 15 987 985
f 15 985 968
f 15 968 967
f 15 967 932
f 15 932 930
f 15 930 929
f 15 929 928
f 15 928 889
f 15 889 885
f 15 885 884
f 15 884 883
f 15 883 882
f 15 882 831
f 15 831 881
f 15 881 880
f 15 880 829
f 15 829 763
f 15 763 695
f 15 695 611
f 15 611 694
f 15 694 693
f 15 693 692
f 15 692 691
f 15 691 690
f 15 690 762
f 15 762 688
f 15 688 687
f 15 687 682
f 15 682 686
f 15 686 685
f 15 685 684
f 15 684 761
f 15 761 760
f 15 760 827
f 15 827 826
f 15 826 879
f 15 879 824
f 15 824 754
f 15 754 823
f 15 823 822
f 15 822 821
f 15 821 820
f 15 820 819
f 15 819 878
f 15 878 875
f 15 875 874
f 15 874 813
f 15 813 744
f 15 744 743
f 15 743 742
f 15 742 666
f 15 666 588
f 15 588 587
f 15 587 586
f 15 586 585
f 15 585 584
f 15 584 506
f 15 506 427
f 15 427 423
f 15 423 422
f 15 422 342
f 15 342 341
f 15 341 258
f 15 258 256
f 15 256 257
f 15 257 199
f 15 199 144
f 15 144 140
f 15 140 88
f 15 88 93
f 15 93 87
f 15 87 45
f 15 45 19
f 15 19 25
f 15 25 24
f 15 24 23
f 15 23 22
f 15 22 21
f 15 21 18
f 15 18 17
f 15 17 16
f 15 38 43
f 19 44 20
f 19 45 46
f 19 46 47
f 19 47 44
f 20 44 26
f 26 44 48
f 26 48 49
f 26 49 50
f 26 50 51
f 26 51 27
f 27 51 52
f 27 52 53
f 27 53 28
f 28 53 54
f 28 54 55
f 28 55 56
f 28 56 57
f 28 57 29
f 29 57 30
f 30 57 58
f 30 58 59
f 30 59 32
f 30 32 31
f 32 60 61
f 32 61 34
f 32 34 33
f 32 59 60
f 34 61 62
f 34 62 63
f 34 63 35
f 35 63 36
f 36 63 62
f 36 62 64
f 36 64 65
f 36 65 66
f 36 66 67
f 36 67 37
f 37 68 39
f 37 67 69
f 37 69 70
f 37 70 71
f 37 71 72
f 37 72 68
f 38 42 73
f 38 73 74
f 38 74 43
f 39 68 75
f 39 75 76
f 39 76 77
f 39 77 40
f 40 77 41
f 41 77 78
f 41 78 79
f 41 79 80
f 41 80 42
f 42 80 81
f 42 81 82
f 42 82 83
f 42 83 73
f 43 74 83
f 43 83 84
f 43 84 85
f 43 85 86
f 44 47 48
f 45 87 46
f 46 88 89
f 46 89 90
f 46 90 91
f 46 91 92
f 46 92 47
f 46 87 93
f 46 93 88
f 47 92 48
f 48 92 49
f 49 92 94
f 49 94 50
f 50 54 52
f 50 52 51
f 50 94 95
f 50 95 96
f 50 96 97
f 50 97 98
f 50 98 99
f 50 99 100
f 50 100 54
f 52 54 53
f 54 101 102
f 54 102 103
f 54 103 55
f 54 100 104
f 54 104 105
f 54 105 106
f 54 106 101
f 55 103 57
f 55 57 56
f 57 103 107
f 57 107 58
f 58 108 59
f 58 107 109
f 58 109 110
f 58 110 108
f 59 108 111
f 59 111 60
f 60 112 61
f 60 111 108
f 60 108 113
f 60 113 112
f 61 114 115
f 61 115 62
f 61 112 114
f 62 115 116
f 62 116 64
f 64 116 65
f 65 117 66
f 65 116 118
f 65 118 119
f 65 119 117
f 66 117 120
f 66 120 69
f 66 69 67
f 68 72 121
f 68 121 75
f 69 120 122
f 69 122 123
f 69 123 124
f 69 124 125
f 69 125 126
f 69 126 70
f 70 126 71
f 71 126 127
f 71 127 128
f 71 128 72
f 72 128 129
f 72 129 130
f 72 130 131
f 72 131 121
f 73 83 74
f 75 78 76
f 75 121 78
f 76 78 77
f 78 121 132
f 78 132 133
f 78 133 79
f 79 133 134
f 79 134 81
f 79 81 80
f 81 134 135
f 81 135 136
f 81 136 82
f 82 84 83
f 82 136 137
f 82 137 85
f 82 85 84
f 85 137 138
f 85 138 139
f 85 139 86
f 86 139 138
f 88 140 89
f 89 141 142
f 89 142 143
f 89 143 90
f 89 140 144
f 89 144 141
f 90 145 146
f 90 146 91
f 90 143 145
f 91 146 147
f 91 147 148
f 91 148 149
f 91 149 92
f 92 149 94
f 94 149 150
f 94 150 95
f 95 150 96
f 96 150 97
f 97 150 98
f 98 150 149
f 98 149 148
f 98 148 151
f 98 151 152
f 98 152 99
f 99 152 100
f 100 152 104
f 101 153 102
f 101 106 153
f 102 153 103
f 103 153 107
f 104 152 154
f 104 154 105
f 105 154 155
f 105 155 156
f 105 156 106
f 106 156 153
f 107 153 157
f 107 157 109
f 108 110 158
f 108 158 113
f 109 157 159
f 109 159 110
f 110 160 158
f 110 159 161
f 110 161 160
f 112 162 163
f 112 163 114
f 112 113 160
f 112 160 164
f 112 164 165
f 112 165 162
f 113 158 160
f 114 163 166
f 114 166 115
f 115 166 167
f 115 167 168
f 115 168 169
f 115 169 116
f 116 169 170
f 116 170 171
f 116 171 172
f 116 172 118
f 117 119 173
f 117 173 120
f 118 172 119
f 119 174 175
f 119 175 176
f 119 176 177
f 119 177 173
f 119 172 178
f 119 178 174
f 120 173 122
f 121 131 132
f 122 173 177
f 122 177 123
f 123 177 179
f 123 179 180
f 123 180 181
f 123 181 124
f 124 181 182
f 124 182 125
f 125 127 126
f 125 182 127
f 127 182 183
f 127 183 128
f 128 183 129
f 129 183 184
f 129 184 185
f 129 185 186
f 129 186 130
f 130 187 131
f 130 186 187
f 131 188 132
f 131 187 188
f 132 188 133
f 133 188 134
f 134 188 135
f 135 188 187
f 135 187 189
f 135 189 190
f 135 190 136
f 136 190 191
f 136 191 192
f 136 192 137
f 137 192 193
f 137 193 138
f 138 193 194
f 141 195 196
f 141 196 197
f 141 197 198
f 141 198 142
f 141 144 199
f 141 199 195
f 142 198 200
f 142 200 201
f 142 201 143
f 143 201 202
f 143 202 145
f 145 202 146
f 146 202 147
f 147 202 148
f 148 203 204
f 148 204 151
f 148 202 205
f 148 205 203
f 151 204 152
f 152 204 206
f 152 206 207
f 152 207 208
f 152 208 155
f 152 155 154
f 153 156 209
f 153 209 210
f 153 210 157
f 155 208 211
f 155 211 212
f 155 212 156
f 156 212 213
f 156 213 209
f 157 210 214
f 157 214 159
f 159 215 161
f 159 214 215
f 160 161 216
f 160 216 164
f 161 215 217
f 161 217 216
f 162 218 163
f 162 165 218
f 163 218 219
f 163 219 220
f 163 220 166
f 164 216 221
f 164 221 165
f 165 221 222
f 165 222 223
f 165 223 224
f 165 224 225
f 165 225 226
f 165 226 218
f 166 220 167
f 167 220 168
f 168 227 171
f 168 171 169
f 168 220 227
f 169 171 170
f 171 228 229
f 171 229 230
f 171 230 231
f 171 231 232
f 171 232 178
f 171 178 172
f 171 227 228
f 174 178 232
f 174 232 231
f 174 231 175
f 175 233 234
f 175 234 235
f 175 235 236
f 175 236 177
f 175 177 176
f 175 231 233
f 177 237 179
f 177 236 238
f 177 238 239
f 177 239 240
f 177 240 237
f 179 237 180
f 180 237 240
f 180 240 241
f 180 241 242
f 180 242 181
f 181 243 183
f 181 183 182
f 181 242 241
f 181 241 243
f 183 243 184
f 184 243 244
f 184 244 245
f 184 245 185
f 185 246 186
f 185 245 246
f 186 247 187
f 186 246 247
f 187 248 189
f 187 247 248
f 189 248 190
f 190 248 249
f 190 249 191
f 191 249 250
f 191 250 192
f 192 250 251
f 192 251 193
f 193 251 194
f 194 251 252
f 194 252 253
f 194 253 254
f 195 255 256
f 195 256 196
f 195 199 257
f 195 257 255
f 196 258 259
f 196 259 260
f 196 260 198
f 196 198 197
f 196 256 258
f 198 260 261
f 198 261 262
f 198 262 263
f 198 263 200
f 200 263 201
f 201 263 264
f 201 264 205
f 201 205 202
f 203 205 206
f 203 206 204
f 205 264 265
f 205 265 207
f 205 207 206
f 207 265 211
f 207 211 208
f 209 213 266
f 209 266 267
f 209 267 268
f 209 268 269
f 209 269 270
f 209 270 271
f 209 271 210
f 210 271 214
f 211 272 273
f 211 273 274
f 211 274 213
f 211 213 212
f 211 265 272
f 213 274 273
f 213 273 266
f 214 271 275
f 214 275 276
f 214 276 215
f 215 276 277
f 215 277 217
f 216 217 278
f 216 278 279
f 216 279 221
f 217 277 280
f 217 280 278
f 218 226 281
f 218 281 219
f 219 281 282
f 219 282 220
f 220 282 227
f 221 283 222
f 221 279 280
f 221 280 284
f 221 284 283
f 222 285 286
f 222 286 223
f 222 283 287
f 222 287 285
f 223 286 225
f 223 225 224
f 225 286 288
f 225 288 289
f 225 289 290
f 225 290 291
f 225 291 292
f 225 292 293
f 225 293 226
f 226 293 294
f 226 294 295
f 226 295 282
f 226 282 281
f 227 296 297
f 227 297 298
f 227 298 228
f 227 282 299
f 227 299 296
f 228 298 300
f 228 300 301
f 228 301 302
f 228 302 229
f 229 302 303
f 229 303 230
f 230 304 233
f 230 233 231
f 230 303 305
f 230 305 306
f 230 306 304
f 233 304 307
f 233 307 234
f 234 307 308
f 234 308 309
f 234 309 310
f 234 310 235
f 235 310 236
f 236 310 238
f 238 310 311
f 238 311 239
f 239 311 312
f 239 312 313
f 239 313 314
f 239 314 240
f 240 314 315
f 240 315 316
f 240 316 241
f 241 316 317
f 241 317 318
f 241 318 319
f 241 319 320
f 241 320 243
f 243 320 244
f 244 320 319
f 244 319 321
f 244 321 322
f 244 322 323
f 244 323 324
f 244 324 325
f 244 325 326
f 244 326 327
f 244 327 245
f 245 327 328
f 245 328 329
f 245 329 330
f 245 330 331
f 245 331 246
f 246 331 332
f 246 332 333
f 246 333 334
f 246 334 247
f 247 335 248
f 247 334 336
f 247 336 335
f 248 335 249
f 249 335 252
f 249 252 250
f 250 252 251
f 252 335 253
f 253 337 338
f 253 338 339
f 253 339 340
f 253 340 254
f 253 335 336
f 253 336 337
f 255 257 256
f 258 341 259
f 259 341 342
f 259 342 343
f 259 343 260
f 260 343 344
f 260 344 261
f 261 344 345
f 261 345 262
f 262 345 346
f 262 346 263
f 263 346 347
f 263 347 348
f 263 348 264
f 264 273 349
f 264 349 265
f 264 348 350
f 264 350 351
f 264 351 273
f 265 349 273
f 265 273 272
f 266 352 353
f 266 353 354
f 266 354 267
f 266 273 355
f 266 355 352
f 267 354 356
f 267 356 268
f 268 356 357
f 268 357 269
f 269 357 270
f 270 357 275
f 270 275 271
f 273 351 358
f 273 358 359
f 273 359 360
f 273 360 355
f 275 357 361
f 275 361 362
f 275 362 276
f 276 362 277
f 277 362 280
f 278 280 279
f 280 362 361
f 280 361 356
f 280 356 363
f 280 363 364
f 280 364 365
f 280 365 284
f 282 295 294
f 282 294 299
f 283 284 287
f 284 365 366
f 284 366 367
f 284 367 287
f 285 368 286
f 285 287 367
f 285 367 368
f 286 368 369
f 286 369 288
f 288 369 370
f 288 370 371
f 288 371 372
f 288 372 373
f 288 373 289
f 289 373 290
f 290 373 374
f 290 374 375
f 290 375 376
f 290 376 377
f 290 377 291
f 291 377 292
f 292 377 294
f 292 294 293
f 294 377 378
f 294 378 299
f 296 379 380
f 296 380 297
f 296 299 379
f 297 380 381
f 297 381 382
f 297 382 300
f 297 300 298
f 299 378 379
f 300 382 383
f 300 383 301
f 301 383 384
f 301 384 385
f 301 385 386
f 301 386 302
f 302 386 305
f 302 305 303
f 304 306 307
f 305 386 387
f 305 387 388
f 305 388 389
f 305 389 306
f 306 389 390
f 306 390 391
f 306 391 392
f 306 392 393
f 306 393 394
f 306 394 395
f 306 395 396
f 306 396 307
f 307 396 308
f 308 396 395
f 308 395 397
f 308 397 309
f 309 397 398
f 309 398 310
f 310 398 312
f 310 312 311
f 312 399 400
f 312 400 401
f 312 401 313
f 312 398 399
f 313 402 314
f 313 401 403
f 313 403 404
f 313 404 405
f 313 405 402
f 314 402 406
f 314 406 315
f 315 407 316
f 315 406 408
f 315 408 407
f 316 407 317
f 317 407 409
f 317 409 318
f 318 409 319
f 319 409 410
f 319 410 321
f 321 410 322
f 322 410 324
f 322 324 323
f 324 411 325
f 324 410 412
f 324 412 413
f 324 413 411
f 325 411 326
f 326 411 414
f 326 414 327
f 327 415 328
f 327 414 415
f 328 415 416
f 328 416 329
f 329 416 417
f 329 417 418
f 329 418 330
f 330 418 331
f 331 419 333
f 331 333 332
f 331 418 419
f 333 419 336
f 333 336 334
f 336 419 338
f 336 338 337
f 338 419 418
f 338 418 420
f 338 420 421
f 338 421 339
f 339 421 340
f 342 422 343
f 343 422 344
f 344 423 424
f 344 424 345
f 344 422 423
f 345 425 426
f 345 426 346
f 345 424 423
f 345 423 427
f 345 427 425
f 346 426 428
f 346 428 347
f 347 428 429
f 347 429 430
f 347 430 348
f 348 430 350
f 350 430 431
f 350 431 358
f 350 358 351
f 352 432 364
f 352 364 433
f 352 433 353
f 352 355 432
f 353 433 354
f 354 363 356
f 354 433 364
f 354 364 363
f 355 360 434
f 355 434 435
f 355 435 440
f 355 440 436
f 355 436 364
f 355 364 432
f 356 361 357
f 358 431 437
f 358 437 438
f 358 438 434
f 358 434 360
f 358 360 359
f 364 439 365
f 364 436 440
f 364 440 439
f 365 439 441
f 365 441 442
f 365 442 366
f 366 442 443
f 366 443 368
f 366 368 367
f 368 444 369
f 368 443 444
f 369 444 445
f 369 445 446
f 369 446 370
f 370 446 371
f 371 447 372
f 371 446 448
f 371 448 449
f 371 449 450
f 371 450 447
f 372 447 451
f 372 451 452
f 372 452 374
f 372 374 373
f 374 453 375
f 374 452 453
f 375 453 454
f 375 454 455
f 375 455 456
f 375 456 376
f 376 456 378
f 376 378 377
f 378 456 457
f 378 457 379
f 379 457 380
f 380 457 381
f 381 458 459
f 381 459 382
f 381 457 456
f 381 456 458
f 382 459 460
f 382 460 383
f 383 460 461
f 383 461 384
f 384 461 385
f 385 461 462
f 385 462 463
f 385 463 464
f 385 464 465
f 385 465 387
f 385 387 386
f 387 465 466
f 387 466 388
f 388 466 389
f 389 466 467
f 389 467 390
f 390 467 468
f 390 468 391
f 391 468 469
f 391 469 392
f 392 469 393
f 393 469 470
f 393 470 394
f 394 470 471
f 394 471 472
f 394 472 397
f 394 397 395
f 397 472 473
f 397 473 474
f 397 474 475
f 397 475 476
f 397 476 477
f 397 477 478
f 397 478 479
f 397 479 400
f 397 400 399
f 397 399 398
f 400 479 403
f 400 403 401
f 402 405 406
f 403 479 480
f 403 480 404
f 404 480 481
f 404 481 482
f 404 482 483
f 404 483 484
f 404 484 405
f 405 484 485
f 405 485 486
f 405 486 406
f 406 486 408
f 407 410 409
f 407 408 486
f 407 486 487
f 407 487 488
f 407 488 410
f 410 489 412
f 410 488 489
f 411 490 414
f 411 413 491
f 411 491 492
f 411 492 490
f 412 489 488
f 412 488 493
f 412 493 494
f 412 494 413
f 413 494 495
f 413 495 491
f 414 490 496
f 414 496 497
f 414 497 498
f 414 498 415
f 415 498 497
f 415 497 499
f 415 499 416
f 416 500 503
f 416 503 501
f 416 501 417
f 416 499 502
f 416 502 500
f 417 501 503
f 417 503 418
f 418 503 420
f 420 503 504
f 420 504 421
f 425 505 426
f 425 427 506
f 425 506 505
f 426 507 508
f 426 508 429
f 426 429 428
f 426 505 509
f 426 509 507
f 429 508 437
f 429 437 430
f 430 437 431
f 434 510 511
f 434 511 435
f 434 438 510
f 435 511 440
f 437 508 438
f 438 508 512
f 438 512 513
f 438 513 510
f 439 440 441
f 440 511 514
f 440 514 515
f 440 515 516
f 440 516 441
f 441 516 517
f 441 517 443
f 441 443 442
f 443 517 518
f 443 518 519
f 443 519 520
f 443 520 521
f 443 521 522
f 443 522 445
f 443 445 444
f 445 522 446
f 446 522 450
f 446 450 449
f 446 449 448
f 447 450 451
f 450 522 523
f 450 523 524
f 450 524 525
f 450 525 526
f 450 526 527
f 450 527 528
f 450 528 451
f 451 528 529
f 451 529 530
f 451 530 531
f 451 531 452
f 452 531 453
f 453 531 532
f 453 532 533
f 453 533 534
f 453 534 535
f 453 535 454
f 454 535 455
f 455 535 536
f 455 536 456
f 456 536 537
f 456 537 538
f 456 538 539
f 456 539 458
f 458 539 538
f 458 538 540
f 458 540 459
f 459 540 541
f 459 541 542
f 459 542 460
f 460 542 543
f 460 543 461
f 461 543 462
f 462 543 541
f 462 541 544
f 462 544 545
f 462 545 463
f 463 545 546
f 463 546 547
f 463 547 464
f 464 547 548
f 464 548 549
f 464 549 465
f 465 549 550
f 465 550 466
f 466 550 467
f 467 550 551
f 467 551 470
f 467 470 469
f 467 469 468
f 470 551 552
f 470 552 553
f 470 553 554
f 470 554 471
f 471 473 472
f 471 554 555
f 471 555 473
f 473 555 474
f 474 555 475
f 475 555 556
f 475 556 557
f 475 557 476
f 476 557 477
f 477 558 478
f 477 557 559
f 477 559 558
f 478 480 479
f 478 558 560
f 478 560 481
f 478 481 480
f 481 560 558
f 481 558 561
f 481 561 482
f 482 561 562
f 482 562 563
f 482 563 564
f 482 564 483
f 483 564 485
f 483 485 484
f 485 564 565
f 485 565 566
f 485 566 567
f 485 567 486
f 486 567 568
f 486 568 487
f 487 568 569
f 487 569 488
f 488 569 570
f 488 570 493
f 490 492 571
f 490 571 496
f 491 495 492
f 492 495 571
f 493 570 494
f 494 570 572
f 494 572 495
f 495 572 573
f 495 573 574
f 495 574 575
f 495 575 576
f 495 576 571
f 496 577 497
f 496 571 577
f 497 577 578
f 497 578 499
f 499 578 579
f 499 579 502
f 500 504 503
f 500 502 580
f 500 580 581
f 500 581 504
f 505 582 583
f 505 583 509
f 505 506 584
f 505 584 585
f 505 585 586
f 505 586 587
f 505 587 588
f 505 588 582
f 507 512 508
f 507 509 589
f 507 589 512
f 509 583 590
f 509 590 591
f 509 591 589
f 510 513 511
f 511 513 514
f 512 589 592
f 512 592 513
f 513 592 514
f 514 592 593
f 514 593 515
f 515 593 517
f 515 517 516
f 517 594 518
f 517 593 595
f 517 595 594
f 518 594 596
f 518 596 597
f 518 597 598
f 518 598 520
f 518 520 519
f 520 598 599
f 520 599 600
f 520 600 522
f 520 522 601
f 520 601 521
f 521 601 522
f 522 602 523
f 522 600 603
f 522 603 604
f 522 604 602
f 523 602 605
f 523 605 606
f 523 606 607
f 523 607 608
f 523 608 609
f 523 609 610
f 523 610 524
f 524 610 611
f 524 611 612
f 524 612 613
f 524 613 614
f 524 614 615
f 524 615 616
f 524 616 617
f 524 617 526
f 524 526 525
f 526 529 528
f 526 528 527
f 526 617 529
f 529 616 618
f 529 618 530
f 529 617 616
f 530 618 531
f 531 618 619
f 531 619 620
f 531 620 621
f 531 621 533
f 531 533 532
f 533 621 534
f 534 621 622
f 534 622 537
f 534 537 536
f 534 536 535
f 537 622 623
f 537 623 624
f 537 624 538
f 538 624 625
f 538 625 626
f 538 626 540
f 540 626 627
f 540 627 628
f 540 628 629
f 540 629 541
f 541 543 542
f 541 629 628
f 541 628 544
f 544 628 630
f 544 630 631
f 544 631 545
f 545 631 632
f 545 632 546
f 546 632 633
f 546 633 547
f 547 633 634
f 547 634 635
f 547 635 548
f 548 635 634
f 548 634 636
f 548 636 549
f 549 636 552
f 549 552 550
f 550 552 551
f 552 636 637
f 552 637 553
f 553 637 638
f 553 638 639
f 553 639 554
f 554 639 556
f 554 556 555
f 556 640 641
f 556 641 642
f 556 642 559
f 556 559 557
f 556 639 640
f 558 559 642
f 558 642 643
f 558 643 561
f 561 643 562
f 562 643 644
f 562 644 563
f 563 644 564
f 564 644 645
f 564 645 646
f 564 646 565
f 565 646 647
f 565 647 566
f 566 648 649
f 566 649 567
f 566 647 650
f 566 650 651
f 566 651 652
f 566 652 648
f 567 649 568
f 568 649 653
f 568 653 569
f 569 573 572
f 569 572 570
f 569 653 654
f 569 654 655
f 569 655 656
f 569 656 657
f 569 657 573
f 571 576 658
f 571 658 577
f 573 657 574
f 574 657 659
f 574 660 575
f 575 660 661
f 575 661 662
f 575 662 663
f 575 663 576
f 576 663 658
f 577 658 578
f 578 658 663
f 582 664 665
f 582 665 583
f 582 588 666
f 582 666 664
f 583 665 667
f 583 667 668
f 583 668 590
f 589 669 592
f 589 591 669
f 590 669 591
f 590 668 669
f 592 669 670
f 592 670 671
f 592 671 595
f 592 595 593
f 594 672 596
f 594 595 671
f 594 671 673
f 594 673 674
f 594 674 672
f 596 672 675
f 596 675 676
f 596 676 677
f 596 677 597
f 597 677 598
f 598 677 599
f 599 677 678
f 599 678 679
f 599 679 603
f 599 603 600
f 602 680 605
f 602 604 680
f 603 679 604
f 604 679 680
f 605 680 681
f 605 681 606
f 606 682 609
f 606 609 608
f 606 608 607
f 606 681 683
f 606 683 684
f 606 684 685
f 606 685 686
f 606 686 682
f 609 687 688
f 609 688 610
f 609 682 687
f 610 688 689
f 610 689 690
f 610 690 691
f 610 691 692
f 610 692 693
f 610 693 694
f 610 694 611
f 611 695 696
f 611 696 612
f 612 696 613
f 613 696 614
f 614 696 697
f 614 697 698
f 614 698 699
f 614 699 700
f 614 700 615
f 615 700 701
f 615 701 702
f 615 702 616
f 616 702 619
f 616 619 618
f 619 703 621
f 619 621 620
f 619 702 704
f 619 704 705
f 619 705 706
f 619 706 707
f 619 707 703
f 621 708 709
f 621 709 710
f 621 710 711
f 621 711 712
f 621 712 713
f 621 713 623
f 621 623 622
f 621 703 708
f 623 713 714
f 623 714 624
f 624 714 625
f 625 714 715
f 625 715 716
f 625 716 626
f 626 716 627
f 627 716 628
f 628 716 717
f 628 717 718
f 628 718 630
f 630 718 631
f 631 719 720
f 631 720 632
f 631 718 721
f 631 721 719
f 632 720 722
f 632 722 633
f 633 722 723
f 633 723 634
f 634 723 724
f 634 724 725
f 634 725 726
f 634 726 636
f 636 726 637
f 637 726 638
f 638 726 727
f 638 727 728
f 638 728 729
f 638 729 639
f 639 729 640
f 640 729 730
f 640 730 641
f 641 730 731
f 641 731 732
f 641 732 642
f 642 732 733
f 642 733 643
f 643 733 644
f 644 733 645
f 645 733 734
f 645 734 646
f 646 734 735
f 646 735 647
f 647 735 736
f 647 736 737
f 647 737 738
f 647 738 739
f 647 739 650
f 648 653 649
f 648 652 739
f 648 739 653
f 650 739 651
f 651 739 652
f 653 739 654
f 655 659 657
f 655 657 656
f 664 666 665
f 665 740 741
f 665 741 668
f 665 668 667
f 665 666 742
f 665 742 743
f 665 743 744
f 665 744 745
f 665 745 746
f 665 746 740
f 668 670 669
f 668 741 673
f 668 673 670
f 670 673 671
f 672 747 748
f 672 748 749
f 672 749 675
f 672 674 747
f 673 741 750
f 673 750 674
f 674 750 747
f 675 749 751
f 675 751 676
f 676 678 677
f 676 751 748
f 676 748 752
f 676 752 753
f 676 753 678
f 678 753 754
f 678 754 755
f 678 755 756
f 678 756 679
f 679 756 757
f 679 757 680
f 680 757 681
f 681 757 756
f 681 756 755
f 681 755 758
f 681 758 759
f 681 759 760
f 681 760 683
f 683 760 761
f 683 761 684
f 688 762 689
f 689 762 690
f 695 763 764
f 695 764 697
f 695 697 696
f 697 764 765
f 697 765 698
f 698 765 766
f 698 766 767
f 698 767 699
f 699 767 768
f 699 768 769
f 699 769 770
f 699 770 700
f 700 770 771
f 700 771 772
f 700 772 773
f 700 773 701
f 701 773 772
f 701 772 774
f 701 774 705
f 701 705 775
f 701 775 702
f 702 775 776
f 702 776 704
f 703 707 777
f 703 777 778
f 703 778 779
f 703 779 709
f 703 709 708
f 704 776 705
f 705 772 780
f 705 780 781
f 705 781 782
f 705 782 783
f 705 783 784
f 705 784 706
f 705 776 775
f 705 774 772
f 706 784 777
f 706 777 707
f 709 779 710
f 710 779 711
f 711 779 712
f 712 785 786
f 712 786 713
f 712 779 787
f 712 787 785
f 713 786 714
f 714 786 788
f 714 788 715
f 715 788 789
f 715 789 717
f 715 717 716
f 717 789 790
f 717 790 718
f 718 790 721
f 719 721 791
f 719 791 720
f 720 792 793
f 720 793 794
f 720 794 722
f 720 791 792
f 721 790 795
f 721 795 791
f 722 794 723
f 723 794 796
f 723 796 724
f 724 796 797
f 724 797 798
f 724 798 799
f 724 799 725
f 725 799 800
f 725 800 727
f 725 727 726
f 727 800 801
f 727 801 802
f 727 802 728
f 728 802 729
f 729 802 730
f 730 802 803
f 730 803 731
f 731 803 804
f 731 804 805
f 731 805 732
f 732 805 806
f 732 806 733
f 733 806 807
f 733 807 734
f 734 807 808
f 734 808 809
f 734 809 735
f 735 810 736
f 735 809 810
f 736 810 811
f 736 811 738
f 736 738 737
f 740 812 750
f 740 750 741
f 740 746 812
f 744 813 746
f 744 746 745
f 746 813 814
f 746 814 815
f 746 815 816
f 746 816 812
f 747 817 748
f 747 750 817
f 748 751 749
f 748 817 818
f 748 818 819
f 748 819 820
f 748 820 752
f 750 812 817
f 752 820 821
f 752 821 822
f 752 822 823
f 752 823 753
f 753 823 754
f 754 824 825
f 754 825 755
f 755 825 758
f 758 825 759
f 759 825 826
f 759 826 827
f 759 827 760
f 763 828 765
f 763 765 764
f 763 829 828
f 765 828 766
f 766 830 831
f 766 831 832
f 766 832 833
f 766 833 767
f 766 828 830
f 767 833 768
f 768 833 834
f 768 834 835
f 768 835 836
f 768 836 769
f 769 836 837
f 769 837 838
f 769 838 770
f 770 838 771
f 771 839 772
f 771 838 839
f 772 839 840
f 772 840 841
f 772 841 780
f 777 784 783
f 777 783 842
f 777 842 843
f 777 843 844
f 777 844 845
f 777 845 787
f 777 787 779
f 777 779 778
f 780 841 846
f 780 846 781
f 781 846 847
f 781 847 782
f 782 847 848
f 782 848 842
f 782 842 783
f 785 849 850
f 785 850 795
f 785 795 788
f 785 788 786
f 785 787 845
f 785 845 844
f 785 844 849
f 788 795 790
f 788 790 789
f 791 851 792
f 791 795 851
f 792 851 852
f 792 852 793
f 793 797 796
f 793 796 794
f 793 852 853
f 793 853 854
f 793 854 855
f 793 855 856
f 793 856 798
f 793 798 797
f 795 850 857
f 795 857 858
f 795 858 859
f 795 859 851
f 798 856 860
f 798 860 861
f 798 861 862
f 798 862 799
f 799 862 863
f 799 863 864
f 799 864 865
f 799 865 800
f 800 865 801
f 801 865 802
f 802 865 803
f 803 865 864
f 803 864 922
f 803 922 866
f 803 866 804
f 804 866 867
f 804 867 868
f 804 868 805
f 805 868 869
f 805 869 806
f 806 869 870
f 806 870 808
f 806 808 807
f 808 870 809
f 809 870 810
f 810 871 872
f 810 872 811
f 810 870 873
f 810 873 871
f 812 816 817
f 813 874 814
f 814 874 875
f 814 875 876
f 814 876 877
f 814 877 815
f 815 877 818
f 815 818 817
f 815 817 816
f 818 877 819
f 819 877 878
f 824 879 825
f 825 879 826
f 828 829 880
f 828 880 830
f 830 880 881
f 830 881 831
f 831 882 832
f 832 882 883
f 832 883 833
f 833 883 884
f 833 884 885
f 833 885 834
f 834 885 886
f 834 886 887
f 834 887 888
f 834 888 835
f 835 888 836
f 836 888 837
f 837 888 887
f 837 887 886
f 837 886 889
f 837 889 890
f 837 890 838
f 838 890 891
f 838 891 892
f 838 892 893
f 838 893 840
f 838 840 839
f 840 893 841
f 841 893 894
f 841 894 847
f 841 847 846
f 842 848 895
f 842 895 843
f 843 895 896
f 843 896 844
f 844 896 895
f 844 895 897
f 844 897 898
f 844 898 899
f 844 899 900
f 844 900 901
f 844 901 902
f 844 902 849
f 847 894 903
f 847 903 904
f 847 904 905
f 847 905 906
f 847 906 848
f 848 906 895
f 849 902 907
f 849 907 858
f 849 858 857
f 849 857 850
f 851 859 852
f 852 859 908
f 852 908 909
f 852 909 910
f 852 910 854
f 852 854 853
f 854 911 912
f 854 912 913
f 854 913 914
f 854 914 915
f 854 915 855
f 854 910 916
f 854 916 911
f 855 915 856
f 856 915 860
f 858 907 917
f 858 917 859
f 859 917 918
f 859 918 908
f 860 915 914
f 860 914 861
f 861 914 919
f 861 919 920
f 861 920 862
f 862 920 921
f 862 921 864
f 862 864 863
f 864 921 922
f 866 922 867
f 867 922 923
f 867 923 924
f 867 924 925
f 867 925 868
f 868 925 869
f 869 925 870
f 870 925 873
f 871 873 926
f 871 926 872
f 872 926 927
f 873 925 926
f 875 878 876
f 876 878 877
f 885 889 886
f 889 928 890
f 890 928 929
f 890 929 891
f 891 929 892
f 892 929 930
f 892 930 931
f 892 931 893
f 893 931 932
f 893 932 933
f 893 933 934
f 893 934 935
f 893 935 936
f 893 936 894
f 894 936 903
f 895 906 937
f 895 937 938
f 895 938 897
f 897 939 940
f 897 940 899
f 897 899 898
f 897 938 939
f 899 940 941
f 899 941 942
f 899 942 901
f 899 901 900
f 901 942 943
f 901 943 944
f 901 944 907
f 901 907 902
f 903 936 945
f 903 945 905
f 903 905 904
f 905 946 906
f 905 945 947
f 905 947 948
f 905 948 949
f 905 949 937
f 905 937 946
f 906 946 937
f 907 944 950
f 907 950 918
f 907 918 917
f 908 918 909
f 909 951 952
f 909 952 916
f 909 916 910
f 909 918 953
f 909 953 950
f 909 950 954
f 909 954 951
f 911 916 955
f 911 955 956
f 911 956 957
f 911 957 912
f 912 958 920
f 912 920 959
f 912 959 913
f 913 959 919
f 913 919 914
f 916 952 960
f 916 960 955
f 918 950 953
f 919 959 961
f 919 961 920
f 920 961 959
f 920 958 962
f 920 962 963
f 920 963 923
f 920 923 964
f 920 964 921
f 921 964 922
f 922 964 923
f 923 963 965
f 923 965 924
f 924 965 958
f 924 958 927
f 924 927 966
f 924 966 926
f 924 926 925
f 926 966 927
f 930 932 931
f 932 967 934
f 932 934 933
f 934 967 968
f 934 968 969
f 934 969 970
f 934 970 935
f 935 970 936
f 936 970 945
f 937 949 971
f 937 971 972
f 937 972 938
f 938 972 939
f 939 972 973
f 939 973 974
f 939 974 940
f 940 974 941
f 941 974 975
f 941 975 943
f 941 943 942
f 943 975 976
f 943 976 954
f 943 954 950
f 943 950 944
f 945 970 977
f 945 977 947
f 947 977 978
f 947 978 948
f 948 978 949
f 949 978 979
f 949 979 971
f 951 980 981
f 951 981 955
f 951 955 960
f 951 960 952
f 951 954 976
f 951 976 980
f 955 982 983
f 955 983 984
f 955 984 956
f 955 981 982
f 958 965 962
f 962 965 963
f 968 985 986
f 968 986 969
f 969 986 987
f 969 987 970
f 970 987 977
f 971 979 972
f 972 979 973
f 973 979 988
f 973 988 978
f 973 978 989
f 973 989 974
f 974 990 991
f 974 991 992
f 974 992 993
f 974 993 994
f 974 994 995
f 974 995 996
f 974 996 997
f 974 997 998
f 974 998 999
f 974 999 975
f 974 989 1000
f 974 1000 990
f 975 999 1001
f 975 1001 976
f 976 1001 980
f 977 987 1002
f 977 1002 978
f 978 1002 989
f 978 988 979
f 980 1003 983
f 980 983 981
f 980 1001 1003
f 981 983 982
f 983 1003 1001
f 983 1001 998
f 983 998 1004
f 985 987 986
f 987 1005 1002
f 989 1002 1006
f 989 1006 1000
f 997 1004 998
f 998 1001 999
f 1000 1006 1007
f 1002 1005 1008
f 1002 1008 1006
f 1006 1009 1007
f 1006 1008 1009

