# https://github.com/mikedh/trimesh
v -0.02184762 0.03870262 -0.02350338
v -0.02155744 0.03715459 -0.01598693
v -0.02179857 0.03870262 -0.02217990
v -0.02183127 0.04025065 -0.02350338
v -0.02173727 0.03715459 -0.02350338
v -0.02147570 0.03561241 -0.01598693
v -0.02143483 0.03561241 -0.01443772
v -0.02110379 0.03715459 -0.00515212
v -0.02115692 0.03870262 -0.00669940
v -0.02147979 0.03870262 -0.01443772
v -0.02145527 0.04025065 -0.01443772
v -0.02182718 0.04047263 -0.02350338
v -0.02097300 0.03096832 -0.02350338
v -0.02096892 0.03096832 -0.01753421
v -0.02115692 0.03251634 -0.01598693
v -0.02128770 0.03406437 -0.01443772
v -0.02074005 0.03251634 -0.00379777
v -0.02087492 0.03406437 -0.00379777
v -0.02100979 0.03715459 -0.00379777
v -0.02109153 0.03870262 -0.00515212
v -0.02095666 0.03561241 -0.00379777
v -0.02174544 0.04179868 -0.02217990
v -0.02180266 0.04179868 -0.02350338
v -0.02159831 0.04270413 -0.01973358
v -0.02076457 0.02942028 -0.02350338
v -0.02096075 0.03096832 -0.01598693
v -0.02074413 0.02942028 -0.01753421
v -0.02111196 0.03251634 -0.01443772
v -0.02054387 0.03096832 -0.00379777
v -0.02098118 0.03850985 -0.00379777
v -0.02097709 0.03870262 -0.00379777
v -0.02085040 0.04160591 -0.00379777
v -0.02144301 0.04489474 -0.01908341
v -0.02156970 0.04373226 -0.02029693
v -0.02174136 0.04334671 -0.02350338
v -0.02179449 0.04202066 -0.02350338
v -0.02168005 0.04334671 -0.02217990
v -0.02037222 0.02787225 -0.02350338
v -0.02017605 0.02672730 -0.01753421
v -0.02046622 0.02787225 -0.01753421
v -0.02071553 0.02942028 -0.01598693
v -0.02012700 0.02815265 -0.00379777
v -0.02029866 0.02925088 -0.00379777
v -0.02032318 0.02942028 -0.00379777
v -0.02045396 0.02787225 -0.01598693
v -0.02054796 0.04644277 -0.00379777
v -0.02133675 0.04644277 -0.01908341
v -0.02164327 0.04489474 -0.02350338
v -0.02159423 0.04417038 -0.02132909
v -0.02173318 0.04350443 -0.02350338
v -0.02011883 0.02713621 -0.02350338
v -0.02018013 0.02670977 -0.01598693
v -0.01346116 0.00617063 -0.00379777
v -0.01999213 0.02738156 -0.00379777
v -0.02015970 0.02672145 -0.01443772
v -0.01951804 0.02477620 -0.00515212
v -0.01948535 0.02477620 -0.00379777
v -0.01983274 0.02632423 -0.00515212
v -0.02034361 0.04799080 -0.00379777
v -0.02044170 0.04799080 -0.00515212
v -0.02100570 0.04953883 -0.01753421
v -0.02113649 0.04799080 -0.01753421
v -0.02121005 0.04799080 -0.01908341
v -0.02140622 0.04799080 -0.02350338
v -0.02153292 0.04642525 -0.02350338
v -0.02155744 0.04610396 -0.02350338
v -0.02007387 0.02700769 -0.02350338
v -0.01904396 0.02322816 -0.00379777
v -0.01284402 0.00617063 -0.00515212
v 0.01457136 0.00617063 -0.00379777
v -0.01979187 0.02623076 -0.02350338
v -0.01921970 0.02477620 -0.02350338
v -0.01869656 0.02361371 -0.02350338
v -0.01776474 0.02183786 -0.02350338
v -0.01767891 0.02168013 -0.02350338
v -0.01710673 0.02066953 -0.02350338
v -0.01702499 0.02055854 -0.02350338
v -0.01645690 0.01989260 -0.02350338
v -0.01975100 0.02613145 -0.00379777
v -0.02010657 0.04888457 -0.00379777
v -0.02096892 0.05108686 -0.02063069
v -0.02106292 0.05108686 -0.02217990
v -0.02114466 0.04953883 -0.02063069
v -0.02138579 0.04821278 -0.02350338
v -0.01202663 0.00617063 -0.00688654
v 0.01419536 0.00617063 -0.00476241
v 0.01702763 0.02572254 -0.02350338
v 0.01734642 0.02647611 -0.02350338
v 0.01779190 0.02787225 -0.02350338
v 0.01817198 0.02942028 -0.02350338
v 0.01896486 0.02651700 -0.00379777
v -0.01568447 0.01908646 -0.02350338
v -0.00739609 0.00617063 -0.01627825
v -0.00781297 0.00617063 -0.01548532
v -0.02005344 0.04898388 -0.00379777
v -0.02034770 0.05225518 -0.01908341
v -0.02044988 0.05243043 -0.02063069
v -0.02083405 0.05108686 -0.01908341
v -0.02056840 0.05265242 -0.02350338
v -0.02112013 0.05108686 -0.02350338
v -0.02124275 0.04976081 -0.02350338
v 0.01386432 0.00617063 -0.00556499
v 0.01647589 0.02479372 -0.02350338
v 0.01844581 0.03074633 -0.02350338
v 0.01922642 0.02787225 -0.00379777
v -0.01420907 0.01767862 -0.02350338
v -0.00655827 0.00617063 -0.01762874
v -0.01968152 0.04966150 -0.00379777
v -0.02022100 0.05208578 -0.01753421
v -0.01875787 0.05377985 -0.01598693
v -0.02042535 0.05274004 -0.02229373
v -0.02005344 0.05342351 -0.02288408
v -0.02045396 0.05284519 -0.02350338
v 0.01331666 0.00617063 -0.00667432
v 0.01635328 0.02460095 -0.02350338
v 0.01849077 0.03098584 -0.02350338
v 0.01925912 0.02806503 -0.00379777
v -0.01409872 0.01757932 -0.02350338
v -0.00639887 0.00617063 -0.01779466
v -0.01900309 0.05066042 -0.00379777
v -0.02011883 0.05196311 -0.01635542
v -0.01816934 0.05455094 -0.01598693
v -0.01890909 0.05079478 -0.00379777
v -0.02007796 0.05344103 -0.02350338
v -0.01275820 0.06166020 -0.02350338
v 0.01269136 0.00617063 -0.00772578
v 0.01576885 0.02368381 -0.02350338
v 0.01863790 0.03193218 -0.02350338
v 0.01919781 0.02942028 -0.00824861
v 0.01929181 0.02942028 -0.00669940
v 0.01937355 0.02942028 -0.00515212
v 0.01943895 0.02942028 -0.00379777
v -0.01396794 0.01746833 -0.02350338
v -0.00544661 0.00617063 -0.01875544
v -0.01739691 0.05540966 -0.01598693
v -0.01818161 0.05157171 -0.00379777
v -0.01223507 0.05799750 -0.00614956
v -0.01196941 0.06232030 -0.02350338
v 0.00810169 0.00617063 -0.01404222
v 0.01507406 0.02277252 -0.02350338
v 0.01518441 0.02291272 -0.02350338
v 0.01914468 0.03096832 -0.01289237
v 0.01871146 0.03269159 -0.02350338
v 0.01934086 0.03251634 -0.01289237
v 0.01942260 0.03251634 -0.01134509
v 0.01956972 0.03251634 -0.00824861
v 0.01945938 0.02961306 -0.00379777
v -0.01248028 0.01628248 -0.02350338
v -0.01226367 0.01613644 -0.02350338
v -0.00695470 0.01257889 -0.02350338
v -0.00668088 0.01240364 -0.02350338
v -0.00378730 0.00617063 -0.01950592
v -0.01575395 0.05394925 -0.00379777
v -0.01266828 0.05652541 -0.00379777
v -0.01166289 0.05716799 -0.00379777
v -0.01120515 0.05826622 -0.00548589
v -0.01164246 0.05841226 -0.00667818
v -0.00809497 0.06439408 -0.02350338
v -0.01019567 0.06329585 -0.02350338
v -0.01158933 0.06254228 -0.02350338
v -0.01179776 0.06242545 -0.02350338
v -0.01505916 0.05462688 -0.00379777
v -0.01428672 0.05535709 -0.00379777
v -0.01418046 0.05545639 -0.00379777
v 0.00752543 0.00617063 -0.01480042
v 0.01441197 0.02205400 -0.02350338
v 0.00675708 0.00617063 -0.01576892
v 0.00607864 0.00617063 -0.01655221
v 0.01881364 0.03381903 -0.02350338
v 0.01937764 0.03406437 -0.01443772
v 0.01946755 0.03406437 -0.01289237
v 0.01963103 0.03251634 -0.00669940
v 0.01959425 0.03096832 -0.00379777
v 0.01978634 0.03406437 -0.00515212
v -0.00553244 0.01193631 -0.02350338
v -0.00375461 0.00617063 -0.01951171
v -0.00531174 0.01188374 -0.02350338
v -0.01133593 0.05734324 -0.00379777
v -0.01026923 0.05789819 -0.00379777
v -0.00963167 0.05822532 -0.00392896
v -0.00275738 0.06262991 -0.00920167
v -0.00328869 0.06281684 -0.01023383
v -0.00928427 0.05963315 -0.00739780
v -0.00710592 0.06483804 -0.02350338
v 0.01360684 0.02128290 -0.02350338
v 0.00606638 0.00617063 -0.01656378
v 0.00529394 0.00617063 -0.01723131
v 0.01883407 0.03406437 -0.02350338
v 0.01893216 0.03539042 -0.02350338
v 0.01894851 0.03561241 -0.02350338
v 0.01901799 0.03715459 -0.02350338
v 0.01905477 0.03870262 -0.02350338
v 0.01990077 0.03561241 -0.00379777
v 0.01973321 0.03251634 -0.00379777
v 0.01983538 0.03406437 -0.00379777
v -0.00211164 0.00617063 -0.01974130
v -0.00378730 0.01166175 -0.02350338
v -0.00976654 0.05810849 -0.00379777
v -0.00928019 0.05826037 -0.00379777
v -0.00223834 0.06234951 -0.00832192
v -0.00172338 0.06275842 -0.00888913
v -0.00223834 0.06293367 -0.00974959
v -0.00223834 0.06344773 -0.01134509
v -0.00223834 0.06390922 -0.01289237
v -0.00306391 0.06427724 -0.01502036
v -0.00378730 0.06342437 -0.01289237
v -0.00379956 0.06298041 -0.01139719
v -0.00688114 0.06492566 -0.02350338
v 0.01213553 0.01989260 -0.02350338
v 0.00434985 0.00617063 -0.01799144
v 0.01190666 0.01967646 -0.02350338
v 0.01906703 0.04002867 -0.02350338
v 0.01990486 0.03715459 -0.00379777
v -0.00196860 0.00617063 -0.01974515
v -0.00223834 0.01145730 -0.02350338
v -0.00225469 0.06007712 -0.00379777
v -0.00169477 0.06121623 -0.00579650
v -0.00104494 0.06275842 -0.00888913
v -0.00069347 0.06170109 -0.00669940
v -0.00069347 0.06344773 -0.01134509
v -0.00223834 0.06417793 -0.01405572
v -0.00308843 0.06580190 -0.02289759
v -0.00411835 0.06573180 -0.02326801
v -0.00470278 0.06565586 -0.02350338
v -0.00535670 0.06545725 -0.02350338
v 0.00356107 0.00617063 -0.01858952
v 0.01124457 0.01906309 -0.02350338
v 0.01906703 0.04179868 -0.02350338
v 0.01986399 0.04025065 -0.00379777
v 0.01917329 0.04334671 -0.02063069
v -0.00078747 0.00617063 -0.01974708
v -0.00069347 0.01142809 -0.02350338
v -0.00196860 0.06011217 -0.00379777
v -0.00069347 0.06024068 -0.00379777
v -0.00059947 0.06294535 -0.00966856
v 0.00163611 0.06115197 -0.00592191
v 0.00085550 0.06222099 -0.00824861
v -0.00001912 0.06268248 -0.00906855
v 0.00085550 0.06017642 -0.00379777
v 0.00249028 0.06007128 -0.00379777
v -0.00069347 0.06379823 -0.01289237
v 0.00085550 0.06285189 -0.01006020
v 0.00182819 0.06275842 -0.01035924
v -0.00127382 0.06429477 -0.01489303
v -0.00295356 0.06580190 -0.02289759
v -0.00350121 0.06584280 -0.02350338
v -0.00390582 0.06579022 -0.02350338
v 0.00240037 0.00617063 -0.01913550
v 0.00331994 0.01307543 -0.02350338
v 0.00419046 0.01368880 -0.02350338
v 0.00958935 0.01762605 -0.02350338
v 0.01036179 0.01828615 -0.02350338
v 0.01048848 0.01839714 -0.02350338
v 0.01904660 0.04334671 -0.02350338
v 0.01910790 0.04334671 -0.02217990
v 0.01985990 0.04044342 -0.00379777
v 0.01907112 0.04489474 -0.02217990
v 0.01912833 0.04489474 -0.02063069
v 0.01982312 0.04179868 -0.00379777
v -0.00064033 0.00617063 -0.01974130
v 0.00003402 0.01157997 -0.02350338
v 0.00088002 0.00617063 -0.01953293
v 0.00240037 0.06193475 -0.00824861
v 0.00389211 0.05983761 -0.00379777
v 0.00394933 0.05983177 -0.00381128
v 0.00085550 0.06261822 -0.00928463
v 0.00207341 0.06441160 -0.02063069
v 0.00085550 0.06525279 -0.02350338
v 0.00236767 0.06245466 -0.00982483
v 0.00394933 0.06191139 -0.00979589
v 0.00284994 0.06259486 -0.01134509
v -0.00077929 0.06555656 -0.02350338
v -0.00113077 0.06562082 -0.02350338
v -0.00186234 0.06573765 -0.02350338
v -0.00256938 0.06583112 -0.02350338
v 0.00069610 0.01179027 -0.02350338
v 0.00088410 0.01186621 -0.02350338
v 0.00244124 0.01259057 -0.02350338
v 0.01901390 0.04467276 -0.02350338
v 0.01896486 0.04622079 -0.02350338
v 0.01895668 0.04644277 -0.02350338
v 0.01900981 0.04644277 -0.02217990
v 0.01889946 0.04776882 -0.02350338
v 0.01888720 0.04799080 -0.02350338
v 0.01981086 0.04199146 -0.00379777
v 0.00537160 0.05948711 -0.00379777
v 0.00723934 0.05899642 -0.00379777
v 0.00859213 0.05864008 -0.00379777
v 0.00878830 0.05858750 -0.00379777
v 0.01024326 0.05818443 -0.00379777
v 0.01103614 0.05809681 -0.00424537
v 0.00394933 0.05982593 -0.00379777
v 0.00250254 0.06451675 -0.02215675
v 0.00241672 0.06476794 -0.02350338
v 0.00394933 0.06218010 -0.01134509
v 0.01125683 0.05822532 -0.00515212
v 0.01014109 0.05897889 -0.00669940
v 0.00920926 0.05955721 -0.00780681
v 0.00308698 0.06421298 -0.02162620
v 0.01891990 0.04799080 -0.02217990
v 0.01877277 0.04915328 -0.02350338
v 0.01967599 0.04353948 -0.00379777
v 0.01079500 0.05802087 -0.00379777
v 0.01148979 0.05778720 -0.00379777
v 0.00744778 0.06277011 -0.02350338
v 0.00704725 0.06228525 -0.01908341
v 0.00700638 0.06251307 -0.02049757
v 0.00747639 0.06257149 -0.02217990
v 0.01157970 0.05774631 -0.00379777
v 0.01202927 0.05785730 -0.00515212
v 0.01146118 0.05837136 -0.00669940
v 0.00938909 0.06116366 -0.01823646
v 0.00859213 0.06166604 -0.01908341
v 0.01953294 0.04508751 -0.00379777
v 0.01875233 0.04935190 -0.02350338
v 0.00772160 0.06265911 -0.02350338
v 0.00768482 0.06264743 -0.02330467
v 0.01333301 0.05691096 -0.00379777
v 0.01323901 0.05717383 -0.00515212
v 0.00950761 0.06123375 -0.01908341
v 0.00859213 0.06188802 -0.02063069
v 0.01937764 0.04644277 -0.00379777
v 0.01862564 0.05012299 -0.02350338
v 0.01864198 0.05021646 -0.02063069
v 0.01876051 0.04938111 -0.02217990
v 0.00849404 0.06229693 -0.02350338
v 0.01401554 0.05651373 -0.00379777
v 0.01405232 0.05654294 -0.00413733
v 0.01271588 0.05976751 -0.02217990
v 0.01157970 0.06063207 -0.02350338
v 0.00969152 0.06133891 -0.02063069
v 0.01876459 0.04943952 -0.02063069
v 0.01912425 0.04799080 -0.00379777
v 0.01847442 0.05095250 -0.02350338
v 0.01848668 0.05108686 -0.02063069
v 0.01850303 0.05108686 -0.01908341
v 0.01012883 0.06144990 -0.02350338
v 0.01457954 0.05595293 -0.00379777
v 0.01600589 0.05543303 -0.00824861
v 0.01529476 0.05633264 -0.00979589
v 0.01349240 0.05921840 -0.02217990
v 0.01292840 0.05978503 -0.02350338
v 0.01281805 0.05986098 -0.02350338
v 0.01136309 0.06075474 -0.02350338
v 0.01908338 0.04821278 -0.00379777
v 0.01844990 0.05108686 -0.02350338
v 0.01816790 0.05241291 -0.02350338
v 0.01879320 0.04971992 -0.00379777
v 0.01882590 0.04955051 -0.00379777
v 0.01811477 0.05263489 -0.02350338
v 0.01866242 0.05032745 -0.00379777
v 0.01480841 0.05572511 -0.00379777
v 0.01627154 0.05424718 -0.00379777
v 0.01648407 0.05403104 -0.00379777
v 0.01710120 0.05339430 -0.00379777
v 0.01609172 0.05555570 -0.00979589
v 0.01544598 0.05641442 -0.01134509
v 0.01359049 0.05926513 -0.02350338
v 0.01445693 0.05844730 -0.02217990
v 0.01807390 0.05263489 -0.01908341
v 0.01762024 0.05396094 -0.02350338
v 0.01766929 0.05263489 -0.00669940
v 0.01721972 0.05356955 -0.00669940
v 0.01759572 0.05263489 -0.00515212
v 0.01818016 0.05129132 -0.00379777
v 0.01752216 0.05420044 -0.02350338
v 0.01739955 0.05282182 -0.00379777
v 0.01712163 0.05342935 -0.00421064
v 0.01677833 0.05438153 -0.00824861
v 0.01593232 0.05696937 -0.02217990
v 0.01531111 0.05781641 -0.02350338
v 0.01453458 0.05849404 -0.02350338
v 0.01464902 0.05839473 -0.02350338
v 0.01674972 0.05574263 -0.02350338
v 0.01596502 0.05704531 -0.02350338
f 1 2 3
f 1 3 4
f 1 4 12
f 1 12 23
f 1 23 36
f 1 36 35
f 1 35 50
f 1 50 48
f 1 48 66
f 1 66 65
f 1 65 64
f 1 64 84
f 1 84 101
f 1 101 100
f 1 100 99
f 1 99 113
f 1 113 124
f 1 124 125
f 1 125 138
f 1 138 161
f 1 161 160
f 1 160 159
f 1 159 158
f 1 158 184
f 1 184 208
f 1 208 225
f 1 225 224
f 1 224 247
f 1 247 246
f 1 246 275
f 1 275 274
f 1 274 273
f 1 273 272
f 1 272 268
f 1 268 294
f 1 294 305
f 1 305 316
f 1 316 326
f 1 326 337
f 1 337 344
f 1 344 330
f 1 330 343
f 1 343 342
f 1 342 358
f 1 358 372
f 1 372 373
f 1 373 371
f 1 371 375
f 1 375 374
f 1 374 366
f 1 366 361
f 1 361 350
f 1 350 347
f 1 347 346
f 1 346 334
f 1 334 323
f 1 323 315
f 1 315 301
f 1 301 284
f 1 284 283
f 1 283 281
f 1 281 280
f 1 280 279
f 1 279 254
f 1 254 228
f 1 228 212
f 1 212 192
f 1 192 191
f 1 191 190
f 1 190 189
f 1 189 188
f 1 188 169
f 1 169 143
f 1 143 128
f 1 128 116
f 1 116 104
f 1 104 90
f 1 90 89
f 1 89 88
f 1 88 87
f 1 87 103
f 1 103 115
f 1 115 127
f 1 127 141
f 1 141 140
f 1 140 166
f 1 166 185
f 1 185 209
f 1 209 211
f 1 211 227
f 1 227 253
f 1 253 252
f 1 252 251
f 1 251 250
f 1 250 249
f 1 249 278
f 1 278 277
f 1 277 276
f 1 276 261
f 1 261 232
f 1 232 215
f 1 215 197
f 1 197 177
f 1 177 175
f 1 175 151
f 1 151 150
f 1 150 149
f 1 149 148
f 1 148 133
f 1 133 118
f 1 118 106
f 1 106 92
f 1 92 78
f 1 78 77
f 1 77 76
f 1 76 75
f 1 75 74
f 1 74 73
f 1 73 72
f 1 72 71
f 1 71 67
f 1 67 51
f 1 51 38
f 1 38 25
f 1 25 13
f 1 13 5
f 1 5 6
f 1 6 7
f 1 7 2
f 2 8 9
f 2 9 10
f 2 10 3
f 2 7 8
f 3 10 4
f 4 11 12
f 4 10 11
f 5 13 14
f 5 14 15
f 5 15 6
f 6 15 16
f 6 16 7
f 7 16 17
f 7 17 18
f 7 18 8
f 8 19 20
f 8 20 9
f 8 18 21
f 8 21 19
f 9 20 11
f 9 11 10
f 11 22 23
f 11 23 12
f 11 20 24
f 11 24 22
f 13 25 14
f 14 26 15
f 14 25 27
f 14 27 26
f 15 26 28
f 15 28 16
f 16 28 17
f 17 28 29
f 17 29 44
f 17 44 43
f 17 43 42
f 17 42 54
f 17 54 79
f 17 79 57
f 17 57 68
f 17 68 53
f 17 53 70
f 17 70 91
f 17 91 105
f 17 105 117
f 17 117 132
f 17 132 147
f 17 147 173
f 17 173 194
f 17 194 195
f 17 195 193
f 17 193 213
f 17 213 229
f 17 229 256
f 17 256 259
f 17 259 285
f 17 285 302
f 17 302 314
f 17 314 322
f 17 322 333
f 17 333 345
f 17 345 349
f 17 349 348
f 17 348 351
f 17 351 365
f 17 365 367
f 17 367 355
f 17 355 354
f 17 354 353
f 17 353 352
f 17 352 338
f 17 338 327
f 17 327 318
f 17 318 309
f 17 309 304
f 17 304 303
f 17 303 290
f 17 290 289
f 17 289 288
f 17 288 287
f 17 287 286
f 17 286 292
f 17 292 264
f 17 264 240
f 17 240 239
f 17 239 234
f 17 234 233
f 17 233 216
f 17 216 199
f 17 199 198
f 17 198 179
f 17 179 178
f 17 178 155
f 17 155 154
f 17 154 164
f 17 164 163
f 17 163 162
f 17 162 153
f 17 153 136
f 17 136 123
f 17 123 120
f 17 120 108
f 17 108 95
f 17 95 80
f 17 80 59
f 17 59 46
f 17 46 32
f 17 32 31
f 17 31 30
f 17 30 19
f 17 19 21
f 17 21 18
f 19 30 20
f 20 30 31
f 20 31 32
f 20 32 33
f 20 33 34
f 20 34 24
f 22 24 35
f 22 35 36
f 22 36 23
f 24 34 37
f 24 37 35
f 25 38 39
f 25 39 40
f 25 40 27
f 26 29 28
f 26 27 41
f 26 41 42
f 26 42 43
f 26 43 44
f 26 44 29
f 27 40 45
f 27 45 41
f 32 46 33
f 33 46 47
f 33 47 48
f 33 48 49
f 33 49 34
f 34 49 37
f 35 37 50
f 37 49 50
f 38 51 39
f 39 52 40
f 39 51 53
f 39 53 52
f 40 52 45
f 41 45 42
f 42 45 54
f 45 52 55
f 45 55 56
f 45 56 57
f 45 57 58
f 45 58 54
f 46 59 60
f 46 60 61
f 46 61 62
f 46 62 47
f 47 62 63
f 47 63 64
f 47 64 65
f 47 65 66
f 47 66 48
f 48 50 49
f 51 67 53
f 52 68 56
f 52 56 55
f 52 53 68
f 53 69 85
f 53 85 94
f 53 94 93
f 53 93 107
f 53 107 119
f 53 119 134
f 53 134 152
f 53 152 176
f 53 176 196
f 53 196 214
f 53 214 231
f 53 231 260
f 53 260 262
f 53 262 248
f 53 248 226
f 53 226 210
f 53 210 187
f 53 187 186
f 53 186 168
f 53 168 167
f 53 167 165
f 53 165 139
f 53 139 126
f 53 126 114
f 53 114 102
f 53 102 86
f 53 86 70
f 53 67 71
f 53 71 72
f 53 72 73
f 53 73 74
f 53 74 75
f 53 75 76
f 53 76 77
f 53 77 78
f 53 78 69
f 54 58 79
f 56 68 57
f 57 79 58
f 59 80 81
f 59 81 60
f 60 81 61
f 61 81 82
f 61 82 83
f 61 83 63
f 61 63 62
f 63 83 64
f 64 83 84
f 69 78 85
f 70 86 87
f 70 87 88
f 70 88 89
f 70 89 90
f 70 90 91
f 78 92 93
f 78 93 94
f 78 94 85
f 80 95 96
f 80 96 97
f 80 97 98
f 80 98 81
f 81 98 97
f 81 97 99
f 81 99 82
f 82 99 100
f 82 100 83
f 83 100 101
f 83 101 84
f 86 102 87
f 87 102 103
f 90 104 91
f 91 104 105
f 92 106 107
f 92 107 93
f 95 108 96
f 96 108 109
f 96 109 110
f 96 110 97
f 97 111 99
f 97 110 112
f 97 112 111
f 99 111 113
f 102 114 103
f 103 114 115
f 104 116 105
f 105 116 117
f 106 118 107
f 107 118 119
f 108 120 121
f 108 121 109
f 109 121 110
f 110 122 112
f 110 121 123
f 110 123 122
f 111 112 113
f 112 124 113
f 112 122 125
f 112 125 124
f 114 126 127
f 114 127 115
f 116 128 129
f 116 129 117
f 117 129 130
f 117 130 131
f 117 131 132
f 118 133 134
f 118 134 119
f 120 123 121
f 122 135 125
f 122 123 135
f 123 136 135
f 125 137 138
f 125 135 137
f 126 139 140
f 126 140 141
f 126 141 127
f 128 142 129
f 128 143 144
f 128 144 142
f 129 142 130
f 130 142 144
f 130 144 145
f 130 145 131
f 131 145 132
f 132 145 146
f 132 146 147
f 133 148 134
f 134 148 149
f 134 149 150
f 134 150 151
f 134 151 152
f 135 136 137
f 136 153 137
f 137 154 155
f 137 155 156
f 137 156 157
f 137 157 158
f 137 158 159
f 137 159 160
f 137 160 161
f 137 161 138
f 137 153 162
f 137 162 163
f 137 163 164
f 137 164 154
f 139 165 140
f 140 165 167
f 140 167 168
f 140 168 166
f 143 169 144
f 144 169 170
f 144 170 171
f 144 171 145
f 145 171 146
f 146 172 173
f 146 173 147
f 146 171 174
f 146 174 172
f 151 175 152
f 152 175 177
f 152 177 176
f 155 178 156
f 156 178 179
f 156 179 180
f 156 180 181
f 156 181 182
f 156 182 183
f 156 183 157
f 157 183 184
f 157 184 158
f 166 168 186
f 166 186 187
f 166 187 185
f 169 188 170
f 170 188 189
f 170 189 190
f 170 190 171
f 171 190 191
f 171 191 192
f 171 192 193
f 171 193 174
f 172 194 173
f 172 174 195
f 172 195 194
f 174 193 195
f 176 177 196
f 177 197 196
f 179 198 180
f 180 198 199
f 180 199 181
f 181 200 201
f 181 201 202
f 181 202 203
f 181 203 182
f 181 199 200
f 182 203 204
f 182 204 205
f 182 205 206
f 182 206 207
f 182 207 183
f 183 207 206
f 183 206 184
f 184 206 205
f 184 205 208
f 185 187 209
f 187 210 211
f 187 211 209
f 192 212 193
f 193 212 213
f 196 197 215
f 196 215 214
f 199 216 200
f 200 217 201
f 200 216 217
f 201 218 204
f 201 204 203
f 201 203 202
f 201 217 219
f 201 219 218
f 204 218 220
f 204 220 221
f 204 221 205
f 205 221 222
f 205 222 223
f 205 223 224
f 205 224 225
f 205 225 208
f 210 226 227
f 210 227 211
f 212 228 213
f 213 228 230
f 213 230 229
f 214 215 232
f 214 232 231
f 216 233 217
f 217 233 234
f 217 234 219
f 218 235 220
f 218 219 236
f 218 236 237
f 218 237 238
f 218 238 235
f 219 234 239
f 219 239 240
f 219 240 236
f 220 241 221
f 220 235 242
f 220 242 243
f 220 243 241
f 221 244 245
f 221 245 222
f 221 241 244
f 222 245 246
f 222 246 223
f 223 246 247
f 223 247 224
f 226 248 249
f 226 249 250
f 226 250 251
f 226 251 252
f 226 252 253
f 226 253 227
f 228 254 255
f 228 255 230
f 229 230 256
f 230 255 257
f 230 257 258
f 230 258 259
f 230 259 256
f 231 232 260
f 232 261 262
f 232 262 260
f 235 238 242
f 236 263 237
f 236 240 264
f 236 264 265
f 236 265 263
f 237 263 266
f 237 266 238
f 238 266 242
f 241 243 244
f 242 266 243
f 243 267 268
f 243 268 244
f 243 266 263
f 243 263 269
f 243 269 270
f 243 270 271
f 243 271 267
f 244 268 272
f 244 272 273
f 244 273 274
f 244 274 245
f 245 274 275
f 245 275 246
f 248 262 276
f 248 276 277
f 248 277 278
f 248 278 249
f 254 279 257
f 254 257 255
f 257 279 280
f 257 280 281
f 257 281 282
f 257 282 258
f 258 282 259
f 259 282 283
f 259 283 284
f 259 284 285
f 261 276 262
f 263 265 286
f 263 286 287
f 263 287 288
f 263 288 289
f 263 289 290
f 263 290 291
f 263 291 269
f 264 292 265
f 265 292 286
f 267 293 294
f 267 294 268
f 267 271 293
f 269 291 270
f 270 295 271
f 270 291 296
f 270 296 297
f 270 297 298
f 270 298 295
f 271 295 299
f 271 299 293
f 281 283 282
f 284 300 285
f 284 301 300
f 285 300 302
f 290 303 291
f 291 303 304
f 291 304 296
f 293 299 294
f 294 299 306
f 294 306 307
f 294 307 308
f 294 308 305
f 295 306 299
f 295 298 306
f 296 304 309
f 296 309 318
f 296 318 310
f 296 310 311
f 296 311 312
f 296 312 313
f 296 313 297
f 297 313 298
f 298 313 306
f 300 314 302
f 300 301 315
f 300 315 314
f 305 308 317
f 305 317 316
f 306 313 307
f 307 313 308
f 308 313 317
f 310 318 319
f 310 319 320
f 310 320 312
f 310 312 311
f 312 320 313
f 313 320 321
f 313 321 317
f 314 315 322
f 315 323 324
f 315 324 325
f 315 325 322
f 316 317 321
f 316 321 326
f 318 327 319
f 319 327 328
f 319 328 329
f 319 329 330
f 319 330 331
f 319 331 320
f 320 331 321
f 321 331 326
f 322 325 332
f 322 332 324
f 322 324 333
f 323 334 335
f 323 335 324
f 324 332 325
f 324 335 336
f 324 336 333
f 326 331 337
f 327 338 339
f 327 339 328
f 328 339 340
f 328 340 341
f 328 341 342
f 328 342 329
f 329 342 343
f 329 343 330
f 330 344 331
f 331 344 337
f 333 336 345
f 334 346 335
f 335 346 347
f 335 347 336
f 336 348 349
f 336 349 345
f 336 347 350
f 336 350 351
f 336 351 348
f 338 352 339
f 339 352 353
f 339 353 354
f 339 354 355
f 339 355 356
f 339 356 357
f 339 357 340
f 340 357 341
f 341 358 342
f 341 357 359
f 341 359 358
f 350 360 351
f 350 361 360
f 351 362 363
f 351 363 364
f 351 364 365
f 351 360 366
f 351 366 362
f 355 367 368
f 355 368 356
f 356 368 363
f 356 363 369
f 356 369 370
f 356 370 371
f 356 371 357
f 357 371 359
f 358 359 372
f 359 371 373
f 359 373 372
f 360 361 366
f 362 366 363
f 363 366 374
f 363 374 375
f 363 375 369
f 363 368 364
f 364 368 365
f 365 368 367
f 369 375 370
f 370 375 371

