# https://github.com/mikedh/trimesh
v -0.00223683 0.00616479 0.04176451
v -0.00378635 0.00619655 0.04167085
v -0.00378635 0.00616479 0.04167085
v -0.00069174 0.00616479 0.04174221
v -0.00069174 0.00619655 0.04174221
v -0.00069174 0.00774761 0.04156382
v -0.00223683 0.00774761 0.04155936
v -0.00533587 0.00774761 0.04141665
v -0.00533587 0.00619655 0.04155490
v -0.00533587 0.00616479 0.04155490
v 0.00085335 0.00616479 0.04168423
v 0.00085335 0.00774761 0.04153260
v 0.00549747 0.01239020 0.04086811
v -0.00223683 0.00929338 0.04128732
v -0.00533587 0.00929338 0.04117137
v -0.00688096 0.00774761 0.04126948
v -0.00688096 0.00616479 0.04126948
v 0.00237187 0.00616479 0.04157274
v 0.00240286 0.00774761 0.04146125
v 0.00394795 0.01239020 0.04083689
v 0.00549747 0.01084444 0.04101082
v 0.00670610 0.01239020 0.04067188
v 0.00644489 0.01325837 0.04057822
v 0.01270052 0.04435368 0.03283172
v -0.01307460 0.04769401 0.03295659
v -0.01462412 0.04774695 0.03291645
v -0.00223683 0.01084444 0.04097068
v -0.00378635 0.01084444 0.04091271
v -0.01238396 0.01789038 0.03899057
v -0.01252563 0.01703279 0.03904855
v -0.01260089 0.01548703 0.03908868
v -0.00827110 0.00774761 0.04081013
v -0.00690752 0.00616479 0.04126056
v 0.00391696 0.00616479 0.04136759
v 0.00394795 0.00619655 0.04136314
v 0.00394795 0.00774761 0.04133192
v 0.00685662 0.01084444 0.04072540
v 0.00549747 0.00929338 0.04103758
v 0.00859208 0.01239020 0.03998955
v 0.01711000 0.04722287 0.03123068
v 0.01633524 0.04644469 0.03163652
v 0.01633524 0.04746638 0.03137339
v 0.01478572 0.04644469 0.03190856
v 0.01169112 0.04513715 0.03263549
v 0.01478572 0.04769401 0.03145367
v 0.01478572 0.04846690 0.03107459
v -0.01462412 0.04852512 0.03262657
v -0.01549185 0.04743991 0.03283618
v -0.01558040 0.02140011 0.03753225
v -0.01462412 0.02012962 0.03800052
v -0.01462412 0.01858385 0.03820566
v -0.01616921 0.03405739 0.03515523
v -0.01771873 0.03405739 0.03474939
v -0.01330039 0.01703279 0.03878543
v -0.01462412 0.01703279 0.03826364
v -0.01337565 0.01548703 0.03878097
v -0.00824896 0.00616479 0.04077000
v 0.00394795 0.00616479 0.04136314
v 0.00549747 0.00774761 0.04103311
v 0.00676808 0.00929338 0.04071202
v 0.00763138 0.01084444 0.04044444
v 0.00859208 0.01084444 0.04006536
v 0.01006191 0.01239020 0.03934735
v 0.01798216 0.04644469 0.03088729
v 0.01892072 0.04771519 0.02994183
v 0.01787591 0.04798516 0.03045915
v 0.01712328 0.05032499 0.02968762
v 0.01065958 0.01393597 0.03886124
v 0.01169112 0.01548703 0.03816552
v 0.01633524 0.05036734 0.02972330
v 0.01478572 0.04954152 0.03036996
v -0.01462412 0.04920802 0.03185058
v -0.01555826 0.04893803 0.03155624
v 0.00394795 0.05324183 0.02799740
v 0.00240286 0.05327889 0.02801970
v -0.00223683 0.05331594 0.02804646
v -0.00223683 0.05409412 0.02727047
v -0.00223683 0.05486700 0.02649002
v -0.00223683 0.05556047 0.02571849
v -0.01578847 0.04796928 0.03204235
v -0.01883881 0.03549729 0.03356311
v -0.01852005 0.03490968 0.03434356
v -0.01570436 0.02012962 0.03762590
v -0.01573977 0.01858385 0.03767496
v -0.01569108 0.01703279 0.03767050
v -0.01462412 0.01548703 0.03813877
v -0.00902372 0.00616479 0.04042213
v 0.00550190 0.00616479 0.04096176
v 0.00660870 0.00774761 0.04066296
v 0.00754284 0.00929338 0.04040430
v 0.00859208 0.00929338 0.03993603
v 0.01002206 0.01084444 0.03936073
v 0.01083667 0.01239020 0.03892368
v 0.01909781 0.04644469 0.03011130
v 0.01263854 0.01656165 0.03751887
v 0.01275364 0.01548703 0.03758131
v 0.01352840 0.01548703 0.03712195
v 0.01864181 0.04874746 0.02965195
v 0.01993898 0.04658762 0.02885812
v 0.02020018 0.04719640 0.02812227
v 0.01749517 0.04954152 0.02988385
v 0.01707901 0.05185487 0.02807767
v 0.01604747 0.05201898 0.02828282
v 0.00549747 0.05410471 0.02716789
v -0.00378635 0.05545460 0.02563821
v -0.00998000 0.05375003 0.02562929
v -0.01110008 0.05355416 0.02532157
v -0.01317200 0.05318360 0.02432260
v -0.01708121 0.04910214 0.02830958
v -0.01375639 0.05337417 0.02331917
v -0.01540331 0.05186546 0.02504507
v 0.00549747 0.05487759 0.02647664
v 0.00394795 0.05488288 0.02647218
v 0.00704699 0.05526932 0.02562483
v -0.00223683 0.05630160 0.02426017
v -0.01702366 0.04732345 0.02989277
v -0.01684215 0.04644469 0.03096310
v -0.01956930 0.03560845 0.03200221
v -0.01910887 0.03405739 0.03354973
v -0.01854219 0.03405739 0.03436140
v -0.01730257 0.02012962 0.03623893
v -0.01647469 0.02012962 0.03701046
v -0.01651011 0.01858385 0.03697033
v -0.01646583 0.01703279 0.03684099
v -0.01553612 0.01548703 0.03755009
v -0.01000213 0.00616479 0.03969966
v 0.00643604 0.00616479 0.04060498
v 0.00721965 0.00616479 0.04023929
v 0.00859208 0.00774761 0.03976656
v 0.00987597 0.00929338 0.03927599
v 0.01079682 0.01084444 0.03889246
v 0.01169112 0.01239020 0.03835283
v 0.01355054 0.01393597 0.03713087
v 0.01990356 0.04489363 0.02921490
v 0.01463963 0.01548703 0.03634597
v 0.01541439 0.01548703 0.03574390
v 0.01997439 0.02632327 0.03106568
v 0.02087311 0.02632327 0.03029415
v 0.02079785 0.02786904 0.03022279
v 0.02157261 0.02786904 0.02949140
v 0.02228982 0.02786904 0.02871987
v 0.01465734 0.01393597 0.03635935
v 0.02042154 0.04756167 0.02708762
v 0.01855769 0.05011324 0.02768522
v 0.02037727 0.04489363 0.02844337
v 0.02029315 0.04616413 0.02831404
v 0.02057649 0.04658762 0.02750683
v 0.01867280 0.05034087 0.02665503
v 0.01875692 0.05045204 0.02580768
v 0.01719854 0.05192370 0.02704302
v 0.01558705 0.05342711 0.02201247
v 0.01247473 0.05496228 0.02041144
v 0.01647249 0.05219367 0.02748007
v 0.00953065 0.05504170 0.02517886
v 0.00859208 0.05517403 0.02541969
v 0.00704699 0.05479818 0.02640082
v -0.00378635 0.05609514 0.02426017
v -0.00998000 0.05431645 0.02426017
v -0.01158264 0.05376061 0.02432260
v -0.01272486 0.05355416 0.02384987
v -0.01590358 0.05231543 0.02271265
v -0.01700595 0.05502582 0.01285224
v -0.01720960 0.04931389 0.02735520
v -0.01885209 0.04931918 0.02116513
v -0.01867943 0.04904391 0.02232911
v -0.01941877 0.04799046 0.02116513
v -0.01952502 0.04644469 0.02271265
v -0.02006072 0.04107687 0.02663273
v -0.02018468 0.04025104 0.02698058
v -0.01991019 0.04025104 0.02775657
v -0.01458428 0.05313066 0.02276616
v 0.00704699 0.05562400 0.02426017
v -0.00077586 0.05644982 0.02258778
v 0.00248698 0.06007073 -0.00379584
v 0.00085335 0.06017660 -0.00379584
v -0.00069174 0.06024542 -0.00379584
v -0.00196678 0.06011308 -0.00379584
v -0.00225454 0.06008132 -0.00379584
v -0.01716976 0.04644469 0.03019157
v -0.02002973 0.03941993 0.02809551
v -0.02037062 0.03882703 0.02749345
v -0.02003415 0.03462911 0.03119501
v -0.01987035 0.03408916 0.03187734
v -0.01982165 0.03251692 0.03212263
v -0.01987477 0.02168068 0.03233223
v -0.01924611 0.02168068 0.03354973
v -0.01863516 0.02168068 0.03455317
v -0.01855990 0.03251692 0.03438370
v -0.01805077 0.02168068 0.03532470
v -0.01807733 0.02012962 0.03527563
v -0.01721403 0.01858385 0.03619434
v -0.01709450 0.01703279 0.03606500
v -0.01699710 0.01598993 0.03594013
v -0.01640385 0.01547644 0.03653327
v -0.01541659 0.01465062 0.03743860
v -0.01162691 0.00616479 0.03841081
v -0.01085215 0.00616479 0.03903517
v 0.00856109 0.00616479 0.03959709
v 0.00859651 0.00616479 0.03957925
v 0.00956164 0.00619655 0.03908868
v 0.01064630 0.00929338 0.03879434
v 0.01169112 0.01084444 0.03829040
v 0.01276692 0.01239020 0.03762590
v 0.01543209 0.01393597 0.03575283
v 0.02164787 0.02632327 0.02956276
v 0.02225883 0.02632327 0.02879123
v 0.02296718 0.02786904 0.02735520
v 0.02243149 0.03251692 0.02735520
v 0.01354168 0.01239020 0.03707290
v 0.01268723 0.01084444 0.03759022
v 0.02110776 0.04644469 0.02580768
v 0.02058092 0.04782106 0.02580768
v 0.02008065 0.04859924 0.02580768
v 0.02090853 0.04489363 0.02735520
v 0.02139109 0.04489363 0.02580768
v 0.01940771 0.04954152 0.02580768
v 0.02012049 0.05014500 0.01807455
v 0.01887202 0.05060556 0.02426017
v 0.01871707 0.05190252 0.01759290
v 0.01581283 0.05356474 0.01961761
v 0.01568002 0.05348534 0.02116513
v 0.01478572 0.05388766 0.02116513
v 0.01148746 0.05778913 -0.00379584
v 0.01079682 0.05802206 -0.00379584
v 0.01024342 0.05818616 -0.00379584
v 0.00878688 0.05858848 -0.00379584
v 0.00859208 0.05864142 -0.00379584
v 0.00705584 0.05904375 -0.00379584
v 0.00537351 0.05948313 -0.00379584
v 0.00394795 0.05982721 -0.00379584
v 0.00859208 0.05543343 0.02426017
v 0.00979185 0.05511051 0.02426017
v 0.01478572 0.05405177 0.01961761
v -0.00797891 0.05505758 0.02369824
v -0.01832083 0.05009206 0.02116513
v -0.00928050 0.05826027 -0.00379584
v -0.00976749 0.05810676 -0.00379584
v -0.01026776 0.05789501 -0.00379584
v -0.01700595 0.05502582 0.01225018
v -0.01901590 0.05106082 0.00568995
v -0.01853776 0.05193958 0.01006046
v -0.01940549 0.04954152 0.01652257
v -0.01927267 0.04954152 0.01807455
v -0.01892735 0.04965798 0.01963991
v -0.01962242 0.04799046 0.01961761
v -0.02001644 0.04557653 0.02166462
v -0.02015369 0.04454425 0.02234249
v -0.02054771 0.04025104 0.02580768
v 0.00389040 0.05983780 -0.00379584
v -0.02090188 0.03870528 0.02580768
v -0.02072479 0.03715422 0.02735520
v -0.02092402 0.03560845 0.02735520
v -0.02069380 0.03405739 0.02890272
v -0.02078235 0.03251692 0.02890272
v -0.02087089 0.03096586 0.02890272
v -0.02095058 0.02942010 0.02890272
v -0.02043260 0.03096586 0.03045470
v -0.02048573 0.02942010 0.03045470
v -0.02011827 0.03096586 0.03142245
v -0.02013155 0.02942010 0.03145367
v -0.02018025 0.02322644 0.03155624
v -0.02015812 0.02168068 0.03155624
v -0.01986149 0.02009786 0.03196207
v -0.01917528 0.02012962 0.03354973
v -0.01860417 0.02012962 0.03449965
v -0.01772316 0.01703279 0.03509725
v -0.01805962 0.01861562 0.03497683
v -0.01736898 0.01547644 0.03520874
v -0.01689527 0.01495766 0.03580188
v -0.01587259 0.01405772 0.03670274
v -0.01573977 0.01239020 0.03626569
v -0.01397332 0.00616479 0.03600703
v -0.01327825 0.00616479 0.03678302
v -0.01252121 0.00616479 0.03761698
v -0.01250350 0.00616479 0.03763482
v 0.00954393 0.00616479 0.03909314
v 0.01033639 0.00619655 0.03857582
v 0.01049135 0.00774761 0.03869177
v 0.01452009 0.01239020 0.03629691
v 0.01529485 0.01239020 0.03561457
v 0.01615815 0.01393597 0.03497683
v 0.01853998 0.01858385 0.03264441
v 0.01850014 0.01703279 0.03257305
v 0.02209502 0.02477750 0.02866189
v 0.02286978 0.02632327 0.02735520
v 0.01842488 0.01548703 0.03247048
v 0.01900041 0.01548703 0.03169895
v 0.01890744 0.01393597 0.03158300
v 0.02295390 0.03251692 0.02580768
v 0.02285207 0.03405739 0.02580768
v 0.02269712 0.03560845 0.02580768
v 0.02314869 0.02786904 0.02580768
v 0.02334349 0.03096586 0.02377852
v 0.02329922 0.03328980 0.02348864
v 0.02174970 0.04099746 0.02657475
v 0.01140778 0.00619655 0.03779983
v 0.01256327 0.00968511 0.03750103
v 0.02165230 0.04647646 0.01817713
v 0.02115203 0.04799046 0.01807455
v 0.02184710 0.04295084 0.02536171
v 0.02224997 0.04179681 0.02426017
v 0.02246691 0.04179681 0.02271265
v 0.02212601 0.04334787 0.02271265
v 0.02049680 0.04936683 0.01807455
v 0.02170543 0.04179681 0.02643204
v 0.02162574 0.04341669 0.02584782
v 0.02013377 0.05013971 0.01652257
v 0.01945641 0.05108728 0.01652257
v 0.01924391 0.05122492 0.01809685
v 0.01669384 0.05315184 0.01807455
v 0.01875692 0.05193428 0.01652257
v 0.01401539 0.05651334 -0.00379584
v 0.01359038 0.05676215 -0.00379584
v 0.01333360 0.05691038 -0.00379584
v 0.01163799 0.05772032 -0.00379584
v -0.01133914 0.05733917 -0.00379584
v -0.01166233 0.05716447 -0.00379584
v -0.01266730 0.05652922 -0.00379584
v -0.01418140 0.05545460 -0.00379584
v -0.01428766 0.05535932 -0.00379584
v -0.01505799 0.05462878 -0.00379584
v -0.01575306 0.05395119 -0.00379584
v -0.01817916 0.05156902 -0.00379584
v -0.01890964 0.05079613 -0.00379584
v -0.01900262 0.05066379 -0.00379584
v -0.01967998 0.04965798 -0.00379584
v -0.02010499 0.04888510 -0.00379584
v -0.01976409 0.04954152 0.00259046
v -0.01975081 0.04954152 0.00413797
v -0.01994561 0.04794282 0.01664299
v -0.01981279 0.04799046 0.01807455
v -0.02021567 0.04499422 0.02115621
v -0.02060526 0.04334787 0.02116513
v -0.02085318 0.04025104 0.02426017
v -0.02117637 0.03870528 0.02426017
v -0.02109668 0.03715422 0.02580768
v -0.02124278 0.03560845 0.02580768
v -0.02105241 0.03405739 0.02735520
v -0.02114538 0.03251692 0.02735520
v -0.02123392 0.03096586 0.02735520
v -0.02131361 0.02942010 0.02735520
v -0.02101699 0.02786904 0.02890272
v -0.02104355 0.02632327 0.02890272
v -0.02051229 0.02786904 0.03045470
v -0.02053443 0.02632327 0.03045470
v -0.02055213 0.02477750 0.03045470
v -0.02052557 0.02322644 0.03045470
v -0.02040161 0.02168068 0.03045470
v -0.02009171 0.02059017 0.03142245
v -0.01939221 0.01393597 0.03045470
v -0.01910444 0.01548703 0.03200221
v -0.01885652 0.01861562 0.03364784
v -0.01844036 0.01812330 0.03423206
v -0.01852448 0.01915558 0.03437924
v -0.01854219 0.01443358 0.03287186
v -0.01834739 0.01703279 0.03405814
v -0.01821458 0.01548703 0.03381285
v -0.01812160 0.01392538 0.03345162
v -0.01728487 0.01393597 0.03483859
v -0.01709892 0.01239020 0.03454425
v -0.01698382 0.01146910 0.03437478
v -0.01674917 0.01393597 0.03561457
v -0.01651453 0.01239020 0.03532023
v -0.01683772 0.01043682 0.03413841
v -0.01560696 0.00774761 0.03457992
v -0.01475694 0.00616479 0.03499468
v 0.01030983 0.00616479 0.03858474
v 0.01140335 0.00616479 0.03779537
v 0.01583054 0.01084444 0.03463344
v 0.01602091 0.01239020 0.03483859
v 0.01217811 0.00619655 0.03714425
v 0.01401982 0.00848873 0.03587770
v 0.01693291 0.01393597 0.03411611
v 0.01879233 0.01265489 0.03142245
v 0.01945641 0.01393597 0.03045470
v 0.02302031 0.02632327 0.02580768
v 0.02331250 0.02704851 0.02367148
v 0.02019575 0.01324249 0.02806875
v 0.02026216 0.01292487 0.02703410
v 0.01755715 0.01393597 0.03334013
v 0.01833191 0.01393597 0.03235453
v 0.02315755 0.03390388 0.02410854
v 0.02300259 0.03560845 0.02426017
v 0.02283436 0.03715422 0.02426017
v 0.02264842 0.03870528 0.02426017
v 0.02246248 0.04025104 0.02426017
v 0.02194449 0.04179681 0.02566051
v 0.02333021 0.02786904 0.02376514
v 0.02335234 0.02942010 0.02383649
v 0.02341875 0.03096586 0.02271265
v 0.02339219 0.03251692 0.02271265
v 0.02334792 0.03390388 0.02272603
v 0.02327265 0.03432208 0.02324781
v 0.01216040 0.00616479 0.03715318
v 0.02181168 0.04597885 0.01772670
v 0.02181168 0.04597885 0.01699976
v 0.02111661 0.04799046 0.01652257
v 0.02270597 0.04025104 0.02271265
v 0.02283879 0.04025104 0.02116513
v 0.02258201 0.04179681 0.02116513
v 0.01866395 0.05032499 -0.00379584
v 0.01818138 0.05129374 -0.00379584
v 0.01734907 0.05292421 -0.00379584
v 0.01710115 0.05339534 -0.00379584
v 0.01632639 0.05418940 -0.00379584
v 0.01626883 0.05424764 -0.00379584
v 0.01457765 0.05595751 -0.00379584
v -0.02014040 0.04875805 -0.00379584
v -0.02009171 0.04886393 -0.00205210
v -0.02007842 0.04883746 -0.00081230
v -0.02034406 0.04799046 -0.00379584
v -0.02007842 0.04739227 0.01620148
v -0.02124720 0.04025104 0.02116513
v -0.02092845 0.04179681 0.02116513
v -0.02106569 0.04025104 0.02271265
v -0.02134460 0.03870528 0.02271265
v -0.02132689 0.03715422 0.02426017
v -0.02157925 0.03314688 0.02487114
v -0.02161466 0.03211460 0.02515211
v -0.02135788 0.03405739 0.02580768
v -0.02149070 0.03096586 0.02609310
v -0.02164565 0.03096586 0.02531712
v -0.02153054 0.02942010 0.02621351
v -0.02135346 0.02786904 0.02735520
v -0.02133575 0.02632327 0.02735520
v -0.02098600 0.02477750 0.02890272
v -0.02083990 0.02322644 0.02890272
v -0.01967555 0.01393597 0.02890272
v -0.01961357 0.01548703 0.03045470
v -0.01903803 0.01239020 0.03045470
v -0.01855547 0.01142675 0.03135556
v -0.01867058 0.01239020 0.03163652
v -0.01879454 0.01392538 0.03209587
v -0.01844922 0.01340130 0.03267563
v -0.01770102 0.01239020 0.03354973
v -0.01710778 0.00956336 0.03310822
v -0.01670933 0.00914515 0.03359433
v -0.01544758 0.00683709 0.03439262
v -0.01726273 0.01090796 0.03359433
v -0.01490304 0.00616479 0.03477615
v 0.01679567 0.01239020 0.03391988
v 0.01389586 0.00745646 0.03571715
v 0.01568002 0.00970629 0.03445951
v 0.01217368 0.00616479 0.03713980
v 0.01290417 0.00616479 0.03638164
v 0.01865509 0.01162261 0.03122177
v 0.01905797 0.01224198 0.03060633
v 0.01972204 0.01239020 0.02890272
v 0.02331250 0.02704851 0.02338606
v 0.02029315 0.01276606 0.02580768
v 0.01916422 0.00616479 0.01810131
v 0.01919521 0.00616479 0.01652257
v 0.01934573 0.01084444 0.02890272
v 0.01972204 0.01084444 0.02735520
v 0.02008065 0.01240079 0.02747561
v 0.01983715 0.01084444 0.02580768
v 0.02011607 0.01199317 0.02580768
v 0.02322838 0.03568257 0.02272603
v 0.02308671 0.03715422 0.02271265
v 0.02291405 0.03870528 0.02271265
v 0.02344974 0.03251692 0.02116513
v 0.02337005 0.02927717 0.02257440
v 0.02341875 0.03405739 0.02116513
v 0.02333463 0.03521142 0.02221762
v 0.02287863 0.04025104 0.01961761
v 0.02161688 0.04647646 0.01650028
v 0.02311770 0.03870528 0.01807455
v 0.01934573 0.04663527 -0.00379584
v 0.01912437 0.04799046 -0.00379584
v 0.01879233 0.04972151 -0.00379584
v 0.02306015 0.03870528 0.02116513
v 0.02312656 0.03870528 0.01961761
v -0.02061412 0.04489363 0.01342754
v -0.02029093 0.04644469 0.01497506
v -0.02054771 0.04644469 -0.00379584
v -0.02145086 0.03870528 0.02116513
v -0.02145971 0.03715422 0.02271265
v -0.02144643 0.03560845 0.02426017
v -0.02164565 0.03258574 0.02431814
v -0.02173420 0.03096586 0.02426017
v -0.02165450 0.02942010 0.02544199
v -0.02153940 0.02786904 0.02612432
v -0.02160581 0.02687911 0.02517440
v -0.02151284 0.02634444 0.02573633
v -0.02120293 0.02477750 0.02735520
v -0.01998988 0.01546056 0.02735520
v -0.02002530 0.01490472 0.02580768
v -0.01978180 0.01393597 0.02735520
v -0.01928153 0.01239020 0.02890272
v -0.02134017 0.02477750 0.02580768
v -0.01867058 0.01109854 0.03045470
v -0.01831640 0.01239020 0.03240805
v -0.01709007 0.00616479 0.03041010
v -0.01701481 0.00676298 0.03138231
v -0.01681116 0.00774761 0.03249724
v -0.01693954 0.00853108 0.03276482
v -0.01624890 0.00774761 0.03354973
v -0.01572207 0.00627066 0.03355419
v -0.01561581 0.00616479 0.03367014
v 0.01550736 0.00867401 0.03424544
v 0.01367893 0.00616479 0.03542281
v 0.01708786 0.01015096 0.03274698
v 0.01853556 0.01084444 0.03096756
v 0.01872593 0.00988627 0.02985263
v 0.01885874 0.01084444 0.03019157
v 0.02294504 0.02632327 0.02116513
v 0.02314427 0.02786904 0.02116513
v 0.02326823 0.02786904 0.02227114
v 0.02328594 0.03187109 0.01896203
v 0.02334792 0.03134701 0.01998777
v 0.02339219 0.03088646 0.02108485
v 0.01915094 0.00616479 0.01497506
v 0.01901812 0.00616479 0.01345876
v 0.01885431 0.00616479 0.01191124
v 0.01871707 0.00616479 0.01068928
v 0.01905354 0.00616479 0.01961761
v 0.01887645 0.00934102 0.02881798
v 0.01923063 0.00929338 0.02735520
v 0.01863738 0.00616479 0.02426017
v 0.01870379 0.00616479 0.02364026
v 0.01941657 0.00929338 0.02580768
v 0.02329036 0.03624370 0.02167354
v 0.02337891 0.03243751 0.01952842
v 0.02340990 0.03405739 0.01961761
v 0.02337005 0.03560845 0.01961761
v 0.02334792 0.03568257 0.02116067
v 0.02326823 0.03747713 0.01961761
v 0.02331693 0.03668308 0.01869445
v 0.02324609 0.03718069 0.01813699
v 0.01981059 0.04199268 -0.00379584
v 0.01967777 0.04353844 -0.00379584
v 0.01953168 0.04508950 -0.00379584
v 0.01937672 0.04644469 -0.00379584
v 0.02323724 0.03707481 0.02116067
v -0.02084875 0.04160623 -0.00379584
v -0.02153497 0.03715422 0.01961761
v -0.02153054 0.03715422 0.02116513
v -0.02171649 0.03251692 0.02271265
v -0.02176961 0.03096586 0.02271265
v -0.02173862 0.02942010 0.02426017
v -0.02162351 0.02786904 0.02534833
v -0.02168992 0.02786904 0.02426017
v -0.02162794 0.02664089 0.02426017
v -0.02156596 0.02586801 0.02426017
v -0.02013155 0.01535998 0.02422449
v -0.02003415 0.01475650 0.02471505
v -0.01994118 0.01407890 0.02422449
v -0.01986149 0.01393597 0.02580768
v -0.02143314 0.02477750 0.02426017
v -0.01947633 0.01239020 0.02580768
v -0.01938778 0.01239020 0.02735520
v -0.01758591 0.00616479 0.02732398
v -0.01740440 0.00616479 0.02887596
v -0.01848906 0.01008214 0.02961627
v -0.01739997 0.00616479 0.02890272
v -0.01711220 0.00616479 0.03031644
v -0.01658980 0.00616479 0.03180599
v -0.01653224 0.00616479 0.03194424
v -0.01655881 0.00622832 0.03193978
v -0.01573092 0.00616479 0.03346500
v 0.01745975 0.00929338 0.03171233
v 0.01422347 0.00619655 0.03463790
v 0.01420576 0.00616479 0.03464236
v 0.01823894 0.00934102 0.03040118
v 0.01852228 0.00885400 0.02927287
v 0.02273254 0.02632327 0.01961761
v 0.02293619 0.02786904 0.01961761
v 0.01861525 0.00616479 0.00990883
v 0.01946084 0.02961067 -0.00379584
v 0.02333906 0.03290336 0.01862310
v 0.01869494 0.00844638 0.02824268
v 0.01859311 0.00616479 0.02456788
v 0.02331250 0.03650838 0.02063888
v 0.02335234 0.03405739 0.01851606
v 0.02333463 0.03560845 0.01856958
v 0.02332135 0.03670425 0.01961761
v 0.01985929 0.04044162 -0.00379584
v 0.01981944 0.04179681 -0.00379584
v 0.02323724 0.03560845 0.01779359
v -0.02097714 0.03870528 -0.00379584
v -0.02157925 0.03596313 0.01961761
v -0.02173862 0.03251692 0.02116513
v -0.02177847 0.03096586 0.02116513
v -0.02176076 0.02942010 0.02271265
v -0.02170321 0.02786904 0.02271265
v -0.02162794 0.02668854 0.02271265
v -0.02155268 0.02591565 0.02271265
v -0.02004743 0.01468768 0.02368040
v -0.02004743 0.01468768 0.02343958
v -0.01954274 0.01239020 0.02271265
v -0.01955159 0.01239020 0.02426017
v -0.02140658 0.02477750 0.02271265
v -0.01789139 0.00616479 0.02116513
v 0.01490083 0.00616479 0.03355419
v 0.01496724 0.00616479 0.03344716
v 0.01511776 0.00616479 0.03320187
v 0.01722068 0.00834580 0.03138677
v 0.01421462 0.00616479 0.03462898
v 0.01747303 0.00779526 0.03041456
v 0.01709229 0.00616479 0.02961181
v 0.01738006 0.00616479 0.02892056
v 0.01740220 0.00616479 0.02886258
v 0.01844701 0.00616479 0.00880729
v 0.01820352 0.00616479 0.00723747
v 0.01943871 0.02942010 -0.00379584
v 0.01959366 0.03096586 -0.00379584
v 0.01974861 0.03270749 -0.00379584
v 0.01983272 0.03405739 -0.00379584
v 0.01990356 0.03560845 -0.00379584
v 0.01973533 0.03251692 -0.00379584
v 0.01786262 0.00616479 0.02738642
v 0.01787148 0.00616479 0.02735520
v 0.01830977 0.00616479 0.02573633
v 0.01990356 0.03715422 -0.00379584
v 0.01986371 0.04025104 -0.00379584
v -0.02100813 0.03715422 -0.00379584
v -0.02174305 0.02942010 0.02116513
v -0.02164565 0.02776316 0.02108931
v -0.02160581 0.02694264 0.02155312
v -0.02153054 0.02638680 0.02108931
v -0.02133132 0.02477750 0.02116513
v -0.01989691 0.01407890 0.02283752
v -0.02123392 0.02477750 0.01961761
v -0.02029978 0.02925070 -0.00379584
v -0.02012713 0.02815490 -0.00379584
v -0.01852005 0.00840933 0.02021521
v -0.01795337 0.00616479 0.01961761
v 0.01547194 0.00616479 0.03261319
v 0.01574200 0.00616479 0.03211816
v 0.01664957 0.00616479 0.03045024
v 0.01792460 0.00616479 0.00568995
v 0.01792903 0.00619655 0.00568995
v 0.01925719 0.02806490 -0.00379584
v -0.02095501 0.03560845 -0.00379584
v -0.02087532 0.03405739 -0.00379584
v -0.02158367 0.02717556 0.02051847
v -0.02074250 0.03251692 -0.00379584
v -0.01940549 0.01239020 0.02116513
v -0.02000759 0.02747730 -0.00379584
v -0.01996775 0.02726026 -0.00379584
v -0.01979066 0.02632327 -0.00379584
v -0.02054328 0.03096586 -0.00379584
v -0.02051672 0.03077529 -0.00379584
v -0.01948518 0.02477750 -0.00379584
v -0.01616479 0.00616479 0.00413797
v 0.01757928 0.00616479 0.00416919
v 0.01922620 0.02786904 -0.00379584
v -0.01904689 0.02322644 -0.00379584
v -0.01585045 0.00616479 0.00259046
v -0.01616036 0.00616479 0.00411122
v 0.01724724 0.00616479 0.00279560
v 0.01896500 0.02651384 -0.00379584
v 0.01706130 0.00616479 0.00203299
v 0.01705687 0.00616479 0.00201961
v -0.01345977 0.00616479 -0.00379584
v -0.01360587 0.00616479 -0.00348812
v -0.01415484 0.00616479 -0.00212791
v -0.01550071 0.00616479 0.00156026
v -0.01584160 0.00616479 0.00256370
v 0.01668942 0.00616479 0.00104294
v 0.01457322 0.00617008 -0.00379584
v 0.01127053 0.00616479 -0.00379584
v 0.01464848 0.00616479 -0.00359961
f 1 2 3
f 1 3 10
f 1 10 17
f 1 17 33
f 1 33 57
f 1 57 87
f 1 87 126
f 1 126 197
f 1 197 196
f 1 196 275
f 1 275 274
f 1 274 273
f 1 273 272
f 1 272 366
f 1 366 440
f 1 440 499
f 1 499 560
f 1 560 558
f 1 558 557
f 1 557 493
f 1 493 556
f 1 556 555
f 1 555 553
f 1 553 552
f 1 552 593
f 1 593 627
f 1 627 645
f 1 645 650
f 1 650 649
f 1 649 659
f 1 659 658
f 1 658 657
f 1 657 656
f 1 656 655
f 1 655 662
f 1 662 663
f 1 663 660
f 1 660 654
f 1 654 653
f 1 653 651
f 1 651 646
f 1 646 631
f 1 631 604
f 1 604 603
f 1 603 568
f 1 568 515
f 1 515 514
f 1 514 513
f 1 513 512
f 1 512 452
f 1 452 451
f 1 451 516
f 1 516 520
f 1 520 519
f 1 519 572
f 1 572 613
f 1 613 612
f 1 612 611
f 1 611 602
f 1 602 601
f 1 601 600
f 1 600 630
f 1 630 629
f 1 629 628
f 1 628 596
f 1 596 595
f 1 595 594
f 1 594 598
f 1 598 563
f 1 563 501
f 1 501 445
f 1 445 444
f 1 444 394
f 1 394 368
f 1 368 367
f 1 367 276
f 1 276 199
f 1 199 198
f 1 198 128
f 1 128 127
f 1 127 88
f 1 88 58
f 1 58 34
f 1 34 18
f 1 18 11
f 1 11 4
f 1 4 5
f 1 5 6
f 1 6 7
f 1 7 8
f 1 8 2
f 2 9 10
f 2 10 3
f 2 8 9
f 4 11 5
f 5 11 12
f 5 12 6
f 6 12 13
f 6 13 7
f 7 14 15
f 7 15 8
f 7 13 14
f 8 15 16
f 8 16 9
f 9 16 17
f 9 17 10
f 11 18 19
f 11 19 12
f 12 19 13
f 13 20 14
f 13 19 21
f 13 21 22
f 13 22 23
f 13 23 24
f 13 24 25
f 13 25 26
f 13 26 20
f 14 20 27
f 14 27 28
f 14 28 15
f 15 28 26
f 15 26 29
f 15 29 16
f 16 30 31
f 16 31 32
f 16 32 17
f 16 29 30
f 17 32 33
f 18 34 35
f 18 35 36
f 18 36 21
f 18 21 19
f 20 26 27
f 21 37 22
f 21 36 35
f 21 35 38
f 21 38 37
f 22 37 39
f 22 39 40
f 22 40 41
f 22 41 23
f 23 41 24
f 24 41 42
f 24 42 43
f 24 43 44
f 24 44 25
f 25 44 45
f 25 45 46
f 25 46 47
f 25 47 26
f 26 47 48
f 26 48 29
f 26 28 27
f 29 49 50
f 29 50 51
f 29 51 30
f 29 48 52
f 29 52 53
f 29 53 49
f 30 54 31
f 30 51 54
f 31 54 55
f 31 55 56
f 31 56 32
f 32 57 33
f 32 56 57
f 34 58 35
f 35 58 38
f 37 38 59
f 37 59 60
f 37 60 61
f 37 61 39
f 38 58 59
f 39 61 62
f 39 62 63
f 39 63 40
f 40 64 65
f 40 65 66
f 40 66 67
f 40 67 42
f 40 42 41
f 40 63 68
f 40 68 69
f 40 69 64
f 42 46 45
f 42 45 43
f 42 67 46
f 43 45 44
f 46 67 70
f 46 70 71
f 46 71 47
f 47 72 73
f 47 73 48
f 47 71 70
f 47 70 74
f 47 74 75
f 47 75 76
f 47 76 77
f 47 77 78
f 47 78 79
f 47 79 72
f 48 73 80
f 48 80 81
f 48 81 82
f 48 82 53
f 48 53 52
f 49 83 51
f 49 51 50
f 49 53 82
f 49 82 83
f 51 84 55
f 51 55 54
f 51 83 84
f 55 85 86
f 55 86 87
f 55 87 56
f 55 84 85
f 56 87 57
f 58 88 59
f 59 88 60
f 60 88 89
f 60 89 90
f 60 90 62
f 60 62 61
f 62 90 91
f 62 91 92
f 62 92 63
f 63 92 93
f 63 93 69
f 63 69 68
f 64 94 65
f 64 69 95
f 64 95 96
f 64 96 97
f 64 97 94
f 65 98 66
f 65 94 99
f 65 99 100
f 65 100 98
f 66 98 101
f 66 101 67
f 67 101 98
f 67 98 102
f 67 102 103
f 67 103 70
f 69 93 96
f 69 96 95
f 70 103 104
f 70 104 74
f 72 79 105
f 72 105 106
f 72 106 107
f 72 107 108
f 72 108 73
f 73 109 80
f 73 108 110
f 73 110 111
f 73 111 109
f 74 104 112
f 74 112 75
f 75 112 76
f 76 112 77
f 77 112 113
f 77 113 78
f 78 113 79
f 79 113 112
f 79 112 114
f 79 114 115
f 79 115 105
f 80 109 116
f 80 116 117
f 80 117 81
f 81 118 119
f 81 119 82
f 81 117 118
f 82 119 120
f 82 120 121
f 82 121 122
f 82 122 83
f 83 122 84
f 84 122 123
f 84 123 85
f 85 124 125
f 85 125 86
f 85 123 124
f 86 125 87
f 87 125 126
f 88 127 89
f 89 127 90
f 90 127 91
f 91 127 128
f 91 128 129
f 91 129 130
f 91 130 92
f 92 130 131
f 92 131 93
f 93 131 132
f 93 132 133
f 93 133 97
f 93 97 96
f 94 134 99
f 94 97 135
f 94 135 136
f 94 136 137
f 94 137 138
f 94 138 139
f 94 139 140
f 94 140 141
f 94 141 134
f 97 133 142
f 97 142 135
f 98 100 143
f 98 143 144
f 98 144 102
f 99 145 146
f 99 146 100
f 99 134 141
f 99 141 145
f 100 146 147
f 100 147 143
f 102 144 148
f 102 148 149
f 102 149 150
f 102 150 151
f 102 151 152
f 102 152 153
f 102 153 154
f 102 154 155
f 102 155 103
f 103 156 112
f 103 112 104
f 103 155 156
f 105 115 157
f 105 157 106
f 106 157 158
f 106 158 107
f 107 158 159
f 107 159 160
f 107 160 108
f 108 160 110
f 109 111 161
f 109 161 162
f 109 162 163
f 109 163 164
f 109 164 165
f 109 165 166
f 109 166 167
f 109 167 168
f 109 168 169
f 109 169 170
f 109 170 116
f 110 171 111
f 110 160 158
f 110 158 162
f 110 162 171
f 111 171 162
f 111 162 161
f 112 156 114
f 114 156 155
f 114 155 172
f 114 172 115
f 115 172 173
f 115 173 174
f 115 174 175
f 115 175 176
f 115 176 177
f 115 177 178
f 115 178 157
f 116 179 117
f 116 170 180
f 116 180 179
f 117 179 118
f 118 180 181
f 118 181 182
f 118 182 183
f 118 183 119
f 118 179 180
f 119 183 184
f 119 184 185
f 119 185 186
f 119 186 187
f 119 187 188
f 119 188 120
f 120 188 189
f 120 189 121
f 121 189 190
f 121 190 191
f 121 191 123
f 121 123 122
f 123 191 124
f 124 192 193
f 124 193 194
f 124 194 125
f 124 191 192
f 125 194 195
f 125 195 196
f 125 196 197
f 125 197 126
f 128 198 129
f 129 198 199
f 129 199 200
f 129 200 130
f 130 200 201
f 130 201 131
f 131 201 202
f 131 202 132
f 132 202 203
f 132 203 133
f 133 203 142
f 135 142 136
f 136 142 204
f 136 204 205
f 136 205 138
f 136 138 137
f 138 205 140
f 138 140 139
f 140 205 141
f 141 205 206
f 141 206 207
f 141 207 208
f 141 208 146
f 141 146 145
f 142 203 209
f 142 209 210
f 142 210 204
f 143 147 211
f 143 211 212
f 143 212 213
f 143 213 144
f 144 213 148
f 146 214 147
f 146 208 214
f 147 214 215
f 147 215 211
f 148 213 216
f 148 216 149
f 149 216 217
f 149 217 218
f 149 218 150
f 150 218 219
f 150 219 220
f 150 220 221
f 150 221 151
f 151 221 222
f 151 222 152
f 152 223 224
f 152 224 225
f 152 225 226
f 152 226 227
f 152 227 228
f 152 228 229
f 152 229 230
f 152 230 231
f 152 231 232
f 152 232 154
f 152 154 153
f 152 222 233
f 152 233 223
f 154 232 231
f 154 231 155
f 155 231 172
f 157 178 162
f 157 162 234
f 157 234 158
f 158 160 159
f 158 234 162
f 162 235 163
f 162 178 236
f 162 236 237
f 162 237 238
f 162 238 239
f 162 239 240
f 162 240 241
f 162 241 242
f 162 242 243
f 162 243 244
f 162 244 164
f 162 164 235
f 163 235 164
f 164 166 165
f 164 244 243
f 164 243 166
f 166 243 245
f 166 245 246
f 166 246 167
f 167 246 247
f 167 247 248
f 167 248 168
f 168 248 169
f 169 248 181
f 169 181 180
f 169 180 170
f 172 231 174
f 172 174 173
f 174 249 230
f 174 230 229
f 174 229 228
f 174 228 227
f 174 227 226
f 174 226 225
f 174 225 224
f 174 224 223
f 174 223 315
f 174 315 314
f 174 314 313
f 174 313 312
f 174 312 407
f 174 407 406
f 174 406 405
f 174 405 404
f 174 404 403
f 174 403 402
f 174 402 401
f 174 401 470
f 174 470 469
f 174 469 468
f 174 468 533
f 174 533 532
f 174 532 531
f 174 531 530
f 174 530 578
f 174 578 577
f 174 577 615
f 174 615 614
f 174 614 609
f 174 609 608
f 174 608 607
f 174 607 610
f 174 610 606
f 174 606 569
f 174 569 605
f 174 605 633
f 174 633 647
f 174 647 652
f 174 652 661
f 174 661 662
f 174 662 655
f 174 655 648
f 174 648 644
f 174 644 641
f 174 641 640
f 174 640 639
f 174 639 625
f 174 625 624
f 174 624 643
f 174 643 642
f 174 642 637
f 174 637 635
f 174 635 634
f 174 634 616
f 174 616 580
f 174 580 535
f 174 535 475
f 174 475 411
f 174 411 408
f 174 408 327
f 174 327 326
f 174 326 325
f 174 325 324
f 174 324 323
f 174 323 322
f 174 322 321
f 174 321 320
f 174 320 319
f 174 319 318
f 174 318 317
f 174 317 316
f 174 316 238
f 174 238 237
f 174 237 236
f 174 236 178
f 174 178 177
f 174 177 176
f 174 176 175
f 174 231 249
f 181 248 250
f 181 250 251
f 181 251 182
f 182 251 252
f 182 252 253
f 182 253 254
f 182 254 255
f 182 255 183
f 183 255 256
f 183 256 257
f 183 257 258
f 183 258 259
f 183 259 184
f 184 259 260
f 184 260 261
f 184 261 185
f 185 261 262
f 185 262 263
f 185 263 264
f 185 264 186
f 186 264 265
f 186 265 187
f 187 265 190
f 187 190 189
f 187 189 188
f 190 265 192
f 190 192 191
f 192 266 193
f 192 265 267
f 192 267 266
f 193 266 268
f 193 268 269
f 193 269 194
f 194 269 195
f 195 269 270
f 195 270 271
f 195 271 272
f 195 272 273
f 195 273 274
f 195 274 275
f 195 275 196
f 199 276 200
f 200 276 277
f 200 277 278
f 200 278 201
f 201 278 202
f 202 278 210
f 202 210 203
f 203 210 209
f 204 210 279
f 204 279 280
f 204 280 370
f 204 370 281
f 204 281 282
f 204 282 205
f 205 282 283
f 205 283 206
f 206 284 285
f 206 285 207
f 206 283 286
f 206 286 287
f 206 287 288
f 206 288 284
f 207 289 290
f 207 290 291
f 207 291 208
f 207 285 292
f 207 292 293
f 207 293 294
f 207 294 289
f 208 291 295
f 208 295 214
f 210 278 277
f 210 277 296
f 210 296 297
f 210 297 279
f 211 298 299
f 211 299 212
f 211 215 300
f 211 300 301
f 211 301 302
f 211 302 303
f 211 303 298
f 212 299 304
f 212 304 217
f 212 217 213
f 213 217 216
f 214 295 305
f 214 305 306
f 214 306 215
f 215 306 300
f 217 307 308
f 217 308 309
f 217 309 218
f 217 304 307
f 218 309 219
f 219 310 220
f 219 309 308
f 219 308 311
f 219 311 312
f 219 312 310
f 220 310 312
f 220 312 313
f 220 313 314
f 220 314 221
f 221 314 315
f 221 315 233
f 221 233 222
f 223 233 315
f 230 249 231
f 238 316 239
f 239 316 317
f 239 317 318
f 239 318 319
f 239 319 320
f 239 320 321
f 239 321 322
f 239 322 323
f 239 323 324
f 239 324 325
f 239 325 326
f 239 326 327
f 239 327 240
f 240 328 329
f 240 329 241
f 240 327 328
f 241 329 242
f 242 329 330
f 242 330 331
f 242 331 243
f 243 331 245
f 245 331 246
f 246 331 332
f 246 332 333
f 246 333 247
f 247 333 334
f 247 334 248
f 248 334 250
f 250 335 336
f 250 336 252
f 250 252 251
f 250 334 335
f 252 337 338
f 252 338 253
f 252 336 337
f 253 338 339
f 253 339 254
f 254 339 340
f 254 340 255
f 255 340 341
f 255 341 256
f 256 341 342
f 256 342 257
f 257 342 258
f 258 342 343
f 258 343 344
f 258 344 259
f 259 344 260
f 260 344 345
f 260 345 261
f 261 345 346
f 261 346 262
f 262 346 347
f 262 347 348
f 262 348 349
f 262 349 263
f 263 349 350
f 263 350 351
f 263 351 264
f 264 352 353
f 264 353 354
f 264 354 265
f 264 351 355
f 264 355 352
f 265 354 267
f 266 356 357
f 266 357 268
f 266 267 354
f 266 354 353
f 266 353 356
f 268 357 358
f 268 358 359
f 268 359 269
f 269 359 360
f 269 360 361
f 269 361 362
f 269 362 270
f 270 362 271
f 271 362 363
f 271 363 272
f 272 364 365
f 272 365 366
f 272 363 361
f 272 361 364
f 276 367 277
f 277 367 368
f 277 368 296
f 279 297 280
f 280 369 370
f 280 297 371
f 280 371 372
f 280 372 369
f 281 370 373
f 281 373 282
f 282 373 283
f 283 373 286
f 284 288 374
f 284 374 375
f 284 375 285
f 285 376 377
f 285 377 292
f 285 375 378
f 285 378 379
f 285 379 376
f 286 373 380
f 286 380 381
f 286 381 288
f 286 288 287
f 288 381 374
f 289 294 382
f 289 382 290
f 290 382 383
f 290 383 291
f 291 383 384
f 291 384 385
f 291 385 386
f 291 386 387
f 291 387 305
f 291 305 295
f 292 377 388
f 292 388 389
f 292 389 293
f 293 389 390
f 293 390 391
f 293 391 294
f 294 392 393
f 294 393 382
f 294 391 392
f 296 368 394
f 296 394 297
f 297 394 371
f 298 303 395
f 298 395 396
f 298 396 299
f 299 396 397
f 299 397 307
f 299 307 304
f 300 387 301
f 300 306 387
f 301 387 386
f 301 386 398
f 301 398 302
f 302 398 399
f 302 399 400
f 302 400 303
f 303 400 395
f 305 387 306
f 307 401 402
f 307 402 403
f 307 403 404
f 307 404 308
f 307 397 401
f 308 404 311
f 311 404 405
f 311 405 406
f 311 406 407
f 311 407 312
f 327 408 409
f 327 409 329
f 327 329 328
f 329 409 410
f 329 410 330
f 330 410 411
f 330 411 412
f 330 412 413
f 330 413 414
f 330 414 333
f 330 333 331
f 331 333 332
f 333 414 415
f 333 415 334
f 334 415 335
f 335 415 413
f 335 413 416
f 335 416 417
f 335 417 336
f 336 417 337
f 337 418 419
f 337 419 420
f 337 420 338
f 337 417 418
f 338 420 419
f 338 419 339
f 339 419 421
f 339 421 340
f 340 421 341
f 341 421 422
f 341 422 423
f 341 423 424
f 341 424 342
f 342 424 343
f 343 425 426
f 343 426 347
f 343 347 346
f 343 346 345
f 343 345 344
f 343 424 425
f 347 426 348
f 348 426 427
f 348 427 428
f 348 428 429
f 348 429 349
f 349 429 350
f 350 429 428
f 350 428 430
f 350 430 431
f 350 431 432
f 350 432 433
f 350 433 351
f 351 433 355
f 352 355 357
f 352 357 356
f 352 356 353
f 355 433 434
f 355 434 358
f 355 358 357
f 358 434 435
f 358 435 359
f 359 435 360
f 360 435 361
f 361 363 362
f 361 435 364
f 364 436 437
f 364 437 438
f 364 438 365
f 364 435 439
f 364 439 436
f 365 438 366
f 366 438 440
f 369 441 370
f 369 372 442
f 369 442 443
f 369 443 441
f 370 441 373
f 371 394 444
f 371 444 445
f 371 445 442
f 371 442 372
f 373 441 380
f 374 446 447
f 374 447 375
f 374 381 441
f 374 441 443
f 374 443 446
f 375 447 448
f 375 448 378
f 376 379 377
f 377 449 390
f 377 390 388
f 377 379 450
f 377 450 451
f 377 451 452
f 377 452 449
f 378 448 453
f 378 453 454
f 378 454 455
f 378 455 379
f 379 455 454
f 379 454 456
f 379 456 457
f 379 457 450
f 380 441 381
f 382 393 383
f 383 393 458
f 383 458 459
f 383 459 384
f 384 459 460
f 384 460 385
f 385 460 386
f 386 460 398
f 388 390 389
f 390 461 391
f 390 449 462
f 390 462 461
f 391 461 463
f 391 463 464
f 391 464 392
f 392 464 393
f 393 464 458
f 395 400 465
f 395 465 396
f 396 466 397
f 396 465 467
f 396 467 468
f 396 468 469
f 396 469 470
f 396 470 401
f 396 401 466
f 397 466 401
f 398 460 471
f 398 471 399
f 399 471 472
f 399 472 465
f 399 465 400
f 408 411 409
f 409 411 410
f 411 473 474
f 411 474 412
f 411 475 476
f 411 476 413
f 411 413 473
f 412 474 413
f 413 476 416
f 413 415 414
f 413 474 473
f 416 476 477
f 416 477 418
f 416 418 478
f 416 478 417
f 417 478 418
f 418 477 479
f 418 479 419
f 419 480 422
f 419 422 421
f 419 479 480
f 422 480 481
f 422 481 423
f 423 481 424
f 424 482 425
f 424 481 482
f 425 482 483
f 425 483 484
f 425 484 485
f 425 485 426
f 426 485 427
f 427 485 428
f 428 486 487
f 428 487 488
f 428 488 551
f 428 551 489
f 428 489 430
f 428 485 490
f 428 490 486
f 430 489 491
f 430 491 431
f 431 492 432
f 431 491 493
f 431 493 494
f 431 494 495
f 431 495 496
f 431 496 436
f 431 436 492
f 432 492 434
f 432 434 433
f 434 492 435
f 435 492 439
f 436 496 437
f 436 439 492
f 437 496 495
f 437 495 497
f 437 497 438
f 438 497 498
f 438 498 499
f 438 499 440
f 442 500 443
f 442 445 501
f 442 501 500
f 443 500 502
f 443 502 446
f 446 503 504
f 446 504 505
f 446 505 447
f 446 502 503
f 447 505 453
f 447 453 448
f 449 506 507
f 449 507 508
f 449 508 509
f 449 509 510
f 449 510 511
f 449 511 461
f 449 461 462
f 449 452 512
f 449 512 513
f 449 513 514
f 449 514 515
f 449 515 506
f 450 457 451
f 451 457 456
f 451 456 516
f 453 505 504
f 453 504 517
f 453 517 518
f 453 518 454
f 454 518 519
f 454 519 520
f 454 520 521
f 454 521 516
f 454 516 456
f 458 464 459
f 459 464 522
f 459 522 460
f 460 522 471
f 461 511 523
f 461 523 524
f 461 524 463
f 463 524 525
f 463 525 526
f 463 526 464
f 464 526 522
f 465 472 467
f 467 472 527
f 467 527 528
f 467 528 529
f 467 529 530
f 467 530 531
f 467 531 532
f 467 532 533
f 467 533 468
f 471 527 472
f 471 522 534
f 471 534 527
f 475 535 536
f 475 536 476
f 476 536 537
f 476 537 538
f 476 538 479
f 476 479 477
f 479 538 480
f 480 539 540
f 480 540 481
f 480 538 539
f 481 540 541
f 481 541 482
f 482 541 483
f 483 541 540
f 483 540 542
f 483 542 543
f 483 543 544
f 483 544 484
f 484 544 490
f 484 490 485
f 486 490 487
f 487 545 546
f 487 546 547
f 487 547 548
f 487 548 488
f 487 490 549
f 487 549 545
f 488 548 550
f 488 550 551
f 489 551 552
f 489 552 553
f 489 553 554
f 489 554 491
f 490 544 549
f 491 554 553
f 491 553 555
f 491 555 556
f 491 556 493
f 493 557 494
f 494 557 558
f 494 558 559
f 494 559 495
f 495 559 498
f 495 498 497
f 498 559 560
f 498 560 499
f 500 561 502
f 500 501 562
f 500 562 561
f 501 563 562
f 502 561 503
f 503 561 564
f 503 564 504
f 504 564 565
f 504 565 517
f 506 566 567
f 506 567 507
f 506 515 568
f 506 568 566
f 507 567 509
f 507 509 508
f 509 567 569
f 509 569 570
f 509 570 510
f 510 570 523
f 510 523 511
f 516 521 520
f 517 565 571
f 517 571 518
f 518 571 572
f 518 572 519
f 522 526 573
f 522 573 534
f 523 570 574
f 523 574 524
f 524 574 575
f 524 575 528
f 524 528 525
f 525 528 576
f 525 576 526
f 526 576 573
f 527 534 573
f 527 573 576
f 527 576 528
f 528 575 529
f 529 577 578
f 529 578 530
f 529 575 579
f 529 579 577
f 535 580 536
f 536 580 581
f 536 581 582
f 536 582 537
f 537 582 538
f 538 582 539
f 539 583 584
f 539 584 540
f 539 582 583
f 540 584 542
f 542 585 543
f 542 584 585
f 543 585 586
f 543 586 544
f 544 586 587
f 544 587 549
f 545 588 546
f 545 549 588
f 546 588 547
f 547 588 589
f 547 589 590
f 547 590 591
f 547 591 548
f 548 591 550
f 549 587 592
f 549 592 589
f 549 589 588
f 550 591 593
f 550 593 552
f 550 552 551
f 558 560 559
f 561 562 594
f 561 594 595
f 561 595 596
f 561 596 597
f 561 597 564
f 562 563 598
f 562 598 594
f 564 597 599
f 564 599 600
f 564 600 565
f 565 600 601
f 565 601 602
f 565 602 571
f 566 568 567
f 567 568 603
f 567 603 604
f 567 604 605
f 567 605 569
f 569 606 570
f 570 607 608
f 570 608 609
f 570 609 574
f 570 606 610
f 570 610 607
f 571 602 611
f 571 611 612
f 571 612 613
f 571 613 572
f 574 609 614
f 574 614 579
f 574 579 575
f 577 579 615
f 579 614 615
f 580 616 583
f 580 583 582
f 580 582 581
f 583 617 584
f 583 616 617
f 584 617 585
f 585 618 586
f 585 617 618
f 586 618 619
f 586 619 587
f 587 619 620
f 587 620 621
f 587 621 592
f 589 622 590
f 589 592 621
f 589 621 623
f 589 623 624
f 589 624 625
f 589 625 622
f 590 622 626
f 590 626 627
f 590 627 591
f 591 627 593
f 596 628 597
f 597 628 629
f 597 629 630
f 597 630 599
f 599 630 600
f 604 631 632
f 604 632 633
f 604 633 605
f 616 634 617
f 617 634 635
f 617 635 618
f 618 636 619
f 618 635 636
f 619 636 620
f 620 636 637
f 620 637 621
f 621 637 623
f 622 638 626
f 622 625 639
f 622 639 640
f 622 640 641
f 622 641 638
f 623 637 642
f 623 642 643
f 623 643 624
f 626 638 644
f 626 644 627
f 627 644 645
f 631 646 647
f 631 647 633
f 631 633 632
f 635 637 636
f 638 641 644
f 644 648 649
f 644 649 650
f 644 650 645
f 646 651 647
f 647 651 653
f 647 653 654
f 647 654 652
f 648 655 656
f 648 656 657
f 648 657 658
f 648 658 659
f 648 659 649
f 652 654 660
f 652 660 661
f 660 663 661
f 661 663 662

