# https://github.com/mikedh/trimesh
v 0.08144030 -0.46793500 0.10179800
v 0.06447230 -0.46793500 0.13571700
v 0.08144030 -0.46793500 0.05091220
v 0.08144030 0.92625300 0.10179800
v 0.04409620 -0.46793500 0.15609300
v 0.06447230 0.92295300 0.13571700
v 0.06447230 -0.46793500 0.01697600
v 0.08144030 0.92625300 0.05091220
v 0.07803240 0.93312700 0.10179800
v 0.07803240 0.92969000 0.10857800
v 0.06786230 0.92969000 0.12893700
v 0.03053610 -0.46793500 0.16287300
v 0.04409620 0.92295300 0.15609300
v 0.05428430 -0.46793500 0.00678802
v 0.06447230 0.92625300 0.01697600
v 0.07889330 0.93133900 0.04581820
v 0.07803240 0.93312700 0.05091220
v 0.07125230 0.93656400 0.10179800
v 0.07634630 0.93395200 0.10687400
v 0.06615830 0.93395200 0.12723300
v 0.05598820 0.93395200 0.13742100
v 0.03731620 0.92969000 0.15948300
v -0.01018000 -0.46793500 0.17306100
v 0.03053610 0.92625300 0.16287300
v 0.02034810 -0.46793500 -0.01018000
v 0.05428430 0.92625300 0.00678802
v 0.06233780 0.93395200 0.02036610
v 0.06870530 0.93133900 0.02546010
v 0.07252580 0.93395200 0.04072410
v 0.07125230 0.93656400 0.05091220
v 0.06106430 0.93656400 0.12215700
v 0.04580020 0.93395200 0.14760900
v 0.03561220 0.93395200 0.15777900
v 0.03053610 0.93312700 0.15948300
v -0.01018000 0.92625300 0.17306100
v -0.04070820 -0.46793500 0.16287300
v -0.03053810 -0.46793500 -0.01018000
v 0.02034810 0.92625300 -0.01018000
v 0.04409620 0.93312700 0.00339799
v 0.04834720 0.93133900 0.00510198
v 0.05216770 0.93395200 0.01019600
v 0.05089420 0.93656400 0.02036610
v 0.06106430 0.93656400 0.03055410
v 0.03053610 0.93656400 0.15268500
v -0.00510397 0.93395200 0.16796700
v -0.01018000 0.93312700 0.16965300
v -0.01525610 0.93133900 0.17051400
v -0.04580220 0.93133900 0.16032600
v -0.04070820 0.92625300 0.16287300
v -0.04750620 -0.46793500 0.15948300
v -0.06445630 -0.46793500 0.00678802
v -0.03053810 0.92625300 -0.01018000
v 0.02373810 0.93312700 -0.00677208
v 0.02034810 0.93656400 0.00000797
v 0.04070620 0.93656400 0.01019600
v -0.01018000 0.93656400 0.16287300
v -0.04070820 0.93312700 0.15948300
v -0.06616030 0.93133900 0.15015600
v -0.04750620 0.92625300 0.15948300
v -0.05089620 0.93395200 0.15395800
v -0.06809750 -0.46793500 0.14918700
v -0.08483230 -0.46793500 0.02716400
v -0.06445630 0.92969000 0.00678802
v -0.04409820 0.92969000 -0.00338206
v -0.02713020 0.93312700 -0.00677208
v -0.03053810 0.93656400 0.00000797
v -0.04070820 0.93656400 0.15268500
v -0.07125430 0.93395200 0.14378800
v -0.07464430 0.92625300 0.14590500
v -0.07464430 -0.46793500 0.14590500
v -0.09161240 -0.46793500 0.04072410
v -0.08483230 0.92969000 0.02716400
v -0.05938020 0.93477600 0.01188200
v -0.05089620 0.93656400 0.01019600
v -0.04750620 0.93312700 0.00339799
v -0.06106630 0.93656400 0.14251500
v -0.07803440 0.93312700 0.13571700
v -0.07634830 0.93133900 0.13996800
v -0.07125430 0.93656400 0.13232700
v -0.08483230 0.92625300 0.12554700
v -0.07815990 -0.46793500 0.13889100
v -0.10180000 -0.46793500 0.08144030
v -0.09161240 0.92625300 0.04072410
v -0.08822240 0.93312700 0.04411420
v -0.08142440 0.93656400 0.04072410
v -0.07973830 0.93477600 0.03224010
v -0.08822240 0.93312700 0.11535900
v -0.08142440 0.93656400 0.11196800
v -0.08822240 0.92625300 0.11876600
v -0.08822240 -0.46793500 0.11876600
v -0.09161240 -0.46793500 0.11196800
v -0.10180000 0.92625300 0.08144030
v -0.09839240 0.93312700 0.08483030
v -0.09161240 0.93656400 0.08144030
v -0.09161240 0.92625300 0.11196800
f 1 2 5
f 46 56 57
f 46 57 47
f 47 57 48
f 48 58 59
f 48 59 49
f 48 57 60
f 48 60 68
f 48 68 58
f 50 59 58
f 50 58 61
f 51 62 72
f 51 72 63
f 52 63 64
f 52 64 65
f 53 65 66
f 53 66 54
f 56 67 57
f 57 67 60
f 58 68 69
f 45 56 46
f 41 55 42
f 39 41 40
f 39 55 41
f 27 43 30
f 27 30 29
f 32 44 33
f 33 44 56
f 33 56 45
f 33 45 34
f 34 46 35
f 34 45 46
f 35 46 47
f 58 69 61
f 35 47 48
f 36 49 59
f 36 59 50
f 37 51 63
f 37 63 52
f 38 52 65
f 38 65 53
f 38 53 39
f 39 53 54
f 39 54 55
f 35 48 49
f 27 42 43
f 60 67 76
f 62 71 83
f 73 85 74
f 77 79 87
f 79 88 87
f 80 87 89
f 80 89 90
f 80 90 81
f 82 91 95
f 82 95 92
f 83 92 84
f 84 92 93
f 84 93 94
f 84 94 85
f 87 93 92
f 87 92 95
f 87 95 89
f 87 88 94
f 87 94 93
f 89 95 91
f 89 91 90
f 73 86 85
f 72 85 86
f 72 84 85
f 72 83 84
f 62 83 72
f 63 72 86
f 63 86 73
f 63 73 74
f 63 74 75
f 63 75 64
f 64 75 66
f 64 66 65
f 66 75 74
f 61 69 70
f 68 77 78
f 68 76 79
f 68 79 77
f 69 78 77
f 69 77 87
f 69 87 80
f 69 80 81
f 69 81 70
f 71 82 92
f 71 92 83
f 68 78 69
f 27 41 42
f 60 76 68
f 26 39 40
f 3 7 15
f 3 15 16
f 3 16 8
f 4 8 17
f 4 17 9
f 4 9 10
f 4 10 11
f 4 11 6
f 5 13 22
f 5 22 24
f 5 24 12
f 6 11 22
f 6 22 13
f 7 14 26
f 7 26 15
f 8 16 17
f 9 17 30
f 9 30 18
f 9 18 19
f 2 13 5
f 1 6 2
f 1 4 6
f 1 8 4
f 26 40 41
f 1 5 12
f 1 12 23
f 1 23 36
f 1 36 50
f 1 50 61
f 1 61 70
f 1 70 81
f 1 81 90
f 9 19 10
f 1 90 91
f 1 82 71
f 1 71 62
f 1 62 51
f 1 51 37
f 1 37 25
f 1 25 14
f 1 14 7
f 1 7 3
f 1 3 8
f 1 91 82
f 10 19 11
f 2 6 13
f 11 19 20
f 18 94 88
f 18 88 79
f 18 79 76
f 18 76 67
f 18 67 56
f 18 56 44
f 18 44 31
f 18 31 20
f 20 31 21
f 18 85 94
f 21 31 44
f 22 32 33
f 22 33 34
f 22 34 35
f 22 35 24
f 23 35 49
f 23 49 36
f 25 37 52
f 25 52 38
f 26 38 39
f 21 44 32
f 18 74 85
f 18 20 19
f 18 66 74
f 11 20 21
f 11 21 32
f 11 32 22
f 12 24 35
f 12 35 23
f 14 25 38
f 15 26 41
f 15 41 27
f 15 27 28
f 15 28 16
f 14 38 26
f 16 27 29
f 16 29 17
f 17 29 30
f 18 30 43
f 18 43 42
f 18 42 55
f 18 55 54
f 16 28 27
f 18 54 66

